<?xml version="1.0" encoding="UTF-8"?>
<!DOCTYPE svg PUBLIC "-//W3C//DTD SVG 1.1//EN" "http://www.w3.org/Graphics/SVG/1.1/DTD/svg11.dtd">
<svg xmlns="http://www.w3.org/2000/svg" version="1.1" width="60px" height="60px" style="shape-rendering:geometricPrecision; text-rendering:geometricPrecision; image-rendering:optimizeQuality; fill-rule:evenodd; clip-rule:evenodd" xmlns:xlink="http://www.w3.org/1999/xlink">
<g><path style="opacity:1" fill="#000000" d="M 18.5,3.5 C 25.8409,3.33368 33.1742,3.50034 40.5,4C 45.3333,8.83333 50.1667,13.6667 55,18.5C 55.6667,25.8333 55.6667,33.1667 55,40.5C 50.1667,45.3333 45.3333,50.1667 40.5,55C 33.1667,55.6667 25.8333,55.6667 18.5,55C 13.6667,50.1667 8.83333,45.3333 4,40.5C 3.33333,33.1667 3.33333,25.8333 4,18.5C 9.03651,13.6313 13.8698,8.63128 18.5,3.5 Z"/></g>
<g><path style="opacity:1" fill="#7e807e" d="M 19.5,5.5 C 26.175,5.33375 32.8417,5.50042 39.5,6C 44,10.5 48.5,15 53,19.5C 53.6667,26.1667 53.6667,32.8333 53,39.5C 48.5,44 44,48.5 39.5,53C 32.8333,53.6667 26.1667,53.6667 19.5,53C 15,48.5 10.5,44 6,39.5C 5.33333,32.8333 5.33333,26.1667 6,19.5C 10.7033,14.9645 15.2033,10.2979 19.5,5.5 Z"/></g>
<g><path style="opacity:1" fill="#178012" d="M 24.5,13.5 C 26.0898,13.6282 27.4231,14.2949 28.5,15.5C 31.4281,16.4841 34.4281,16.8174 37.5,16.5C 37.7035,18.3904 37.0368,19.8904 35.5,21C 37.8098,21.4966 40.1432,21.6633 42.5,21.5C 41.8144,25.287 42.8144,28.4537 45.5,31C 43.5343,32.46 41.8677,34.1266 40.5,36C 41.7069,38.2659 43.3736,40.0992 45.5,41.5C 45.1131,42.7199 44.2798,43.3865 43,43.5C 40.0125,41.8459 37.6792,39.5125 36,36.5C 37.0073,43.6675 34.174,46.3342 27.5,44.5C 27,43.5 26.5,42.5 26,41.5C 22.9978,43.171 19.8312,44.0043 16.5,44C 14.8753,43.1475 14.5419,42.1475 15.5,41C 19.0189,40.6047 22.3522,39.6047 25.5,38C 22.7682,37.8462 20.1015,38.3462 17.5,39.5C 16.1667,38.8333 15.1667,37.8333 14.5,36.5C 19.5556,35.5734 24.2222,33.7401 28.5,31C 25.0395,31.5723 21.5395,32.4056 18,33.5C 16.5659,33.0696 15.3992,32.2362 14.5,31C 17.8772,30.5483 21.2105,29.8816 24.5,29C 22.5273,28.5045 20.5273,28.3379 18.5,28.5C 18.6602,26.8008 18.4935,25.1341 18,23.5C 16.6361,24.2583 15.4695,23.7583 14.5,22C 18.6125,20.0519 21.9459,17.2186 24.5,13.5 Z"/></g>
<g><path style="opacity:1" fill="#7b807b" d="M 24.5,19.5 C 26.8568,19.3367 29.1902,19.5034 31.5,20C 29.0454,21.5403 26.3787,21.8736 23.5,21C 24.056,20.6174 24.3893,20.1174 24.5,19.5 Z"/></g>
<g><path style="opacity:1" fill="#7a8079" d="M 36.5,29.5 C 42.2455,27.7549 42.7455,28.7549 38,32.5C 37.7679,31.2625 37.2679,30.2625 36.5,29.5 Z"/></g>
<g><path style="opacity:1" fill="#638062" d="M 30.5,39.5 C 31.0431,39.56 31.3764,39.8933 31.5,40.5C 30.635,41.5827 29.635,41.7494 28.5,41C 29.4158,40.7216 30.0825,40.2216 30.5,39.5 Z"/></g>
</svg>
