<?xml version="1.0" encoding="UTF-8"?>
<!DOCTYPE svg PUBLIC "-//W3C//DTD SVG 1.1//EN" "http://www.w3.org/Graphics/SVG/1.1/DTD/svg11.dtd">
<svg xmlns="http://www.w3.org/2000/svg" version="1.1" width="470px" height="466px" style="shape-rendering:geometricPrecision; text-rendering:geometricPrecision; image-rendering:optimizeQuality; fill-rule:evenodd; clip-rule:evenodd" xmlns:xlink="http://www.w3.org/1999/xlink">
<g><path style="opacity:0.996" fill="#97948e" d="M 274.5,51.5 C 279.332,52.1285 284.332,52.2951 289.5,52C 294.565,54.4101 299.899,55.9101 305.5,56.5C 320.924,62.9187 335.59,70.7521 349.5,80C 352.432,82.2845 355.098,84.7845 357.5,87.5C 358.849,90.4475 360.683,93.1141 363,95.5C 363.498,98.4816 363.665,101.482 363.5,104.5C 368.816,107.004 374.483,108.004 380.5,107.5C 381.492,107.328 382.158,107.662 382.5,108.5C 381.549,109.919 381.216,111.585 381.5,113.5C 383.199,113.34 384.866,113.506 386.5,114C 388.037,115.707 389.704,117.207 391.5,118.5C 396.132,121.143 400.465,124.143 404.5,127.5C 407.094,131.272 409.927,134.939 413,138.5C 413.18,140.488 413.014,142.488 412.5,144.5C 415.504,144.722 418.171,145.722 420.5,147.5C 421.992,156.809 423.492,166.142 425,175.5C 425.36,177.608 426.027,179.608 427,181.5C 427.383,180.944 427.883,180.611 428.5,180.5C 428.5,181.167 428.5,181.833 428.5,182.5C 426.608,197.521 427.441,212.521 431,227.5C 432.4,229.737 434.233,231.404 436.5,232.5C 436.799,236.826 437.799,240.993 439.5,245C 439.287,248.926 437.62,252.092 434.5,254.5C 435.313,255.814 436.313,256.981 437.5,258C 436.54,261.73 436.207,265.563 436.5,269.5C 435.883,269.611 435.383,269.944 435,270.5C 434.984,277.737 433.817,284.737 431.5,291.5C 430.503,291.47 429.836,291.97 429.5,293C 420.849,309.802 412.349,326.636 404,343.5C 403.503,346.146 403.336,348.813 403.5,351.5C 400.813,351.336 398.146,351.503 395.5,352C 388.93,359.516 381.93,366.516 374.5,373C 362.214,382.149 349.548,390.816 336.5,399C 330.891,403.606 325.558,408.606 320.5,414C 317.51,414.76 315.01,413.927 313,411.5C 311.3,413.606 309.133,415.106 306.5,416C 295.138,416.274 283.805,415.774 272.5,414.5C 257.201,416.105 241.868,416.605 226.5,416C 223.615,415.305 220.782,414.472 218,413.5C 212.861,415.097 208.027,417.264 203.5,420C 194.248,422.804 184.915,423.137 175.5,421C 157.791,413.312 140.791,404.312 124.5,394C 118.667,389.5 113.5,384.333 109,378.5C 108.788,375.242 108.288,372.076 107.5,369C 102.393,367.205 97.06,366.205 91.5,366C 90.9103,364.491 90.2436,362.991 89.5,361.5C 88.2638,362.246 86.9305,362.579 85.5,362.5C 84.7579,359.191 83.0912,356.357 80.5,354C 72.1734,349.681 65.0067,343.848 59,336.5C 58.3486,334.765 58.5153,333.098 59.5,331.5C 55.3671,329.867 52.8671,326.867 52,322.5C 51.3533,332.291 53.8533,341.124 59.5,349C 60.7932,349.49 62.1266,349.657 63.5,349.5C 62.833,351.819 62.6664,354.153 63,356.5C 66.6762,360.009 70.1762,363.676 73.5,367.5C 68.8871,364.225 64.5538,360.558 60.5,356.5C 59.1667,354.833 59.1667,353.167 60.5,351.5C 57.1579,349.83 54.9913,347.164 54,343.5C 51.3165,333.615 49.1498,323.615 47.5,313.5C 48.6484,309.019 48.8151,304.352 48,299.5C 46.1649,289.775 44.6649,280.108 43.5,270.5C 41.0266,265.553 38.5266,260.553 36,255.5C 35.5026,252.854 35.3359,250.187 35.5,247.5C 35.8333,247.5 36.1667,247.5 36.5,247.5C 36.865,254.221 39.1983,260.221 43.5,265.5C 43.8333,264.833 44.1667,264.167 44.5,263.5C 43.8961,256.982 42.5628,250.649 40.5,244.5C 39.5,244.5 38.5,244.5 37.5,244.5C 37.9175,243.778 38.5842,243.278 39.5,243C 38.6919,242.692 38.0253,242.192 37.5,241.5C 35.9631,237.595 34.2964,233.761 32.5,230C 33.8031,227.256 34.8031,224.423 35.5,221.5C 35.8039,220.85 36.1373,220.183 36.5,219.5C 32.6919,216.894 32.6919,214.227 36.5,211.5C 37.4174,211.506 37.9174,210.506 38,208.5C 38.1701,201.77 38.8368,195.103 40,188.5C 45.3677,178.43 50.2011,168.097 54.5,157.5C 57.613,148.675 61.7797,140.341 67,132.5C 68.1989,129.274 68.6989,125.941 68.5,122.5C 70.5273,122.662 72.5273,122.495 74.5,122C 77.3968,119.59 80.3968,117.423 83.5,115.5C 90.4882,108.515 97.8216,101.848 105.5,95.5C 106.29,94.2058 107.29,93.0391 108.5,92C 118.339,85.6444 128.005,79.1444 137.5,72.5C 143.221,69.9458 147.887,66.1125 151.5,61C 155.17,61.1594 158.837,61.6594 162.5,62.5C 162.433,61.0413 162.766,59.7079 163.5,58.5C 166.449,57.9312 169.449,57.5979 172.5,57.5C 180.986,59.4093 189.653,60.4093 198.5,60.5C 203.833,60.1667 209.167,59.8333 214.5,59.5C 218.916,59.1182 222.916,58.1182 226.5,56.5C 235.684,56.1309 244.684,57.1309 253.5,59.5C 260.447,56.8486 267.447,54.1819 274.5,51.5 Z"/></g>
<g><path style="opacity:0.757" fill="#c8c6c3" d="M 305.5,56.5 C 299.899,55.9101 294.565,54.4101 289.5,52C 284.332,52.2951 279.332,52.1285 274.5,51.5C 285.629,49.0637 295.962,50.7304 305.5,56.5 Z"/></g>
<g><path style="opacity:0.383" fill="#bcbab5" d="M 226.5,56.5 C 222.916,58.1182 218.916,59.1182 214.5,59.5C 209.167,59.8333 203.833,60.1667 198.5,60.5C 189.653,60.4093 180.986,59.4093 172.5,57.5C 169.449,57.5979 166.449,57.9312 163.5,58.5C 165.607,56.3485 168.274,55.3485 171.5,55.5C 180.454,57.159 189.454,58.4923 198.5,59.5C 207.887,58.4975 217.221,57.4975 226.5,56.5 Z"/></g>
<g><path style="opacity:0.165" fill="#c5c4c0" d="M 163.5,58.5 C 162.766,59.7079 162.433,61.0413 162.5,62.5C 158.837,61.6594 155.17,61.1594 151.5,61C 147.887,66.1125 143.221,69.9458 137.5,72.5C 142.271,68.2309 146.938,63.7309 151.5,59C 154.304,58.5403 156.971,59.0403 159.5,60.5C 160.622,59.3698 161.956,58.7031 163.5,58.5 Z"/></g>
<g><path style="opacity:0.18" fill="#c7c6bf" d="M 105.5,95.5 C 97.8216,101.848 90.4882,108.515 83.5,115.5C 84.9188,112.9 86.5854,110.4 88.5,108C 93.515,102.838 99.1817,98.6712 105.5,95.5 Z"/></g>
<g><path style="opacity:0.633" fill="#c5c3c0" d="M 357.5,87.5 C 363.099,91.3633 366.099,96.6966 366.5,103.5C 371.111,105.475 375.778,106.809 380.5,107.5C 374.483,108.004 368.816,107.004 363.5,104.5C 363.665,101.482 363.498,98.4816 363,95.5C 360.683,93.1141 358.849,90.4475 357.5,87.5 Z"/></g>
<g><path style="opacity:0.996" fill="#be2c1d" d="M 310.5,125.5 C 306.373,132.404 302.206,139.404 298,146.5C 296.259,149.309 295.092,152.309 294.5,155.5C 295.5,155.5 296.5,155.5 297.5,155.5C 300.216,155.322 302.883,154.822 305.5,154C 313.76,151.582 321.76,148.582 329.5,145C 336.591,143.719 343.258,144.719 349.5,148C 351.684,149.898 352.017,152.064 350.5,154.5C 330.573,162.906 309.907,166.072 288.5,164C 284.546,168.742 280.713,173.576 277,178.5C 272.906,183.102 268.406,187.102 263.5,190.5C 262.351,190.209 261.684,189.376 261.5,188C 263.313,184.872 264.98,181.706 266.5,178.5C 278.33,161.872 285.997,143.372 289.5,123C 288.399,119.575 287.899,116.075 288,112.5C 296.553,111.428 303.887,114.095 310,120.5C 310.494,122.134 310.66,123.801 310.5,125.5 Z"/></g>
<g><path style="opacity:0.863" fill="#c4c2be" d="M 382.5,108.5 C 382.281,109.675 382.614,110.675 383.5,111.5C 385.042,110.253 386.542,110.253 388,111.5C 389.193,113.886 390.36,116.22 391.5,118.5C 389.704,117.207 388.037,115.707 386.5,114C 384.866,113.506 383.199,113.34 381.5,113.5C 381.216,111.585 381.549,109.919 382.5,108.5 Z"/></g>
<g><path style="opacity:0.996" fill="#be2b1d" d="M 243.5,154.5 C 238.742,157.323 234.076,157.156 229.5,154C 222.779,146.802 217.113,138.969 212.5,130.5C 211.755,127.07 213.089,125.403 216.5,125.5C 220.035,126.006 223.535,126.672 227,127.5C 233.814,129.978 239.148,134.311 243,140.5C 243.499,145.155 243.666,149.821 243.5,154.5 Z"/></g>
<g><path style="opacity:0.996" fill="#be2b1c" d="M 180.5,156.5 C 180.361,167.98 175.361,170.48 165.5,164C 158.692,156.813 152.025,149.646 145.5,142.5C 145.38,140.801 145.046,139.135 144.5,137.5C 144.529,135.971 145.196,134.804 146.5,134C 159.392,134.695 170.226,139.862 179,149.5C 180.202,151.677 180.702,154.011 180.5,156.5 Z"/></g>
<g><path style="opacity:0.996" fill="#513e3b" d="M 310.5,125.5 C 311.218,127.137 311.384,128.803 311,130.5C 305.967,138.568 301.467,146.902 297.5,155.5C 296.5,155.5 295.5,155.5 294.5,155.5C 295.092,152.309 296.259,149.309 298,146.5C 302.206,139.404 306.373,132.404 310.5,125.5 Z"/></g>
<g><path style="opacity:0.82" fill="#c8c6c3" d="M 404.5,127.5 C 409.479,130.479 413.479,134.479 416.5,139.5C 415.674,140.451 415.508,141.451 416,142.5C 418.415,143.411 419.915,145.078 420.5,147.5C 418.171,145.722 415.504,144.722 412.5,144.5C 413.014,142.488 413.18,140.488 413,138.5C 409.927,134.939 407.094,131.272 404.5,127.5 Z"/></g>
<g><path style="opacity:0.996" fill="#4b403f" d="M 145.5,142.5 C 152.025,149.646 158.692,156.813 165.5,164C 175.361,170.48 180.361,167.98 180.5,156.5C 181.753,161.51 181.253,166.51 179,171.5C 176.159,173.504 172.993,174.004 169.5,173C 159.867,165.704 152.033,156.87 146,146.5C 145.51,145.207 145.343,143.873 145.5,142.5 Z"/></g>
<g><path style="opacity:0.996" fill="#473f3e" d="M 212.5,130.5 C 217.113,138.969 222.779,146.802 229.5,154C 234.076,157.156 238.742,157.323 243.5,154.5C 242.427,162.559 238.094,164.725 230.5,161C 223.535,153.692 217.702,145.525 213,136.5C 212.505,134.527 212.338,132.527 212.5,130.5 Z"/></g>
<g><path style="opacity:0.996" fill="#473d3c" d="M 350.5,154.5 C 350.799,156.604 350.466,158.604 349.5,160.5C 343.473,162.565 337.473,164.731 331.5,167C 322.859,167.862 314.359,169.362 306,171.5C 301.06,171.516 296.227,170.849 291.5,169.5C 290.167,169.833 288.833,170.167 287.5,170.5C 282.189,177.809 276.522,184.809 270.5,191.5C 268.738,192.262 267.738,193.596 267.5,195.5C 265.565,196.15 263.565,196.483 261.5,196.5C 261.253,194.142 261.919,192.142 263.5,190.5C 268.406,187.102 272.906,183.102 277,178.5C 280.713,173.576 284.546,168.742 288.5,164C 309.907,166.072 330.573,162.906 350.5,154.5 Z"/></g>
<g><path style="opacity:0.573" fill="#bebcb8" d="M 420.5,147.5 C 422.135,151.664 423.635,155.998 425,160.5C 425.662,167.299 426.829,173.966 428.5,180.5C 427.883,180.611 427.383,180.944 427,181.5C 426.027,179.608 425.36,177.608 425,175.5C 423.492,166.142 421.992,156.809 420.5,147.5 Z"/></g>
<g><path style="opacity:0.996" fill="#be2b1c" d="M 265.5,173.5 C 257.07,177.422 248.403,180.755 239.5,183.5C 237.182,183.997 234.848,184.33 232.5,184.5C 232.622,187.292 233.956,189.292 236.5,190.5C 237.545,196.153 237.712,201.819 237,207.5C 239.364,208.881 241.864,209.881 244.5,210.5C 247.053,212.584 250.053,213.917 253.5,214.5C 257.916,215.912 259.916,218.912 259.5,223.5C 257.926,226.907 256.926,230.573 256.5,234.5C 255.732,236.715 255.065,239.048 254.5,241.5C 252.978,246.273 251.978,251.273 251.5,256.5C 251.5,256.833 251.5,257.167 251.5,257.5C 248.856,268.074 246.19,278.741 243.5,289.5C 239.866,297.241 234.866,304.075 228.5,310C 224.77,310.979 221.936,309.813 220,306.5C 218.14,299.118 214.974,292.451 210.5,286.5C 208.919,284.858 208.253,282.858 208.5,280.5C 212.021,280.83 215.021,282.33 217.5,285C 221.909,286.262 225.743,285.428 229,282.5C 231.438,277.58 233.605,272.58 235.5,267.5C 236.222,267.082 236.722,266.416 237,265.5C 237.678,260.46 238.511,255.46 239.5,250.5C 239.808,246.64 240.475,242.974 241.5,239.5C 242.651,234.35 242.817,229.016 242,223.5C 239.757,218.881 236.257,216.381 231.5,216C 223.48,240.027 210.146,260.694 191.5,278C 189.253,279.374 187.087,280.874 185,282.5C 183.56,283.148 182.06,283.481 180.5,283.5C 180.34,281.801 180.506,280.134 181,278.5C 200.024,256.491 213.357,231.491 221,203.5C 221.498,200.518 221.665,197.518 221.5,194.5C 221.66,192.801 221.494,191.134 221,189.5C 220.275,188.941 219.442,188.608 218.5,188.5C 208.621,191.155 198.621,191.822 188.5,190.5C 186.787,189.777 185.787,188.443 185.5,186.5C 185.747,185.287 186.414,184.62 187.5,184.5C 191.49,184.001 195.49,183.501 199.5,183C 200.416,182.722 201.082,182.222 201.5,181.5C 217.908,177.137 234.242,171.97 250.5,166C 254.5,165.333 258.5,165.333 262.5,166C 266.312,167.432 267.312,169.932 265.5,173.5 Z"/></g>
<g><path style="opacity:0.996" fill="#463d3b" d="M 265.5,173.5 C 266.301,175.042 266.634,176.708 266.5,178.5C 256.823,183.097 246.823,187.097 236.5,190.5C 233.956,189.292 232.622,187.292 232.5,184.5C 234.848,184.33 237.182,183.997 239.5,183.5C 248.403,180.755 257.07,177.422 265.5,173.5 Z"/></g>
<g><path style="opacity:0.961" fill="#c6c4c0" d="M 54.5,157.5 C 50.2011,168.097 45.3677,178.43 40,188.5C 38.8368,195.103 38.1701,201.77 38,208.5C 37.9174,210.506 37.4174,211.506 36.5,211.5C 35.934,203 36.7674,194.667 39,186.5C 43.6864,176.454 48.8531,166.787 54.5,157.5 Z"/></g>
<g><path style="opacity:0.996" fill="#bf2b1c" d="M 342.5,194.5 C 330.37,201.781 319.204,210.447 309,220.5C 308.516,222.193 309.016,223.527 310.5,224.5C 312.603,228.574 313.936,232.907 314.5,237.5C 319.853,236.863 325.186,236.03 330.5,235C 336.167,234.333 341.833,234.333 347.5,235C 352.167,237 356.833,239 361.5,241C 362.768,243.163 362.768,245.33 361.5,247.5C 361.167,247.5 360.833,247.5 360.5,247.5C 346.211,248.3 331.878,248.8 317.5,249C 316.514,259.084 316.181,269.251 316.5,279.5C 316.5,282.833 316.5,286.167 316.5,289.5C 314.561,293.369 313.561,297.703 313.5,302.5C 311.337,308.861 307.67,314.361 302.5,319C 299.97,320.422 297.303,320.755 294.5,320C 290.102,311.104 283.769,303.937 275.5,298.5C 273.615,296.947 272.615,294.947 272.5,292.5C 280.417,294.184 288.417,294.684 296.5,294C 299.142,291.424 300.642,288.257 301,284.5C 301.977,279.207 302.477,273.874 302.5,268.5C 303.489,263.025 303.822,257.358 303.5,251.5C 300.615,251.194 297.948,251.527 295.5,252.5C 294.833,252.5 294.167,252.5 293.5,252.5C 289.837,252.952 286.17,253.452 282.5,254C 281.584,254.278 280.918,254.778 280.5,255.5C 276.869,256.412 273.203,256.579 269.5,256C 266.268,253.886 262.935,252.053 259.5,250.5C 258.067,248.482 258.401,246.815 260.5,245.5C 273.545,244.946 286.545,243.78 299.5,242C 300.056,241.617 300.389,241.117 300.5,240.5C 301.125,234.395 299.125,229.062 294.5,224.5C 293.833,223.5 293.167,222.5 292.5,221.5C 292.5,220.5 292.5,219.5 292.5,218.5C 296.042,218.813 299.375,218.479 302.5,217.5C 307.556,211.11 312.223,204.443 316.5,197.5C 318.28,196.01 318.946,194.01 318.5,191.5C 314.405,191.808 310.405,192.641 306.5,194C 300.5,196.667 294.5,199.333 288.5,202C 284.167,202.667 279.833,202.667 275.5,202C 273.34,200.668 271.34,199.168 269.5,197.5C 268.5,197.167 267.833,196.5 267.5,195.5C 267.738,193.596 268.738,192.262 270.5,191.5C 287.895,191.936 304.228,188.102 319.5,180C 324.912,177.917 330.245,178.083 335.5,180.5C 338.241,182.953 341.075,185.286 344,187.5C 344.815,190.198 344.315,192.532 342.5,194.5 Z"/></g>
<g><path style="opacity:0.996" fill="#ad5249" d="M 201.5,181.5 C 201.082,182.222 200.416,182.722 199.5,183C 195.49,183.501 191.49,184.001 187.5,184.5C 191.883,182.77 196.55,181.77 201.5,181.5 Z"/></g>
<g><path style="opacity:0.996" fill="#463e3d" d="M 221.5,194.5 C 211.6,196.544 201.6,197.378 191.5,197C 189.481,196.55 187.648,195.717 186,194.5C 185.09,192.055 185.924,190.722 188.5,190.5C 198.621,191.822 208.621,191.155 218.5,188.5C 219.442,188.608 220.275,188.941 221,189.5C 221.494,191.134 221.66,192.801 221.5,194.5 Z"/></g>
<g><path style="opacity:0.996" fill="#453c3b" d="M 316.5,197.5 C 306.358,200.492 296.358,203.992 286.5,208C 278.449,209.986 272.115,207.653 267.5,201C 267.978,199.697 268.645,198.531 269.5,197.5C 271.34,199.168 273.34,200.668 275.5,202C 279.833,202.667 284.167,202.667 288.5,202C 294.5,199.333 300.5,196.667 306.5,194C 310.405,192.641 314.405,191.808 318.5,191.5C 318.946,194.01 318.28,196.01 316.5,197.5 Z"/></g>
<g><path style="opacity:0.996" fill="#473b39" d="M 342.5,194.5 C 345.017,196.077 345.017,197.91 342.5,200C 330.903,206.964 320.236,215.13 310.5,224.5C 309.016,223.527 308.516,222.193 309,220.5C 319.204,210.447 330.37,201.781 342.5,194.5 Z"/></g>
<g><path style="opacity:0.996" fill="#a9564e" d="M 162.5,199.5 C 160.097,199.448 157.764,199.781 155.5,200.5C 156.312,199.007 157.645,198.34 159.5,198.5C 160.726,198.52 161.726,198.853 162.5,199.5 Z"/></g>
<g><path style="opacity:0.996" fill="#bf2a1c" d="M 162.5,199.5 C 170.737,202.728 176.07,208.394 178.5,216.5C 165.658,226.167 159.991,238.834 161.5,254.5C 164.228,260.733 166.728,267.067 169,273.5C 170.164,281.782 170.831,290.116 171,298.5C 173.087,299.397 175.254,300.064 177.5,300.5C 177.611,301.117 177.944,301.617 178.5,302C 183.484,303.33 188.484,304.496 193.5,305.5C 201.792,309.036 210.459,311.702 219.5,313.5C 222.656,314.434 225.989,315.101 229.5,315.5C 229.611,316.117 229.944,316.617 230.5,317C 243.832,319.943 257.165,322.777 270.5,325.5C 270.611,326.117 270.944,326.617 271.5,327C 276.854,327.391 282.188,327.891 287.5,328.5C 289.5,328.5 291.5,328.5 293.5,328.5C 303.456,330.005 313.623,330.672 324,330.5C 330.833,330.333 337.667,330.167 344.5,330C 345.056,329.617 345.389,329.117 345.5,328.5C 355.845,328.244 366.179,328.078 376.5,328C 377.684,329.145 377.684,330.312 376.5,331.5C 357.959,339.348 338.959,346.014 319.5,351.5C 311.534,352.365 303.534,352.698 295.5,352.5C 282.041,349.559 269.041,345.559 256.5,340.5C 254.967,338.755 252.967,337.755 250.5,337.5C 222.882,328.273 195.216,319.106 167.5,310C 161.167,309.333 154.833,309.333 148.5,310C 141.889,311.689 135.223,313.189 128.5,314.5C 122.585,313.592 117.585,310.926 113.5,306.5C 111.983,304.064 112.316,301.898 114.5,300C 123.988,298.786 133.322,297.119 142.5,295C 147.823,294.501 153.156,294.334 158.5,294.5C 159.993,293.688 160.66,292.355 160.5,290.5C 159.27,277.807 155.27,266.14 148.5,255.5C 148.334,250.489 148.501,245.489 149,240.5C 150.611,235.835 152.111,231.168 153.5,226.5C 155.432,222.726 154.265,220.393 150,219.5C 140.59,222.91 131.09,223.243 121.5,220.5C 120.418,219.406 119.752,218.073 119.5,216.5C 119.747,215.287 120.414,214.62 121.5,214.5C 125.078,214.451 128.411,213.785 131.5,212.5C 140.353,210.073 148.353,206.073 155.5,200.5C 157.764,199.781 160.097,199.448 162.5,199.5 Z"/></g>
<g><path style="opacity:0.996" fill="#ab574e" d="M 244.5,210.5 C 247.947,211.083 250.947,212.416 253.5,214.5C 250.053,213.917 247.053,212.584 244.5,210.5 Z"/></g>
<g><path style="opacity:0.996" fill="#ab564d" d="M 131.5,212.5 C 128.411,213.785 125.078,214.451 121.5,214.5C 124.507,212.825 127.84,212.159 131.5,212.5 Z"/></g>
<g><path style="opacity:0.173" fill="#c7c6c2" d="M 428.5,182.5 C 429.102,194.157 429.602,205.824 430,217.5C 431.643,222.78 433.809,227.78 436.5,232.5C 434.233,231.404 432.4,229.737 431,227.5C 427.441,212.521 426.608,197.521 428.5,182.5 Z"/></g>
<g><path style="opacity:0.996" fill="#b04c41" d="M 302.5,217.5 C 299.375,218.479 296.042,218.813 292.5,218.5C 292.5,219.5 292.5,220.5 292.5,221.5C 290.418,220.415 290.084,218.915 291.5,217C 295.148,216.938 298.815,217.105 302.5,217.5 Z"/></g>
<g><path style="opacity:0.996" fill="#513e3c" d="M 178.5,216.5 C 178.799,218.604 178.466,220.604 177.5,222.5C 174.85,225.651 172.016,228.651 169,231.5C 166.81,235.076 164.81,238.743 163,242.5C 161.734,246.395 161.234,250.395 161.5,254.5C 159.991,238.834 165.658,226.167 178.5,216.5 Z"/></g>
<g><path style="opacity:0.996" fill="#463f3e" d="M 153.5,226.5 C 149.63,225.032 145.964,225.532 142.5,228C 137.167,228.667 131.833,228.667 126.5,228C 124.099,227.205 121.932,226.038 120,224.5C 119.156,222.537 119.656,221.204 121.5,220.5C 131.09,223.243 140.59,222.91 150,219.5C 154.265,220.393 155.432,222.726 153.5,226.5 Z"/></g>
<g><path style="opacity:0.996" fill="#4f3c3a" d="M 294.5,224.5 C 299.125,229.062 301.125,234.395 300.5,240.5C 300.167,240.5 299.833,240.5 299.5,240.5C 299.109,235.062 296.609,230.729 292,227.5C 290.855,224.113 291.688,223.113 294.5,224.5 Z"/></g>
<g><path style="opacity:0.996" fill="#5e514f" d="M 259.5,223.5 C 259.874,227.647 258.874,231.314 256.5,234.5C 256.926,230.573 257.926,226.907 259.5,223.5 Z"/></g>
<g><path style="opacity:0.635" fill="#cecdca" d="M 35.5,221.5 C 34.8031,224.423 33.8031,227.256 32.5,230C 34.2964,233.761 35.9631,237.595 37.5,241.5C 38.0253,242.192 38.6919,242.692 39.5,243C 38.5842,243.278 37.9175,243.778 37.5,244.5C 37.4431,245.609 37.1098,246.609 36.5,247.5C 36.1667,247.5 35.8333,247.5 35.5,247.5C 35.821,246.183 36.1543,244.849 36.5,243.5C 34.536,239.108 32.8693,234.608 31.5,230C 31.7981,226.571 33.1315,223.737 35.5,221.5 Z"/></g>
<g><path style="opacity:0.111" fill="#cbc9c7" d="M 436.5,232.5 C 441.704,239.855 441.704,247.188 436.5,254.5C 437.313,255.814 438.313,256.981 439.5,258C 439,258.5 438.5,259 438,259.5C 437.821,263.025 437.321,266.359 436.5,269.5C 436.207,265.563 436.54,261.73 437.5,258C 436.313,256.981 435.313,255.814 434.5,254.5C 437.62,252.092 439.287,248.926 439.5,245C 437.799,240.993 436.799,236.826 436.5,232.5 Z"/></g>
<g><path style="opacity:0.996" fill="#ac534a" d="M 299.5,240.5 C 299.833,240.5 300.167,240.5 300.5,240.5C 300.389,241.117 300.056,241.617 299.5,242C 286.545,243.78 273.545,244.946 260.5,245.5C 273.387,243.947 286.387,242.28 299.5,240.5 Z"/></g>
<g><path style="opacity:0.993" fill="#161616" d="M 37.5,244.5 C 38.5,244.5 39.5,244.5 40.5,244.5C 42.5628,250.649 43.8961,256.982 44.5,263.5C 44.1667,264.167 43.8333,264.833 43.5,265.5C 39.1983,260.221 36.865,254.221 36.5,247.5C 37.1098,246.609 37.4431,245.609 37.5,244.5 Z"/></g>
<g><path style="opacity:0.996" fill="#705551" d="M 254.5,241.5 C 254.875,246.911 253.875,251.911 251.5,256.5C 251.978,251.273 252.978,246.273 254.5,241.5 Z"/></g>
<g><path style="opacity:0.996" fill="#7d342e" d="M 360.5,247.5 C 360.389,248.117 360.056,248.617 359.5,249C 345.833,249.333 332.167,249.667 318.5,250C 317.62,251.356 317.286,252.856 317.5,254.5C 317.826,263.017 317.493,271.35 316.5,279.5C 316.181,269.251 316.514,259.084 317.5,249C 331.878,248.8 346.211,248.3 360.5,247.5 Z"/></g>
<g><path style="opacity:0.996" fill="#3e3c3c" d="M 360.5,247.5 C 360.833,247.5 361.167,247.5 361.5,247.5C 363.044,250.629 362.044,252.795 358.5,254C 344.837,254.5 331.171,254.667 317.5,254.5C 317.286,252.856 317.62,251.356 318.5,250C 332.167,249.667 345.833,249.333 359.5,249C 360.056,248.617 360.389,248.117 360.5,247.5 Z"/></g>
<g><path style="opacity:0.996" fill="#444140" d="M 259.5,250.5 C 262.935,252.053 266.268,253.886 269.5,256C 273.203,256.579 276.869,256.412 280.5,255.5C 285.124,255.237 289.458,254.237 293.5,252.5C 294.167,252.5 294.833,252.5 295.5,252.5C 297.833,252.5 300.167,252.5 302.5,252.5C 302.5,254.167 302.5,255.833 302.5,257.5C 293.897,257.489 285.564,258.989 277.5,262C 270.327,262.836 264.16,260.669 259,255.5C 258.616,253.803 258.782,252.137 259.5,250.5 Z"/></g>
<g><path style="opacity:0.996" fill="#622f2c" d="M 293.5,252.5 C 289.458,254.237 285.124,255.237 280.5,255.5C 280.918,254.778 281.584,254.278 282.5,254C 286.17,253.452 289.837,252.952 293.5,252.5 Z"/></g>
<g><path style="opacity:0.996" fill="#614845" d="M 148.5,255.5 C 155.27,266.14 159.27,277.807 160.5,290.5C 160.66,292.355 159.993,293.688 158.5,294.5C 158.833,287.987 158,281.654 156,275.5C 151.615,269.509 149.115,262.842 148.5,255.5 Z"/></g>
<g><path style="opacity:0.996" fill="#864944" d="M 295.5,252.5 C 297.948,251.527 300.615,251.194 303.5,251.5C 303.822,257.358 303.489,263.025 302.5,268.5C 302.5,264.833 302.5,261.167 302.5,257.5C 302.5,255.833 302.5,254.167 302.5,252.5C 300.167,252.5 297.833,252.5 295.5,252.5 Z"/></g>
<g><path style="opacity:0.996" fill="#4e3d3b" d="M 241.5,239.5 C 243.114,232.226 241.114,226.393 235.5,222C 234.167,221.333 232.833,221.333 231.5,222C 225.123,239.593 216.29,255.76 205,270.5C 199.469,276.366 193.635,281.866 187.5,287C 185.35,288.411 183.016,289.245 180.5,289.5C 180.935,287.297 180.935,285.297 180.5,283.5C 182.06,283.481 183.56,283.148 185,282.5C 187.087,280.874 189.253,279.374 191.5,278C 210.146,260.694 223.48,240.027 231.5,216C 236.257,216.381 239.757,218.881 242,223.5C 242.817,229.016 242.651,234.35 241.5,239.5 Z"/></g>
<g><path style="opacity:0.996" fill="#ae5046" d="M 239.5,250.5 C 238.511,255.46 237.678,260.46 237,265.5C 236.722,266.416 236.222,267.082 235.5,267.5C 235.882,261.493 237.216,255.827 239.5,250.5 Z"/></g>
<g><path style="opacity:0.996" fill="#6b5551" d="M 251.5,257.5 C 251.254,263.902 250.42,270.235 249,276.5C 246.417,282.534 244.751,288.867 244,295.5C 243.623,296.942 242.79,297.942 241.5,298.5C 242.578,295.598 243.244,292.598 243.5,289.5C 246.19,278.741 248.856,268.074 251.5,257.5 Z"/></g>
<g><path style="opacity:0.28" fill="#cbc8c5" d="M 43.5,270.5 C 44.6649,280.108 46.1649,289.775 48,299.5C 48.8151,304.352 48.6484,309.019 47.5,313.5C 46.847,305.429 45.6803,297.429 44,289.5C 43.5005,283.175 43.3338,276.842 43.5,270.5 Z"/></g>
<g><path style="opacity:0.996" fill="#7d645f" d="M 316.5,289.5 C 317.003,295.561 316.003,301.227 313.5,306.5C 313.5,305.167 313.5,303.833 313.5,302.5C 313.561,297.703 314.561,293.369 316.5,289.5 Z"/></g>
<g><path style="opacity:0.996" fill="#a6675e" d="M 177.5,300.5 C 183.176,301.424 188.509,303.091 193.5,305.5C 188.484,304.496 183.484,303.33 178.5,302C 177.944,301.617 177.611,301.117 177.5,300.5 Z"/></g>
<g><path style="opacity:0.996" fill="#4b3c3a" d="M 210.5,286.5 C 214.974,292.451 218.14,299.118 220,306.5C 221.936,309.813 224.77,310.979 228.5,310C 234.866,304.075 239.866,297.241 243.5,289.5C 243.244,292.598 242.578,295.598 241.5,298.5C 238.247,304.664 234.247,310.33 229.5,315.5C 225.989,315.101 222.656,314.434 219.5,313.5C 220.239,313.631 220.906,313.464 221.5,313C 218.508,308.525 216.342,303.692 215,298.5C 212.207,295.547 210.04,292.213 208.5,288.5C 208.747,287.287 209.414,286.62 210.5,286.5 Z"/></g>
<g><path style="opacity:0.996" fill="#443e3d" d="M 113.5,306.5 C 117.585,310.926 122.585,313.592 128.5,314.5C 135.223,313.189 141.889,311.689 148.5,310C 154.833,309.333 161.167,309.333 167.5,310C 195.216,319.106 222.882,328.273 250.5,337.5C 252.033,339.245 254.033,340.245 256.5,340.5C 269.041,345.559 282.041,349.559 295.5,352.5C 302.321,353.655 309.321,353.821 316.5,353C 317.737,352.768 318.737,352.268 319.5,351.5C 338.959,346.014 357.959,339.348 376.5,331.5C 376.389,332.117 376.056,332.617 375.5,333C 377.037,334.11 377.703,335.61 377.5,337.5C 356.609,344.964 335.609,352.13 314.5,359C 293.831,358.668 274.164,354.002 255.5,345C 249.947,343.705 244.447,342.205 239,340.5C 214.954,331.335 190.454,323.169 165.5,316C 154.271,315.513 143.271,316.846 132.5,320C 124.746,320.38 118.246,317.547 113,311.5C 112.36,309.735 112.527,308.068 113.5,306.5 Z"/></g>
<g><path style="opacity:0.996" fill="#493d3c" d="M 275.5,298.5 C 283.769,303.937 290.102,311.104 294.5,320C 297.303,320.755 299.97,320.422 302.5,319C 307.67,314.361 311.337,308.861 313.5,302.5C 313.5,303.833 313.5,305.167 313.5,306.5C 311.762,314.737 307.429,321.237 300.5,326C 298.5,326.667 296.5,326.667 294.5,326C 290.172,317.333 284.006,310.166 276,304.5C 274.306,302.76 273.139,300.76 272.5,298.5C 273.5,298.5 274.5,298.5 275.5,298.5 Z"/></g>
<g><path style="opacity:0.027" fill="#aeaeae" d="M 436.5,269.5 C 434.729,280.746 433.229,292.079 432,303.5C 426.407,316.22 420.241,328.553 413.5,340.5C 419.226,327.505 425.059,314.505 431,301.5C 431.498,298.183 431.665,294.85 431.5,291.5C 433.817,284.737 434.984,277.737 435,270.5C 435.383,269.944 435.883,269.611 436.5,269.5 Z"/></g>
<g><path style="opacity:0.996" fill="#080808" d="M 431.5,291.5 C 431.665,294.85 431.498,298.183 431,301.5C 425.059,314.505 419.226,327.505 413.5,340.5C 412.624,340.369 411.957,340.702 411.5,341.5C 407.573,348.779 403.74,356.112 400,363.5C 399.505,365.473 399.338,367.473 399.5,369.5C 396.436,369.144 393.769,369.977 391.5,372C 386.017,378.65 380.017,384.817 373.5,390.5C 361.008,399.58 348.341,408.413 335.5,417C 329.895,421.619 324.562,426.452 319.5,431.5C 316.324,432.997 313.658,432.33 311.5,429.5C 306.589,434.471 300.589,436.471 293.5,435.5C 293.167,435.5 292.833,435.5 292.5,435.5C 290.189,433.932 287.522,433.098 284.5,433C 277.321,432.179 270.321,432.345 263.5,433.5C 260.167,433.5 256.833,433.5 253.5,433.5C 241.681,435.282 230.014,434.615 218.5,431.5C 211.16,434.226 203.826,437.06 196.5,440C 190.843,440.499 185.176,440.666 179.5,440.5C 170.257,435.079 160.59,430.412 150.5,426.5C 146.3,422.563 141.3,419.897 135.5,418.5C 133.582,415.862 130.915,414.195 127.5,413.5C 122.895,409.398 118.395,405.064 114,400.5C 111.712,396.828 110.379,392.828 110,388.5C 108.301,387.594 106.467,387.261 104.5,387.5C 104.167,387.5 103.833,387.5 103.5,387.5C 100.663,385.598 97.3293,384.931 93.5,385.5C 93.5,385.167 93.5,384.833 93.5,384.5C 93.5,383.167 93.5,381.833 93.5,380.5C 88.9789,379.84 85.6456,377.34 83.5,373C 82.552,372.517 81.552,372.351 80.5,372.5C 79.5352,368.892 77.2019,367.226 73.5,367.5C 70.1762,363.676 66.6762,360.009 63,356.5C 62.6664,354.153 62.833,351.819 63.5,349.5C 62.1266,349.657 60.7932,349.49 59.5,349C 53.8533,341.124 51.3533,332.291 52,322.5C 52.8671,326.867 55.3671,329.867 59.5,331.5C 58.5153,333.098 58.3486,334.765 59,336.5C 65.0067,343.848 72.1734,349.681 80.5,354C 83.0912,356.357 84.7579,359.191 85.5,362.5C 86.9305,362.579 88.2638,362.246 89.5,361.5C 90.2436,362.991 90.9103,364.491 91.5,366C 97.06,366.205 102.393,367.205 107.5,369C 108.288,372.076 108.788,375.242 109,378.5C 113.5,384.333 118.667,389.5 124.5,394C 140.791,404.312 157.791,413.312 175.5,421C 184.915,423.137 194.248,422.804 203.5,420C 208.027,417.264 212.861,415.097 218,413.5C 220.782,414.472 223.615,415.305 226.5,416C 241.868,416.605 257.201,416.105 272.5,414.5C 283.805,415.774 295.138,416.274 306.5,416C 309.133,415.106 311.3,413.606 313,411.5C 315.01,413.927 317.51,414.76 320.5,414C 325.558,408.606 330.891,403.606 336.5,399C 349.548,390.816 362.214,382.149 374.5,373C 381.93,366.516 388.93,359.516 395.5,352C 398.146,351.503 400.813,351.336 403.5,351.5C 403.336,348.813 403.503,346.146 404,343.5C 412.349,326.636 420.849,309.802 429.5,293C 429.836,291.97 430.503,291.47 431.5,291.5 Z"/></g>
<g><path style="opacity:0.996" fill="#aa5a51" d="M 270.5,325.5 C 276.434,325.783 282.1,326.783 287.5,328.5C 282.188,327.891 276.854,327.391 271.5,327C 270.944,326.617 270.611,326.117 270.5,325.5 Z"/></g>
<g><path style="opacity:0.996" fill="#a07770" d="M 293.5,328.5 C 310.841,329.531 328.174,329.531 345.5,328.5C 345.389,329.117 345.056,329.617 344.5,330C 337.667,330.167 330.833,330.333 324,330.5C 313.623,330.672 303.456,330.005 293.5,328.5 Z"/></g>
<g><path style="opacity:0.996" fill="#772b26" d="M 250.5,337.5 C 252.967,337.755 254.967,338.755 256.5,340.5C 254.033,340.245 252.033,339.245 250.5,337.5 Z"/></g>
<g><path style="opacity:0.996" fill="#8a2921" d="M 319.5,351.5 C 318.737,352.268 317.737,352.768 316.5,353C 309.321,353.821 302.321,353.655 295.5,352.5C 303.534,352.698 311.534,352.365 319.5,351.5 Z"/></g>
<g><path style="opacity:0.839" fill="#5f5f5f" d="M 73.5,367.5 C 77.2019,367.226 79.5352,368.892 80.5,372.5C 77.883,371.214 75.5496,369.547 73.5,367.5 Z"/></g>
<g><path style="opacity:0.129" fill="#9a9a9a" d="M 413.5,340.5 C 410.221,348.392 406.387,356.059 402,363.5C 401.503,366.146 401.336,368.813 401.5,371.5C 397.869,371.16 394.536,371.994 391.5,374C 384.833,382 377.5,389.333 369.5,396C 356.326,404.753 343.326,413.753 330.5,423C 326.612,427.391 322.279,431.224 317.5,434.5C 315.386,433.966 313.552,432.966 312,431.5C 306.529,437.033 300.362,438.367 293.5,435.5C 300.589,436.471 306.589,434.471 311.5,429.5C 313.658,432.33 316.324,432.997 319.5,431.5C 324.562,426.452 329.895,421.619 335.5,417C 348.341,408.413 361.008,399.58 373.5,390.5C 380.017,384.817 386.017,378.65 391.5,372C 393.769,369.977 396.436,369.144 399.5,369.5C 399.338,367.473 399.505,365.473 400,363.5C 403.74,356.112 407.573,348.779 411.5,341.5C 411.957,340.702 412.624,340.369 413.5,340.5 Z"/></g>
<g><path style="opacity:0.043" fill="#a6a6a6" d="M 80.5,372.5 C 81.552,372.351 82.552,372.517 83.5,373C 85.6456,377.34 88.9789,379.84 93.5,380.5C 93.5,381.833 93.5,383.167 93.5,384.5C 92.1696,383.168 90.5029,382.335 88.5,382C 85.9688,378.642 83.3021,375.476 80.5,372.5 Z"/></g>
<g><path style="opacity:0.184" fill="#c9c9c9" d="M 93.5,385.5 C 97.3293,384.931 100.663,385.598 103.5,387.5C 99.8405,387.841 96.5072,387.175 93.5,385.5 Z"/></g>
<g><path style="opacity:0.047" fill="#9f9f9f" d="M 104.5,387.5 C 106.467,387.261 108.301,387.594 110,388.5C 110.379,392.828 111.712,396.828 114,400.5C 118.395,405.064 122.895,409.398 127.5,413.5C 120.233,409.401 114.4,403.734 110,396.5C 109.503,394.19 109.337,391.857 109.5,389.5C 107.447,389.598 105.78,388.931 104.5,387.5 Z"/></g>
<g><path style="opacity:0.071" fill="#a5a5a5" d="M 127.5,413.5 C 130.915,414.195 133.582,415.862 135.5,418.5C 132.296,417.617 129.629,415.95 127.5,413.5 Z"/></g>
<g><path style="opacity:0.988" fill="#666666" d="M 135.5,418.5 C 141.3,419.897 146.3,422.563 150.5,426.5C 149.609,425.89 148.609,425.557 147.5,425.5C 143.003,424 139.003,421.667 135.5,418.5 Z"/></g>
<g><path style="opacity:0.408" fill="#a1a1a1" d="M 147.5,425.5 C 148.609,425.557 149.609,425.89 150.5,426.5C 160.59,430.412 170.257,435.079 179.5,440.5C 168.205,436.634 157.538,431.634 147.5,425.5 Z"/></g>
<g><path style="opacity:0.063" fill="#d2d2d2" d="M 253.5,433.5 C 256.833,433.5 260.167,433.5 263.5,433.5C 264.5,433.5 265.5,433.5 266.5,433.5C 261.384,434.806 256.051,435.473 250.5,435.5C 251.5,434.833 252.5,434.167 253.5,433.5 Z"/></g>
<g><path style="opacity:0.11" fill="#b2b1ae" d="M 263.5,433.5 C 270.321,432.345 277.321,432.179 284.5,433C 287.522,433.098 290.189,433.932 292.5,435.5C 283.91,433.994 275.243,433.327 266.5,433.5C 265.5,433.5 264.5,433.5 263.5,433.5 Z"/></g>
<g><path style="opacity:0.035" fill="#a0a0a0" d="M 253.5,433.5 C 252.5,434.167 251.5,434.833 250.5,435.5C 239.737,437.026 229.237,436.026 219,432.5C 209.735,437.787 199.735,441.12 189,442.5C 185.65,442.054 182.483,441.388 179.5,440.5C 185.176,440.666 190.843,440.499 196.5,440C 203.826,437.06 211.16,434.226 218.5,431.5C 230.014,434.615 241.681,435.282 253.5,433.5 Z"/></g>
</svg>
