<?xml version="1.0" encoding="UTF-8"?>
<!DOCTYPE svg PUBLIC "-//W3C//DTD SVG 1.1//EN" "http://www.w3.org/Graphics/SVG/1.1/DTD/svg11.dtd">
<svg xmlns="http://www.w3.org/2000/svg" version="1.1" width="60px" height="60px" style="shape-rendering:geometricPrecision; text-rendering:geometricPrecision; image-rendering:optimizeQuality; fill-rule:evenodd; clip-rule:evenodd" xmlns:xlink="http://www.w3.org/1999/xlink">
<g><path style="opacity:1" fill="#000000" d="M 18.5,3.5 C 25.8409,3.33368 33.1742,3.50034 40.5,4C 45.3333,8.83333 50.1667,13.6667 55,18.5C 55.6667,25.8333 55.6667,33.1667 55,40.5C 50.1667,45.3333 45.3333,50.1667 40.5,55C 33.1667,55.6667 25.8333,55.6667 18.5,55C 13.6667,50.1667 8.83333,45.3333 4,40.5C 3.33333,33.1667 3.33333,25.8333 4,18.5C 9.03651,13.6313 13.8698,8.63128 18.5,3.5 Z"/></g>
<g><path style="opacity:1" fill="#807f7f" d="M 19.5,5.5 C 26.175,5.33375 32.8417,5.50042 39.5,6C 44,10.5 48.5,15 53,19.5C 53.6667,26.1667 53.6667,32.8333 53,39.5C 48.5,44 44,48.5 39.5,53C 32.8333,53.6667 26.1667,53.6667 19.5,53C 15,48.5 10.5,44 6,39.5C 5.33333,32.8333 5.33333,26.1667 6,19.5C 10.7033,14.9645 15.2033,10.2979 19.5,5.5 Z"/></g>
<g><path style="opacity:1" fill="#fc0403" d="M 20.5,13.5 C 24.1811,13.7178 24.8478,14.8844 22.5,17C 24.1341,17.4935 25.8008,17.6602 27.5,17.5C 27.5,21.1667 27.5,24.8333 27.5,28.5C 15.5,29.1667 15.5,29.8333 27.5,30.5C 27.5,35.1667 27.5,39.8333 27.5,44.5C 25.5351,43.871 23.5351,43.2043 21.5,42.5C 19.4649,43.2043 17.4649,43.871 15.5,44.5C 15.5,35.5 15.5,26.5 15.5,17.5C 18.3667,17.6308 20.0334,16.2974 20.5,13.5 Z"/></g>
<g><path style="opacity:1" fill="#fd0201" d="M 35.5,13.5 C 36.5,13.5 37.5,13.5 38.5,13.5C 38.5,15.5 38.5,17.5 38.5,19.5C 40.5,19.5 42.5,19.5 44.5,19.5C 44.6662,25.5092 44.4995,31.5092 44,37.5C 42.3333,38.8333 40.6667,38.8333 39,37.5C 38.5034,39.8098 38.3367,42.1432 38.5,44.5C 37.5,44.5 36.5,44.5 35.5,44.5C 35.5,37.5 35.5,30.5 35.5,23.5C 34.5,23.5 33.5,23.5 32.5,23.5C 32.5,28.5 32.5,33.5 32.5,38.5C 31.5,38.5 30.5,38.5 29.5,38.5C 29.5,32.1667 29.5,25.8333 29.5,19.5C 31.5,19.5 33.5,19.5 35.5,19.5C 35.5,17.5 35.5,15.5 35.5,13.5 Z"/></g>
<g><path style="opacity:1" fill="#867b7a" d="M 18.5,20.5 C 20.5,20.5 22.5,20.5 24.5,20.5C 24.5,22.1667 24.5,23.8333 24.5,25.5C 22.5,25.5 20.5,25.5 18.5,25.5C 18.5,23.8333 18.5,22.1667 18.5,20.5 Z"/></g>
<g><path style="opacity:1" fill="#807f7f" d="M 38.5,23.5 C 39.5,23.5 40.5,23.5 41.5,23.5C 41.5,27.5 41.5,31.5 41.5,35.5C 40.5,35.5 39.5,35.5 38.5,35.5C 38.5,31.5 38.5,27.5 38.5,23.5 Z"/></g>
<g><path style="opacity:1" fill="#7f807f" d="M 18.5,33.5 C 20.5,33.5 22.5,33.5 24.5,33.5C 24.5,35.5 24.5,37.5 24.5,39.5C 22.5,39.5 20.5,39.5 18.5,39.5C 18.5,37.5 18.5,35.5 18.5,33.5 Z"/></g>
</svg>
