<?xml version="1.0" encoding="UTF-8"?>
<!DOCTYPE svg PUBLIC "-//W3C//DTD SVG 1.1//EN" "http://www.w3.org/Graphics/SVG/1.1/DTD/svg11.dtd">
<svg xmlns="http://www.w3.org/2000/svg" version="1.1" width="467px" height="462px" style="shape-rendering:geometricPrecision; text-rendering:geometricPrecision; image-rendering:optimizeQuality; fill-rule:evenodd; clip-rule:evenodd" xmlns:xlink="http://www.w3.org/1999/xlink">
<g><path style="opacity:0.996" fill="#97948e" d="M 304.5,59.5 C 304.577,60.7498 305.244,61.5831 306.5,62C 313.652,65.0767 320.652,68.41 327.5,72C 328.793,72.49 330.127,72.6567 331.5,72.5C 341.336,77.6737 350.336,84.007 358.5,91.5C 358.608,94.3819 359.774,96.7153 362,98.5C 362.182,101.226 362.682,103.893 363.5,106.5C 364.736,107.246 366.07,107.579 367.5,107.5C 371.819,108.035 376.152,108.535 380.5,109C 381.09,110.509 381.756,112.009 382.5,113.5C 383.451,112.674 384.451,112.508 385.5,113C 387.926,116.516 390.593,119.849 393.5,123C 397.403,124.78 400.737,127.28 403.5,130.5C 407.063,133.896 410.063,137.729 412.5,142C 411.852,143.44 411.519,144.94 411.5,146.5C 414.206,146.688 416.539,147.688 418.5,149.5C 419.966,150.347 420.8,151.68 421,153.5C 422.695,160.808 424.195,168.141 425.5,175.5C 425.728,189.508 426.228,203.508 427,217.5C 427.21,219.058 427.71,220.391 428.5,221.5C 431.332,227.547 434.499,233.547 438,239.5C 438.218,242.426 438.718,245.26 439.5,248C 438.891,249.948 438.224,251.782 437.5,253.5C 435.433,253.532 434.1,254.532 433.5,256.5C 434.821,258.332 435.821,260.332 436.5,262.5C 435.283,270.094 434.45,277.761 434,285.5C 433.082,288.589 431.915,291.589 430.5,294.5C 431.941,304.966 429.275,314.299 422.5,322.5C 423.22,317.723 425.053,313.39 428,309.5C 429.218,304.545 429.551,299.545 429,294.5C 428.667,294.833 428.333,295.167 428,295.5C 420.301,312.118 412.134,328.451 403.5,344.5C 402.883,344.611 402.383,344.944 402,345.5C 401.503,347.81 401.337,350.143 401.5,352.5C 398.918,352.025 396.918,352.692 395.5,354.5C 394.761,354.369 394.094,354.536 393.5,355C 386.939,362.473 379.939,369.473 372.5,376C 359.506,384.992 346.506,393.992 333.5,403C 328.533,406.966 323.866,411.299 319.5,416C 316.258,416.986 313.592,416.152 311.5,413.5C 309.677,415.158 308.01,416.991 306.5,419C 300.429,420.936 294.429,420.769 288.5,418.5C 288.082,417.778 287.416,417.278 286.5,417C 276.991,416.176 267.657,416.342 258.5,417.5C 248.721,419.415 238.721,419.915 228.5,419C 224.892,417.243 221.058,416.076 217,415.5C 207.397,420.282 197.231,423.615 186.5,425.5C 182.445,425.425 178.445,424.925 174.5,424C 154.963,415.232 136.297,404.898 118.5,393C 114.298,389.133 110.465,384.967 107,380.5C 106.818,377.774 106.318,375.107 105.5,372.5C 100.821,369.979 95.8208,368.979 90.5,369.5C 90.5,367.5 90.5,365.5 90.5,363.5C 88.4727,363.662 86.4727,363.495 84.5,363C 82.4023,360.146 80.069,357.479 77.5,355C 69.4353,351.048 62.602,345.548 57,338.5C 56.4054,337.101 56.5721,335.768 57.5,334.5C 56.3984,333.824 55.3984,333.158 54.5,332.5C 53.0106,330.195 51.5106,327.862 50,325.5C 50.034,330.851 50.534,336.184 51.5,341.5C 50.2005,337.999 49.0338,334.333 48,330.5C 46.5448,320.813 45.0448,311.146 43.5,301.5C 44.162,299.696 44.4954,297.696 44.5,295.5C 43.9024,287.84 43.4024,280.173 43,272.5C 42.3448,270.372 41.5114,268.372 40.5,266.5C 41.1174,266.611 41.6174,266.944 42,267.5C 43.0375,261.606 42.3708,255.939 40,250.5C 39.2411,248.937 38.0744,247.937 36.5,247.5C 36.6107,246.883 36.944,246.383 37.5,246C 35.2256,241.579 33.2256,237.079 31.5,232.5C 32.4128,228.411 34.4128,224.911 37.5,222C 36.9056,221.536 36.2389,221.369 35.5,221.5C 32.7314,219.337 32.8981,217.337 36,215.5C 36.3333,208.167 36.6667,200.833 37,193.5C 43.2722,181.289 49.2722,168.956 55,156.5C 56,155.5 57,154.5 58,153.5C 59.4089,149.106 60.9089,144.772 62.5,140.5C 63.3764,140.631 64.0431,140.298 64.5,139.5C 67.4077,135.268 68.741,130.602 68.5,125.5C 75.5957,125.418 80.5957,122.085 83.5,115.5C 83.369,114.761 83.5357,114.094 84,113.5C 88.0304,109.56 92.197,105.726 96.5,102C 111.674,91.6442 126.674,81.1442 141.5,70.5C 144.899,68.6117 147.899,66.1117 150.5,63C 153.17,62.4574 155.67,62.9574 158,64.5C 159.925,62.9145 162.091,61.7479 164.5,61C 175.491,61.2739 186.491,61.7739 197.5,62.5C 213.184,61.1466 228.85,60.1466 244.5,59.5C 247.151,60.4897 249.817,61.4897 252.5,62.5C 258.928,58.4574 265.928,55.7907 273.5,54.5C 278.472,53.5784 283.472,53.4117 288.5,54C 293.709,56.1372 299.042,57.9706 304.5,59.5 Z"/></g>
<g><path style="opacity:0.298" fill="#d2d1cf" d="M 304.5,59.5 C 299.042,57.9706 293.709,56.1372 288.5,54C 283.472,53.4117 278.472,53.5784 273.5,54.5C 274.263,53.7321 275.263,53.2321 276.5,53C 286.754,51.5928 296.087,53.7594 304.5,59.5 Z"/></g>
<g><path style="opacity:0.895" fill="#c5c4c0" d="M 244.5,59.5 C 228.85,60.1466 213.184,61.1466 197.5,62.5C 186.491,61.7739 175.491,61.2739 164.5,61C 162.091,61.7479 159.925,62.9145 158,64.5C 155.67,62.9574 153.17,62.4574 150.5,63C 147.899,66.1117 144.899,68.6117 141.5,70.5C 144.296,67.2026 147.296,64.0359 150.5,61C 153.475,60.2873 155.975,61.1207 158,63.5C 161.186,59.9864 165.186,57.9864 170,57.5C 178.756,59.2823 187.59,60.6156 196.5,61.5C 212.451,59.7759 228.451,59.1092 244.5,59.5 Z"/></g>
<g><path style="opacity:0.302" fill="#c8c4c1" d="M 304.5,59.5 C 313.955,63.0622 322.955,67.3955 331.5,72.5C 330.127,72.6567 328.793,72.49 327.5,72C 320.652,68.41 313.652,65.0767 306.5,62C 305.244,61.5831 304.577,60.7498 304.5,59.5 Z"/></g>
<g><path style="opacity:0.424" fill="#d4d3d1" d="M 358.5,91.5 C 362.521,95.2129 364.687,99.8796 365,105.5C 365.995,106.066 366.828,106.733 367.5,107.5C 366.07,107.579 364.736,107.246 363.5,106.5C 362.682,103.893 362.182,101.226 362,98.5C 359.774,96.7153 358.608,94.3819 358.5,91.5 Z"/></g>
<g><path style="opacity:0.996" fill="#326e23" d="M 314.5,144.5 C 295.673,152.196 276.006,155.529 255.5,154.5C 255.5,156.5 255.5,158.5 255.5,160.5C 254.833,170.833 254.167,181.167 253.5,191.5C 271.743,188.268 290.076,185.435 308.5,183C 320.632,179.221 332.965,178.554 345.5,181C 349.22,183.279 353.054,185.446 357,187.5C 357.678,189.598 357.511,191.598 356.5,193.5C 354.883,194.038 353.216,194.371 351.5,194.5C 332.511,193.475 313.511,193.309 294.5,194C 285.311,194.837 276.311,196.004 267.5,197.5C 259.625,197.785 251.792,198.452 244,199.5C 242.174,200.01 242.007,200.844 243.5,202C 245.641,202.573 247.641,203.406 249.5,204.5C 252.926,206.599 255.259,209.599 256.5,213.5C 255.033,216.266 254.2,219.266 254,222.5C 253.5,238.83 253.333,255.163 253.5,271.5C 251.53,274.328 249.697,277.328 248,280.5C 246.135,282.673 243.969,283.007 241.5,281.5C 240.08,279.113 238.747,276.78 237.5,274.5C 237.5,269.167 237.5,263.833 237.5,258.5C 238.268,257.737 238.768,256.737 239,255.5C 239.825,244.659 239.659,233.992 238.5,223.5C 238.5,221.833 238.5,220.167 238.5,218.5C 237.496,213.484 236.33,208.484 235,203.5C 233.647,202.296 231.981,201.629 230,201.5C 204.535,205.28 179.368,210.447 154.5,217C 145.679,218.113 137.346,216.613 129.5,212.5C 127.919,210.858 127.253,208.858 127.5,206.5C 149.688,205.408 171.688,202.908 193.5,199C 194.704,197.647 195.371,195.981 195.5,194C 195.202,191.152 194.869,188.319 194.5,185.5C 194.477,173.878 191.977,162.878 187,152.5C 185.629,150.959 184.129,149.625 182.5,148.5C 181.677,146.545 181.51,144.545 182,142.5C 191.719,141.599 200.385,144.265 208,150.5C 207.618,166.14 207.451,181.807 207.5,197.5C 214.596,196.245 221.596,195.245 228.5,194.5C 232.5,194.5 236.5,194.5 240.5,194.5C 240.83,176.326 240.497,158.326 239.5,140.5C 239.605,136.452 239.272,132.452 238.5,128.5C 238.086,122.226 235.419,117.226 230.5,113.5C 229.58,108.52 231.58,106.186 236.5,106.5C 242.319,107.409 247.986,108.909 253.5,111C 256.102,111.883 258.269,113.383 260,115.5C 258.791,126.468 257.625,137.468 256.5,148.5C 271.264,142.308 286.597,137.974 302.5,135.5C 306.411,135.297 310.078,136.13 313.5,138C 315.684,139.898 316.017,142.064 314.5,144.5 Z"/></g>
<g><path style="opacity:0.996" fill="#3e463c" d="M 230.5,113.5 C 235.419,117.226 238.086,122.226 238.5,128.5C 236.495,125.202 233.995,122.202 231,119.5C 230.505,117.527 230.338,115.527 230.5,113.5 Z"/></g>
<g><path style="opacity:0.39" fill="#cfcecb" d="M 83.5,115.5 C 80.5957,122.085 75.5957,125.418 68.5,125.5C 68.741,130.602 67.4077,135.268 64.5,139.5C 64.0431,140.298 63.3764,140.631 62.5,140.5C 64.2581,137.068 65.9247,133.568 67.5,130C 66.6705,128.535 66.5038,127.035 67,125.5C 73.6708,125.166 78.5042,122 81.5,116C 82.0944,115.536 82.7611,115.369 83.5,115.5 Z"/></g>
<g><path style="opacity:0.431" fill="#cdcac8" d="M 403.5,130.5 C 409.836,133.659 413.669,138.659 415,145.5C 417.071,146.103 418.238,147.436 418.5,149.5C 416.539,147.688 414.206,146.688 411.5,146.5C 411.519,144.94 411.852,143.44 412.5,142C 410.063,137.729 407.063,133.896 403.5,130.5 Z"/></g>
<g><path style="opacity:0.996" fill="#3f423e" d="M 314.5,144.5 C 315.666,146.166 315.666,147.833 314.5,149.5C 295.869,158.218 276.202,161.885 255.5,160.5C 255.5,158.5 255.5,156.5 255.5,154.5C 276.006,155.529 295.673,152.196 314.5,144.5 Z"/></g>
<g><path style="opacity:0.996" fill="#76866e" d="M 239.5,140.5 C 240.497,158.326 240.83,176.326 240.5,194.5C 236.5,194.5 232.5,194.5 228.5,194.5C 231.962,193.518 235.629,193.185 239.5,193.5C 239.5,175.833 239.5,158.167 239.5,140.5 Z"/></g>
<g><path style="opacity:0.278" fill="#d0cfcc" d="M 62.5,140.5 C 60.9089,144.772 59.4089,149.106 58,153.5C 57,154.5 56,155.5 55,156.5C 49.2722,168.956 43.2722,181.289 37,193.5C 36.6667,200.833 36.3333,208.167 36,215.5C 32.8981,217.337 32.7314,219.337 35.5,221.5C 33.6159,221.288 32.2826,220.288 31.5,218.5C 32.8613,216.972 34.028,215.305 35,213.5C 35.3333,206.5 35.6667,199.5 36,192.5C 44.1121,174.606 52.9454,157.273 62.5,140.5 Z"/></g>
<g><path style="opacity:0.996" fill="#475643" d="M 182.5,148.5 C 184.129,149.625 185.629,150.959 187,152.5C 191.977,162.878 194.477,173.878 194.5,185.5C 193.083,179.28 191.583,172.946 190,166.5C 188.417,164.089 187.417,161.422 187,158.5C 183.594,156.021 182.094,152.688 182.5,148.5 Z"/></g>
<g><path style="opacity:0.996" fill="#2f5927" d="M 351.5,194.5 C 333.679,194.534 315.679,194.701 297.5,195C 287.657,196.429 277.657,197.262 267.5,197.5C 276.311,196.004 285.311,194.837 294.5,194C 313.511,193.309 332.511,193.475 351.5,194.5 Z"/></g>
<g><path style="opacity:0.996" fill="#3e413d" d="M 356.5,193.5 C 357.666,195.166 357.666,196.833 356.5,198.5C 354.333,199.792 352,200.625 349.5,201C 316.082,199.742 282.748,200.909 249.5,204.5C 247.641,203.406 245.641,202.573 243.5,202C 242.007,200.844 242.174,200.01 244,199.5C 251.792,198.452 259.625,197.785 267.5,197.5C 277.657,197.262 287.657,196.429 297.5,195C 315.679,194.701 333.679,194.534 351.5,194.5C 353.216,194.371 354.883,194.038 356.5,193.5 Z"/></g>
<g><path style="opacity:0.996" fill="#3e413c" d="M 238.5,218.5 C 236.928,214.974 235.428,211.307 234,207.5C 232.769,206.892 231.436,206.559 230,206.5C 202.126,212.227 174.293,217.894 146.5,223.5C 140.942,222.927 135.609,221.427 130.5,219C 127.194,217.005 126.861,214.838 129.5,212.5C 137.346,216.613 145.679,218.113 154.5,217C 179.368,210.447 204.535,205.28 230,201.5C 231.981,201.629 233.647,202.296 235,203.5C 236.33,208.484 237.496,213.484 238.5,218.5 Z"/></g>
<g><path style="opacity:0.298" fill="#d6d4d2" d="M 425.5,175.5 C 427.342,190.629 428.342,205.962 428.5,221.5C 427.71,220.391 427.21,219.058 427,217.5C 426.228,203.508 425.728,189.508 425.5,175.5 Z"/></g>
<g><path style="opacity:0.996" fill="#326f23" d="M 319.5,232.5 C 316.25,234.243 313.416,236.577 311,239.5C 293.607,269.237 272.107,295.737 246.5,319C 233.274,328.441 219.608,337.108 205.5,345C 190.195,350.646 174.528,355.146 158.5,358.5C 156.833,358.5 155.167,358.5 153.5,358.5C 153.452,355.708 154.785,353.875 157.5,353C 195.035,340.142 227.535,319.308 255,290.5C 267.503,274.994 278.836,258.661 289,241.5C 292.937,232.181 295.77,222.681 297.5,213C 302.25,213.194 306.583,214.86 310.5,218C 313.333,220.833 316.167,223.667 319,226.5C 319.495,228.473 319.662,230.473 319.5,232.5 Z"/></g>
<g><path style="opacity:0.592" fill="#c6c5c3" d="M 35.5,221.5 C 36.2389,221.369 36.9056,221.536 37.5,222C 34.4128,224.911 32.4128,228.411 31.5,232.5C 33.2256,237.079 35.2256,241.579 37.5,246C 36.944,246.383 36.6107,246.883 36.5,247.5C 35.3293,254.331 36.6626,260.664 40.5,266.5C 41.5114,268.372 42.3448,270.372 43,272.5C 43.4024,280.173 43.9024,287.84 44.5,295.5C 44.4954,297.696 44.162,299.696 43.5,301.5C 42.9594,291.479 42.1261,281.479 41,271.5C 38.3769,266.59 36.0435,261.59 34,256.5C 33.1933,252.814 33.6933,249.314 35.5,246C 32.5764,241.982 30.9097,237.482 30.5,232.5C 30.4618,227.905 32.1285,224.238 35.5,221.5 Z"/></g>
<g><path style="opacity:0.996" fill="#6b8064" d="M 238.5,223.5 C 239.659,233.992 239.825,244.659 239,255.5C 238.768,256.737 238.268,257.737 237.5,258.5C 238.413,246.864 238.746,235.197 238.5,223.5 Z"/></g>
<g><path style="opacity:0.996" fill="#326e23" d="M 201.5,252.5 C 196.985,261.675 191.319,270.175 184.5,278C 182.606,279.404 180.606,280.57 178.5,281.5C 176.577,280.908 174.911,279.908 173.5,278.5C 172.334,273.503 172.334,268.503 173.5,263.5C 180.471,253.476 186.804,242.976 192.5,232C 193.759,231.018 195.092,230.685 196.5,231C 198.543,232.811 200.043,234.978 201,237.5C 201.499,242.489 201.666,247.489 201.5,252.5 Z"/></g>
<g><path style="opacity:0.995" fill="#141414" d="M 36.5,247.5 C 38.0744,247.937 39.2411,248.937 40,250.5C 42.3708,255.939 43.0375,261.606 42,267.5C 41.6174,266.944 41.1174,266.611 40.5,266.5C 36.6626,260.664 35.3293,254.331 36.5,247.5 Z"/></g>
<g><path style="opacity:0.112" fill="#e6e6e2" d="M 437.5,253.5 C 436.972,254.721 436.305,255.887 435.5,257C 436.687,258.019 437.687,259.186 438.5,260.5C 438.145,261.522 437.478,262.189 436.5,262.5C 435.821,260.332 434.821,258.332 433.5,256.5C 434.1,254.532 435.433,253.532 437.5,253.5 Z"/></g>
<g><path style="opacity:0.996" fill="#3f433e" d="M 201.5,252.5 C 198.512,264.975 192.512,275.808 183.5,285C 176.429,288.547 173.095,286.38 173.5,278.5C 174.911,279.908 176.577,280.908 178.5,281.5C 180.606,280.57 182.606,279.404 184.5,278C 191.319,270.175 196.985,261.675 201.5,252.5 Z"/></g>
<g><path style="opacity:0.996" fill="#454943" d="M 253.5,271.5 C 253.853,279.099 250.853,284.765 244.5,288.5C 239.153,285.517 236.819,280.851 237.5,274.5C 238.747,276.78 240.08,279.113 241.5,281.5C 243.969,283.007 246.135,282.673 248,280.5C 249.697,277.328 251.53,274.328 253.5,271.5 Z"/></g>
<g><path style="opacity:0.996" fill="#3d413b" d="M 319.5,232.5 C 319.682,234.591 319.348,236.591 318.5,238.5C 310.882,245.726 304.715,254.06 300,263.5C 289.378,278.418 278.045,292.751 266,306.5C 235.351,338.407 198.184,357.407 154.5,363.5C 154.281,362.325 154.614,361.325 155.5,360.5C 156.739,360.058 157.739,359.391 158.5,358.5C 174.528,355.146 190.195,350.646 205.5,345C 219.608,337.108 233.274,328.441 246.5,319C 272.107,295.737 293.607,269.237 311,239.5C 313.416,236.577 316.25,234.243 319.5,232.5 Z"/></g>
<g><path style="opacity:0.992" fill="#414140" d="M 54.5,332.5 C 53.5041,332.586 52.6708,332.252 52,331.5C 52.3791,336.127 52.8791,340.793 53.5,345.5C 53.1667,345.5 52.8333,345.5 52.5,345.5C 51.5655,344.432 51.2322,343.099 51.5,341.5C 50.534,336.184 50.034,330.851 50,325.5C 51.5106,327.862 53.0106,330.195 54.5,332.5 Z"/></g>
<g><path style="opacity:0.997" fill="#070707" d="M 422.5,322.5 C 421.571,323.936 420.405,325.269 419,326.5C 412.078,339.344 405.411,352.344 399,365.5C 398.503,367.81 398.337,370.143 398.5,372.5C 395.107,372.062 392.107,372.895 389.5,375C 383.5,382.333 376.833,389 369.5,395C 350.75,407.266 332.75,420.433 315.5,434.5C 313.617,433.976 311.784,433.309 310,432.5C 308.177,434.509 306.01,435.843 303.5,436.5C 299.5,436.5 295.5,436.5 291.5,436.5C 290.833,436.5 290.167,436.5 289.5,436.5C 283.231,435.02 276.731,434.353 270,434.5C 265.653,434.501 261.486,434.834 257.5,435.5C 246.486,436.543 235.486,436.543 224.5,435.5C 221.404,434.052 218.071,433.552 214.5,434C 203.723,440.778 192.056,443.611 179.5,442.5C 175.111,440.037 170.445,438.371 165.5,437.5C 162.493,434.52 158.826,432.853 154.5,432.5C 150.963,428.862 146.629,426.529 141.5,425.5C 138.839,422.498 135.505,420.498 131.5,419.5C 125.066,414.639 118.899,409.306 113,403.5C 110.22,400.058 108.72,396.058 108.5,391.5C 103.484,388.93 98.151,387.93 92.5,388.5C 92.7989,386.396 92.4656,384.396 91.5,382.5C 89.802,383.681 88.1353,383.681 86.5,382.5C 84.765,377.646 81.4317,374.646 76.5,373.5C 71.2286,368.731 66.062,363.731 61,358.5C 60.5045,356.527 60.3379,354.527 60.5,352.5C 59.5,352.5 58.5,352.5 57.5,352.5C 56.1261,350.142 54.7928,347.808 53.5,345.5C 52.8791,340.793 52.3791,336.127 52,331.5C 52.6708,332.252 53.5041,332.586 54.5,332.5C 55.3984,333.158 56.3984,333.824 57.5,334.5C 56.5721,335.768 56.4054,337.101 57,338.5C 62.602,345.548 69.4353,351.048 77.5,355C 80.069,357.479 82.4023,360.146 84.5,363C 86.4727,363.495 88.4727,363.662 90.5,363.5C 90.5,365.5 90.5,367.5 90.5,369.5C 95.8208,368.979 100.821,369.979 105.5,372.5C 106.318,375.107 106.818,377.774 107,380.5C 110.465,384.967 114.298,389.133 118.5,393C 136.297,404.898 154.963,415.232 174.5,424C 178.445,424.925 182.445,425.425 186.5,425.5C 197.231,423.615 207.397,420.282 217,415.5C 221.058,416.076 224.892,417.243 228.5,419C 238.721,419.915 248.721,419.415 258.5,417.5C 268.527,417.301 278.527,417.634 288.5,418.5C 294.429,420.769 300.429,420.936 306.5,419C 308.01,416.991 309.677,415.158 311.5,413.5C 313.592,416.152 316.258,416.986 319.5,416C 323.866,411.299 328.533,406.966 333.5,403C 346.506,393.992 359.506,384.992 372.5,376C 379.939,369.473 386.939,362.473 393.5,355C 394.094,354.536 394.761,354.369 395.5,354.5C 397.717,353.631 400.05,353.298 402.5,353.5C 402.368,350.43 402.701,347.43 403.5,344.5C 412.134,328.451 420.301,312.118 428,295.5C 428.333,295.167 428.667,294.833 429,294.5C 429.551,299.545 429.218,304.545 428,309.5C 425.053,313.39 423.22,317.723 422.5,322.5 Z"/></g>
<g><path style="opacity:0.039" fill="#bab8b8" d="M 52.5,345.5 C 52.8333,345.5 53.1667,345.5 53.5,345.5C 54.7928,347.808 56.1261,350.142 57.5,352.5C 56.5041,352.586 55.6708,352.252 55,351.5C 53.4412,349.783 52.6079,347.783 52.5,345.5 Z"/></g>
<g><path style="opacity:0.996" fill="#514f4b" d="M 403.5,344.5 C 402.701,347.43 402.368,350.43 402.5,353.5C 400.05,353.298 397.717,353.631 395.5,354.5C 396.918,352.692 398.918,352.025 401.5,352.5C 401.337,350.143 401.503,347.81 402,345.5C 402.383,344.944 402.883,344.611 403.5,344.5 Z"/></g>
<g><path style="opacity:0.09" fill="#b3b3b3" d="M 57.5,352.5 C 58.5,352.5 59.5,352.5 60.5,352.5C 60.3379,354.527 60.5045,356.527 61,358.5C 66.062,363.731 71.2286,368.731 76.5,373.5C 68.8303,369.471 62.4969,363.804 57.5,356.5C 57.9767,355.522 58.6433,354.689 59.5,354C 58.5842,353.722 57.9175,353.222 57.5,352.5 Z"/></g>
<g><path style="opacity:0.047" fill="#afafaf" d="M 76.5,373.5 C 81.4317,374.646 84.765,377.646 86.5,382.5C 88.1353,383.681 89.802,383.681 91.5,382.5C 92.4656,384.396 92.7989,386.396 92.5,388.5C 98.151,387.93 103.484,388.93 108.5,391.5C 108.72,396.058 110.22,400.058 113,403.5C 118.899,409.306 125.066,414.639 131.5,419.5C 123.078,415.595 115.911,409.929 110,402.5C 108.456,399.095 107.289,395.595 106.5,392C 101.742,389.856 96.742,389.023 91.5,389.5C 91.5086,387.692 91.0086,386.025 90,384.5C 88.9505,385.517 87.7839,385.684 86.5,385C 84.0185,380.357 80.6851,376.523 76.5,373.5 Z"/></g>
<g><path style="opacity:0.996" fill="#464542" d="M 258.5,417.5 C 267.657,416.342 276.991,416.176 286.5,417C 287.416,417.278 288.082,417.778 288.5,418.5C 278.527,417.634 268.527,417.301 258.5,417.5 Z"/></g>
<g><path style="opacity:0.039" fill="#a2a2a2" d="M 131.5,419.5 C 135.505,420.498 138.839,422.498 141.5,425.5C 137.827,424 134.494,422 131.5,419.5 Z"/></g>
<g><path style="opacity:0.078" fill="#a7a7a7" d="M 141.5,425.5 C 146.629,426.529 150.963,428.862 154.5,432.5C 149.815,430.724 145.482,428.391 141.5,425.5 Z"/></g>
<g><path style="opacity:0.051" fill="#a5a5a5" d="M 154.5,432.5 C 158.826,432.853 162.493,434.52 165.5,437.5C 161.599,436.244 157.932,434.577 154.5,432.5 Z"/></g>
<g><path style="opacity:0.576" fill="#a4a3a3" d="M 224.5,435.5 C 225.833,436.167 227.167,436.833 228.5,437.5C 224.7,437.589 221.034,436.922 217.5,435.5C 210.525,439.15 203.192,441.983 195.5,444C 184.44,446.199 174.44,444.032 165.5,437.5C 170.445,438.371 175.111,440.037 179.5,442.5C 192.056,443.611 203.723,440.778 214.5,434C 218.071,433.552 221.404,434.052 224.5,435.5 Z"/></g>
<g><path style="opacity:0.636" fill="#5f5f5f" d="M 257.5,435.5 C 261.486,434.834 265.653,434.501 270,434.5C 276.731,434.353 283.231,435.02 289.5,436.5C 286.167,436.5 282.833,436.5 279.5,436.5C 272.352,435.508 265.019,435.175 257.5,435.5 Z"/></g>
<g><path style="opacity:0.012" fill="#b0b0b0" d="M 422.5,322.5 C 415.965,337.187 408.799,351.52 401,365.5C 400.503,368.146 400.336,370.813 400.5,373.5C 398.143,373.337 395.81,373.503 393.5,374C 385.47,382.364 377.137,390.364 368.5,398C 356.5,406.333 344.5,414.667 332.5,423C 327.199,427.3 322.199,431.966 317.5,437C 314.916,437.082 312.583,436.249 310.5,434.5C 307.011,437.331 303.011,438.998 298.5,439.5C 292.033,438.428 285.7,437.428 279.5,436.5C 282.833,436.5 286.167,436.5 289.5,436.5C 290.167,436.5 290.833,436.5 291.5,436.5C 295.55,438.96 299.55,438.96 303.5,436.5C 306.01,435.843 308.177,434.509 310,432.5C 311.784,433.309 313.617,433.976 315.5,434.5C 332.75,420.433 350.75,407.266 369.5,395C 376.833,389 383.5,382.333 389.5,375C 392.107,372.895 395.107,372.062 398.5,372.5C 398.337,370.143 398.503,367.81 399,365.5C 405.411,352.344 412.078,339.344 419,326.5C 420.405,325.269 421.571,323.936 422.5,322.5 Z"/></g>
<g><path style="opacity:0.651" fill="#7e7e7e" d="M 224.5,435.5 C 235.486,436.543 246.486,436.543 257.5,435.5C 255.833,436.167 254.167,436.833 252.5,437.5C 244.472,438.67 236.472,438.67 228.5,437.5C 227.167,436.833 225.833,436.167 224.5,435.5 Z"/></g>
<g><path style="opacity:0.02" fill="#bfbfbf" d="M 257.5,435.5 C 265.019,435.175 272.352,435.508 279.5,436.5C 270.498,436.786 261.498,437.119 252.5,437.5C 254.167,436.833 255.833,436.167 257.5,435.5 Z"/></g>
<g><path style="opacity:0.992" fill="#434343" d="M 291.5,436.5 C 295.5,436.5 299.5,436.5 303.5,436.5C 299.55,438.96 295.55,438.96 291.5,436.5 Z"/></g>
</svg>
