<?xml version="1.0" encoding="UTF-8"?>
<!DOCTYPE svg PUBLIC "-//W3C//DTD SVG 1.1//EN" "http://www.w3.org/Graphics/SVG/1.1/DTD/svg11.dtd">
<svg xmlns="http://www.w3.org/2000/svg" version="1.1" width="60px" height="60px" style="shape-rendering:geometricPrecision; text-rendering:geometricPrecision; image-rendering:optimizeQuality; fill-rule:evenodd; clip-rule:evenodd" xmlns:xlink="http://www.w3.org/1999/xlink">
<g><path style="opacity:1" fill="#000000" d="M 18.5,3.5 C 25.8409,3.33368 33.1742,3.50034 40.5,4C 45.3333,8.83333 50.1667,13.6667 55,18.5C 55.6667,25.8333 55.6667,33.1667 55,40.5C 50.1667,45.3333 45.3333,50.1667 40.5,55C 33.1667,55.6667 25.8333,55.6667 18.5,55C 13.6667,50.1667 8.83333,45.3333 4,40.5C 3.33333,33.1667 3.33333,25.8333 4,18.5C 9.03651,13.6313 13.8698,8.63128 18.5,3.5 Z"/></g>
<g><path style="opacity:1" fill="#817e7e" d="M 19.5,5.5 C 26.175,5.33375 32.8417,5.50042 39.5,6C 44,10.5 48.5,15 53,19.5C 53.6667,26.1667 53.6667,32.8333 53,39.5C 48.5,44 44,48.5 39.5,53C 32.8333,53.6667 26.1667,53.6667 19.5,53C 15,48.5 10.5,44 6,39.5C 5.33333,32.8333 5.33333,26.1667 6,19.5C 10.7033,14.9645 15.2033,10.2979 19.5,5.5 Z"/></g>
<g><path style="opacity:1" fill="#f90c08" d="M 22.5,12.5 C 24.0898,12.6282 25.4231,13.2949 26.5,14.5C 25.7643,16.5405 24.9309,18.5405 24,20.5C 23.3333,27.1667 23.3333,33.8333 24,40.5C 29.0757,37.2448 31.909,32.5782 32.5,26.5C 29.8333,26.5 27.1667,26.5 24.5,26.5C 24.5,25.1667 24.5,23.8333 24.5,22.5C 27.1667,22.5 29.8333,22.5 32.5,22.5C 32.5,19.1667 32.5,15.8333 32.5,12.5C 33.8333,12.5 35.1667,12.5 36.5,12.5C 36.5,15.8333 36.5,19.1667 36.5,22.5C 39.5,22.5 42.5,22.5 45.5,22.5C 45.5,23.8333 45.5,25.1667 45.5,26.5C 42.8333,26.5 40.1667,26.5 37.5,26.5C 38.5718,32.7493 41.5718,37.916 46.5,42C 45.1764,44.7089 43.5097,45.0422 41.5,43C 38.9627,40.0937 36.796,36.927 35,33.5C 33.1743,38.1651 30.1743,41.8318 26,44.5C 25.0853,43.6721 24.4186,42.6721 24,41.5C 23.5172,42.448 23.3505,43.448 23.5,44.5C 22.1667,44.5 20.8333,44.5 19.5,44.5C 19.666,39.1563 19.4994,33.8229 19,28.5C 17.2495,31.9942 15.4162,32.1608 13.5,29C 17.9364,24.2946 20.9364,18.7946 22.5,12.5 Z"/></g>
<g><path style="opacity:1" fill="#f21812" d="M 39.5,13.5 C 41.6698,14.8382 43.3365,16.6716 44.5,19C 43.646,20.0217 42.646,20.8551 41.5,21.5C 39.0611,19.1408 38.3944,16.4741 39.5,13.5 Z"/></g>
</svg>
