<?xml version="1.0" encoding="UTF-8"?>
<!DOCTYPE svg PUBLIC "-//W3C//DTD SVG 1.1//EN" "http://www.w3.org/Graphics/SVG/1.1/DTD/svg11.dtd">
<svg xmlns="http://www.w3.org/2000/svg" version="1.1" width="466px" height="475px" style="shape-rendering:geometricPrecision; text-rendering:geometricPrecision; image-rendering:optimizeQuality; fill-rule:evenodd; clip-rule:evenodd" xmlns:xlink="http://www.w3.org/1999/xlink">
<g><path style="opacity:0.405" fill="#c1bfbc" d="M 306.5,64.5 C 298.528,61.4245 290.194,59.4245 281.5,58.5C 274.694,59.2149 268.028,60.5483 261.5,62.5C 262.6,61.4415 263.934,60.6082 265.5,60C 271.071,58.3081 276.738,57.1415 282.5,56.5C 291.086,57.6408 299.086,60.3075 306.5,64.5 Z"/></g>
<g><path style="opacity:0.996" fill="#97948e" d="M 306.5,64.5 C 310.053,66.3539 313.72,68.0205 317.5,69.5C 317.414,70.4959 317.748,71.3292 318.5,72C 324.869,75.8425 331.535,79.0092 338.5,81.5C 341.37,82.4333 343.704,84.1 345.5,86.5C 350.761,91.4224 356.094,96.4224 361.5,101.5C 361.183,104.572 361.516,107.572 362.5,110.5C 367.368,113.51 372.701,115.01 378.5,115C 379.38,116.356 379.714,117.856 379.5,119.5C 382.788,119.016 385.455,120.016 387.5,122.5C 395.204,128.023 402.538,134.023 409.5,140.5C 410.037,142.711 411.037,144.711 412.5,146.5C 412.081,147.672 411.415,148.672 410.5,149.5C 412.386,150.406 414.22,151.406 416,152.5C 416.86,155.633 418.36,158.3 420.5,160.5C 421.341,162.379 421.675,164.379 421.5,166.5C 423.574,186.287 425.574,205.954 427.5,225.5C 429.843,231.85 433.01,237.85 437,243.5C 437.667,248.167 437.667,252.833 437,257.5C 435.833,258.667 434.667,259.833 433.5,261C 434.899,262.062 435.899,263.395 436.5,265C 435.014,269.116 434.014,273.283 433.5,277.5C 432.741,284.607 431.075,291.607 428.5,298.5C 420.115,313.597 411.948,328.931 404,344.5C 402.1,348.632 401.267,352.966 401.5,357.5C 398.393,357.351 395.393,357.851 392.5,359C 387.533,364.969 382.199,370.635 376.5,376C 362.132,386.693 347.465,397.026 332.5,407C 327.533,410.966 322.866,415.299 318.5,420C 315.416,420.631 312.75,419.798 310.5,417.5C 308.976,419.858 306.976,421.691 304.5,423C 300.514,423.499 296.514,423.666 292.5,423.5C 288.46,421.883 284.127,421.05 279.5,421C 272.321,420.179 265.321,420.345 258.5,421.5C 255.609,422.403 252.609,422.736 249.5,422.5C 239.419,422.83 229.419,422.163 219.5,420.5C 217.712,419.378 215.712,419.211 213.5,420C 206.807,423.754 199.807,426.754 192.5,429C 186.109,429.758 179.776,429.424 173.5,428C 153.545,419.696 134.879,409.363 117.5,397C 113.631,393.466 110.131,389.633 107,385.5C 106.502,382.518 106.335,379.518 106.5,376.5C 101.085,374.284 95.4182,373.117 89.5,373C 88.6198,371.644 88.2865,370.144 88.5,368.5C 86.712,368.785 85.0453,368.452 83.5,367.5C 82.1966,365.063 80.5299,362.896 78.5,361C 70.1822,356.253 62.6822,350.42 56,343.5C 55.3486,341.765 55.5153,340.098 56.5,338.5C 54.058,336.956 52.058,334.956 50.5,332.5C 49.359,334.421 49.1923,336.421 50,338.5C 51.5845,343.085 52.9178,347.752 54,352.5C 55.7455,354.749 57.9121,356.416 60.5,357.5C 59.5153,359.098 59.3486,360.765 60,362.5C 64.0708,366.341 67.9041,370.341 71.5,374.5C 65.1804,371.514 60.5137,366.847 57.5,360.5C 57.6082,359.558 57.9415,358.725 58.5,358C 56.3762,356.878 54.5429,355.378 53,353.5C 49.6953,345.475 47.862,337.142 47.5,328.5C 47.4963,324.973 47.1629,321.473 46.5,318C 46.3917,316.319 45.7251,315.152 44.5,314.5C 43.2718,308.234 42.6052,301.901 42.5,295.5C 42.6662,289.158 42.4995,282.825 42,276.5C 41.6174,275.944 41.1174,275.611 40.5,275.5C 38.3476,272.027 36.6809,268.36 35.5,264.5C 37.4443,267.124 39.4443,269.791 41.5,272.5C 42.6475,267.061 42.1475,261.728 40,256.5C 39.1237,254.365 37.6237,253.031 35.5,252.5C 35.4142,251.504 35.7476,250.671 36.5,250C 32.3492,243.591 31.1825,236.757 33,229.5C 34.298,228.44 35.4647,227.274 36.5,226C 35.6119,224.78 34.9452,223.447 34.5,222C 35.2498,212.837 35.9164,203.671 36.5,194.5C 39.3195,186.698 42.9862,179.365 47.5,172.5C 48.5,172.5 49.5,172.5 50.5,172.5C 50.523,170.073 51.023,167.74 52,165.5C 55.4141,159.003 59.0808,152.67 63,146.5C 63.4935,144.866 63.6602,143.199 63.5,141.5C 64.0134,138.791 65.0134,136.291 66.5,134C 65.3047,132.467 65.3047,130.967 66.5,129.5C 69.2125,128.772 71.8791,127.939 74.5,127C 85.1808,114.48 97.5141,103.98 111.5,95.5C 112.873,95.6567 114.207,95.49 115.5,95C 117.777,91.8976 120.777,89.7309 124.5,88.5C 130.194,84.132 135.528,79.4653 140.5,74.5C 141.167,73.1667 142.167,72.1667 143.5,71.5C 146.156,69.8502 148.822,68.1836 151.5,66.5C 153.99,67.9951 156.657,68.9951 159.5,69.5C 159.561,66.9505 160.894,65.4505 163.5,65C 170.408,64.0424 177.074,64.7091 183.5,67C 199.535,67.6892 215.535,67.1892 231.5,65.5C 235.239,65.4864 238.572,64.8197 241.5,63.5C 244.918,64.1882 248.251,65.1882 251.5,66.5C 254.594,64.6214 257.927,63.2881 261.5,62.5C 268.028,60.5483 274.694,59.2149 281.5,58.5C 290.194,59.4245 298.528,61.4245 306.5,64.5 Z"/></g>
<g><path style="opacity:0.911" fill="#b2b0ab" d="M 241.5,63.5 C 238.572,64.8197 235.239,65.4864 231.5,65.5C 215.535,67.1892 199.535,67.6892 183.5,67C 177.074,64.7091 170.408,64.0424 163.5,65C 160.894,65.4505 159.561,66.9505 159.5,69.5C 156.657,68.9951 153.99,67.9951 151.5,66.5C 148.822,68.1836 146.156,69.8502 143.5,71.5C 145.754,67.3694 149.088,65.2027 153.5,65C 154.966,65.6355 156.3,66.4688 157.5,67.5C 158.924,65.2822 160.924,63.7822 163.5,63C 174.817,63.3835 186.15,63.8835 197.5,64.5C 212.16,63.845 226.827,63.5117 241.5,63.5 Z"/></g>
<g><path style="opacity:0.325" fill="#ccc9c5" d="M 317.5,69.5 C 324.798,73.1385 331.798,77.1385 338.5,81.5C 331.535,79.0092 324.869,75.8425 318.5,72C 317.748,71.3292 317.414,70.4959 317.5,69.5 Z"/></g>
<g><path style="opacity:0.341" fill="#c6c5c0" d="M 140.5,74.5 C 135.528,79.4653 130.194,84.132 124.5,88.5C 120.777,89.7309 117.777,91.8976 115.5,95C 114.207,95.49 112.873,95.6567 111.5,95.5C 120.952,88.2672 130.619,81.2672 140.5,74.5 Z"/></g>
<g><path style="opacity:0.349" fill="#cac8c6" d="M 345.5,86.5 C 352.118,90.1178 357.452,95.1178 361.5,101.5C 356.094,96.4224 350.761,91.4224 345.5,86.5 Z"/></g>
<g><path style="opacity:0.321" fill="#d2d1ce" d="M 361.5,101.5 C 362.648,104.698 363.982,107.865 365.5,111C 370.252,111.725 374.919,112.725 379.5,114C 380.071,115.205 380.738,116.372 381.5,117.5C 382.72,116.289 383.887,116.289 385,117.5C 386.094,119.078 386.928,120.745 387.5,122.5C 385.455,120.016 382.788,119.016 379.5,119.5C 379.714,117.856 379.38,116.356 378.5,115C 372.701,115.01 367.368,113.51 362.5,110.5C 361.516,107.572 361.183,104.572 361.5,101.5 Z"/></g>
<g><path style="opacity:0.996" fill="#be2a1b" d="M 199.5,139.5 C 191.372,143.068 184.039,147.902 177.5,154C 170.652,160.681 163.985,167.514 157.5,174.5C 160.1,175.846 162.433,175.512 164.5,173.5C 175.751,172.139 186.084,168.305 195.5,162C 204.634,162.059 212.634,165.225 219.5,171.5C 220.666,173.167 220.666,174.834 219.5,176.5C 210.928,182.319 205.928,190.319 204.5,200.5C 205.331,204.245 205.331,207.912 204.5,211.5C 188.488,215.178 172.488,218.178 156.5,220.5C 155.167,220.5 153.833,220.5 152.5,220.5C 152.5,227.833 152.5,235.167 152.5,242.5C 155.385,242.806 158.052,242.473 160.5,241.5C 167.549,240.319 174.549,238.819 181.5,237C 186.32,234.178 191.487,232.011 197,230.5C 199.389,230.963 201.723,231.63 204,232.5C 207.823,234.665 211.656,236.832 215.5,239C 216.423,241.041 216.756,243.208 216.5,245.5C 207.856,251.471 203.522,259.471 203.5,269.5C 204.458,270.962 205.624,272.295 207,273.5C 207.494,275.134 207.66,276.801 207.5,278.5C 203.992,280.225 200.326,281.559 196.5,282.5C 184.106,283.758 171.773,285.092 159.5,286.5C 157.208,286.244 155.041,286.577 153,287.5C 152.5,294.492 152.334,301.492 152.5,308.5C 152.007,310.806 151.674,313.139 151.5,315.5C 150.4,317.277 149.566,319.277 149,321.5C 146.697,325.027 144.03,325.36 141,322.5C 138.997,319.297 137.497,315.964 136.5,312.5C 136.5,312.167 136.5,311.833 136.5,311.5C 136.467,307.131 136.8,302.798 137.5,298.5C 138.493,291.967 139.493,285.301 140.5,278.5C 141.663,253.67 141.83,228.67 141,203.5C 140.4,198.319 139.566,193.319 138.5,188.5C 137.583,183.999 135.583,179.999 132.5,176.5C 132.34,174.801 132.506,173.134 133,171.5C 133.725,170.941 134.558,170.608 135.5,170.5C 139.186,171.066 142.686,172.066 146,173.5C 147.107,173.415 148.107,173.081 149,172.5C 158.243,160.934 166.243,148.6 173,135.5C 173.11,131.145 173.943,126.978 175.5,123C 179.236,122.39 182.903,122.723 186.5,124C 191.12,127.534 195.953,130.701 201,133.5C 201.748,135.84 201.248,137.84 199.5,139.5 Z"/></g>
<g><path style="opacity:0.996" fill="#bf291a" d="M 291.5,141.5 C 290.042,143.932 288.875,146.599 288,149.5C 287.372,156.829 286.872,164.163 286.5,171.5C 286.5,178.5 286.5,185.5 286.5,192.5C 289.426,191.539 292.426,190.873 295.5,190.5C 300.238,189.864 304.738,188.531 309,186.5C 310.03,186.164 310.53,185.497 310.5,184.5C 312.511,183.107 314.845,182.44 317.5,182.5C 325.338,183.502 332.672,186.002 339.5,190C 341.607,191.264 342.607,193.097 342.5,195.5C 339.18,199.049 337.513,203.382 337.5,208.5C 336.883,208.611 336.383,208.944 336,209.5C 335.624,222.862 336.124,236.195 337.5,249.5C 337.5,252.167 337.5,254.833 337.5,257.5C 335.651,266.563 331.318,274.396 324.5,281C 322.5,281.667 320.5,281.667 318.5,281C 313.805,270.472 306.472,262.305 296.5,256.5C 294.787,255.365 294.12,253.698 294.5,251.5C 299.598,252.398 304.765,253.065 310,253.5C 312.919,253.452 315.752,253.119 318.5,252.5C 319.117,252.389 319.617,252.056 320,251.5C 321.688,240.704 321.855,230.037 320.5,219.5C 320.75,214.42 320.25,209.42 319,204.5C 317.065,200.198 313.732,198.198 309,198.5C 303.088,199.124 297.254,200.124 291.5,201.5C 289.738,201.357 288.071,201.691 286.5,202.5C 285.5,238.827 285.167,275.161 285.5,311.5C 285.005,324.942 283.671,338.275 281.5,351.5C 280.859,354.891 279.692,358.224 278,361.5C 276.51,362.728 275.01,362.728 273.5,361.5C 271.664,349.606 270.997,337.606 271.5,325.5C 270.805,286.171 270.471,246.837 270.5,207.5C 267.941,207.198 265.607,207.532 263.5,208.5C 262.167,208.5 260.833,208.5 259.5,208.5C 254.876,208.763 250.542,209.763 246.5,211.5C 245.391,211.557 244.391,211.89 243.5,212.5C 243.807,233.999 243.473,255.665 242.5,277.5C 241.59,279.019 240.757,280.685 240,282.5C 237.861,283.769 235.695,283.769 233.5,282.5C 230.64,279.416 228.307,276.082 226.5,272.5C 225.687,266.038 226.52,259.705 229,253.5C 229.748,244.465 229.581,235.465 228.5,226.5C 228.972,218.829 227.305,211.829 223.5,205.5C 223.5,203.5 223.5,201.5 223.5,199.5C 228.904,200.078 234.237,201.078 239.5,202.5C 250.106,202.152 260.273,200.152 270,196.5C 270.831,182.442 270.331,168.442 268.5,154.5C 268.807,149.618 267.974,144.951 266,140.5C 263.252,137.266 260.752,133.932 258.5,130.5C 258.5,128.833 258.5,127.167 258.5,125.5C 270.216,125.806 281.049,129.14 291,135.5C 291.495,137.473 291.662,139.473 291.5,141.5 Z"/></g>
<g><path style="opacity:0.996" fill="#51413c" d="M 258.5,130.5 C 260.752,133.932 263.252,137.266 266,140.5C 267.974,144.951 268.807,149.618 268.5,154.5C 267.07,151.039 265.904,147.372 265,143.5C 260.663,140.16 258.496,135.826 258.5,130.5 Z"/></g>
<g><path style="opacity:0.996" fill="#483c39" d="M 199.5,139.5 C 202.389,139.999 203.056,141.499 201.5,144C 187.272,151.388 174.939,161.221 164.5,173.5C 162.433,175.512 160.1,175.846 157.5,174.5C 163.985,167.514 170.652,160.681 177.5,154C 184.039,147.902 191.372,143.068 199.5,139.5 Z"/></g>
<g><path style="opacity:0.016" fill="#d0cfcc" d="M 409.5,140.5 C 412.702,142.535 414.369,145.535 414.5,149.5C 417.798,152.428 419.798,156.095 420.5,160.5C 418.36,158.3 416.86,155.633 416,152.5C 414.22,151.406 412.386,150.406 410.5,149.5C 411.415,148.672 412.081,147.672 412.5,146.5C 411.037,144.711 410.037,142.711 409.5,140.5 Z"/></g>
<g><path style="opacity:0.996" fill="#7d685c" d="M 291.5,141.5 C 290.271,151.69 288.605,161.69 286.5,171.5C 286.872,164.163 287.372,156.829 288,149.5C 288.875,146.599 290.042,143.932 291.5,141.5 Z"/></g>
<g><path style="opacity:0.353" fill="#c5c3bf" d="M 63.5,141.5 C 63.6602,143.199 63.4935,144.866 63,146.5C 59.0808,152.67 55.4141,159.003 52,165.5C 51.023,167.74 50.523,170.073 50.5,172.5C 49.5,172.5 48.5,172.5 47.5,172.5C 52.0508,161.731 57.3842,151.398 63.5,141.5 Z"/></g>
<g><path style="opacity:0.996" fill="#8b2a1b" d="M 180.5,178.5 C 176.458,180.237 172.124,181.237 167.5,181.5C 171.542,179.763 175.876,178.763 180.5,178.5 Z"/></g>
<g><path style="opacity:0.996" fill="#423b39" d="M 180.5,178.5 C 184.514,178.334 188.514,178.501 192.5,179C 193.406,180.699 193.739,182.533 193.5,184.5C 187.87,183.731 182.204,183.898 176.5,185C 168.843,186.943 161.176,188.776 153.5,190.5C 153.5,188.5 153.5,186.5 153.5,184.5C 158.048,183.509 162.715,182.509 167.5,181.5C 172.124,181.237 176.458,180.237 180.5,178.5 Z"/></g>
<g><path style="opacity:0.996" fill="#4a3d38" d="M 219.5,176.5 C 219.662,178.527 219.495,180.527 219,182.5C 212.756,187.555 207.923,193.555 204.5,200.5C 205.928,190.319 210.928,182.319 219.5,176.5 Z"/></g>
<g><path style="opacity:0.996" fill="#959089" d="M 193.5,184.5 C 193.275,191.907 191.275,198.741 187.5,205C 178.977,207.152 170.643,209.486 162.5,212C 160.19,212.497 157.857,212.663 155.5,212.5C 153.537,205.576 152.87,198.243 153.5,190.5C 161.176,188.776 168.843,186.943 176.5,185C 182.204,183.898 187.87,183.731 193.5,184.5 Z"/></g>
<g><path style="opacity:0.996" fill="#64534b" d="M 132.5,176.5 C 135.583,179.999 137.583,183.999 138.5,188.5C 138.5,191.167 138.5,193.833 138.5,196.5C 137.603,192.689 136.103,189.023 134,185.5C 133.047,182.568 132.547,179.568 132.5,176.5 Z"/></g>
<g><path style="opacity:0.996" fill="#a24735" d="M 310.5,184.5 C 310.53,185.497 310.03,186.164 309,186.5C 304.738,188.531 300.238,189.864 295.5,190.5C 300.086,187.755 305.086,185.755 310.5,184.5 Z"/></g>
<g><path style="opacity:0.996" fill="#8a5f50" d="M 153.5,184.5 C 153.5,186.5 153.5,188.5 153.5,190.5C 152.87,198.243 153.537,205.576 155.5,212.5C 154.791,213.404 153.791,213.737 152.5,213.5C 152.173,203.652 152.506,193.986 153.5,184.5 Z"/></g>
<g><path style="opacity:0.996" fill="#463f3b" d="M 320.5,219.5 C 320.182,214.063 318.182,209.23 314.5,205C 304.991,204.781 295.658,205.948 286.5,208.5C 286.017,204.487 287.684,202.154 291.5,201.5C 297.254,200.124 303.088,199.124 309,198.5C 313.732,198.198 317.065,200.198 319,204.5C 320.25,209.42 320.75,214.42 320.5,219.5 Z"/></g>
<g><path style="opacity:0.996" fill="#5f4941" d="M 342.5,195.5 C 342.543,198.91 342.043,202.243 341,205.5C 340.34,207.324 339.173,208.657 337.5,209.5C 337.5,209.167 337.5,208.833 337.5,208.5C 337.513,203.382 339.18,199.049 342.5,195.5 Z"/></g>
<g><path style="opacity:0.996" fill="#453e3c" d="M 259.5,208.5 C 260.833,208.5 262.167,208.5 263.5,208.5C 265.5,208.5 267.5,208.5 269.5,208.5C 269.5,210.167 269.5,211.833 269.5,213.5C 261.042,214.121 252.708,215.454 244.5,217.5C 244.5,219.167 244.5,220.833 244.5,222.5C 243.521,219.375 243.187,216.042 243.5,212.5C 244.391,211.89 245.391,211.557 246.5,211.5C 251.151,211.373 255.485,210.373 259.5,208.5 Z"/></g>
<g><path style="opacity:0.996" fill="#862c1c" d="M 259.5,208.5 C 255.485,210.373 251.151,211.373 246.5,211.5C 250.542,209.763 254.876,208.763 259.5,208.5 Z"/></g>
<g><path style="opacity:0.996" fill="#a82e1c" d="M 337.5,208.5 C 337.5,208.833 337.5,209.167 337.5,209.5C 337.765,223.016 337.765,236.349 337.5,249.5C 336.124,236.195 335.624,222.862 336,209.5C 336.383,208.944 336.883,208.611 337.5,208.5 Z"/></g>
<g><path style="opacity:0.251" fill="#d2d0cd" d="M 421.5,166.5 C 422.95,170.966 424.116,175.632 425,180.5C 426.254,195.48 427.088,210.48 427.5,225.5C 425.574,205.954 423.574,186.287 421.5,166.5 Z"/></g>
<g><path style="opacity:0.996" fill="#9d4b41" d="M 291.5,201.5 C 287.684,202.154 286.017,204.487 286.5,208.5C 286.832,243.004 286.498,277.337 285.5,311.5C 285.167,275.161 285.5,238.827 286.5,202.5C 288.071,201.691 289.738,201.357 291.5,201.5 Z"/></g>
<g><path style="opacity:0.996" fill="#453c3a" d="M 204.5,211.5 C 206.082,215.788 204.415,218.288 199.5,219C 191.362,220.181 183.362,221.848 175.5,224C 168.144,224.769 160.811,225.602 153.5,226.5C 153.5,224.833 153.5,223.167 153.5,221.5C 154.791,221.737 155.791,221.404 156.5,220.5C 172.488,218.178 188.488,215.178 204.5,211.5 Z"/></g>
<g><path style="opacity:0.996" fill="#865646" d="M 263.5,208.5 C 265.607,207.532 267.941,207.198 270.5,207.5C 270.471,246.837 270.805,286.171 271.5,325.5C 270.778,325.082 270.278,324.416 270,323.5C 269.5,286.835 269.333,250.168 269.5,213.5C 269.5,211.833 269.5,210.167 269.5,208.5C 267.5,208.5 265.5,208.5 263.5,208.5 Z"/></g>
<g><path style="opacity:0.996" fill="#6c4438" d="M 223.5,205.5 C 227.305,211.829 228.972,218.829 228.5,226.5C 226.965,219.5 225.299,212.5 223.5,205.5 Z"/></g>
<g><path style="opacity:0.996" fill="#a03423" d="M 138.5,188.5 C 139.566,193.319 140.4,198.319 141,203.5C 141.83,228.67 141.663,253.67 140.5,278.5C 140.667,253.831 140.5,229.164 140,204.5C 139.433,201.832 138.933,199.166 138.5,196.5C 138.5,193.833 138.5,191.167 138.5,188.5 Z"/></g>
<g><path style="opacity:0.996" fill="#935347" d="M 156.5,220.5 C 155.791,221.404 154.791,221.737 153.5,221.5C 153.5,223.167 153.5,224.833 153.5,226.5C 153.334,230.846 153.501,235.179 154,239.5C 155.754,241.25 157.921,241.917 160.5,241.5C 158.052,242.473 155.385,242.806 152.5,242.5C 152.5,235.167 152.5,227.833 152.5,220.5C 153.833,220.5 155.167,220.5 156.5,220.5 Z"/></g>
<g><path style="opacity:0.996" fill="#9e3b28" d="M 243.5,212.5 C 243.187,216.042 243.521,219.375 244.5,222.5C 245.826,237.339 245.826,252.339 244.5,267.5C 243.833,270.977 243.166,274.311 242.5,277.5C 243.473,255.665 243.807,233.999 243.5,212.5 Z"/></g>
<g><path style="opacity:0.416" fill="#c6c5c2" d="M 36.5,194.5 C 35.9164,203.671 35.2498,212.837 34.5,222C 34.9452,223.447 35.6119,224.78 36.5,226C 35.4647,227.274 34.298,228.44 33,229.5C 31.1825,236.757 32.3492,243.591 36.5,250C 35.7476,250.671 35.4142,251.504 35.5,252.5C 34.3216,256.452 34.3216,260.452 35.5,264.5C 32.0374,260.143 31.7041,255.476 34.5,250.5C 32.044,246.133 30.3773,241.466 29.5,236.5C 29.6857,232.295 31.3524,228.795 34.5,226C 30.6813,223.854 30.5146,221.354 34,218.5C 34.3333,211.833 34.6667,205.167 35,198.5C 35.21,196.942 35.71,195.609 36.5,194.5 Z"/></g>
<g><path style="opacity:0.996" fill="#9d412f" d="M 320.5,219.5 C 321.855,230.037 321.688,240.704 320,251.5C 319.617,252.056 319.117,252.389 318.5,252.5C 320.207,241.592 320.873,230.592 320.5,219.5 Z"/></g>
<g><path style="opacity:0.996" fill="#433c3a" d="M 191.5,253.5 C 189.548,253.005 187.548,252.672 185.5,252.5C 174.805,254.277 164.138,255.944 153.5,257.5C 153.261,255.533 153.594,253.699 154.5,252C 160.046,251.631 165.38,250.797 170.5,249.5C 176.614,247.759 182.947,246.926 189.5,247C 191.229,248.789 191.896,250.956 191.5,253.5 Z"/></g>
<g><path style="opacity:0.996" fill="#4b403c" d="M 216.5,245.5 C 216.662,247.527 216.495,249.527 216,251.5C 210.087,256.338 205.921,262.338 203.5,269.5C 203.522,259.471 207.856,251.471 216.5,245.5 Z"/></g>
<g><path style="opacity:0.996" fill="#959089" d="M 191.5,253.5 C 190.649,258.225 189.482,262.892 188,267.5C 187.215,269.286 186.049,270.786 184.5,272C 174.538,275.734 164.205,277.567 153.5,277.5C 153.5,270.833 153.5,264.167 153.5,257.5C 164.138,255.944 174.805,254.277 185.5,252.5C 187.548,252.672 189.548,253.005 191.5,253.5 Z"/></g>
<g><path style="opacity:0.993" fill="#181818" d="M 35.5,252.5 C 37.6237,253.031 39.1237,254.365 40,256.5C 42.1475,261.728 42.6475,267.061 41.5,272.5C 39.4443,269.791 37.4443,267.124 35.5,264.5C 34.3216,260.452 34.3216,256.452 35.5,252.5 Z"/></g>
<g><path style="opacity:0.996" fill="#863b2c" d="M 170.5,249.5 C 165.38,250.797 160.046,251.631 154.5,252C 153.594,253.699 153.261,255.533 153.5,257.5C 153.5,264.167 153.5,270.833 153.5,277.5C 152.343,269.01 152.176,260.343 153,251.5C 158.698,250.013 164.531,249.346 170.5,249.5 Z"/></g>
<g><path style="opacity:0.996" fill="#4b413e" d="M 296.5,256.5 C 306.472,262.305 313.805,270.472 318.5,281C 320.5,281.667 322.5,281.667 324.5,281C 331.318,274.396 335.651,266.563 337.5,257.5C 337.489,268.706 333.489,278.206 325.5,286C 322.711,287.664 319.877,287.83 317,286.5C 315.186,282.938 313.52,279.271 312,275.5C 306.779,270.477 301.279,265.811 295.5,261.5C 294.316,259.533 294.649,257.866 296.5,256.5 Z"/></g>
<g><path style="opacity:0.996" fill="#453e3c" d="M 207.5,278.5 C 207.5,280.833 207.5,283.167 207.5,285.5C 201.408,287.633 195.075,289.133 188.5,290C 176.725,290.68 165.058,291.847 153.5,293.5C 153.34,291.801 153.506,290.134 154,288.5C 155.948,287.891 157.782,287.224 159.5,286.5C 171.773,285.092 184.106,283.758 196.5,282.5C 200.326,281.559 203.992,280.225 207.5,278.5 Z"/></g>
<g><path style="opacity:0.996" fill="#483e3b" d="M 226.5,272.5 C 228.307,276.082 230.64,279.416 233.5,282.5C 235.695,283.769 237.861,283.769 240,282.5C 240.757,280.685 241.59,279.019 242.5,277.5C 242.32,281.576 241.32,285.409 239.5,289C 237.421,289.808 235.421,289.641 233.5,288.5C 231.862,285.696 230.029,283.029 228,280.5C 226.748,277.986 226.248,275.32 226.5,272.5 Z"/></g>
<g><path style="opacity:0.067" fill="#e1e0df" d="M 40.5,275.5 C 41.1174,275.611 41.6174,275.944 42,276.5C 42.4995,282.825 42.6662,289.158 42.5,295.5C 41.7188,288.981 41.0521,282.314 40.5,275.5 Z"/></g>
<g><path style="opacity:0.362" fill="#afafae" d="M 433.5,277.5 C 434.327,284.798 432.994,291.631 429.5,298C 430.397,302.784 430.231,307.617 429,312.5C 423.073,325.557 416.573,338.223 409.5,350.5C 409.343,349.127 409.51,347.793 410,346.5C 416.095,335.734 421.761,324.734 427,313.5C 428.16,308.566 428.66,303.566 428.5,298.5C 431.075,291.607 432.741,284.607 433.5,277.5 Z"/></g>
<g><path style="opacity:0.996" fill="#8e4b3e" d="M 159.5,286.5 C 157.782,287.224 155.948,287.891 154,288.5C 153.506,290.134 153.34,291.801 153.5,293.5C 153.821,298.695 153.487,303.695 152.5,308.5C 152.334,301.492 152.5,294.492 153,287.5C 155.041,286.577 157.208,286.244 159.5,286.5 Z"/></g>
<g><path style="opacity:0.996" fill="#965b4b" d="M 137.5,298.5 C 136.8,302.798 136.467,307.131 136.5,311.5C 135.839,309.866 135.506,308.033 135.5,306C 135.3,303.134 135.967,300.634 137.5,298.5 Z"/></g>
<g><path style="opacity:0.259" fill="#d6d5d4" d="M 44.5,314.5 C 45.7251,315.152 46.3917,316.319 46.5,318C 47.1629,321.473 47.4963,324.973 47.5,328.5C 45.5812,324.143 44.5812,319.477 44.5,314.5 Z"/></g>
<g><path style="opacity:0.996" fill="#4d403b" d="M 136.5,312.5 C 137.497,315.964 138.997,319.297 141,322.5C 144.03,325.36 146.697,325.027 149,321.5C 149.566,319.277 150.4,317.277 151.5,315.5C 151.281,320.095 150.115,324.429 148,328.5C 145.667,331.167 143.333,331.167 141,328.5C 137.375,323.789 135.875,318.456 136.5,312.5 Z"/></g>
<g><path style="opacity:0.996" fill="#080808" d="M 428.5,298.5 C 428.66,303.566 428.16,308.566 427,313.5C 421.761,324.734 416.095,335.734 410,346.5C 409.51,347.793 409.343,349.127 409.5,350.5C 408.357,350.908 407.357,351.575 406.5,352.5C 404.194,358.446 401.361,364.112 398,369.5C 397.503,371.81 397.337,374.143 397.5,376.5C 394.107,376.062 391.107,376.895 388.5,379C 382.194,386.64 375.194,393.64 367.5,400C 356.041,408.235 344.374,416.235 332.5,424C 327.173,428.328 322.173,432.994 317.5,438C 314.484,438.664 311.651,438.164 309,436.5C 307.098,438.405 304.932,439.905 302.5,441C 297.463,441.663 292.463,441.496 287.5,440.5C 275.164,439.194 262.831,439.194 250.5,440.5C 240.099,442.037 229.765,441.704 219.5,439.5C 218.341,437.623 216.674,437.123 214.5,438C 208.999,441.089 203.332,443.589 197.5,445.5C 193.546,446.372 189.546,447.038 185.5,447.5C 180.374,446.967 175.374,445.967 170.5,444.5C 163.685,439.535 156.019,435.868 147.5,433.5C 145.349,430.585 142.349,428.918 138.5,428.5C 138.144,427.13 137.31,426.13 136,425.5C 133.563,424.2 131.063,423.2 128.5,422.5C 127.73,420.065 126.063,418.731 123.5,418.5C 118.976,414.481 114.476,410.148 110,405.5C 109.121,402.182 108.287,398.848 107.5,395.5C 102.484,392.93 97.151,391.93 91.5,392.5C 91.7989,390.396 91.4656,388.396 90.5,386.5C 89.7065,386.931 88.8732,387.265 88,387.5C 84.8553,383.022 81.0219,379.189 76.5,376C 74.8455,375.392 73.1789,374.892 71.5,374.5C 67.9041,370.341 64.0708,366.341 60,362.5C 59.3486,360.765 59.5153,359.098 60.5,357.5C 57.9121,356.416 55.7455,354.749 54,352.5C 52.9178,347.752 51.5845,343.085 50,338.5C 49.1923,336.421 49.359,334.421 50.5,332.5C 52.058,334.956 54.058,336.956 56.5,338.5C 55.5153,340.098 55.3486,341.765 56,343.5C 62.6822,350.42 70.1822,356.253 78.5,361C 80.5299,362.896 82.1966,365.063 83.5,367.5C 85.0453,368.452 86.712,368.785 88.5,368.5C 88.2865,370.144 88.6198,371.644 89.5,373C 95.4182,373.117 101.085,374.284 106.5,376.5C 106.335,379.518 106.502,382.518 107,385.5C 110.131,389.633 113.631,393.466 117.5,397C 134.879,409.363 153.545,419.696 173.5,428C 179.776,429.424 186.109,429.758 192.5,429C 199.807,426.754 206.807,423.754 213.5,420C 215.712,419.211 217.712,419.378 219.5,420.5C 221.811,422.068 224.478,422.902 227.5,423C 235.012,423.822 242.345,423.655 249.5,422.5C 252.609,422.736 255.609,422.403 258.5,421.5C 269.894,421.303 281.228,421.97 292.5,423.5C 296.514,423.666 300.514,423.499 304.5,423C 306.976,421.691 308.976,419.858 310.5,417.5C 312.75,419.798 315.416,420.631 318.5,420C 322.866,415.299 327.533,410.966 332.5,407C 347.465,397.026 362.132,386.693 376.5,376C 382.199,370.635 387.533,364.969 392.5,359C 395.393,357.851 398.393,357.351 401.5,357.5C 401.267,352.966 402.1,348.632 404,344.5C 411.948,328.931 420.115,313.597 428.5,298.5 Z"/></g>
<g><path style="opacity:0.996" fill="#504540" d="M 281.5,351.5 C 281.888,357.171 280.721,362.504 278,367.5C 276.817,368.731 275.651,368.731 274.5,367.5C 273.652,365.591 273.318,363.591 273.5,361.5C 275.01,362.728 276.51,362.728 278,361.5C 279.692,358.224 280.859,354.891 281.5,351.5 Z"/></g>
<g><path style="opacity:0.227" fill="#a2a2a2" d="M 71.5,374.5 C 73.1789,374.892 74.8455,375.392 76.5,376C 81.0219,379.189 84.8553,383.022 88,387.5C 88.8732,387.265 89.7065,386.931 90.5,386.5C 91.4656,388.396 91.7989,390.396 91.5,392.5C 90.596,391.791 90.2627,390.791 90.5,389.5C 85.8766,390.219 83.21,388.219 82.5,383.5C 78.9468,380.242 75.2801,377.242 71.5,374.5 Z"/></g>
<g><path style="opacity:0.043" fill="#a7a7a7" d="M 91.5,392.5 C 97.151,391.93 102.484,392.93 107.5,395.5C 108.287,398.848 109.121,402.182 110,405.5C 114.476,410.148 118.976,414.481 123.5,418.5C 117.977,415.49 113.144,411.49 109,406.5C 108.199,402.806 107.032,399.306 105.5,396C 100.828,394.347 96.1614,393.181 91.5,392.5 Z"/></g>
<g><path style="opacity:0.137" fill="#a3a3a3" d="M 409.5,350.5 C 406.618,357.266 403.451,363.933 400,370.5C 399.667,372.833 399.333,375.167 399,377.5C 396.595,378.274 394.095,378.774 391.5,379C 382.763,389.073 373.096,398.073 362.5,406C 345.684,416.494 329.851,428.328 315,441.5C 313.247,440.373 311.413,439.373 309.5,438.5C 303.576,443.285 296.91,444.618 289.5,442.5C 288.833,441.833 288.167,441.167 287.5,440.5C 292.463,441.496 297.463,441.663 302.5,441C 304.932,439.905 307.098,438.405 309,436.5C 311.651,438.164 314.484,438.664 317.5,438C 322.173,432.994 327.173,428.328 332.5,424C 344.374,416.235 356.041,408.235 367.5,400C 375.194,393.64 382.194,386.64 388.5,379C 391.107,376.895 394.107,376.062 397.5,376.5C 397.337,374.143 397.503,371.81 398,369.5C 401.361,364.112 404.194,358.446 406.5,352.5C 407.357,351.575 408.357,350.908 409.5,350.5 Z"/></g>
<g><path style="opacity:0.996" fill="#52504d" d="M 258.5,421.5 C 265.321,420.345 272.321,420.179 279.5,421C 284.127,421.05 288.46,421.883 292.5,423.5C 281.228,421.97 269.894,421.303 258.5,421.5 Z"/></g>
<g><path style="opacity:0.047" fill="#a8a8a8" d="M 123.5,418.5 C 126.063,418.731 127.73,420.065 128.5,422.5C 126.251,421.92 124.585,420.587 123.5,418.5 Z"/></g>
<g><path style="opacity:0.996" fill="#63615d" d="M 219.5,420.5 C 229.419,422.163 239.419,422.83 249.5,422.5C 242.345,423.655 235.012,423.822 227.5,423C 224.478,422.902 221.811,422.068 219.5,420.5 Z"/></g>
<g><path style="opacity:0.18" fill="#979796" d="M 128.5,422.5 C 131.063,423.2 133.563,424.2 136,425.5C 137.31,426.13 138.144,427.13 138.5,428.5C 134.827,427 131.494,425 128.5,422.5 Z"/></g>
<g><path style="opacity:0.059" fill="#999999" d="M 138.5,428.5 C 142.349,428.918 145.349,430.585 147.5,433.5C 144.22,432.193 141.22,430.527 138.5,428.5 Z"/></g>
<g><path style="opacity:0.012" fill="#a5a5a5" d="M 147.5,433.5 C 156.019,435.868 163.685,439.535 170.5,444.5C 162.587,441.23 154.921,437.564 147.5,433.5 Z"/></g>
<g><path style="opacity:0.056" fill="#bebdbd" d="M 287.5,440.5 C 288.167,441.167 288.833,441.833 289.5,442.5C 276.498,439.959 263.498,439.959 250.5,442.5C 250.5,441.833 250.5,441.167 250.5,440.5C 262.831,439.194 275.164,439.194 287.5,440.5 Z"/></g>
<g><path style="opacity:0.043" fill="#8b8b8b" d="M 219.5,439.5 C 229.765,441.704 240.099,442.037 250.5,440.5C 250.5,441.167 250.5,441.833 250.5,442.5C 242.16,442.666 233.827,442.5 225.5,442C 223.148,441.76 221.148,440.927 219.5,439.5 Z"/></g>
<g><path style="opacity:0.69" fill="#888888" d="M 219.5,439.5 C 217.801,439.34 216.134,439.506 214.5,440C 210.396,442.386 206.062,444.219 201.5,445.5C 200.167,445.5 198.833,445.5 197.5,445.5C 203.332,443.589 208.999,441.089 214.5,438C 216.674,437.123 218.341,437.623 219.5,439.5 Z"/></g>
<g><path style="opacity:0.127" fill="#b7b6b6" d="M 170.5,444.5 C 175.374,445.967 180.374,446.967 185.5,447.5C 189.546,447.038 193.546,446.372 197.5,445.5C 198.833,445.5 200.167,445.5 201.5,445.5C 197.061,447.813 192.227,448.813 187,448.5C 180.988,448.788 175.488,447.455 170.5,444.5 Z"/></g>
</svg>
