<?xml version="1.0" encoding="UTF-8"?>
<!DOCTYPE svg PUBLIC "-//W3C//DTD SVG 1.1//EN" "http://www.w3.org/Graphics/SVG/1.1/DTD/svg11.dtd">
<svg xmlns="http://www.w3.org/2000/svg" version="1.1" width="60px" height="60px" style="shape-rendering:geometricPrecision; text-rendering:geometricPrecision; image-rendering:optimizeQuality; fill-rule:evenodd; clip-rule:evenodd" xmlns:xlink="http://www.w3.org/1999/xlink">
<g><path style="opacity:1" fill="#000000" d="M 18.5,3.5 C 25.8409,3.33368 33.1742,3.50034 40.5,4C 45.3333,8.83333 50.1667,13.6667 55,18.5C 55.6667,25.8333 55.6667,33.1667 55,40.5C 50.1667,45.3333 45.3333,50.1667 40.5,55C 33.1667,55.6667 25.8333,55.6667 18.5,55C 13.6667,50.1667 8.83333,45.3333 4,40.5C 3.33333,33.1667 3.33333,25.8333 4,18.5C 9.03651,13.6313 13.8698,8.63128 18.5,3.5 Z"/></g>
<g><path style="opacity:1" fill="#817e7e" d="M 19.5,5.5 C 26.175,5.33375 32.8417,5.50042 39.5,6C 44,10.5 48.5,15 53,19.5C 53.6667,26.1667 53.6667,32.8333 53,39.5C 48.5,44 44,48.5 39.5,53C 32.8333,53.6667 26.1667,53.6667 19.5,53C 15,48.5 10.5,44 6,39.5C 5.33333,32.8333 5.33333,26.1667 6,19.5C 10.7033,14.9645 15.2033,10.2979 19.5,5.5 Z"/></g>
<g><path style="opacity:1" fill="#f51a0f" d="M 27.5,36.5 C 23.8716,37.8254 20.2049,38.6587 16.5,39C 15.6433,38.3109 14.9767,37.4776 14.5,36.5C 19.5556,35.5734 24.2222,33.7401 28.5,31C 25.1818,31.487 21.8484,32.3203 18.5,33.5C 16.7923,33.2972 15.459,32.4638 14.5,31C 18.2192,30.6116 21.8859,29.9449 25.5,29C 23.1902,28.5034 20.8568,28.3367 18.5,28.5C 18.6602,26.8008 18.4935,25.1341 18,23.5C 16.6361,24.2583 15.4695,23.7583 14.5,22C 18.4103,20.0934 21.7436,17.4267 24.5,14C 28.479,15.8244 32.8123,16.6577 37.5,16.5C 37.7035,18.3904 37.0368,19.8904 35.5,21C 37.8098,21.4966 40.1432,21.6633 42.5,21.5C 41.8144,25.287 42.8144,28.4537 45.5,31C 43.5,32.6667 41.5,34.3333 39.5,36C 41.0429,37.8783 42.8762,39.3783 45,40.5C 45.3008,43.0915 44.1341,43.9248 41.5,43C 39.2911,41.1266 37.4578,38.96 36,36.5C 37.0073,43.6675 34.174,46.3342 27.5,44.5C 27,43.5 26.5,42.5 26,41.5C 23.2641,42.7272 20.4308,43.7272 17.5,44.5C 15.4615,43.7232 14.7948,42.5565 15.5,41C 20.0339,40.5495 24.0339,39.0495 27.5,36.5 Z"/></g>
<g><path style="opacity:1" fill="#857b7b" d="M 24.5,19.5 C 26.8568,19.3367 29.1902,19.5034 31.5,20C 29.0454,21.5403 26.3787,21.8736 23.5,21C 24.056,20.6174 24.3893,20.1174 24.5,19.5 Z"/></g>
<g><path style="opacity:1" fill="#877a79" d="M 36.5,29.5 C 42.2455,27.7549 42.7455,28.7549 38,32.5C 37.7679,31.2625 37.2679,30.2625 36.5,29.5 Z"/></g>
<g><path style="opacity:1" fill="#9e6462" d="M 27.5,36.5 C 28.0024,34.9153 29.0024,34.4153 30.5,35C 29.7562,36.0386 28.7562,36.5386 27.5,36.5 Z"/></g>
<g><path style="opacity:1" fill="#a35f5d" d="M 30.5,39.5 C 31.0431,39.56 31.3764,39.8933 31.5,40.5C 30.277,41.6139 28.9437,41.7805 27.5,41C 28.7375,40.7679 29.7375,40.2679 30.5,39.5 Z"/></g>
</svg>
