<?xml version="1.0" encoding="UTF-8"?>
<!DOCTYPE svg PUBLIC "-//W3C//DTD SVG 1.1//EN" "http://www.w3.org/Graphics/SVG/1.1/DTD/svg11.dtd">
<svg xmlns="http://www.w3.org/2000/svg" version="1.1" width="60px" height="60px" style="shape-rendering:geometricPrecision; text-rendering:geometricPrecision; image-rendering:optimizeQuality; fill-rule:evenodd; clip-rule:evenodd" xmlns:xlink="http://www.w3.org/1999/xlink">
<g><path style="opacity:1" fill="#000000" d="M 18.5,3.5 C 25.8409,3.33368 33.1742,3.50034 40.5,4C 45.3333,8.83333 50.1667,13.6667 55,18.5C 55.6667,25.8333 55.6667,33.1667 55,40.5C 50.1667,45.3333 45.3333,50.1667 40.5,55C 33.1667,55.6667 25.8333,55.6667 18.5,55C 13.6667,50.1667 8.83333,45.3333 4,40.5C 3.33333,33.1667 3.33333,25.8333 4,18.5C 9.03651,13.6313 13.8698,8.63128 18.5,3.5 Z"/></g>
<g><path style="opacity:1" fill="#807f7f" d="M 19.5,5.5 C 26.175,5.33375 32.8417,5.50042 39.5,6C 44,10.5 48.5,15 53,19.5C 53.6667,26.1667 53.6667,32.8333 53,39.5C 48.5,44 44,48.5 39.5,53C 32.8333,53.6667 26.1667,53.6667 19.5,53C 15,48.5 10.5,44 6,39.5C 5.33333,32.8333 5.33333,26.1667 6,19.5C 10.7033,14.9645 15.2033,10.2979 19.5,5.5 Z"/></g>
<g><path style="opacity:1" fill="#fb0805" d="M 21.5,13.5 C 22.8333,13.5 24.1667,13.5 25.5,13.5C 25.3367,15.8568 25.5034,18.1902 26,20.5C 28.978,18.689 31.478,16.3557 33.5,13.5C 36.7538,15.8974 40.4204,16.8974 44.5,16.5C 44.0574,21.2081 41.724,24.7081 37.5,27C 34.4103,28.3634 31.2436,29.53 28,30.5C 27.0546,30.0946 26.3879,29.428 26,28.5C 25.5006,34.1569 25.3339,39.8236 25.5,45.5C 24.1667,45.5 22.8333,45.5 21.5,45.5C 21.8242,41.4454 21.4909,37.4454 20.5,33.5C 19.8811,37.8599 18.3811,41.8599 16,45.5C 15.1667,44.6667 14.3333,43.8333 13.5,43C 17.0491,38.7492 17.3824,34.2492 14.5,29.5C 16.8333,29.5 19.1667,29.5 21.5,29.5C 21.5,28.5 21.5,27.5 21.5,26.5C 19.5,26.5 17.5,26.5 15.5,26.5C 15.5,22.8333 15.5,19.1667 15.5,15.5C 16.5,15.5 17.5,15.5 18.5,15.5C 18.5,17.8333 18.5,20.1667 18.5,22.5C 19.5,22.5 20.5,22.5 21.5,22.5C 21.5,19.5 21.5,16.5 21.5,13.5 Z"/></g>
<g><path style="opacity:1" fill="#966e6b" d="M 32.5,19.5 C 34.8568,19.3367 37.1902,19.5034 39.5,20C 38.6667,20.8333 37.8333,21.6667 37,22.5C 35.6371,20.2157 34.1371,20.049 32.5,22C 35.0082,26.4445 34.5082,26.6112 31,22.5C 29.3831,23.5358 29.2164,24.7025 30.5,26C 26.1377,28.1703 24.6377,26.6703 26,21.5C 26.6667,22.1667 27.3333,22.8333 28,23.5C 29.6667,22.2668 31.1667,20.9335 32.5,19.5 Z"/></g>
<g><path style="opacity:1" fill="#fc0504" d="M 33.5,41.5 C 29.7246,39.1692 27.3913,35.8358 26.5,31.5C 30.5,31.5 34.5,31.5 38.5,31.5C 38.5,30.1667 38.5,28.8333 38.5,27.5C 39.8333,27.5 41.1667,27.5 42.5,27.5C 42.5,28.8333 42.5,30.1667 42.5,31.5C 43.5,31.5 44.5,31.5 45.5,31.5C 45.5,32.5 45.5,33.5 45.5,34.5C 44.5,34.5 43.5,34.5 42.5,34.5C 42.6646,37.5184 42.498,40.5184 42,43.5C 39.8646,45.2785 37.3646,45.9452 34.5,45.5C 34.5674,44.0413 34.2341,42.7079 33.5,41.5 Z"/></g>
<g><path style="opacity:1" fill="#847c7c" d="M 33.5,41.5 C 33.9528,40.5416 34.6195,39.7083 35.5,39C 30.1547,34.8941 31.1547,33.3941 38.5,34.5C 38.5,36.8333 38.5,39.1667 38.5,41.5C 36.8333,41.5 35.1667,41.5 33.5,41.5 Z"/></g>
</svg>
