<?xml version="1.0" encoding="UTF-8"?>
<!DOCTYPE svg PUBLIC "-//W3C//DTD SVG 1.1//EN" "http://www.w3.org/Graphics/SVG/1.1/DTD/svg11.dtd">
<svg xmlns="http://www.w3.org/2000/svg" version="1.1" width="465px" height="466px" style="shape-rendering:geometricPrecision; text-rendering:geometricPrecision; image-rendering:optimizeQuality; fill-rule:evenodd; clip-rule:evenodd" xmlns:xlink="http://www.w3.org/1999/xlink">
<g><path style="opacity:0.996" fill="#97948e" d="M 276.5,55.5 C 285.253,54.1435 292.919,56.3102 299.5,62C 302.146,62.4974 304.813,62.6641 307.5,62.5C 308.122,64.335 309.456,65.5017 311.5,66C 316.548,67.9576 321.548,69.7909 326.5,71.5C 332.668,74.0804 338.335,77.4137 343.5,81.5C 348.467,86.4588 353.8,91.1255 359.5,95.5C 361.323,99.969 362.99,104.469 364.5,109C 369.053,112.008 374.053,113.174 379.5,112.5C 379.5,114.167 379.5,115.833 379.5,117.5C 383.784,116.923 386.784,118.59 388.5,122.5C 389.417,123.127 390.417,123.461 391.5,123.5C 397.348,126.015 402.348,129.682 406.5,134.5C 407.713,137.225 409.546,139.559 412,141.5C 412.743,143.441 412.576,145.274 411.5,147C 414.102,147.883 416.269,149.383 418,151.5C 418.905,155.837 420.405,159.837 422.5,163.5C 424.062,167.657 424.729,171.99 424.5,176.5C 425.056,192.83 425.722,209.164 426.5,225.5C 428.454,229.766 431.121,233.433 434.5,236.5C 435.674,237.514 436.34,238.847 436.5,240.5C 437.752,245.509 437.752,250.509 436.5,255.5C 435.212,257.975 435.545,260.308 437.5,262.5C 435.982,266.43 434.982,270.43 434.5,274.5C 432.622,281.522 430.955,288.855 429.5,296.5C 428.542,296.953 427.708,297.619 427,298.5C 418.552,314.423 410.385,330.423 402.5,346.5C 401.52,349.086 401.187,351.753 401.5,354.5C 398.68,354.248 396.014,354.748 393.5,356C 388.171,362.328 382.505,368.328 376.5,374C 360.167,385.667 343.833,397.333 327.5,409C 324.65,411.682 321.984,414.516 319.5,417.5C 316.324,418.997 313.658,418.33 311.5,415.5C 307.924,419.527 303.424,421.527 298,421.5C 289.125,419.41 280.125,418.41 271,418.5C 256.546,420.171 242.046,420.671 227.5,420C 223.695,419.039 219.862,418.206 216,417.5C 208.517,420.496 201.017,423.329 193.5,426C 186.776,426.774 180.11,426.441 173.5,425C 156.912,417.707 140.912,409.374 125.5,400C 120,395.167 114.5,390.333 109,385.5C 107.356,381.78 106.19,377.947 105.5,374C 100.495,371.366 95.1621,370.199 89.5,370.5C 89.5,368.833 89.5,367.167 89.5,365.5C 87.8008,365.66 86.1341,365.494 84.5,365C 82.8745,362.372 80.8745,360.039 78.5,358C 70.196,353.709 63.0293,347.876 57,340.5C 56.3486,338.765 56.5153,337.098 57.5,335.5C 55.5,333.833 53.5,332.167 51.5,330.5C 50.5481,332.045 50.2148,333.712 50.5,335.5C 51.0916,338.127 51.4249,340.794 51.5,343.5C 48.7539,337.222 47.4206,330.555 47.5,323.5C 45.0287,306.957 43.5287,290.29 43,273.5C 42.2411,271.937 41.0744,270.937 39.5,270.5C 36.615,266.698 34.7817,262.364 34,257.5C 33.3047,254.004 33.8047,250.67 35.5,247.5C 34.8728,246.583 34.5394,245.583 34.5,244.5C 31.0447,238.319 30.7114,231.986 33.5,225.5C 37.1491,224.51 37.4824,222.677 34.5,220C 36.0522,215.519 36.7189,210.853 36.5,206C 36.4986,202.317 36.1652,198.817 35.5,195.5C 35.5,195.167 35.5,194.833 35.5,194.5C 37.2575,192.859 38.7575,190.859 40,188.5C 48.1759,171.478 56.8425,154.812 66,138.5C 67.9039,135.077 68.7372,131.41 68.5,127.5C 70.5273,127.662 72.5273,127.495 74.5,127C 82.0939,119.911 89.0939,112.411 95.5,104.5C 99.6507,101.256 103.984,98.2562 108.5,95.5C 115.329,92.6574 121.329,88.6574 126.5,83.5C 132.142,78.8632 137.809,74.1966 143.5,69.5C 146.744,68.2522 149.744,66.5855 152.5,64.5C 154.459,64.8748 156.293,65.5415 158,66.5C 159.558,64.6411 161.391,63.1411 163.5,62C 170.036,61.7104 176.369,61.5437 182.5,61.5C 182.833,61.5 183.167,61.5 183.5,61.5C 183.577,62.7498 184.244,63.5831 185.5,64C 189.667,64.1667 193.833,64.3333 198,64.5C 211.968,63.1868 225.801,61.8535 239.5,60.5C 240.167,60.5 240.5,60.8333 240.5,61.5C 245.04,64.2956 250.04,65.129 255.5,64C 262.613,61.0986 269.613,58.2652 276.5,55.5 Z"/></g>
<g><path style="opacity:0.624" fill="#cfcdca" d="M 276.5,55.5 C 269.613,58.2652 262.613,61.0986 255.5,64C 250.04,65.129 245.04,64.2956 240.5,61.5C 244.393,61.7642 248.226,62.4308 252,63.5C 258.119,61.0126 264.286,58.5126 270.5,56C 272.473,55.5045 274.473,55.3379 276.5,55.5 Z"/></g>
<g><path style="opacity:0.994" fill="#bab8b4" d="M 276.5,55.5 C 282.379,54.2392 288.379,54.4059 294.5,56C 299.02,58.0236 303.353,60.1903 307.5,62.5C 304.813,62.6641 302.146,62.4974 299.5,62C 292.919,56.3102 285.253,54.1435 276.5,55.5 Z"/></g>
<g><path style="opacity:0.499" fill="#c5c3bf" d="M 239.5,60.5 C 225.801,61.8535 211.968,63.1868 198,64.5C 193.833,64.3333 189.667,64.1667 185.5,64C 184.244,63.5831 183.577,62.7498 183.5,61.5C 188.254,62.1409 193.087,62.4742 198,62.5C 211.805,61.2955 225.638,60.6288 239.5,60.5 Z"/></g>
<g><path style="opacity:0.078" fill="#d6d4d1" d="M 182.5,61.5 C 176.369,61.5437 170.036,61.7104 163.5,62C 161.391,63.1411 159.558,64.6411 158,66.5C 156.293,65.5415 154.459,64.8748 152.5,64.5C 149.744,66.5855 146.744,68.2522 143.5,69.5C 145.6,67.502 147.6,65.3353 149.5,63C 152.534,62.3399 155.367,62.8399 158,64.5C 161.324,60.7555 165.491,59.0888 170.5,59.5C 174.623,59.5439 178.623,60.2106 182.5,61.5 Z"/></g>
<g><path style="opacity:0.231" fill="#d0cecc" d="M 307.5,62.5 C 314.078,65.1027 320.412,68.1027 326.5,71.5C 321.548,69.7909 316.548,67.9576 311.5,66C 309.456,65.5017 308.122,64.335 307.5,62.5 Z"/></g>
<g><path style="opacity:0.143" fill="#dad8d0" d="M 343.5,81.5 C 349.818,85.1586 355.152,89.8253 359.5,95.5C 353.8,91.1255 348.467,86.4588 343.5,81.5 Z"/></g>
<g><path style="opacity:0.494" fill="#d3d1d0" d="M 126.5,83.5 C 121.329,88.6574 115.329,92.6574 108.5,95.5C 113.803,90.5107 119.803,86.5107 126.5,83.5 Z"/></g>
<g><path style="opacity:0.652" fill="#c6c4c1" d="M 359.5,95.5 C 363.061,98.6209 365.061,102.621 365.5,107.5C 369.869,109.798 374.536,110.964 379.5,111C 380.376,112.586 381.376,114.086 382.5,115.5C 384.061,114.653 385.561,114.986 387,116.5C 388.012,119.202 389.512,121.535 391.5,123.5C 390.417,123.461 389.417,123.127 388.5,122.5C 386.784,118.59 383.784,116.923 379.5,117.5C 379.5,115.833 379.5,114.167 379.5,112.5C 374.053,113.174 369.053,112.008 364.5,109C 362.99,104.469 361.323,99.969 359.5,95.5 Z"/></g>
<g><path style="opacity:0.996" fill="#326e23" d="M 296.5,135.5 C 290.814,137.231 285.147,139.065 279.5,141C 269.286,143.573 258.953,145.406 248.5,146.5C 247.508,153.648 247.175,160.981 247.5,168.5C 252.819,167.337 258.153,166.171 263.5,165C 268.167,164.333 272.833,164.333 277.5,165C 281.312,166.432 282.312,168.932 280.5,172.5C 270.031,175.413 259.365,177.58 248.5,179C 247.944,179.383 247.611,179.883 247.5,180.5C 246.509,186.979 246.176,193.646 246.5,200.5C 250.479,200.258 254.146,199.258 257.5,197.5C 263.99,195.51 270.656,195.01 277.5,196C 280.622,197.755 281.288,200.255 279.5,203.5C 268.533,206.054 257.533,208.721 246.5,211.5C 246.5,213.5 246.5,215.5 246.5,217.5C 246.5,223.833 246.5,230.167 246.5,236.5C 267.404,234.133 288.07,230.466 308.5,225.5C 319.177,228.422 329.011,233.089 338,239.5C 338.495,241.473 338.662,243.473 338.5,245.5C 336.827,246.343 335.66,247.676 335,249.5C 334.057,252.824 333.224,256.157 332.5,259.5C 332.5,259.833 332.5,260.167 332.5,260.5C 330.454,271.942 329.12,283.608 328.5,295.5C 328.5,295.833 328.5,296.167 328.5,296.5C 326.051,316.982 317.718,334.816 303.5,350C 300.167,352 296.833,354 293.5,356C 291.323,357.202 288.989,357.702 286.5,357.5C 284.182,342.194 277.182,329.527 265.5,319.5C 264.19,317.852 262.857,316.186 261.5,314.5C 261.887,313.28 262.72,312.613 264,312.5C 274.173,319.113 285.34,322.279 297.5,322C 298.333,321.167 299.167,320.333 300,319.5C 308.335,302.994 312.835,285.494 313.5,267C 313.499,262.653 313.166,258.486 312.5,254.5C 311.942,247.101 307.942,242.601 300.5,241C 281.556,240.873 262.723,242.373 244,245.5C 226.786,248.715 209.619,252.215 192.5,256C 190.754,256.471 189.087,257.138 187.5,258C 185.246,260.444 182.913,262.611 180.5,264.5C 178.971,264.471 177.804,263.804 177,262.5C 174.098,258.8 171.932,254.8 170.5,250.5C 171.321,238.448 172.654,226.448 174.5,214.5C 175.662,196.338 175.829,178.005 175,159.5C 174.45,153.09 172.283,147.424 168.5,142.5C 166.476,138.562 167.643,136.562 172,136.5C 178.727,138.631 185.394,140.965 192,143.5C 210.02,141.742 227.853,138.908 245.5,135C 251.152,132.841 256.819,130.841 262.5,129C 268.949,127.738 275.449,126.905 282,126.5C 287.032,126.246 291.865,127.079 296.5,129C 299.061,131.156 299.061,133.323 296.5,135.5 Z"/></g>
<g><path style="opacity:0.996" fill="#3c3f3b" d="M 296.5,135.5 C 298.044,138.629 297.044,140.795 293.5,142C 278.65,146.142 263.65,149.642 248.5,152.5C 248.5,150.5 248.5,148.5 248.5,146.5C 258.953,145.406 269.286,143.573 279.5,141C 285.147,139.065 290.814,137.231 296.5,135.5 Z"/></g>
<g><path style="opacity:0.235" fill="#dfdedc" d="M 406.5,134.5 C 409.13,136.628 411.63,138.961 414,141.5C 414.72,143.112 414.554,144.612 413.5,146C 415.609,147.141 417.442,148.641 419,150.5C 420.357,154.784 421.523,159.118 422.5,163.5C 420.405,159.837 418.905,155.837 418,151.5C 416.269,149.383 414.102,147.883 411.5,147C 412.576,145.274 412.743,143.441 412,141.5C 409.546,139.559 407.713,137.225 406.5,134.5 Z"/></g>
<g><path style="opacity:0.996" fill="#3d403c" d="M 231.5,155.5 C 217.851,156.455 204.184,157.122 190.5,157.5C 190.5,155.5 190.5,153.5 190.5,151.5C 196.5,151.5 202.5,151.5 208.5,151.5C 216.142,150.737 223.809,150.403 231.5,150.5C 231.5,152.167 231.5,153.833 231.5,155.5 Z"/></g>
<g><path style="opacity:0.129" fill="#d2d1ce" d="M 95.5,104.5 C 89.0939,112.411 82.0939,119.911 74.5,127C 72.5273,127.495 70.5273,127.662 68.5,127.5C 68.7372,131.41 67.9039,135.077 66,138.5C 56.8425,154.812 48.1759,171.478 40,188.5C 38.7575,190.859 37.2575,192.859 35.5,194.5C 45.7003,173.766 56.2003,153.1 67,132.5C 67.7203,130.888 67.5536,129.388 66.5,128C 67.5224,125.684 69.0224,125.184 71,126.5C 72.0674,125.809 73.2341,125.309 74.5,125C 81.3685,117.964 88.3685,111.131 95.5,104.5 Z"/></g>
<g><path style="opacity:0.996" fill="#94928b" d="M 231.5,155.5 C 231.5,161.5 231.5,167.5 231.5,173.5C 226.432,173.245 221.766,174.245 217.5,176.5C 211.104,176.622 204.771,177.289 198.5,178.5C 198.461,181.089 199.461,183.089 201.5,184.5C 199.297,185.052 198.464,186.385 199,188.5C 202.073,189.858 205.24,191.025 208.5,192C 216.502,191.503 224.502,190.669 232.5,189.5C 232.666,194.511 232.499,199.511 232,204.5C 230.698,205.085 229.531,205.751 228.5,206.5C 220.281,208.314 211.947,209.48 203.5,210C 198.302,212.66 198.302,215.16 203.5,217.5C 202.602,218.158 201.602,218.824 200.5,219.5C 200.709,220.086 201.043,220.586 201.5,221C 211.781,224.162 222.114,224.328 232.5,221.5C 232.829,227.206 232.495,232.872 231.5,238.5C 217.006,241.791 202.339,243.791 187.5,244.5C 187.518,215.464 188.518,186.464 190.5,157.5C 204.184,157.122 217.851,156.455 231.5,155.5 Z"/></g>
<g><path style="opacity:0.996" fill="#456e3c" d="M 217.5,176.5 C 221.766,174.245 226.432,173.245 231.5,173.5C 231.5,167.5 231.5,161.5 231.5,155.5C 231.5,153.833 231.5,152.167 231.5,150.5C 223.809,150.403 216.142,150.737 208.5,151.5C 216.268,149.793 224.268,148.793 232.5,148.5C 232.5,157.167 232.5,165.833 232.5,174.5C 227.484,175.058 222.484,175.725 217.5,176.5 Z"/></g>
<g><path style="opacity:0.996" fill="#3c403b" d="M 280.5,172.5 C 281.752,174.339 281.752,176.172 280.5,178C 269.598,181.102 258.598,183.602 247.5,185.5C 247.5,183.833 247.5,182.167 247.5,180.5C 247.611,179.883 247.944,179.383 248.5,179C 259.365,177.58 270.031,175.413 280.5,172.5 Z"/></g>
<g><path style="opacity:0.996" fill="#3a5934" d="M 228.5,206.5 C 229.531,205.751 230.698,205.085 232,204.5C 232.499,199.511 232.666,194.511 232.5,189.5C 232.5,187.833 232.5,186.167 232.5,184.5C 226.426,185.068 220.426,186.068 214.5,187.5C 212.955,187.489 211.622,187.156 210.5,186.5C 218.087,185.035 225.754,184.035 233.5,183.5C 233.666,190.841 233.5,198.174 233,205.5C 231.644,206.38 230.144,206.714 228.5,206.5 Z"/></g>
<g><path style="opacity:0.996" fill="#3e3f3d" d="M 201.5,184.5 C 204.5,185.167 207.5,185.833 210.5,186.5C 211.622,187.156 212.955,187.489 214.5,187.5C 220.426,186.068 226.426,185.068 232.5,184.5C 232.5,186.167 232.5,187.833 232.5,189.5C 224.502,190.669 216.502,191.503 208.5,192C 205.24,191.025 202.073,189.858 199,188.5C 198.464,186.385 199.297,185.052 201.5,184.5 Z"/></g>
<g><path style="opacity:0.996" fill="#5f7b57" d="M 247.5,180.5 C 247.5,182.167 247.5,183.833 247.5,185.5C 247.5,189.833 247.5,194.167 247.5,198.5C 250.86,198.384 254.193,198.051 257.5,197.5C 254.146,199.258 250.479,200.258 246.5,200.5C 246.176,193.646 246.509,186.979 247.5,180.5 Z"/></g>
<g><path style="opacity:0.251" fill="#d3d2cf" d="M 35.5,195.5 C 36.1652,198.817 36.4986,202.317 36.5,206C 36.7189,210.853 36.0522,215.519 34.5,220C 37.4824,222.677 37.1491,224.51 33.5,225.5C 33.8039,224.85 34.1373,224.183 34.5,223.5C 32.9884,222.751 31.9884,221.584 31.5,220C 32.6512,218.177 33.8179,216.344 35,214.5C 35.4995,208.175 35.6662,201.842 35.5,195.5 Z"/></g>
<g><path style="opacity:0.996" fill="#5a7153" d="M 168.5,142.5 C 172.283,147.424 174.45,153.09 175,159.5C 175.829,178.005 175.662,196.338 174.5,214.5C 174.667,196.83 174.5,179.164 174,161.5C 171.558,155.3 169.725,148.966 168.5,142.5 Z"/></g>
<g><path style="opacity:0.996" fill="#3b413a" d="M 279.5,203.5 C 281.044,206.629 280.044,208.795 276.5,210C 266.545,212.821 256.545,215.321 246.5,217.5C 246.5,215.5 246.5,213.5 246.5,211.5C 257.533,208.721 268.533,206.054 279.5,203.5 Z"/></g>
<g><path style="opacity:0.996" fill="#3c3e3b" d="M 232.5,221.5 C 222.114,224.328 211.781,224.162 201.5,221C 201.043,220.586 200.709,220.086 200.5,219.5C 201.602,218.824 202.602,218.158 203.5,217.5C 213.205,218.697 222.871,218.364 232.5,216.5C 232.5,218.167 232.5,219.833 232.5,221.5 Z"/></g>
<g><path style="opacity:0.98" fill="#bfbdb9" d="M 424.5,176.5 C 425.832,180.264 426.665,184.264 427,188.5C 427.257,200.526 427.924,212.526 429,224.5C 431.097,228.415 432.931,232.415 434.5,236.5C 431.121,233.433 428.454,229.766 426.5,225.5C 425.722,209.164 425.056,192.83 424.5,176.5 Z"/></g>
<g><path style="opacity:0.104" fill="#e8e7e5" d="M 33.5,225.5 C 30.7114,231.986 31.0447,238.319 34.5,244.5C 31.718,241.668 30.3847,238.168 30.5,234C 30.2445,230.592 31.2445,227.759 33.5,225.5 Z"/></g>
<g><path style="opacity:0.996" fill="#3d413c" d="M 312.5,254.5 C 312.649,255.552 312.483,256.552 312,257.5C 310.833,255 309.667,252.5 308.5,250C 298.806,246.586 288.806,245.586 278.5,247C 247.98,249.574 217.98,254.908 188.5,263C 185.958,265.711 183.291,268.211 180.5,270.5C 173.582,265.812 170.249,259.146 170.5,250.5C 171.932,254.8 174.098,258.8 177,262.5C 177.804,263.804 178.971,264.471 180.5,264.5C 182.913,262.611 185.246,260.444 187.5,258C 189.087,257.138 190.754,256.471 192.5,256C 209.619,252.215 226.786,248.715 244,245.5C 262.723,242.373 281.556,240.873 300.5,241C 307.942,242.601 311.942,247.101 312.5,254.5 Z"/></g>
<g><path style="opacity:0.247" fill="#dad9d7" d="M 436.5,240.5 C 437.966,243.059 438.966,245.892 439.5,249C 439.343,251.675 438.343,253.841 436.5,255.5C 437.752,250.509 437.752,245.509 436.5,240.5 Z"/></g>
<g><path style="opacity:0.995" fill="#121211" d="M 36.5,249.5 C 37.3764,249.369 38.0431,249.702 38.5,250.5C 39.1936,253.088 40.3602,255.421 42,257.5C 42.7815,272.811 40.7815,272.811 36,257.5C 35.2782,254.739 35.4448,252.073 36.5,249.5 Z"/></g>
<g><path style="opacity:0.996" fill="#3f483d" d="M 338.5,245.5 C 338.66,247.199 338.494,248.866 338,250.5C 335.696,253.298 333.862,256.298 332.5,259.5C 333.224,256.157 334.057,252.824 335,249.5C 335.66,247.676 336.827,246.343 338.5,245.5 Z"/></g>
<g><path style="opacity:0.996" fill="#316e22" d="M 251.5,266.5 C 261.829,268.327 270.662,272.993 278,280.5C 280.08,285.618 280.913,290.951 280.5,296.5C 279.126,298.913 277.126,300.579 274.5,301.5C 272.519,301.563 270.852,300.896 269.5,299.5C 260.861,289.893 254.861,278.893 251.5,266.5 Z"/></g>
<g><path style="opacity:0.996" fill="#336f25" d="M 158.5,298.5 C 156.596,309.04 152.262,318.54 145.5,327C 143.833,327.667 142.167,327.667 140.5,327C 138.7,325.188 137.033,323.355 135.5,321.5C 135.334,317.154 135.501,312.821 136,308.5C 138.781,301.493 141.947,294.66 145.5,288C 146.101,282.748 147.101,277.582 148.5,272.5C 149.451,271.674 150.451,271.508 151.5,272C 153.727,274.564 155.561,277.397 157,280.5C 157.591,286.498 158.091,292.498 158.5,298.5 Z"/></g>
<g><path style="opacity:0.996" fill="#326f23" d="M 233.5,296.5 C 231.822,297.747 230.489,299.414 229.5,301.5C 227.5,302.833 225.5,302.833 223.5,301.5C 219.293,293.509 215.293,285.509 211.5,277.5C 211.5,275.833 211.5,274.167 211.5,272.5C 219.935,273.135 226.769,276.802 232,283.5C 233.367,287.7 233.867,292.033 233.5,296.5 Z"/></g>
<g><path style="opacity:0.996" fill="#4b6b44" d="M 332.5,260.5 C 331.88,272.389 330.546,284.056 328.5,295.5C 329.12,283.608 330.454,271.942 332.5,260.5 Z"/></g>
<g><path style="opacity:0.996" fill="#336f25" d="M 195.5,304.5 C 193.985,309.497 190.651,311.33 185.5,310C 183.623,307.749 182.123,305.249 181,302.5C 180.307,297.477 178.807,292.811 176.5,288.5C 176.211,284.894 176.544,281.394 177.5,278C 185.358,279.84 190.858,284.674 194,292.5C 195.156,296.418 195.656,300.418 195.5,304.5 Z"/></g>
<g><path style="opacity:0.996" fill="#434741" d="M 251.5,266.5 C 254.861,278.893 260.861,289.893 269.5,299.5C 270.852,300.896 272.519,301.563 274.5,301.5C 277.126,300.579 279.126,298.913 280.5,296.5C 279.833,300.167 279.167,303.833 278.5,307.5C 276.143,307.663 273.81,307.497 271.5,307C 267.935,303.773 264.768,300.273 262,296.5C 258.333,289.5 254.667,282.5 251,275.5C 250.7,272.486 250.867,269.486 251.5,266.5 Z"/></g>
<g><path style="opacity:0.996" fill="#424740" d="M 211.5,277.5 C 215.293,285.509 219.293,293.509 223.5,301.5C 225.5,302.833 227.5,302.833 229.5,301.5C 230.489,299.414 231.822,297.747 233.5,296.5C 233.581,300.673 232.248,304.339 229.5,307.5C 227.926,308.631 226.259,308.798 224.5,308C 217.141,299.08 212.808,288.913 211.5,277.5 Z"/></g>
<g><path style="opacity:0.996" fill="#434841" d="M 176.5,288.5 C 178.807,292.811 180.307,297.477 181,302.5C 182.123,305.249 183.623,307.749 185.5,310C 190.651,311.33 193.985,309.497 195.5,304.5C 195.594,308.917 194.261,312.75 191.5,316C 188.044,317.123 185.21,316.29 183,313.5C 179.768,305.433 177.601,297.1 176.5,288.5 Z"/></g>
<g><path style="opacity:0.914" fill="#d9d7d5" d="M 39.5,270.5 C 41.0744,270.937 42.2411,271.937 43,273.5C 43.5287,290.29 45.0287,306.957 47.5,323.5C 43.8296,307.171 41.6629,290.505 41,273.5C 40.4867,272.473 39.9867,271.473 39.5,270.5 Z"/></g>
<g><path style="opacity:0.996" fill="#454943" d="M 158.5,298.5 C 158.428,304.601 157.594,310.601 156,316.5C 153.171,322.16 149.838,327.494 146,332.5C 145.107,333.081 144.107,333.415 143,333.5C 137.299,331.625 134.799,327.625 135.5,321.5C 137.033,323.355 138.7,325.188 140.5,327C 142.167,327.667 143.833,327.667 145.5,327C 152.262,318.54 156.596,309.04 158.5,298.5 Z"/></g>
<g><path style="opacity:0.997" fill="#080808" d="M 429.5,296.5 C 429.78,301.314 429.114,305.98 427.5,310.5C 418.089,329.246 408.589,347.913 399,366.5C 398.503,368.81 398.337,371.143 398.5,373.5C 395.107,373.062 392.107,373.895 389.5,376C 384.867,381.635 379.867,386.968 374.5,392C 361.36,402.404 347.693,412.071 333.5,421C 327.865,425.633 322.532,430.633 317.5,436C 316.667,436.167 315.833,436.333 315,436.5C 313.158,434.84 310.991,433.84 308.5,433.5C 308.567,434.959 308.234,436.292 307.5,437.5C 303.695,438.267 299.861,438.933 296,439.5C 287.672,437.159 279.172,436.159 270.5,436.5C 260.321,437.002 250.154,437.669 240,438.5C 232.008,438.735 224.175,437.735 216.5,435.5C 210.436,437.694 204.436,440.194 198.5,443C 190.058,445.256 181.725,444.922 173.5,442C 168.518,438.951 163.184,436.784 157.5,435.5C 150.18,430.073 142.18,425.74 133.5,422.5C 132.267,420.204 130.267,418.87 127.5,418.5C 120.9,413.735 115.067,408.069 110,401.5C 111.252,395.087 108.752,391.254 102.5,390C 99.5184,389.502 96.5184,389.335 93.5,389.5C 92.6993,387.958 92.366,386.292 92.5,384.5C 90.5,384.5 88.5,384.5 86.5,384.5C 85.9493,381.733 84.6159,379.4 82.5,377.5C 73.9175,372.8 66.4175,366.8 60,359.5C 60.5948,357.65 61.0948,355.65 61.5,353.5C 57.7849,353.787 55.4515,352.12 54.5,348.5C 53.7089,345.211 53.0422,341.878 52.5,338.5C 52.3601,336.97 51.6935,335.97 50.5,335.5C 50.2148,333.712 50.5481,332.045 51.5,330.5C 53.5,332.167 55.5,333.833 57.5,335.5C 56.5153,337.098 56.3486,338.765 57,340.5C 63.0293,347.876 70.196,353.709 78.5,358C 80.8745,360.039 82.8745,362.372 84.5,365C 86.1341,365.494 87.8008,365.66 89.5,365.5C 89.5,367.167 89.5,368.833 89.5,370.5C 95.1621,370.199 100.495,371.366 105.5,374C 106.19,377.947 107.356,381.78 109,385.5C 114.5,390.333 120,395.167 125.5,400C 140.912,409.374 156.912,417.707 173.5,425C 180.11,426.441 186.776,426.774 193.5,426C 201.017,423.329 208.517,420.496 216,417.5C 219.862,418.206 223.695,419.039 227.5,420C 242.046,420.671 256.546,420.171 271,418.5C 280.125,418.41 289.125,419.41 298,421.5C 303.424,421.527 307.924,419.527 311.5,415.5C 313.658,418.33 316.324,418.997 319.5,417.5C 321.984,414.516 324.65,411.682 327.5,409C 343.833,397.333 360.167,385.667 376.5,374C 382.505,368.328 388.171,362.328 393.5,356C 396.014,354.748 398.68,354.248 401.5,354.5C 401.187,351.753 401.52,349.086 402.5,346.5C 410.385,330.423 418.552,314.423 427,298.5C 427.708,297.619 428.542,296.953 429.5,296.5 Z"/></g>
<g><path style="opacity:0.992" fill="#464646" d="M 50.5,335.5 C 51.6935,335.97 52.3601,336.97 52.5,338.5C 53.0422,341.878 53.7089,345.211 54.5,348.5C 53.0652,347.087 52.0652,345.42 51.5,343.5C 51.4249,340.794 51.0916,338.127 50.5,335.5 Z"/></g>
<g><path style="opacity:0.996" fill="#40453e" d="M 328.5,296.5 C 327.277,318.184 319.61,337.184 305.5,353.5C 299.939,358.368 293.772,361.368 287,362.5C 285.823,354.586 283.156,347.253 279,340.5C 273.213,333.568 267.713,326.568 262.5,319.5C 263.5,319.5 264.5,319.5 265.5,319.5C 277.182,329.527 284.182,342.194 286.5,357.5C 288.989,357.702 291.323,357.202 293.5,356C 296.833,354 300.167,352 303.5,350C 317.718,334.816 326.051,316.982 328.5,296.5 Z"/></g>
<g><path style="opacity:0.408" fill="#b9b9b9" d="M 51.5,343.5 C 52.0652,345.42 53.0652,347.087 54.5,348.5C 55.4515,352.12 57.7849,353.787 61.5,353.5C 61.0948,355.65 60.5948,357.65 60,359.5C 66.4175,366.8 73.9175,372.8 82.5,377.5C 84.6159,379.4 85.9493,381.733 86.5,384.5C 87.9187,385.451 89.5853,385.784 91.5,385.5C 91.7373,386.791 91.404,387.791 90.5,388.5C 90.2942,386.451 89.4609,386.117 88,387.5C 85.1366,385.463 82.9699,382.796 81.5,379.5C 72.2391,373.903 64.2391,366.903 57.5,358.5C 57.9312,357.707 58.2645,356.873 58.5,356C 54.1898,352.874 51.8565,348.708 51.5,343.5 Z"/></g>
<g><path style="opacity:0.369" fill="#7e7e7e" d="M 86.5,384.5 C 88.5,384.5 90.5,384.5 92.5,384.5C 92.366,386.292 92.6993,387.958 93.5,389.5C 92.8333,389.5 92.1667,389.5 91.5,389.5C 90.8333,389.5 90.5,389.167 90.5,388.5C 91.404,387.791 91.7373,386.791 91.5,385.5C 89.5853,385.784 87.9187,385.451 86.5,384.5 Z"/></g>
<g><path style="opacity:0.078" fill="#aeaeae" d="M 91.5,389.5 C 92.1667,389.5 92.8333,389.5 93.5,389.5C 96.5184,389.335 99.5184,389.502 102.5,390C 108.752,391.254 111.252,395.087 110,401.5C 115.067,408.069 120.9,413.735 127.5,418.5C 119.285,414.455 112.785,408.455 108,400.5C 107.503,398.19 107.337,395.857 107.5,393.5C 101.949,392.489 96.6156,391.156 91.5,389.5 Z"/></g>
<g><path style="opacity:0.282" fill="#b1b1b1" d="M 434.5,274.5 C 434.665,277.85 434.498,281.183 434,284.5C 431.494,294.382 429.494,304.382 428,314.5C 419.015,331.802 410.015,349.135 401,366.5C 400.667,369.5 400.333,372.5 400,375.5C 397.958,375.818 395.791,375.985 393.5,376C 387.395,381.194 381.728,386.86 376.5,393C 361.519,404.49 346.186,415.49 330.5,426C 326.249,431.087 321.249,435.253 315.5,438.5C 312.888,436.823 310.222,436.49 307.5,437.5C 308.234,436.292 308.567,434.959 308.5,433.5C 310.991,433.84 313.158,434.84 315,436.5C 315.833,436.333 316.667,436.167 317.5,436C 322.532,430.633 327.865,425.633 333.5,421C 347.693,412.071 361.36,402.404 374.5,392C 379.867,386.968 384.867,381.635 389.5,376C 392.107,373.895 395.107,373.062 398.5,373.5C 398.337,371.143 398.503,368.81 399,366.5C 408.589,347.913 418.089,329.246 427.5,310.5C 429.114,305.98 429.78,301.314 429.5,296.5C 430.955,288.855 432.622,281.522 434.5,274.5 Z"/></g>
<g><path style="opacity:0.467" fill="#999999" d="M 127.5,418.5 C 130.267,418.87 132.267,420.204 133.5,422.5C 130.802,422.155 128.802,420.822 127.5,418.5 Z"/></g>
<g><path style="opacity:0.412" fill="#a7a7a7" d="M 133.5,422.5 C 142.18,425.74 150.18,430.073 157.5,435.5C 152.299,433.902 147.299,431.735 142.5,429C 139.334,426.916 136.334,424.75 133.5,422.5 Z"/></g>
<g><path style="opacity:0.384" fill="#b6b6b6" d="M 157.5,435.5 C 163.184,436.784 168.518,438.951 173.5,442C 181.725,444.922 190.058,445.256 198.5,443C 204.436,440.194 210.436,437.694 216.5,435.5C 224.175,437.735 232.008,438.735 240,438.5C 250.154,437.669 260.321,437.002 270.5,436.5C 279.172,436.159 287.672,437.159 296,439.5C 299.861,438.933 303.695,438.267 307.5,437.5C 305.116,439.971 302.116,441.304 298.5,441.5C 290.036,439.926 281.536,438.592 273,437.5C 258.25,439.948 243.416,440.782 228.5,440C 225.044,438.959 221.544,438.125 218,437.5C 211.504,439.824 205.004,442.324 198.5,445C 191.176,446.87 183.842,446.87 176.5,445C 169.754,442.294 163.421,439.127 157.5,435.5 Z"/></g>
</svg>
