<?xml version="1.0" encoding="UTF-8"?>
<!DOCTYPE svg PUBLIC "-//W3C//DTD SVG 1.1//EN" "http://www.w3.org/Graphics/SVG/1.1/DTD/svg11.dtd">
<svg xmlns="http://www.w3.org/2000/svg" version="1.1" width="468px" height="467px" style="shape-rendering:geometricPrecision; text-rendering:geometricPrecision; image-rendering:optimizeQuality; fill-rule:evenodd; clip-rule:evenodd" xmlns:xlink="http://www.w3.org/1999/xlink">
<g><path style="opacity:0.996" fill="#97948e" d="M 312.5,62.5 C 312.953,63.4584 313.619,64.2917 314.5,65C 330.676,71.5151 345.343,80.3484 358.5,91.5C 360.56,96.232 361.893,101.232 362.5,106.5C 367.553,109.031 372.886,110.364 378.5,110.5C 377.604,115.777 379.604,117.61 384.5,116C 389.802,121.981 396.135,126.481 403.5,129.5C 406.497,132.505 409.163,135.838 411.5,139.5C 412.681,141.135 412.681,142.802 411.5,144.5C 413.73,145.783 416.063,146.783 418.5,147.5C 417.89,152.655 419.056,157.322 422,161.5C 424.566,179.744 426.066,198.077 426.5,216.5C 427.172,217.949 427.839,219.282 428.5,220.5C 430.873,226.249 433.54,231.916 436.5,237.5C 438.488,242.065 438.821,246.731 437.5,251.5C 435.693,252.395 434.36,253.728 433.5,255.5C 433.747,256.713 434.414,257.38 435.5,257.5C 436.833,259.167 436.833,260.833 435.5,262.5C 435.5,265.167 435.5,267.833 435.5,270.5C 434.778,270.918 434.278,271.584 434,272.5C 433.879,278.319 433.046,283.986 431.5,289.5C 431.5,289.833 431.5,290.167 431.5,290.5C 430.596,291.209 430.263,292.209 430.5,293.5C 428.554,294.035 427.554,295.368 427.5,297.5C 419.087,313.929 410.587,330.262 402,346.5C 401.505,348.473 401.338,350.473 401.5,352.5C 399.011,352.298 396.677,352.798 394.5,354C 387.446,361.054 380.446,368.054 373.5,375C 360.833,383.667 348.167,392.333 335.5,401C 329.865,405.633 324.532,410.633 319.5,416C 316.51,416.76 314.01,415.927 312,413.5C 308.299,417.267 303.799,419.267 298.5,419.5C 293.283,418.94 288.283,417.94 283.5,416.5C 263.316,416.374 242.983,416.374 222.5,416.5C 222.167,416.5 221.833,416.5 221.5,416.5C 220.688,415.007 219.355,414.34 217.5,414.5C 215.645,414.34 214.312,415.007 213.5,416.5C 212.329,417.345 210.995,418.011 209.5,418.5C 206.053,419.083 203.053,420.416 200.5,422.5C 191.888,424.9 183.222,425.067 174.5,423C 171.102,421.643 168.102,419.81 165.5,417.5C 160.355,414.426 155.022,411.593 149.5,409C 148.207,408.51 146.873,408.343 145.5,408.5C 131.716,402.277 119.716,393.611 109.5,382.5C 108.181,378.916 107.181,375.25 106.5,371.5C 101.45,369.049 96.117,368.049 90.5,368.5C 90.5,366.833 90.5,365.167 90.5,363.5C 88.396,363.799 86.396,363.466 84.5,362.5C 83.1966,360.063 81.5299,357.896 79.5,356C 71.1149,351.444 63.7815,345.61 57.5,338.5C 57.3573,336.738 57.6906,335.071 58.5,333.5C 55.0604,331.232 52.5604,328.232 51,324.5C 50.4334,328.417 50.9334,332.083 52.5,335.5C 52.5079,338.545 52.8413,341.545 53.5,344.5C 51.6441,339.772 50.3107,334.772 49.5,329.5C 46.5759,310.334 44.7425,291.001 44,271.5C 43.6232,270.058 42.7899,269.058 41.5,268.5C 39.2495,265.001 37.2495,261.335 35.5,257.5C 36.1667,257.833 36.8333,258.167 37.5,258.5C 38.8709,261.567 40.5376,264.567 42.5,267.5C 44.3115,260.013 42.8115,253.346 38,247.5C 36.9701,247.836 36.4701,248.503 36.5,249.5C 36.1667,249.5 35.8333,249.5 35.5,249.5C 35.2322,247.901 35.5655,246.568 36.5,245.5C 37.0967,245.265 37.4301,244.765 37.5,244C 35.0057,240.345 33.339,236.345 32.5,232C 32.8641,229.079 33.5308,226.246 34.5,223.5C 36.3442,222.796 36.8442,221.463 36,219.5C 35.3292,218.748 34.4959,218.414 33.5,218.5C 34.7311,217.282 35.8978,215.949 37,214.5C 37.3333,207.833 37.6667,201.167 38,194.5C 39.6581,189.375 41.4915,184.375 43.5,179.5C 48.9867,169.864 54.4867,160.197 60,150.5C 61.2952,146.785 62.4619,143.118 63.5,139.5C 63.5,139.167 63.5,138.833 63.5,138.5C 67.9091,135.345 69.9091,131.012 69.5,125.5C 75.642,126.022 79.642,123.355 81.5,117.5C 89.2798,107.723 98.6131,99.7226 109.5,93.5C 113.44,91.8713 116.773,89.538 119.5,86.5C 126.861,80.4792 134.528,74.8126 142.5,69.5C 145.899,67.6117 148.899,65.1117 151.5,62C 152.833,61.3333 154.167,61.3333 155.5,62C 158.971,65.2846 161.304,64.4512 162.5,59.5C 162.833,59.5 163.167,59.5 163.5,59.5C 175.335,60.1111 187.168,60.7778 199,61.5C 209.862,61.3032 220.695,60.6365 231.5,59.5C 238.759,59.8805 245.926,60.8805 253,62.5C 257.003,62.2349 260.17,60.5682 262.5,57.5C 264.438,55.8372 266.772,55.1706 269.5,55.5C 277.472,54.4683 285.472,54.3017 293.5,55C 299.552,58.2606 305.885,60.7606 312.5,62.5 Z"/></g>
<g><path style="opacity:0.702" fill="#bebcb7" d="M 312.5,62.5 C 305.885,60.7606 299.552,58.2606 293.5,55C 285.472,54.3017 277.472,54.4683 269.5,55.5C 277.811,50.96 286.478,50.46 295.5,54C 301.736,56.0027 307.403,58.836 312.5,62.5 Z"/></g>
<g><path style="opacity:0.133" fill="#c1c0bc" d="M 262.5,57.5 C 260.17,60.5682 257.003,62.2349 253,62.5C 245.926,60.8805 238.759,59.8805 231.5,59.5C 220.695,60.6365 209.862,61.3032 199,61.5C 187.168,60.7778 175.335,60.1111 163.5,59.5C 165.634,57.9666 168.134,57.2999 171,57.5C 191.086,60.8857 211.252,61.219 231.5,58.5C 238.826,58.478 245.992,59.478 253,61.5C 256.266,60.2496 259.432,58.9163 262.5,57.5 Z"/></g>
<g><path style="opacity:0.235" fill="#d0cec9" d="M 162.5,59.5 C 161.304,64.4512 158.971,65.2846 155.5,62C 154.167,61.3333 152.833,61.3333 151.5,62C 148.899,65.1117 145.899,67.6117 142.5,69.5C 145.296,66.2026 148.296,63.0359 151.5,60C 154.084,59.9182 156.417,60.7515 158.5,62.5C 159.852,61.4756 161.185,60.4756 162.5,59.5 Z"/></g>
<g><path style="opacity:0.184" fill="#cbc9c5" d="M 312.5,62.5 C 326.7,67.5976 339.7,74.7642 351.5,84C 354.039,86.3697 356.372,88.8697 358.5,91.5C 345.343,80.3484 330.676,71.5151 314.5,65C 313.619,64.2917 312.953,63.4584 312.5,62.5 Z"/></g>
<g><path style="opacity:0.224" fill="#c8c7c4" d="M 119.5,86.5 C 116.773,89.538 113.44,91.8713 109.5,93.5C 112.275,90.3954 115.608,88.0621 119.5,86.5 Z"/></g>
<g><path style="opacity:0.996" fill="#bf2b1d" d="M 303.5,118.5 C 289.16,128.693 275.493,139.86 262.5,152C 260.975,153.009 259.308,153.509 257.5,153.5C 256.402,152.399 256.235,151.066 257,149.5C 262.599,140.633 267.932,131.633 273,122.5C 274.025,117.331 274.859,112.164 275.5,107C 285.371,106.26 294.538,108.426 303,113.5C 303.494,115.134 303.66,116.801 303.5,118.5 Z"/></g>
<g><path style="opacity:0.992" fill="#b3b1ac" d="M 358.5,91.5 C 363.221,94.7313 365.554,99.2313 365.5,105C 370.241,107.216 375.241,108.55 380.5,109C 381.337,110.011 381.67,111.178 381.5,112.5C 383.199,112.34 384.866,112.506 386.5,113C 388.069,116.572 390.402,119.572 393.5,122C 397.3,123.979 400.634,126.479 403.5,129.5C 396.135,126.481 389.802,121.981 384.5,116C 379.604,117.61 377.604,115.777 378.5,110.5C 372.886,110.364 367.553,109.031 362.5,106.5C 361.893,101.232 360.56,96.232 358.5,91.5 Z"/></g>
<g><path style="opacity:0.996" fill="#483d3b" d="M 303.5,118.5 C 303.799,120.604 303.466,122.604 302.5,124.5C 288.386,134.785 275.052,145.952 262.5,158C 260.655,159.128 258.655,159.628 256.5,159.5C 256.517,157.435 256.85,155.435 257.5,153.5C 259.308,153.509 260.975,153.009 262.5,152C 275.493,139.86 289.16,128.693 303.5,118.5 Z"/></g>
<g><path style="opacity:0.996" fill="#bf2b1c" d="M 229.5,141.5 C 229.763,145.6 229.43,149.6 228.5,153.5C 227.833,154.167 227.167,154.833 226.5,155.5C 223.215,155.79 220.215,155.123 217.5,153.5C 214.87,151.372 212.37,149.039 210,146.5C 206.303,141.315 202.47,136.315 198.5,131.5C 197.659,129.621 197.325,127.621 197.5,125.5C 211.309,125.071 221.976,130.404 229.5,141.5 Z"/></g>
<g><path style="opacity:0.325" fill="#c0beba" d="M 81.5,117.5 C 79.642,123.355 75.642,126.022 69.5,125.5C 69.9091,131.012 67.9091,135.345 63.5,138.5C 66.4751,134.405 67.9751,129.739 68,124.5C 70.405,123.726 72.905,123.226 75.5,123C 77.3702,120.96 79.3702,119.127 81.5,117.5 Z"/></g>
<g><path style="opacity:0.929" fill="#c6c4c2" d="M 403.5,129.5 C 408.564,132.23 412.231,136.23 414.5,141.5C 414.392,142.442 414.059,143.275 413.5,144C 415.584,144.697 417.251,145.864 418.5,147.5C 416.063,146.783 413.73,145.783 411.5,144.5C 412.681,142.802 412.681,141.135 411.5,139.5C 409.163,135.838 406.497,132.505 403.5,129.5 Z"/></g>
<g><path style="opacity:0.996" fill="#473f3e" d="M 198.5,131.5 C 202.47,136.315 206.303,141.315 210,146.5C 212.37,149.039 214.87,151.372 217.5,153.5C 219.994,157.546 222.994,158.213 226.5,155.5C 227.167,154.833 227.833,154.167 228.5,153.5C 228.5,154.833 228.5,156.167 228.5,157.5C 227.577,163.267 224.577,164.767 219.5,162C 212.333,153.5 205.167,145 198,136.5C 197.36,134.735 197.527,133.068 198.5,131.5 Z"/></g>
<g><path style="opacity:0.996" fill="#a65c55" d="M 347.5,151.5 C 339.445,151.23 331.445,151.563 323.5,152.5C 323.611,151.883 323.944,151.383 324.5,151C 332.345,150.178 340.011,150.344 347.5,151.5 Z"/></g>
<g><path style="opacity:0.996" fill="#bf2a1c" d="M 347.5,151.5 C 355.942,153.085 363.108,157.085 369,163.5C 369.49,164.793 369.657,166.127 369.5,167.5C 367.049,168.894 364.382,169.728 361.5,170C 355.319,170.819 349.319,170.653 343.5,169.5C 335.674,168.834 327.674,168.5 319.5,168.5C 308.618,168.276 297.951,168.942 287.5,170.5C 282.833,170.5 278.167,170.5 273.5,170.5C 263.633,170.948 253.966,171.948 244.5,173.5C 239.821,173.334 235.155,173.501 230.5,174C 229.584,174.278 228.918,174.778 228.5,175.5C 227.5,175.5 226.5,175.5 225.5,175.5C 221.511,175.116 217.845,175.783 214.5,177.5C 209.453,177.337 204.453,177.671 199.5,178.5C 192.234,178.547 185.234,179.547 178.5,181.5C 171.167,182.833 163.833,184.167 156.5,185.5C 153.848,185.41 151.515,186.076 149.5,187.5C 149.167,187.5 148.833,187.5 148.5,187.5C 145.482,187.665 142.482,187.498 139.5,187C 136.639,185.36 133.639,184.193 130.5,183.5C 128.5,182.5 126.5,181.5 124.5,180.5C 123.067,178.442 122.4,176.108 122.5,173.5C 131.833,173.5 141.167,173.5 150.5,173.5C 157.7,173.422 164.7,172.755 171.5,171.5C 173.621,171.675 175.621,171.341 177.5,170.5C 184.52,170.498 191.52,170.165 198.5,169.5C 208.752,168.986 218.752,167.653 228.5,165.5C 229.5,165.5 230.5,165.5 231.5,165.5C 236.731,165.556 241.731,164.889 246.5,163.5C 263.919,161.823 281.252,159.489 298.5,156.5C 303.196,156.329 307.863,155.829 312.5,155C 313.416,154.722 314.082,154.222 314.5,153.5C 317.287,152.523 320.287,152.19 323.5,152.5C 331.445,151.563 339.445,151.23 347.5,151.5 Z"/></g>
<g><path style="opacity:0.996" fill="#942920" d="M 217.5,153.5 C 220.215,155.123 223.215,155.79 226.5,155.5C 222.994,158.213 219.994,157.546 217.5,153.5 Z"/></g>
<g><path style="opacity:0.996" fill="#795f5a" d="M 229.5,141.5 C 230.648,145.981 230.815,150.648 230,155.5C 229.722,156.416 229.222,157.082 228.5,157.5C 228.5,156.167 228.5,154.833 228.5,153.5C 229.43,149.6 229.763,145.6 229.5,141.5 Z"/></g>
<g><path style="opacity:0.996" fill="#a95c53" d="M 314.5,153.5 C 314.082,154.222 313.416,154.722 312.5,155C 307.863,155.829 303.196,156.329 298.5,156.5C 303.63,155.087 308.963,154.087 314.5,153.5 Z"/></g>
<g><path style="opacity:0.996" fill="#ad5047" d="M 246.5,163.5 C 241.731,164.889 236.731,165.556 231.5,165.5C 236.269,164.111 241.269,163.444 246.5,163.5 Z"/></g>
<g><path style="opacity:0.996" fill="#b24137" d="M 228.5,165.5 C 218.752,167.653 208.752,168.986 198.5,169.5C 198.5,169.167 198.5,168.833 198.5,168.5C 208.457,167.195 218.457,166.195 228.5,165.5 Z"/></g>
<g><path style="opacity:0.996" fill="#762a25" d="M 343.5,169.5 C 324.818,169.295 306.152,169.628 287.5,170.5C 297.951,168.942 308.618,168.276 319.5,168.5C 327.674,168.5 335.674,168.834 343.5,169.5 Z"/></g>
<g><path style="opacity:0.996" fill="#a26f67" d="M 198.5,168.5 C 198.5,168.833 198.5,169.167 198.5,169.5C 191.52,170.165 184.52,170.498 177.5,170.5C 184.317,169.435 191.317,168.768 198.5,168.5 Z"/></g>
<g><path style="opacity:0.996" fill="#413d3c" d="M 369.5,167.5 C 369.5,169.833 369.5,172.167 369.5,174.5C 360.917,176.765 352.251,177.098 343.5,175.5C 295.857,174.235 248.523,177.235 201.5,184.5C 195.498,184.909 189.498,185.409 183.5,186C 180.478,186.098 177.811,186.932 175.5,188.5C 166.159,188.997 157.159,190.83 148.5,194C 138.059,195.367 129.559,191.867 123,183.5C 122.415,182.002 122.915,181.002 124.5,180.5C 126.5,181.5 128.5,182.5 130.5,183.5C 135.793,188.225 141.793,189.558 148.5,187.5C 148.833,187.5 149.167,187.5 149.5,187.5C 152.152,187.59 154.485,186.924 156.5,185.5C 163.833,184.167 171.167,182.833 178.5,181.5C 185.739,181.26 192.739,180.26 199.5,178.5C 204.453,177.671 209.453,177.337 214.5,177.5C 218.387,177.354 222.054,176.687 225.5,175.5C 226.5,175.5 227.5,175.5 228.5,175.5C 233.998,175.048 239.331,174.381 244.5,173.5C 254.476,174.082 264.143,173.082 273.5,170.5C 278.167,170.5 282.833,170.5 287.5,170.5C 306.152,169.628 324.818,169.295 343.5,169.5C 349.319,170.653 355.319,170.819 361.5,170C 364.382,169.728 367.049,168.894 369.5,167.5 Z"/></g>
<g><path style="opacity:0.584" fill="#c4c1be" d="M 63.5,139.5 C 62.4619,143.118 61.2952,146.785 60,150.5C 54.4867,160.197 48.9867,169.864 43.5,179.5C 49.6034,165.837 56.2701,152.504 63.5,139.5 Z"/></g>
<g><path style="opacity:0.996" fill="#a95c54" d="M 171.5,171.5 C 164.7,172.755 157.7,173.422 150.5,173.5C 157.253,171.779 164.253,171.112 171.5,171.5 Z"/></g>
<g><path style="opacity:0.996" fill="#5f302d" d="M 273.5,170.5 C 264.143,173.082 254.476,174.082 244.5,173.5C 253.966,171.948 263.633,170.948 273.5,170.5 Z"/></g>
<g><path style="opacity:0.996" fill="#832922" d="M 244.5,173.5 C 239.331,174.381 233.998,175.048 228.5,175.5C 228.918,174.778 229.584,174.278 230.5,174C 235.155,173.501 239.821,173.334 244.5,173.5 Z"/></g>
<g><path style="opacity:0.996" fill="#752b26" d="M 225.5,175.5 C 222.054,176.687 218.387,177.354 214.5,177.5C 217.845,175.783 221.511,175.116 225.5,175.5 Z"/></g>
<g><path style="opacity:0.996" fill="#7d7b76" d="M 343.5,175.5 C 328.496,175.333 313.496,175.5 298.5,176C 266.069,178.353 233.735,181.186 201.5,184.5C 248.523,177.235 295.857,174.235 343.5,175.5 Z"/></g>
<g><path style="opacity:0.996" fill="#98271e" d="M 199.5,178.5 C 192.739,180.26 185.739,181.26 178.5,181.5C 185.234,179.547 192.234,178.547 199.5,178.5 Z"/></g>
<g><path style="opacity:0.996" fill="#c02a1b" d="M 303.5,183.5 C 305.033,185.245 307.033,186.245 309.5,186.5C 313.76,189.081 316.426,192.748 317.5,197.5C 316.596,198.209 316.263,199.209 316.5,200.5C 315.442,201.6 314.608,202.934 314,204.5C 313.172,221.005 313.338,237.339 314.5,253.5C 314.5,254.167 314.5,254.833 314.5,255.5C 314.413,263.709 315.079,271.709 316.5,279.5C 317.498,294.093 318.165,308.759 318.5,323.5C 317.598,327.755 316.598,332.089 315.5,336.5C 313.755,338.033 312.755,340.033 312.5,342.5C 310.801,344.566 309.468,346.9 308.5,349.5C 306.55,353.929 303.217,355.429 298.5,354C 294.275,347.715 290.442,341.215 287,334.5C 284.055,330.249 280.888,326.249 277.5,322.5C 276.058,321.18 275.392,319.514 275.5,317.5C 277.95,317.298 280.283,317.631 282.5,318.5C 284.515,319.924 286.848,320.59 289.5,320.5C 293.899,322.411 297.399,321.411 300,317.5C 301.76,290.121 301.927,262.787 300.5,235.5C 300.485,226.635 299.818,217.968 298.5,209.5C 298.5,209.167 298.5,208.833 298.5,208.5C 298.664,205.813 298.497,203.146 298,200.5C 295.64,195.76 292.807,191.426 289.5,187.5C 289.5,185.5 289.5,183.5 289.5,181.5C 294.327,181.221 298.993,181.887 303.5,183.5 Z"/></g>
<g><path style="opacity:0.996" fill="#99281f" d="M 130.5,183.5 C 133.639,184.193 136.639,185.36 139.5,187C 142.482,187.498 145.482,187.665 148.5,187.5C 141.793,189.558 135.793,188.225 130.5,183.5 Z"/></g>
<g><path style="opacity:0.996" fill="#a6665e" d="M 303.5,183.5 C 305.967,183.755 307.967,184.755 309.5,186.5C 307.033,186.245 305.033,185.245 303.5,183.5 Z"/></g>
<g><path style="opacity:0.996" fill="#802823" d="M 156.5,185.5 C 154.485,186.924 152.152,187.59 149.5,187.5C 151.515,186.076 153.848,185.41 156.5,185.5 Z"/></g>
<g><path style="opacity:0.996" fill="#5d5c59" d="M 201.5,184.5 C 193.11,186.796 184.443,188.129 175.5,188.5C 177.811,186.932 180.478,186.098 183.5,186C 189.498,185.409 195.498,184.909 201.5,184.5 Z"/></g>
<g><path style="opacity:0.78" fill="#b9b7b2" d="M 418.5,147.5 C 420.595,151.163 422.095,155.163 423,159.5C 426.924,179.618 428.757,199.952 428.5,220.5C 427.839,219.282 427.172,217.949 426.5,216.5C 426.066,198.077 424.566,179.744 422,161.5C 419.056,157.322 417.89,152.655 418.5,147.5 Z"/></g>
<g><path style="opacity:0.996" fill="#b2483c" d="M 223.5,198.5 C 218.562,197.608 213.562,197.274 208.5,197.5C 213.74,194.653 218.74,194.987 223.5,198.5 Z"/></g>
<g><path style="opacity:0.996" fill="#bf2b1c" d="M 208.5,197.5 C 213.562,197.274 218.562,197.608 223.5,198.5C 227.801,200.317 231.801,202.65 235.5,205.5C 235.821,206.817 236.154,208.151 236.5,209.5C 235.02,214.087 233.853,218.754 233,223.5C 232.171,241.005 232.338,258.338 233.5,275.5C 233.5,276.167 233.5,276.833 233.5,277.5C 235.087,291.233 234.754,304.9 232.5,318.5C 229.427,325.63 225.094,331.964 219.5,337.5C 217.272,336.781 215.439,335.448 214,333.5C 210.819,326.489 206.319,320.489 200.5,315.5C 199.19,313.852 197.857,312.186 196.5,310.5C 202.459,310.125 208.459,309.958 214.5,310C 215,309.5 215.5,309 216,308.5C 217.122,303.898 217.622,299.232 217.5,294.5C 218.167,281.004 218.5,267.337 218.5,253.5C 218.499,239.483 217.833,225.817 216.5,212.5C 216.573,210.973 215.906,209.973 214.5,209.5C 213.378,208.844 212.045,208.511 210.5,208.5C 206.148,208.659 202.148,209.659 198.5,211.5C 192.87,212.292 187.203,212.625 181.5,212.5C 181.5,214.833 181.5,217.167 181.5,219.5C 181.5,224.833 181.5,230.167 181.5,235.5C 183.786,235.405 185.786,234.738 187.5,233.5C 194.971,229.376 202.138,229.71 209,234.5C 209.64,236.265 209.473,237.932 208.5,239.5C 205.039,241.091 201.372,241.758 197.5,241.5C 191.794,241.171 186.128,241.505 180.5,242.5C 179.53,250.778 179.197,259.111 179.5,267.5C 180.791,267.737 181.791,267.404 182.5,266.5C 183.492,266.672 184.158,266.338 184.5,265.5C 185.167,265.5 185.833,265.5 186.5,265.5C 191.716,264.031 197.05,263.365 202.5,263.5C 207.607,263.584 209.607,265.917 208.5,270.5C 199.434,274.934 189.768,276.6 179.5,275.5C 178.111,280.269 177.444,285.269 177.5,290.5C 177.5,290.833 177.5,291.167 177.5,291.5C 175.783,294.845 175.116,298.511 175.5,302.5C 175.5,303.5 175.5,304.5 175.5,305.5C 173.926,307.102 173.259,309.102 173.5,311.5C 171.953,316.419 169.62,321.086 166.5,325.5C 164.955,326.452 163.288,326.785 161.5,326.5C 160.735,323.33 159.735,320.33 158.5,317.5C 158.5,316.833 158.5,316.167 158.5,315.5C 158.126,308.262 159.126,301.262 161.5,294.5C 162.117,294.389 162.617,294.056 163,293.5C 163.495,291.527 163.662,289.527 163.5,287.5C 165.23,282.43 166.23,277.097 166.5,271.5C 167.776,269.438 168.61,267.104 169,264.5C 169.5,256.841 169.666,249.174 169.5,241.5C 169.5,235.5 169.5,229.5 169.5,223.5C 169.665,220.15 169.498,216.817 169,213.5C 168.292,212.619 167.458,211.953 166.5,211.5C 166.573,209.973 165.906,208.973 164.5,208.5C 164.232,206.901 164.566,205.568 165.5,204.5C 169.971,204.424 174.304,205.091 178.5,206.5C 183.762,206.137 188.762,205.137 193.5,203.5C 198.413,201.523 203.413,199.523 208.5,197.5 Z"/></g>
<g><path style="opacity:0.996" fill="#573c39" d="M 289.5,187.5 C 292.807,191.426 295.64,195.76 298,200.5C 298.497,203.146 298.664,205.813 298.5,208.5C 296.516,202.873 293.683,197.54 290,192.5C 289.506,190.866 289.34,189.199 289.5,187.5 Z"/></g>
<g><path style="opacity:0.29" fill="#cecdca" d="M 43.5,179.5 C 41.4915,184.375 39.6581,189.375 38,194.5C 37.6667,201.167 37.3333,207.833 37,214.5C 35.8978,215.949 34.7311,217.282 33.5,218.5C 32.4407,216.93 32.9407,215.597 35,214.5C 35.1431,206.771 35.8097,199.105 37,191.5C 38.4182,186.99 40.5849,182.99 43.5,179.5 Z"/></g>
<g><path style="opacity:0.996" fill="#a46e66" d="M 165.5,204.5 C 174.674,204.647 184.007,204.314 193.5,203.5C 188.762,205.137 183.762,206.137 178.5,206.5C 174.304,205.091 169.971,204.424 165.5,204.5 Z"/></g>
<g><path style="opacity:0.996" fill="#b43f34" d="M 259.5,205.5 C 257.833,205.5 256.167,205.5 254.5,205.5C 254.5,207.5 254.5,209.5 254.5,211.5C 254.167,211.5 253.833,211.5 253.5,211.5C 251.66,205.468 253.66,203.468 259.5,205.5 Z"/></g>
<g><path style="opacity:0.996" fill="#c0291b" d="M 259.5,205.5 C 264.063,206.448 268.063,208.448 271.5,211.5C 272.892,213.557 273.559,215.891 273.5,218.5C 272.612,227.811 272.279,237.144 272.5,246.5C 272.666,255.839 272.5,265.173 272,274.5C 271.673,278.629 270.84,282.629 269.5,286.5C 264.604,289.846 261.604,288.513 260.5,282.5C 259.637,276.545 259.303,270.545 259.5,264.5C 259.216,262.585 259.549,260.919 260.5,259.5C 261.659,249.008 261.825,238.341 261,227.5C 260.722,226.584 260.222,225.918 259.5,225.5C 258.62,220.525 256.953,215.859 254.5,211.5C 254.5,209.5 254.5,207.5 254.5,205.5C 256.167,205.5 257.833,205.5 259.5,205.5 Z"/></g>
<g><path style="opacity:0.996" fill="#423b3a" d="M 214.5,209.5 C 215.906,209.973 216.573,210.973 216.5,212.5C 216.649,213.552 216.483,214.552 216,215.5C 214.874,214.056 213.374,213.39 211.5,213.5C 204.132,214.762 197.132,216.428 190.5,218.5C 187.615,218.194 184.948,218.527 182.5,219.5C 182.167,219.5 181.833,219.5 181.5,219.5C 181.5,217.167 181.5,214.833 181.5,212.5C 187.203,212.625 192.87,212.292 198.5,211.5C 203.781,210.444 209.114,209.777 214.5,209.5 Z"/></g>
<g><path style="opacity:0.996" fill="#5f302d" d="M 214.5,209.5 C 209.114,209.777 203.781,210.444 198.5,211.5C 202.148,209.659 206.148,208.659 210.5,208.5C 212.045,208.511 213.378,208.844 214.5,209.5 Z"/></g>
<g><path style="opacity:0.996" fill="#564745" d="M 164.5,208.5 C 165.906,208.973 166.573,209.973 166.5,211.5C 167.933,213.558 168.6,215.892 168.5,218.5C 165.083,216.109 163.75,212.775 164.5,208.5 Z"/></g>
<g><path style="opacity:0.996" fill="#7e6762" d="M 216.5,212.5 C 217.833,225.817 218.499,239.483 218.5,253.5C 218.5,267.337 218.167,281.004 217.5,294.5C 217.963,268.782 217.463,243.115 216,217.5C 214.701,216.02 213.034,215.354 211,215.5C 204.149,216.455 197.316,217.455 190.5,218.5C 197.132,216.428 204.132,214.762 211.5,213.5C 213.374,213.39 214.874,214.056 216,215.5C 216.483,214.552 216.649,213.552 216.5,212.5 Z"/></g>
<g><path style="opacity:0.996" fill="#8b3028" d="M 166.5,211.5 C 167.458,211.953 168.292,212.619 169,213.5C 169.498,216.817 169.665,220.15 169.5,223.5C 168.549,222.081 168.216,220.415 168.5,218.5C 168.6,215.892 167.933,213.558 166.5,211.5 Z"/></g>
<g><path style="opacity:0.996" fill="#5c3d39" d="M 253.5,211.5 C 253.833,211.5 254.167,211.5 254.5,211.5C 256.953,215.859 258.62,220.525 259.5,225.5C 260.159,228.455 260.492,231.455 260.5,234.5C 258.638,226.724 256.304,219.057 253.5,211.5 Z"/></g>
<g><path style="opacity:0.243" fill="#dfdcdb" d="M 33.5,218.5 C 34.4959,218.414 35.3292,218.748 36,219.5C 36.8442,221.463 36.3442,222.796 34.5,223.5C 35.7345,221.602 35.4011,219.935 33.5,218.5 Z"/></g>
<g><path style="opacity:0.996" fill="#986f6a" d="M 181.5,219.5 C 181.833,219.5 182.167,219.5 182.5,219.5C 182.5,224.167 182.5,228.833 182.5,233.5C 184.167,233.5 185.833,233.5 187.5,233.5C 185.786,234.738 183.786,235.405 181.5,235.5C 181.5,230.167 181.5,224.833 181.5,219.5 Z"/></g>
<g><path style="opacity:0.996" fill="#8c625c" d="M 298.5,209.5 C 299.818,217.968 300.485,226.635 300.5,235.5C 298.806,227.061 298.139,218.395 298.5,209.5 Z"/></g>
<g><path style="opacity:0.996" fill="#8f7f7a" d="M 317.5,197.5 C 315.212,219.098 314.879,240.764 316.5,262.5C 315.833,260.167 315.167,257.833 314.5,255.5C 314.5,254.833 314.5,254.167 314.5,253.5C 314.333,237.83 314.5,222.163 315,206.5C 316.128,204.655 316.628,202.655 316.5,200.5C 316.263,199.209 316.596,198.209 317.5,197.5 Z"/></g>
<g><path style="opacity:0.996" fill="#995049" d="M 316.5,200.5 C 316.628,202.655 316.128,204.655 315,206.5C 314.5,222.163 314.333,237.83 314.5,253.5C 313.338,237.339 313.172,221.005 314,204.5C 314.608,202.934 315.442,201.6 316.5,200.5 Z"/></g>
<g><path style="opacity:0.161" fill="#cccac8" d="M 34.5,223.5 C 33.5308,226.246 32.8641,229.079 32.5,232C 33.339,236.345 35.0057,240.345 37.5,244C 37.4301,244.765 37.0967,245.265 36.5,245.5C 32.0331,239.92 30.5331,233.587 32,226.5C 32.3768,225.058 33.2101,224.058 34.5,223.5 Z"/></g>
<g><path style="opacity:0.996" fill="#9e3d35" d="M 271.5,211.5 C 272.458,211.953 273.292,212.619 274,213.5C 274.448,224.687 273.948,235.687 272.5,246.5C 272.279,237.144 272.612,227.811 273.5,218.5C 273.559,215.891 272.892,213.557 271.5,211.5 Z"/></g>
<g><path style="opacity:0.996" fill="#8f736c" d="M 235.5,205.5 C 236.117,205.611 236.617,205.944 237,206.5C 238.093,213.485 237.093,220.151 234,226.5C 233.5,242.83 233.333,259.163 233.5,275.5C 232.338,258.338 232.171,241.005 233,223.5C 233.853,218.754 235.02,214.087 236.5,209.5C 236.154,208.151 235.821,206.817 235.5,205.5 Z"/></g>
<g><path style="opacity:0.996" fill="#473f3e" d="M 208.5,239.5 C 209.848,240.527 210.348,241.86 210,243.5C 201.191,248.576 191.691,250.576 181.5,249.5C 181.5,247.5 181.5,245.5 181.5,243.5C 187.084,243.745 192.417,243.078 197.5,241.5C 201.372,241.758 205.039,241.091 208.5,239.5 Z"/></g>
<g><path style="opacity:0.996" fill="#af2b1f" d="M 197.5,241.5 C 192.417,243.078 187.084,243.745 181.5,243.5C 181.5,245.5 181.5,247.5 181.5,249.5C 181.5,250.833 181.5,252.167 181.5,253.5C 180.837,255.473 180.504,257.639 180.5,260C 180.533,262.61 181.2,264.777 182.5,266.5C 181.791,267.404 180.791,267.737 179.5,267.5C 179.197,259.111 179.53,250.778 180.5,242.5C 186.128,241.505 191.794,241.171 197.5,241.5 Z"/></g>
<g><path style="opacity:0.996" fill="#a5352c" d="M 259.5,225.5 C 260.222,225.918 260.722,226.584 261,227.5C 261.825,238.341 261.659,249.008 260.5,259.5C 260.5,251.167 260.5,242.833 260.5,234.5C 260.492,231.455 260.159,228.455 259.5,225.5 Z"/></g>
<g><path style="opacity:0.043" fill="#d4d3d1" d="M 436.5,237.5 C 437.79,238.058 438.623,239.058 439,240.5C 439.667,244.167 439.667,247.833 439,251.5C 437.579,253.405 436.412,255.405 435.5,257.5C 434.414,257.38 433.747,256.713 433.5,255.5C 434.36,253.728 435.693,252.395 437.5,251.5C 438.821,246.731 438.488,242.065 436.5,237.5 Z"/></g>
<g><path style="opacity:0.994" fill="#131312" d="M 37.5,258.5 C 37.0371,255.518 36.7038,252.518 36.5,249.5C 36.4701,248.503 36.9701,247.836 38,247.5C 42.8115,253.346 44.3115,260.013 42.5,267.5C 40.5376,264.567 38.8709,261.567 37.5,258.5 Z"/></g>
<g><path style="opacity:0.443" fill="#757474" d="M 35.5,249.5 C 35.8333,249.5 36.1667,249.5 36.5,249.5C 36.7038,252.518 37.0371,255.518 37.5,258.5C 36.8333,258.167 36.1667,257.833 35.5,257.5C 34.4696,254.771 34.4696,252.104 35.5,249.5 Z"/></g>
<g><path style="opacity:0.106" fill="#dbdad7" d="M 435.5,257.5 C 439.5,259.167 439.5,260.833 435.5,262.5C 436.833,260.833 436.833,259.167 435.5,257.5 Z"/></g>
<g><path style="opacity:0.996" fill="#95615b" d="M 181.5,253.5 C 181.5,257.5 181.5,261.5 181.5,265.5C 182.5,265.5 183.5,265.5 184.5,265.5C 184.158,266.338 183.492,266.672 182.5,266.5C 181.2,264.777 180.533,262.61 180.5,260C 180.504,257.639 180.837,255.473 181.5,253.5 Z"/></g>
<g><path style="opacity:0.996" fill="#ac4d45" d="M 202.5,263.5 C 197.05,263.365 191.716,264.031 186.5,265.5C 188.026,263.87 190.026,263.037 192.5,263C 196.027,262.192 199.36,262.359 202.5,263.5 Z"/></g>
<g><path style="opacity:0.996" fill="#af453a" d="M 169.5,241.5 C 169.666,249.174 169.5,256.841 169,264.5C 168.61,267.104 167.776,269.438 166.5,271.5C 167.723,261.383 168.723,251.383 169.5,241.5 Z"/></g>
<g><path style="opacity:0.996" fill="#a55149" d="M 314.5,255.5 C 315.167,257.833 315.833,260.167 316.5,262.5C 316.5,268.167 316.5,273.833 316.5,279.5C 315.079,271.709 314.413,263.709 314.5,255.5 Z"/></g>
<g><path style="opacity:0.996" fill="#453f3e" d="M 208.5,270.5 C 210.194,273.589 209.528,276.089 206.5,278C 202.358,278.727 198.358,279.727 194.5,281C 189.463,281.663 184.463,281.496 179.5,280.5C 179.5,278.833 179.5,277.167 179.5,275.5C 189.768,276.6 199.434,274.934 208.5,270.5 Z"/></g>
<g><path style="opacity:0.996" fill="#a63f36" d="M 259.5,264.5 C 259.303,270.545 259.637,276.545 260.5,282.5C 259.833,281.833 259.167,281.167 258.5,280.5C 258.179,274.974 258.512,269.64 259.5,264.5 Z"/></g>
<g><path style="opacity:0.122" fill="#d0cecc" d="M 435.5,270.5 C 434.836,275.468 434.336,280.468 434,285.5C 433.392,287.066 432.558,288.4 431.5,289.5C 433.046,283.986 433.879,278.319 434,272.5C 434.278,271.584 434.778,270.918 435.5,270.5 Z"/></g>
<g><path style="opacity:0.996" fill="#7a4540" d="M 179.5,275.5 C 179.5,277.167 179.5,278.833 179.5,280.5C 179.247,284.04 178.581,287.373 177.5,290.5C 177.444,285.269 178.111,280.269 179.5,275.5 Z"/></g>
<g><path style="opacity:0.996" fill="#4a403f" d="M 258.5,280.5 C 259.167,281.167 259.833,281.833 260.5,282.5C 261.604,288.513 264.604,289.846 269.5,286.5C 270.837,289.317 270.17,291.817 267.5,294C 266.167,294.667 264.833,294.667 263.5,294C 260.612,289.948 258.945,285.448 258.5,280.5 Z"/></g>
<g><path style="opacity:0.996" fill="#ae4e45" d="M 163.5,287.5 C 163.662,289.527 163.495,291.527 163,293.5C 162.617,294.056 162.117,294.389 161.5,294.5C 161.927,291.99 162.593,289.657 163.5,287.5 Z"/></g>
<g><path style="opacity:0.498" fill="#4a4949" d="M 430.5,293.5 C 430.813,297.042 430.479,300.375 429.5,303.5C 429.663,301.143 429.497,298.81 429,296.5C 428.617,297.056 428.117,297.389 427.5,297.5C 427.554,295.368 428.554,294.035 430.5,293.5 Z"/></g>
<g><path style="opacity:0.051" fill="#c4c4c4" d="M 431.5,290.5 C 431.666,295.179 431.499,299.845 431,304.5C 430.768,305.737 430.268,306.737 429.5,307.5C 429.5,306.167 429.5,304.833 429.5,303.5C 430.479,300.375 430.813,297.042 430.5,293.5C 430.263,292.209 430.596,291.209 431.5,290.5 Z"/></g>
<g><path style="opacity:0.996" fill="#893831" d="M 177.5,291.5 C 177.354,295.387 176.687,299.054 175.5,302.5C 175.116,298.511 175.783,294.845 177.5,291.5 Z"/></g>
<g><path style="opacity:0.996" fill="#917570" d="M 233.5,277.5 C 234.29,278.609 234.79,279.942 235,281.5C 235.667,293.167 235.667,304.833 235,316.5C 234.243,318.315 233.41,319.981 232.5,321.5C 232.5,320.5 232.5,319.5 232.5,318.5C 234.754,304.9 235.087,291.233 233.5,277.5 Z"/></g>
<g><path style="opacity:0.996" fill="#070706" d="M 429.5,303.5 C 427.198,311.291 423.698,318.625 419,325.5C 418.506,327.134 418.34,328.801 418.5,330.5C 417.624,330.369 416.957,330.702 416.5,331.5C 415.199,335.104 413.533,338.437 411.5,341.5C 410.326,342.514 409.66,343.847 409.5,345.5C 408.833,346.833 408.167,348.167 407.5,349.5C 406.326,350.514 405.66,351.847 405.5,353.5C 403.926,355.102 403.259,357.102 403.5,359.5C 403.5,359.833 403.5,360.167 403.5,360.5C 401.167,360.833 399.833,362.167 399.5,364.5C 399.5,364.833 399.5,365.167 399.5,365.5C 398.539,367.265 398.205,369.265 398.5,371.5C 396.473,371.338 394.473,371.505 392.5,372C 391.944,372.383 391.611,372.883 391.5,373.5C 388.068,374.599 386.068,376.933 385.5,380.5C 380.605,384.976 375.605,389.476 370.5,394C 357.833,402.667 345.167,411.333 332.5,420C 331.177,420.816 330.511,421.983 330.5,423.5C 327.638,424.247 325.638,425.914 324.5,428.5C 321.5,429.5 319.5,431.5 318.5,434.5C 315.412,434.623 312.745,433.623 310.5,431.5C 308.456,433.219 306.456,434.886 304.5,436.5C 299.105,436.733 293.772,436.4 288.5,435.5C 285.941,435.802 283.607,435.468 281.5,434.5C 274.011,433.344 266.345,433.178 258.5,434C 257.944,434.383 257.611,434.883 257.5,435.5C 255.5,435.5 253.5,435.5 251.5,435.5C 245.19,436.19 238.857,436.524 232.5,436.5C 228.771,435.987 225.104,435.154 221.5,434C 214.537,433.488 208.537,435.654 203.5,440.5C 196.544,441.578 189.544,442.244 182.5,442.5C 169.012,436.359 155.346,430.359 141.5,424.5C 141.027,423.094 140.027,422.427 138.5,422.5C 137.486,421.326 136.153,420.66 134.5,420.5C 132.772,418.123 130.439,416.456 127.5,415.5C 126.008,412.677 123.674,411.01 120.5,410.5C 120.5,409.167 119.833,408.5 118.5,408.5C 117.69,405.354 115.69,403.687 112.5,403.5C 112.5,403.167 112.5,402.833 112.5,402.5C 111.534,398.143 110.201,393.976 108.5,390C 103.716,387.968 98.7163,387.134 93.5,387.5C 93.5,385.5 93.5,383.5 93.5,381.5C 92.209,381.263 91.209,381.596 90.5,382.5C 89.325,382.719 88.325,382.386 87.5,381.5C 87.0576,380.261 86.3909,379.261 85.5,378.5C 83.7993,375.137 81.1327,372.803 77.5,371.5C 71.7958,367.115 66.2958,362.448 61,357.5C 60.3164,355.521 60.8164,353.854 62.5,352.5C 61.2713,351.719 59.938,351.219 58.5,351C 57.1666,348.809 55.5,346.976 53.5,345.5C 53.5,345.167 53.5,344.833 53.5,344.5C 52.8413,341.545 52.5079,338.545 52.5,335.5C 51.8126,330.067 52.9793,329.401 56,333.5C 56.1981,335.382 56.6981,337.048 57.5,338.5C 63.7815,345.61 71.1149,351.444 79.5,356C 81.5299,357.896 83.1966,360.063 84.5,362.5C 86.396,363.466 88.396,363.799 90.5,363.5C 90.5,365.167 90.5,366.833 90.5,368.5C 96.117,368.049 101.45,369.049 106.5,371.5C 107.181,375.25 108.181,378.916 109.5,382.5C 119.716,393.611 131.716,402.277 145.5,408.5C 150.649,411.435 155.983,414.269 161.5,417C 162.793,417.49 164.127,417.657 165.5,417.5C 168.102,419.81 171.102,421.643 174.5,423C 183.222,425.067 191.888,424.9 200.5,422.5C 203.947,421.917 206.947,420.584 209.5,418.5C 210.995,418.011 212.329,417.345 213.5,416.5C 216.167,415.167 218.833,415.167 221.5,416.5C 221.833,416.5 222.167,416.5 222.5,416.5C 227.925,417.984 233.591,418.651 239.5,418.5C 254.129,417.057 268.796,416.39 283.5,416.5C 288.283,417.94 293.283,418.94 298.5,419.5C 303.799,419.267 308.299,417.267 312,413.5C 314.01,415.927 316.51,416.76 319.5,416C 324.532,410.633 329.865,405.633 335.5,401C 348.167,392.333 360.833,383.667 373.5,375C 380.446,368.054 387.446,361.054 394.5,354C 396.677,352.798 399.011,352.298 401.5,352.5C 401.338,350.473 401.505,348.473 402,346.5C 410.587,330.262 419.087,313.929 427.5,297.5C 428.117,297.389 428.617,297.056 429,296.5C 429.497,298.81 429.663,301.143 429.5,303.5 Z"/></g>
<g><path style="opacity:0.996" fill="#b1473b" d="M 161.5,294.5 C 159.126,301.262 158.126,308.262 158.5,315.5C 157.352,311.019 157.185,306.352 158,301.5C 158.139,298.555 159.306,296.221 161.5,294.5 Z"/></g>
<g><path style="opacity:0.765" fill="#c9c8c5" d="M 41.5,268.5 C 42.7899,269.058 43.6232,270.058 44,271.5C 44.7425,291.001 46.5759,310.334 49.5,329.5C 45.4802,311.18 43.3135,292.513 43,273.5C 42.3923,271.846 41.8923,270.179 41.5,268.5 Z"/></g>
<g><path style="opacity:0.996" fill="#633d39" d="M 175.5,305.5 C 175.741,307.898 175.074,309.898 173.5,311.5C 173.259,309.102 173.926,307.102 175.5,305.5 Z"/></g>
<g><path style="opacity:0.996" fill="#a6625a" d="M 282.5,318.5 C 285.152,318.41 287.485,319.076 289.5,320.5C 286.848,320.59 284.515,319.924 282.5,318.5 Z"/></g>
<g><path style="opacity:0.016" fill="#9a9a9a" d="M 429.5,303.5 C 429.5,304.833 429.5,306.167 429.5,307.5C 428.633,310.908 427.467,314.242 426,317.5C 423.487,321.864 420.987,326.197 418.5,330.5C 418.34,328.801 418.506,327.134 419,325.5C 423.698,318.625 427.198,311.291 429.5,303.5 Z"/></g>
<g><path style="opacity:0.996" fill="#4d4341" d="M 173.5,311.5 C 174.111,316.618 172.944,321.285 170,325.5C 168.581,327.336 167.414,329.336 166.5,331.5C 164.955,332.452 163.288,332.785 161.5,332.5C 161.245,329.984 160.411,327.65 159,325.5C 158.503,322.854 158.336,320.187 158.5,317.5C 159.735,320.33 160.735,323.33 161.5,326.5C 163.288,326.785 164.955,326.452 166.5,325.5C 169.62,321.086 171.953,316.419 173.5,311.5 Z"/></g>
<g><path style="opacity:0.935" fill="#292928" d="M 57.5,338.5 C 56.6981,337.048 56.1981,335.382 56,333.5C 52.9793,329.401 51.8126,330.067 52.5,335.5C 50.9334,332.083 50.4334,328.417 51,324.5C 52.5604,328.232 55.0604,331.232 58.5,333.5C 57.6906,335.071 57.3573,336.738 57.5,338.5 Z"/></g>
<g><path style="opacity:0.996" fill="#4a3e3d" d="M 200.5,315.5 C 206.319,320.489 210.819,326.489 214,333.5C 215.439,335.448 217.272,336.781 219.5,337.5C 225.094,331.964 229.427,325.63 232.5,318.5C 232.5,319.5 232.5,320.5 232.5,321.5C 230.164,329.172 226.497,336.172 221.5,342.5C 218.743,343.866 216.577,343.199 215,340.5C 210.494,331.168 204.327,323.168 196.5,316.5C 197.689,315.571 199.022,315.238 200.5,315.5 Z"/></g>
<g><path style="opacity:0.012" fill="#afafaf" d="M 418.5,330.5 C 416.724,335.185 414.391,339.518 411.5,343.5C 411.5,342.833 411.5,342.167 411.5,341.5C 413.533,338.437 415.199,335.104 416.5,331.5C 416.957,330.702 417.624,330.369 418.5,330.5 Z"/></g>
<g><path style="opacity:0.478" fill="#686868" d="M 411.5,341.5 C 411.5,342.167 411.5,342.833 411.5,343.5C 411.5,344.167 411.5,344.833 411.5,345.5C 410.833,345.5 410.167,345.5 409.5,345.5C 409.66,343.847 410.326,342.514 411.5,341.5 Z"/></g>
<g><path style="opacity:0.09" fill="#bbbbba" d="M 409.5,345.5 C 410.167,345.5 410.833,345.5 411.5,345.5C 410.525,347.795 409.192,349.795 407.5,351.5C 407.5,350.833 407.5,350.167 407.5,349.5C 408.167,348.167 408.833,346.833 409.5,345.5 Z"/></g>
<g><path style="opacity:0.388" fill="#5d5d5d" d="M 407.5,349.5 C 407.5,350.167 407.5,350.833 407.5,351.5C 407.5,351.833 407.5,352.167 407.5,352.5C 406.833,352.833 406.167,353.167 405.5,353.5C 405.66,351.847 406.326,350.514 407.5,349.5 Z"/></g>
<g><path style="opacity:0.996" fill="#4b403f" d="M 277.5,322.5 C 280.888,326.249 284.055,330.249 287,334.5C 290.442,341.215 294.275,347.715 298.5,354C 303.217,355.429 306.55,353.929 308.5,349.5C 310.942,347.879 312.275,345.546 312.5,342.5C 314.245,340.967 315.245,338.967 315.5,336.5C 316.598,332.089 317.598,327.755 318.5,323.5C 318.285,336.593 314.118,348.26 306,358.5C 302.925,361.059 299.925,361.059 297,358.5C 290.954,346.227 283.787,334.727 275.5,324C 275.836,322.97 276.503,322.47 277.5,322.5 Z"/></g>
<g><path style="opacity:0.996" fill="#6b2e29" d="M 312.5,342.5 C 312.275,345.546 310.942,347.879 308.5,349.5C 309.468,346.9 310.801,344.566 312.5,342.5 Z"/></g>
<g><path style="opacity:0.996" fill="#6d2e29" d="M 315.5,336.5 C 315.245,338.967 314.245,340.967 312.5,342.5C 312.755,340.033 313.755,338.033 315.5,336.5 Z"/></g>
<g><path style="opacity:0.137" fill="#949494" d="M 53.5,345.5 C 55.5,346.976 57.1666,348.809 58.5,351C 59.938,351.219 61.2713,351.719 62.5,352.5C 60.8164,353.854 60.3164,355.521 61,357.5C 66.2958,362.448 71.7958,367.115 77.5,371.5C 77.8333,372.167 78.1667,372.833 78.5,373.5C 66.5306,367.209 58.1972,357.875 53.5,345.5 Z"/></g>
<g><path style="opacity:0.318" fill="#a8a8a7" d="M 407.5,352.5 C 406.416,355.004 405.083,357.337 403.5,359.5C 403.259,357.102 403.926,355.102 405.5,353.5C 406.167,353.167 406.833,352.833 407.5,352.5 Z"/></g>
<g><path style="opacity:0.643" fill="#747474" d="M 403.5,360.5 C 403.573,362.027 402.906,363.027 401.5,363.5C 400.833,363.833 400.167,364.167 399.5,364.5C 399.833,362.167 401.167,360.833 403.5,360.5 Z"/></g>
<g><path style="opacity:0.027" fill="#cfcfcf" d="M 401.5,363.5 C 401.01,366.655 400.344,369.655 399.5,372.5C 399.5,370.167 399.5,367.833 399.5,365.5C 399.5,365.167 399.5,364.833 399.5,364.5C 400.167,364.167 400.833,363.833 401.5,363.5 Z"/></g>
<g><path style="opacity:0.341" fill="#7e7e7e" d="M 399.5,365.5 C 399.5,367.833 399.5,370.167 399.5,372.5C 397.735,373.461 395.735,373.795 393.5,373.5C 392.833,373.5 392.167,373.5 391.5,373.5C 391.611,372.883 391.944,372.383 392.5,372C 394.473,371.505 396.473,371.338 398.5,371.5C 398.205,369.265 398.539,367.265 399.5,365.5 Z"/></g>
<g><path style="opacity:0.439" fill="#626262" d="M 77.5,371.5 C 81.1327,372.803 83.7993,375.137 85.5,378.5C 84.8333,378.5 84.1667,378.5 83.5,378.5C 82.1394,376.473 80.4727,374.806 78.5,373.5C 78.1667,372.833 77.8333,372.167 77.5,371.5 Z"/></g>
<g><path style="opacity:0.059" fill="#999999" d="M 391.5,373.5 C 392.167,373.5 392.833,373.5 393.5,373.5C 390.814,375.856 388.147,378.189 385.5,380.5C 386.068,376.933 388.068,374.599 391.5,373.5 Z"/></g>
<g><path style="opacity:0.341" fill="#a7a7a6" d="M 83.5,378.5 C 84.1667,378.5 84.8333,378.5 85.5,378.5C 86.3909,379.261 87.0576,380.261 87.5,381.5C 88.325,382.386 89.325,382.719 90.5,382.5C 92.256,383.552 92.9227,385.219 92.5,387.5C 91.71,386.391 91.21,385.058 91,383.5C 89.9505,384.517 88.7839,384.684 87.5,384C 86.035,382.226 84.7017,380.392 83.5,378.5 Z"/></g>
<g><path style="opacity:0.686" fill="#5e5e5e" d="M 90.5,382.5 C 91.209,381.596 92.209,381.263 93.5,381.5C 93.5,383.5 93.5,385.5 93.5,387.5C 93.5,387.833 93.5,388.167 93.5,388.5C 92.8333,388.5 92.5,388.167 92.5,387.5C 92.9227,385.219 92.256,383.552 90.5,382.5 Z"/></g>
<g><path style="opacity:0.22" fill="#929292" d="M 93.5,388.5 C 93.5,388.167 93.5,387.833 93.5,387.5C 98.7163,387.134 103.716,387.968 108.5,390C 110.201,393.976 111.534,398.143 112.5,402.5C 109.432,399.346 107.765,395.513 107.5,391C 102.937,389.525 98.2701,388.692 93.5,388.5 Z"/></g>
<g><path style="opacity:0.075" fill="#8f8f8f" d="M 112.5,403.5 C 115.69,403.687 117.69,405.354 118.5,408.5C 115.911,407.581 113.911,405.914 112.5,403.5 Z"/></g>
<g><path style="opacity:0.094" fill="#989898" d="M 385.5,380.5 C 382.385,385.117 378.718,389.284 374.5,393C 360.229,403.777 345.562,413.944 330.5,423.5C 330.511,421.983 331.177,420.816 332.5,420C 345.167,411.333 357.833,402.667 370.5,394C 375.605,389.476 380.605,384.976 385.5,380.5 Z"/></g>
<g><path style="opacity:0.051" fill="#a6a6a6" d="M 118.5,408.5 C 119.833,408.5 120.5,409.167 120.5,410.5C 119.167,410.5 118.5,409.833 118.5,408.5 Z"/></g>
<g><path style="opacity:0.996" fill="#6e6c67" d="M 145.5,408.5 C 146.873,408.343 148.207,408.51 149.5,409C 155.022,411.593 160.355,414.426 165.5,417.5C 164.127,417.657 162.793,417.49 161.5,417C 155.983,414.269 150.649,411.435 145.5,408.5 Z"/></g>
<g><path style="opacity:0.094" fill="#868686" d="M 120.5,410.5 C 123.674,411.01 126.008,412.677 127.5,415.5C 124.63,414.567 122.296,412.9 120.5,410.5 Z"/></g>
<g><path style="opacity:0.996" fill="#4e4d4a" d="M 221.5,416.5 C 218.833,415.167 216.167,415.167 213.5,416.5C 214.312,415.007 215.645,414.34 217.5,414.5C 219.355,414.34 220.688,415.007 221.5,416.5 Z"/></g>
<g><path style="opacity:0.996" fill="#72706b" d="M 283.5,416.5 C 268.796,416.39 254.129,417.057 239.5,418.5C 233.591,418.651 227.925,417.984 222.5,416.5C 242.983,416.374 263.316,416.374 283.5,416.5 Z"/></g>
<g><path style="opacity:0.055" fill="#a2a2a2" d="M 127.5,415.5 C 130.439,416.456 132.772,418.123 134.5,420.5C 131.6,419.557 129.267,417.89 127.5,415.5 Z"/></g>
<g><path style="opacity:0.996" fill="#3f3e3c" d="M 209.5,418.5 C 206.947,420.584 203.947,421.917 200.5,422.5C 203.053,420.416 206.053,419.083 209.5,418.5 Z"/></g>
<g><path style="opacity:0.031" fill="#a6a6a6" d="M 134.5,420.5 C 136.153,420.66 137.486,421.326 138.5,422.5C 136.62,422.771 135.287,422.104 134.5,420.5 Z"/></g>
<g><path style="opacity:0.235" fill="#aeaeae" d="M 138.5,422.5 C 140.027,422.427 141.027,423.094 141.5,424.5C 139.973,424.573 138.973,423.906 138.5,422.5 Z"/></g>
<g><path style="opacity:0.016" fill="#acacac" d="M 330.5,423.5 C 329.089,425.914 327.089,427.581 324.5,428.5C 325.638,425.914 327.638,424.247 330.5,423.5 Z"/></g>
<g><path style="opacity:0.082" fill="#9e9e9e" d="M 324.5,428.5 C 322.833,430.833 320.833,432.833 318.5,434.5C 319.5,431.5 321.5,429.5 324.5,428.5 Z"/></g>
<g><path style="opacity:0.086" fill="#a9a9a9" d="M 232.5,436.5 C 232.5,436.833 232.5,437.167 232.5,437.5C 227.664,437.266 222.997,436.266 218.5,434.5C 213.556,436.811 208.556,438.811 203.5,440.5C 208.537,435.654 214.537,433.488 221.5,434C 225.104,435.154 228.771,435.987 232.5,436.5 Z"/></g>
<g><path style="opacity:0.741" fill="#404040" d="M 281.5,434.5 C 273.445,434.23 265.445,434.563 257.5,435.5C 257.611,434.883 257.944,434.383 258.5,434C 266.345,433.178 274.011,433.344 281.5,434.5 Z"/></g>
<g><path style="opacity:0.129" fill="#c1c0c0" d="M 281.5,434.5 C 283.607,435.468 285.941,435.802 288.5,435.5C 288.833,436.167 289.167,436.833 289.5,437.5C 284.246,436.369 278.912,435.702 273.5,435.5C 264.494,436.167 255.494,436.834 246.5,437.5C 248.167,436.833 249.833,436.167 251.5,435.5C 253.5,435.5 255.5,435.5 257.5,435.5C 265.445,434.563 273.445,434.23 281.5,434.5 Z"/></g>
<g><path style="opacity:0.071" fill="#aeaeae" d="M 318.5,434.5 C 318.217,435.289 317.717,435.956 317,436.5C 314.912,435.692 312.912,434.692 311,433.5C 309.056,435.221 306.89,436.554 304.5,437.5C 304.5,437.167 304.5,436.833 304.5,436.5C 306.456,434.886 308.456,433.219 310.5,431.5C 312.745,433.623 315.412,434.623 318.5,434.5 Z"/></g>
<g><path style="opacity:0.012" fill="#8c8c8c" d="M 141.5,424.5 C 155.346,430.359 169.012,436.359 182.5,442.5C 181.833,442.5 181.167,442.5 180.5,442.5C 178.073,442.477 175.74,441.977 173.5,441C 162.302,436.236 151.635,430.736 141.5,424.5 Z"/></g>
<g><path style="opacity:0.235" fill="#969595" d="M 251.5,435.5 C 249.833,436.167 248.167,436.833 246.5,437.5C 241.802,438.778 237.135,438.778 232.5,437.5C 232.5,437.167 232.5,436.833 232.5,436.5C 238.857,436.524 245.19,436.19 251.5,435.5 Z"/></g>
<g><path style="opacity:0.533" fill="#7c7c7c" d="M 288.5,435.5 C 293.772,436.4 299.105,436.733 304.5,436.5C 304.5,436.833 304.5,437.167 304.5,437.5C 299.531,438.783 294.531,438.783 289.5,437.5C 289.167,436.833 288.833,436.167 288.5,435.5 Z"/></g>
<g><path style="opacity:0.199" fill="#bcbcbc" d="M 203.5,440.5 C 201.123,441.887 198.457,442.721 195.5,443C 190.316,443.816 185.316,443.65 180.5,442.5C 181.167,442.5 181.833,442.5 182.5,442.5C 189.544,442.244 196.544,441.578 203.5,440.5 Z"/></g>
</svg>
