<?xml version="1.0" encoding="UTF-8"?>
<!DOCTYPE svg PUBLIC "-//W3C//DTD SVG 1.1//EN" "http://www.w3.org/Graphics/SVG/1.1/DTD/svg11.dtd">
<svg xmlns="http://www.w3.org/2000/svg" version="1.1" width="60px" height="60px" style="shape-rendering:geometricPrecision; text-rendering:geometricPrecision; image-rendering:optimizeQuality; fill-rule:evenodd; clip-rule:evenodd" xmlns:xlink="http://www.w3.org/1999/xlink">
<g><path style="opacity:1" fill="#000000" d="M 18.5,3.5 C 25.8409,3.33368 33.1742,3.50034 40.5,4C 45.3333,8.83333 50.1667,13.6667 55,18.5C 55.6667,25.8333 55.6667,33.1667 55,40.5C 50.1667,45.3333 45.3333,50.1667 40.5,55C 33.1667,55.6667 25.8333,55.6667 18.5,55C 13.6667,50.1667 8.83333,45.3333 4,40.5C 3.33333,33.1667 3.33333,25.8333 4,18.5C 9.03651,13.6313 13.8698,8.63128 18.5,3.5 Z"/></g>
<g><path style="opacity:1" fill="#807f7f" d="M 19.5,5.5 C 26.175,5.33375 32.8417,5.50042 39.5,6C 44,10.5 48.5,15 53,19.5C 53.6667,26.1667 53.6667,32.8333 53,39.5C 48.5,44 44,48.5 39.5,53C 32.8333,53.6667 26.1667,53.6667 19.5,53C 15,48.5 10.5,44 6,39.5C 5.33333,32.8333 5.33333,26.1667 6,19.5C 10.7033,14.9645 15.2033,10.2979 19.5,5.5 Z"/></g>
<g><path style="opacity:1" fill="#fb0704" d="M 22.5,13.5 C 25.1324,14.9654 27.6324,16.632 30,18.5C 32.8809,17.9573 34.8809,16.2906 36,13.5C 38.3163,14.5224 38.8163,16.0224 37.5,18C 40.146,18.4974 42.8127,18.6641 45.5,18.5C 45.5,19.5 45.5,20.5 45.5,21.5C 35.1667,21.5 24.8333,21.5 14.5,21.5C 14.5,20.5 14.5,19.5 14.5,18.5C 17.5184,18.6646 20.5184,18.498 23.5,18C 21.4523,16.7741 21.119,15.2741 22.5,13.5 Z"/></g>
<g><path style="opacity:1" fill="#fc0603" d="M 39.5,23.5 C 40.5,23.5 41.5,23.5 42.5,23.5C 42.6663,30.5079 42.4996,37.5079 42,44.5C 39.9592,45.4231 37.7925,45.7564 35.5,45.5C 35.67,44.1779 35.3366,43.0113 34.5,42C 36.1341,41.5065 37.8008,41.3398 39.5,41.5C 39.5,35.5 39.5,29.5 39.5,23.5 Z"/></g>
<g><path style="opacity:1" fill="#fa0906" d="M 16.5,24.5 C 20.8333,24.5 25.1667,24.5 29.5,24.5C 29.6662,30.8421 29.4995,37.1754 29,43.5C 26.1631,45.0531 23.6631,44.7198 21.5,42.5C 23.0453,41.5481 24.712,41.2148 26.5,41.5C 26.741,38.001 25.9076,37.6677 24,40.5C 20.8496,38.8789 20.0163,36.5455 21.5,33.5C 21.1924,32.6919 20.6924,32.0253 20,31.5C 19.501,35.8206 19.3343,40.1539 19.5,44.5C 18.5,44.5 17.5,44.5 16.5,44.5C 16.5,37.8333 16.5,31.1667 16.5,24.5 Z"/></g>
<g><path style="opacity:1" fill="#fe0000" d="M 33.5,25.5 C 34.5,25.5 35.5,25.5 36.5,25.5C 36.5,30.1667 36.5,34.8333 36.5,39.5C 35.5,39.5 34.5,39.5 33.5,39.5C 33.5,34.8333 33.5,30.1667 33.5,25.5 Z"/></g>
<g><path style="opacity:1" fill="#897978" d="M 19.5,27.5 C 21.8333,27.5 24.1667,27.5 26.5,27.5C 26.6567,28.8734 26.49,30.2068 26,31.5C 24.0341,28.7735 22.0341,28.4402 20,30.5C 19.5172,29.552 19.3505,28.552 19.5,27.5 Z"/></g>
<g><path style="opacity:1" fill="#927270" d="M 25.5,32.5 C 26.5983,33.6009 26.765,34.9343 26,36.5C 25.2496,35.8742 24.4162,35.3742 23.5,35C 24.3805,34.2917 25.0472,33.4584 25.5,32.5 Z"/></g>
</svg>
