<?xml version="1.0" encoding="UTF-8"?>
<!DOCTYPE svg PUBLIC "-//W3C//DTD SVG 1.1//EN" "http://www.w3.org/Graphics/SVG/1.1/DTD/svg11.dtd">
<svg xmlns="http://www.w3.org/2000/svg" version="1.1" width="60px" height="60px" style="shape-rendering:geometricPrecision; text-rendering:geometricPrecision; image-rendering:optimizeQuality; fill-rule:evenodd; clip-rule:evenodd" xmlns:xlink="http://www.w3.org/1999/xlink">
<g><path style="opacity:1" fill="#000000" d="M 18.5,3.5 C 25.8409,3.33368 33.1742,3.50034 40.5,4C 45.3333,8.83333 50.1667,13.6667 55,18.5C 55.6667,25.8333 55.6667,33.1667 55,40.5C 50.1667,45.3333 45.3333,50.1667 40.5,55C 33.1667,55.6667 25.8333,55.6667 18.5,55C 13.6667,50.1667 8.83333,45.3333 4,40.5C 3.33333,33.1667 3.33333,25.8333 4,18.5C 9.03651,13.6313 13.8698,8.63128 18.5,3.5 Z"/></g>
<g><path style="opacity:1" fill="#807f7f" d="M 19.5,5.5 C 26.175,5.33375 32.8417,5.50042 39.5,6C 44,10.5 48.5,15 53,19.5C 53.6667,26.1667 53.6667,32.8333 53,39.5C 48.5,44 44,48.5 39.5,53C 32.8333,53.6667 26.1667,53.6667 19.5,53C 15,48.5 10.5,44 6,39.5C 5.33333,32.8333 5.33333,26.1667 6,19.5C 10.7033,14.9645 15.2033,10.2979 19.5,5.5 Z"/></g>
<g><path style="opacity:1" fill="#fb0705" d="M 27.5,13.5 C 28.8333,13.5 30.1667,13.5 31.5,13.5C 31.5,14.5 31.5,15.5 31.5,16.5C 35.5,16.5 39.5,16.5 43.5,16.5C 43.5,17.5 43.5,18.5 43.5,19.5C 26.9125,18.939 26.5792,20.1057 42.5,23C 44.1742,24.5059 45.1742,26.3393 45.5,28.5C 44.5,28.5 43.5,28.5 42.5,28.5C 42.6658,33.1785 42.4992,37.8452 42,42.5C 39.1737,44.3398 36.0071,45.0065 32.5,44.5C 32.67,43.1779 32.3366,42.0113 31.5,41C 33.8098,40.5034 36.1432,40.3367 38.5,40.5C 38.5,36.5 38.5,32.5 38.5,28.5C 30.5,28.5 22.5,28.5 14.5,28.5C 14.5,27.5 14.5,26.5 14.5,25.5C 17.999,25.741 18.3323,24.9076 15.5,23C 27.7328,21.0035 28.0661,19.8368 16.5,19.5C 16.5,18.5 16.5,17.5 16.5,16.5C 20.1667,16.5 23.8333,16.5 27.5,16.5C 27.5,15.5 27.5,14.5 27.5,13.5 Z"/></g>
<g><path style="opacity:1" fill="#917371" d="M 26.5,23.5 C 30.4899,23.9987 34.4899,24.4987 38.5,25C 32.8333,25.6667 27.1667,25.6667 21.5,25C 23.3817,24.8019 25.0484,24.3019 26.5,23.5 Z"/></g>
<g><path style="opacity:1" fill="#fe0000" d="M 18.5,30.5 C 23.5,30.5 28.5,30.5 33.5,30.5C 33.5,33.5 33.5,36.5 33.5,39.5C 28.5,39.5 23.5,39.5 18.5,39.5C 18.5,36.5 18.5,33.5 18.5,30.5 Z"/></g>
<g><path style="opacity:1" fill="#7f807f" d="M 22.5,33.5 C 25.1667,33.5 27.8333,33.5 30.5,33.5C 30.5,34.5 30.5,35.5 30.5,36.5C 27.8333,36.5 25.1667,36.5 22.5,36.5C 22.5,35.5 22.5,34.5 22.5,33.5 Z"/></g>
</svg>
