<?xml version="1.0" encoding="UTF-8"?>
<!DOCTYPE svg PUBLIC "-//W3C//DTD SVG 1.1//EN" "http://www.w3.org/Graphics/SVG/1.1/DTD/svg11.dtd">
<svg xmlns="http://www.w3.org/2000/svg" version="1.1" width="473px" height="464px" style="shape-rendering:geometricPrecision; text-rendering:geometricPrecision; image-rendering:optimizeQuality; fill-rule:evenodd; clip-rule:evenodd" xmlns:xlink="http://www.w3.org/1999/xlink">
<g><path style="opacity:0.639" fill="#cbc9c3" d="M 298.5,55.5 C 290.164,54.2217 281.83,54.2217 273.5,55.5C 281.843,51.5647 290.177,51.5647 298.5,55.5 Z"/></g>
<g><path style="opacity:0.996" fill="#97948e" d="M 298.5,55.5 C 305.04,60.4345 312.374,63.7678 320.5,65.5C 320.369,66.3764 320.702,67.0431 321.5,67.5C 325.8,69.4924 330.133,71.1591 334.5,72.5C 334.833,72.5 335.167,72.5 335.5,72.5C 336.478,75.9715 338.812,77.8048 342.5,78C 349.651,83.3183 356.651,88.8183 363.5,94.5C 364.823,98.3821 365.823,102.382 366.5,106.5C 367.736,107.246 369.07,107.579 370.5,107.5C 374.076,109.728 378.076,110.728 382.5,110.5C 382.5,112.167 382.5,113.833 382.5,115.5C 384.833,115.5 387.167,115.5 389.5,115.5C 389.829,117.991 390.829,120.157 392.5,122C 396.544,125.88 401.21,128.714 406.5,130.5C 406.833,130.5 407.167,130.5 407.5,130.5C 409.358,133.874 411.858,136.874 415,139.5C 415.687,141.568 415.52,143.568 414.5,145.5C 416.386,146.406 418.22,147.406 420,148.5C 421.546,151.592 423.046,154.592 424.5,157.5C 424.5,158.167 424.5,158.833 424.5,159.5C 424.907,163.203 425.574,166.87 426.5,170.5C 426.747,171.713 427.414,172.38 428.5,172.5C 428.5,172.833 428.5,173.167 428.5,173.5C 427.839,175.134 427.506,176.967 427.5,179C 428.218,191.489 428.718,203.989 429,216.5C 430.021,218.97 431.188,221.304 432.5,223.5C 432.5,224.167 432.5,224.833 432.5,225.5C 434.36,231.502 436.86,237.169 440,242.5C 440.731,246.984 440.231,251.318 438.5,255.5C 437.503,255.47 436.836,255.97 436.5,257C 438.647,259.27 438.981,261.77 437.5,264.5C 436.275,265.152 435.608,266.319 435.5,268C 435.608,269.681 436.275,270.848 437.5,271.5C 437.5,271.833 437.5,272.167 437.5,272.5C 436.872,279.958 435.206,287.292 432.5,294.5C 431.542,294.953 430.708,295.619 430,296.5C 422.321,313.192 414.154,329.525 405.5,345.5C 404.532,347.607 404.198,349.941 404.5,352.5C 402.473,352.338 400.473,352.505 398.5,353C 397.944,353.383 397.611,353.883 397.5,354.5C 390.395,361.103 383.395,367.937 376.5,375C 363.833,383.667 351.167,392.333 338.5,401C 332.813,405.689 327.479,410.689 322.5,416C 319.258,416.986 316.592,416.152 314.5,413.5C 312.246,415.919 309.579,417.752 306.5,419C 298.814,418.998 291.148,418.498 283.5,417.5C 280.016,416.835 276.349,416.501 272.5,416.5C 265.941,416.411 259.608,417.077 253.5,418.5C 241.858,419.01 230.358,418.01 219,415.5C 211.866,419.486 204.366,422.486 196.5,424.5C 192.486,424.666 188.486,424.499 184.5,424C 181.223,422.857 177.89,422.023 174.5,421.5C 152.68,413.478 133.014,401.978 115.5,387C 113.18,384.523 111.513,381.689 110.5,378.5C 111.01,375.612 110.344,373.279 108.5,371.5C 103.73,369.44 98.7298,368.44 93.5,368.5C 93.5,366.833 93.5,365.167 93.5,363.5C 90.4867,363.893 87.8201,363.226 85.5,361.5C 84.7974,359.284 83.4641,357.451 81.5,356C 73.3606,351.494 66.1939,345.66 60,338.5C 59.376,336.536 59.876,334.869 61.5,333.5C 59.296,332.794 57.296,331.794 55.5,330.5C 55.9118,328.027 54.9118,326.694 52.5,326.5C 49.7859,308.241 47.6193,289.907 46,271.5C 45.3292,270.748 44.4959,270.414 43.5,270.5C 41.7073,267.366 40.374,264.033 39.5,260.5C 41.7957,262.401 43.629,264.734 45,267.5C 45.7718,262.096 45.4385,256.762 44,251.5C 42.9308,249.593 41.4308,248.259 39.5,247.5C 37.5898,242.324 35.9232,236.991 34.5,231.5C 35.3605,227.612 37.3605,224.445 40.5,222C 39.7562,220.961 38.7562,220.461 37.5,220.5C 37.1961,219.85 36.8627,219.183 36.5,218.5C 38.415,216.929 39.415,214.929 39.5,212.5C 40.0974,204.602 40.9308,196.602 42,188.5C 48,177.167 54,165.833 60,154.5C 60.49,153.207 60.6567,151.873 60.5,150.5C 61.6745,146.817 63.3412,143.484 65.5,140.5C 70.2194,136.721 72.2194,131.721 71.5,125.5C 74.8934,125.938 77.8934,125.105 80.5,123C 83.0205,119.646 86.0205,116.812 89.5,114.5C 90.6302,113.378 91.2969,112.044 91.5,110.5C 91.5106,108.983 92.1772,107.816 93.5,107C 96.0652,104.92 98.7318,103.087 101.5,101.5C 106.527,98.6547 111.194,95.3214 115.5,91.5C 121.459,85.8513 128.125,81.1846 135.5,77.5C 139.363,76.3064 142.363,73.973 144.5,70.5C 147.899,68.6117 150.899,66.1117 153.5,63C 156.17,62.4574 158.67,62.9574 161,64.5C 163.071,63.2135 165.238,62.0468 167.5,61C 178.822,61.2947 190.156,61.7947 201.5,62.5C 217.16,61.6286 232.827,60.962 248.5,60.5C 249.492,60.3284 250.158,60.6618 250.5,61.5C 253.191,63.6662 256.191,63.9995 259.5,62.5C 260.298,62.0431 260.631,61.3764 260.5,60.5C 261.873,60.6567 263.207,60.49 264.5,60C 266.993,58.5814 269.326,57.0814 271.5,55.5C 272.167,55.5 272.833,55.5 273.5,55.5C 281.83,54.2217 290.164,54.2217 298.5,55.5 Z"/></g>
<g><path style="opacity:0.039" fill="#dad8d8" d="M 271.5,55.5 C 269.326,57.0814 266.993,58.5814 264.5,60C 263.207,60.49 261.873,60.6567 260.5,60.5C 263.709,58.0659 267.376,56.3992 271.5,55.5 Z"/></g>
<g><path style="opacity:0.453" fill="#b9b6b2" d="M 248.5,60.5 C 232.827,60.962 217.16,61.6286 201.5,62.5C 190.156,61.7947 178.822,61.2947 167.5,61C 165.238,62.0468 163.071,63.2135 161,64.5C 158.67,62.9574 156.17,62.4574 153.5,63C 150.899,66.1117 147.899,68.6117 144.5,70.5C 147.522,66.4786 151.189,63.1453 155.5,60.5C 157.614,61.0339 159.448,62.0339 161,63.5C 164.114,59.8789 168.114,58.2123 173,58.5C 182.182,59.4015 191.349,60.4015 200.5,61.5C 216.621,59.4362 232.621,59.1029 248.5,60.5 Z"/></g>
<g><path style="opacity:0.2" fill="#d5d4cf" d="M 260.5,60.5 C 260.631,61.3764 260.298,62.0431 259.5,62.5C 256.191,63.9995 253.191,63.6662 250.5,61.5C 252.262,61.3573 253.929,61.6906 255.5,62.5C 257.075,61.5435 258.742,60.8769 260.5,60.5 Z"/></g>
<g><path style="opacity:0.024" fill="#cccac7" d="M 298.5,55.5 C 306.354,57.8868 313.688,61.2201 320.5,65.5C 312.374,63.7678 305.04,60.4345 298.5,55.5 Z"/></g>
<g><path style="opacity:0.38" fill="#cecdca" d="M 320.5,65.5 C 325.484,67.3255 330.151,69.6589 334.5,72.5C 330.133,71.1591 325.8,69.4924 321.5,67.5C 320.702,67.0431 320.369,66.3764 320.5,65.5 Z"/></g>
<g><path style="opacity:0.357" fill="#d0cecc" d="M 144.5,70.5 C 142.363,73.973 139.363,76.3064 135.5,77.5C 138.208,74.7915 141.208,72.4581 144.5,70.5 Z"/></g>
<g><path style="opacity:0.024" fill="#d0cfcc" d="M 335.5,72.5 C 346.342,78.019 355.675,85.3524 363.5,94.5C 356.651,88.8183 349.651,83.3183 342.5,78C 338.812,77.8048 336.478,75.9715 335.5,72.5 Z"/></g>
<g><path style="opacity:0.302" fill="#d1d0cb" d="M 115.5,91.5 C 111.194,95.3214 106.527,98.6547 101.5,101.5C 105.454,97.1879 110.12,93.8545 115.5,91.5 Z"/></g>
<g><path style="opacity:0.275" fill="#d8d7d4" d="M 363.5,94.5 C 366.61,97.4016 368.11,101.068 368,105.5C 368.995,106.066 369.828,106.733 370.5,107.5C 369.07,107.579 367.736,107.246 366.5,106.5C 365.823,102.382 364.823,98.3821 363.5,94.5 Z"/></g>
<g><path style="opacity:0.996" fill="#768a6d" d="M 278.5,108.5 C 282.981,107.352 287.648,107.185 292.5,108C 293.571,108.852 294.571,109.685 295.5,110.5C 289.988,108.877 284.322,108.21 278.5,108.5 Z"/></g>
<g><path style="opacity:0.996" fill="#336f24" d="M 278.5,108.5 C 284.322,108.21 289.988,108.877 295.5,110.5C 298.678,111.211 301.678,112.378 304.5,114C 306.684,115.898 307.017,118.064 305.5,120.5C 292.143,130.011 279.476,140.511 267.5,152C 265.182,153.993 262.516,155.159 259.5,155.5C 258.876,155.083 258.543,154.416 258.5,153.5C 263.732,144.04 269.232,134.706 275,125.5C 276.085,120.563 276.752,115.563 277,110.5C 277.278,109.584 277.778,108.918 278.5,108.5 Z"/></g>
<g><path style="opacity:0.471" fill="#cac8c4" d="M 370.5,107.5 C 374.804,108.131 379.137,108.631 383.5,109C 384.38,110.356 384.714,111.856 384.5,113.5C 386.781,113.077 388.448,113.744 389.5,115.5C 387.167,115.5 384.833,115.5 382.5,115.5C 382.5,113.833 382.5,112.167 382.5,110.5C 378.076,110.728 374.076,109.728 370.5,107.5 Z"/></g>
<g><path style="opacity:0.996" fill="#3e423d" d="M 305.5,120.5 C 306.752,122.339 306.752,124.172 305.5,126C 292.582,135.581 280.248,145.914 268.5,157C 265.772,159.865 262.438,161.365 258.5,161.5C 258.517,159.435 258.85,157.435 259.5,155.5C 262.516,155.159 265.182,153.993 267.5,152C 279.476,140.511 292.143,130.011 305.5,120.5 Z"/></g>
<g><path style="opacity:0.114" fill="#cfcecb" d="M 91.5,110.5 C 91.2969,112.044 90.6302,113.378 89.5,114.5C 86.0205,116.812 83.0205,119.646 80.5,123C 77.8934,125.105 74.8934,125.938 71.5,125.5C 72.2194,131.721 70.2194,136.721 65.5,140.5C 66.8975,136.705 68.5642,133.039 70.5,129.5C 69.5721,128.232 69.4054,126.899 70,125.5C 73.3205,124.832 76.4872,123.665 79.5,122C 82.4925,118.008 85.8258,114.342 89.5,111C 90.0944,110.536 90.7611,110.369 91.5,110.5 Z"/></g>
<g><path style="opacity:0.188" fill="#c1bfbb" d="M 389.5,115.5 C 391.532,116.561 392.866,118.228 393.5,120.5C 398.447,123.123 402.78,126.456 406.5,130.5C 401.21,128.714 396.544,125.88 392.5,122C 390.829,120.157 389.829,117.991 389.5,115.5 Z"/></g>
<g><path style="opacity:0.996" fill="#326e23" d="M 232.5,152.5 C 230.985,157.497 227.651,159.33 222.5,158C 214.916,150.255 207.916,142.089 201.5,133.5C 198.284,128.519 199.784,126.519 206,127.5C 216.122,128.427 224.455,132.76 231,140.5C 232.354,144.363 232.854,148.363 232.5,152.5 Z"/></g>
<g><path style="opacity:0.996" fill="#41443f" d="M 201.5,133.5 C 207.916,142.089 214.916,150.255 222.5,158C 227.651,159.33 230.985,157.497 232.5,152.5C 233.774,160.712 230.441,164.546 222.5,164C 213.686,155.528 206.019,146.195 199.5,136C 199.639,134.699 200.305,133.866 201.5,133.5 Z"/></g>
<g><path style="opacity:0.016" fill="#d0ccca" d="M 407.5,130.5 C 411.728,133.561 415.061,137.394 417.5,142C 417.265,142.873 416.931,143.707 416.5,144.5C 421.617,147.291 424.283,151.625 424.5,157.5C 423.046,154.592 421.546,151.592 420,148.5C 418.22,147.406 416.386,146.406 414.5,145.5C 415.52,143.568 415.687,141.568 415,139.5C 411.858,136.874 409.358,133.874 407.5,130.5 Z"/></g>
<g><path style="opacity:0.996" fill="#56804e" d="M 350.5,153.5 C 341.8,153.289 333.133,153.623 324.5,154.5C 324.918,153.778 325.584,153.278 326.5,153C 334.677,152.177 342.677,152.344 350.5,153.5 Z"/></g>
<g><path style="opacity:0.996" fill="#316e22" d="M 350.5,153.5 C 358.617,154.786 365.45,158.452 371,164.5C 371.494,166.134 371.66,167.801 371.5,169.5C 363.368,172.586 355.035,173.253 346.5,171.5C 338.674,170.834 330.674,170.5 322.5,170.5C 311.288,170.29 300.288,170.956 289.5,172.5C 282.978,172.177 276.645,172.51 270.5,173.5C 254.57,174.156 238.903,175.823 223.5,178.5C 222.5,178.5 221.5,178.5 220.5,178.5C 206.979,179.815 193.645,181.482 180.5,183.5C 179.791,184.404 178.791,184.737 177.5,184.5C 174.15,184.335 170.817,184.502 167.5,185C 164.834,186.061 162.167,186.894 159.5,187.5C 153.252,188.892 146.918,189.558 140.5,189.5C 135.508,187.339 130.841,184.672 126.5,181.5C 124.576,179.91 124.243,178.076 125.5,176C 138.507,175.571 151.507,175.071 164.5,174.5C 174.05,174.216 183.384,173.216 192.5,171.5C 208.312,169.411 224.312,167.744 240.5,166.5C 245.68,166.153 250.68,165.487 255.5,164.5C 261.084,164.745 266.417,164.078 271.5,162.5C 289.156,160.104 306.823,157.438 324.5,154.5C 333.133,153.623 341.8,153.289 350.5,153.5 Z"/></g>
<g><path style="opacity:0.188" fill="#c8c6c2" d="M 60.5,150.5 C 60.6567,151.873 60.49,153.207 60,154.5C 54,165.833 48,177.167 42,188.5C 40.9308,196.602 40.0974,204.602 39.5,212.5C 39.5,206.833 39.5,201.167 39.5,195.5C 39.3379,193.473 39.5045,191.473 40,189.5C 46.8774,176.407 53.7108,163.407 60.5,150.5 Z"/></g>
<g><path style="opacity:0.996" fill="#587f4e" d="M 271.5,162.5 C 266.417,164.078 261.084,164.745 255.5,164.5C 260.598,163.043 265.931,162.376 271.5,162.5 Z"/></g>
<g><path style="opacity:0.996" fill="#67865f" d="M 255.5,164.5 C 250.68,165.487 245.68,166.153 240.5,166.5C 240.918,165.778 241.584,165.278 242.5,165C 246.821,164.501 251.154,164.334 255.5,164.5 Z"/></g>
<g><path style="opacity:0.996" fill="#314c2d" d="M 346.5,171.5 C 327.487,171.326 308.487,171.66 289.5,172.5C 300.288,170.956 311.288,170.29 322.5,170.5C 330.674,170.5 338.674,170.834 346.5,171.5 Z"/></g>
<g><path style="opacity:0.996" fill="#3f403e" d="M 371.5,169.5 C 371.917,172.079 371.25,174.246 369.5,176C 361.895,177.311 354.228,177.811 346.5,177.5C 338.674,176.834 330.674,176.5 322.5,176.5C 311.288,176.29 300.288,176.956 289.5,178.5C 276.485,178.572 263.485,179.072 250.5,180C 227.513,183.723 204.513,186.723 181.5,189C 169.217,190.39 157.217,192.89 145.5,196.5C 136.757,195.203 129.757,191.036 124.5,184C 124.639,182.699 125.305,181.866 126.5,181.5C 130.841,184.672 135.508,187.339 140.5,189.5C 147.022,190.998 153.355,190.331 159.5,187.5C 165.725,187.11 171.725,186.11 177.5,184.5C 178.791,184.737 179.791,184.404 180.5,183.5C 194.189,183.456 207.522,181.789 220.5,178.5C 221.5,178.5 222.5,178.5 223.5,178.5C 239.34,177.227 255.007,175.56 270.5,173.5C 276.645,172.51 282.978,172.177 289.5,172.5C 308.487,171.66 327.487,171.326 346.5,171.5C 355.035,173.253 363.368,172.586 371.5,169.5 Z"/></g>
<g><path style="opacity:0.227" fill="#dbdad7" d="M 424.5,159.5 C 426.327,163.587 427.66,167.92 428.5,172.5C 427.414,172.38 426.747,171.713 426.5,170.5C 425.574,166.87 424.907,163.203 424.5,159.5 Z"/></g>
<g><path style="opacity:0.996" fill="#58804e" d="M 192.5,171.5 C 183.384,173.216 174.05,174.216 164.5,174.5C 173.581,172.439 182.914,171.439 192.5,171.5 Z"/></g>
<g><path style="opacity:0.996" fill="#344731" d="M 270.5,173.5 C 255.007,175.56 239.34,177.227 223.5,178.5C 238.903,175.823 254.57,174.156 270.5,173.5 Z"/></g>
<g><path style="opacity:0.996" fill="#787672" d="M 346.5,177.5 C 327.486,177.309 308.486,177.642 289.5,178.5C 300.288,176.956 311.288,176.29 322.5,176.5C 330.674,176.5 338.674,176.834 346.5,177.5 Z"/></g>
<g><path style="opacity:0.996" fill="#344731" d="M 220.5,178.5 C 207.522,181.789 194.189,183.456 180.5,183.5C 193.645,181.482 206.979,179.815 220.5,178.5 Z"/></g>
<g><path style="opacity:0.996" fill="#316e22" d="M 319.5,195.5 C 319.147,199.913 318.314,204.246 317,208.5C 316.172,224.672 316.339,240.672 317.5,256.5C 318.777,277.496 320.111,298.496 321.5,319.5C 321.414,322.884 321.081,326.217 320.5,329.5C 318.467,337.737 314.967,345.404 310,352.5C 306.645,357.31 302.979,357.644 299,353.5C 294.356,343.363 288.523,334.03 281.5,325.5C 279.15,323.787 278.15,321.453 278.5,318.5C 284.198,320.342 290.031,321.675 296,322.5C 298.261,322.561 300.261,321.894 302,320.5C 304.06,306.97 304.893,293.303 304.5,279.5C 304.706,264.966 304.039,250.633 302.5,236.5C 302.95,226.725 302.284,217.059 300.5,207.5C 299.885,199.939 296.885,193.606 291.5,188.5C 291.261,186.533 291.594,184.699 292.5,183C 295.833,182.333 299.167,182.333 302.5,183C 306.468,185.32 310.468,187.653 314.5,190C 316.424,191.75 318.091,193.583 319.5,195.5 Z"/></g>
<g><path style="opacity:0.996" fill="#334930" d="M 177.5,184.5 C 171.725,186.11 165.725,187.11 159.5,187.5C 162.167,186.894 164.834,186.061 167.5,185C 170.817,184.502 174.15,184.335 177.5,184.5 Z"/></g>
<g><path style="opacity:0.996" fill="#2f5429" d="M 159.5,187.5 C 153.355,190.331 147.022,190.998 140.5,189.5C 146.918,189.558 153.252,188.892 159.5,187.5 Z"/></g>
<g><path style="opacity:0.068" fill="#ececeb" d="M 39.5,195.5 C 39.5,201.167 39.5,206.833 39.5,212.5C 39.415,214.929 38.415,216.929 36.5,218.5C 36.8627,219.183 37.1961,219.85 37.5,220.5C 36.0047,220.585 35.0047,219.919 34.5,218.5C 35.6667,216.833 36.8333,215.167 38,213.5C 38.1724,207.319 38.6724,201.319 39.5,195.5 Z"/></g>
<g><path style="opacity:0.996" fill="#326f23" d="M 234.5,322.5 C 231.196,327.326 228.03,332.326 225,337.5C 222.167,338.87 219.5,338.536 217,336.5C 213.175,327.851 207.675,320.518 200.5,314.5C 198.896,313.713 198.229,312.38 198.5,310.5C 204.436,311.807 210.436,312.307 216.5,312C 218.39,310.922 219.39,309.255 219.5,307C 220.205,303.196 220.538,299.363 220.5,295.5C 221.663,269.67 221.83,243.67 221,217.5C 220.79,215.942 220.29,214.609 219.5,213.5C 218.301,210.968 216.301,209.635 213.5,209.5C 209.656,210.922 205.656,211.922 201.5,212.5C 195.606,213.765 189.606,214.432 183.5,214.5C 183.175,222.019 183.508,229.352 184.5,236.5C 189.148,235.338 193.814,234.171 198.5,233C 204.883,231.021 209.55,232.854 212.5,238.5C 212.058,239.739 211.391,240.739 210.5,241.5C 206.402,241.918 202.402,242.751 198.5,244C 193.511,244.499 188.511,244.666 183.5,244.5C 183.5,246.833 183.5,249.167 183.5,251.5C 183.5,254.833 183.5,258.167 183.5,261.5C 182.532,263.607 182.198,265.941 182.5,268.5C 185.495,268.706 188.162,268.04 190.5,266.5C 195.911,264.632 201.577,264.132 207.5,265C 210.875,266.029 212.042,268.196 211,271.5C 210.617,272.056 210.117,272.389 209.5,272.5C 200.667,277.037 191.334,278.371 181.5,276.5C 181.5,278.167 181.5,279.833 181.5,281.5C 180.293,286.414 179.626,291.414 179.5,296.5C 178.423,302.219 177.089,307.885 175.5,313.5C 174.395,318.54 172.062,323.04 168.5,327C 165.16,327.824 162.827,326.657 161.5,323.5C 160.52,315.856 160.353,308.189 161,300.5C 166.602,289.587 169.436,277.92 169.5,265.5C 170.302,264.048 170.802,262.382 171,260.5C 171.499,255.177 171.666,249.844 171.5,244.5C 172.691,236.555 172.691,228.555 171.5,220.5C 172.039,216.584 170.706,213.584 167.5,211.5C 167.5,209.5 167.5,207.5 167.5,205.5C 174.378,207.156 181.378,207.656 188.5,207C 198.38,204.54 208.046,201.374 217.5,197.5C 225.04,199.023 231.873,202.023 238,206.5C 238.875,207.873 239.375,209.373 239.5,211C 238.333,215.5 237.167,220 236,224.5C 235.399,248.337 235.566,272.171 236.5,296C 236.689,304.958 236.022,313.791 234.5,322.5 Z"/></g>
<g><path style="opacity:0.996" fill="#40493e" d="M 291.5,188.5 C 296.885,193.606 299.885,199.939 300.5,207.5C 298.864,204.266 296.864,201.266 294.5,198.5C 292.497,195.488 291.497,192.155 291.5,188.5 Z"/></g>
<g><path style="opacity:0.942" fill="#c8c6c3" d="M 428.5,173.5 C 429.987,190.166 431.32,206.833 432.5,223.5C 431.188,221.304 430.021,218.97 429,216.5C 428.718,203.989 428.218,191.489 427.5,179C 427.506,176.967 427.839,175.134 428.5,173.5 Z"/></g>
<g><path style="opacity:0.996" fill="#336e24" d="M 276.5,215.5 C 276.056,222.827 275.723,230.16 275.5,237.5C 275.764,251.863 275.431,266.196 274.5,280.5C 273.531,282.663 272.698,284.996 272,287.5C 269.421,291.366 266.755,291.366 264,287.5C 263.243,285.685 262.41,284.019 261.5,282.5C 262.134,266.508 262.467,250.508 262.5,234.5C 261.7,226.616 259.366,219.283 255.5,212.5C 254.79,209.07 255.957,206.737 259,205.5C 265.713,207.436 271.546,210.769 276.5,215.5 Z"/></g>
<g><path style="opacity:0.996" fill="#3c403b" d="M 219.5,213.5 C 219.5,214.833 219.5,216.167 219.5,217.5C 217.693,216.385 215.693,215.719 213.5,215.5C 203.925,217.816 194.258,219.482 184.5,220.5C 184.5,218.833 184.5,217.167 184.5,215.5C 190.556,215.873 196.223,214.873 201.5,212.5C 205.656,211.922 209.656,210.922 213.5,209.5C 216.301,209.635 218.301,210.968 219.5,213.5 Z"/></g>
<g><path style="opacity:0.996" fill="#3f4c3c" d="M 167.5,211.5 C 170.706,213.584 172.039,216.584 171.5,220.5C 167.991,218.621 166.658,215.621 167.5,211.5 Z"/></g>
<g><path style="opacity:0.996" fill="#3e5b39" d="M 201.5,212.5 C 196.223,214.873 190.556,215.873 184.5,215.5C 184.5,217.167 184.5,218.833 184.5,220.5C 184.5,225.833 184.5,231.167 184.5,236.5C 183.508,229.352 183.175,222.019 183.5,214.5C 189.606,214.432 195.606,213.765 201.5,212.5 Z"/></g>
<g><path style="opacity:0.137" fill="#d3d3d1" d="M 37.5,220.5 C 38.7562,220.461 39.7562,220.961 40.5,222C 37.3605,224.445 35.3605,227.612 34.5,231.5C 35.9232,236.991 37.5898,242.324 39.5,247.5C 38.4879,251.797 38.4879,256.13 39.5,260.5C 35.8985,255.887 35.5652,250.887 38.5,245.5C 32.3758,237.335 32.0425,229.001 37.5,220.5 Z"/></g>
<g><path style="opacity:0.996" fill="#496f40" d="M 219.5,213.5 C 220.29,214.609 220.79,215.942 221,217.5C 221.83,243.67 221.663,269.67 220.5,295.5C 220.797,269.474 220.464,243.474 219.5,217.5C 219.5,216.167 219.5,214.833 219.5,213.5 Z"/></g>
<g><path style="opacity:0.996" fill="#707d69" d="M 319.5,195.5 C 320.995,200.552 320.495,205.552 318,210.5C 317.5,225.83 317.333,241.163 317.5,256.5C 316.339,240.672 316.172,224.672 317,208.5C 318.314,204.246 319.147,199.913 319.5,195.5 Z"/></g>
<g><path style="opacity:0.996" fill="#697662" d="M 294.5,198.5 C 296.864,201.266 298.864,204.266 300.5,207.5C 302.284,217.059 302.95,226.725 302.5,236.5C 301.742,228.31 300.909,219.977 300,211.5C 298.345,207.038 296.511,202.704 294.5,198.5 Z"/></g>
<g><path style="opacity:0.996" fill="#50594c" d="M 255.5,212.5 C 259.366,219.283 261.7,226.616 262.5,234.5C 259.388,227.493 257.054,220.16 255.5,212.5 Z"/></g>
<g><path style="opacity:0.996" fill="#55714e" d="M 276.5,215.5 C 277.783,222.884 277.449,230.217 275.5,237.5C 275.723,230.16 276.056,222.827 276.5,215.5 Z"/></g>
<g><path style="opacity:0.992" fill="#cbcac7" d="M 432.5,225.5 C 439.006,232.521 442.173,240.855 442,250.5C 441.303,252.584 440.136,254.251 438.5,255.5C 440.231,251.318 440.731,246.984 440,242.5C 436.86,237.169 434.36,231.502 432.5,225.5 Z"/></g>
<g><path style="opacity:0.996" fill="#3f3f3e" d="M 210.5,241.5 C 211.965,243.546 211.632,245.38 209.5,247C 201.45,250.11 193.116,251.61 184.5,251.5C 184.5,249.5 184.5,247.5 184.5,245.5C 193.661,246.325 202.327,244.992 210.5,241.5 Z"/></g>
<g><path style="opacity:0.996" fill="#30522b" d="M 210.5,241.5 C 202.327,244.992 193.661,246.325 184.5,245.5C 184.5,247.5 184.5,249.5 184.5,251.5C 184.167,251.5 183.833,251.5 183.5,251.5C 183.5,249.167 183.5,246.833 183.5,244.5C 188.511,244.666 193.511,244.499 198.5,244C 202.402,242.751 206.402,241.918 210.5,241.5 Z"/></g>
<g><path style="opacity:0.994" fill="#151514" d="M 39.5,247.5 C 41.4308,248.259 42.9308,249.593 44,251.5C 45.4385,256.762 45.7718,262.096 45,267.5C 43.629,264.734 41.7957,262.401 39.5,260.5C 38.4879,256.13 38.4879,251.797 39.5,247.5 Z"/></g>
<g><path style="opacity:0.996" fill="#7d8a74" d="M 171.5,244.5 C 171.666,249.844 171.499,255.177 171,260.5C 170.802,262.382 170.302,264.048 169.5,265.5C 169.334,260.156 169.501,254.823 170,249.5C 170.198,247.618 170.698,245.952 171.5,244.5 Z"/></g>
<g><path style="opacity:0.094" fill="#e1dfde" d="M 438.5,255.5 C 438.92,257.094 439.586,258.594 440.5,260C 439.104,264.19 438.104,268.357 437.5,272.5C 437.5,272.167 437.5,271.833 437.5,271.5C 437.5,269.167 437.5,266.833 437.5,264.5C 438.981,261.77 438.647,259.27 436.5,257C 436.836,255.97 437.503,255.47 438.5,255.5 Z"/></g>
<g><path style="opacity:0.996" fill="#555351" d="M 437.5,264.5 C 437.5,266.833 437.5,269.167 437.5,271.5C 436.275,270.848 435.608,269.681 435.5,268C 435.608,266.319 436.275,265.152 437.5,264.5 Z"/></g>
<g><path style="opacity:0.996" fill="#527949" d="M 183.5,261.5 C 183.5,263.5 183.5,265.5 183.5,267.5C 185.806,267.007 188.139,266.674 190.5,266.5C 188.162,268.04 185.495,268.706 182.5,268.5C 182.198,265.941 182.532,263.607 183.5,261.5 Z"/></g>
<g><path style="opacity:0.996" fill="#3c403b" d="M 209.5,272.5 C 211.14,273.79 211.64,275.457 211,277.5C 201.627,282.247 191.794,283.58 181.5,281.5C 181.5,279.833 181.5,278.167 181.5,276.5C 191.334,278.371 200.667,277.037 209.5,272.5 Z"/></g>
<g><path style="opacity:0.996" fill="#454943" d="M 274.5,280.5 C 274.817,283.572 274.484,286.572 273.5,289.5C 269.35,298.86 265.517,298.527 262,288.5C 261.505,286.527 261.338,284.527 261.5,282.5C 262.41,284.019 263.243,285.685 264,287.5C 266.755,291.366 269.421,291.366 272,287.5C 272.698,284.996 273.531,282.663 274.5,280.5 Z"/></g>
<g><path style="opacity:0.188" fill="#dfdede" d="M 437.5,272.5 C 437.665,276.182 437.499,279.848 437,283.5C 435.315,291.262 433.815,298.928 432.5,306.5C 432.5,305.5 432.5,304.5 432.5,303.5C 432.5,300.5 432.5,297.5 432.5,294.5C 435.206,287.292 436.872,279.958 437.5,272.5 Z"/></g>
<g><path style="opacity:0.997" fill="#070707" d="M 432.5,294.5 C 432.5,297.5 432.5,300.5 432.5,303.5C 423.926,323.674 414.092,343.341 403,362.5C 401.851,365.393 401.351,368.393 401.5,371.5C 399.473,371.338 397.473,371.505 395.5,372C 394.944,372.383 394.611,372.883 394.5,373.5C 388.035,379.464 381.702,385.631 375.5,392C 362.516,401.826 349.183,411.159 335.5,420C 330.351,424.425 325.351,429.092 320.5,434C 317.329,435.037 314.829,434.204 313,431.5C 307.41,437.056 300.576,439.056 292.5,437.5C 292.389,436.883 292.056,436.383 291.5,436C 288.964,435.814 286.631,435.314 284.5,434.5C 277.345,433.345 270.012,433.178 262.5,434C 261.584,434.278 260.918,434.778 260.5,435.5C 259.5,435.5 258.5,435.5 257.5,435.5C 244.69,437.374 232.023,436.707 219.5,433.5C 213.406,435.712 207.406,438.212 201.5,441C 193.769,443.108 186.102,442.942 178.5,440.5C 168.558,436.198 158.891,431.531 149.5,426.5C 147.491,424.935 145.157,423.935 142.5,423.5C 139.947,422.113 137.614,420.28 135.5,418C 134.552,417.517 133.552,417.351 132.5,417.5C 131.341,415.75 129.674,414.75 127.5,414.5C 126.26,412.012 124.26,410.179 121.5,409C 119.037,405.535 116.204,402.369 113,399.5C 114.289,393.015 111.789,389.348 105.5,388.5C 102.375,387.521 99.0419,387.187 95.5,387.5C 95.5,385.833 95.5,384.167 95.5,382.5C 93.396,382.799 91.396,382.466 89.5,381.5C 88.7515,379.668 87.7515,378.001 86.5,376.5C 77.9104,371.455 70.4104,365.122 64,357.5C 63.8195,355.512 63.9862,353.512 64.5,351.5C 62.2776,351.822 60.4443,351.155 59,349.5C 57.9066,346.691 56.7399,344.024 55.5,341.5C 55.5,340.5 55.5,339.5 55.5,338.5C 54.7417,335.648 54.7417,332.981 55.5,330.5C 57.296,331.794 59.296,332.794 61.5,333.5C 59.876,334.869 59.376,336.536 60,338.5C 66.1939,345.66 73.3606,351.494 81.5,356C 83.4641,357.451 84.7974,359.284 85.5,361.5C 86.4989,365.498 88.8322,366.498 92.5,364.5C 92.2322,366.099 92.5655,367.432 93.5,368.5C 98.7298,368.44 103.73,369.44 108.5,371.5C 109.065,373.952 109.732,376.285 110.5,378.5C 111.513,381.689 113.18,384.523 115.5,387C 133.014,401.978 152.68,413.478 174.5,421.5C 176.858,423.129 179.524,424.295 182.5,425C 187.352,425.815 192.019,425.648 196.5,424.5C 204.366,422.486 211.866,419.486 219,415.5C 230.358,418.01 241.858,419.01 253.5,418.5C 263.486,417.834 273.486,417.501 283.5,417.5C 291.148,418.498 298.814,418.998 306.5,419C 309.579,417.752 312.246,415.919 314.5,413.5C 316.592,416.152 319.258,416.986 322.5,416C 327.479,410.689 332.813,405.689 338.5,401C 351.167,392.333 363.833,383.667 376.5,375C 383.395,367.937 390.395,361.103 397.5,354.5C 400.096,353.735 402.763,353.401 405.5,353.5C 405.5,350.833 405.5,348.167 405.5,345.5C 414.154,329.525 422.321,313.192 430,296.5C 430.708,295.619 431.542,294.953 432.5,294.5 Z"/></g>
<g><path style="opacity:0.459" fill="#d3d3d1" d="M 43.5,270.5 C 44.4959,270.414 45.3292,270.748 46,271.5C 47.6193,289.907 49.7859,308.241 52.5,326.5C 52.5023,330.874 53.5023,334.874 55.5,338.5C 55.5,339.5 55.5,340.5 55.5,341.5C 55.5,342.167 55.5,342.833 55.5,343.5C 53.7383,340.497 52.5717,337.163 52,333.5C 48.3742,312.559 45.5409,291.559 43.5,270.5 Z"/></g>
<g><path style="opacity:0.996" fill="#61675c" d="M 179.5,296.5 C 179.535,305.943 177.869,314.943 174.5,323.5C 175.051,320.193 175.384,316.86 175.5,313.5C 177.089,307.885 178.423,302.219 179.5,296.5 Z"/></g>
<g><path style="opacity:0.996" fill="#41453f" d="M 175.5,313.5 C 175.384,316.86 175.051,320.193 174.5,323.5C 172.774,325.942 171.274,328.609 170,331.5C 167.925,333.648 165.592,333.982 163,332.5C 162.047,329.568 161.547,326.568 161.5,323.5C 162.827,326.657 165.16,327.824 168.5,327C 172.062,323.04 174.395,318.54 175.5,313.5 Z"/></g>
<g><path style="opacity:0.933" fill="#474746" d="M 52.5,326.5 C 54.9118,326.694 55.9118,328.027 55.5,330.5C 54.7417,332.981 54.7417,335.648 55.5,338.5C 53.5023,334.874 52.5023,330.874 52.5,326.5 Z"/></g>
<g><path style="opacity:0.996" fill="#3f443e" d="M 200.5,314.5 C 207.675,320.518 213.175,327.851 217,336.5C 219.5,338.536 222.167,338.87 225,337.5C 228.03,332.326 231.196,327.326 234.5,322.5C 234.66,324.199 234.494,325.866 234,327.5C 231.667,331.833 229.333,336.167 227,340.5C 223.982,345.265 220.649,345.598 217,341.5C 212.15,332.636 205.984,324.803 198.5,318C 199.429,316.923 200.096,315.756 200.5,314.5 Z"/></g>
<g><path style="opacity:0.055" fill="#ababab" d="M 432.5,303.5 C 432.5,304.5 432.5,305.5 432.5,306.5C 432.657,307.873 432.49,309.207 432,310.5C 422.922,328.989 413.589,347.323 404,365.5C 403.818,368.226 403.318,370.893 402.5,373.5C 399.402,373.131 396.402,373.964 393.5,376C 388.017,382.65 382.017,388.817 375.5,394.5C 363.524,403.49 351.191,411.99 338.5,420C 332.418,425.353 326.418,430.686 320.5,436C 317.631,436.377 315.131,435.544 313,433.5C 310.975,436.438 308.142,438.272 304.5,439C 300.244,439.652 296.244,439.152 292.5,437.5C 300.576,439.056 307.41,437.056 313,431.5C 314.829,434.204 317.329,435.037 320.5,434C 325.351,429.092 330.351,424.425 335.5,420C 349.183,411.159 362.516,401.826 375.5,392C 381.702,385.631 388.035,379.464 394.5,373.5C 397.01,373.073 399.343,372.407 401.5,371.5C 401.351,368.393 401.851,365.393 403,362.5C 414.092,343.341 423.926,323.674 432.5,303.5 Z"/></g>
<g><path style="opacity:0.996" fill="#3f443d" d="M 281.5,325.5 C 288.523,334.03 294.356,343.363 299,353.5C 302.979,357.644 306.645,357.31 310,352.5C 314.967,345.404 318.467,337.737 320.5,329.5C 319.562,341.705 315.062,352.371 307,361.5C 303.769,363.09 301.103,362.423 299,359.5C 293.584,347.592 286.751,336.592 278.5,326.5C 279.325,325.614 280.325,325.281 281.5,325.5 Z"/></g>
<g><path style="opacity:0.996" fill="#494744" d="M 405.5,345.5 C 405.5,348.167 405.5,350.833 405.5,353.5C 402.763,353.401 400.096,353.735 397.5,354.5C 397.611,353.883 397.944,353.383 398.5,353C 400.473,352.505 402.473,352.338 404.5,352.5C 404.198,349.941 404.532,347.607 405.5,345.5 Z"/></g>
<g><path style="opacity:0.996" fill="#3b3937" d="M 85.5,361.5 C 87.8201,363.226 90.4867,363.893 93.5,363.5C 93.5,365.167 93.5,366.833 93.5,368.5C 92.5655,367.432 92.2322,366.099 92.5,364.5C 88.8322,366.498 86.4989,365.498 85.5,361.5 Z"/></g>
<g><path style="opacity:0.69" fill="#5d5d5d" d="M 401.5,371.5 C 399.343,372.407 397.01,373.073 394.5,373.5C 394.611,372.883 394.944,372.383 395.5,372C 397.473,371.505 399.473,371.338 401.5,371.5 Z"/></g>
<g><path style="opacity:0.996" fill="#4f4d4a" d="M 108.5,371.5 C 110.344,373.279 111.01,375.612 110.5,378.5C 109.732,376.285 109.065,373.952 108.5,371.5 Z"/></g>
<g><path style="opacity:0.161" fill="#bababa" d="M 55.5,341.5 C 56.7399,344.024 57.9066,346.691 59,349.5C 60.4443,351.155 62.2776,351.822 64.5,351.5C 63.9862,353.512 63.8195,355.512 64,357.5C 70.4104,365.122 77.9104,371.455 86.5,376.5C 87.7515,378.001 88.7515,379.668 89.5,381.5C 91.396,382.466 93.396,382.799 95.5,382.5C 95.5,384.167 95.5,385.833 95.5,387.5C 99.0419,387.187 102.375,387.521 105.5,388.5C 106.167,389.167 106.833,389.833 107.5,390.5C 103.469,389.996 99.469,389.33 95.5,388.5C 94.5853,387.672 93.9186,386.672 93.5,385.5C 89.0922,384.208 86.0922,381.375 84.5,377C 72.1858,370.019 62.6858,360.519 56,348.5C 55.5065,346.866 55.3398,345.199 55.5,343.5C 55.5,342.833 55.5,342.167 55.5,341.5 Z"/></g>
<g><path style="opacity:0.173" fill="#949494" d="M 105.5,388.5 C 111.789,389.348 114.289,393.015 113,399.5C 116.204,402.369 119.037,405.535 121.5,409C 124.26,410.179 126.26,412.012 127.5,414.5C 120.158,410.657 114.658,404.99 111,397.5C 110.505,395.527 110.338,393.527 110.5,391.5C 109.209,391.737 108.209,391.404 107.5,390.5C 106.833,389.833 106.167,389.167 105.5,388.5 Z"/></g>
<g><path style="opacity:0.063" fill="#c8c8c8" d="M 127.5,414.5 C 129.674,414.75 131.341,415.75 132.5,417.5C 132.5,417.833 132.5,418.167 132.5,418.5C 130.611,417.396 128.945,416.063 127.5,414.5 Z"/></g>
<g><path style="opacity:0.996" fill="#292827" d="M 283.5,417.5 C 273.486,417.501 263.486,417.834 253.5,418.5C 259.608,417.077 265.941,416.411 272.5,416.5C 276.349,416.501 280.016,416.835 283.5,417.5 Z"/></g>
<g><path style="opacity:0.09" fill="#979797" d="M 132.5,417.5 C 133.552,417.351 134.552,417.517 135.5,418C 137.614,420.28 139.947,422.113 142.5,423.5C 138.678,422.646 135.344,420.979 132.5,418.5C 132.5,418.167 132.5,417.833 132.5,417.5 Z"/></g>
<g><path style="opacity:0.835" fill="#616160" d="M 142.5,423.5 C 145.157,423.935 147.491,424.935 149.5,426.5C 148.5,426.5 147.5,426.5 146.5,426.5C 144.368,426.446 143.035,425.446 142.5,423.5 Z"/></g>
<g><path style="opacity:0.996" fill="#41403d" d="M 174.5,421.5 C 177.89,422.023 181.223,422.857 184.5,424C 188.486,424.499 192.486,424.666 196.5,424.5C 192.019,425.648 187.352,425.815 182.5,425C 179.524,424.295 176.858,423.129 174.5,421.5 Z"/></g>
<g><path style="opacity:0.2" fill="#aaaaaa" d="M 146.5,426.5 C 147.5,426.5 148.5,426.5 149.5,426.5C 158.891,431.531 168.558,436.198 178.5,440.5C 186.102,442.942 193.769,443.108 201.5,441C 207.406,438.212 213.406,435.712 219.5,433.5C 232.023,436.707 244.69,437.374 257.5,435.5C 257.5,436.167 257.5,436.833 257.5,437.5C 245.192,439.276 233.025,438.61 221,435.5C 214.645,438.177 208.145,440.677 201.5,443C 194.167,443.667 186.833,443.667 179.5,443C 168.16,437.997 157.16,432.497 146.5,426.5 Z"/></g>
<g><path style="opacity:0.955" fill="#313131" d="M 284.5,434.5 C 276.479,434.442 268.479,434.776 260.5,435.5C 260.918,434.778 261.584,434.278 262.5,434C 270.012,433.178 277.345,433.345 284.5,434.5 Z"/></g>
<g><path style="opacity:0.008" fill="#d6d6d5" d="M 284.5,434.5 C 286.631,435.314 288.964,435.814 291.5,436C 292.056,436.383 292.389,436.883 292.5,437.5C 280.784,436.23 269.117,436.23 257.5,437.5C 257.5,436.833 257.5,436.167 257.5,435.5C 258.5,435.5 259.5,435.5 260.5,435.5C 268.479,434.776 276.479,434.442 284.5,434.5 Z"/></g>
</svg>
