<?xml version="1.0" encoding="UTF-8"?>
<!DOCTYPE svg PUBLIC "-//W3C//DTD SVG 1.1//EN" "http://www.w3.org/Graphics/SVG/1.1/DTD/svg11.dtd">
<svg xmlns="http://www.w3.org/2000/svg" version="1.1" width="60px" height="60px" style="shape-rendering:geometricPrecision; text-rendering:geometricPrecision; image-rendering:optimizeQuality; fill-rule:evenodd; clip-rule:evenodd" xmlns:xlink="http://www.w3.org/1999/xlink">
<g><path style="opacity:1" fill="#000000" d="M 18.5,3.5 C 25.8409,3.33368 33.1742,3.50034 40.5,4C 45.3333,8.83333 50.1667,13.6667 55,18.5C 55.6667,25.8333 55.6667,33.1667 55,40.5C 50.1667,45.3333 45.3333,50.1667 40.5,55C 33.1667,55.6667 25.8333,55.6667 18.5,55C 13.6667,50.1667 8.83333,45.3333 4,40.5C 3.33333,33.1667 3.33333,25.8333 4,18.5C 9.03651,13.6313 13.8698,8.63128 18.5,3.5 Z"/></g>
<g><path style="opacity:1" fill="#807f7f" d="M 19.5,5.5 C 26.175,5.33375 32.8417,5.50042 39.5,6C 44,10.5 48.5,15 53,19.5C 53.6667,26.1667 53.6667,32.8333 53,39.5C 48.5,44 44,48.5 39.5,53C 32.8333,53.6667 26.1667,53.6667 19.5,53C 15,48.5 10.5,44 6,39.5C 5.33333,32.8333 5.33333,26.1667 6,19.5C 10.7033,14.9645 15.2033,10.2979 19.5,5.5 Z"/></g>
<g><path style="opacity:1" fill="#fb0a06" d="M 40.5,38.5 C 39.4168,38.5394 38.4168,38.8728 37.5,39.5C 35.6973,37.7953 35.0306,35.962 35.5,34C 34.365,33.2506 33.365,33.4173 32.5,34.5C 35.2733,37.245 34.94,39.245 31.5,40.5C 30.1192,37.7384 28.9525,35.405 28,33.5C 27.5,33.8333 27,34.1667 26.5,34.5C 27.5771,36.7294 28.2437,39.0628 28.5,41.5C 27.1779,41.33 26.0113,41.6634 25,42.5C 24.04,40.0197 23.2066,37.5197 22.5,35C 25.1208,34.0944 24.9541,33.5944 22,33.5C 18.8461,33.4916 18.6794,34.1582 21.5,35.5C 20.5272,38.7789 19.0272,41.7789 17,44.5C 15.7453,43.7894 14.5786,42.956 13.5,42C 14.7938,39.913 15.9605,37.7463 17,35.5C 17.4996,28.5079 17.6663,21.5079 17.5,14.5C 26.8333,14.5 36.1667,14.5 45.5,14.5C 45.5,15.5 45.5,16.5 45.5,17.5C 41.4454,17.1758 37.4454,17.5091 33.5,18.5C 37.1073,19.4892 40.774,19.8226 44.5,19.5C 44.5,20.5 44.5,21.5 44.5,22.5C 29.8333,23.1667 29.8333,23.8333 44.5,24.5C 44.5,25.5 44.5,26.5 44.5,27.5C 40.8333,27.5 37.1667,27.5 33.5,27.5C 33.5,28.5 33.5,29.5 33.5,30.5C 37.5,30.5 41.5,30.5 45.5,30.5C 45.6646,33.5184 45.498,36.5184 45,39.5C 44.7265,41.3289 43.8932,42.8289 42.5,44C 39.8333,44.6667 37.1667,44.6667 34.5,44C 33.6634,42.9887 33.33,41.8221 33.5,40.5C 36.3878,41.0102 38.7211,40.3435 40.5,38.5 Z"/></g>
<g><path style="opacity:1" fill="#7f807f" d="M 21.5,17.5 C 24.2469,17.1866 26.9135,17.52 29.5,18.5C 28.1667,18.8333 26.8333,19.1667 25.5,19.5C 23.6672,19.4146 22.3339,18.7479 21.5,17.5 Z"/></g>
<g><path style="opacity:1" fill="#7f807f" d="M 21.5,22.5 C 24.2469,22.1866 26.9135,22.52 29.5,23.5C 28.1667,23.8333 26.8333,24.1667 25.5,24.5C 23.6672,24.4146 22.3339,23.7479 21.5,22.5 Z"/></g>
<g><path style="opacity:1" fill="#7f807f" d="M 21.5,27.5 C 24.1667,27.5 26.8333,27.5 29.5,27.5C 29.5,28.5 29.5,29.5 29.5,30.5C 26.8333,30.5 24.1667,30.5 21.5,30.5C 21.5,29.5 21.5,28.5 21.5,27.5 Z"/></g>
<g><path style="opacity:1" fill="#907271" d="M 40.5,38.5 C 39.9332,36.9705 39.2666,35.4705 38.5,34C 39.448,33.5172 40.448,33.3505 41.5,33.5C 41.7845,35.4147 41.4511,37.0813 40.5,38.5 Z"/></g>
</svg>
