<?xml version="1.0" encoding="UTF-8"?>
<!DOCTYPE svg PUBLIC "-//W3C//DTD SVG 1.1//EN" "http://www.w3.org/Graphics/SVG/1.1/DTD/svg11.dtd">
<svg xmlns="http://www.w3.org/2000/svg" version="1.1" width="470px" height="462px" style="shape-rendering:geometricPrecision; text-rendering:geometricPrecision; image-rendering:optimizeQuality; fill-rule:evenodd; clip-rule:evenodd" xmlns:xlink="http://www.w3.org/1999/xlink">
<g><path style="opacity:0.996" fill="#97948e" d="M 366.5,105.5 C 367.343,107.173 368.676,108.34 370.5,109C 373.833,109.333 377.167,109.667 380.5,110C 381.38,111.356 381.714,112.856 381.5,114.5C 383.5,114.167 385.5,113.833 387.5,113.5C 387.307,116.475 388.307,118.975 390.5,121C 399.614,126.305 407.947,132.471 415.5,139.5C 416.705,140.672 416.705,142.005 415.5,143.5C 417.938,144.931 419.604,146.931 420.5,149.5C 425.372,171.883 427.538,194.55 427,217.5C 427.421,220.02 428.588,222.02 430.5,223.5C 432.674,226.515 434.341,229.849 435.5,233.5C 436.934,237.208 437.934,241.041 438.5,245C 438.681,249.311 437.348,252.978 434.5,256C 435.101,257.605 436.101,258.938 437.5,260C 436.226,260.977 436.226,261.811 437.5,262.5C 437.747,265.939 437.414,269.272 436.5,272.5C 434.732,276.044 433.898,280.044 434,284.5C 431.417,287.178 430.583,290.178 431.5,293.5C 430.624,293.369 429.957,293.702 429.5,294.5C 421.255,311.323 412.755,327.989 404,344.5C 403.503,347.146 403.336,349.813 403.5,352.5C 400.68,352.248 398.014,352.748 395.5,354C 388.473,361.027 381.473,368.027 374.5,375C 360.5,384.667 346.5,394.333 332.5,404C 328.527,407.973 324.527,411.973 320.5,416C 319.167,416.667 317.833,416.667 316.5,416C 315.601,414.764 314.434,413.93 313,413.5C 310.888,414.608 309.054,416.108 307.5,418C 301.463,418.697 295.463,418.53 289.5,417.5C 289.082,416.778 288.416,416.278 287.5,416C 278.324,415.176 269.324,415.343 260.5,416.5C 246.424,417.008 232.424,416.341 218.5,414.5C 216.645,414.34 215.312,415.007 214.5,416.5C 207.936,419.306 201.269,421.806 194.5,424C 188.04,424.92 181.707,424.42 175.5,422.5C 165.067,416.294 154.067,411.128 142.5,407C 130.856,400.022 120.189,391.856 110.5,382.5C 108.776,379.05 108.109,375.383 108.5,371.5C 105.689,371.174 103.022,370.341 100.5,369C 97.5184,368.502 94.5184,368.335 91.5,368.5C 91.5,366.5 91.5,364.5 91.5,362.5C 89.4012,363.231 87.4012,363.231 85.5,362.5C 84.1966,360.063 82.5299,357.896 80.5,356C 71.6459,351.15 63.9792,344.816 57.5,337C 58.1476,335.56 58.4809,334.06 58.5,332.5C 57.5,332.5 56.5,332.5 55.5,332.5C 55.046,329.86 53.8793,327.527 52,325.5C 52.1746,331.385 53.0079,337.218 54.5,343C 54.4301,343.765 54.0967,344.265 53.5,344.5C 50.2163,333.078 48.2163,321.412 47.5,309.5C 46.828,295.364 45.4946,281.364 43.5,267.5C 44.6378,264.696 44.8045,261.696 44,258.5C 42.7305,254.859 41.5639,251.192 40.5,247.5C 39.675,246.614 38.675,246.281 37.5,246.5C 37.6107,245.883 37.944,245.383 38.5,245C 36.1485,240.789 34.4818,236.289 33.5,231.5C 33.8795,228.418 34.5462,225.418 35.5,222.5C 36.4972,222.53 37.1639,222.03 37.5,221C 36.0235,218.651 36.1902,216.484 38,214.5C 37.8733,203.966 39.04,193.632 41.5,183.5C 43.6065,182.434 45.1065,180.767 46,178.5C 52.8531,164.122 60.1864,150.122 68,136.5C 69.5873,133.017 70.754,129.35 71.5,125.5C 73.0255,125.006 74.3588,124.339 75.5,123.5C 81.5758,116.922 87.9091,110.422 94.5,104C 110.957,92.531 127.291,81.031 143.5,69.5C 144.552,69.6495 145.552,69.4828 146.5,69C 148.585,64.5388 151.919,62.2055 156.5,62C 159.114,65.2319 161.448,64.8986 163.5,61C 166.344,59.5763 169.344,58.743 172.5,58.5C 181.67,60.8735 191.003,61.8735 200.5,61.5C 214.5,60.7727 228.5,60.106 242.5,59.5C 246.487,59.2839 250.32,59.9505 254,61.5C 263.848,56.2438 274.348,52.9105 285.5,51.5C 288.532,51.8064 291.532,52.3064 294.5,53C 312.853,60.6765 330.52,69.6765 347.5,80C 353.519,84.5966 359.019,89.7633 364,95.5C 365.064,98.799 365.898,102.132 366.5,105.5 Z"/></g>
<g><path style="opacity:0.435" fill="#cccac6" d="M 242.5,59.5 C 228.5,60.106 214.5,60.7727 200.5,61.5C 191.003,61.8735 181.67,60.8735 172.5,58.5C 169.344,58.743 166.344,59.5763 163.5,61C 161.448,64.8986 159.114,65.2319 156.5,62C 151.919,62.2055 148.585,64.5388 146.5,69C 145.552,69.4828 144.552,69.6495 143.5,69.5C 146.246,66.2494 149.246,63.0827 152.5,60C 155.18,59.6652 157.513,60.4986 159.5,62.5C 161.493,60.5014 163.827,59.0014 166.5,58C 176.962,58.5868 187.462,59.4202 198,60.5C 212.978,58.9121 227.812,58.5788 242.5,59.5 Z"/></g>
<g><path style="opacity:0.996" fill="#a53d2a" d="M 254.5,110.5 C 251.252,110.584 248.252,109.751 245.5,108C 241.179,107.501 236.846,107.334 232.5,107.5C 232.5,108.833 232.5,110.167 232.5,111.5C 230.774,107.09 232.441,105.09 237.5,105.5C 243.685,105.794 249.352,107.461 254.5,110.5 Z"/></g>
<g><path style="opacity:0.996" fill="#bd2b1b" d="M 254.5,110.5 C 260.463,111.804 263.129,115.471 262.5,121.5C 259.287,126.19 257.954,131.523 258.5,137.5C 258.18,140.898 258.513,144.232 259.5,147.5C 268.053,144.149 276.719,140.983 285.5,138C 293.278,135.259 301.278,134.259 309.5,135C 311.275,136.439 313.275,137.439 315.5,138C 316.38,139.356 316.714,140.856 316.5,142.5C 313.524,144.664 310.191,146.164 306.5,147C 290.513,151.609 274.179,153.942 257.5,154C 256.549,157.057 256.216,160.223 256.5,163.5C 256.3,172.506 255.966,181.506 255.5,190.5C 276.632,187.72 297.632,184.387 318.5,180.5C 326.132,179.642 333.799,179.309 341.5,179.5C 348.137,180.402 353.97,183.068 359,187.5C 359.49,188.793 359.657,190.127 359.5,191.5C 358.609,192.11 357.609,192.443 356.5,192.5C 336.198,192.552 315.864,192.719 295.5,193C 289.586,193.123 283.919,193.956 278.5,195.5C 266.963,195.726 255.63,197.226 244.5,200C 246.364,201.431 248.364,202.597 250.5,203.5C 252.771,205.266 254.937,207.266 257,209.5C 257.494,211.134 257.66,212.801 257.5,214.5C 256.736,216.74 255.902,219.073 255,221.5C 254.5,237.83 254.333,254.163 254.5,270.5C 252.845,274.346 250.512,277.846 247.5,281C 246.167,281.667 244.833,281.667 243.5,281C 242.303,278.985 240.97,277.151 239.5,275.5C 238.8,271.202 238.467,266.869 238.5,262.5C 240.067,256.747 240.9,250.747 241,244.5C 241.8,236.421 241.633,228.421 240.5,220.5C 240.664,217.813 240.497,215.146 240,212.5C 239.161,208.137 237.661,204.137 235.5,200.5C 231.731,200.244 228.064,200.577 224.5,201.5C 216.441,202.003 208.775,203.67 201.5,206.5C 186.321,207.802 171.654,210.802 157.5,215.5C 150.798,215.664 144.131,215.331 137.5,214.5C 135.632,213.737 133.965,212.737 132.5,211.5C 131.058,210.18 130.392,208.514 130.5,206.5C 150.942,205.556 171.275,203.723 191.5,201C 193.175,200.015 194.842,199.181 196.5,198.5C 197.161,196.866 197.494,195.033 197.5,193C 196.389,186.819 195.389,180.653 194.5,174.5C 194.652,163.499 190.986,154.166 183.5,146.5C 183.261,144.533 183.594,142.699 184.5,141C 192.254,141.196 199.588,143.196 206.5,147C 208.923,148.571 210.256,150.737 210.5,153.5C 209.732,154.263 209.232,155.263 209,156.5C 208.5,169.829 208.333,183.163 208.5,196.5C 211.713,196.81 214.713,196.477 217.5,195.5C 225.465,194.51 233.465,193.843 241.5,193.5C 241.821,172.758 241.488,152.091 240.5,131.5C 241.317,123.598 238.651,117.265 232.5,112.5C 232.5,112.167 232.5,111.833 232.5,111.5C 232.5,110.167 232.5,108.833 232.5,107.5C 236.846,107.334 241.179,107.501 245.5,108C 248.252,109.751 251.252,110.584 254.5,110.5 Z"/></g>
<g><path style="opacity:0.259" fill="#c9c8c5" d="M 366.5,105.5 C 371.361,107.09 376.361,108.257 381.5,109C 382.208,111.768 383.708,112.601 386,111.5C 386.717,112.044 387.217,112.711 387.5,113.5C 385.5,113.833 383.5,114.167 381.5,114.5C 381.714,112.856 381.38,111.356 380.5,110C 377.167,109.667 373.833,109.333 370.5,109C 368.676,108.34 367.343,107.173 366.5,105.5 Z"/></g>
<g><path style="opacity:0.996" fill="#55413b" d="M 232.5,112.5 C 238.651,117.265 241.317,123.598 240.5,131.5C 238.104,127.192 235.604,122.858 233,118.5C 232.505,116.527 232.338,114.527 232.5,112.5 Z"/></g>
<g><path style="opacity:0.302" fill="#cac8c5" d="M 387.5,113.5 C 391.858,119.706 397.524,124.54 404.5,128C 408.37,131.702 412.037,135.536 415.5,139.5C 407.947,132.471 399.614,126.305 390.5,121C 388.307,118.975 387.307,116.475 387.5,113.5 Z"/></g>
<g><path style="opacity:0.486" fill="#cac8c4" d="M 75.5,123.5 C 74.3588,124.339 73.0255,125.006 71.5,125.5C 70.754,129.35 69.5873,133.017 68,136.5C 60.1864,150.122 52.8531,164.122 46,178.5C 45.1065,180.767 43.6065,182.434 41.5,183.5C 49.7031,166.762 58.2031,150.095 67,133.5C 68.1989,130.274 68.6989,126.941 68.5,123.5C 70.8333,123.5 73.1667,123.5 75.5,123.5 Z"/></g>
<g><path style="opacity:0.996" fill="#6c4538" d="M 262.5,121.5 C 261.28,126.955 259.947,132.289 258.5,137.5C 257.954,131.523 259.287,126.19 262.5,121.5 Z"/></g>
<g><path style="opacity:0.996" fill="#443c39" d="M 316.5,142.5 C 316.662,144.527 316.495,146.527 316,148.5C 313.228,150.761 310.062,152.261 306.5,153C 298.753,154.416 291.086,156.082 283.5,158C 274.861,159.009 266.194,159.509 257.5,159.5C 257.768,161.099 257.434,162.432 256.5,163.5C 256.216,160.223 256.549,157.057 257.5,154C 274.179,153.942 290.513,151.609 306.5,147C 310.191,146.164 313.524,144.664 316.5,142.5 Z"/></g>
<g><path style="opacity:0.996" fill="#5a433b" d="M 183.5,146.5 C 190.986,154.166 194.652,163.499 194.5,174.5C 192.679,169.245 190.846,163.912 189,158.5C 185.263,155.361 183.43,151.361 183.5,146.5 Z"/></g>
<g><path style="opacity:0.996" fill="#855d4d" d="M 210.5,153.5 C 209.571,167.471 209.238,181.471 209.5,195.5C 212.167,195.5 214.833,195.5 217.5,195.5C 214.713,196.477 211.713,196.81 208.5,196.5C 208.333,183.163 208.5,169.829 209,156.5C 209.232,155.263 209.732,154.263 210.5,153.5 Z"/></g>
<g><path style="opacity:0.996" fill="#8f604e" d="M 341.5,179.5 C 333.799,179.309 326.132,179.642 318.5,180.5C 318.918,179.778 319.584,179.278 320.5,179C 327.679,178.179 334.679,178.345 341.5,179.5 Z"/></g>
<g><path style="opacity:0.996" fill="#9e2819" d="M 356.5,192.5 C 353.26,193.847 349.76,194.514 346,194.5C 323.47,193.064 300.97,193.398 278.5,195.5C 283.919,193.956 289.586,193.123 295.5,193C 315.864,192.719 336.198,192.552 356.5,192.5 Z"/></g>
<g><path style="opacity:0.996" fill="#443d3a" d="M 359.5,191.5 C 359.663,193.857 359.497,196.19 359,198.5C 356.595,199.274 354.095,199.774 351.5,200C 317.759,198.756 284.092,199.923 250.5,203.5C 248.364,202.597 246.364,201.431 244.5,200C 255.63,197.226 266.963,195.726 278.5,195.5C 300.97,193.398 323.47,193.064 346,194.5C 349.76,194.514 353.26,193.847 356.5,192.5C 357.609,192.443 358.609,192.11 359.5,191.5 Z"/></g>
<g><path style="opacity:0.996" fill="#453d3a" d="M 240.5,220.5 C 240.167,220.5 239.833,220.5 239.5,220.5C 238.827,215.99 237.661,211.657 236,207.5C 234.094,206.869 232.094,206.536 230,206.5C 218.82,208.187 207.654,210.021 196.5,212C 180.994,214.933 165.66,218.433 150.5,222.5C 144.381,222.377 138.548,221.043 133,218.5C 129.387,216.555 128.887,214.222 131.5,211.5C 131.833,211.5 132.167,211.5 132.5,211.5C 133.965,212.737 135.632,213.737 137.5,214.5C 141.311,216.493 145.478,217.493 150,217.5C 152.866,217.7 155.366,217.033 157.5,215.5C 171.654,210.802 186.321,207.802 201.5,206.5C 209.42,205.472 217.087,203.805 224.5,201.5C 228.064,200.577 231.731,200.244 235.5,200.5C 237.661,204.137 239.161,208.137 240,212.5C 240.497,215.146 240.664,217.813 240.5,220.5 Z"/></g>
<g><path style="opacity:0.533" fill="#b9b7b3" d="M 420.5,149.5 C 424.455,159.694 426.955,170.361 428,181.5C 428.927,195.507 429.76,209.507 430.5,223.5C 428.588,222.02 427.421,220.02 427,217.5C 427.538,194.55 425.372,171.883 420.5,149.5 Z"/></g>
<g><path style="opacity:0.996" fill="#643225" d="M 224.5,201.5 C 217.087,203.805 209.42,205.472 201.5,206.5C 208.775,203.67 216.441,202.003 224.5,201.5 Z"/></g>
<g><path style="opacity:0.996" fill="#a0412f" d="M 196.5,198.5 C 194.842,199.181 193.175,200.015 191.5,201C 171.275,203.723 150.942,205.556 130.5,206.5C 130.392,208.514 131.058,210.18 132.5,211.5C 132.167,211.5 131.833,211.5 131.5,211.5C 129.72,210.01 129.054,208.01 129.5,205.5C 151.968,204.064 174.301,201.731 196.5,198.5 Z"/></g>
<g><path style="opacity:0.18" fill="#cfcdcb" d="M 41.5,183.5 C 39.04,193.632 37.8733,203.966 38,214.5C 36.1902,216.484 36.0235,218.651 37.5,221C 37.1639,222.03 36.4972,222.53 35.5,222.5C 35.6107,221.883 35.944,221.383 36.5,221C 32.6646,218.805 32.498,216.305 36,213.5C 36.3333,207.167 36.6667,200.833 37,194.5C 38.0377,190.532 39.5377,186.865 41.5,183.5 Z"/></g>
<g><path style="opacity:0.996" fill="#be2b1b" d="M 320.5,231.5 C 311.404,239.673 304.237,249.339 299,260.5C 286.475,278.018 272.642,294.518 257.5,310C 228.389,336.104 194.389,351.937 155.5,357.5C 155.452,354.708 156.785,352.875 159.5,352C 196.371,339.813 228.205,319.646 255,291.5C 269.499,273.168 282.499,253.835 294,233.5C 295.978,226.968 297.311,220.302 298,213.5C 298.5,213 299,212.5 299.5,212C 302.41,211.554 305.077,212.221 307.5,214C 311.993,217.493 316.159,221.327 320,225.5C 320.495,227.473 320.662,229.473 320.5,231.5 Z"/></g>
<g><path style="opacity:0.996" fill="#8d2c1c" d="M 137.5,214.5 C 144.131,215.331 150.798,215.664 157.5,215.5C 155.366,217.033 152.866,217.7 150,217.5C 145.478,217.493 141.311,216.493 137.5,214.5 Z"/></g>
<g><path style="opacity:0.996" fill="#8f6f61" d="M 239.5,220.5 C 239.833,220.5 240.167,220.5 240.5,220.5C 241.633,228.421 241.8,236.421 241,244.5C 240.9,250.747 240.067,256.747 238.5,262.5C 239.318,248.516 239.651,234.516 239.5,220.5 Z"/></g>
<g><path style="opacity:0.996" fill="#bd2b1b" d="M 203.5,250.5 C 200.379,256.063 197.213,261.73 194,267.5C 190.895,273.608 186.229,277.941 180,280.5C 177.013,280.01 175.18,278.343 174.5,275.5C 172.98,264.541 176.48,255.541 185,248.5C 187.528,241.942 190.695,235.775 194.5,230C 198.944,229.75 201.778,231.916 203,236.5C 203.499,241.155 203.666,245.821 203.5,250.5 Z"/></g>
<g><path style="opacity:0.996" fill="#876356" d="M 257.5,214.5 C 256.036,233.279 255.036,251.946 254.5,270.5C 254.333,254.163 254.5,237.83 255,221.5C 255.902,219.073 256.736,216.74 257.5,214.5 Z"/></g>
<g><path style="opacity:0.68" fill="#bfbdba" d="M 435.5,233.5 C 440.176,238.561 441.676,244.561 440,251.5C 439.028,253.305 437.861,254.972 436.5,256.5C 437.313,257.814 438.313,258.981 439.5,260C 438.619,260.708 437.953,261.542 437.5,262.5C 436.226,261.811 436.226,260.977 437.5,260C 436.101,258.938 435.101,257.605 434.5,256C 437.348,252.978 438.681,249.311 438.5,245C 437.934,241.041 436.934,237.208 435.5,233.5 Z"/></g>
<g><path style="opacity:0.994" fill="#191919" d="M 37.5,246.5 C 38.675,246.281 39.675,246.614 40.5,247.5C 41.5639,251.192 42.7305,254.859 44,258.5C 44.8045,261.696 44.6378,264.696 43.5,267.5C 41.3596,263.897 39.193,260.23 37,256.5C 36.3412,253.112 36.5078,249.779 37.5,246.5 Z"/></g>
<g><path style="opacity:0.039" fill="#c6c6c3" d="M 35.5,222.5 C 34.5462,225.418 33.8795,228.418 33.5,231.5C 34.4818,236.289 36.1485,240.789 38.5,245C 37.944,245.383 37.6107,245.883 37.5,246.5C 36.5078,249.779 36.3412,253.112 37,256.5C 39.193,260.23 41.3596,263.897 43.5,267.5C 45.4946,281.364 46.828,295.364 47.5,309.5C 44.2449,296.851 42.7449,283.851 43,270.5C 40.4123,266.326 38.079,261.993 36,257.5C 35.2618,253.29 35.4285,249.124 36.5,245C 34.125,240.752 32.4584,236.252 31.5,231.5C 32.0658,228.045 33.3991,225.045 35.5,222.5 Z"/></g>
<g><path style="opacity:0.996" fill="#473f3c" d="M 203.5,250.5 C 203.455,254.346 202.622,258.013 201,261.5C 197.033,269.271 192.2,276.438 186.5,283C 178.078,287.757 174.078,285.257 174.5,275.5C 175.18,278.343 177.013,280.01 180,280.5C 186.229,277.941 190.895,273.608 194,267.5C 197.213,261.73 200.379,256.063 203.5,250.5 Z"/></g>
<g><path style="opacity:0.996" fill="#4b403c" d="M 254.5,270.5 C 254.194,276.925 251.861,282.425 247.5,287C 245.888,287.72 244.388,287.554 243,286.5C 240.758,283.207 239.591,279.54 239.5,275.5C 240.97,277.151 242.303,278.985 243.5,281C 244.833,281.667 246.167,281.667 247.5,281C 250.512,277.846 252.845,274.346 254.5,270.5 Z"/></g>
<g><path style="opacity:0.996" fill="#483e3a" d="M 320.5,231.5 C 302.168,265.064 278.835,295.231 250.5,322C 233.328,334.822 215.162,345.656 196,354.5C 185.071,356.941 174.238,359.774 163.5,363C 160.518,363.498 157.518,363.665 154.5,363.5C 154.561,360.95 155.894,359.45 158.5,359C 157.263,358.768 156.263,358.268 155.5,357.5C 194.389,351.937 228.389,336.104 257.5,310C 272.642,294.518 286.475,278.018 299,260.5C 304.237,249.339 311.404,239.673 320.5,231.5 Z"/></g>
<g><path style="opacity:0.996" fill="#070707" d="M 431.5,293.5 C 431.635,298.66 430.801,303.66 429,308.5C 422.781,322.605 415.781,336.271 408,349.5C 407.51,350.793 407.343,352.127 407.5,353.5C 406.624,353.369 405.957,353.702 405.5,354.5C 404.319,358.224 402.486,361.558 400,364.5C 399.503,366.81 399.337,369.143 399.5,371.5C 397.473,371.338 395.473,371.505 393.5,372C 377.371,389.255 359.038,403.922 338.5,416C 334.525,419.304 330.525,422.637 326.5,426C 324.859,427.129 323.859,428.629 323.5,430.5C 321.448,431.71 319.282,432.71 317,433.5C 315.072,433.067 313.239,432.4 311.5,431.5C 309.665,433.161 307.665,434.661 305.5,436C 300.416,436.778 295.416,436.611 290.5,435.5C 284.573,433.993 278.406,433.326 272,433.5C 263.628,433.49 255.461,434.156 247.5,435.5C 242.015,436.652 236.349,436.818 230.5,436C 226.71,434.688 222.877,433.522 219,432.5C 213.65,434.282 208.484,436.448 203.5,439C 195.648,442.091 187.648,442.757 179.5,441C 172.243,438.245 165.243,434.912 158.5,431C 157.207,430.51 155.873,430.343 154.5,430.5C 147.255,426.73 140.255,422.397 133.5,417.5C 132.311,416.571 130.978,416.238 129.5,416.5C 129.586,415.504 129.252,414.671 128.5,414C 125.444,412.144 122.444,410.311 119.5,408.5C 118.256,405.75 116.423,403.417 114,401.5C 111.776,397.809 109.943,394.142 108.5,390.5C 108.389,389.883 108.056,389.383 107.5,389C 102.809,388.056 98.1419,387.222 93.5,386.5C 93.5,385.167 93.5,383.833 93.5,382.5C 88.9789,381.84 85.6456,379.34 83.5,375C 79.9931,372.413 76.3265,370.08 72.5,368C 68.973,364.473 65.473,360.973 62,357.5C 61.3486,355.765 61.5153,354.098 62.5,352.5C 59.6252,350.433 56.9585,348.099 54.5,345.5C 53.8333,345.5 53.5,345.167 53.5,344.5C 54.0967,344.265 54.4301,343.765 54.5,343C 53.0079,337.218 52.1746,331.385 52,325.5C 53.8793,327.527 55.046,329.86 55.5,332.5C 56.5,332.5 57.5,332.5 58.5,332.5C 58.4809,334.06 58.1476,335.56 57.5,337C 63.9792,344.816 71.6459,351.15 80.5,356C 82.5299,357.896 84.1966,360.063 85.5,362.5C 87.4012,363.231 89.4012,363.231 91.5,362.5C 91.5,364.5 91.5,366.5 91.5,368.5C 94.5184,368.335 97.5184,368.502 100.5,369C 103.022,370.341 105.689,371.174 108.5,371.5C 108.109,375.383 108.776,379.05 110.5,382.5C 120.189,391.856 130.856,400.022 142.5,407C 154.067,411.128 165.067,416.294 175.5,422.5C 181.707,424.42 188.04,424.92 194.5,424C 201.269,421.806 207.936,419.306 214.5,416.5C 215.817,416.179 217.151,415.846 218.5,415.5C 232.574,418.999 246.574,419.333 260.5,416.5C 270.194,416.307 279.861,416.64 289.5,417.5C 295.463,418.53 301.463,418.697 307.5,418C 309.054,416.108 310.888,414.608 313,413.5C 314.434,413.93 315.601,414.764 316.5,416C 317.833,416.667 319.167,416.667 320.5,416C 324.527,411.973 328.527,407.973 332.5,404C 346.5,394.333 360.5,384.667 374.5,375C 381.473,368.027 388.473,361.027 395.5,354C 398.014,352.748 400.68,352.248 403.5,352.5C 403.336,349.813 403.503,347.146 404,344.5C 412.755,327.989 421.255,311.323 429.5,294.5C 429.957,293.702 430.624,293.369 431.5,293.5 Z"/></g>
<g><path style="opacity:0.173" fill="#aeadad" d="M 436.5,272.5 C 434.494,283.381 432.994,294.381 432,305.5C 424.855,322.161 416.688,338.161 407.5,353.5C 407.343,352.127 407.51,350.793 408,349.5C 415.781,336.271 422.781,322.605 429,308.5C 430.801,303.66 431.635,298.66 431.5,293.5C 430.583,290.178 431.417,287.178 434,284.5C 433.898,280.044 434.732,276.044 436.5,272.5 Z"/></g>
<g><path style="opacity:0.298" fill="#afafaf" d="M 54.5,345.5 C 56.9585,348.099 59.6252,350.433 62.5,352.5C 61.5153,354.098 61.3486,355.765 62,357.5C 65.473,360.973 68.973,364.473 72.5,368C 76.3265,370.08 79.9931,372.413 83.5,375C 85.6456,379.34 88.9789,381.84 93.5,382.5C 93.5,383.833 93.5,385.167 93.5,386.5C 88.7779,384.948 85.4446,381.782 83.5,377C 74.5001,372.009 66.6668,365.509 60,357.5C 59.2797,355.888 59.4464,354.388 60.5,353C 57.1828,351.52 55.1828,349.02 54.5,345.5 Z"/></g>
<g><path style="opacity:0.059" fill="#9d9d9d" d="M 407.5,353.5 C 406.342,357.806 404.509,361.806 402,365.5C 401.503,368.146 401.336,370.813 401.5,373.5C 398.813,373.336 396.146,373.503 393.5,374C 386.86,381.973 379.527,389.306 371.5,396C 355.294,407.264 339.294,418.764 323.5,430.5C 323.859,428.629 324.859,427.129 326.5,426C 330.525,422.637 334.525,419.304 338.5,416C 359.038,403.922 377.371,389.255 393.5,372C 395.473,371.505 397.473,371.338 399.5,371.5C 399.337,369.143 399.503,366.81 400,364.5C 402.486,361.558 404.319,358.224 405.5,354.5C 405.957,353.702 406.624,353.369 407.5,353.5 Z"/></g>
<g><path style="opacity:0.086" fill="#adadad" d="M 93.5,386.5 C 98.1419,387.222 102.809,388.056 107.5,389C 108.056,389.383 108.389,389.883 108.5,390.5C 103.108,389.733 98.1082,388.4 93.5,386.5 Z"/></g>
<g><path style="opacity:0.353" fill="#8b8b8b" d="M 108.5,390.5 C 109.943,394.142 111.776,397.809 114,401.5C 116.423,403.417 118.256,405.75 119.5,408.5C 112.801,404.451 109.135,398.451 108.5,390.5 Z"/></g>
<g><path style="opacity:0.012" fill="#9e9e9e" d="M 119.5,408.5 C 122.444,410.311 125.444,412.144 128.5,414C 129.252,414.671 129.586,415.504 129.5,416.5C 125.428,414.792 122.095,412.126 119.5,408.5 Z"/></g>
<g><path style="opacity:0.996" fill="#5e5c58" d="M 260.5,416.5 C 269.324,415.343 278.324,415.176 287.5,416C 288.416,416.278 289.082,416.778 289.5,417.5C 279.861,416.64 270.194,416.307 260.5,416.5 Z"/></g>
<g><path style="opacity:0.996" fill="#716e6a" d="M 260.5,416.5 C 246.574,419.333 232.574,418.999 218.5,415.5C 217.151,415.846 215.817,416.179 214.5,416.5C 215.312,415.007 216.645,414.34 218.5,414.5C 232.424,416.341 246.424,417.008 260.5,416.5 Z"/></g>
<g><path style="opacity:0.008" fill="#909090" d="M 129.5,416.5 C 130.978,416.238 132.311,416.571 133.5,417.5C 140.255,422.397 147.255,426.73 154.5,430.5C 145.179,427.493 136.846,422.827 129.5,416.5 Z"/></g>
<g><path style="opacity:0.294" fill="#a5a5a5" d="M 323.5,430.5 C 320.814,436.846 316.814,437.846 311.5,433.5C 308.513,436.886 304.68,438.553 300,438.5C 293.617,437.965 287.451,436.965 281.5,435.5C 284.5,435.5 287.5,435.5 290.5,435.5C 295.416,436.611 300.416,436.778 305.5,436C 307.665,434.661 309.665,433.161 311.5,431.5C 313.239,432.4 315.072,433.067 317,433.5C 319.282,432.71 321.448,431.71 323.5,430.5 Z"/></g>
<g><path style="opacity:0.439" fill="#9c9c9c" d="M 154.5,430.5 C 155.873,430.343 157.207,430.51 158.5,431C 165.243,434.912 172.243,438.245 179.5,441C 187.648,442.757 195.648,442.091 203.5,439C 208.484,436.448 213.65,434.282 219,432.5C 222.877,433.522 226.71,434.688 230.5,436C 236.349,436.818 242.015,436.652 247.5,435.5C 258.999,434.564 270.332,434.564 281.5,435.5C 268.162,436.034 254.829,436.7 241.5,437.5C 233.779,437.959 226.279,436.959 219,434.5C 214.097,436.469 209.264,438.636 204.5,441C 194.5,444.333 184.5,444.333 174.5,441C 167.614,437.726 160.947,434.226 154.5,430.5 Z"/></g>
<g><path style="opacity:0.731" fill="#393939" d="M 290.5,435.5 C 287.5,435.5 284.5,435.5 281.5,435.5C 270.332,434.564 258.999,434.564 247.5,435.5C 255.461,434.156 263.628,433.49 272,433.5C 278.406,433.326 284.573,433.993 290.5,435.5 Z"/></g>
</svg>
