<?xml version="1.0" encoding="UTF-8"?>
<!DOCTYPE svg PUBLIC "-//W3C//DTD SVG 1.1//EN" "http://www.w3.org/Graphics/SVG/1.1/DTD/svg11.dtd">
<svg xmlns="http://www.w3.org/2000/svg" version="1.1" width="60px" height="60px" style="shape-rendering:geometricPrecision; text-rendering:geometricPrecision; image-rendering:optimizeQuality; fill-rule:evenodd; clip-rule:evenodd" xmlns:xlink="http://www.w3.org/1999/xlink">
<g><path style="opacity:1" fill="#000000" d="M 18.5,3.5 C 25.8409,3.33368 33.1742,3.50034 40.5,4C 45.3333,8.83333 50.1667,13.6667 55,18.5C 55.6667,25.8333 55.6667,33.1667 55,40.5C 50.1667,45.3333 45.3333,50.1667 40.5,55C 33.1667,55.6667 25.8333,55.6667 18.5,55C 13.6667,50.1667 8.83333,45.3333 4,40.5C 3.33333,33.1667 3.33333,25.8333 4,18.5C 9.03651,13.6313 13.8698,8.63128 18.5,3.5 Z"/></g>
<g><path style="opacity:1" fill="#7f807f" d="M 19.5,5.5 C 26.175,5.33375 32.8417,5.50042 39.5,6C 44,10.5 48.5,15 53,19.5C 53.6667,26.1667 53.6667,32.8333 53,39.5C 48.5,44 44,48.5 39.5,53C 32.8333,53.6667 26.1667,53.6667 19.5,53C 15,48.5 10.5,44 6,39.5C 5.33333,32.8333 5.33333,26.1667 6,19.5C 10.7033,14.9645 15.2033,10.2979 19.5,5.5 Z"/></g>
<g><path style="opacity:1" fill="#008000" d="M 28.5,14.5 C 29.8333,14.5 31.1667,14.5 32.5,14.5C 32.5,18.1667 32.5,21.8333 32.5,25.5C 36.8333,25.5 41.1667,25.5 45.5,25.5C 45.5,26.8333 45.5,28.1667 45.5,29.5C 41.1667,29.5 36.8333,29.5 32.5,29.5C 32.5,33.1667 32.5,36.8333 32.5,40.5C 36.1667,40.5 39.8333,40.5 43.5,40.5C 43.5,41.8333 43.5,43.1667 43.5,44.5C 34.8333,44.5 26.1667,44.5 17.5,44.5C 17.5,43.1667 17.5,41.8333 17.5,40.5C 21.1667,40.5 24.8333,40.5 28.5,40.5C 28.5,36.8333 28.5,33.1667 28.5,29.5C 24.1667,29.5 19.8333,29.5 15.5,29.5C 15.5,28.1667 15.5,26.8333 15.5,25.5C 19.8333,25.5 24.1667,25.5 28.5,25.5C 28.5,21.8333 28.5,18.1667 28.5,14.5 Z"/></g>
</svg>
