<?xml version="1.0" encoding="UTF-8"?>
<!DOCTYPE svg PUBLIC "-//W3C//DTD SVG 1.1//EN" "http://www.w3.org/Graphics/SVG/1.1/DTD/svg11.dtd">
<svg xmlns="http://www.w3.org/2000/svg" version="1.1" width="472px" height="463px" style="shape-rendering:geometricPrecision; text-rendering:geometricPrecision; image-rendering:optimizeQuality; fill-rule:evenodd; clip-rule:evenodd" xmlns:xlink="http://www.w3.org/1999/xlink">
<g><path style="opacity:0.996" fill="#97948e" d="M 287.5,52.5 C 287.833,52.5 288.167,52.5 288.5,52.5C 293.95,56.8712 300.283,59.5378 307.5,60.5C 322.677,66.7557 337.01,74.589 350.5,84C 354.694,88.1937 358.86,92.3604 363,96.5C 363.943,99.8445 364.777,103.178 365.5,106.5C 365.881,107.931 366.881,108.764 368.5,109C 372.114,109.945 375.781,110.612 379.5,111C 380.38,112.356 380.714,113.856 380.5,115.5C 382.199,115.34 383.866,115.506 385.5,116C 388.219,120.896 392.219,124.063 397.5,125.5C 400.81,127.482 403.81,129.815 406.5,132.5C 408.783,135.797 411.116,139.131 413.5,142.5C 413.081,143.672 412.415,144.672 411.5,145.5C 413.908,146.453 416.075,147.787 418,149.5C 418.67,152.174 419.837,154.507 421.5,156.5C 422.167,156.5 422.5,156.833 422.5,157.5C 421.876,157.917 421.543,158.584 421.5,159.5C 423.052,169.199 424.552,178.865 426,188.5C 426.333,198.167 426.667,207.833 427,217.5C 427.794,220.471 428.461,223.471 429,226.5C 429.881,229.014 431.381,231.014 433.5,232.5C 435.588,234.336 436.921,236.669 437.5,239.5C 438.022,245.937 437.022,252.103 434.5,258C 435.406,260.352 435.74,262.519 435.5,264.5C 435.5,266.5 435.5,268.5 435.5,270.5C 433.845,275.212 433.012,280.212 433,285.5C 432.333,286.833 431.667,288.167 431,289.5C 430.501,294.823 430.334,300.156 430.5,305.5C 426.149,317.868 420.482,329.535 413.5,340.5C 414.374,337.081 415.54,333.748 417,330.5C 420.922,323.658 424.588,316.658 428,309.5C 429.29,304.89 429.624,300.223 429,295.5C 428.667,295.833 428.333,296.167 428,296.5C 421.954,308.859 415.954,321.193 410,333.5C 404.843,339.134 402.343,345.801 402.5,353.5C 399.351,353.211 396.351,353.711 393.5,355C 388.199,361.302 382.532,367.302 376.5,373C 363.167,382.333 349.833,391.667 336.5,401C 330.27,405.294 324.604,410.294 319.5,416C 316.83,416.543 314.33,416.043 312,414.5C 304.388,421.149 295.888,422.316 286.5,418C 274.486,417.358 262.486,417.524 250.5,418.5C 240.419,418.83 230.419,418.163 220.5,416.5C 218.712,415.378 216.712,415.211 214.5,416C 207.807,419.754 200.807,422.754 193.5,425C 187.109,425.758 180.776,425.424 174.5,424C 159.031,417.1 144.031,409.433 129.5,401C 121.086,395.921 113.919,389.421 108,381.5C 107.821,378.447 107.321,375.447 106.5,372.5C 101.434,370.213 96.1005,369.046 90.5,369C 89.6198,367.644 89.2865,366.144 89.5,364.5C 87.8008,364.66 86.1341,364.494 84.5,364C 82.8333,361.667 81.1667,359.333 79.5,357C 71.1395,352.31 63.6395,346.477 57,339.5C 56.6664,337.153 56.833,334.819 57.5,332.5C 53.7263,331.694 51.2263,329.361 50,325.5C 49.5172,326.448 49.3505,327.448 49.5,328.5C 45.752,308.799 43.0854,288.799 41.5,268.5C 43.6114,260.92 42.278,253.92 37.5,247.5C 35.7711,249.851 35.1044,252.518 35.5,255.5C 34.5386,253.735 34.2053,251.735 34.5,249.5C 34.6775,248.305 35.0109,247.138 35.5,246C 30.8896,239.731 29.7229,232.898 32,225.5C 32.4652,224.069 33.2986,222.903 34.5,222C 33.2899,220.961 32.2899,219.794 31.5,218.5C 34.9715,217.522 36.8048,215.188 37,211.5C 37.3333,204.833 37.6667,198.167 38,191.5C 45.0875,177.996 51.5875,164.33 57.5,150.5C 58.2638,147.982 59.2638,145.649 60.5,143.5C 65.6646,138.695 68.3313,132.695 68.5,125.5C 70.4147,125.784 72.0813,125.451 73.5,124.5C 74.552,124.649 75.552,124.483 76.5,124C 80.5683,119.914 84.235,115.747 87.5,111.5C 87.5106,109.983 88.1772,108.816 89.5,108C 106.324,94.7583 123.658,82.2583 141.5,70.5C 144.899,68.6117 147.899,66.1117 150.5,63C 153.17,62.4574 155.67,62.9574 158,64.5C 159.775,63.7297 161.275,62.563 162.5,61C 169.013,60.8279 175.347,60.3279 181.5,59.5C 182.167,59.5 182.5,59.8333 182.5,60.5C 182.611,61.1174 182.944,61.6174 183.5,62C 191.5,62.6667 199.5,62.6667 207.5,62C 208.737,61.7679 209.737,61.2679 210.5,60.5C 211.5,60.5 212.5,60.5 213.5,60.5C 223.833,60.5 234.167,60.5 244.5,60.5C 247.313,60.5481 249.979,61.2147 252.5,62.5C 255.629,60.6001 258.963,59.2667 262.5,58.5C 270.978,56.5955 279.311,54.5955 287.5,52.5 Z"/></g>
<g><path style="opacity:0.192" fill="#cfcdcb" d="M 287.5,52.5 C 279.311,54.5955 270.978,56.5955 262.5,58.5C 263.058,57.2101 264.058,56.3768 265.5,56C 272.635,53.5491 279.968,52.3824 287.5,52.5 Z"/></g>
<g><path style="opacity:0.296" fill="#c9c7c3" d="M 288.5,52.5 C 295.369,54.1203 301.702,56.7869 307.5,60.5C 300.283,59.5378 293.95,56.8712 288.5,52.5 Z"/></g>
<g><path style="opacity:0.339" fill="#cccac7" d="M 244.5,60.5 C 234.167,60.5 223.833,60.5 213.5,60.5C 219.509,59.7324 225.676,59.0657 232,58.5C 236.335,59.0084 240.501,59.6751 244.5,60.5 Z"/></g>
<g><path style="opacity:0.224" fill="#ccc9c7" d="M 182.5,60.5 C 191.833,60.5 201.167,60.5 210.5,60.5C 209.737,61.2679 208.737,61.7679 207.5,62C 199.5,62.6667 191.5,62.6667 183.5,62C 182.944,61.6174 182.611,61.1174 182.5,60.5 Z"/></g>
<g><path style="opacity:0.251" fill="#cccbc8" d="M 181.5,59.5 C 175.347,60.3279 169.013,60.8279 162.5,61C 161.275,62.563 159.775,63.7297 158,64.5C 155.67,62.9574 153.17,62.4574 150.5,63C 147.899,66.1117 144.899,68.6117 141.5,70.5C 144.296,67.2026 147.296,64.0359 150.5,61C 153.497,60.2446 155.997,61.0779 158,63.5C 159.637,61.1898 161.804,59.6898 164.5,59C 170.188,58.4462 175.855,58.6129 181.5,59.5 Z"/></g>
<g><path style="opacity:0.353" fill="#cfcdca" d="M 365.5,106.5 C 370.708,108.008 376.041,109.008 381.5,109.5C 381.5,110.833 381.5,112.167 381.5,113.5C 382.822,113.67 383.989,113.337 385,112.5C 386.912,114.657 388.579,116.991 390,119.5C 392.478,121.639 394.978,123.639 397.5,125.5C 392.219,124.063 388.219,120.896 385.5,116C 383.866,115.506 382.199,115.34 380.5,115.5C 380.714,113.856 380.38,112.356 379.5,111C 375.781,110.612 372.114,109.945 368.5,109C 366.881,108.764 365.881,107.931 365.5,106.5 Z"/></g>
<g><path style="opacity:0.996" fill="#c02a1c" d="M 265.5,134.5 C 262.173,138.863 260.84,143.863 261.5,149.5C 260.889,157.45 259.889,165.45 258.5,173.5C 257.251,184.646 256.584,195.98 256.5,207.5C 258.415,207.784 260.081,207.451 261.5,206.5C 269.941,204.483 278.274,202.483 286.5,200.5C 291.08,200.887 295.414,200.053 299.5,198C 306.158,197.5 312.825,197.334 319.5,197.5C 326.362,197.713 330.362,201.047 331.5,207.5C 328.524,209.664 325.191,211.164 321.5,212C 299.563,213.519 277.897,216.519 256.5,221C 255.663,222.011 255.33,223.178 255.5,224.5C 254.359,227.64 254.192,230.973 255,234.5C 269.17,257.683 286.004,278.85 305.5,298C 325.165,312.666 346.832,323.332 370.5,330C 371.801,331.616 371.801,333.116 370.5,334.5C 368.597,334.796 366.93,335.463 365.5,336.5C 361.351,335.92 357.684,336.586 354.5,338.5C 341.829,338.667 329.162,338.5 316.5,338C 311.488,336.163 307.154,333.33 303.5,329.5C 284.785,304.267 268.285,277.601 254,249.5C 253.333,248.167 252.667,248.167 252,249.5C 251.506,251.134 251.34,252.801 251.5,254.5C 248.009,265.804 244.176,277.138 240,288.5C 225.967,313.574 205.133,329.574 177.5,336.5C 175.727,335.686 175.227,334.352 176,332.5C 207.269,314.278 227.102,287.612 235.5,252.5C 237.309,250.436 238.309,247.936 238.5,245C 239.198,240.189 239.531,235.356 239.5,230.5C 240.341,228.621 240.675,226.621 240.5,224.5C 228.831,227.168 217.165,229.834 205.5,232.5C 200.346,232.706 195.346,232.039 190.5,230.5C 188.938,230.267 187.605,229.6 186.5,228.5C 183.901,226.079 183.901,223.579 186.5,221C 198.559,219.354 210.559,217.52 222.5,215.5C 228.507,215.118 234.173,213.784 239.5,211.5C 240.117,211.389 240.617,211.056 241,210.5C 242.674,186.683 242.841,163.016 241.5,139.5C 240.792,132.769 238.459,126.769 234.5,121.5C 233.232,119.33 233.232,117.163 234.5,115C 245.946,115.821 256.113,119.988 265,127.5C 265.497,129.81 265.663,132.143 265.5,134.5 Z"/></g>
<g><path style="opacity:0.341" fill="#c8c7c1" d="M 87.5,111.5 C 84.235,115.747 80.5683,119.914 76.5,124C 75.552,124.483 74.552,124.649 73.5,124.5C 78.213,120.117 82.8797,115.783 87.5,111.5 Z"/></g>
<g><path style="opacity:0.996" fill="#c02a1c" d="M 201.5,143.5 C 197.869,146.629 194.369,149.963 191,153.5C 183.115,166.716 174.448,179.382 165,191.5C 164.123,193.674 164.623,195.341 166.5,196.5C 168.226,198.228 169.559,200.228 170.5,202.5C 171.661,224.799 171.661,247.132 170.5,269.5C 170.5,269.833 170.5,270.167 170.5,270.5C 169.817,284.402 169.151,298.402 168.5,312.5C 167.973,323.457 165.64,334.124 161.5,344.5C 157.504,348.719 154.337,348.053 152,342.5C 150.846,338.553 150.013,334.553 149.5,330.5C 149.578,323.485 149.911,316.485 150.5,309.5C 155.843,276.412 158.177,243.078 157.5,209.5C 157.5,207.5 157.5,205.5 157.5,203.5C 154.708,203.622 152.708,204.956 151.5,207.5C 139.566,221.599 125.9,233.766 110.5,244C 107.029,246.072 103.362,247.572 99.5,248.5C 98.3871,247.054 98.2204,245.387 99,243.5C 131.657,214.807 156.99,180.807 175,141.5C 175.966,135.87 176.633,130.204 177,124.5C 181.117,122.03 185.284,122.197 189.5,125C 193.333,128.833 197.167,132.667 201,136.5C 201.497,138.81 201.663,141.143 201.5,143.5 Z"/></g>
<g><path style="opacity:0.996" fill="#5d3e3a" d="M 234.5,121.5 C 238.459,126.769 240.792,132.769 241.5,139.5C 236.451,134.703 234.118,128.703 234.5,121.5 Z"/></g>
<g><path style="opacity:0.588" fill="#d3d2cf" d="M 73.5,124.5 C 72.0813,125.451 70.4147,125.784 68.5,125.5C 68.3313,132.695 65.6646,138.695 60.5,143.5C 62.8155,138.929 65.1488,134.262 67.5,129.5C 66.5721,128.232 66.4054,126.899 67,125.5C 69.0408,124.577 71.2075,124.244 73.5,124.5 Z"/></g>
<g><path style="opacity:0.996" fill="#664c49" d="M 265.5,134.5 C 265.235,139.899 263.902,144.899 261.5,149.5C 260.84,143.863 262.173,138.863 265.5,134.5 Z"/></g>
<g><path style="opacity:0.596" fill="#d6d3d0" d="M 406.5,132.5 C 409.464,134.962 412.297,137.629 415,140.5C 415.595,141.899 415.428,143.232 414.5,144.5C 418.884,147.263 421.217,151.263 421.5,156.5C 419.837,154.507 418.67,152.174 418,149.5C 416.075,147.787 413.908,146.453 411.5,145.5C 412.415,144.672 413.081,143.672 413.5,142.5C 411.116,139.131 408.783,135.797 406.5,132.5 Z"/></g>
<g><path style="opacity:0.996" fill="#bf2a1c" d="M 323.5,174.5 C 318.973,176.907 314.306,177.073 309.5,175C 299.664,168.325 290.998,160.491 283.5,151.5C 282.272,149.99 282.272,148.49 283.5,147C 290.833,146.333 298.167,146.333 305.5,147C 318.682,151.543 324.682,160.71 323.5,174.5 Z"/></g>
<g><path style="opacity:0.996" fill="#48403e" d="M 283.5,151.5 C 290.998,160.491 299.664,168.325 309.5,175C 314.306,177.073 318.973,176.907 323.5,174.5C 323.953,177.652 322.953,180.152 320.5,182C 316.705,182.837 313.039,182.504 309.5,181C 298.837,174.003 289.837,165.336 282.5,155C 282.989,153.862 283.322,152.695 283.5,151.5 Z"/></g>
<g><path style="opacity:0.996" fill="#8b6660" d="M 261.5,149.5 C 262.117,161.786 261.117,173.786 258.5,185.5C 258.5,181.5 258.5,177.5 258.5,173.5C 259.889,165.45 260.889,157.45 261.5,149.5 Z"/></g>
<g><path style="opacity:0.286" fill="#cac8c5" d="M 57.5,150.5 C 51.5875,164.33 45.0875,177.996 38,191.5C 37.6667,198.167 37.3333,204.833 37,211.5C 36.8048,215.188 34.9715,217.522 31.5,218.5C 32.8361,216.99 34.0027,215.323 35,213.5C 35.0979,205.423 35.7645,197.423 37,189.5C 43.7618,176.315 50.5951,163.315 57.5,150.5 Z"/></g>
<g><path style="opacity:0.996" fill="#4d3d3b" d="M 201.5,143.5 C 201.702,145.989 201.202,148.323 200,150.5C 195.965,154.2 192.298,158.2 189,162.5C 181.675,173.984 174.175,185.317 166.5,196.5C 164.623,195.341 164.123,193.674 165,191.5C 174.448,179.382 183.115,166.716 191,153.5C 194.369,149.963 197.869,146.629 201.5,143.5 Z"/></g>
<g><path style="opacity:0.996" fill="#a7362b" d="M 258.5,173.5 C 258.5,177.5 258.5,181.5 258.5,185.5C 257.835,192.48 257.502,199.48 257.5,206.5C 258.833,206.5 260.167,206.5 261.5,206.5C 260.081,207.451 258.415,207.784 256.5,207.5C 256.584,195.98 257.251,184.646 258.5,173.5 Z"/></g>
<g><path style="opacity:0.996" fill="#b54236" d="M 319.5,197.5 C 312.825,197.334 306.158,197.5 299.5,198C 295.414,200.053 291.08,200.887 286.5,200.5C 291.754,199.143 297.087,197.643 302.5,196C 308.436,195.057 314.103,195.557 319.5,197.5 Z"/></g>
<g><path style="opacity:0.267" fill="#cbc9c6" d="M 422.5,157.5 C 424.098,165.801 425.598,174.134 427,182.5C 427.508,194.842 428.175,207.175 429,219.5C 430.021,224.066 431.521,228.4 433.5,232.5C 431.381,231.014 429.881,229.014 429,226.5C 428.461,223.471 427.794,220.471 427,217.5C 426.667,207.833 426.333,198.167 426,188.5C 424.552,178.865 423.052,169.199 421.5,159.5C 421.543,158.584 421.876,157.917 422.5,157.5 Z"/></g>
<g><path style="opacity:0.996" fill="#772c27" d="M 157.5,209.5 C 157.167,209.5 156.833,209.5 156.5,209.5C 156.762,208.022 156.429,206.689 155.5,205.5C 154.378,206.63 153.044,207.297 151.5,207.5C 152.708,204.956 154.708,203.622 157.5,203.5C 157.5,205.5 157.5,207.5 157.5,209.5 Z"/></g>
<g><path style="opacity:0.996" fill="#463d3c" d="M 331.5,207.5 C 332.323,213.516 329.656,216.683 323.5,217C 307.284,219.899 290.951,221.899 274.5,223C 268.865,224.325 263.198,225.492 257.5,226.5C 256.287,226.253 255.62,225.586 255.5,224.5C 255.33,223.178 255.663,222.011 256.5,221C 277.897,216.519 299.563,213.519 321.5,212C 325.191,211.164 328.524,209.664 331.5,207.5 Z"/></g>
<g><path style="opacity:0.996" fill="#9a5e58" d="M 170.5,202.5 C 171.117,202.611 171.617,202.944 172,203.5C 172.167,212.167 172.333,220.833 172.5,229.5C 172.655,243.032 171.988,256.365 170.5,269.5C 171.661,247.132 171.661,224.799 170.5,202.5 Z"/></g>
<g><path style="opacity:0.996" fill="#b04a3f" d="M 239.5,211.5 C 234.173,213.784 228.507,215.118 222.5,215.5C 222.918,214.778 223.584,214.278 224.5,214C 229.525,213.145 234.525,212.312 239.5,211.5 Z"/></g>
<g><path style="opacity:0.996" fill="#473c3a" d="M 156.5,209.5 C 145.372,221.457 133.372,232.623 120.5,243C 115.833,246 111.167,249 106.5,252C 103.937,253.079 101.271,253.579 98.5,253.5C 98.6287,251.784 98.962,250.117 99.5,248.5C 103.362,247.572 107.029,246.072 110.5,244C 125.9,233.766 139.566,221.599 151.5,207.5C 153.044,207.297 154.378,206.63 155.5,205.5C 156.429,206.689 156.762,208.022 156.5,209.5 Z"/></g>
<g><path style="opacity:0.996" fill="#453d3c" d="M 239.5,230.5 C 239.167,230.5 238.833,230.5 238.5,230.5C 225.75,233.765 212.916,236.765 200,239.5C 193.243,239.375 188.076,236.542 184.5,231C 184.639,229.699 185.305,228.866 186.5,228.5C 187.605,229.6 188.938,230.267 190.5,230.5C 191.842,231.793 193.509,232.626 195.5,233C 199.027,233.808 202.36,233.641 205.5,232.5C 217.165,229.834 228.831,227.168 240.5,224.5C 240.675,226.621 240.341,228.621 239.5,230.5 Z"/></g>
<g><path style="opacity:0.996" fill="#8c2821" d="M 190.5,230.5 C 195.346,232.039 200.346,232.706 205.5,232.5C 202.36,233.641 199.027,233.808 195.5,233C 193.509,232.626 191.842,231.793 190.5,230.5 Z"/></g>
<g><path style="opacity:0.996" fill="#b34438" d="M 238.5,230.5 C 238.833,230.5 239.167,230.5 239.5,230.5C 239.531,235.356 239.198,240.189 238.5,245C 238.309,247.936 237.309,250.436 235.5,252.5C 236.503,245.158 237.503,237.825 238.5,230.5 Z"/></g>
<g><path style="opacity:0.994" fill="#151514" d="M 41.5,268.5 C 38.733,264.626 36.733,260.293 35.5,255.5C 35.1044,252.518 35.7711,249.851 37.5,247.5C 42.278,253.92 43.6114,260.92 41.5,268.5 Z"/></g>
<g><path style="opacity:0.682" fill="#cac8c5" d="M 437.5,239.5 C 439.033,241.634 439.7,244.134 439.5,247C 440.1,251.131 438.766,254.464 435.5,257C 438.099,259.579 438.099,262.079 435.5,264.5C 435.74,262.519 435.406,260.352 434.5,258C 437.022,252.103 438.022,245.937 437.5,239.5 Z"/></g>
<g><path style="opacity:0.996" fill="#4c3c3a" d="M 303.5,329.5 C 302.167,329.5 300.833,329.5 299.5,329.5C 282.778,306.922 268.278,282.922 256,257.5C 255.092,255.561 253.592,254.561 251.5,254.5C 251.34,252.801 251.506,251.134 252,249.5C 252.667,248.167 253.333,248.167 254,249.5C 268.285,277.601 284.785,304.267 303.5,329.5 Z"/></g>
<g><path style="opacity:0.248" fill="#d2d2d0" d="M 34.5,249.5 C 34.2053,251.735 34.5386,253.735 35.5,255.5C 36.733,260.293 38.733,264.626 41.5,268.5C 43.0854,288.799 45.752,308.799 49.5,328.5C 49.8333,330.5 50.1667,332.5 50.5,334.5C 50.6716,335.492 50.3382,336.158 49.5,336.5C 45.0342,314.737 42.2008,292.737 41,270.5C 38.155,266.143 35.8217,261.477 34,256.5C 33.2042,253.961 33.3709,251.628 34.5,249.5 Z"/></g>
<g><path style="opacity:0.039" fill="#d7d7d6" d="M 435.5,270.5 C 434.355,282.473 432.688,294.14 430.5,305.5C 430.334,300.156 430.501,294.823 431,289.5C 431.667,288.167 432.333,286.833 433,285.5C 433.012,280.212 433.845,275.212 435.5,270.5 Z"/></g>
<g><path style="opacity:0.996" fill="#080808" d="M 413.5,340.5 C 413.5,340.833 413.5,341.167 413.5,341.5C 407.518,347.125 403.851,354.125 402.5,362.5C 400.887,362.944 399.72,363.944 399,365.5C 398.503,367.81 398.337,370.143 398.5,372.5C 395.518,372.104 392.851,372.771 390.5,374.5C 375.048,391.454 357.381,405.621 337.5,417C 330.601,421.963 324.268,427.63 318.5,434C 315.563,434.361 312.73,433.861 310,432.5C 308.098,434.405 305.932,435.905 303.5,437C 298.78,437.717 294.114,437.55 289.5,436.5C 283.573,434.993 277.406,434.326 271,434.5C 266.833,434.667 262.667,434.833 258.5,435C 257.944,435.383 257.611,435.883 257.5,436.5C 255.5,436.5 253.5,436.5 251.5,436.5C 241.114,437.855 230.78,437.522 220.5,435.5C 220.167,435.5 219.833,435.5 219.5,435.5C 218.796,433.656 217.463,433.156 215.5,434C 201.741,442.65 187.074,444.817 171.5,440.5C 171.53,439.503 171.03,438.836 170,438.5C 166.853,437.338 163.686,436.338 160.5,435.5C 160.047,434.542 159.381,433.708 158.5,433C 155.242,431.533 151.908,430.367 148.5,429.5C 146.588,426.851 143.921,425.518 140.5,425.5C 139.145,422.482 136.812,421.149 133.5,421.5C 132.965,419.554 131.632,418.554 129.5,418.5C 129.027,417.094 128.027,416.427 126.5,416.5C 125.965,414.554 124.632,413.554 122.5,413.5C 118.532,409.361 114.699,405.027 111,400.5C 110.03,397.556 109.196,394.556 108.5,391.5C 103.484,388.93 98.151,387.93 92.5,388.5C 92.7989,386.396 92.4656,384.396 91.5,382.5C 89.802,383.681 88.1353,383.681 86.5,382.5C 83.6888,377.021 79.3555,373.355 73.5,371.5C 69.4648,367.06 65.2981,362.727 61,358.5C 60.3486,356.765 60.5153,355.098 61.5,353.5C 60.3112,352.571 58.9778,352.238 57.5,352.5C 57.5,351.167 56.8333,350.5 55.5,350.5C 54.3251,344.902 52.6584,339.569 50.5,334.5C 50.1667,332.5 49.8333,330.5 49.5,328.5C 49.3505,327.448 49.5172,326.448 50,325.5C 51.2263,329.361 53.7263,331.694 57.5,332.5C 56.833,334.819 56.6664,337.153 57,339.5C 63.6395,346.477 71.1395,352.31 79.5,357C 81.1667,359.333 82.8333,361.667 84.5,364C 86.1341,364.494 87.8008,364.66 89.5,364.5C 89.2865,366.144 89.6198,367.644 90.5,369C 96.1005,369.046 101.434,370.213 106.5,372.5C 107.321,375.447 107.821,378.447 108,381.5C 113.919,389.421 121.086,395.921 129.5,401C 144.031,409.433 159.031,417.1 174.5,424C 180.776,425.424 187.109,425.758 193.5,425C 200.807,422.754 207.807,419.754 214.5,416C 216.712,415.211 218.712,415.378 220.5,416.5C 222.811,418.068 225.478,418.902 228.5,419C 236.012,419.822 243.345,419.655 250.5,418.5C 262.486,417.524 274.486,417.358 286.5,418C 295.888,422.316 304.388,421.149 312,414.5C 314.33,416.043 316.83,416.543 319.5,416C 324.604,410.294 330.27,405.294 336.5,401C 349.833,391.667 363.167,382.333 376.5,373C 382.532,367.302 388.199,361.302 393.5,355C 396.351,353.711 399.351,353.211 402.5,353.5C 402.343,345.801 404.843,339.134 410,333.5C 415.954,321.193 421.954,308.859 428,296.5C 428.333,296.167 428.667,295.833 429,295.5C 429.624,300.223 429.29,304.89 428,309.5C 424.588,316.658 420.922,323.658 417,330.5C 415.54,333.748 414.374,337.081 413.5,340.5 Z"/></g>
<g><path style="opacity:0.996" fill="#4a3d3b" d="M 251.5,254.5 C 248.29,284.867 234.623,309.367 210.5,328C 202.517,331.999 194.517,335.999 186.5,340C 183.568,340.953 180.568,341.453 177.5,341.5C 177.5,339.833 177.5,338.167 177.5,336.5C 205.133,329.574 225.967,313.574 240,288.5C 244.176,277.138 248.009,265.804 251.5,254.5 Z"/></g>
<g><path style="opacity:0.996" fill="#926e68" d="M 170.5,270.5 C 170.667,286.17 170.5,301.837 170,317.5C 169.768,318.737 169.268,319.737 168.5,320.5C 168.5,317.833 168.5,315.167 168.5,312.5C 169.151,298.402 169.817,284.402 170.5,270.5 Z"/></g>
<g><path style="opacity:0.996" fill="#a35a53" d="M 150.5,309.5 C 149.911,316.485 149.578,323.485 149.5,330.5C 149.167,330.5 148.833,330.5 148.5,330.5C 148.112,323.253 148.779,316.253 150.5,309.5 Z"/></g>
<g><path style="opacity:0.996" fill="#433c3b" d="M 299.5,329.5 C 300.833,329.5 302.167,329.5 303.5,329.5C 307.154,333.33 311.488,336.163 316.5,338C 329.162,338.5 341.829,338.667 354.5,338.5C 358.387,338.354 362.054,337.687 365.5,336.5C 366.93,335.463 368.597,334.796 370.5,334.5C 372.348,339.386 370.681,342.053 365.5,342.5C 350.18,343.29 334.847,343.623 319.5,343.5C 315.985,343.121 312.652,342.121 309.5,340.5C 305.935,337.032 302.602,333.365 299.5,329.5 Z"/></g>
<g><path style="opacity:0.996" fill="#672f2b" d="M 365.5,336.5 C 362.054,337.687 358.387,338.354 354.5,338.5C 357.684,336.586 361.351,335.92 365.5,336.5 Z"/></g>
<g><path style="opacity:0.996" fill="#6e423d" d="M 168.5,312.5 C 168.5,315.167 168.5,317.833 168.5,320.5C 168.089,327.212 167.256,333.879 166,340.5C 165.066,341.858 164.232,343.192 163.5,344.5C 162.833,344.5 162.167,344.5 161.5,344.5C 165.64,334.124 167.973,323.457 168.5,312.5 Z"/></g>
<g><path style="opacity:0.996" fill="#666561" d="M 365.5,342.5 C 355.231,344.303 344.731,345.303 334,345.5C 328.91,345.656 324.077,344.99 319.5,343.5C 334.847,343.623 350.18,343.29 365.5,342.5 Z"/></g>
<g><path style="opacity:0.255" fill="#898989" d="M 50.5,334.5 C 52.6584,339.569 54.3251,344.902 55.5,350.5C 54.5416,350.047 53.7083,349.381 53,348.5C 51.8261,344.465 50.6594,340.465 49.5,336.5C 50.3382,336.158 50.6716,335.492 50.5,334.5 Z"/></g>
<g><path style="opacity:0.996" fill="#524947" d="M 148.5,330.5 C 148.833,330.5 149.167,330.5 149.5,330.5C 150.013,334.553 150.846,338.553 152,342.5C 154.337,348.053 157.504,348.719 161.5,344.5C 162.167,344.5 162.833,344.5 163.5,344.5C 162.786,350.055 159.786,352.889 154.5,353C 150.414,346.163 148.414,338.663 148.5,330.5 Z"/></g>
<g><path style="opacity:0.557" fill="#959595" d="M 413.5,341.5 C 409.647,348.384 405.98,355.384 402.5,362.5C 403.851,354.125 407.518,347.125 413.5,341.5 Z"/></g>
<g><path style="opacity:0.075" fill="#c1c1c1" d="M 55.5,350.5 C 56.8333,350.5 57.5,351.167 57.5,352.5C 56.1667,352.5 55.5,351.833 55.5,350.5 Z"/></g>
<g><path style="opacity:0.051" fill="#aaaaaa" d="M 57.5,352.5 C 58.9778,352.238 60.3112,352.571 61.5,353.5C 60.5153,355.098 60.3486,356.765 61,358.5C 65.2981,362.727 69.4648,367.06 73.5,371.5C 67.1356,367.977 61.8022,363.144 57.5,357C 59.744,355.112 59.744,353.612 57.5,352.5 Z"/></g>
<g><path style="opacity:0.078" fill="#a4a4a4" d="M 402.5,362.5 C 401.788,364.928 400.788,367.261 399.5,369.5C 400.747,371.042 400.747,372.542 399.5,374C 397.167,374.333 394.833,374.667 392.5,375C 385.833,383 378.5,390.333 370.5,397C 357.292,405.765 344.292,414.765 331.5,424C 326.506,427.994 321.84,432.327 317.5,437C 315.063,436.797 312.729,435.963 310.5,434.5C 307.313,437.971 303.313,439.638 298.5,439.5C 291.947,439.001 285.613,438.001 279.5,436.5C 282.833,436.5 286.167,436.5 289.5,436.5C 294.114,437.55 298.78,437.717 303.5,437C 305.932,435.905 308.098,434.405 310,432.5C 312.73,433.861 315.563,434.361 318.5,434C 324.268,427.63 330.601,421.963 337.5,417C 357.381,405.621 375.048,391.454 390.5,374.5C 392.851,372.771 395.518,372.104 398.5,372.5C 398.337,370.143 398.503,367.81 399,365.5C 399.72,363.944 400.887,362.944 402.5,362.5 Z"/></g>
<g><path style="opacity:0.106" fill="#9f9f9f" d="M 73.5,371.5 C 79.3555,373.355 83.6888,377.021 86.5,382.5C 88.1353,383.681 89.802,383.681 91.5,382.5C 92.4656,384.396 92.7989,386.396 92.5,388.5C 98.151,387.93 103.484,388.93 108.5,391.5C 109.196,394.556 110.03,397.556 111,400.5C 114.699,405.027 118.532,409.361 122.5,413.5C 117.954,410.466 113.787,406.799 110,402.5C 108.254,399.166 107.087,395.666 106.5,392C 101.716,389.968 96.7163,389.134 91.5,389.5C 91.5674,386.234 89.9008,384.734 86.5,385C 84.9588,383.421 83.7922,381.587 83,379.5C 79.855,376.696 76.6883,374.03 73.5,371.5 Z"/></g>
<g><path style="opacity:0.106" fill="#b7b7b7" d="M 122.5,413.5 C 124.632,413.554 125.965,414.554 126.5,416.5C 124.77,415.974 123.436,414.974 122.5,413.5 Z"/></g>
<g><path style="opacity:0.047" fill="#c7c7c7" d="M 126.5,416.5 C 128.027,416.427 129.027,417.094 129.5,418.5C 127.973,418.573 126.973,417.906 126.5,416.5 Z"/></g>
<g><path style="opacity:0.102" fill="#cacaca" d="M 129.5,418.5 C 131.632,418.554 132.965,419.554 133.5,421.5C 131.77,420.974 130.436,419.974 129.5,418.5 Z"/></g>
<g><path style="opacity:0.996" fill="#63605c" d="M 220.5,416.5 C 230.419,418.163 240.419,418.83 250.5,418.5C 243.345,419.655 236.012,419.822 228.5,419C 225.478,418.902 222.811,418.068 220.5,416.5 Z"/></g>
<g><path style="opacity:0.106" fill="#aeaeae" d="M 133.5,421.5 C 136.812,421.149 139.145,422.482 140.5,425.5C 137.996,424.416 135.663,423.083 133.5,421.5 Z"/></g>
<g><path style="opacity:0.106" fill="#adadad" d="M 140.5,425.5 C 143.921,425.518 146.588,426.851 148.5,429.5C 145.515,428.674 142.849,427.341 140.5,425.5 Z"/></g>
<g><path style="opacity:0.098" fill="#aeaeae" d="M 148.5,429.5 C 151.908,430.367 155.242,431.533 158.5,433C 159.381,433.708 160.047,434.542 160.5,435.5C 155.947,434.438 151.947,432.438 148.5,429.5 Z"/></g>
<g><path style="opacity:0.031" fill="#b5b4b4" d="M 219.5,435.5 C 214.02,437.164 208.686,439.33 203.5,442C 198.238,443.476 192.904,444.643 187.5,445.5C 182.399,444.761 177.399,443.594 172.5,442C 171.944,441.617 171.611,441.117 171.5,440.5C 187.074,444.817 201.741,442.65 215.5,434C 217.463,433.156 218.796,433.656 219.5,435.5 Z"/></g>
<g><path style="opacity:0.737" fill="#555555" d="M 289.5,436.5 C 286.167,436.5 282.833,436.5 279.5,436.5C 272.327,435.456 264.994,435.456 257.5,436.5C 257.611,435.883 257.944,435.383 258.5,435C 262.667,434.833 266.833,434.667 271,434.5C 277.406,434.326 283.573,434.993 289.5,436.5 Z"/></g>
<g><path style="opacity:0.012" fill="#bdbdbd" d="M 160.5,435.5 C 163.686,436.338 166.853,437.338 170,438.5C 171.03,438.836 171.53,439.503 171.5,440.5C 167.55,439.408 163.883,437.741 160.5,435.5 Z"/></g>
<g><path style="opacity:0.043" fill="#d1d1d1" d="M 279.5,436.5 C 269.469,436.745 259.469,437.412 249.5,438.5C 250.167,437.833 250.833,437.167 251.5,436.5C 253.5,436.5 255.5,436.5 257.5,436.5C 264.994,435.456 272.327,435.456 279.5,436.5 Z"/></g>
<g><path style="opacity:0.093" fill="#929292" d="M 220.5,435.5 C 230.78,437.522 241.114,437.855 251.5,436.5C 250.833,437.167 250.167,437.833 249.5,438.5C 241.493,438.666 233.493,438.5 225.5,438C 223.509,437.626 221.842,436.793 220.5,435.5 Z"/></g>
</svg>
