<?xml version="1.0" encoding="UTF-8"?>
<!DOCTYPE svg PUBLIC "-//W3C//DTD SVG 1.1//EN" "http://www.w3.org/Graphics/SVG/1.1/DTD/svg11.dtd">
<svg xmlns="http://www.w3.org/2000/svg" version="1.1" width="460px" height="464px" style="shape-rendering:geometricPrecision; text-rendering:geometricPrecision; image-rendering:optimizeQuality; fill-rule:evenodd; clip-rule:evenodd" xmlns:xlink="http://www.w3.org/1999/xlink">
<g><path style="opacity:0.639" fill="#bfbdba" d="M 291.5,56.5 C 278.098,54.8904 265.098,56.5571 252.5,61.5C 264.732,53.1853 277.732,51.5186 291.5,56.5 Z"/></g>
<g><path style="opacity:0.996" fill="#97948e" d="M 291.5,56.5 C 291.833,56.5 292.167,56.5 292.5,56.5C 293.475,58.1927 294.808,59.6927 296.5,61C 303.137,63.8201 309.803,66.3201 316.5,68.5C 320.249,69.8724 323.915,71.5391 327.5,73.5C 327.859,75.371 328.859,76.871 330.5,78C 337.314,81.9909 343.981,86.1575 350.5,90.5C 353.55,92.5491 355.883,95.2157 357.5,98.5C 356.717,103.203 358.05,107.037 361.5,110C 365.77,111.075 370.103,111.575 374.5,111.5C 374.5,113.167 374.5,114.833 374.5,116.5C 376.833,116.5 379.167,116.5 381.5,116.5C 386.844,121.843 392.511,126.843 398.5,131.5C 400.206,135.463 403.04,138.463 407,140.5C 407.687,142.568 407.52,144.568 406.5,146.5C 408.5,147.833 410.5,149.167 412.5,150.5C 413.519,152.604 414.519,154.604 415.5,156.5C 416.271,166.355 417.771,176.021 420,185.5C 420.94,199.506 421.94,213.506 423,227.5C 425.03,230.226 426.53,233.226 427.5,236.5C 428.84,237.867 430.173,239.2 431.5,240.5C 432.412,244.131 432.579,247.797 432,251.5C 431.399,254.206 429.899,256.206 427.5,257.5C 429.415,259.071 430.415,261.071 430.5,263.5C 430.815,267.371 430.482,271.038 429.5,274.5C 427.569,281.205 425.902,288.205 424.5,295.5C 423.542,295.953 422.708,296.619 422,297.5C 416.453,307.927 411.453,318.594 407,329.5C 403.401,335.034 400.068,340.701 397,346.5C 396.503,349.146 396.336,351.813 396.5,354.5C 393.68,354.248 391.014,354.748 388.5,356C 381.473,363.027 374.473,370.027 367.5,377C 347.973,389.508 329.473,403.341 312,418.5C 309.976,417.487 308.143,416.154 306.5,414.5C 301.8,419.984 295.8,421.984 288.5,420.5C 285.466,418.982 282.133,418.149 278.5,418C 269.99,417.177 261.656,417.343 253.5,418.5C 251.052,419.473 248.385,419.806 245.5,419.5C 236.154,419.462 226.82,419.129 217.5,418.5C 213.046,415.409 209.046,415.909 205.5,420C 199.638,421.546 193.972,423.546 188.5,426C 182.109,426.758 175.776,426.424 169.5,425C 154.132,418.073 139.132,410.406 124.5,402C 117.351,397.331 110.851,391.831 105,385.5C 103.331,381.654 102.164,377.654 101.5,373.5C 96.4338,371.213 91.1005,370.046 85.5,370C 84.6198,368.644 84.2865,367.144 84.5,365.5C 79.9789,364.84 76.6456,362.34 74.5,358C 66.1822,353.253 58.6822,347.42 52,340.5C 51.6664,338.153 51.833,335.819 52.5,333.5C 51.448,333.649 50.448,333.483 49.5,333C 44.7413,325.317 43.408,325.984 45.5,335C 47.2504,339.749 48.7504,344.582 50,349.5C 51.7455,351.749 53.9121,353.416 56.5,354.5C 55.5153,356.098 55.3486,357.765 56,359.5C 57.1764,361.196 58.343,362.862 59.5,364.5C 56.3538,363.242 54.3538,360.908 53.5,357.5C 53.6082,356.558 53.9415,355.725 54.5,355C 51.6667,353.5 49.5,351.333 48,348.5C 45.5654,342.033 44.0654,335.366 43.5,328.5C 41.7771,309.825 39.9437,291.159 38,272.5C 37.2917,271.619 36.4584,270.953 35.5,270.5C 32.5435,266.251 30.3768,261.584 29,256.5C 28.2971,253.518 28.7971,250.851 30.5,248.5C 31.2891,248.217 31.9558,247.717 32.5,247C 28.2602,241.54 26.7602,235.373 28,228.5C 29.1217,226.376 30.6217,224.543 32.5,223C 31.9056,222.536 31.2389,222.369 30.5,222.5C 29.8592,221.518 29.1925,220.518 28.5,219.5C 29.5312,218.3 30.3645,216.966 31,215.5C 31.4996,208.508 31.6663,201.508 31.5,194.5C 31.2594,192.102 31.9261,190.102 33.5,188.5C 34.4584,188.047 35.2917,187.381 36,186.5C 42.0336,175.147 48.0336,163.814 54,152.5C 55.2778,148.835 56.4445,145.168 57.5,141.5C 60.3239,139.2 62.1572,136.2 63,132.5C 63.4955,130.527 63.6621,128.527 63.5,126.5C 66.7935,126.741 69.7935,125.908 72.5,124C 75.0421,121.289 77.7088,118.789 80.5,116.5C 81.562,114.978 82.2287,113.312 82.5,111.5C 88.2419,106.115 94.2419,100.948 100.5,96C 112.731,88.0606 124.731,79.894 136.5,71.5C 139.899,69.6117 142.899,67.1117 145.5,64C 148.17,63.4574 150.67,63.9574 153,65.5C 154.775,64.7297 156.275,63.563 157.5,62C 169.01,62.0002 180.51,62.5002 192,63.5C 196.5,63.3333 201,63.1667 205.5,63C 206.056,62.6174 206.389,62.1174 206.5,61.5C 220.1,58.1955 233.6,58.8622 247,63.5C 248.8,62.6805 250.634,62.0138 252.5,61.5C 265.098,56.5571 278.098,54.8904 291.5,56.5 Z"/></g>
<g><path style="opacity:0.255" fill="#c6c4c0" d="M 206.5,61.5 C 206.389,62.1174 206.056,62.6174 205.5,63C 201,63.1667 196.5,63.3333 192,63.5C 180.51,62.5002 169.01,62.0002 157.5,62C 156.275,63.563 154.775,64.7297 153,65.5C 150.67,63.9574 148.17,63.4574 145.5,64C 142.899,67.1117 139.899,69.6117 136.5,71.5C 139.296,68.2026 142.296,65.0359 145.5,62C 148.17,61.4574 150.67,61.9574 153,63.5C 156.392,60.4805 160.392,58.8138 165,58.5C 178.707,61.7465 192.54,62.7465 206.5,61.5 Z"/></g>
<g><path style="opacity:0.255" fill="#c8c7c3" d="M 292.5,56.5 C 300.813,59.9899 308.813,63.9899 316.5,68.5C 309.803,66.3201 303.137,63.8201 296.5,61C 294.808,59.6927 293.475,58.1927 292.5,56.5 Z"/></g>
<g><path style="opacity:0.129" fill="#cbcac7" d="M 327.5,73.5 C 336.035,78.0412 343.702,83.7079 350.5,90.5C 343.981,86.1575 337.314,81.9909 330.5,78C 328.859,76.871 327.859,75.371 327.5,73.5 Z"/></g>
<g><path style="opacity:0.442" fill="#d1cfcc" d="M 357.5,98.5 C 358.972,101.077 359.972,103.911 360.5,107C 364.661,108.737 368.995,109.737 373.5,110C 375.604,110.791 376.937,112.291 377.5,114.5C 379.866,113.016 381.199,113.683 381.5,116.5C 379.167,116.5 376.833,116.5 374.5,116.5C 374.5,114.833 374.5,113.167 374.5,111.5C 370.103,111.575 365.77,111.075 361.5,110C 358.05,107.037 356.717,103.203 357.5,98.5 Z"/></g>
<g><path style="opacity:0.996" fill="#326e23" d="M 289.5,149.5 C 274.863,153.436 259.863,156.27 244.5,158C 243.594,159.699 243.261,161.533 243.5,163.5C 243.177,170.022 243.51,176.355 244.5,182.5C 256.666,180.264 268.666,177.431 280.5,174C 289.332,173.275 297.332,175.609 304.5,181C 307.667,183.5 310.833,186 314,188.5C 314.891,191.498 314.391,194.164 312.5,196.5C 308.805,198.869 306.305,202.203 305,206.5C 301.126,216.173 298.126,226.173 296,236.5C 292.648,240.869 289.648,245.536 287,250.5C 285.887,251.305 284.721,251.972 283.5,252.5C 279.773,252.805 277.106,251.305 275.5,248C 267.469,247.402 259.469,247.735 251.5,249C 250.944,249.383 250.611,249.883 250.5,250.5C 248.5,250.5 246.5,250.5 244.5,250.5C 244.5,252.167 244.5,253.833 244.5,255.5C 244.5,261.833 244.5,268.167 244.5,274.5C 266.977,272.284 289.31,269.117 311.5,265C 317.5,264.333 323.5,264.333 329.5,265C 336.147,267.973 341.98,272.14 347,277.5C 347.678,279.598 347.511,281.598 346.5,283.5C 344.669,284.995 342.502,285.662 340,285.5C 311.226,282.081 282.392,281.581 253.5,284C 250.5,285.074 247.5,285.907 244.5,286.5C 243.264,304.321 242.598,322.321 242.5,340.5C 241.559,345.07 241.226,349.737 241.5,354.5C 239.259,357.718 237.759,361.384 237,365.5C 235.085,366.916 233.585,366.582 232.5,364.5C 231.008,358.62 230.175,352.62 230,346.5C 229.832,326.662 229.332,306.996 228.5,287.5C 225.482,287.704 222.482,288.037 219.5,288.5C 204.763,289.228 190.429,291.228 176.5,294.5C 175.5,294.5 174.5,294.5 173.5,294.5C 162.192,296.544 150.859,298.211 139.5,299.5C 134.146,297.99 129.146,295.657 124.5,292.5C 123.232,290.33 123.232,288.163 124.5,286C 147.17,284.934 169.837,283.601 192.5,282C 195.716,281.373 198.883,280.539 202,279.5C 210.907,278.901 219.741,277.901 228.5,276.5C 228.5,270.5 228.5,264.5 228.5,258.5C 228.5,256.833 228.5,255.167 228.5,253.5C 219.783,253.794 211.116,254.628 202.5,256C 198.695,255.974 196.695,257.808 196.5,261.5C 194.473,261.662 192.473,261.495 190.5,261C 189,258.833 187.5,256.667 186,254.5C 183.636,247.33 181.136,240.33 178.5,233.5C 176.321,224.789 173.821,216.122 171,207.5C 169.357,204.039 167.19,201.039 164.5,198.5C 164.106,197.033 163.773,195.533 163.5,194C 163.755,192.674 164.422,191.674 165.5,191C 170.905,190.512 176.238,191.012 181.5,192.5C 196.453,190.044 211.453,187.711 226.5,185.5C 226.5,179.5 226.5,173.5 226.5,167.5C 226.5,165.5 226.5,163.5 226.5,161.5C 213.22,163.644 199.886,163.978 186.5,162.5C 184.981,161.59 183.315,160.757 181.5,160C 180.663,158.989 180.33,157.822 180.5,156.5C 184.519,156.354 188.519,156.021 192.5,155.5C 201.083,154.912 209.416,153.578 217.5,151.5C 220.34,150.88 223.174,150.213 226,149.5C 226.663,144.463 226.496,139.463 225.5,134.5C 225.763,127.364 223.097,121.697 217.5,117.5C 216.351,114.959 216.351,112.459 217.5,110C 226.139,110.088 234.472,112.088 242.5,116C 247.967,119.336 248.801,123.502 245,128.5C 244.501,134.157 244.334,139.824 244.5,145.5C 252.728,144.41 260.728,142.577 268.5,140C 276.027,138.53 283.027,139.697 289.5,143.5C 290.694,145.516 290.694,147.516 289.5,149.5 Z"/></g>
<g><path style="opacity:0.996" fill="#3f483c" d="M 217.5,117.5 C 223.097,121.697 225.763,127.364 225.5,134.5C 223.398,129.526 220.565,124.859 217,120.5C 216.26,119.251 216.427,118.251 217.5,117.5 Z"/></g>
<g><path style="opacity:0.296" fill="#d3d0cd" d="M 82.5,111.5 C 82.2287,113.312 81.562,114.978 80.5,116.5C 77.7088,118.789 75.0421,121.289 72.5,124C 69.7935,125.908 66.7935,126.741 63.5,126.5C 63.6621,128.527 63.4955,130.527 63,132.5C 62.1572,136.2 60.3239,139.2 57.5,141.5C 58.9597,137.808 60.6264,134.141 62.5,130.5C 61.5721,129.232 61.4054,127.899 62,126.5C 65.3205,125.832 68.4872,124.665 71.5,123C 74.8457,118.762 78.5124,114.929 82.5,111.5 Z"/></g>
<g><path style="opacity:0.208" fill="#cecdcb" d="M 398.5,131.5 C 402.422,133.915 405.922,136.915 409,140.5C 409.72,142.112 409.554,143.612 408.5,145C 412.998,147.494 415.332,151.327 415.5,156.5C 414.519,154.604 413.519,152.604 412.5,150.5C 410.5,149.167 408.5,147.833 406.5,146.5C 407.52,144.568 407.687,142.568 407,140.5C 403.04,138.463 400.206,135.463 398.5,131.5 Z"/></g>
<g><path style="opacity:0.996" fill="#3b3f3a" d="M 289.5,149.5 C 290.451,150.919 290.784,152.585 290.5,154.5C 287.117,156.349 283.45,157.516 279.5,158C 267.548,160.308 255.548,162.142 243.5,163.5C 243.261,161.533 243.594,159.699 244.5,158C 259.863,156.27 274.863,153.436 289.5,149.5 Z"/></g>
<g><path style="opacity:0.996" fill="#628459" d="M 217.5,151.5 C 209.416,153.578 201.083,154.912 192.5,155.5C 200.586,153.443 208.92,152.11 217.5,151.5 Z"/></g>
<g><path style="opacity:0.996" fill="#6e7268" d="M 290.5,154.5 C 289.547,156.61 287.881,157.777 285.5,158C 271.957,161.213 258.29,163.38 244.5,164.5C 244.5,170.5 244.5,176.5 244.5,182.5C 243.51,176.355 243.177,170.022 243.5,163.5C 255.548,162.142 267.548,160.308 279.5,158C 283.45,157.516 287.117,156.349 290.5,154.5 Z"/></g>
<g><path style="opacity:0.996" fill="#40423f" d="M 226.5,167.5 C 214.912,169.358 203.246,169.858 191.5,169C 188.064,168.308 184.73,167.308 181.5,166C 180.663,164.989 180.33,163.822 180.5,162.5C 182.5,162.5 184.5,162.5 186.5,162.5C 199.886,163.978 213.22,163.644 226.5,161.5C 226.5,163.5 226.5,165.5 226.5,167.5 Z"/></g>
<g><path style="opacity:0.761" fill="#c7c6c1" d="M 57.5,141.5 C 56.4445,145.168 55.2778,148.835 54,152.5C 48.0336,163.814 42.0336,175.147 36,186.5C 35.2917,187.381 34.4584,188.047 33.5,188.5C 40.7221,172.388 48.7221,156.722 57.5,141.5 Z"/></g>
<g><path style="opacity:0.996" fill="#3d403c" d="M 285.5,195.5 C 271.741,193.923 258.074,194.256 244.5,196.5C 244.5,194.5 244.5,192.5 244.5,190.5C 258.142,188.548 271.808,188.215 285.5,189.5C 285.5,191.5 285.5,193.5 285.5,195.5 Z"/></g>
<g><path style="opacity:0.335" fill="#cccac7" d="M 415.5,156.5 C 418.545,164.436 420.379,172.769 421,181.5C 422.207,195.818 423.207,210.151 424,224.5C 426.807,229.776 429.307,235.109 431.5,240.5C 430.173,239.2 428.84,237.867 427.5,236.5C 426.53,233.226 425.03,230.226 423,227.5C 421.94,213.506 420.94,199.506 420,185.5C 417.771,176.021 416.271,166.355 415.5,156.5 Z"/></g>
<g><path style="opacity:0.996" fill="#3b3e3b" d="M 226.5,199.5 C 213.995,200.973 201.661,202.973 189.5,205.5C 189.343,204.127 189.51,202.793 190,201.5C 191.947,200.89 193.781,200.057 195.5,199C 205.797,197.177 216.13,195.677 226.5,194.5C 226.5,196.167 226.5,197.833 226.5,199.5 Z"/></g>
<g><path style="opacity:0.996" fill="#93928b" d="M 285.5,195.5 C 284.886,209.386 281.886,222.72 276.5,235.5C 265.802,236.703 255.135,238.036 244.5,239.5C 244.5,235.5 244.5,231.5 244.5,227.5C 250.356,225.993 256.19,224.326 262,222.5C 263.691,220.977 265.191,219.311 266.5,217.5C 266.253,216.287 265.586,215.62 264.5,215.5C 267.465,212.18 267.132,209.347 263.5,207C 257.155,206.556 250.822,206.723 244.5,207.5C 244.5,203.833 244.5,200.167 244.5,196.5C 258.074,194.256 271.741,193.923 285.5,195.5 Z"/></g>
<g><path style="opacity:0.996" fill="#93918a" d="M 226.5,199.5 C 227.485,203.634 227.818,207.968 227.5,212.5C 219.76,214.202 212.093,216.202 204.5,218.5C 203.177,220.854 203.843,222.521 206.5,223.5C 206.5,223.833 206.5,224.167 206.5,224.5C 205.5,224.5 204.5,224.5 203.5,224.5C 204.099,227.168 205.766,229.002 208.5,230C 214.825,230.5 221.158,230.666 227.5,230.5C 227.5,234.5 227.5,238.5 227.5,242.5C 217.167,243.833 206.833,245.167 196.5,246.5C 194.941,232.607 192.608,218.94 189.5,205.5C 201.661,202.973 213.995,200.973 226.5,199.5 Z"/></g>
<g><path style="opacity:0.996" fill="#41493e" d="M 164.5,198.5 C 167.19,201.039 169.357,204.039 171,207.5C 173.821,216.122 176.321,224.789 178.5,233.5C 175.934,226.982 173.434,220.315 171,213.5C 169.401,209.373 167.067,205.706 164,202.5C 163.235,200.934 163.402,199.601 164.5,198.5 Z"/></g>
<g><path style="opacity:0.047" fill="#f0efee" d="M 31.5,194.5 C 31.6663,201.508 31.4996,208.508 31,215.5C 30.3645,216.966 29.5312,218.3 28.5,219.5C 29.1925,220.518 29.8592,221.518 30.5,222.5C 28.5159,222.516 27.5159,221.516 27.5,219.5C 28.0909,217.734 28.9242,216.067 30,214.5C 30.1717,207.654 30.6717,200.987 31.5,194.5 Z"/></g>
<g><path style="opacity:0.996" fill="#3e423d" d="M 264.5,215.5 C 265.586,215.62 266.253,216.287 266.5,217.5C 265.191,219.311 263.691,220.977 262,222.5C 256.19,224.326 250.356,225.993 244.5,227.5C 244.244,225.208 244.577,223.041 245.5,221C 251.95,219.46 258.283,217.626 264.5,215.5 Z"/></g>
<g><path style="opacity:0.996" fill="#3c5c36" d="M 206.5,224.5 C 206.5,224.167 206.5,223.833 206.5,223.5C 213.797,224.506 221.131,224.506 228.5,223.5C 228.823,230.022 228.49,236.355 227.5,242.5C 227.5,238.5 227.5,234.5 227.5,230.5C 227.5,228.5 227.5,226.5 227.5,224.5C 220.449,225.715 213.449,225.715 206.5,224.5 Z"/></g>
<g><path style="opacity:0.996" fill="#3f403e" d="M 206.5,224.5 C 213.449,225.715 220.449,225.715 227.5,224.5C 227.5,226.5 227.5,228.5 227.5,230.5C 221.158,230.666 214.825,230.5 208.5,230C 205.766,229.002 204.099,227.168 203.5,224.5C 204.5,224.5 205.5,224.5 206.5,224.5 Z"/></g>
<g><path style="opacity:0.4" fill="#cfcecb" d="M 30.5,222.5 C 31.2389,222.369 31.9056,222.536 32.5,223C 30.6217,224.543 29.1217,226.376 28,228.5C 26.7602,235.373 28.2602,241.54 32.5,247C 31.9558,247.717 31.2891,248.217 30.5,248.5C 28.249,243.747 26.5823,238.747 25.5,233.5C 25.8484,229.075 27.5151,225.409 30.5,222.5 Z"/></g>
<g><path style="opacity:0.196" fill="#d4d3d1" d="M 431.5,240.5 C 433.033,242.634 433.7,245.134 433.5,248C 434.1,252.131 432.766,255.464 429.5,258C 430.687,259.019 431.687,260.186 432.5,261.5C 432.145,262.522 431.478,263.189 430.5,263.5C 430.415,261.071 429.415,259.071 427.5,257.5C 429.899,256.206 431.399,254.206 432,251.5C 432.579,247.797 432.412,244.131 431.5,240.5 Z"/></g>
<g><path style="opacity:0.996" fill="#31522b" d="M 283.5,252.5 C 279.419,254.47 276.419,253.303 274.5,249C 266.433,248.403 258.433,248.903 250.5,250.5C 250.611,249.883 250.944,249.383 251.5,249C 259.469,247.735 267.469,247.402 275.5,248C 277.106,251.305 279.773,252.805 283.5,252.5 Z"/></g>
<g><path style="opacity:0.996" fill="#3d413c" d="M 312.5,196.5 C 313.598,197.601 313.765,198.934 313,200.5C 310.277,203.557 307.944,206.89 306,210.5C 301.751,220.147 298.418,230.147 296,240.5C 293.126,246.543 289.626,252.21 285.5,257.5C 280.517,259.549 276.517,258.382 273.5,254C 263.8,253.703 254.134,254.203 244.5,255.5C 244.5,253.833 244.5,252.167 244.5,250.5C 246.5,250.5 248.5,250.5 250.5,250.5C 258.433,248.903 266.433,248.403 274.5,249C 276.419,253.303 279.419,254.47 283.5,252.5C 284.721,251.972 285.887,251.305 287,250.5C 289.648,245.536 292.648,240.869 296,236.5C 298.126,226.173 301.126,216.173 305,206.5C 306.305,202.203 308.805,198.869 312.5,196.5 Z"/></g>
<g><path style="opacity:0.994" fill="#1b1a1a" d="M 31.5,249.5 C 34.255,250.961 36.0884,253.295 37,256.5C 38.2905,261.11 38.6238,265.777 38,270.5C 31.8764,264.635 29.7097,257.635 31.5,249.5 Z"/></g>
<g><path style="opacity:0.996" fill="#3e443c" d="M 178.5,233.5 C 181.136,240.33 183.636,247.33 186,254.5C 187.5,256.667 189,258.833 190.5,261C 192.473,261.495 194.473,261.662 196.5,261.5C 196.695,257.808 198.695,255.974 202.5,256C 211.116,254.628 219.783,253.794 228.5,253.5C 228.5,255.167 228.5,256.833 228.5,258.5C 218.64,259.112 208.973,260.445 199.5,262.5C 197.233,263.362 196.233,265.029 196.5,267.5C 192.727,268.178 189.894,266.844 188,263.5C 182.802,254.113 179.635,244.113 178.5,233.5 Z"/></g>
<g><path style="opacity:0.996" fill="#3d3f3c" d="M 346.5,283.5 C 347.888,289.766 345.221,292.1 338.5,290.5C 307.166,287.919 275.833,287.919 244.5,290.5C 244.5,289.167 244.5,287.833 244.5,286.5C 247.5,285.907 250.5,285.074 253.5,284C 282.392,281.581 311.226,282.081 340,285.5C 342.502,285.662 344.669,284.995 346.5,283.5 Z"/></g>
<g><path style="opacity:0.996" fill="#3e403d" d="M 228.5,287.5 C 228.5,289.5 228.5,291.5 228.5,293.5C 216.176,294.636 203.843,295.802 191.5,297C 175.435,299.214 159.435,302.047 143.5,305.5C 140.097,305.439 136.764,304.939 133.5,304C 131.099,301.938 128.433,300.271 125.5,299C 122.208,297.035 121.875,294.869 124.5,292.5C 129.146,295.657 134.146,297.99 139.5,299.5C 142.976,300.643 146.642,300.81 150.5,300C 158.333,298.29 166,296.457 173.5,294.5C 174.5,294.5 175.5,294.5 176.5,294.5C 189.836,293.166 203.17,291.666 216.5,290C 217.737,289.768 218.737,289.268 219.5,288.5C 222.482,288.037 225.482,287.704 228.5,287.5 Z"/></g>
<g><path style="opacity:0.996" fill="#344931" d="M 219.5,288.5 C 218.737,289.268 217.737,289.768 216.5,290C 203.17,291.666 189.836,293.166 176.5,294.5C 190.429,291.228 204.763,289.228 219.5,288.5 Z"/></g>
<g><path style="opacity:0.996" fill="#54724d" d="M 244.5,286.5 C 244.5,287.833 244.5,289.167 244.5,290.5C 244.544,307.352 243.878,324.019 242.5,340.5C 242.598,322.321 243.264,304.321 244.5,286.5 Z"/></g>
<g><path style="opacity:0.996" fill="#324d2e" d="M 173.5,294.5 C 166,296.457 158.333,298.29 150.5,300C 146.642,300.81 142.976,300.643 139.5,299.5C 150.859,298.211 162.192,296.544 173.5,294.5 Z"/></g>
<g><path style="opacity:0.996" fill="#080808" d="M 424.5,295.5 C 424.635,300.66 423.801,305.66 422,310.5C 413.458,328.382 404.458,346.049 395,363.5C 393.957,366.757 393.457,370.09 393.5,373.5C 391.143,373.337 388.81,373.503 386.5,374C 372.622,390.426 356.289,403.759 337.5,414C 328.849,420.654 320.516,427.654 312.5,435C 309.83,435.543 307.33,435.043 305,433.5C 303.177,435.509 301.01,436.843 298.5,437.5C 288.791,437.357 279.124,436.691 269.5,435.5C 265.982,435.502 262.649,435.835 259.5,436.5C 256.43,436.368 253.43,436.701 250.5,437.5C 241.508,438.274 232.508,438.441 223.5,438C 219.838,436.837 216.172,435.67 212.5,434.5C 201.359,440.597 189.359,443.764 176.5,444C 161.146,438.28 146.479,431.28 132.5,423C 131.207,422.51 129.873,422.343 128.5,422.5C 127.544,418.933 125.21,417.266 121.5,417.5C 115.608,412.438 110.108,406.771 105,400.5C 104.503,397.854 104.336,395.187 104.5,392.5C 103.5,392.5 102.5,392.5 101.5,392.5C 100.653,391.034 99.3197,390.2 97.5,390C 94.1832,389.502 90.8499,389.335 87.5,389.5C 87.7989,387.396 87.4656,385.396 86.5,383.5C 84.802,384.681 83.1353,384.681 81.5,383.5C 78.3932,377.73 73.7265,373.73 67.5,371.5C 65.4309,368.427 62.7642,366.094 59.5,364.5C 58.343,362.862 57.1764,361.196 56,359.5C 55.3486,357.765 55.5153,356.098 56.5,354.5C 53.9121,353.416 51.7455,351.749 50,349.5C 48.7504,344.582 47.2504,339.749 45.5,335C 43.408,325.984 44.7413,325.317 49.5,333C 50.448,333.483 51.448,333.649 52.5,333.5C 51.833,335.819 51.6664,338.153 52,340.5C 58.6822,347.42 66.1822,353.253 74.5,358C 76.6456,362.34 79.9789,364.84 84.5,365.5C 84.2865,367.144 84.6198,368.644 85.5,370C 91.1005,370.046 96.4338,371.213 101.5,373.5C 102.164,377.654 103.331,381.654 105,385.5C 110.851,391.831 117.351,397.331 124.5,402C 139.132,410.406 154.132,418.073 169.5,425C 175.776,426.424 182.109,426.758 188.5,426C 193.972,423.546 199.638,421.546 205.5,420C 209.046,415.909 213.046,415.409 217.5,418.5C 222.925,419.984 228.591,420.651 234.5,420.5C 238.349,420.499 242.016,420.165 245.5,419.5C 248.385,419.806 251.052,419.473 253.5,418.5C 265.228,418.281 276.894,418.947 288.5,420.5C 295.8,421.984 301.8,419.984 306.5,414.5C 308.143,416.154 309.976,417.487 312,418.5C 329.473,403.341 347.973,389.508 367.5,377C 374.473,370.027 381.473,363.027 388.5,356C 391.014,354.748 393.68,354.248 396.5,354.5C 396.336,351.813 396.503,349.146 397,346.5C 400.068,340.701 403.401,335.034 407,329.5C 411.453,318.594 416.453,307.927 422,297.5C 422.708,296.619 423.542,295.953 424.5,295.5 Z"/></g>
<g><path style="opacity:0.321" fill="#d6d5d2" d="M 35.5,270.5 C 36.4584,270.953 37.2917,271.619 38,272.5C 39.9437,291.159 41.7771,309.825 43.5,328.5C 39.7679,309.422 37.1012,290.089 35.5,270.5 Z"/></g>
<g><path style="opacity:0.996" fill="#466f3e" d="M 228.5,287.5 C 229.332,306.996 229.832,326.662 230,346.5C 230.175,352.62 231.008,358.62 232.5,364.5C 231.833,363.833 231.167,363.167 230.5,362.5C 228.686,339.558 228.019,316.558 228.5,293.5C 228.5,291.5 228.5,289.5 228.5,287.5 Z"/></g>
<g><path style="opacity:0.055" fill="#b1b1b1" d="M 59.5,364.5 C 62.7642,366.094 65.4309,368.427 67.5,371.5C 65.0676,370.25 62.7343,368.75 60.5,367C 59.7476,366.329 59.4142,365.496 59.5,364.5 Z"/></g>
<g><path style="opacity:0.996" fill="#424840" d="M 241.5,354.5 C 240.339,360.482 238.672,366.315 236.5,372C 235.216,372.684 234.049,372.517 233,371.5C 231.451,368.688 230.618,365.688 230.5,362.5C 231.167,363.167 231.833,363.833 232.5,364.5C 233.585,366.582 235.085,366.916 237,365.5C 237.759,361.384 239.259,357.718 241.5,354.5 Z"/></g>
<g><path style="opacity:0.076" fill="#a8a8a8" d="M 429.5,274.5 C 426.956,287.385 424.789,300.385 423,313.5C 413.76,330.979 404.76,348.646 396,366.5C 395.667,369.167 395.333,371.833 395,374.5C 391.24,374.939 387.74,376.106 384.5,378C 379.505,383.995 374.172,389.661 368.5,395C 355.009,404.912 341.342,414.579 327.5,424C 322.199,428.3 317.199,432.966 312.5,438C 309.975,438.041 307.642,437.207 305.5,435.5C 302.174,438.722 298.174,440.388 293.5,440.5C 286.947,440.001 280.613,439.001 274.5,437.5C 282.664,438.455 290.664,438.455 298.5,437.5C 301.01,436.843 303.177,435.509 305,433.5C 307.33,435.043 309.83,435.543 312.5,435C 320.516,427.654 328.849,420.654 337.5,414C 356.289,403.759 372.622,390.426 386.5,374C 388.81,373.503 391.143,373.337 393.5,373.5C 393.457,370.09 393.957,366.757 395,363.5C 404.458,346.049 413.458,328.382 422,310.5C 423.801,305.66 424.635,300.66 424.5,295.5C 425.902,288.205 427.569,281.205 429.5,274.5 Z"/></g>
<g><path style="opacity:0.137" fill="#b0b0b0" d="M 67.5,371.5 C 73.7265,373.73 78.3932,377.73 81.5,383.5C 83.1353,384.681 84.802,384.681 86.5,383.5C 87.4656,385.396 87.7989,387.396 87.5,389.5C 86.3099,387.174 84.3099,386.007 81.5,386C 77.9743,379.976 73.3076,375.142 67.5,371.5 Z"/></g>
<g><path style="opacity:0.078" fill="#b6b6b6" d="M 87.5,389.5 C 90.8499,389.335 94.1832,389.502 97.5,390C 99.3197,390.2 100.653,391.034 101.5,392.5C 96.7148,391.491 92.0481,390.491 87.5,389.5 Z"/></g>
<g><path style="opacity:0.204" fill="#979797" d="M 101.5,392.5 C 102.5,392.5 103.5,392.5 104.5,392.5C 104.336,395.187 104.503,397.854 105,400.5C 110.108,406.771 115.608,412.438 121.5,417.5C 111.082,412.09 104.415,403.757 101.5,392.5 Z"/></g>
<g><path style="opacity:0.996" fill="#54534f" d="M 253.5,418.5 C 261.656,417.343 269.99,417.177 278.5,418C 282.133,418.149 285.466,418.982 288.5,420.5C 276.894,418.947 265.228,418.281 253.5,418.5 Z"/></g>
<g><path style="opacity:0.702" fill="#888888" d="M 121.5,417.5 C 125.21,417.266 127.544,418.933 128.5,422.5C 125.865,421.189 123.531,419.522 121.5,417.5 Z"/></g>
<g><path style="opacity:0.996" fill="#64625d" d="M 217.5,418.5 C 226.82,419.129 236.154,419.462 245.5,419.5C 242.016,420.165 238.349,420.499 234.5,420.5C 228.591,420.651 222.925,419.984 217.5,418.5 Z"/></g>
<g><path style="opacity:0.092" fill="#cdcdcd" d="M 259.5,436.5 C 264.695,436.179 269.695,436.513 274.5,437.5C 266.495,437.731 258.495,438.065 250.5,438.5C 250.5,438.167 250.5,437.833 250.5,437.5C 253.43,436.701 256.43,436.368 259.5,436.5 Z"/></g>
<g><path style="opacity:0.984" fill="#3c3c3c" d="M 259.5,436.5 C 262.649,435.835 265.982,435.502 269.5,435.5C 279.124,436.691 288.791,437.357 298.5,437.5C 290.664,438.455 282.664,438.455 274.5,437.5C 269.695,436.513 264.695,436.179 259.5,436.5 Z"/></g>
<g><path style="opacity:0.02" fill="#a9a9a9" d="M 128.5,422.5 C 129.873,422.343 131.207,422.51 132.5,423C 146.479,431.28 161.146,438.28 176.5,444C 189.359,443.764 201.359,440.597 212.5,434.5C 216.172,435.67 219.838,436.837 223.5,438C 232.508,438.441 241.508,438.274 250.5,437.5C 250.5,437.833 250.5,438.167 250.5,438.5C 240.675,439.658 230.675,439.825 220.5,439C 217.864,438.066 215.197,437.232 212.5,436.5C 202.977,441.73 192.81,445.063 182,446.5C 162.936,441.048 145.103,433.048 128.5,422.5 Z"/></g>
</svg>
