<?xml version="1.0" encoding="UTF-8"?>
<!DOCTYPE svg PUBLIC "-//W3C//DTD SVG 1.1//EN" "http://www.w3.org/Graphics/SVG/1.1/DTD/svg11.dtd">
<svg xmlns="http://www.w3.org/2000/svg" version="1.1" width="461px" height="457px" style="shape-rendering:geometricPrecision; text-rendering:geometricPrecision; image-rendering:optimizeQuality; fill-rule:evenodd; clip-rule:evenodd" xmlns:xlink="http://www.w3.org/1999/xlink">
<g><path style="opacity:0.996" fill="#97948e" d="M 291.5,52.5 C 291.937,54.0744 292.937,55.2411 294.5,56C 299.712,58.4383 305.045,60.605 310.5,62.5C 318.805,65.372 326.471,69.372 333.5,74.5C 333.281,75.675 333.614,76.675 334.5,77.5C 336.833,78.6667 339.167,79.8333 341.5,81C 346.335,85.0035 351.002,89.1702 355.5,93.5C 357.068,95.8109 357.902,98.4776 358,101.5C 360.255,103.499 362.755,104.832 365.5,105.5C 367.515,106.924 369.848,107.59 372.5,107.5C 372.5,109.167 372.5,110.833 372.5,112.5C 374.527,112.338 376.527,112.505 378.5,113C 380.803,118.317 384.803,121.484 390.5,122.5C 390.833,122.5 391.167,122.5 391.5,122.5C 391.539,123.583 391.873,124.583 392.5,125.5C 396.625,129.424 400.959,133.091 405.5,136.5C 406.78,138.724 406.447,140.724 404.5,142.5C 406.386,143.406 408.22,144.406 410,145.5C 410.86,148.633 412.36,151.3 414.5,153.5C 415.679,162.542 417.179,171.542 419,180.5C 419.333,191.5 419.667,202.5 420,213.5C 420.156,216.191 420.989,218.524 422.5,220.5C 423.599,227.474 426.599,233.474 431.5,238.5C 432.162,244.228 430.495,249.061 426.5,253C 427.741,254.731 428.741,256.564 429.5,258.5C 428.374,274.415 426.207,290.081 423,305.5C 414.663,322.844 405.829,339.844 396.5,356.5C 396.687,354.436 397.187,352.436 398,350.5C 405.937,335.625 413.604,320.625 421,305.5C 422.244,301.221 422.577,296.888 422,292.5C 420.591,294.892 419.091,297.226 417.5,299.5C 411.296,313.998 404.296,327.998 396.5,341.5C 395.883,341.611 395.383,341.944 395,342.5C 394.503,344.81 394.337,347.143 394.5,349.5C 392.585,349.216 390.919,349.549 389.5,350.5C 388.761,350.369 388.094,350.536 387.5,351C 380.939,358.473 373.939,365.473 366.5,372C 354.18,381.161 341.514,389.828 328.5,398C 322.865,402.633 317.532,407.633 312.5,413C 309.329,414.037 306.829,413.204 305,410.5C 303.011,412.313 300.844,413.98 298.5,415.5C 291.907,417.139 285.574,416.639 279.5,414C 275,413.833 270.5,413.667 266,413.5C 250.199,415.065 234.366,415.565 218.5,415C 211.135,411.206 204.468,412.206 198.5,418C 188.352,421.653 178.018,422.32 167.5,420C 149.803,412.318 132.803,403.318 116.5,393C 110.667,388.5 105.5,383.333 101,377.5C 100.818,374.774 100.318,372.107 99.5,369.5C 96.9124,368.806 94.579,367.64 92.5,366C 89.5184,365.502 86.5184,365.335 83.5,365.5C 83.5,363.833 83.5,362.167 83.5,360.5C 81.4727,360.662 79.4727,360.495 77.5,360C 75.4085,354.907 71.7419,351.574 66.5,350C 60.9795,345.477 55.8129,340.644 51,335.5C 50.3486,333.765 50.5153,332.098 51.5,330.5C 47.3985,328.894 44.8985,325.894 44,321.5C 43.5172,322.448 43.3505,323.448 43.5,324.5C 39.4345,306.202 37.2678,287.535 37,268.5C 35.9054,267.307 35.072,265.973 34.5,264.5C 35.5862,264.38 36.2528,263.713 36.5,262.5C 36.0567,256.603 34.7234,250.937 32.5,245.5C 31.675,244.614 30.675,244.281 29.5,244.5C 29.9234,243.735 30.2568,242.902 30.5,242C 25.7593,236.12 24.5926,229.62 27,222.5C 28.4095,221.213 29.9095,220.046 31.5,219C 30.6921,217.294 29.3588,216.461 27.5,216.5C 27.6287,214.784 27.962,213.117 28.5,211.5C 29.29,210.391 29.79,209.058 30,207.5C 30.3333,201.5 30.6667,195.5 31,189.5C 34.3358,183.484 37.6691,177.484 41,171.5C 43.9789,162.884 47.4789,154.551 51.5,146.5C 53.5962,140.876 56.2628,135.543 59.5,130.5C 61.2227,128.22 61.8893,125.553 61.5,122.5C 63.5273,122.662 65.5273,122.495 67.5,122C 68.056,121.617 68.3893,121.117 68.5,120.5C 72.1667,118.833 74.8333,116.167 76.5,112.5C 80.5331,107.466 85.1997,103.133 90.5,99.5C 96.6194,95.8858 102.619,92.0525 108.5,88C 110.041,86.6288 111.375,85.1288 112.5,83.5C 119.825,78.1694 127.158,72.836 134.5,67.5C 137.899,65.6117 140.899,63.1117 143.5,60C 146.689,59.5055 149.523,60.3388 152,62.5C 153.775,61.2302 154.942,59.5635 155.5,57.5C 155.611,56.8826 155.944,56.3826 156.5,56C 159.333,55.8333 162.167,55.6667 165,55.5C 169.442,55.3259 173.609,55.9926 177.5,57.5C 182.748,59.0221 188.248,59.6888 194,59.5C 208.811,58.3074 223.644,57.6407 238.5,57.5C 238.833,57.5 239.167,57.5 239.5,57.5C 239.953,58.4584 240.619,59.2917 241.5,60C 247.621,60.9259 252.954,59.2593 257.5,55C 261.351,54.2456 265.184,53.4123 269,52.5C 270.376,52.3158 271.209,51.6491 271.5,50.5C 278.241,49.0532 284.907,49.7198 291.5,52.5 Z"/></g>
<g><path style="opacity:0.298" fill="#d2cfcd" d="M 291.5,52.5 C 298.3,55.0654 304.633,58.3987 310.5,62.5C 305.045,60.605 299.712,58.4383 294.5,56C 292.937,55.2411 291.937,54.0744 291.5,52.5 Z"/></g>
<g><path style="opacity:0.239" fill="#c5c3c1" d="M 271.5,50.5 C 271.209,51.6491 270.376,52.3158 269,52.5C 265.184,53.4123 261.351,54.2456 257.5,55C 252.954,59.2593 247.621,60.9259 241.5,60C 240.619,59.2917 239.953,58.4584 239.5,57.5C 241.787,57.7239 243.953,58.3906 246,59.5C 253.723,54.425 262.223,51.425 271.5,50.5 Z"/></g>
<g><path style="opacity:0.71" fill="#bbb9b5" d="M 238.5,57.5 C 223.644,57.6407 208.811,58.3074 194,59.5C 188.248,59.6888 182.748,59.0221 177.5,57.5C 193.209,57.7515 208.875,57.0848 224.5,55.5C 229.424,55.3541 234.091,56.0207 238.5,57.5 Z"/></g>
<g><path style="opacity:0.176" fill="#cfcecb" d="M 155.5,57.5 C 154.942,59.5635 153.775,61.2302 152,62.5C 149.523,60.3388 146.689,59.5055 143.5,60C 140.899,63.1117 137.899,65.6117 134.5,67.5C 137.296,64.2026 140.296,61.0359 143.5,58C 146.17,57.4574 148.67,57.9574 151,59.5C 152.406,58.5862 153.906,57.9195 155.5,57.5 Z"/></g>
<g><path style="opacity:0.188" fill="#cecdca" d="M 333.5,74.5 C 338.311,77.4092 342.978,80.5759 347.5,84C 350.777,86.7663 353.443,89.933 355.5,93.5C 351.002,89.1702 346.335,85.0035 341.5,81C 339.167,79.8333 336.833,78.6667 334.5,77.5C 333.614,76.675 333.281,75.675 333.5,74.5 Z"/></g>
<g><path style="opacity:0.314" fill="#d2d0ce" d="M 112.5,83.5 C 111.375,85.1288 110.041,86.6288 108.5,88C 102.619,92.0525 96.6194,95.8858 90.5,99.5C 97.1509,93.1797 104.484,87.8464 112.5,83.5 Z"/></g>
<g><path style="opacity:0.996" fill="#be2a1a" d="M 245.5,121.5 C 243.035,127.812 241.702,134.479 241.5,141.5C 244.059,141.802 246.393,141.468 248.5,140.5C 254.851,139.162 261.185,137.662 267.5,136C 274.036,134.989 280.369,135.656 286.5,138C 289.528,139.911 290.194,142.411 288.5,145.5C 273.34,149.065 258.007,151.732 242.5,153.5C 242.5,155.5 242.5,157.5 242.5,159.5C 242.5,165.833 242.5,172.167 242.5,178.5C 246.425,178.57 250.091,177.903 253.5,176.5C 260.434,174.924 267.434,173.59 274.5,172.5C 280.43,170.544 286.43,170.21 292.5,171.5C 299.745,174.707 306.245,179.04 312,184.5C 312.495,186.473 312.662,188.473 312.5,190.5C 308.781,193.054 305.948,196.387 304,200.5C 300.496,211.502 296.829,222.502 293,233.5C 291.066,237.759 288.732,241.759 286,245.5C 281.134,249.715 276.634,249.382 272.5,244.5C 262.736,243.25 253.069,243.917 243.5,246.5C 242.508,254.316 242.174,262.316 242.5,270.5C 244.735,270.795 246.735,270.461 248.5,269.5C 269.314,267.646 289.981,264.812 310.5,261C 324.179,258.428 335.679,262.262 345,272.5C 345.667,274.5 345.667,276.5 345,278.5C 344.617,279.056 344.117,279.389 343.5,279.5C 328.03,278.261 312.53,277.594 297,277.5C 289.326,277.5 281.826,277.834 274.5,278.5C 264.141,279.002 253.808,279.835 243.5,281C 242.577,283.041 242.244,285.208 242.5,287.5C 242.344,303.856 241.678,320.19 240.5,336.5C 239.873,341.141 239.54,345.807 239.5,350.5C 238.478,354.224 237.145,357.891 235.5,361.5C 233.446,361.635 231.779,360.968 230.5,359.5C 228.896,351.936 227.896,344.27 227.5,336.5C 227.5,318.833 227.5,301.167 227.5,283.5C 219.475,283.885 211.475,284.551 203.5,285.5C 196.312,286.086 189.312,287.086 182.5,288.5C 170.978,289.584 159.645,291.584 148.5,294.5C 143.13,294.608 137.797,294.275 132.5,293.5C 129.661,291.58 126.661,289.913 123.5,288.5C 121.525,286.638 121.192,284.638 122.5,282.5C 139.141,283.142 155.474,282.142 171.5,279.5C 189.883,277.088 208.217,274.755 226.5,272.5C 227.833,264.833 227.833,257.167 226.5,249.5C 225.726,248.853 224.726,248.52 223.5,248.5C 214.226,249.443 205.226,251.109 196.5,253.5C 195.805,255.693 194.305,257.027 192,257.5C 189.719,256.224 187.719,254.557 186,252.5C 183.189,246.556 180.689,240.556 178.5,234.5C 177.993,229.453 177.16,224.453 176,219.5C 173.216,214.485 171.216,209.152 170,203.5C 167.882,198.906 165.048,194.906 161.5,191.5C 161.5,189.833 161.5,188.167 161.5,186.5C 168.098,186.258 174.598,186.925 181,188.5C 191.323,186.22 201.823,184.553 212.5,183.5C 216.798,182.8 221.131,182.467 225.5,182.5C 225.826,173.983 225.493,165.65 224.5,157.5C 211.892,159.649 199.225,159.982 186.5,158.5C 182.494,157.827 180.16,155.494 179.5,151.5C 183.167,151.5 186.833,151.5 190.5,151.5C 200.697,151.384 210.364,149.718 219.5,146.5C 221.144,146.714 222.644,146.38 224,145.5C 224.74,139.782 224.573,134.115 223.5,128.5C 223.134,121.102 220.134,115.102 214.5,110.5C 214.297,108.61 214.963,107.11 216.5,106C 225.357,105.63 233.69,107.63 241.5,112C 244.62,114.408 245.953,117.574 245.5,121.5 Z"/></g>
<g><path style="opacity:0.835" fill="#c2c0bd" d="M 365.5,105.5 C 370.487,104.349 373.987,106.016 376,110.5C 377.113,109.289 378.28,109.289 379.5,110.5C 380.794,112.962 382.294,115.295 384,117.5C 386.687,118.582 388.854,120.249 390.5,122.5C 384.803,121.484 380.803,118.317 378.5,113C 376.527,112.505 374.527,112.338 372.5,112.5C 372.5,110.833 372.5,109.167 372.5,107.5C 369.848,107.59 367.515,106.924 365.5,105.5 Z"/></g>
<g><path style="opacity:0.243" fill="#d9d9d6" d="M 76.5,112.5 C 74.8333,116.167 72.1667,118.833 68.5,120.5C 70.8333,117.5 73.5,114.833 76.5,112.5 Z"/></g>
<g><path style="opacity:0.996" fill="#4f423d" d="M 214.5,110.5 C 220.134,115.102 223.134,121.102 223.5,128.5C 221.762,124.734 219.262,121.4 216,118.5C 214.748,115.986 214.248,113.32 214.5,110.5 Z"/></g>
<g><path style="opacity:0.153" fill="#e1e1e0" d="M 68.5,120.5 C 68.3893,121.117 68.056,121.617 67.5,122C 65.5273,122.495 63.5273,122.662 61.5,122.5C 61.8893,125.553 61.2227,128.22 59.5,130.5C 60.6393,127.838 60.8059,125.171 60,122.5C 62.4815,120.686 65.3148,120.02 68.5,120.5 Z"/></g>
<g><path style="opacity:0.996" fill="#78584b" d="M 245.5,121.5 C 244.35,127.774 243.683,134.107 243.5,140.5C 245.167,140.5 246.833,140.5 248.5,140.5C 246.393,141.468 244.059,141.802 241.5,141.5C 241.702,134.479 243.035,127.812 245.5,121.5 Z"/></g>
<g><path style="opacity:0.482" fill="#ceccc9" d="M 391.5,122.5 C 398.324,126.824 403.991,132.324 408.5,139C 407.549,139.718 407.383,140.551 408,141.5C 412.128,144.344 414.295,148.344 414.5,153.5C 412.36,151.3 410.86,148.633 410,145.5C 408.22,144.406 406.386,143.406 404.5,142.5C 406.447,140.724 406.78,138.724 405.5,136.5C 400.959,133.091 396.625,129.424 392.5,125.5C 391.873,124.583 391.539,123.583 391.5,122.5 Z"/></g>
<g><path style="opacity:0.996" fill="#47403d" d="M 288.5,145.5 C 290.002,147.863 289.668,150.03 287.5,152C 273.105,156.121 258.438,158.621 243.5,159.5C 243.167,159.5 242.833,159.5 242.5,159.5C 242.5,157.5 242.5,155.5 242.5,153.5C 258.007,151.732 273.34,149.065 288.5,145.5 Z"/></g>
<g><path style="opacity:0.996" fill="#a3412f" d="M 219.5,146.5 C 210.364,149.718 200.697,151.384 190.5,151.5C 199.993,149.569 209.659,147.902 219.5,146.5 Z"/></g>
<g><path style="opacity:0.996" fill="#44413f" d="M 224.5,157.5 C 224.5,159.5 224.5,161.5 224.5,163.5C 213.246,165.344 201.912,165.844 190.5,165C 187.5,164.167 184.5,163.333 181.5,162.5C 180.147,161.476 179.48,160.143 179.5,158.5C 181.833,158.5 184.167,158.5 186.5,158.5C 199.225,159.982 211.892,159.649 224.5,157.5 Z"/></g>
<g><path style="opacity:0.996" fill="#a14230" d="M 292.5,171.5 C 286.43,170.21 280.43,170.544 274.5,172.5C 279.754,169.728 285.42,168.894 291.5,170C 292.056,170.383 292.389,170.883 292.5,171.5 Z"/></g>
<g><path style="opacity:0.969" fill="#c8c6c3" d="M 51.5,146.5 C 47.4789,154.551 43.9789,162.884 41,171.5C 37.6691,177.484 34.3358,183.484 31,189.5C 30.6667,195.5 30.3333,201.5 30,207.5C 29.79,209.058 29.29,210.391 28.5,211.5C 27.8739,202.653 28.7072,193.986 31,185.5C 37.3677,172.091 44.201,159.091 51.5,146.5 Z"/></g>
<g><path style="opacity:0.996" fill="#8d7161" d="M 242.5,159.5 C 242.833,159.5 243.167,159.5 243.5,159.5C 243.5,165.167 243.5,170.833 243.5,176.5C 246.833,176.5 250.167,176.5 253.5,176.5C 250.091,177.903 246.425,178.57 242.5,178.5C 242.5,172.167 242.5,165.833 242.5,159.5 Z"/></g>
<g><path style="opacity:0.996" fill="#955545" d="M 224.5,157.5 C 225.493,165.65 225.826,173.983 225.5,182.5C 221.131,182.467 216.798,182.8 212.5,183.5C 216.183,181.75 220.183,181.083 224.5,181.5C 224.5,175.5 224.5,169.5 224.5,163.5C 224.5,161.5 224.5,159.5 224.5,157.5 Z"/></g>
<g><path style="opacity:0.996" fill="#413c3a" d="M 283.5,186.5 C 283.5,187.833 283.5,189.167 283.5,190.5C 270.142,189.234 256.809,189.568 243.5,191.5C 243.5,189.833 243.5,188.167 243.5,186.5C 250.939,184.978 258.606,184.311 266.5,184.5C 271.833,184.667 277.167,184.833 282.5,185C 283.056,185.383 283.389,185.883 283.5,186.5 Z"/></g>
<g><path style="opacity:0.996" fill="#413e3c" d="M 225.5,189.5 C 225.5,191.5 225.5,193.5 225.5,195.5C 213.027,196.702 200.694,198.702 188.5,201.5C 188.5,199.833 188.5,198.167 188.5,196.5C 191.187,196.664 193.854,196.497 196.5,196C 197.056,195.617 197.389,195.117 197.5,194.5C 198.609,194.443 199.609,194.11 200.5,193.5C 206.147,193.409 211.48,192.409 216.5,190.5C 219.455,189.841 222.455,189.508 225.5,189.5 Z"/></g>
<g><path style="opacity:0.996" fill="#959089" d="M 283.5,186.5 C 283.833,186.5 284.167,186.5 284.5,186.5C 283.964,200.176 281.631,213.51 277.5,226.5C 276.869,228.448 275.869,230.281 274.5,232C 266.108,232.361 257.775,233.194 249.5,234.5C 247.5,234.5 245.5,234.5 243.5,234.5C 243.5,230.167 243.5,225.833 243.5,221.5C 251.113,221.891 257.947,219.891 264,215.5C 264.495,213.527 264.662,211.527 264.5,209.5C 264.739,207.533 264.406,205.699 263.5,204C 259.27,202.71 254.936,202.21 250.5,202.5C 248.167,202.5 245.833,202.5 243.5,202.5C 243.5,198.833 243.5,195.167 243.5,191.5C 256.809,189.568 270.142,189.234 283.5,190.5C 283.5,189.167 283.5,187.833 283.5,186.5 Z"/></g>
<g><path style="opacity:0.206" fill="#d7d5d3" d="M 414.5,153.5 C 416.885,161.576 418.718,169.91 420,178.5C 420.743,192.525 421.577,206.525 422.5,220.5C 420.989,218.524 420.156,216.191 420,213.5C 419.667,202.5 419.333,191.5 419,180.5C 417.179,171.542 415.679,162.542 414.5,153.5 Z"/></g>
<g><path style="opacity:0.996" fill="#6a3124" d="M 216.5,190.5 C 211.48,192.409 206.147,193.409 200.5,193.5C 205.486,191.299 210.82,190.299 216.5,190.5 Z"/></g>
<g><path style="opacity:0.996" fill="#958f88" d="M 225.5,189.5 C 226.817,195.678 226.817,202.012 225.5,208.5C 218.075,210.014 210.741,211.848 203.5,214C 202.243,216.076 202.576,217.91 204.5,219.5C 201.724,222.364 202.391,224.53 206.5,226C 213.18,226.474 219.846,226.307 226.5,225.5C 226.5,229.5 226.5,233.5 226.5,237.5C 225.081,238.451 223.415,238.784 221.5,238.5C 215.136,239.008 208.802,239.841 202.5,241C 201.944,241.383 201.611,241.883 201.5,242.5C 199.208,242.756 197.041,242.423 195,241.5C 192.658,230.533 190.825,219.533 189.5,208.5C 189.326,206.139 188.993,203.806 188.5,201.5C 200.694,198.702 213.027,196.702 225.5,195.5C 225.5,193.5 225.5,191.5 225.5,189.5 Z"/></g>
<g><path style="opacity:0.996" fill="#884f3e" d="M 243.5,186.5 C 243.5,188.167 243.5,189.833 243.5,191.5C 243.5,195.167 243.5,198.833 243.5,202.5C 245.833,202.5 248.167,202.5 250.5,202.5C 248.052,203.473 245.385,203.806 242.5,203.5C 242.178,197.642 242.511,191.975 243.5,186.5 Z"/></g>
<g><path style="opacity:0.996" fill="#ac3322" d="M 284.5,186.5 C 285.653,192.319 285.819,198.319 285,204.5C 283.768,207.3 283.101,210.3 283,213.5C 281.445,218.011 279.612,222.344 277.5,226.5C 281.631,213.51 283.964,200.176 284.5,186.5 Z"/></g>
<g><path style="opacity:0.996" fill="#59433c" d="M 161.5,191.5 C 165.048,194.906 167.882,198.906 170,203.5C 171.216,209.152 173.216,214.485 176,219.5C 177.16,224.453 177.993,229.453 178.5,234.5C 175.114,227.511 172.614,220.177 171,212.5C 168.145,207.385 165.145,202.385 162,197.5C 161.505,195.527 161.338,193.527 161.5,191.5 Z"/></g>
<g><path style="opacity:0.996" fill="#6b3a2c" d="M 197.5,194.5 C 197.389,195.117 197.056,195.617 196.5,196C 193.854,196.497 191.187,196.664 188.5,196.5C 188.5,198.167 188.5,199.833 188.5,201.5C 188.993,203.806 189.326,206.139 189.5,208.5C 188.732,207.737 188.232,206.737 188,205.5C 187.502,202.183 187.335,198.85 187.5,195.5C 190.807,194.949 194.14,194.616 197.5,194.5 Z"/></g>
<g><path style="opacity:0.996" fill="#443d3b" d="M 264.5,209.5 C 264.662,211.527 264.495,213.527 264,215.5C 257.947,219.891 251.113,221.891 243.5,221.5C 243.5,220.167 243.5,218.833 243.5,217.5C 249.248,215.716 255.248,213.883 261.5,212C 262.373,210.955 263.373,210.122 264.5,209.5 Z"/></g>
<g><path style="opacity:0.996" fill="#4a3e39" d="M 204.5,219.5 C 211.785,220.505 219.118,220.672 226.5,220C 227.825,225.932 227.825,231.766 226.5,237.5C 226.5,233.5 226.5,229.5 226.5,225.5C 219.846,226.307 213.18,226.474 206.5,226C 202.391,224.53 201.724,222.364 204.5,219.5 Z"/></g>
<g><path style="opacity:0.996" fill="#854e3e" d="M 243.5,217.5 C 243.5,218.833 243.5,220.167 243.5,221.5C 243.5,225.833 243.5,230.167 243.5,234.5C 245.5,234.5 247.5,234.5 249.5,234.5C 247.393,235.468 245.059,235.802 242.5,235.5C 242.177,229.31 242.51,223.31 243.5,217.5 Z"/></g>
<g><path style="opacity:0.604" fill="#c9c8c4" d="M 422.5,220.5 C 425.993,226.152 428.993,232.152 431.5,238.5C 426.599,233.474 423.599,227.474 422.5,220.5 Z"/></g>
<g><path style="opacity:0.996" fill="#9c4c3a" d="M 221.5,238.5 C 215.148,240.654 208.481,241.987 201.5,242.5C 201.611,241.883 201.944,241.383 202.5,241C 208.802,239.841 215.136,239.008 221.5,238.5 Z"/></g>
<g><path style="opacity:0.996" fill="#5a342a" d="M 272.5,244.5 C 262.81,244.905 253.144,245.572 243.5,246.5C 253.069,243.917 262.736,243.25 272.5,244.5 Z"/></g>
<g><path style="opacity:0.994" fill="#131313" d="M 29.5,244.5 C 30.675,244.281 31.675,244.614 32.5,245.5C 34.7234,250.937 36.0567,256.603 36.5,262.5C 36.2528,263.713 35.5862,264.38 34.5,264.5C 32.9356,260.372 31.1023,256.372 29,252.5C 28.2782,249.739 28.4448,247.073 29.5,244.5 Z"/></g>
<g><path style="opacity:0.996" fill="#463f3c" d="M 312.5,190.5 C 313.162,195.357 311.329,199.023 307,201.5C 304.659,206.535 302.326,211.535 300,216.5C 299.343,221.787 298.176,226.953 296.5,232C 293.54,237.419 290.707,242.919 288,248.5C 283.319,255.759 278.152,256.259 272.5,250C 262.791,249.578 253.125,250.078 243.5,251.5C 243.5,249.833 243.5,248.167 243.5,246.5C 253.144,245.572 262.81,244.905 272.5,244.5C 276.634,249.382 281.134,249.715 286,245.5C 288.732,241.759 291.066,237.759 293,233.5C 296.829,222.502 300.496,211.502 304,200.5C 305.948,196.387 308.781,193.054 312.5,190.5 Z"/></g>
<g><path style="opacity:0.996" fill="#4a3f3b" d="M 178.5,234.5 C 180.689,240.556 183.189,246.556 186,252.5C 187.719,254.557 189.719,256.224 192,257.5C 194.305,257.027 195.805,255.693 196.5,253.5C 206.562,252.53 216.562,251.197 226.5,249.5C 227.833,257.167 227.833,264.833 226.5,272.5C 226.5,266.5 226.5,260.5 226.5,254.5C 216.089,254.93 205.923,256.596 196,259.5C 195.517,260.448 195.351,261.448 195.5,262.5C 191.406,263.295 188.239,261.962 186,258.5C 183.964,252.997 181.63,247.664 179,242.5C 178.503,239.854 178.336,237.187 178.5,234.5 Z"/></g>
<g><path style="opacity:0.996" fill="#5b3429" d="M 226.5,249.5 C 216.562,251.197 206.562,252.53 196.5,253.5C 205.226,251.109 214.226,249.443 223.5,248.5C 224.726,248.52 225.726,248.853 226.5,249.5 Z"/></g>
<g><path style="opacity:0.996" fill="#844f3d" d="M 243.5,246.5 C 243.5,248.167 243.5,249.833 243.5,251.5C 243.5,257.5 243.5,263.5 243.5,269.5C 245.167,269.5 246.833,269.5 248.5,269.5C 246.735,270.461 244.735,270.795 242.5,270.5C 242.174,262.316 242.508,254.316 243.5,246.5 Z"/></g>
<g><path style="opacity:0.169" fill="#d2d1ce" d="M 431.5,238.5 C 433.443,244.005 432.443,249.005 428.5,253.5C 430.379,255.07 430.712,256.736 429.5,258.5C 428.741,256.564 427.741,254.731 426.5,253C 430.495,249.061 432.162,244.228 431.5,238.5 Z"/></g>
<g><path style="opacity:0.996" fill="#42403e" d="M 281.5,278.5 C 302.19,278.501 322.857,279.168 343.5,280.5C 346.017,282.077 346.017,283.91 343.5,286C 310.171,283.904 276.837,284.071 243.5,286.5C 243.5,285.167 243.5,283.833 243.5,282.5C 255.746,280.853 268.079,280.019 280.5,280C 281.056,279.617 281.389,279.117 281.5,278.5 Z"/></g>
<g><path style="opacity:0.996" fill="#93291c" d="M 274.5,278.5 C 281.826,277.834 289.326,277.5 297,277.5C 312.53,277.594 328.03,278.261 343.5,279.5C 343.5,279.833 343.5,280.167 343.5,280.5C 322.857,279.168 302.19,278.501 281.5,278.5C 279.167,278.5 276.833,278.5 274.5,278.5 Z"/></g>
<g><path style="opacity:0.996" fill="#55372b" d="M 274.5,278.5 C 276.833,278.5 279.167,278.5 281.5,278.5C 281.389,279.117 281.056,279.617 280.5,280C 268.079,280.019 255.746,280.853 243.5,282.5C 243.5,283.833 243.5,285.167 243.5,286.5C 243.5,286.833 243.5,287.167 243.5,287.5C 243.167,287.5 242.833,287.5 242.5,287.5C 242.244,285.208 242.577,283.041 243.5,281C 253.808,279.835 264.141,279.002 274.5,278.5 Z"/></g>
<g><path style="opacity:0.413" fill="#c0bfbd" d="M 28.5,211.5 C 27.962,213.117 27.6287,214.784 27.5,216.5C 29.3588,216.461 30.6921,217.294 31.5,219C 29.9095,220.046 28.4095,221.213 27,222.5C 24.5926,229.62 25.7593,236.12 30.5,242C 30.2568,242.902 29.9234,243.735 29.5,244.5C 28.4448,247.073 28.2782,249.739 29,252.5C 31.1023,256.372 32.9356,260.372 34.5,264.5C 35.072,265.973 35.9054,267.307 37,268.5C 37.2678,287.535 39.4345,306.202 43.5,324.5C 44.2002,330.671 45.5335,336.671 47.5,342.5C 47.5,343.167 47.5,343.833 47.5,344.5C 46.0337,343.653 45.2004,342.32 45,340.5C 39.5903,316.785 36.2569,292.785 35,268.5C 32.6511,263.802 30.3178,259.136 28,254.5C 27.3035,250.465 27.4701,246.465 28.5,242.5C 26.5462,238.262 24.8795,233.929 23.5,229.5C 23.7332,225.292 25.3999,221.792 28.5,219C 24.6833,216.477 24.6833,213.977 28.5,211.5 Z"/></g>
<g><path style="opacity:0.996" fill="#a53b2a" d="M 171.5,279.5 C 155.474,282.142 139.141,283.142 122.5,282.5C 138.813,281.744 155.147,280.744 171.5,279.5 Z"/></g>
<g><path style="opacity:0.996" fill="#49403c" d="M 227.5,336.5 C 226.504,321.009 226.17,305.342 226.5,289.5C 197.646,291.367 169.146,295.367 141,301.5C 133.713,300.692 127.38,297.692 122,292.5C 121.156,290.537 121.656,289.204 123.5,288.5C 126.661,289.913 129.661,291.58 132.5,293.5C 132.918,294.222 133.584,294.722 134.5,295C 139.352,295.815 144.019,295.648 148.5,294.5C 159.645,291.584 170.978,289.584 182.5,288.5C 188.849,288.265 195.183,287.765 201.5,287C 202.416,286.722 203.082,286.222 203.5,285.5C 211.475,284.551 219.475,283.885 227.5,283.5C 227.5,301.167 227.5,318.833 227.5,336.5 Z"/></g>
<g><path style="opacity:0.996" fill="#643124" d="M 203.5,285.5 C 203.082,286.222 202.416,286.722 201.5,287C 195.183,287.765 188.849,288.265 182.5,288.5C 189.312,287.086 196.312,286.086 203.5,285.5 Z"/></g>
<g><path style="opacity:0.996" fill="#852c1c" d="M 132.5,293.5 C 137.797,294.275 143.13,294.608 148.5,294.5C 144.019,295.648 139.352,295.815 134.5,295C 133.584,294.722 132.918,294.222 132.5,293.5 Z"/></g>
<g><path style="opacity:0.996" fill="#080808" d="M 396.5,356.5 C 392.665,359.513 390.999,363.513 391.5,368.5C 389.585,368.216 387.919,368.549 386.5,369.5C 378.939,375.39 371.939,382.056 365.5,389.5C 353.008,398.58 340.341,407.413 327.5,416C 321.936,420.609 316.603,425.442 311.5,430.5C 308.324,431.997 305.658,431.33 303.5,428.5C 301.814,429.857 300.148,431.19 298.5,432.5C 292.833,433.833 287.167,433.833 281.5,432.5C 279.167,432.5 276.833,432.5 274.5,432.5C 271.016,431.835 267.349,431.501 263.5,431.5C 252.659,432.039 241.826,432.706 231,433.5C 224.037,433.34 217.204,432.34 210.5,430.5C 209.167,430.667 207.833,430.833 206.5,431C 194.894,438.705 182.228,441.038 168.5,438C 157.927,433.109 147.594,427.776 137.5,422C 136.207,421.51 134.873,421.343 133.5,421.5C 130.861,419.424 128.194,417.258 125.5,415C 123.593,413.878 121.593,413.045 119.5,412.5C 114.895,408.398 110.395,404.064 106,399.5C 104.226,395.592 102.392,391.925 100.5,388.5C 100.175,386.868 99.1753,385.868 97.5,385.5C 93.8822,384.654 90.2155,384.32 86.5,384.5C 86.5,382.5 86.5,380.5 86.5,378.5C 84.9397,378.519 83.4397,378.852 82,379.5C 79.1551,376.981 76.6551,374.148 74.5,371C 72.8455,370.392 71.1789,369.892 69.5,369.5C 67.5574,366.529 64.8908,364.529 61.5,363.5C 61.631,362.761 61.4643,362.094 61,361.5C 58.9144,359.563 56.7478,357.896 54.5,356.5C 52.9158,353.864 53.2492,351.53 55.5,349.5C 51.5518,348.547 48.8851,346.214 47.5,342.5C 45.5335,336.671 44.2002,330.671 43.5,324.5C 43.3505,323.448 43.5172,322.448 44,321.5C 44.8985,325.894 47.3985,328.894 51.5,330.5C 50.5153,332.098 50.3486,333.765 51,335.5C 55.8129,340.644 60.9795,345.477 66.5,350C 71.7419,351.574 75.4085,354.907 77.5,360C 79.4727,360.495 81.4727,360.662 83.5,360.5C 83.5,362.167 83.5,363.833 83.5,365.5C 86.5184,365.335 89.5184,365.502 92.5,366C 94.579,367.64 96.9124,368.806 99.5,369.5C 100.318,372.107 100.818,374.774 101,377.5C 105.5,383.333 110.667,388.5 116.5,393C 132.803,403.318 149.803,412.318 167.5,420C 178.018,422.32 188.352,421.653 198.5,418C 204.468,412.206 211.135,411.206 218.5,415C 234.366,415.565 250.199,415.065 266,413.5C 270.5,413.667 275,413.833 279.5,414C 285.574,416.639 291.907,417.139 298.5,415.5C 300.844,413.98 303.011,412.313 305,410.5C 306.829,413.204 309.329,414.037 312.5,413C 317.532,407.633 322.865,402.633 328.5,398C 341.514,389.828 354.18,381.161 366.5,372C 373.939,365.473 380.939,358.473 387.5,351C 388.094,350.536 388.761,350.369 389.5,350.5C 391.5,350.5 393.5,350.5 395.5,350.5C 395.368,347.43 395.701,344.43 396.5,341.5C 404.296,327.998 411.296,313.998 417.5,299.5C 419.091,297.226 420.591,294.892 422,292.5C 422.577,296.888 422.244,301.221 421,305.5C 413.604,320.625 405.937,335.625 398,350.5C 397.187,352.436 396.687,354.436 396.5,356.5 Z"/></g>
<g><path style="opacity:0.996" fill="#866251" d="M 242.5,287.5 C 242.833,287.5 243.167,287.5 243.5,287.5C 243.472,301.848 242.972,316.182 242,330.5C 241.809,332.708 241.309,334.708 240.5,336.5C 241.678,320.19 242.344,303.856 242.5,287.5 Z"/></g>
<g><path style="opacity:0.435" fill="#888888" d="M 47.5,342.5 C 48.8851,346.214 51.5518,348.547 55.5,349.5C 53.2492,351.53 52.9158,353.864 54.5,356.5C 51.6591,355.312 50.9924,353.312 52.5,350.5C 51.086,349.376 49.586,348.376 48,347.5C 47.5172,346.552 47.3505,345.552 47.5,344.5C 47.5,343.833 47.5,343.167 47.5,342.5 Z"/></g>
<g><path style="opacity:0.996" fill="#54534f" d="M 396.5,341.5 C 395.701,344.43 395.368,347.43 395.5,350.5C 393.5,350.5 391.5,350.5 389.5,350.5C 390.919,349.549 392.585,349.216 394.5,349.5C 394.337,347.143 394.503,344.81 395,342.5C 395.383,341.944 395.883,341.611 396.5,341.5 Z"/></g>
<g><path style="opacity:0.118" fill="#8f8f8f" d="M 54.5,356.5 C 56.7478,357.896 58.9144,359.563 61,361.5C 61.4643,362.094 61.631,362.761 61.5,363.5C 58.5336,361.84 56.2002,359.507 54.5,356.5 Z"/></g>
<g><path style="opacity:0.996" fill="#524540" d="M 239.5,350.5 C 239.728,355.675 238.895,360.675 237,365.5C 235.445,367.515 233.611,367.848 231.5,366.5C 230.626,364.253 230.292,361.92 230.5,359.5C 231.779,360.968 233.446,361.635 235.5,361.5C 237.145,357.891 238.478,354.224 239.5,350.5 Z"/></g>
<g><path style="opacity:0.075" fill="#a0a0a0" d="M 61.5,363.5 C 64.8908,364.529 67.5574,366.529 69.5,369.5C 66.1092,368.471 63.4426,366.471 61.5,363.5 Z"/></g>
<g><path style="opacity:0.565" fill="#787878" d="M 396.5,356.5 C 395.626,360.033 394.293,363.366 392.5,366.5C 392.5,367.5 392.5,368.5 392.5,369.5C 390.5,369.5 388.5,369.5 386.5,369.5C 387.919,368.549 389.585,368.216 391.5,368.5C 390.999,363.513 392.665,359.513 396.5,356.5 Z"/></g>
<g><path style="opacity:0.663" fill="#747474" d="M 69.5,369.5 C 71.1789,369.892 72.8455,370.392 74.5,371C 76.6551,374.148 79.1551,376.981 82,379.5C 83.4397,378.852 84.9397,378.519 86.5,378.5C 86.5,380.5 86.5,382.5 86.5,384.5C 86.1667,384.5 85.8333,384.5 85.5,384.5C 85.5,383.167 85.5,381.833 85.5,380.5C 83.5,380.5 81.5,380.5 79.5,380.5C 76.8361,376.131 73.5028,372.464 69.5,369.5 Z"/></g>
<g><path style="opacity:0.02" fill="#d6d6d6" d="M 79.5,380.5 C 81.5,380.5 83.5,380.5 85.5,380.5C 85.5,381.833 85.5,383.167 85.5,384.5C 84.0707,382.31 82.0707,380.976 79.5,380.5 Z"/></g>
<g><path style="opacity:0.22" fill="#c4c4c4" d="M 85.5,384.5 C 85.8333,384.5 86.1667,384.5 86.5,384.5C 90.2155,384.32 93.8822,384.654 97.5,385.5C 99.1753,385.868 100.175,386.868 100.5,388.5C 95.3458,387.314 90.3458,385.981 85.5,384.5 Z"/></g>
<g><path style="opacity:0.294" fill="#adadad" d="M 392.5,366.5 C 393.434,367.568 393.768,368.901 393.5,370.5C 390.276,370.203 387.276,370.87 384.5,372.5C 377.011,380.822 369.011,388.656 360.5,396C 342.912,406.632 326.578,418.966 311.5,433C 308.83,433.543 306.33,433.043 304,431.5C 302.235,432.632 300.402,433.632 298.5,434.5C 298.5,433.833 298.5,433.167 298.5,432.5C 300.148,431.19 301.814,429.857 303.5,428.5C 305.658,431.33 308.324,431.997 311.5,430.5C 316.603,425.442 321.936,420.609 327.5,416C 340.341,407.413 353.008,398.58 365.5,389.5C 371.939,382.056 378.939,375.39 386.5,369.5C 388.5,369.5 390.5,369.5 392.5,369.5C 392.5,368.5 392.5,367.5 392.5,366.5 Z"/></g>
<g><path style="opacity:0.22" fill="#a0a0a0" d="M 100.5,388.5 C 102.392,391.925 104.226,395.592 106,399.5C 110.395,404.064 114.895,408.398 119.5,412.5C 109.384,407.396 103.051,399.396 100.5,388.5 Z"/></g>
<g><path style="opacity:0.18" fill="#aaaaaa" d="M 119.5,412.5 C 121.593,413.045 123.593,413.878 125.5,415C 128.194,417.258 130.861,419.424 133.5,421.5C 128.312,419.312 123.645,416.312 119.5,412.5 Z"/></g>
<g><path style="opacity:0.376" fill="#a7a7a7" d="M 133.5,421.5 C 134.873,421.343 136.207,421.51 137.5,422C 147.594,427.776 157.927,433.109 168.5,438C 182.228,441.038 194.894,438.705 206.5,431C 207.833,430.833 209.167,430.667 210.5,430.5C 217.204,432.34 224.037,433.34 231,433.5C 241.826,432.706 252.659,432.039 263.5,431.5C 267.349,431.501 271.016,431.835 274.5,432.5C 272.5,432.5 270.5,432.5 268.5,432.5C 256.489,433.323 244.489,434.323 232.5,435.5C 225.387,435.305 218.387,434.305 211.5,432.5C 204.949,435.076 198.282,437.576 191.5,440C 184.5,440.667 177.5,440.667 170.5,440C 157.486,434.826 145.152,428.66 133.5,421.5 Z"/></g>
<g><path style="opacity:0.165" fill="#dddddd" d="M 268.5,432.5 C 270.5,432.5 272.5,432.5 274.5,432.5C 276.833,432.5 279.167,432.5 281.5,432.5C 281.833,433.167 282.167,433.833 282.5,434.5C 277.662,434.089 272.995,433.422 268.5,432.5 Z"/></g>
<g><path style="opacity:0.722" fill="#686868" d="M 281.5,432.5 C 287.167,433.833 292.833,433.833 298.5,432.5C 298.5,433.167 298.5,433.833 298.5,434.5C 293.167,434.5 287.833,434.5 282.5,434.5C 282.167,433.833 281.833,433.167 281.5,432.5 Z"/></g>
<g><path style="opacity:0.008" fill="#acacac" d="M 282.5,434.5 C 287.833,434.5 293.167,434.5 298.5,434.5C 296.799,435.734 294.799,436.401 292.5,436.5C 288.976,436.099 285.642,435.433 282.5,434.5 Z"/></g>
</svg>
