<?xml version="1.0" encoding="UTF-8"?>
<!DOCTYPE svg PUBLIC "-//W3C//DTD SVG 1.1//EN" "http://www.w3.org/Graphics/SVG/1.1/DTD/svg11.dtd">
<svg xmlns="http://www.w3.org/2000/svg" version="1.1" width="463px" height="462px" style="shape-rendering:geometricPrecision; text-rendering:geometricPrecision; image-rendering:optimizeQuality; fill-rule:evenodd; clip-rule:evenodd" xmlns:xlink="http://www.w3.org/1999/xlink">
<g><path style="opacity:0.996" fill="#97948e" d="M 292.5,52.5 C 292.833,52.5 293.167,52.5 293.5,52.5C 294.625,54.1288 295.959,55.6288 297.5,57C 302.705,59.0976 308.039,60.9309 313.5,62.5C 315.403,62.7959 317.07,63.4625 318.5,64.5C 319.716,66.4509 321.382,67.9509 323.5,69C 328.572,72.1841 333.905,74.6841 339.5,76.5C 340.389,78.736 341.722,80.736 343.5,82.5C 347.486,84.5166 351.153,86.85 354.5,89.5C 355.833,89.5 356.5,90.1667 356.5,91.5C 357.68,95.3691 358.68,99.3691 359.5,103.5C 364.485,106.274 369.818,107.607 375.5,107.5C 375.5,109.167 375.5,110.833 375.5,112.5C 379.112,111.924 382.112,112.924 384.5,115.5C 385.167,115.5 385.5,115.833 385.5,116.5C 385.511,118.017 386.177,119.184 387.5,120C 392.934,123.468 398.101,127.301 403,131.5C 403.399,131.272 403.565,130.938 403.5,130.5C 404.71,130.932 405.71,131.599 406.5,132.5C 405.957,132.56 405.624,132.893 405.5,133.5C 408.698,136.296 409.365,139.63 407.5,143.5C 409.308,143.491 410.975,143.991 412.5,145C 413.579,146.859 414.912,148.359 416.5,149.5C 418.023,152.63 418.689,155.963 418.5,159.5C 419.256,168.548 420.423,177.548 422,186.5C 422.333,195.833 422.667,205.167 423,214.5C 423.5,216.5 424,218.5 424.5,220.5C 424.747,221.713 425.414,222.38 426.5,222.5C 430.323,229.145 433.323,236.145 435.5,243.5C 435.163,247.835 433.497,251.502 430.5,254.5C 430.5,259.5 430.5,264.5 430.5,269.5C 428.683,281.455 427.183,293.455 426,305.5C 421.314,315.546 416.147,325.213 410.5,334.5C 414.52,324.698 419.02,315.031 424,305.5C 425.29,300.89 425.624,296.223 425,291.5C 416.218,308.065 407.718,324.732 399.5,341.5C 398.883,341.611 398.383,341.944 398,342.5C 397.503,344.81 397.337,347.143 397.5,349.5C 395.473,349.338 393.473,349.505 391.5,350C 390.944,350.383 390.611,350.883 390.5,351.5C 383.315,358.185 376.315,365.019 369.5,372C 356.833,380.667 344.167,389.333 331.5,398C 325.865,402.633 320.532,407.633 315.5,413C 312.258,413.986 309.592,413.152 307.5,410.5C 305.773,412.567 303.773,414.233 301.5,415.5C 289.493,415.015 277.493,414.348 265.5,413.5C 258.941,413.411 252.608,414.077 246.5,415.5C 237.809,415.632 229.142,415.299 220.5,414.5C 216.901,413.36 213.234,412.86 209.5,413C 196.891,421.232 183.224,423.565 168.5,420C 158.582,414.244 148.249,409.244 137.5,405C 125.871,398.707 115.371,390.874 106,381.5C 103.653,377.809 102.153,373.809 101.5,369.5C 99.2895,368.877 97.2895,367.877 95.5,366.5C 92.5719,365.516 89.5719,365.183 86.5,365.5C 86.5,363.833 86.5,362.167 86.5,360.5C 84.4727,360.662 82.4727,360.495 80.5,360C 79.2101,357.708 77.5435,355.708 75.5,354C 66.8116,349.315 59.3116,343.148 53,335.5C 52.8195,333.512 52.9862,331.512 53.5,329.5C 49.7263,328.694 47.2263,326.361 46,322.5C 45.8333,323.5 45.6667,324.5 45.5,325.5C 47.6529,331.663 49.4862,337.996 51,344.5C 51.9973,346.323 53.1639,347.99 54.5,349.5C 51.1783,348.342 49.0117,346.008 48,342.5C 46.5132,337.221 45.3465,331.888 44.5,326.5C 41.5347,307.307 39.7014,287.974 39,268.5C 38.1482,267.429 37.3149,266.429 36.5,265.5C 30.9457,258.79 29.279,251.29 31.5,243C 31.0109,241.862 30.6775,240.695 30.5,239.5C 27.479,234.382 26.979,229.049 29,223.5C 30.6591,222.183 31.8257,220.517 32.5,218.5C 32.0431,217.702 31.3764,217.369 30.5,217.5C 27.9486,217.332 27.2819,216.332 28.5,214.5C 30.8764,213.274 32.3764,211.274 33,208.5C 30.9122,193.61 34.7455,180.61 44.5,169.5C 45.4742,167.257 45.8076,164.924 45.5,162.5C 48.5684,158.708 51.4017,154.708 54,150.5C 54.8725,147.382 56.0392,144.382 57.5,141.5C 57.3764,140.893 57.0431,140.56 56.5,140.5C 58.332,136.164 60.6654,132.164 63.5,128.5C 65.256,127.448 65.9227,125.781 65.5,123.5C 67.604,123.799 69.604,123.466 71.5,122.5C 73.5,119.167 76.1667,116.5 79.5,114.5C 81.0383,112.757 82.0383,110.757 82.5,108.5C 96.1878,95.6558 111.188,84.4892 127.5,75C 131.708,71.287 136.041,67.787 140.5,64.5C 142.886,63.6267 144.886,62.1267 146.5,60C 149.17,59.4574 151.67,59.9574 154,61.5C 155.03,61.1639 155.53,60.4972 155.5,59.5C 155.5,58.8333 155.833,58.5 156.5,58.5C 159.616,57.9246 162.783,57.5913 166,57.5C 174.946,58.8238 183.946,59.4905 193,59.5C 197.886,59.4927 202.386,58.8261 206.5,57.5C 220.571,54.2007 234.405,54.8674 248,59.5C 249.8,58.6805 251.634,58.0138 253.5,57.5C 260.995,54.9573 268.828,52.9573 277,51.5C 282.129,52.3689 287.296,52.7022 292.5,52.5 Z"/></g>
<g><path style="opacity:0.984" fill="#bdbbb7" d="M 292.5,52.5 C 287.296,52.7022 282.129,52.3689 277,51.5C 268.828,52.9573 260.995,54.9573 253.5,57.5C 265.776,49.7074 278.776,48.0408 292.5,52.5 Z"/></g>
<g><path style="opacity:0.255" fill="#c2c1bd" d="M 206.5,57.5 C 202.386,58.8261 197.886,59.4927 193,59.5C 183.946,59.4905 174.946,58.8238 166,57.5C 162.783,57.5913 159.616,57.9246 156.5,58.5C 157.058,57.2101 158.058,56.3768 159.5,56C 162.167,55.8333 164.833,55.6667 167.5,55.5C 180.427,57.2013 193.427,57.8679 206.5,57.5 Z"/></g>
<g><path style="opacity:0.388" fill="#cccac5" d="M 293.5,52.5 C 300.443,55.3048 307.11,58.6381 313.5,62.5C 308.039,60.9309 302.705,59.0976 297.5,57C 295.959,55.6288 294.625,54.1288 293.5,52.5 Z"/></g>
<g><path style="opacity:0.376" fill="#d1d0ce" d="M 155.5,59.5 C 155.53,60.4972 155.03,61.1639 154,61.5C 151.67,59.9574 149.17,59.4574 146.5,60C 144.886,62.1267 142.886,63.6267 140.5,64.5C 142.294,62.2034 144.294,60.0367 146.5,58C 149.575,57.861 152.575,58.361 155.5,59.5 Z"/></g>
<g><path style="opacity:0.443" fill="#ceccca" d="M 318.5,64.5 C 325.996,67.7448 332.996,71.7448 339.5,76.5C 333.905,74.6841 328.572,72.1841 323.5,69C 321.382,67.9509 319.716,66.4509 318.5,64.5 Z"/></g>
<g><path style="opacity:0.325" fill="#c7c5c0" d="M 339.5,76.5 C 345.476,79.8159 350.476,84.1492 354.5,89.5C 351.153,86.85 347.486,84.5166 343.5,82.5C 341.722,80.736 340.389,78.736 339.5,76.5 Z"/></g>
<g><path style="opacity:0.996" fill="#be2a1b" d="M 291.5,122.5 C 285.424,127.656 281.09,133.989 278.5,141.5C 279.5,141.5 280.5,141.5 281.5,141.5C 287.821,140.724 294.154,140.058 300.5,139.5C 304.841,139.342 308.841,138.342 312.5,136.5C 313.671,135.655 315.005,134.989 316.5,134.5C 320.859,133.35 325.192,133.35 329.5,134.5C 333.458,137.285 337.291,140.285 341,143.5C 341.748,145.84 341.248,147.84 339.5,149.5C 335.635,151.511 332.135,154.178 329,157.5C 318.72,171.715 307.72,185.382 296,198.5C 295.517,199.448 295.351,200.448 295.5,201.5C 296.833,201.5 298.167,201.5 299.5,201.5C 304.107,203.548 308.773,205.715 313.5,208C 314.823,208.816 315.489,209.983 315.5,211.5C 314.232,217.696 313.232,224.03 312.5,230.5C 314.099,230.768 315.432,230.434 316.5,229.5C 317.167,229.5 317.833,229.5 318.5,229.5C 326.789,228.174 335.122,227.174 343.5,226.5C 349.692,226.472 355.692,227.472 361.5,229.5C 363.103,230.596 364.603,231.93 366,233.5C 366.579,234.928 366.412,236.262 365.5,237.5C 349.544,238.304 333.544,238.804 317.5,239C 315.026,239.037 313.026,239.87 311.5,241.5C 310.835,244.817 310.501,248.317 310.5,252C 311.157,268.011 312.157,283.845 313.5,299.5C 314.855,309.749 314.522,320.083 312.5,330.5C 310.554,337.883 306.888,344.383 301.5,350C 299.098,350.814 296.765,350.647 294.5,349.5C 286.581,337.885 276.581,328.551 264.5,321.5C 262.273,320.599 261.273,318.933 261.5,316.5C 266.894,316.733 272.227,317.399 277.5,318.5C 279.978,319.164 282.645,319.497 285.5,319.5C 288.59,319.478 291.257,318.812 293.5,317.5C 296.075,315.155 297.075,312.155 296.5,308.5C 297.689,295.517 298.356,282.35 298.5,269C 298.663,259.951 297.996,251.117 296.5,242.5C 281.497,243.417 266.497,245.25 251.5,248C 250.376,248.249 249.376,248.749 248.5,249.5C 250.176,251.337 252.176,252.67 254.5,253.5C 258.438,256.935 262.271,260.602 266,264.5C 268.006,267.536 268.84,270.869 268.5,274.5C 267.87,278.103 266.37,281.436 264,284.5C 262.274,285.576 260.441,285.743 258.5,285C 251.692,273.923 246.025,262.256 241.5,250C 236.934,250.784 232.267,251.284 227.5,251.5C 222.57,251.541 217.904,250.541 213.5,248.5C 213.167,247.833 212.833,247.167 212.5,246.5C 212.167,245.833 211.833,245.167 211.5,244.5C 211.611,243.883 211.944,243.383 212.5,243C 217.489,242.501 222.489,242.334 227.5,242.5C 235.02,242.283 242.354,241.616 249.5,240.5C 251.833,239.833 254.167,239.167 256.5,238.5C 261.822,238.02 267.155,237.687 272.5,237.5C 277.752,237.138 282.752,236.138 287.5,234.5C 290.482,234.037 293.482,233.704 296.5,233.5C 296.786,227.741 296.452,222.075 295.5,216.5C 294.85,212.86 293.35,209.527 291,206.5C 289.951,205.483 288.784,205.316 287.5,206C 273.306,219.59 257.306,230.423 239.5,238.5C 236.692,239.929 233.692,240.595 230.5,240.5C 230.5,239.5 230.5,238.5 230.5,237.5C 241.847,230.484 252.514,222.484 262.5,213.5C 264.23,212.974 265.564,211.974 266.5,210.5C 284.39,193.375 299.39,174.042 311.5,152.5C 313.081,150.858 313.747,148.858 313.5,146.5C 307.494,147.223 301.494,148.056 295.5,149C 287.48,149.39 279.48,149.39 271.5,149C 269.697,152.103 267.53,154.937 265,157.5C 264.51,158.793 264.343,160.127 264.5,161.5C 265.5,161.5 266.5,161.5 267.5,161.5C 274.938,162.479 281.104,165.813 286,171.5C 286.497,174.146 286.664,176.813 286.5,179.5C 285.359,181.229 283.693,182.229 281.5,182.5C 276.167,179.685 271.501,175.852 267.5,171C 264.946,168.937 262.28,167.103 259.5,165.5C 253.806,170.527 248.473,175.86 243.5,181.5C 245.045,182.452 246.712,182.785 248.5,182.5C 256.274,184.649 262.107,189.316 266,196.5C 266.497,199.146 266.664,201.813 266.5,204.5C 264.441,207.149 261.775,207.982 258.5,207C 252.819,198.814 246.319,191.314 239,184.5C 234.941,187.783 230.774,190.949 226.5,194C 224.091,195.707 221.425,196.54 218.5,196.5C 217.427,195.749 217.26,194.749 218,193.5C 239.316,173.868 255.982,150.868 268,124.5C 268.499,118.843 268.666,113.176 268.5,107.5C 276.634,108.149 283.801,111.149 290,116.5C 291.128,118.345 291.628,120.345 291.5,122.5 Z"/></g>
<g><path style="opacity:0.835" fill="#c9c7c5" d="M 356.5,91.5 C 357.79,92.0577 358.623,93.0577 359,94.5C 359.837,97.365 360.67,100.198 361.5,103C 365.988,104.811 370.654,105.811 375.5,106C 376.772,107.307 377.772,108.807 378.5,110.5C 382.117,109.755 384.117,111.421 384.5,115.5C 382.112,112.924 379.112,111.924 375.5,112.5C 375.5,110.833 375.5,109.167 375.5,107.5C 369.818,107.607 364.485,106.274 359.5,103.5C 358.68,99.3691 357.68,95.3691 356.5,91.5 Z"/></g>
<g><path style="opacity:0.996" fill="#bd2a1b" d="M 215.5,134.5 C 214.883,134.611 214.383,134.944 214,135.5C 213.304,138.478 212.804,141.478 212.5,144.5C 212.5,145.5 212.5,146.5 212.5,147.5C 210.81,159.295 209.643,171.295 209,183.5C 208.073,233.213 206.573,282.88 204.5,332.5C 203.177,334.762 201.843,337.096 200.5,339.5C 196.805,341.186 193.971,340.186 192,336.5C 189.906,331.358 187.74,326.358 185.5,321.5C 185.672,317.466 186.172,313.466 187,309.5C 189.112,305.062 190.612,300.395 191.5,295.5C 192.639,291.699 193.472,287.699 194,283.5C 194.5,274.84 194.666,266.173 194.5,257.5C 194.324,252.12 194.658,246.787 195.5,241.5C 195.5,239.5 195.5,237.5 195.5,235.5C 185.006,237.198 174.672,239.532 164.5,242.5C 164.229,244.38 164.896,245.713 166.5,246.5C 168.268,249.162 168.935,252.162 168.5,255.5C 165.672,263.272 163.339,271.272 161.5,279.5C 154.937,297.75 143.27,311.916 126.5,322C 124.235,323.118 121.901,323.951 119.5,324.5C 118.697,323.577 118.53,322.577 119,321.5C 133.353,307.786 143.353,291.453 149,272.5C 151.001,266.327 151.834,259.994 151.5,253.5C 152.341,251.621 152.675,249.621 152.5,247.5C 143.284,249.741 134.117,252.074 125,254.5C 118.324,253.575 113.157,250.241 109.5,244.5C 109.5,243.167 109.5,241.833 109.5,240.5C 118.853,240.421 128.187,239.921 137.5,239C 138.056,238.617 138.389,238.117 138.5,237.5C 140.903,237.552 143.236,237.219 145.5,236.5C 151.447,236.293 157.113,235.293 162.5,233.5C 169.44,232.112 176.44,231.112 183.5,230.5C 187.552,230.112 191.552,229.445 195.5,228.5C 196.823,218.341 196.823,208.341 195.5,198.5C 186.209,199.19 176.876,201.024 167.5,204C 162.694,206.497 158.194,209.331 154,212.5C 152.774,212.355 151.607,212.022 150.5,211.5C 147.814,208.097 145.147,204.764 142.5,201.5C 141.894,197.378 143.394,194.378 147,192.5C 148.741,189.691 149.908,186.691 150.5,183.5C 151.655,176.345 151.822,169.012 151,161.5C 148.716,157.386 145.883,153.72 142.5,150.5C 141.631,148.283 141.298,145.95 141.5,143.5C 151.461,144.445 159.961,148.445 167,155.5C 167.494,157.134 167.66,158.801 167.5,160.5C 166.883,160.611 166.383,160.944 166,161.5C 164.724,172.127 164.224,182.793 164.5,193.5C 165.833,193.5 167.167,193.5 168.5,193.5C 172.985,192.66 177.319,191.66 181.5,190.5C 186.119,189.686 190.786,189.353 195.5,189.5C 195.5,172.833 195.5,156.167 195.5,139.5C 195.048,135.837 194.548,132.17 194,128.5C 190.509,124.854 188.676,120.52 188.5,115.5C 198.636,115.297 207.469,118.963 215,126.5C 215.497,129.146 215.664,131.813 215.5,134.5 Z"/></g>
<g><path style="opacity:0.896" fill="#bab8b4" d="M 82.5,108.5 C 82.0383,110.757 81.0383,112.757 79.5,114.5C 76.1667,116.5 73.5,119.167 71.5,122.5C 69.604,123.466 67.604,123.799 65.5,123.5C 65.9227,125.781 65.256,127.448 63.5,128.5C 63.3016,126.425 63.1349,124.425 63,122.5C 66.3205,121.832 69.4872,120.665 72.5,119C 75.3073,115.025 78.6406,111.525 82.5,108.5 Z"/></g>
<g><path style="opacity:0.129" fill="#cac9c7" d="M 385.5,116.5 C 391.901,120.695 397.901,125.361 403.5,130.5C 403.565,130.938 403.399,131.272 403,131.5C 398.101,127.301 392.934,123.468 387.5,120C 386.177,119.184 385.511,118.017 385.5,116.5 Z"/></g>
<g><path style="opacity:0.996" fill="#5c463f" d="M 188.5,115.5 C 188.676,120.52 190.509,124.854 194,128.5C 194.548,132.17 195.048,135.837 195.5,139.5C 193.297,134.768 190.797,130.101 188,125.5C 187.192,121.973 187.359,118.64 188.5,115.5 Z"/></g>
<g><path style="opacity:0.996" fill="#9d4634" d="M 329.5,134.5 C 325.192,133.35 320.859,133.35 316.5,134.5C 320.194,132.588 324.194,132.088 328.5,133C 329.056,133.383 329.389,133.883 329.5,134.5 Z"/></g>
<g><path style="opacity:0.996" fill="#a1412f" d="M 312.5,136.5 C 308.841,138.342 304.841,139.342 300.5,139.5C 304.159,137.658 308.159,136.658 312.5,136.5 Z"/></g>
<g><path style="opacity:0.996" fill="#4b3e39" d="M 291.5,122.5 C 291.662,124.527 291.495,126.527 291,128.5C 287.204,132.449 284.037,136.783 281.5,141.5C 280.5,141.5 279.5,141.5 278.5,141.5C 281.09,133.989 285.424,127.656 291.5,122.5 Z"/></g>
<g><path style="opacity:0.475" fill="#cccac8" d="M 406.5,132.5 C 409.276,138.494 412.609,144.161 416.5,149.5C 414.912,148.359 413.579,146.859 412.5,145C 410.975,143.991 409.308,143.491 407.5,143.5C 409.365,139.63 408.698,136.296 405.5,133.5C 405.624,132.893 405.957,132.56 406.5,132.5 Z"/></g>
<g><path style="opacity:0.996" fill="#60463d" d="M 215.5,134.5 C 215.196,137.522 214.696,140.522 214,143.5C 213.617,144.056 213.117,144.389 212.5,144.5C 212.804,141.478 213.304,138.478 214,135.5C 214.383,134.944 214.883,134.611 215.5,134.5 Z"/></g>
<g><path style="opacity:0.996" fill="#473d39" d="M 311.5,152.5 C 298.272,155.29 284.939,156.124 271.5,155C 269.779,156.944 268.446,159.11 267.5,161.5C 266.5,161.5 265.5,161.5 264.5,161.5C 264.343,160.127 264.51,158.793 265,157.5C 267.53,154.937 269.697,152.103 271.5,149C 279.48,149.39 287.48,149.39 295.5,149C 301.494,148.056 307.494,147.223 313.5,146.5C 313.747,148.858 313.081,150.858 311.5,152.5 Z"/></g>
<g><path style="opacity:0.996" fill="#4a3c38" d="M 339.5,149.5 C 341.344,150.204 341.844,151.537 341,153.5C 336.08,156.416 331.747,160.082 328,164.5C 318.261,176.728 308.761,189.061 299.5,201.5C 298.167,201.5 296.833,201.5 295.5,201.5C 295.351,200.448 295.517,199.448 296,198.5C 307.72,185.382 318.72,171.715 329,157.5C 332.135,154.178 335.635,151.511 339.5,149.5 Z"/></g>
<g><path style="opacity:0.996" fill="#584943" d="M 142.5,150.5 C 145.883,153.72 148.716,157.386 151,161.5C 151.822,169.012 151.655,176.345 150.5,183.5C 151.012,175.995 150.178,168.661 148,161.5C 142.846,159.197 141.013,155.53 142.5,150.5 Z"/></g>
<g><path style="opacity:0.584" fill="#c8c6c3" d="M 56.5,140.5 C 57.0431,140.56 57.3764,140.893 57.5,141.5C 56.0392,144.382 54.8725,147.382 54,150.5C 51.4017,154.708 48.5684,158.708 45.5,162.5C 49.1815,155.088 52.8482,147.754 56.5,140.5 Z"/></g>
<g><path style="opacity:0.996" fill="#473e3b" d="M 286.5,179.5 C 287.303,185.861 284.636,188.694 278.5,188C 272.871,181.545 266.538,176.045 259.5,171.5C 258.833,171.667 258.167,171.833 257.5,172C 254.612,175.711 251.612,179.211 248.5,182.5C 246.712,182.785 245.045,182.452 243.5,181.5C 248.473,175.86 253.806,170.527 259.5,165.5C 262.28,167.103 264.946,168.937 267.5,171C 271.501,175.852 276.167,179.685 281.5,182.5C 283.693,182.229 285.359,181.229 286.5,179.5 Z"/></g>
<g><path style="opacity:0.996" fill="#958f88" d="M 311.5,152.5 C 299.39,174.042 284.39,193.375 266.5,210.5C 266.5,208.5 266.5,206.5 266.5,204.5C 266.664,201.813 266.497,199.146 266,196.5C 262.107,189.316 256.274,184.649 248.5,182.5C 251.612,179.211 254.612,175.711 257.5,172C 258.167,171.833 258.833,171.667 259.5,171.5C 266.538,176.045 272.871,181.545 278.5,188C 284.636,188.694 287.303,185.861 286.5,179.5C 286.664,176.813 286.497,174.146 286,171.5C 281.104,165.813 274.938,162.479 267.5,161.5C 268.446,159.11 269.779,156.944 271.5,155C 284.939,156.124 298.272,155.29 311.5,152.5 Z"/></g>
<g><path style="opacity:0.996" fill="#887166" d="M 167.5,160.5 C 166.657,170.819 165.99,181.153 165.5,191.5C 167.5,191.5 169.5,191.5 171.5,191.5C 170.5,192.167 169.5,192.833 168.5,193.5C 167.167,193.5 165.833,193.5 164.5,193.5C 164.224,182.793 164.724,172.127 166,161.5C 166.383,160.944 166.883,160.611 167.5,160.5 Z"/></g>
<g><path style="opacity:0.996" fill="#483e3b" d="M 266.5,204.5 C 266.5,206.5 266.5,208.5 266.5,210.5C 265.564,211.974 264.23,212.974 262.5,213.5C 261.127,213.657 259.793,213.49 258.5,213C 252.819,204.814 246.319,197.314 239,190.5C 234.941,193.783 230.774,196.949 226.5,200C 224.073,201.591 221.407,202.425 218.5,202.5C 219.275,200.388 219.275,198.388 218.5,196.5C 221.425,196.54 224.091,195.707 226.5,194C 230.774,190.949 234.941,187.783 239,184.5C 246.319,191.314 252.819,198.814 258.5,207C 261.775,207.982 264.441,207.149 266.5,204.5 Z"/></g>
<g><path style="opacity:0.996" fill="#9c4937" d="M 181.5,190.5 C 177.319,191.66 172.985,192.66 168.5,193.5C 169.5,192.833 170.5,192.167 171.5,191.5C 174.764,190.676 178.098,190.342 181.5,190.5 Z"/></g>
<g><path style="opacity:0.996" fill="#453d3a" d="M 195.5,198.5 C 195.5,200.167 195.5,201.833 195.5,203.5C 184.973,204.736 174.64,207.236 164.5,211C 161.458,214.069 157.958,216.236 154,217.5C 152.833,217.333 151.667,217.167 150.5,217C 148.607,214.697 146.607,212.53 144.5,210.5C 142.87,207.724 142.203,204.724 142.5,201.5C 145.147,204.764 147.814,208.097 150.5,211.5C 151.607,212.022 152.774,212.355 154,212.5C 158.194,209.331 162.694,206.497 167.5,204C 176.876,201.024 186.209,199.19 195.5,198.5 Z"/></g>
<g><path style="opacity:0.212" fill="#d0cecb" d="M 418.5,159.5 C 420.346,163.868 421.513,168.535 422,173.5C 423.05,185.811 423.717,198.144 424,210.5C 424.327,214.629 425.16,218.629 426.5,222.5C 425.414,222.38 424.747,221.713 424.5,220.5C 424,218.5 423.5,216.5 423,214.5C 422.667,205.167 422.333,195.833 422,186.5C 420.423,177.548 419.256,168.548 418.5,159.5 Z"/></g>
<g><path style="opacity:0.661" fill="#c1c0bc" d="M 45.5,162.5 C 45.8076,164.924 45.4742,167.257 44.5,169.5C 34.7455,180.61 30.9122,193.61 33,208.5C 32.3764,211.274 30.8764,213.274 28.5,214.5C 29.072,213.027 29.9054,211.693 31,210.5C 31.3333,203.5 31.6667,196.5 32,189.5C 36.0032,180.16 40.5032,171.16 45.5,162.5 Z"/></g>
<g><path style="opacity:0.996" fill="#483c38" d="M 295.5,216.5 C 293.186,214.687 291.019,212.687 289,210.5C 277.828,221.5 265.328,230.667 251.5,238C 253.134,238.494 254.801,238.66 256.5,238.5C 254.167,239.167 251.833,239.833 249.5,240.5C 245.818,240.665 242.152,240.499 238.5,240C 239.056,239.617 239.389,239.117 239.5,238.5C 257.306,230.423 273.306,219.59 287.5,206C 288.784,205.316 289.951,205.483 291,206.5C 293.35,209.527 294.85,212.86 295.5,216.5 Z"/></g>
<g><path style="opacity:0.996" fill="#928d87" d="M 295.5,216.5 C 296.452,222.075 296.786,227.741 296.5,233.5C 293.482,233.704 290.482,234.037 287.5,234.5C 282.106,234.124 277.106,235.124 272.5,237.5C 267.155,237.687 261.822,238.02 256.5,238.5C 254.801,238.66 253.134,238.494 251.5,238C 265.328,230.667 277.828,221.5 289,210.5C 291.019,212.687 293.186,214.687 295.5,216.5 Z"/></g>
<g><path style="opacity:0.996" fill="#a93f2c" d="M 361.5,229.5 C 355.692,227.472 349.692,226.472 343.5,226.5C 335.122,227.174 326.789,228.174 318.5,229.5C 326.892,227.104 335.559,225.438 344.5,224.5C 348.97,224.601 353.304,225.434 357.5,227C 359.32,227.2 360.653,228.034 361.5,229.5 Z"/></g>
<g><path style="opacity:0.996" fill="#725c54" d="M 315.5,211.5 C 316.897,217.25 316.231,222.917 313.5,228.5C 314.325,229.386 315.325,229.719 316.5,229.5C 315.432,230.434 314.099,230.768 312.5,230.5C 313.232,224.03 314.232,217.696 315.5,211.5 Z"/></g>
<g><path style="opacity:0.996" fill="#9f3925" d="M 195.5,198.5 C 196.823,208.341 196.823,218.341 195.5,228.5C 191.552,229.445 187.552,230.112 183.5,230.5C 187.018,228.034 191.018,227.034 195.5,227.5C 195.5,219.5 195.5,211.5 195.5,203.5C 195.5,201.833 195.5,200.167 195.5,198.5 Z"/></g>
<g><path style="opacity:0.114" fill="#dad9d6" d="M 30.5,217.5 C 31.3764,217.369 32.0431,217.702 32.5,218.5C 31.8257,220.517 30.6591,222.183 29,223.5C 26.979,229.049 27.479,234.382 30.5,239.5C 27.822,236.818 26.4887,233.485 26.5,229.5C 26.85,225.117 28.1833,221.117 30.5,217.5 Z"/></g>
<g><path style="opacity:0.996" fill="#965c4b" d="M 162.5,233.5 C 157.113,235.293 151.447,236.293 145.5,236.5C 150.921,234.852 156.588,233.852 162.5,233.5 Z"/></g>
<g><path style="opacity:0.996" fill="#965543" d="M 287.5,234.5 C 282.752,236.138 277.752,237.138 272.5,237.5C 277.106,235.124 282.106,234.124 287.5,234.5 Z"/></g>
<g><path style="opacity:0.996" fill="#443b37" d="M 195.5,241.5 C 185.95,243.703 176.283,245.37 166.5,246.5C 164.896,245.713 164.229,244.38 164.5,242.5C 174.672,239.532 185.006,237.198 195.5,235.5C 195.5,237.5 195.5,239.5 195.5,241.5 Z"/></g>
<g><path style="opacity:0.996" fill="#a53927" d="M 138.5,237.5 C 138.389,238.117 138.056,238.617 137.5,239C 128.187,239.921 118.853,240.421 109.5,240.5C 109.5,241.833 109.5,243.167 109.5,244.5C 109.167,244.5 108.833,244.5 108.5,244.5C 107.272,242.99 107.272,241.49 108.5,240C 118.536,239.496 128.536,238.663 138.5,237.5 Z"/></g>
<g><path style="opacity:0.996" fill="#4b3d39" d="M 365.5,237.5 C 367.315,241.133 366.315,243.466 362.5,244.5C 347.83,244.333 333.163,244.5 318.5,245C 316.292,245.191 314.292,245.691 312.5,246.5C 312.5,251.5 312.5,256.5 312.5,261.5C 311.509,255.021 311.176,248.354 311.5,241.5C 313.026,239.87 315.026,239.037 317.5,239C 333.544,238.804 349.544,238.304 365.5,237.5 Z"/></g>
<g><path style="opacity:0.996" fill="#873625" d="M 230.5,237.5 C 230.5,238.5 230.5,239.5 230.5,240.5C 233.692,240.595 236.692,239.929 239.5,238.5C 239.389,239.117 239.056,239.617 238.5,240C 242.152,240.499 245.818,240.665 249.5,240.5C 242.354,241.616 235.02,242.283 227.5,242.5C 228.767,240.961 229.767,239.294 230.5,237.5 Z"/></g>
<g><path style="opacity:0.996" fill="#423c39" d="M 296.5,242.5 C 296.5,244.5 296.5,246.5 296.5,248.5C 282.808,249.241 269.141,250.408 255.5,252C 254.944,252.383 254.611,252.883 254.5,253.5C 252.176,252.67 250.176,251.337 248.5,249.5C 249.376,248.749 250.376,248.249 251.5,248C 266.497,245.25 281.497,243.417 296.5,242.5 Z"/></g>
<g><path style="opacity:0.996" fill="#6f6d69" d="M 362.5,244.5 C 346,245.398 329.333,246.065 312.5,246.5C 314.292,245.691 316.292,245.191 318.5,245C 333.163,244.5 347.83,244.333 362.5,244.5 Z"/></g>
<g><path style="opacity:0.993" fill="#121212" d="M 32.5,244.5 C 33.3764,244.369 34.0431,244.702 34.5,245.5C 37.8214,251.427 38.9881,257.761 38,264.5C 32.5619,258.803 30.7286,252.136 32.5,244.5 Z"/></g>
<g><path style="opacity:0.996" fill="#443e3b" d="M 108.5,244.5 C 108.833,244.5 109.167,244.5 109.5,244.5C 113.157,250.241 118.324,253.575 125,254.5C 134.117,252.074 143.284,249.741 152.5,247.5C 152.675,249.621 152.341,251.621 151.5,253.5C 143.907,254.753 136.574,256.92 129.5,260C 126.5,260.667 123.5,260.667 120.5,260C 113.528,256.892 109.528,251.725 108.5,244.5 Z"/></g>
<g><path style="opacity:0.031" fill="#d7d6d5" d="M 430.5,254.5 C 432.484,254.484 433.484,255.484 433.5,257.5C 432.1,261.529 431.1,265.529 430.5,269.5C 430.5,264.5 430.5,259.5 430.5,254.5 Z"/></g>
<g><path style="opacity:0.996" fill="#6a574f" d="M 168.5,255.5 C 168.149,264.206 165.816,272.206 161.5,279.5C 163.339,271.272 165.672,263.272 168.5,255.5 Z"/></g>
<g><path style="opacity:0.996" fill="#a43726" d="M 311.5,241.5 C 311.176,248.354 311.509,255.021 312.5,261.5C 313.228,274.153 313.561,286.82 313.5,299.5C 312.157,283.845 311.157,268.011 310.5,252C 310.501,248.317 310.835,244.817 311.5,241.5 Z"/></g>
<g><path style="opacity:0.996" fill="#8e7063" d="M 296.5,242.5 C 297.996,251.117 298.663,259.951 298.5,269C 298.356,282.35 297.689,295.517 296.5,308.5C 296.5,288.5 296.5,268.5 296.5,248.5C 296.5,246.5 296.5,244.5 296.5,242.5 Z"/></g>
<g><path style="opacity:0.996" fill="#4c413d" d="M 213.5,248.5 C 217.904,250.541 222.57,251.541 227.5,251.5C 232.267,251.284 236.934,250.784 241.5,250C 246.025,262.256 251.692,273.923 258.5,285C 260.441,285.743 262.274,285.576 264,284.5C 266.37,281.436 267.87,278.103 268.5,274.5C 269.144,280.731 267.478,286.231 263.5,291C 259.835,291.387 257.002,289.887 255,286.5C 250.109,276.49 245.609,266.323 241.5,256C 234.922,257.111 228.255,257.444 221.5,257C 218.11,255.875 214.943,254.375 212,252.5C 211.227,250.648 211.727,249.314 213.5,248.5 Z"/></g>
<g><path style="opacity:0.996" fill="#9c4c3c" d="M 194.5,257.5 C 194.666,266.173 194.5,274.84 194,283.5C 193.472,287.699 192.639,291.699 191.5,295.5C 192.732,282.712 193.732,270.045 194.5,257.5 Z"/></g>
<g><path style="opacity:0.163" fill="#d8d7d5" d="M 36.5,265.5 C 37.3149,266.429 38.1482,267.429 39,268.5C 39.7014,287.974 41.5347,307.307 44.5,326.5C 40.5911,306.447 37.9244,286.113 36.5,265.5 Z"/></g>
<g><path style="opacity:0.996" fill="#080707" d="M 410.5,334.5 C 409.624,334.369 408.957,334.702 408.5,335.5C 404.578,343.68 400.411,351.68 396,359.5C 394.801,362.726 394.301,366.059 394.5,369.5C 391.729,369.421 389.063,369.921 386.5,371C 379.939,378.473 372.939,385.473 365.5,392C 349.925,401.945 334.925,412.612 320.5,424C 318.21,425.777 316.543,427.944 315.5,430.5C 312.196,431.888 309.03,431.555 306,429.5C 304.251,430.41 303.084,431.743 302.5,433.5C 297.527,434.164 292.527,434.497 287.5,434.5C 284.829,432.882 281.829,432.215 278.5,432.5C 274.514,431.834 270.347,431.501 266,431.5C 254.987,431.946 243.987,432.612 233,433.5C 226.22,433.306 219.553,432.306 213,430.5C 207.663,432.725 202.497,435.059 197.5,437.5C 194.211,438.374 190.877,439.041 187.5,439.5C 183.143,439.414 178.81,439.08 174.5,438.5C 162.72,433.687 151.053,428.687 139.5,423.5C 139.027,422.094 138.027,421.427 136.5,421.5C 134.704,419.583 132.704,417.75 130.5,416C 129.207,415.51 127.873,415.343 126.5,415.5C 124.199,413.34 121.866,411.174 119.5,409C 117.922,407.906 116.255,407.072 114.5,406.5C 110.79,402.792 107.457,398.792 104.5,394.5C 104.167,393.833 103.833,393.167 103.5,392.5C 105.052,388.353 103.385,386.353 98.5,386.5C 95.6627,384.598 92.3293,383.931 88.5,384.5C 88.5,382.833 88.5,381.167 88.5,379.5C 84.2474,380.146 81.4141,378.48 80,374.5C 79.3292,373.748 78.4959,373.414 77.5,373.5C 69.9362,367.772 62.7696,361.439 56,354.5C 55.6466,353.328 55.8132,352.162 56.5,351C 56.1639,349.97 55.4972,349.47 54.5,349.5C 53.1639,347.99 51.9973,346.323 51,344.5C 49.4862,337.996 47.6529,331.663 45.5,325.5C 45.6667,324.5 45.8333,323.5 46,322.5C 47.2263,326.361 49.7263,328.694 53.5,329.5C 52.9862,331.512 52.8195,333.512 53,335.5C 59.3116,343.148 66.8116,349.315 75.5,354C 77.5435,355.708 79.2101,357.708 80.5,360C 82.4727,360.495 84.4727,360.662 86.5,360.5C 86.5,362.167 86.5,363.833 86.5,365.5C 89.5719,365.183 92.5719,365.516 95.5,366.5C 97.2895,367.877 99.2895,368.877 101.5,369.5C 102.153,373.809 103.653,377.809 106,381.5C 115.371,390.874 125.871,398.707 137.5,405C 148.249,409.244 158.582,414.244 168.5,420C 183.224,423.565 196.891,421.232 209.5,413C 213.234,412.86 216.901,413.36 220.5,414.5C 225.233,416.046 230.233,416.713 235.5,416.5C 239.349,416.499 243.016,416.165 246.5,415.5C 265.011,414.747 283.344,414.747 301.5,415.5C 303.773,414.233 305.773,412.567 307.5,410.5C 309.592,413.152 312.258,413.986 315.5,413C 320.532,407.633 325.865,402.633 331.5,398C 344.167,389.333 356.833,380.667 369.5,372C 376.315,365.019 383.315,358.185 390.5,351.5C 393.096,350.735 395.763,350.401 398.5,350.5C 398.368,347.43 398.701,344.43 399.5,341.5C 407.718,324.732 416.218,308.065 425,291.5C 425.624,296.223 425.29,300.89 424,305.5C 419.02,315.031 414.52,324.698 410.5,334.5 Z"/></g>
<g><path style="opacity:0.996" fill="#8b7366" d="M 212.5,147.5 C 211.045,171.811 210.045,196.145 209.5,220.5C 209.502,228.862 210.169,236.862 211.5,244.5C 211.833,245.167 212.167,245.833 212.5,246.5C 211.5,246.5 210.5,246.5 209.5,246.5C 208.901,270.829 208.401,295.162 208,319.5C 206.35,326.067 205.35,332.733 205,339.5C 204.764,341.119 203.931,342.119 202.5,342.5C 204.023,339.365 204.69,336.032 204.5,332.5C 206.573,282.88 208.073,233.213 209,183.5C 209.643,171.295 210.81,159.295 212.5,147.5 Z"/></g>
<g><path style="opacity:0.996" fill="#493f3b" d="M 161.5,279.5 C 161.282,285.04 160.115,290.373 158,295.5C 154.389,301.444 150.389,307.111 146,312.5C 138.731,319.104 130.898,324.937 122.5,330C 118.357,330.38 117.69,329.047 120.5,326C 119.944,325.617 119.611,325.117 119.5,324.5C 121.901,323.951 124.235,323.118 126.5,322C 143.27,311.916 154.937,297.75 161.5,279.5 Z"/></g>
<g><path style="opacity:0.996" fill="#9e5345" d="M 293.5,317.5 C 291.257,318.812 288.59,319.478 285.5,319.5C 282.645,319.497 279.978,319.164 277.5,318.5C 282.895,318.733 288.228,318.4 293.5,317.5 Z"/></g>
<g><path style="opacity:0.996" fill="#4d433f" d="M 185.5,321.5 C 187.74,326.358 189.906,331.358 192,336.5C 193.971,340.186 196.805,341.186 200.5,339.5C 201.843,337.096 203.177,334.762 204.5,332.5C 204.69,336.032 204.023,339.365 202.5,342.5C 199.745,346.04 196.579,346.373 193,343.5C 191.516,339.868 189.516,336.534 187,333.5C 185.985,329.56 185.485,325.56 185.5,321.5 Z"/></g>
<g><path style="opacity:0.996" fill="#483e3b" d="M 264.5,321.5 C 276.581,328.551 286.581,337.885 294.5,349.5C 296.765,350.647 299.098,350.814 301.5,350C 306.888,344.383 310.554,337.883 312.5,330.5C 311.543,338.872 308.71,346.539 304,353.5C 301.321,356.835 298.155,357.335 294.5,355C 286.514,343.688 276.514,334.688 264.5,328C 262.393,326.736 261.393,324.903 261.5,322.5C 262.791,322.737 263.791,322.404 264.5,321.5 Z"/></g>
<g><path style="opacity:0.996" fill="#54524f" d="M 399.5,341.5 C 398.701,344.43 398.368,347.43 398.5,350.5C 395.763,350.401 393.096,350.735 390.5,351.5C 390.611,350.883 390.944,350.383 391.5,350C 393.473,349.505 395.473,349.338 397.5,349.5C 397.337,347.143 397.503,344.81 398,342.5C 398.383,341.944 398.883,341.611 399.5,341.5 Z"/></g>
<g><path style="opacity:0.027" fill="#a0a0a0" d="M 54.5,349.5 C 55.4972,349.47 56.1639,349.97 56.5,351C 55.8132,352.162 55.6466,353.328 56,354.5C 62.7696,361.439 69.9362,367.772 77.5,373.5C 68.7402,369.258 61.2402,363.258 55,355.5C 54.9387,353.314 54.7721,351.314 54.5,349.5 Z"/></g>
<g><path style="opacity:0.169" fill="#959595" d="M 77.5,373.5 C 78.4959,373.414 79.3292,373.748 80,374.5C 81.4141,378.48 84.2474,380.146 88.5,379.5C 88.5,381.167 88.5,382.833 88.5,384.5C 92.3293,383.931 95.6627,384.598 98.5,386.5C 95.091,386.751 91.7577,386.417 88.5,385.5C 87.7379,384.372 87.0712,383.205 86.5,382C 84.7444,381.798 83.0777,381.298 81.5,380.5C 80.4077,377.976 79.0743,375.643 77.5,373.5 Z"/></g>
<g><path style="opacity:0.035" fill="#a2a2a2" d="M 410.5,334.5 C 406.284,343.933 401.784,353.266 397,362.5C 396.503,365.146 396.336,367.813 396.5,370.5C 392.281,369.979 388.614,371.146 385.5,374C 380.351,380.316 374.684,386.15 368.5,391.5C 350.305,403.766 332.638,416.766 315.5,430.5C 316.543,427.944 318.21,425.777 320.5,424C 334.925,412.612 349.925,401.945 365.5,392C 372.939,385.473 379.939,378.473 386.5,371C 389.063,369.921 391.729,369.421 394.5,369.5C 394.301,366.059 394.801,362.726 396,359.5C 400.411,351.68 404.578,343.68 408.5,335.5C 408.957,334.702 409.624,334.369 410.5,334.5 Z"/></g>
<g><path style="opacity:0.055" fill="#bbbbbb" d="M 98.5,386.5 C 103.385,386.353 105.052,388.353 103.5,392.5C 103.649,391.448 103.483,390.448 103,389.5C 101.348,388.601 99.8484,387.601 98.5,386.5 Z"/></g>
<g><path style="opacity:0.082" fill="#959595" d="M 104.5,394.5 C 107.457,398.792 110.79,402.792 114.5,406.5C 109.335,404.004 106.002,400.004 104.5,394.5 Z"/></g>
<g><path style="opacity:0.231" fill="#878787" d="M 114.5,406.5 C 116.255,407.072 117.922,407.906 119.5,409C 121.866,411.174 124.199,413.34 126.5,415.5C 121.646,413.647 117.646,410.647 114.5,406.5 Z"/></g>
<g><path style="opacity:0.996" fill="#3d3c39" d="M 301.5,415.5 C 283.344,414.747 265.011,414.747 246.5,415.5C 252.608,414.077 258.941,413.411 265.5,413.5C 277.493,414.348 289.493,415.015 301.5,415.5 Z"/></g>
<g><path style="opacity:0.996" fill="#3f3e3b" d="M 220.5,414.5 C 229.142,415.299 237.809,415.632 246.5,415.5C 243.016,416.165 239.349,416.499 235.5,416.5C 230.233,416.713 225.233,416.046 220.5,414.5 Z"/></g>
<g><path style="opacity:0.098" fill="#7b7b7b" d="M 126.5,415.5 C 127.873,415.343 129.207,415.51 130.5,416C 132.704,417.75 134.704,419.583 136.5,421.5C 132.495,420.502 129.161,418.502 126.5,415.5 Z"/></g>
<g><path style="opacity:0.051" fill="#b5b5b5" d="M 136.5,421.5 C 138.027,421.427 139.027,422.094 139.5,423.5C 137.973,423.573 136.973,422.906 136.5,421.5 Z"/></g>
<g><path style="opacity:0.365" fill="#999999" d="M 139.5,423.5 C 151.053,428.687 162.72,433.687 174.5,438.5C 175.5,439.167 176.5,439.833 177.5,440.5C 173.307,440.047 169.307,438.881 165.5,437C 156.552,432.695 147.886,428.195 139.5,423.5 Z"/></g>
<g><path style="opacity:0.102" fill="#acacac" d="M 315.5,430.5 C 315.116,432.293 313.95,433.293 312,433.5C 310.128,432.932 308.295,432.265 306.5,431.5C 305.378,432.63 304.044,433.297 302.5,433.5C 303.084,431.743 304.251,430.41 306,429.5C 309.03,431.555 312.196,431.888 315.5,430.5 Z"/></g>
<g><path style="opacity:0.392" fill="#8f8f8f" d="M 278.5,432.5 C 272.31,432.177 266.31,432.51 260.5,433.5C 244.751,436.303 229.084,435.969 213.5,432.5C 208.806,434.22 204.14,435.887 199.5,437.5C 198.833,437.5 198.167,437.5 197.5,437.5C 202.497,435.059 207.663,432.725 213,430.5C 219.553,432.306 226.22,433.306 233,433.5C 243.987,432.612 254.987,431.946 266,431.5C 270.347,431.501 274.514,431.834 278.5,432.5 Z"/></g>
<g><path style="opacity:0.176" fill="#b2b2b2" d="M 260.5,433.5 C 266.31,432.51 272.31,432.177 278.5,432.5C 281.829,432.215 284.829,432.882 287.5,434.5C 278.524,433.692 269.524,433.358 260.5,433.5 Z"/></g>
<g><path style="opacity:0.008" fill="#a3a3a3" d="M 302.5,433.5 C 297.706,437.127 292.706,437.46 287.5,434.5C 292.527,434.497 297.527,434.164 302.5,433.5 Z"/></g>
<g><path style="opacity:0.425" fill="#505050" d="M 174.5,438.5 C 178.81,439.08 183.143,439.414 187.5,439.5C 184.375,440.479 181.042,440.813 177.5,440.5C 176.5,439.833 175.5,439.167 174.5,438.5 Z"/></g>
<g><path style="opacity:0.027" fill="#c2c2c2" d="M 197.5,437.5 C 198.167,437.5 198.833,437.5 199.5,437.5C 196.865,439.328 193.865,440.495 190.5,441C 185.98,441.814 181.646,441.647 177.5,440.5C 181.042,440.813 184.375,440.479 187.5,439.5C 190.877,439.041 194.211,438.374 197.5,437.5 Z"/></g>
</svg>
