<?xml version="1.0" encoding="UTF-8"?>
<!DOCTYPE svg PUBLIC "-//W3C//DTD SVG 1.1//EN" "http://www.w3.org/Graphics/SVG/1.1/DTD/svg11.dtd">
<svg xmlns="http://www.w3.org/2000/svg" version="1.1" width="467px" height="465px" style="shape-rendering:geometricPrecision; text-rendering:geometricPrecision; image-rendering:optimizeQuality; fill-rule:evenodd; clip-rule:evenodd" xmlns:xlink="http://www.w3.org/1999/xlink">
<g><path style="opacity:0.996" fill="#97948e" d="M 293.5,54.5 C 301.657,59.4487 310.323,63.4487 319.5,66.5C 323.312,67.9069 326.978,69.5736 330.5,71.5C 330.539,72.5832 330.873,73.5832 331.5,74.5C 336.712,77.2673 341.712,80.2673 346.5,83.5C 352.472,86.1386 356.805,90.472 359.5,96.5C 358.055,102.867 360.389,106.7 366.5,108C 370.548,108.304 374.548,108.804 378.5,109.5C 382.564,111.403 385.564,114.57 387.5,119C 395.335,123.566 402.335,129.066 408.5,135.5C 409.213,138.237 409.213,140.904 408.5,143.5C 410.518,144.509 412.518,145.509 414.5,146.5C 416.253,155.739 418.92,164.406 422.5,172.5C 422.508,175.545 422.841,178.545 423.5,181.5C 422.341,192.659 422.174,203.992 423,215.5C 424.246,218.361 425.246,221.361 426,224.5C 426.697,226.584 427.864,228.251 429.5,229.5C 430.674,230.514 431.34,231.847 431.5,233.5C 434.242,239.618 434.909,245.951 433.5,252.5C 433.047,253.458 432.381,254.292 431.5,255C 433.141,256.129 434.141,257.629 434.5,259.5C 433.504,259.414 432.671,259.748 432,260.5C 430.149,269.656 428.983,278.99 428.5,288.5C 428.783,295.503 427.95,302.503 426,309.5C 417.696,325.783 409.196,341.783 400.5,357.5C 400.34,355.801 400.506,354.134 401,352.5C 409.554,337.877 417.554,322.877 425,307.5C 426.328,302.558 426.661,297.558 426,292.5C 417.681,309.805 408.848,326.805 399.5,343.5C 398.52,346.086 398.187,348.753 398.5,351.5C 395.68,351.248 393.014,351.748 390.5,353C 383.947,360.43 376.947,367.43 369.5,374C 356.521,382.97 343.521,391.97 330.5,401C 325.351,404.982 320.685,409.482 316.5,414.5C 314.926,415.631 313.259,415.798 311.5,415C 310.601,413.764 309.434,412.93 308,412.5C 304.657,416.616 300.324,418.616 295,418.5C 289.169,417.445 283.336,416.445 277.5,415.5C 274.016,414.835 270.349,414.501 266.5,414.5C 259.941,414.411 253.608,415.077 247.5,416.5C 236.024,416.9 224.691,415.9 213.5,413.5C 211.645,413.34 210.312,414.007 209.5,415.5C 203.306,418.142 196.972,420.642 190.5,423C 184.109,423.758 177.776,423.424 171.5,422C 161.887,417.529 152.221,413.029 142.5,408.5C 133.48,403.665 124.814,398.165 116.5,392C 111.644,388.645 107.644,384.478 104.5,379.5C 103.873,376.298 103.206,373.131 102.5,370C 97.3703,367.92 92.037,367.087 86.5,367.5C 86.5,365.833 86.5,364.167 86.5,362.5C 84.8008,362.66 83.1341,362.494 81.5,362C 76.4034,355.902 70.4034,350.902 63.5,347C 60.3063,343.806 57.1396,340.64 54,337.5C 53.3486,335.765 53.5153,334.098 54.5,332.5C 51.0879,330.255 48.5879,327.255 47,323.5C 46.5046,326.531 46.6713,329.531 47.5,332.5C 47.5,333.5 47.5,334.5 47.5,335.5C 45.4249,331.526 44.4249,327.192 44.5,322.5C 42.27,305.36 40.77,288.027 40,270.5C 39.6174,269.944 39.1174,269.611 38.5,269.5C 37.3263,268.486 36.6596,267.153 36.5,265.5C 37.7206,266.028 38.8873,266.695 40,267.5C 40.1667,266.333 40.3333,265.167 40.5,264C 39.5347,257.61 37.868,251.443 35.5,245.5C 34.5,245.5 33.5,245.5 32.5,245.5C 32.5,249.5 32.5,253.5 32.5,257.5C 29.8601,253.107 29.8601,248.607 32.5,244C 26.3343,236.365 26.001,228.532 31.5,220.5C 30.5,219.167 29.5,217.833 28.5,216.5C 28.6236,215.893 28.9569,215.56 29.5,215.5C 30.4959,215.586 31.3292,215.252 32,214.5C 32.3333,213.167 32.6667,211.833 33,210.5C 33.1127,202.394 33.946,194.394 35.5,186.5C 40.5506,179.065 44.5506,171.065 47.5,162.5C 52.1073,151.952 57.274,141.619 63,131.5C 63.3333,128.833 63.6667,126.167 64,123.5C 66.405,122.726 68.905,122.226 71.5,122C 79.0411,114.291 86.7077,106.791 94.5,99.5C 108.284,90.2245 121.95,80.7245 135.5,71C 139.167,67.3333 142.833,63.6667 146.5,60C 147.448,59.5172 148.448,59.3505 149.5,59.5C 151.355,60.6896 153.188,62.0229 155,63.5C 158.844,59.6622 163.511,57.9955 169,58.5C 182.275,60.565 195.442,60.8984 208.5,59.5C 222.107,56.5631 235.774,56.8965 249.5,60.5C 250.849,60.1543 252.183,59.821 253.5,59.5C 258.768,57.6773 264.101,55.844 269.5,54C 273.339,53.541 277.172,53.041 281,52.5C 284.943,54.0996 289.109,54.7662 293.5,54.5 Z"/></g>
<g><path style="opacity:0.573" fill="#c7c4c1" d="M 293.5,54.5 C 289.109,54.7662 284.943,54.0996 281,52.5C 277.172,53.041 273.339,53.541 269.5,54C 264.101,55.844 258.768,57.6773 253.5,59.5C 264.334,51.9748 276.334,49.4748 289.5,52C 291.066,52.6082 292.4,53.4415 293.5,54.5 Z"/></g>
<g><path style="opacity:0.114" fill="#cccac8" d="M 208.5,59.5 C 195.442,60.8984 182.275,60.565 169,58.5C 163.511,57.9955 158.844,59.6622 155,63.5C 153.188,62.0229 151.355,60.6896 149.5,59.5C 151.582,59.472 153.416,60.1387 155,61.5C 158.324,57.7555 162.491,56.0888 167.5,56.5C 181.012,59.1498 194.679,60.1498 208.5,59.5 Z"/></g>
<g><path style="opacity:0.306" fill="#c8c7c4" d="M 293.5,54.5 C 302.656,57.5467 311.322,61.5467 319.5,66.5C 310.323,63.4487 301.657,59.4487 293.5,54.5 Z"/></g>
<g><path style="opacity:0.267" fill="#cac9c6" d="M 330.5,71.5 C 336.587,74.5385 341.921,78.5385 346.5,83.5C 341.712,80.2673 336.712,77.2673 331.5,74.5C 330.873,73.5832 330.539,72.5832 330.5,71.5 Z"/></g>
<g><path style="opacity:0.996" fill="#bf2a1c" d="M 257.5,112.5 C 253.373,120.23 251.039,128.563 250.5,137.5C 252.099,137.768 253.432,137.434 254.5,136.5C 261.833,134.833 269.167,133.167 276.5,131.5C 281.797,130.725 287.13,130.392 292.5,130.5C 294.901,131.049 297.235,131.882 299.5,133C 301.155,134.444 301.822,136.278 301.5,138.5C 297.821,141.838 293.488,143.838 288.5,144.5C 282.015,145.657 275.682,146.99 269.5,148.5C 261.565,149.937 253.565,150.937 245.5,151.5C 244.242,154.694 243.576,158.027 243.5,161.5C 255.95,164.488 267.95,168.988 279.5,175C 281.402,176.73 283.069,178.563 284.5,180.5C 285.229,185.13 285.563,189.797 285.5,194.5C 282.46,197.911 278.793,198.411 274.5,196C 264.594,184.926 253.594,175.093 241.5,166.5C 236.447,176.745 229.78,185.912 221.5,194C 214.762,198.368 207.762,202.201 200.5,205.5C 198.46,206.519 196.46,206.519 194.5,205.5C 195.193,204.482 195.859,203.482 196.5,202.5C 203.767,197.068 210.267,190.735 216,183.5C 220.351,177.281 223.851,170.615 226.5,163.5C 228.253,160.854 229.253,157.854 229.5,154.5C 226.833,154.5 224.167,154.5 221.5,154.5C 211.135,154.733 200.802,154.4 190.5,153.5C 189.058,152.18 188.392,150.514 188.5,148.5C 190.786,148.405 192.786,147.738 194.5,146.5C 196.833,146.5 199.167,146.5 201.5,146.5C 209.501,145.4 217.501,144.234 225.5,143C 228.191,142.844 230.524,142.011 232.5,140.5C 233.167,140.5 233.5,140.167 233.5,139.5C 234.6,137.723 235.434,135.723 236,133.5C 236.823,124.99 236.657,116.656 235.5,108.5C 233.833,106.5 232.167,104.5 230.5,102.5C 228.11,96.3885 230.11,94.2219 236.5,96C 243.862,98.079 250.696,101.246 257,105.5C 257.497,107.81 257.663,110.143 257.5,112.5 Z"/></g>
<g><path style="opacity:0.29" fill="#cccbc8" d="M 359.5,96.5 C 360.743,98.9636 361.743,101.63 362.5,104.5C 367.322,106.305 372.322,107.472 377.5,108C 378.056,108.383 378.389,108.883 378.5,109.5C 374.548,108.804 370.548,108.304 366.5,108C 360.389,106.7 358.055,102.867 359.5,96.5 Z"/></g>
<g><path style="opacity:0.996" fill="#4f3f3d" d="M 230.5,102.5 C 232.167,104.5 233.833,106.5 235.5,108.5C 235.5,110.5 235.5,112.5 235.5,114.5C 232.455,111.107 230.788,107.107 230.5,102.5 Z"/></g>
<g><path style="opacity:0.996" fill="#a23f36" d="M 235.5,108.5 C 236.657,116.656 236.823,124.99 236,133.5C 235.434,135.723 234.6,137.723 233.5,139.5C 235.235,131.285 235.902,122.952 235.5,114.5C 235.5,112.5 235.5,110.5 235.5,108.5 Z"/></g>
<g><path style="opacity:0.996" fill="#63514e" d="M 257.5,112.5 C 256.735,120.467 254.735,128.133 251.5,135.5C 252.325,136.386 253.325,136.719 254.5,136.5C 253.432,137.434 252.099,137.768 250.5,137.5C 251.039,128.563 253.373,120.23 257.5,112.5 Z"/></g>
<g><path style="opacity:0.996" fill="#a65e57" d="M 292.5,130.5 C 287.13,130.392 281.797,130.725 276.5,131.5C 276.918,130.778 277.584,130.278 278.5,130C 283.352,129.185 288.019,129.352 292.5,130.5 Z"/></g>
<g><path style="opacity:0.996" fill="#433c3b" d="M 301.5,138.5 C 301.662,140.527 301.495,142.527 301,144.5C 297.935,146.283 294.768,147.95 291.5,149.5C 276.24,152.919 260.907,155.753 245.5,158C 244.915,159.302 244.249,160.469 243.5,161.5C 243.576,158.027 244.242,154.694 245.5,151.5C 253.565,150.937 261.565,149.937 269.5,148.5C 276.305,148.878 282.639,147.545 288.5,144.5C 293.488,143.838 297.821,141.838 301.5,138.5 Z"/></g>
<g><path style="opacity:0.165" fill="#d8d6d4" d="M 408.5,135.5 C 411.195,137.251 411.861,139.584 410.5,142.5C 412.375,143.409 413.708,144.743 414.5,146.5C 412.518,145.509 410.518,144.509 408.5,143.5C 409.213,140.904 409.213,138.237 408.5,135.5 Z"/></g>
<g><path style="opacity:0.996" fill="#ab584e" d="M 232.5,140.5 C 230.524,142.011 228.191,142.844 225.5,143C 217.501,144.234 209.501,145.4 201.5,146.5C 211.556,143.765 221.889,141.765 232.5,140.5 Z"/></g>
<g><path style="opacity:0.996" fill="#6b2e29" d="M 288.5,144.5 C 282.639,147.545 276.305,148.878 269.5,148.5C 275.682,146.99 282.015,145.657 288.5,144.5 Z"/></g>
<g><path style="opacity:0.996" fill="#b04b40" d="M 194.5,146.5 C 192.786,147.738 190.786,148.405 188.5,148.5C 188.392,150.514 189.058,152.18 190.5,153.5C 189.833,153.5 189.167,153.5 188.5,153.5C 186.887,152.162 186.387,150.495 187,148.5C 189.301,147.133 191.801,146.466 194.5,146.5 Z"/></g>
<g><path style="opacity:0.996" fill="#464141" d="M 188.5,153.5 C 189.167,153.5 189.833,153.5 190.5,153.5C 190.918,154.222 191.584,154.722 192.5,155C 202.342,155.825 212.009,155.658 221.5,154.5C 224.167,154.5 226.833,154.5 229.5,154.5C 229.253,157.854 228.253,160.854 226.5,163.5C 215.544,161.684 204.211,160.851 192.5,161C 190.188,159.686 188.188,158.019 186.5,156C 186.639,154.699 187.305,153.866 188.5,153.5 Z"/></g>
<g><path style="opacity:0.996" fill="#8d2820" d="M 190.5,153.5 C 200.802,154.4 211.135,154.733 221.5,154.5C 212.009,155.658 202.342,155.825 192.5,155C 191.584,154.722 190.918,154.222 190.5,153.5 Z"/></g>
<g><path style="opacity:0.208" fill="#d8d6d2" d="M 414.5,146.5 C 416.136,147.749 417.303,149.416 418,151.5C 419.662,158.479 421.162,165.479 422.5,172.5C 418.92,164.406 416.253,155.739 414.5,146.5 Z"/></g>
<g><path style="opacity:0.996" fill="#493d3b" d="M 285.5,194.5 C 285.5,196.167 285.5,197.833 285.5,199.5C 281.466,199.505 277.466,199.838 273.5,200.5C 264.024,190.018 253.357,181.018 241.5,173.5C 240.833,173.833 240.167,174.167 239.5,174.5C 234.037,188.625 224.703,199.292 211.5,206.5C 209.708,206.366 208.042,206.699 206.5,207.5C 204.143,207.663 201.81,207.497 199.5,207C 200.056,206.617 200.389,206.117 200.5,205.5C 207.762,202.201 214.762,198.368 221.5,194C 229.78,185.912 236.447,176.745 241.5,166.5C 253.594,175.093 264.594,184.926 274.5,196C 278.793,198.411 282.46,197.911 285.5,194.5 Z"/></g>
<g><path style="opacity:0.996" fill="#95908a" d="M 273.5,200.5 C 264.538,201.827 255.538,202.827 246.5,203.5C 240.331,203.918 234.331,204.585 228.5,205.5C 222.87,206.292 217.203,206.625 211.5,206.5C 224.703,199.292 234.037,188.625 239.5,174.5C 240.167,174.167 240.833,173.833 241.5,173.5C 253.357,181.018 264.024,190.018 273.5,200.5 Z"/></g>
<g><path style="opacity:0.525" fill="#c7c5c1" d="M 47.5,162.5 C 44.5506,171.065 40.5506,179.065 35.5,186.5C 38.4595,177.914 42.4595,169.914 47.5,162.5 Z"/></g>
<g><path style="opacity:0.996" fill="#a74840" d="M 284.5,180.5 C 286.047,182.807 286.713,185.473 286.5,188.5C 286.495,190.696 286.162,192.696 285.5,194.5C 285.563,189.797 285.229,185.13 284.5,180.5 Z"/></g>
<g><path style="opacity:0.996" fill="#bf2a1c" d="M 361.5,208.5 C 357.319,211.908 352.486,213.241 347,212.5C 332.562,210.802 318.062,210.135 303.5,210.5C 292.324,210.792 281.324,211.459 270.5,212.5C 272.484,215.164 275.151,216.831 278.5,217.5C 281.164,220.266 283.997,222.933 287,225.5C 287.253,256.006 287.753,286.506 288.5,317C 288.623,324.745 287.623,332.245 285.5,339.5C 281.876,346.735 277.71,353.735 273,360.5C 270.293,364.035 266.793,365.202 262.5,364C 254.774,351.777 245.774,340.611 235.5,330.5C 233.615,328.947 232.615,326.947 232.5,324.5C 239.425,326.482 246.425,328.315 253.5,330C 258.229,330.996 262.729,330.496 267,328.5C 269.262,320.665 270.596,312.665 271,304.5C 271.808,285.456 271.641,266.456 270.5,247.5C 270.928,236.09 268.594,225.424 263.5,215.5C 259.285,213.564 254.619,212.897 249.5,213.5C 237.462,213.806 225.462,214.639 213.5,216C 212.944,216.383 212.611,216.883 212.5,217.5C 210.5,217.5 208.5,217.5 206.5,217.5C 196.314,218.48 186.314,219.813 176.5,221.5C 166.463,222.844 156.463,224.844 146.5,227.5C 141.13,227.608 135.797,227.275 130.5,226.5C 127.406,225.117 124.406,223.45 121.5,221.5C 119.15,219.787 118.15,217.453 118.5,214.5C 142.37,213.6 166.037,211.933 189.5,209.5C 195.189,209.468 200.855,209.134 206.5,208.5C 212.849,208.265 219.183,207.765 225.5,207C 226.737,206.768 227.737,206.268 228.5,205.5C 233.179,205.666 237.845,205.499 242.5,205C 244.058,204.79 245.391,204.29 246.5,203.5C 255.538,202.827 264.538,201.827 273.5,200.5C 277.466,199.838 281.466,199.505 285.5,199.5C 288.167,199.167 290.833,198.833 293.5,198.5C 300.882,199.15 307.882,198.15 314.5,195.5C 331.345,189.61 346.845,191.943 361,202.5C 361.495,204.473 361.662,206.473 361.5,208.5 Z"/></g>
<g><path style="opacity:0.996" fill="#b3473b" d="M 314.5,195.5 C 307.882,198.15 300.882,199.15 293.5,198.5C 300.264,196.765 307.264,195.765 314.5,195.5 Z"/></g>
<g><path style="opacity:0.216" fill="#d5d4d1" d="M 35.5,186.5 C 33.946,194.394 33.1127,202.394 33,210.5C 32.6667,211.833 32.3333,213.167 32,214.5C 31.3292,215.252 30.4959,215.586 29.5,215.5C 29.7828,214.711 30.2828,214.044 31,213.5C 31.3333,207.167 31.6667,200.833 32,194.5C 32.3221,191.334 33.4887,188.667 35.5,186.5 Z"/></g>
<g><path style="opacity:0.996" fill="#ac5148" d="M 246.5,203.5 C 245.391,204.29 244.058,204.79 242.5,205C 237.845,205.499 233.179,205.666 228.5,205.5C 234.331,204.585 240.331,203.918 246.5,203.5 Z"/></g>
<g><path style="opacity:0.996" fill="#7a433d" d="M 196.5,202.5 C 195.859,203.482 195.193,204.482 194.5,205.5C 196.46,206.519 198.46,206.519 200.5,205.5C 200.389,206.117 200.056,206.617 199.5,207C 201.81,207.497 204.143,207.663 206.5,207.5C 206.5,207.833 206.5,208.167 206.5,208.5C 200.855,209.134 195.189,209.468 189.5,209.5C 191.631,208.686 193.964,208.186 196.5,208C 195.552,207.517 194.552,207.351 193.5,207.5C 192.916,204.715 193.916,203.048 196.5,202.5 Z"/></g>
<g><path style="opacity:0.996" fill="#ad4037" d="M 228.5,205.5 C 227.737,206.268 226.737,206.768 225.5,207C 219.183,207.765 212.849,208.265 206.5,208.5C 206.5,208.167 206.5,207.833 206.5,207.5C 208.042,206.699 209.708,206.366 211.5,206.5C 217.203,206.625 222.87,206.292 228.5,205.5 Z"/></g>
<g><path style="opacity:0.996" fill="#433e3d" d="M 361.5,208.5 C 362.457,214.048 360.123,217.215 354.5,218C 340.546,217.182 326.546,216.682 312.5,216.5C 301.16,216.706 289.826,217.04 278.5,217.5C 275.151,216.831 272.484,215.164 270.5,212.5C 281.712,212.826 292.712,212.159 303.5,210.5C 318.062,210.135 332.562,210.802 347,212.5C 352.486,213.241 357.319,211.908 361.5,208.5 Z"/></g>
<g><path style="opacity:0.996" fill="#672d2a" d="M 303.5,210.5 C 292.712,212.159 281.712,212.826 270.5,212.5C 281.324,211.459 292.324,210.792 303.5,210.5 Z"/></g>
<g><path style="opacity:0.212" fill="#cac9c5" d="M 423.5,181.5 C 424.09,191.49 424.59,201.49 425,211.5C 425.254,217.848 426.754,223.848 429.5,229.5C 427.864,228.251 426.697,226.584 426,224.5C 425.246,221.361 424.246,218.361 423,215.5C 422.174,203.992 422.341,192.659 423.5,181.5 Z"/></g>
<g><path style="opacity:0.996" fill="#433d3c" d="M 249.5,213.5 C 254.619,212.897 259.285,213.564 263.5,215.5C 263.737,216.791 263.404,217.791 262.5,218.5C 238.571,221.293 214.571,223.46 190.5,225C 173.906,227.277 157.406,230.11 141,233.5C 132.342,233.497 125.008,230.497 119,224.5C 118.517,223.552 118.351,222.552 118.5,221.5C 119.5,221.5 120.5,221.5 121.5,221.5C 124.406,223.45 127.406,225.117 130.5,226.5C 133.356,228.006 136.523,228.672 140,228.5C 142.361,228.496 144.527,228.163 146.5,227.5C 156.463,224.844 166.463,222.844 176.5,221.5C 186.205,221.185 195.872,220.352 205.5,219C 206.056,218.617 206.389,218.117 206.5,217.5C 208.5,217.5 210.5,217.5 212.5,217.5C 224.961,216.129 237.294,214.796 249.5,213.5 Z"/></g>
<g><path style="opacity:0.996" fill="#99281f" d="M 249.5,213.5 C 237.294,214.796 224.961,216.129 212.5,217.5C 212.611,216.883 212.944,216.383 213.5,216C 225.462,214.639 237.462,213.806 249.5,213.5 Z"/></g>
<g><path style="opacity:0.996" fill="#69433f" d="M 263.5,215.5 C 268.594,225.424 270.928,236.09 270.5,247.5C 269.484,237.443 266.818,227.776 262.5,218.5C 263.404,217.791 263.737,216.791 263.5,215.5 Z"/></g>
<g><path style="opacity:0.996" fill="#6b2e29" d="M 206.5,217.5 C 206.389,218.117 206.056,218.617 205.5,219C 195.872,220.352 186.205,221.185 176.5,221.5C 186.314,219.813 196.314,218.48 206.5,217.5 Z"/></g>
<g><path style="opacity:0.996" fill="#772b26" d="M 130.5,226.5 C 135.797,227.275 141.13,227.608 146.5,227.5C 144.527,228.163 142.361,228.496 140,228.5C 136.523,228.672 133.356,228.006 130.5,226.5 Z"/></g>
<g><path style="opacity:0.996" fill="#ae4e44" d="M 234.5,237.5 C 230.374,237.572 226.374,238.239 222.5,239.5C 226.211,236.685 230.211,236.019 234.5,237.5 Z"/></g>
<g><path style="opacity:0.996" fill="#be2a1c" d="M 234.5,237.5 C 239.962,239.487 244.796,242.487 249,246.5C 249.494,248.134 249.66,249.801 249.5,251.5C 242.411,256.03 238.078,262.363 236.5,270.5C 236.52,271.726 236.853,272.726 237.5,273.5C 239.051,275.913 239.717,278.579 239.5,281.5C 238.527,281.987 237.527,282.487 236.5,283C 221.772,284.414 207.105,286.247 192.5,288.5C 191.652,290.409 191.318,292.409 191.5,294.5C 191.5,295.167 191.5,295.833 191.5,296.5C 190.584,298.815 189.25,300.982 187.5,303C 183.774,303.961 181.608,302.461 181,298.5C 180.354,292.92 179.188,287.586 177.5,282.5C 177.665,279.15 177.498,275.817 177,272.5C 176.768,271.263 176.268,270.263 175.5,269.5C 174.943,261.191 172.276,253.857 167.5,247.5C 167.5,245.833 167.5,244.167 167.5,242.5C 172.52,242.041 177.187,243.041 181.5,245.5C 189.656,246.657 197.99,246.823 206.5,246C 209.522,245.902 212.189,245.068 214.5,243.5C 216.897,241.805 219.563,240.472 222.5,239.5C 226.374,238.239 230.374,237.572 234.5,237.5 Z"/></g>
<g><path style="opacity:0.202" fill="#d4d3d0" d="M 431.5,233.5 C 436.081,238.766 437.247,244.766 435,251.5C 434.617,252.056 434.117,252.389 433.5,252.5C 434.909,245.951 434.242,239.618 431.5,233.5 Z"/></g>
<g><path style="opacity:0.996" fill="#af4e44" d="M 214.5,243.5 C 212.189,245.068 209.522,245.902 206.5,246C 197.99,246.823 189.656,246.657 181.5,245.5C 192.58,245.874 203.58,245.207 214.5,243.5 Z"/></g>
<g><path style="opacity:0.992" fill="#181818" d="M 36.5,265.5 C 36.1706,262.173 34.8373,259.507 32.5,257.5C 32.5,253.5 32.5,249.5 32.5,245.5C 33.5,245.5 34.5,245.5 35.5,245.5C 37.868,251.443 39.5347,257.61 40.5,264C 40.3333,265.167 40.1667,266.333 40,267.5C 38.8873,266.695 37.7206,266.028 36.5,265.5 Z"/></g>
<g><path style="opacity:0.996" fill="#3f3c3c" d="M 222.5,253.5 C 223.833,255.5 223.833,257.5 222.5,259.5C 211.563,258.209 200.563,258.543 189.5,260.5C 189.216,258.585 189.549,256.919 190.5,255.5C 200.993,253.907 211.659,253.241 222.5,253.5 Z"/></g>
<g><path style="opacity:0.996" fill="#61302c" d="M 222.5,253.5 C 211.659,253.241 200.993,253.907 190.5,255.5C 201.038,252.522 211.705,251.856 222.5,253.5 Z"/></g>
<g><path style="opacity:0.996" fill="#4c3e3c" d="M 249.5,251.5 C 249.662,253.527 249.495,255.527 249,257.5C 246,260.5 243,263.5 240,266.5C 238.589,268.65 237.755,270.984 237.5,273.5C 236.853,272.726 236.52,271.726 236.5,270.5C 238.078,262.363 242.411,256.03 249.5,251.5 Z"/></g>
<g><path style="opacity:0.027" fill="#999999" d="M 32.5,257.5 C 34.8373,259.507 36.1706,262.173 36.5,265.5C 34.6378,263.109 33.3045,260.442 32.5,257.5 Z"/></g>
<g><path style="opacity:0.996" fill="#968f89" d="M 222.5,259.5 C 223.221,265.001 221.888,269.834 218.5,274C 209.778,277.264 200.778,279.098 191.5,279.5C 190.11,273.266 189.443,266.933 189.5,260.5C 200.563,258.543 211.563,258.209 222.5,259.5 Z"/></g>
<g><path style="opacity:0.996" fill="#584744" d="M 167.5,247.5 C 172.276,253.857 174.943,261.191 175.5,269.5C 172.915,264.266 170.415,258.932 168,253.5C 167.505,251.527 167.338,249.527 167.5,247.5 Z"/></g>
<g><path style="opacity:0.341" fill="#cfcecc" d="M 434.5,259.5 C 434.217,260.289 433.717,260.956 433,261.5C 432.951,266.064 432.117,270.397 430.5,274.5C 430.833,275.833 431.167,277.167 431.5,278.5C 431.129,282.156 430.129,285.49 428.5,288.5C 428.983,278.99 430.149,269.656 432,260.5C 432.671,259.748 433.504,259.414 434.5,259.5 Z"/></g>
<g><path style="opacity:0.996" fill="#463c3a" d="M 239.5,281.5 C 239.662,283.527 239.495,285.527 239,287.5C 238.25,288.126 237.416,288.626 236.5,289C 221.306,289.665 206.306,291.498 191.5,294.5C 191.318,292.409 191.652,290.409 192.5,288.5C 207.105,286.247 221.772,284.414 236.5,283C 237.527,282.487 238.527,281.987 239.5,281.5 Z"/></g>
<g><path style="opacity:0.996" fill="#5a4542" d="M 177.5,282.5 C 179.188,287.586 180.354,292.92 181,298.5C 181.608,302.461 183.774,303.961 187.5,303C 189.25,300.982 190.584,298.815 191.5,296.5C 192.216,301.362 190.883,305.529 187.5,309C 186.056,309.781 184.723,309.614 183.5,308.5C 179.79,300.246 177.79,291.579 177.5,282.5 Z"/></g>
<g><path style="opacity:0.556" fill="#cccbc8" d="M 38.5,269.5 C 39.1174,269.611 39.6174,269.944 40,270.5C 40.77,288.027 42.27,305.36 44.5,322.5C 40.4768,305.203 38.4768,287.537 38.5,269.5 Z"/></g>
<g><path style="opacity:0.996" fill="#070707" d="M 400.5,357.5 C 396.404,360.721 394.737,365.055 395.5,370.5C 392.68,370.248 390.014,370.748 387.5,372C 372.525,388.981 355.191,402.981 335.5,414C 328.274,419.773 321.274,425.773 314.5,432C 311.83,432.543 309.33,432.043 307,430.5C 303.749,434.418 299.583,436.084 294.5,435.5C 288.848,434.865 283.182,434.532 277.5,434.5C 261.329,433.424 244.996,433.424 228.5,434.5C 225.5,434.5 222.5,434.5 219.5,434.5C 217.916,433.231 216.083,432.231 214,431.5C 212.092,431.715 210.926,432.715 210.5,434.5C 208.801,434.34 207.134,434.506 205.5,435C 200.886,437.145 196.219,438.979 191.5,440.5C 187.204,441.463 182.871,441.629 178.5,441C 173.922,439.975 169.588,438.475 165.5,436.5C 152.757,429.465 139.757,422.798 126.5,416.5C 120.923,412.103 115.423,407.436 110,402.5C 107.455,398.563 105.955,394.23 105.5,389.5C 100.456,387.049 95.1229,386.049 89.5,386.5C 89.5,384.5 89.5,382.5 89.5,380.5C 87.9397,380.519 86.4397,380.852 85,381.5C 81.6798,375.745 76.8465,371.745 70.5,369.5C 69.7377,367.738 68.4044,366.738 66.5,366.5C 63.5931,363.089 60.4264,359.755 57,356.5C 56.3486,354.765 56.5153,353.098 57.5,351.5C 54.3766,350.049 52.3766,347.716 51.5,344.5C 50.7686,340.216 49.4353,336.216 47.5,332.5C 46.6713,329.531 46.5046,326.531 47,323.5C 48.5879,327.255 51.0879,330.255 54.5,332.5C 53.5153,334.098 53.3486,335.765 54,337.5C 57.1396,340.64 60.3063,343.806 63.5,347C 70.4034,350.902 76.4034,355.902 81.5,362C 83.1341,362.494 84.8008,362.66 86.5,362.5C 86.5,364.167 86.5,365.833 86.5,367.5C 92.037,367.087 97.3703,367.92 102.5,370C 103.206,373.131 103.873,376.298 104.5,379.5C 107.644,384.478 111.644,388.645 116.5,392C 124.814,398.165 133.48,403.665 142.5,408.5C 152.221,413.029 161.887,417.529 171.5,422C 177.776,423.424 184.109,423.758 190.5,423C 196.972,420.642 203.306,418.142 209.5,415.5C 210.817,415.179 212.151,414.846 213.5,414.5C 224.84,417.468 236.173,418.135 247.5,416.5C 257.494,416.01 267.494,415.677 277.5,415.5C 283.336,416.445 289.169,417.445 295,418.5C 300.324,418.616 304.657,416.616 308,412.5C 309.434,412.93 310.601,413.764 311.5,415C 313.259,415.798 314.926,415.631 316.5,414.5C 320.685,409.482 325.351,404.982 330.5,401C 343.521,391.97 356.521,382.97 369.5,374C 376.947,367.43 383.947,360.43 390.5,353C 393.014,351.748 395.68,351.248 398.5,351.5C 398.187,348.753 398.52,346.086 399.5,343.5C 408.848,326.805 417.681,309.805 426,292.5C 426.661,297.558 426.328,302.558 425,307.5C 417.554,322.877 409.554,337.877 401,352.5C 400.506,354.134 400.34,355.801 400.5,357.5 Z"/></g>
<g><path style="opacity:0.082" fill="#bcbcbc" d="M 47.5,336.5 C 48.7682,338.905 49.4349,341.572 49.5,344.5C 47.9605,342.162 47.2938,339.495 47.5,336.5 Z"/></g>
<g><path style="opacity:0.443" fill="#4f4f4f" d="M 47.5,332.5 C 49.4353,336.216 50.7686,340.216 51.5,344.5C 50.8333,344.5 50.1667,344.5 49.5,344.5C 49.4349,341.572 48.7682,338.905 47.5,336.5C 47.5,336.167 47.5,335.833 47.5,335.5C 47.5,334.5 47.5,333.5 47.5,332.5 Z"/></g>
<g><path style="opacity:0.106" fill="#aeadac" d="M 49.5,344.5 C 50.1667,344.5 50.8333,344.5 51.5,344.5C 52.3766,347.716 54.3766,350.049 57.5,351.5C 56.5153,353.098 56.3486,354.765 57,356.5C 60.4264,359.755 63.5931,363.089 66.5,366.5C 60.2562,363.26 56.2562,358.26 54.5,351.5C 51.6464,349.985 49.9798,347.651 49.5,344.5 Z"/></g>
<g><path style="opacity:0.996" fill="#4a3d3b" d="M 235.5,330.5 C 245.774,340.611 254.774,351.777 262.5,364C 266.793,365.202 270.293,364.035 273,360.5C 277.71,353.735 281.876,346.735 285.5,339.5C 283.334,350.663 278.334,360.496 270.5,369C 266.845,371.335 263.679,370.835 261,367.5C 252.422,355.584 243.089,344.251 233,333.5C 232.517,332.552 232.351,331.552 232.5,330.5C 233.5,330.5 234.5,330.5 235.5,330.5 Z"/></g>
<g><path style="opacity:0.22" fill="#a1a1a1" d="M 66.5,366.5 C 68.4044,366.738 69.7377,367.738 70.5,369.5C 68.5956,369.262 67.2623,368.262 66.5,366.5 Z"/></g>
<g><path style="opacity:0.204" fill="#a2a1a1" d="M 400.5,357.5 C 398.479,362.159 397.146,366.992 396.5,372C 393.22,372.056 390.22,372.889 387.5,374.5C 381.987,380.512 376.321,386.345 370.5,392C 357.516,401.826 344.183,411.159 330.5,420C 325.199,424.3 320.199,428.966 315.5,434C 312.534,434.895 309.867,434.395 307.5,432.5C 304.167,435.672 300.167,437.339 295.5,437.5C 289.289,436.929 283.289,435.929 277.5,434.5C 283.182,434.532 288.848,434.865 294.5,435.5C 299.583,436.084 303.749,434.418 307,430.5C 309.33,432.043 311.83,432.543 314.5,432C 321.274,425.773 328.274,419.773 335.5,414C 355.191,402.981 372.525,388.981 387.5,372C 390.014,370.748 392.68,370.248 395.5,370.5C 394.737,365.055 396.404,360.721 400.5,357.5 Z"/></g>
<g><path style="opacity:0.11" fill="#9c9c9c" d="M 70.5,369.5 C 76.8465,371.745 81.6798,375.745 85,381.5C 86.4397,380.852 87.9397,380.519 89.5,380.5C 89.5,382.5 89.5,384.5 89.5,386.5C 95.1229,386.049 100.456,387.049 105.5,389.5C 105.955,394.23 107.455,398.563 110,402.5C 115.423,407.436 120.923,412.103 126.5,416.5C 119.999,413.179 114.166,408.846 109,403.5C 105.907,399.485 104.074,394.985 103.5,390C 98.61,388.429 93.61,387.262 88.5,386.5C 83.1763,380.261 77.1763,374.595 70.5,369.5 Z"/></g>
<g><path style="opacity:0.996" fill="#5c5a56" d="M 277.5,415.5 C 267.494,415.677 257.494,416.01 247.5,416.5C 253.608,415.077 259.941,414.411 266.5,414.5C 270.349,414.501 274.016,414.835 277.5,415.5 Z"/></g>
<g><path style="opacity:0.996" fill="#66645f" d="M 247.5,416.5 C 236.173,418.135 224.84,417.468 213.5,414.5C 212.151,414.846 210.817,415.179 209.5,415.5C 210.312,414.007 211.645,413.34 213.5,413.5C 224.691,415.9 236.024,416.9 247.5,416.5 Z"/></g>
<g><path style="opacity:0.031" fill="#919191" d="M 126.5,416.5 C 139.757,422.798 152.757,429.465 165.5,436.5C 165.167,436.5 164.833,436.5 164.5,436.5C 150.675,431.902 138.008,425.235 126.5,416.5 Z"/></g>
<g><path style="opacity:0.039" fill="#c5c5c4" d="M 219.5,434.5 C 216.447,433.576 213.447,433.576 210.5,434.5C 210.926,432.715 212.092,431.715 214,431.5C 216.083,432.231 217.916,433.231 219.5,434.5 Z"/></g>
<g><path style="opacity:0.816" fill="#5c5c5c" d="M 277.5,434.5 C 271.5,434.5 265.5,434.5 259.5,434.5C 249.003,435.483 238.669,435.483 228.5,434.5C 244.996,433.424 261.329,433.424 277.5,434.5 Z"/></g>
<g><path style="opacity:0.029" fill="#b2b2b2" d="M 219.5,434.5 C 222.5,434.5 225.5,434.5 228.5,434.5C 238.669,435.483 249.003,435.483 259.5,434.5C 247.714,436.437 235.714,436.937 223.5,436C 221.942,435.79 220.609,435.29 219.5,434.5 Z"/></g>
<g><path style="opacity:0.62" fill="#909090" d="M 210.5,434.5 C 206.356,437.568 201.689,439.568 196.5,440.5C 194.833,440.5 193.167,440.5 191.5,440.5C 196.219,438.979 200.886,437.145 205.5,435C 207.134,434.506 208.801,434.34 210.5,434.5 Z"/></g>
<g><path style="opacity:0.047" fill="#c2c2c2" d="M 164.5,436.5 C 164.833,436.5 165.167,436.5 165.5,436.5C 169.588,438.475 173.922,439.975 178.5,441C 182.871,441.629 187.204,441.463 191.5,440.5C 193.167,440.5 194.833,440.5 196.5,440.5C 186.797,443.458 177.13,442.958 167.5,439C 166.429,438.148 165.429,437.315 164.5,436.5 Z"/></g>
</svg>
