<?xml version="1.0" encoding="UTF-8"?>
<!DOCTYPE svg PUBLIC "-//W3C//DTD SVG 1.1//EN" "http://www.w3.org/Graphics/SVG/1.1/DTD/svg11.dtd">
<svg xmlns="http://www.w3.org/2000/svg" version="1.1" width="60px" height="60px" style="shape-rendering:geometricPrecision; text-rendering:geometricPrecision; image-rendering:optimizeQuality; fill-rule:evenodd; clip-rule:evenodd" xmlns:xlink="http://www.w3.org/1999/xlink">
<g><path style="opacity:1" fill="#000000" d="M 18.5,3.5 C 25.8409,3.33368 33.1742,3.50034 40.5,4C 45.3333,8.83333 50.1667,13.6667 55,18.5C 55.6667,25.8333 55.6667,33.1667 55,40.5C 50.1667,45.3333 45.3333,50.1667 40.5,55C 33.1667,55.6667 25.8333,55.6667 18.5,55C 13.6667,50.1667 8.83333,45.3333 4,40.5C 3.33333,33.1667 3.33333,25.8333 4,18.5C 9.03651,13.6313 13.8698,8.63128 18.5,3.5 Z"/></g>
<g><path style="opacity:1" fill="#807f7f" d="M 19.5,5.5 C 26.175,5.33375 32.8417,5.50042 39.5,6C 44,10.5 48.5,15 53,19.5C 53.6667,26.1667 53.6667,32.8333 53,39.5C 48.5,44 44,48.5 39.5,53C 32.8333,53.6667 26.1667,53.6667 19.5,53C 15,48.5 10.5,44 6,39.5C 5.33333,32.8333 5.33333,26.1667 6,19.5C 10.7033,14.9645 15.2033,10.2979 19.5,5.5 Z"/></g>
<g><path style="opacity:1" fill="#f90f09" d="M 45.5,18.5 C 43.4727,18.3379 41.4727,18.5045 39.5,19C 40.0442,19.7172 40.7109,20.2172 41.5,20.5C 43.4233,20.795 45.0899,21.6283 46.5,23C 45.8333,23.6667 45.1667,24.3333 44.5,25C 45.9733,25.7096 46.6399,26.8762 46.5,28.5C 45.5,28.5 44.5,28.5 43.5,28.5C 43.6659,33.5111 43.4993,38.5111 43,43.5C 41.2739,44.5762 39.4406,44.7429 37.5,44C 36.4829,42.9505 36.3162,41.7839 37,40.5C 38.0113,41.3366 39.1779,41.67 40.5,41.5C 40.5,37.1667 40.5,32.8333 40.5,28.5C 36.8333,28.5 33.1667,28.5 29.5,28.5C 30.0522,26.6693 30.0522,25.0026 29.5,23.5C 37.0392,20.716 37.0392,19.3826 29.5,19.5C 29.5,18.5 29.5,17.5 29.5,16.5C 31.5,16.5 33.5,16.5 35.5,16.5C 35.5,15.5 35.5,14.5 35.5,13.5C 38.7345,14.576 42.0678,15.2427 45.5,15.5C 45.5,16.5 45.5,17.5 45.5,18.5 Z"/></g>
<g><path style="opacity:1" fill="#fb0e06" d="M 24.5,31.5 C 23.8333,31.5 23.1667,31.5 22.5,31.5C 20.1667,31.5 17.8333,31.5 15.5,31.5C 15.5,25.8333 15.5,20.1667 15.5,14.5C 19.8333,14.5 24.1667,14.5 28.5,14.5C 28.5,15.5 28.5,16.5 28.5,17.5C 27.0222,17.238 25.6888,17.5713 24.5,18.5C 25.325,19.3857 26.325,19.719 27.5,19.5C 27.5,20.5 27.5,21.5 27.5,22.5C 23.5,22.8333 23.5,23.1667 27.5,23.5C 27.5,24.5 27.5,25.5 27.5,26.5C 26.325,26.281 25.325,26.6143 24.5,27.5C 25.6888,28.4287 27.0222,28.762 28.5,28.5C 28.6658,33.1785 28.4992,37.8452 28,42.5C 25.1468,45.3184 22.6468,45.1518 20.5,42C 20.6667,41.5 20.8333,41 21,40.5C 22.3333,41.8333 23.6667,41.8333 25,40.5C 25.8045,37.3035 25.6378,34.3035 24.5,31.5 Z"/></g>
<g><path style="opacity:1" fill="#7f807f" d="M 18.5,17.5 C 19.675,17.281 20.675,17.6143 21.5,18.5C 19.9483,19.7979 18.9483,19.4646 18.5,17.5 Z"/></g>
<g><path style="opacity:1" fill="#b54b4a" d="M 45.5,18.5 C 44.1667,19.1667 42.8333,19.8333 41.5,20.5C 40.7109,20.2172 40.0442,19.7172 39.5,19C 41.4727,18.5045 43.4727,18.3379 45.5,18.5 Z"/></g>
<g><path style="opacity:1" fill="#8b7776" d="M 36.5,22.5 C 38.5115,23.2283 40.5115,24.0617 42.5,25C 39.1667,25.6667 35.8333,25.6667 32.5,25C 34.0664,24.3918 35.3998,23.5585 36.5,22.5 Z"/></g>
<g><path style="opacity:1" fill="#7f807f" d="M 18.5,26.5 C 19.675,26.281 20.675,26.6143 21.5,27.5C 19.9483,28.7979 18.9483,28.4646 18.5,26.5 Z"/></g>
<g><path style="opacity:1" fill="#fe0000" d="M 30.5,29.5 C 33.5,29.5 36.5,29.5 39.5,29.5C 39.5,32.5 39.5,35.5 39.5,38.5C 36.5,38.5 33.5,38.5 30.5,38.5C 30.5,35.5 30.5,32.5 30.5,29.5 Z"/></g>
<g><path style="opacity:1" fill="#7f807f" d="M 33.5,32.5 C 35.4646,32.9483 35.7979,33.9483 34.5,35.5C 33.6143,34.675 33.281,33.675 33.5,32.5 Z"/></g>
<g><path style="opacity:1" fill="#ed1c17" d="M 14.5,32.5 C 16.1667,32.5 17.8333,32.5 19.5,32.5C 19.8134,35.2469 19.48,37.9135 18.5,40.5C 17.7189,39.2713 17.2189,37.938 17,36.5C 16.5045,38.4727 16.3379,40.4727 16.5,42.5C 15.5,42.5 14.5,42.5 13.5,42.5C 14.2071,39.2139 14.5405,35.8806 14.5,32.5 Z"/></g>
<g><path style="opacity:1" fill="#dd2b25" d="M 22.5,31.5 C 23.1667,31.5 23.8333,31.5 24.5,31.5C 25.1059,34.9156 24.1059,37.5822 21.5,39.5C 20.1206,36.533 20.4539,33.8663 22.5,31.5 Z"/></g>
</svg>
