<?xml version="1.0" encoding="UTF-8"?>
<!DOCTYPE svg PUBLIC "-//W3C//DTD SVG 1.1//EN" "http://www.w3.org/Graphics/SVG/1.1/DTD/svg11.dtd">
<svg xmlns="http://www.w3.org/2000/svg" version="1.1" width="460px" height="454px" style="shape-rendering:geometricPrecision; text-rendering:geometricPrecision; image-rendering:optimizeQuality; fill-rule:evenodd; clip-rule:evenodd" xmlns:xlink="http://www.w3.org/1999/xlink">
<g><path style="opacity:0.996" fill="#97948e" d="M 297.5,51.5 C 304.918,54.373 312.251,57.5397 319.5,61C 320.381,61.7083 321.047,62.5416 321.5,63.5C 326.394,67.6736 332.061,70.6736 338.5,72.5C 338.511,74.0174 339.177,75.1841 340.5,76C 345.704,79.721 350.704,83.5543 355.5,87.5C 356.491,91.4635 357.491,95.4635 358.5,99.5C 361.088,100.194 363.421,101.36 365.5,103C 368.482,103.498 371.482,103.665 374.5,103.5C 374.5,105.167 374.5,106.833 374.5,108.5C 376.199,108.34 377.866,108.506 379.5,109C 382.188,111.83 384.188,114.996 385.5,118.5C 388.237,118.401 390.904,118.735 393.5,119.5C 393.833,119.5 394.167,119.5 394.5,119.5C 394.369,120.239 394.536,120.906 395,121.5C 399.3,124.798 403.3,128.465 407,132.5C 407.334,134.847 407.167,137.181 406.5,139.5C 408.099,139.768 409.432,139.434 410.5,138.5C 412.708,139.894 414.208,141.894 415,144.5C 417.617,151.966 419.117,159.632 419.5,167.5C 419.959,181.506 420.625,195.506 421.5,209.5C 422.17,211.291 422.837,212.958 423.5,214.5C 425.91,220.318 428.577,225.985 431.5,231.5C 433.851,238.415 432.518,244.415 427.5,249.5C 429.415,251.071 430.415,253.071 430.5,255.5C 430.813,259.042 430.479,262.375 429.5,265.5C 427.622,272.522 425.955,279.855 424.5,287.5C 422.738,288.262 421.738,289.596 421.5,291.5C 413.801,307.231 405.801,322.897 397.5,338.5C 396.52,341.086 396.187,343.753 396.5,346.5C 392.401,346.367 388.734,347.533 385.5,350C 380.505,355.995 375.172,361.661 369.5,367C 356.674,376.247 343.674,385.247 330.5,394C 324.813,398.689 319.479,403.689 314.5,409C 311.258,409.986 308.592,409.152 306.5,406.5C 304.676,408.489 302.676,410.323 300.5,412C 293.041,412.909 285.708,412.409 278.5,410.5C 274.514,409.834 270.347,409.501 266,409.5C 258.942,409.381 252.109,410.047 245.5,411.5C 233.824,412.01 222.324,411.01 211,408.5C 204.02,412.568 196.52,415.401 188.5,417C 176.992,419.397 166.659,417.064 157.5,410C 137.754,402.873 120.254,392.04 105,377.5C 102.653,373.809 101.153,369.809 100.5,365.5C 98.2895,364.877 96.2895,363.877 94.5,362.5C 91.5719,361.516 88.5719,361.183 85.5,361.5C 85.5,359.833 85.5,358.167 85.5,356.5C 83.4727,356.662 81.4727,356.495 79.5,356C 77.8745,353.372 75.8745,351.039 73.5,349C 65.196,344.709 58.0293,338.876 52,331.5C 51.3486,329.765 51.5153,328.098 52.5,326.5C 51.624,325.749 50.624,325.249 49.5,325C 48.2726,322.438 46.6059,320.272 44.5,318.5C 41.8997,299.078 39.233,279.745 36.5,260.5C 37.8963,254.878 37.5629,249.211 35.5,243.5C 34.4116,242.066 33.0783,241.066 31.5,240.5C 31.8039,239.85 32.1373,239.183 32.5,238.5C 27.8429,232.386 26.6762,225.719 29,218.5C 30.1667,217.333 31.3333,216.167 32.5,215C 31.7562,213.961 30.7562,213.461 29.5,213.5C 29.1961,212.85 28.8627,212.183 28.5,211.5C 30.7025,209.705 31.8692,207.371 32,204.5C 32.3333,197.5 32.6667,190.5 33,183.5C 37.298,174.579 41.9647,165.913 47,157.5C 48.0755,154.106 49.2422,150.772 50.5,147.5C 54.7627,142.552 57.7627,136.886 59.5,130.5C 59.5,130.167 59.5,129.833 59.5,129.5C 63.568,127.486 65.2347,124.152 64.5,119.5C 66.9201,119.708 69.2534,119.374 71.5,118.5C 74.2811,115.066 76.6144,111.399 78.5,107.5C 85.197,100.312 92.5303,93.8124 100.5,88C 112.74,80.0573 124.74,71.8906 136.5,63.5C 139.899,61.6117 142.899,59.1117 145.5,56C 149.03,56.0272 152.364,56.8606 155.5,58.5C 155.452,55.7081 156.785,53.8747 159.5,53C 164.019,52.8247 168.353,52.3247 172.5,51.5C 173.492,51.3284 174.158,51.6618 174.5,52.5C 174.062,52.4346 173.728,52.6012 173.5,53C 174.624,53.2492 175.624,53.7492 176.5,54.5C 197.845,55.4441 219.179,55.1108 240.5,53.5C 242.787,53.7239 244.953,54.3906 247,55.5C 248.8,54.6805 250.634,54.0138 252.5,53.5C 261.237,50.3995 270.237,48.3995 279.5,47.5C 285.562,48.6335 291.562,49.9669 297.5,51.5 Z"/></g>
<g><path style="opacity:0.282" fill="#c4c2be" d="M 297.5,51.5 C 291.562,49.9669 285.562,48.6335 279.5,47.5C 270.237,48.3995 261.237,50.3995 252.5,53.5C 264.605,45.8673 277.605,44.034 291.5,48C 293.727,48.941 295.727,50.1077 297.5,51.5 Z"/></g>
<g><path style="opacity:0.463" fill="#ceccc8" d="M 172.5,51.5 C 168.353,52.3247 164.019,52.8247 159.5,53C 156.785,53.8747 155.452,55.7081 155.5,58.5C 152.364,56.8606 149.03,56.0272 145.5,56C 142.899,59.1117 139.899,61.6117 136.5,63.5C 139.296,60.2026 142.296,57.0359 145.5,54C 148.17,53.4574 150.67,53.9574 153,55.5C 154.823,54.3488 156.656,53.1821 158.5,52C 163.155,51.5008 167.821,51.3342 172.5,51.5 Z"/></g>
<g><path style="opacity:0.254" fill="#c3c0bd" d="M 240.5,53.5 C 219.179,55.1108 197.845,55.4441 176.5,54.5C 175.624,53.7492 174.624,53.2492 173.5,53C 173.728,52.6012 174.062,52.4346 174.5,52.5C 191.847,53.8216 209.18,53.4883 226.5,51.5C 231.424,51.3541 236.091,52.0207 240.5,53.5 Z"/></g>
<g><path style="opacity:0.333" fill="#cfcecb" d="M 321.5,63.5 C 327.607,65.7194 333.273,68.7194 338.5,72.5C 332.061,70.6736 326.394,67.6736 321.5,63.5 Z"/></g>
<g><path style="opacity:0.275" fill="#cfcdcb" d="M 338.5,72.5 C 345.134,76.4711 350.801,81.4711 355.5,87.5C 350.704,83.5543 345.704,79.721 340.5,76C 339.177,75.1841 338.511,74.0174 338.5,72.5 Z"/></g>
<g><path style="opacity:0.269" fill="#c9c8c5" d="M 355.5,87.5 C 358.568,90.6538 360.235,94.4871 360.5,99C 364.943,100.94 369.61,101.94 374.5,102C 376.037,103.11 376.703,104.61 376.5,106.5C 380.404,106.061 382.904,107.728 384,111.5C 387.145,114.304 390.312,116.97 393.5,119.5C 390.904,118.735 388.237,118.401 385.5,118.5C 384.188,114.996 382.188,111.83 379.5,109C 377.866,108.506 376.199,108.34 374.5,108.5C 374.5,106.833 374.5,105.167 374.5,103.5C 371.482,103.665 368.482,103.498 365.5,103C 363.421,101.36 361.088,100.194 358.5,99.5C 357.491,95.4635 356.491,91.4635 355.5,87.5 Z"/></g>
<g><path style="opacity:0.996" fill="#bd2a1b" d="M 287.5,121.5 C 284.401,127.791 282.068,134.458 280.5,141.5C 279.566,142.568 279.232,143.901 279.5,145.5C 287.752,145.578 295.419,143.744 302.5,140C 308.884,139.249 315.217,139.416 321.5,140.5C 325.504,142.122 326.171,144.455 323.5,147.5C 307.824,152.497 291.824,156.497 275.5,159.5C 275.5,160.5 275.5,161.5 275.5,162.5C 278.221,162.963 280.888,163.629 283.5,164.5C 291.67,166.943 299.337,170.443 306.5,175C 310.504,177.471 312.504,180.971 312.5,185.5C 313.703,192.35 311.037,195.183 304.5,194C 293.983,185.973 283.983,177.473 274.5,168.5C 268.305,179.888 260.305,190.054 250.5,199C 248.183,201.157 245.516,202.657 242.5,203.5C 241.387,202.054 241.22,200.387 242,198.5C 245.856,192.768 249.69,187.101 253.5,181.5C 255.245,179.967 256.245,177.967 256.5,175.5C 257.75,172.994 258.416,170.327 258.5,167.5C 260.308,166.082 260.975,164.082 260.5,161.5C 252.833,161.5 245.167,161.5 237.5,161.5C 236.312,160.636 235.145,159.636 234,158.5C 233.383,157.551 233.549,156.718 234.5,156C 244.361,154.895 254.027,152.895 263.5,150C 265.92,145.484 266.92,140.651 266.5,135.5C 267.653,129.347 267.82,123.014 267,116.5C 265.273,113.382 264.439,110.049 264.5,106.5C 266.628,105.371 268.961,105.204 271.5,106C 277.648,108.049 283.148,111.215 288,115.5C 288.678,117.598 288.511,119.598 287.5,121.5 Z"/></g>
<g><path style="opacity:0.893" fill="#bcb9b5" d="M 78.5,107.5 C 76.6144,111.399 74.2811,115.066 71.5,118.5C 69.2534,119.374 66.9201,119.708 64.5,119.5C 65.2347,124.152 63.568,127.486 59.5,129.5C 60.5877,127.417 61.5877,125.251 62.5,123C 61.4464,121.612 61.2797,120.112 62,118.5C 64.0693,117.736 66.236,117.236 68.5,117C 72.3607,114.304 75.694,111.137 78.5,107.5 Z"/></g>
<g><path style="opacity:0.996" fill="#805a50" d="M 264.5,106.5 C 264.439,110.049 265.273,113.382 267,116.5C 267.82,123.014 267.653,129.347 266.5,135.5C 266.666,130.821 266.499,126.155 266,121.5C 264.683,117.681 263.85,113.681 263.5,109.5C 263.52,108.274 263.853,107.274 264.5,106.5 Z"/></g>
<g><path style="opacity:0.239" fill="#d6d6d4" d="M 394.5,119.5 C 400.681,123.514 405.681,128.681 409.5,135C 407.993,136.667 408.327,137.834 410.5,138.5C 409.432,139.434 408.099,139.768 406.5,139.5C 407.167,137.181 407.334,134.847 407,132.5C 403.3,128.465 399.3,124.798 395,121.5C 394.536,120.906 394.369,120.239 394.5,119.5 Z"/></g>
<g><path style="opacity:0.996" fill="#be2a1a" d="M 218.5,137.5 C 206.97,140.481 195.304,143.148 183.5,145.5C 183.392,147.514 184.058,149.18 185.5,150.5C 185.5,151.5 185.5,152.5 185.5,153.5C 183.308,157.098 182.308,161.098 182.5,165.5C 184.38,165.771 185.713,165.104 186.5,163.5C 193.024,161.702 199.357,162.202 205.5,165C 208.061,167.156 208.061,169.323 205.5,171.5C 198.116,173.287 190.783,175.287 183.5,177.5C 182.534,179.396 182.201,181.396 182.5,183.5C 182.5,187.833 182.5,192.167 182.5,196.5C 188.842,196.334 195.175,196.5 201.5,197C 203.192,198.401 203.859,200.234 203.5,202.5C 201.363,203.942 199.03,205.109 196.5,206C 191.58,206.955 186.747,208.121 182,209.5C 181.501,215.157 181.334,220.824 181.5,226.5C 181.5,227.5 181.5,228.5 181.5,229.5C 184.959,228.692 188.459,228.025 192,227.5C 199.656,229.816 206.322,233.816 212,239.5C 212.497,241.81 212.663,244.143 212.5,246.5C 209.351,249.805 207.517,253.805 207,258.5C 206.666,273.511 206.166,288.511 205.5,303.5C 205.737,304.791 205.404,305.791 204.5,306.5C 202.62,321.915 194.954,333.582 181.5,341.5C 179.617,341.124 178.117,340.124 177,338.5C 176.33,333.119 174.663,328.119 172,323.5C 168.92,319.933 166.087,316.267 163.5,312.5C 163.5,311.5 163.5,310.5 163.5,309.5C 168.327,309.941 172.993,311.107 177.5,313C 183.495,314.673 187.328,312.507 189,306.5C 189.836,301.487 190.669,296.487 191.5,291.5C 192.268,290.737 192.768,289.737 193,288.5C 193.667,274.5 193.667,260.5 193,246.5C 192.8,244.68 191.966,243.347 190.5,242.5C 190.389,241.883 190.056,241.383 189.5,241C 185.833,240.333 182.167,240.333 178.5,241C 168.255,243.242 157.921,245.242 147.5,247C 143.736,249.025 141.903,252.192 142,256.5C 140.274,257.576 138.441,257.743 136.5,257C 135.023,255.188 133.69,253.355 132.5,251.5C 132.5,244.167 132.5,236.833 132.5,229.5C 133.222,229.082 133.722,228.416 134,227.5C 134.873,202.479 134.539,177.479 133,152.5C 132.148,151.429 131.315,150.429 130.5,149.5C 129.979,145.519 129.646,141.519 129.5,137.5C 134.814,136.99 139.48,138.49 143.5,142C 161.051,140.952 178.051,136.952 194.5,130C 201.994,127.681 209.328,128.015 216.5,131C 219.321,132.621 219.987,134.788 218.5,137.5 Z"/></g>
<g><path style="opacity:0.996" fill="#5a4037" d="M 287.5,121.5 C 288.473,123.068 288.64,124.735 288,126.5C 286.628,130.012 284.962,133.345 283,136.5C 281.921,139.063 281.421,141.729 281.5,144.5C 280.596,143.791 280.263,142.791 280.5,141.5C 282.068,134.458 284.401,127.791 287.5,121.5 Z"/></g>
<g><path style="opacity:0.918" fill="#c8c6c4" d="M 59.5,130.5 C 57.7627,136.886 54.7627,142.552 50.5,147.5C 51.0305,145.076 51.8638,142.743 53,140.5C 54.9417,136.931 57.1084,133.598 59.5,130.5 Z"/></g>
<g><path style="opacity:0.996" fill="#433c39" d="M 218.5,137.5 C 218.917,140.079 218.25,142.246 216.5,144C 206.13,146.197 195.797,148.364 185.5,150.5C 184.058,149.18 183.392,147.514 183.5,145.5C 195.304,143.148 206.97,140.481 218.5,137.5 Z"/></g>
<g><path style="opacity:0.996" fill="#ab3625" d="M 321.5,140.5 C 315.217,139.416 308.884,139.249 302.5,140C 295.419,143.744 287.752,145.578 279.5,145.5C 279.232,143.901 279.566,142.568 280.5,141.5C 280.263,142.791 280.596,143.791 281.5,144.5C 288.097,143.579 294.43,141.746 300.5,139C 307.167,138.333 313.833,138.333 320.5,139C 321.056,139.383 321.389,139.883 321.5,140.5 Z"/></g>
<g><path style="opacity:0.996" fill="#453c39" d="M 323.5,147.5 C 324.88,147.962 325.547,148.962 325.5,150.5C 324.333,152.498 322.666,153.998 320.5,155C 308.736,158.421 296.736,161.087 284.5,163C 283.944,163.383 283.611,163.883 283.5,164.5C 280.888,163.629 278.221,162.963 275.5,162.5C 275.5,161.5 275.5,160.5 275.5,159.5C 291.824,156.497 307.824,152.497 323.5,147.5 Z"/></g>
<g><path style="opacity:0.996" fill="#453e3b" d="M 167.5,150.5 C 167.5,151.833 167.5,153.167 167.5,154.5C 160.963,156.345 154.297,157.345 147.5,157.5C 147.5,155.833 147.5,154.167 147.5,152.5C 153.071,151.359 158.737,150.026 164.5,148.5C 166.038,148.453 167.038,149.12 167.5,150.5 Z"/></g>
<g><path style="opacity:0.996" fill="#6d4c40" d="M 185.5,153.5 C 185.603,156.219 185.269,158.885 184.5,161.5C 184.747,162.713 185.414,163.38 186.5,163.5C 185.713,165.104 184.38,165.771 182.5,165.5C 182.308,161.098 183.308,157.098 185.5,153.5 Z"/></g>
<g><path style="opacity:0.996" fill="#433c39" d="M 237.5,161.5 C 245.167,161.5 252.833,161.5 260.5,161.5C 260.975,164.082 260.308,166.082 258.5,167.5C 250.772,167.811 243.105,167.311 235.5,166C 232.682,163.131 233.348,161.631 237.5,161.5 Z"/></g>
<g><path style="opacity:0.996" fill="#7f4839" d="M 167.5,150.5 C 168.94,154.406 169.606,158.573 169.5,163C 169.497,165.69 169.164,168.19 168.5,170.5C 168.528,165.138 168.194,159.805 167.5,154.5C 167.5,153.167 167.5,151.833 167.5,150.5 Z"/></g>
<g><path style="opacity:0.996" fill="#4a3e3a" d="M 312.5,185.5 C 313.477,188.287 313.81,191.287 313.5,194.5C 315.833,194.5 318.167,194.5 320.5,194.5C 314.428,196.292 308.095,197.292 301.5,197.5C 291.847,190.011 282.68,182.011 274,173.5C 268.329,186.013 260.163,196.68 249.5,205.5C 247.236,206.219 244.903,206.552 242.5,206.5C 242.5,205.5 242.5,204.5 242.5,203.5C 245.516,202.657 248.183,201.157 250.5,199C 260.305,190.054 268.305,179.888 274.5,168.5C 283.983,177.473 293.983,185.973 304.5,194C 311.037,195.183 313.703,192.35 312.5,185.5 Z"/></g>
<g><path style="opacity:0.996" fill="#453d3a" d="M 205.5,171.5 C 208.124,173.198 208.124,175.031 205.5,177C 197.868,179.38 190.201,181.547 182.5,183.5C 182.201,181.396 182.534,179.396 183.5,177.5C 190.783,175.287 198.116,173.287 205.5,171.5 Z"/></g>
<g><path style="opacity:0.996" fill="#949089" d="M 301.5,197.5 C 300.432,198.434 299.099,198.768 297.5,198.5C 288.863,199.294 280.53,200.961 272.5,203.5C 269.287,203.19 266.287,203.523 263.5,204.5C 258.807,204.54 254.141,204.873 249.5,205.5C 260.163,196.68 268.329,186.013 274,173.5C 282.68,182.011 291.847,190.011 301.5,197.5 Z"/></g>
<g><path style="opacity:0.996" fill="#95908a" d="M 167.5,154.5 C 168.194,159.805 168.528,165.138 168.5,170.5C 163.112,172.56 157.445,173.893 151.5,174.5C 150.23,176.757 150.564,178.757 152.5,180.5C 150.29,181.455 149.957,182.955 151.5,185C 157.3,187.151 163.3,187.984 169.5,187.5C 169.5,192.5 169.5,197.5 169.5,202.5C 163.301,204.34 156.968,205.673 150.5,206.5C 150.232,208.099 150.566,209.432 151.5,210.5C 151.973,211.906 152.973,212.573 154.5,212.5C 150.523,213.277 149.857,215.11 152.5,218C 158.088,219.289 163.755,219.789 169.5,219.5C 169.5,223.833 169.5,228.167 169.5,232.5C 169.209,233.649 168.376,234.316 167,234.5C 162.181,235.664 157.347,236.664 152.5,237.5C 150.833,237.5 149.167,237.5 147.5,237.5C 147.5,210.833 147.5,184.167 147.5,157.5C 154.297,157.345 160.963,156.345 167.5,154.5 Z"/></g>
<g><path style="opacity:0.298" fill="#d0cecb" d="M 50.5,147.5 C 49.2422,150.772 48.0755,154.106 47,157.5C 41.9647,165.913 37.298,174.579 33,183.5C 32.6667,190.5 32.3333,197.5 32,204.5C 31.8692,207.371 30.7025,209.705 28.5,211.5C 28.8627,212.183 29.1961,212.85 29.5,213.5C 28.4138,213.38 27.7472,212.713 27.5,211.5C 28.0909,209.734 28.9242,208.067 30,206.5C 30.1358,198.438 30.8025,190.438 32,182.5C 37.7011,170.424 43.8677,158.757 50.5,147.5 Z"/></g>
<g><path style="opacity:0.996" fill="#8e6d61" d="M 130.5,149.5 C 131.315,150.429 132.148,151.429 133,152.5C 134.539,177.479 134.873,202.479 134,227.5C 133.722,228.416 133.222,229.082 132.5,229.5C 134.324,202.755 133.658,176.088 130.5,149.5 Z"/></g>
<g><path style="opacity:0.996" fill="#995341" d="M 256.5,175.5 C 256.245,177.967 255.245,179.967 253.5,181.5C 253.755,179.033 254.755,177.033 256.5,175.5 Z"/></g>
<g><path style="opacity:0.996" fill="#4f403b" d="M 152.5,180.5 C 158.471,181.241 164.471,181.575 170.5,181.5C 170.825,188.687 170.491,195.687 169.5,202.5C 169.5,197.5 169.5,192.5 169.5,187.5C 163.3,187.984 157.3,187.151 151.5,185C 149.957,182.955 150.29,181.455 152.5,180.5 Z"/></g>
<g><path style="opacity:0.996" fill="#a74131" d="M 347.5,193.5 C 338.485,193.501 329.485,193.834 320.5,194.5C 325.933,193.069 331.599,192.402 337.5,192.5C 341.018,192.502 344.351,192.835 347.5,193.5 Z"/></g>
<g><path style="opacity:0.996" fill="#bd2a1b" d="M 347.5,193.5 C 352.44,194.503 357.106,196.336 361.5,199C 363.229,200.789 363.896,202.956 363.5,205.5C 357.396,207.311 351.062,207.978 344.5,207.5C 333.007,206.341 321.341,206.174 309.5,207C 308.588,208.625 309.255,209.459 311.5,209.5C 312.795,210.488 314.128,211.488 315.5,212.5C 316.916,214.179 318.25,215.846 319.5,217.5C 317.946,233.002 317.28,248.669 317.5,264.5C 317.5,276.338 317.833,288.005 318.5,299.5C 318.5,305.833 318.5,312.167 318.5,318.5C 316.89,330.728 312.223,341.728 304.5,351.5C 302.167,352.833 299.833,352.833 297.5,351.5C 290.984,340.314 282.651,330.647 272.5,322.5C 270.919,320.858 270.253,318.858 270.5,316.5C 275.241,316.735 279.908,317.402 284.5,318.5C 288.476,319.331 292.476,319.497 296.5,319C 299.094,317.661 300.594,315.494 301,312.5C 302.425,289.201 302.925,265.868 302.5,242.5C 302.552,235.794 302.052,229.128 301,222.5C 300.722,221.584 300.222,220.918 299.5,220.5C 299.117,216.681 298.117,213.014 296.5,209.5C 292.825,208.317 289.159,208.317 285.5,209.5C 272.851,210.947 260.518,213.28 248.5,216.5C 242.126,218.344 235.626,219.677 229,220.5C 223.213,220.525 218.713,218.192 215.5,213.5C 215.5,212.5 215.5,211.5 215.5,210.5C 223.475,209.801 231.475,209.301 239.5,209C 247.608,207.374 255.608,205.874 263.5,204.5C 266.287,203.523 269.287,203.19 272.5,203.5C 278.496,202.715 284.496,201.882 290.5,201C 293.104,200.61 295.438,199.776 297.5,198.5C 299.099,198.768 300.432,198.434 301.5,197.5C 308.095,197.292 314.428,196.292 320.5,194.5C 329.485,193.834 338.485,193.501 347.5,193.5 Z"/></g>
<g><path style="opacity:0.996" fill="#a04431" d="M 297.5,198.5 C 295.438,199.776 293.104,200.61 290.5,201C 284.496,201.882 278.496,202.715 272.5,203.5C 280.53,200.961 288.863,199.294 297.5,198.5 Z"/></g>
<g><path style="opacity:0.705" fill="#c0beba" d="M 419.5,167.5 C 421.717,182.942 423.05,198.608 423.5,214.5C 422.837,212.958 422.17,211.291 421.5,209.5C 420.625,195.506 419.959,181.506 419.5,167.5 Z"/></g>
<g><path style="opacity:0.996" fill="#4a403c" d="M 203.5,202.5 C 203.945,205.365 203.278,207.865 201.5,210C 197.198,210.545 193.198,211.878 189.5,214C 187.19,214.497 184.857,214.663 182.5,214.5C 182.817,218.702 182.483,222.702 181.5,226.5C 181.334,220.824 181.501,215.157 182,209.5C 186.747,208.121 191.58,206.955 196.5,206C 199.03,205.109 201.363,203.942 203.5,202.5 Z"/></g>
<g><path style="opacity:0.996" fill="#a63c29" d="M 169.5,202.5 C 169.38,203.586 168.713,204.253 167.5,204.5C 162.31,206.343 156.976,207.343 151.5,207.5C 151.5,208.5 151.5,209.5 151.5,210.5C 150.566,209.432 150.232,208.099 150.5,206.5C 156.968,205.673 163.301,204.34 169.5,202.5 Z"/></g>
<g><path style="opacity:0.996" fill="#653023" d="M 344.5,207.5 C 333.162,207.333 321.828,207.5 310.5,208C 311.056,208.383 311.389,208.883 311.5,209.5C 309.255,209.459 308.588,208.625 309.5,207C 321.341,206.174 333.007,206.341 344.5,207.5 Z"/></g>
<g><path style="opacity:0.996" fill="#423e3c" d="M 363.5,205.5 C 363.5,207.5 363.5,209.5 363.5,211.5C 359.964,212.57 356.297,213.237 352.5,213.5C 340.18,212.684 327.846,212.351 315.5,212.5C 314.128,211.488 312.795,210.488 311.5,209.5C 311.389,208.883 311.056,208.383 310.5,208C 321.828,207.5 333.162,207.333 344.5,207.5C 351.062,207.978 357.396,207.311 363.5,205.5 Z"/></g>
<g><path style="opacity:0.996" fill="#a43826" d="M 263.5,204.5 C 255.608,205.874 247.608,207.374 239.5,209C 231.475,209.301 223.475,209.801 215.5,210.5C 215.5,211.5 215.5,212.5 215.5,213.5C 215.167,213.5 214.833,213.5 214.5,213.5C 213.065,211.335 213.731,209.835 216.5,209C 225.299,209.004 233.965,208.171 242.5,206.5C 244.903,206.552 247.236,206.219 249.5,205.5C 254.141,204.873 258.807,204.54 263.5,204.5 Z"/></g>
<g><path style="opacity:0.996" fill="#443f3d" d="M 299.5,220.5 C 297.957,219.264 296.957,217.598 296.5,215.5C 295,215.167 293.5,214.833 292,214.5C 271.059,218.18 250.226,222.18 229.5,226.5C 227.471,226.33 225.471,225.996 223.5,225.5C 220.5,223.5 217.5,221.5 214.5,219.5C 213.769,217.599 213.769,215.599 214.5,213.5C 214.833,213.5 215.167,213.5 215.5,213.5C 218.713,218.192 223.213,220.525 229,220.5C 235.626,219.677 242.126,218.344 248.5,216.5C 260.118,214.588 271.785,212.755 283.5,211C 284.416,210.722 285.082,210.222 285.5,209.5C 289.159,208.317 292.825,208.317 296.5,209.5C 298.117,213.014 299.117,216.681 299.5,220.5 Z"/></g>
<g><path style="opacity:0.996" fill="#693225" d="M 285.5,209.5 C 285.082,210.222 284.416,210.722 283.5,211C 271.785,212.755 260.118,214.588 248.5,216.5C 260.518,213.28 272.851,210.947 285.5,209.5 Z"/></g>
<g><path style="opacity:0.996" fill="#865a4a" d="M 147.5,152.5 C 147.5,154.167 147.5,155.833 147.5,157.5C 147.5,184.167 147.5,210.833 147.5,237.5C 149.167,237.5 150.833,237.5 152.5,237.5C 150.735,238.461 148.735,238.795 146.5,238.5C 146.169,209.662 146.502,180.995 147.5,152.5 Z"/></g>
<g><path style="opacity:0.996" fill="#45423f" d="M 154.5,212.5 C 159.438,213.392 164.438,213.726 169.5,213.5C 169.5,215.5 169.5,217.5 169.5,219.5C 163.755,219.789 158.088,219.289 152.5,218C 149.857,215.11 150.523,213.277 154.5,212.5 Z"/></g>
<g><path style="opacity:0.996" fill="#a22d1c" d="M 151.5,210.5 C 158.046,212.132 164.713,212.799 171.5,212.5C 171.666,218.842 171.5,225.175 171,231.5C 170.617,232.056 170.117,232.389 169.5,232.5C 169.5,228.167 169.5,223.833 169.5,219.5C 169.5,217.5 169.5,215.5 169.5,213.5C 164.438,213.726 159.438,213.392 154.5,212.5C 152.973,212.573 151.973,211.906 151.5,210.5 Z"/></g>
<g><path style="opacity:0.651" fill="#cac9c7" d="M 29.5,213.5 C 30.7562,213.461 31.7562,213.961 32.5,215C 31.3333,216.167 30.1667,217.333 29,218.5C 26.6762,225.719 27.8429,232.386 32.5,238.5C 32.1373,239.183 31.8039,239.85 31.5,240.5C 30.5289,244.767 30.5289,249.1 31.5,253.5C 28.0565,248.966 27.7231,244.132 30.5,239C 27.8419,234.693 26.1753,230.026 25.5,225C 26.3306,221.009 27.6639,217.176 29.5,213.5 Z"/></g>
<g><path style="opacity:0.996" fill="#bc2b1b" d="M 286.5,246.5 C 283.441,248.397 281.274,251.064 280,254.5C 279.079,258.266 277.579,261.766 275.5,265C 275.639,266.301 276.305,267.134 277.5,267.5C 278.122,268.627 278.955,269.627 280,270.5C 280.765,272.066 280.598,273.399 279.5,274.5C 274.304,276.609 268.971,278.109 263.5,279C 256.102,279.533 248.769,280.533 241.5,282C 239.845,283.444 239.178,285.278 239.5,287.5C 239.5,288.167 239.5,288.833 239.5,289.5C 238.069,290.78 237.402,292.447 237.5,294.5C 235.097,294.607 233.264,293.607 232,291.5C 231.122,287.948 229.956,284.614 228.5,281.5C 228.872,274.7 228.206,268.033 226.5,261.5C 225.444,254.336 223.777,247.336 221.5,240.5C 221.962,239.12 222.962,238.453 224.5,238.5C 238.654,243.087 251.988,241.254 264.5,233C 273.174,232.413 280.34,235.58 286,242.5C 286.49,243.793 286.657,245.127 286.5,246.5 Z"/></g>
<g><path style="opacity:0.996" fill="#865545" d="M 299.5,220.5 C 300.222,220.918 300.722,221.584 301,222.5C 302.052,229.128 302.552,235.794 302.5,242.5C 301.778,242.918 301.278,243.584 301,244.5C 300.699,236.475 300.199,228.475 299.5,220.5 Z"/></g>
<g><path style="opacity:0.996" fill="#473c39" d="M 190.5,242.5 C 191.578,245.402 192.244,248.402 192.5,251.5C 191.042,247.056 187.875,245.389 183,246.5C 170.61,247.878 158.443,250.212 146.5,253.5C 143.964,255.909 142.464,258.909 142,262.5C 139.408,263.982 137.075,263.648 135,261.5C 133.648,258.28 132.814,254.947 132.5,251.5C 133.69,253.355 135.023,255.188 136.5,257C 138.441,257.743 140.274,257.576 142,256.5C 141.903,252.192 143.736,249.025 147.5,247C 157.921,245.242 168.255,243.242 178.5,241C 182.167,240.333 185.833,240.333 189.5,241C 190.056,241.383 190.389,241.883 190.5,242.5 Z"/></g>
<g><path style="opacity:0.993" fill="#161616" d="M 31.5,240.5 C 33.0783,241.066 34.4116,242.066 35.5,243.5C 37.5629,249.211 37.8963,254.878 36.5,260.5C 35.1891,257.865 33.5224,255.531 31.5,253.5C 30.5289,249.1 30.5289,244.767 31.5,240.5 Z"/></g>
<g><path style="opacity:0.996" fill="#423b38" d="M 264.5,255.5 C 264.5,254.167 264.5,252.833 264.5,251.5C 255.96,251.13 247.627,252.13 239.5,254.5C 239.5,252.833 239.5,251.167 239.5,249.5C 240.791,249.737 241.791,249.404 242.5,248.5C 249.313,246.979 256.313,246.146 263.5,246C 265.693,249.038 266.027,252.204 264.5,255.5 Z"/></g>
<g><path style="opacity:0.996" fill="#8e6b5f" d="M 319.5,217.5 C 320.741,223.046 320.574,228.713 319,234.5C 318.5,256.164 318.333,277.831 318.5,299.5C 317.833,288.005 317.5,276.338 317.5,264.5C 317.28,248.669 317.946,233.002 319.5,217.5 Z"/></g>
<g><path style="opacity:0.996" fill="#67544c" d="M 221.5,240.5 C 223.777,247.336 225.444,254.336 226.5,261.5C 225.542,261.047 224.708,260.381 224,259.5C 223.271,255.54 222.104,251.706 220.5,248C 220.494,245.46 220.827,242.96 221.5,240.5 Z"/></g>
<g><path style="opacity:0.996" fill="#4d423d" d="M 286.5,246.5 C 287.377,250.91 285.877,254.243 282,256.5C 279.928,259.971 278.428,263.638 277.5,267.5C 276.305,267.134 275.639,266.301 275.5,265C 277.579,261.766 279.079,258.266 280,254.5C 281.274,251.064 283.441,248.397 286.5,246.5 Z"/></g>
<g><path style="opacity:0.996" fill="#948e88" d="M 264.5,255.5 C 264.571,260.405 262.904,264.572 259.5,268C 254.35,270.121 249.017,271.621 243.5,272.5C 241.645,272.66 240.312,271.993 239.5,270.5C 239.5,265.167 239.5,259.833 239.5,254.5C 247.627,252.13 255.96,251.13 264.5,251.5C 264.5,252.833 264.5,254.167 264.5,255.5 Z"/></g>
<g><path style="opacity:0.157" fill="#d7d6d3" d="M 431.5,231.5 C 433.047,233.807 433.713,236.473 433.5,239.5C 434.191,243.807 432.857,247.307 429.5,250C 432.768,251.642 433.101,253.475 430.5,255.5C 430.415,253.071 429.415,251.071 427.5,249.5C 432.518,244.415 433.851,238.415 431.5,231.5 Z"/></g>
<g><path style="opacity:0.996" fill="#ba2c1c" d="M 184.5,277.5 C 182.581,279.522 180.414,279.856 178,278.5C 173.879,271.938 170.046,265.271 166.5,258.5C 166.5,256.833 166.5,255.167 166.5,253.5C 173.24,255.123 179.073,258.457 184,263.5C 185.756,268.126 185.923,272.793 184.5,277.5 Z"/></g>
<g><path style="opacity:0.996" fill="#883c2c" d="M 242.5,248.5 C 241.791,249.404 240.791,249.737 239.5,249.5C 239.5,251.167 239.5,252.833 239.5,254.5C 239.5,259.833 239.5,265.167 239.5,270.5C 238.508,263.352 238.175,256.019 238.5,248.5C 239.833,248.5 241.167,248.5 242.5,248.5 Z"/></g>
<g><path style="opacity:0.996" fill="#bb2b1b" d="M 164.5,284.5 C 161.837,289.288 158.671,289.621 155,285.5C 151.627,278.112 149.46,270.445 148.5,262.5C 150.089,261.379 151.756,261.546 153.5,263C 156.965,265.463 160.131,268.296 163,271.5C 164.195,275.751 164.695,280.085 164.5,284.5 Z"/></g>
<g><path style="opacity:0.996" fill="#bd2b1b" d="M 116.5,273.5 C 117.971,285.809 116.137,297.475 111,308.5C 109.186,309.76 107.353,309.76 105.5,308.5C 104.007,305.302 102.34,302.302 100.5,299.5C 100.337,297.143 100.503,294.81 101,292.5C 106.107,284.182 109.44,275.182 111,265.5C 112.587,264.273 113.921,264.606 115,266.5C 115.977,268.74 116.477,271.073 116.5,273.5 Z"/></g>
<g><path style="opacity:0.996" fill="#ba2c1c" d="M 143.5,282.5 C 143.666,286.514 143.499,290.514 143,294.5C 141.484,297.006 139.318,297.84 136.5,297C 131.939,290.479 129.273,283.312 128.5,275.5C 127.366,273.034 127.199,270.367 128,267.5C 128.725,266.941 129.558,266.608 130.5,266.5C 136.335,270.663 140.669,275.996 143.5,282.5 Z"/></g>
<g><path style="opacity:0.133" fill="#d0cfcd" d="M 31.5,253.5 C 33.5224,255.531 35.1891,257.865 36.5,260.5C 39.233,279.745 41.8997,299.078 44.5,318.5C 44.4299,322.425 45.0966,326.091 46.5,329.5C 46.5,331.167 46.5,332.833 46.5,334.5C 40.9746,313.313 37.8079,291.646 37,269.5C 35.979,263.812 34.1457,258.479 31.5,253.5 Z"/></g>
<g><path style="opacity:0.996" fill="#826154" d="M 212.5,246.5 C 213.211,250.325 212.045,253.325 209,255.5C 208.667,268.5 208.333,281.5 208,294.5C 207.796,297.797 206.963,300.797 205.5,303.5C 206.166,288.511 206.666,273.511 207,258.5C 207.517,253.805 209.351,249.805 212.5,246.5 Z"/></g>
<g><path style="opacity:0.996" fill="#443c39" d="M 279.5,274.5 C 279.5,276.833 279.5,279.167 279.5,281.5C 266.058,283.373 252.725,285.373 239.5,287.5C 239.178,285.278 239.845,283.444 241.5,282C 248.769,280.533 256.102,279.533 263.5,279C 268.971,278.109 274.304,276.609 279.5,274.5 Z"/></g>
<g><path style="opacity:0.996" fill="#4a403c" d="M 166.5,258.5 C 170.046,265.271 173.879,271.938 178,278.5C 180.414,279.856 182.581,279.522 184.5,277.5C 185.913,281.343 184.58,284.01 180.5,285.5C 179.833,285.167 179.167,284.833 178.5,284.5C 172.303,276.777 168.303,268.11 166.5,258.5 Z"/></g>
<g><path style="opacity:0.996" fill="#965042" d="M 190.5,242.5 C 191.966,243.347 192.8,244.68 193,246.5C 193.667,260.5 193.667,274.5 193,288.5C 192.768,289.737 192.268,290.737 191.5,291.5C 192.425,278.196 192.758,264.863 192.5,251.5C 192.244,248.402 191.578,245.402 190.5,242.5 Z"/></g>
<g><path style="opacity:0.302" fill="#cfcecc" d="M 429.5,265.5 C 427.69,276.773 426.19,288.107 425,299.5C 424.722,300.416 424.222,301.082 423.5,301.5C 424.314,296.881 424.647,292.214 424.5,287.5C 425.955,279.855 427.622,272.522 429.5,265.5 Z"/></g>
<g><path style="opacity:0.996" fill="#514643" d="M 148.5,262.5 C 149.46,270.445 151.627,278.112 155,285.5C 158.671,289.621 161.837,289.288 164.5,284.5C 165.229,290.238 162.896,293.405 157.5,294C 149.876,284.648 146.876,274.148 148.5,262.5 Z"/></g>
<g><path style="opacity:0.996" fill="#070707" d="M 421.5,304.5 C 420.262,306.214 419.595,308.214 419.5,310.5C 416.013,314.795 413.013,319.462 410.5,324.5C 405.532,335.77 400.032,346.77 394,357.5C 393.503,360.146 393.336,362.813 393.5,365.5C 389.869,365.16 386.536,365.994 383.5,368C 380.667,371.5 377.833,375 375,378.5C 360.318,390.762 344.818,401.929 328.5,412C 323.193,416.972 317.86,421.972 312.5,427C 309.663,427.388 307.163,426.555 305,424.5C 304.235,424.57 303.735,424.903 303.5,425.5C 300.782,428.193 297.449,429.859 293.5,430.5C 273.078,426.949 252.578,426.615 232,429.5C 225.369,429.384 218.869,428.384 212.5,426.5C 208.65,426.919 205.65,428.585 203.5,431.5C 199.416,432.188 195.416,433.188 191.5,434.5C 184.392,436.088 177.392,435.755 170.5,433.5C 160.021,428.257 149.354,423.59 138.5,419.5C 135.939,416.283 132.605,414.283 128.5,413.5C 128.631,412.624 128.298,411.957 127.5,411.5C 125.045,409.703 122.378,408.37 119.5,407.5C 115.561,403.947 111.728,400.28 108,396.5C 105.701,392.133 103.867,387.633 102.5,383C 97.742,380.856 92.742,380.023 87.5,380.5C 87.5,378.833 87.5,377.167 87.5,375.5C 82.5753,375.593 79.2419,373.259 77.5,368.5C 69.515,363.917 62.3483,358.251 56,351.5C 55.2438,349.191 55.7438,347.191 57.5,345.5C 54.3403,345.017 51.6736,343.684 49.5,341.5C 48.8684,337.298 47.8684,333.298 46.5,329.5C 45.0966,326.091 44.4299,322.425 44.5,318.5C 46.6059,320.272 48.2726,322.438 49.5,325C 50.624,325.249 51.624,325.749 52.5,326.5C 51.5153,328.098 51.3486,329.765 52,331.5C 58.0293,338.876 65.196,344.709 73.5,349C 75.8745,351.039 77.8745,353.372 79.5,356C 81.4727,356.495 83.4727,356.662 85.5,356.5C 85.5,358.167 85.5,359.833 85.5,361.5C 88.5719,361.183 91.5719,361.516 94.5,362.5C 96.2895,363.877 98.2895,364.877 100.5,365.5C 101.153,369.809 102.653,373.809 105,377.5C 120.254,392.04 137.754,402.873 157.5,410C 166.659,417.064 176.992,419.397 188.5,417C 196.52,415.401 204.02,412.568 211,408.5C 222.324,411.01 233.824,412.01 245.5,411.5C 256.486,410.791 267.486,410.457 278.5,410.5C 285.708,412.409 293.041,412.909 300.5,412C 302.676,410.323 304.676,408.489 306.5,406.5C 308.592,409.152 311.258,409.986 314.5,409C 319.479,403.689 324.813,398.689 330.5,394C 343.674,385.247 356.674,376.247 369.5,367C 375.172,361.661 380.505,355.995 385.5,350C 388.734,347.533 392.401,346.367 396.5,346.5C 396.187,343.753 396.52,341.086 397.5,338.5C 405.801,322.897 413.801,307.231 421.5,291.5C 422.117,291.389 422.617,291.056 423,290.5C 423.477,295.262 422.977,299.929 421.5,304.5 Z"/></g>
<g><path style="opacity:0.996" fill="#4d433f" d="M 228.5,281.5 C 229.956,284.614 231.122,287.948 232,291.5C 233.264,293.607 235.097,294.607 237.5,294.5C 237.402,292.447 238.069,290.78 239.5,289.5C 239.041,292.877 238.374,296.211 237.5,299.5C 235.533,299.739 233.699,299.406 232,298.5C 231.562,295.624 230.562,292.957 229,290.5C 228.502,287.518 228.335,284.518 228.5,281.5 Z"/></g>
<g><path style="opacity:0.996" fill="#534640" d="M 128.5,275.5 C 129.273,283.312 131.939,290.479 136.5,297C 139.318,297.84 141.484,297.006 143,294.5C 143.499,290.514 143.666,286.514 143.5,282.5C 145.131,289.263 144.464,295.929 141.5,302.5C 139.926,303.631 138.259,303.798 136.5,303C 131.032,294.679 128.365,285.512 128.5,275.5 Z"/></g>
<g><path style="opacity:0.831" fill="#434343" d="M 424.5,287.5 C 424.647,292.214 424.314,296.881 423.5,301.5C 423.5,301.833 423.5,302.167 423.5,302.5C 422.833,303.167 422.167,303.833 421.5,304.5C 422.977,299.929 423.477,295.262 423,290.5C 422.617,291.056 422.117,291.389 421.5,291.5C 421.738,289.596 422.738,288.262 424.5,287.5 Z"/></g>
<g><path style="opacity:0.431" fill="#a5a5a5" d="M 423.5,302.5 C 422.73,305.496 421.396,308.163 419.5,310.5C 419.595,308.214 420.262,306.214 421.5,304.5C 422.167,303.833 422.833,303.167 423.5,302.5 Z"/></g>
<g><path style="opacity:0.996" fill="#5c4942" d="M 116.5,273.5 C 118.736,287.1 117.57,300.433 113,313.5C 110.253,316.034 107.587,316.034 105,313.5C 103.92,311.004 102.586,308.67 101,306.5C 100.503,304.19 100.337,301.857 100.5,299.5C 102.34,302.302 104.007,305.302 105.5,308.5C 107.353,309.76 109.186,309.76 111,308.5C 116.137,297.475 117.971,285.809 116.5,273.5 Z"/></g>
<g><path style="opacity:0.996" fill="#937062" d="M 284.5,318.5 C 279.908,317.402 275.241,316.735 270.5,316.5C 270.253,318.858 270.919,320.858 272.5,322.5C 271.833,322.5 271.167,322.5 270.5,322.5C 269.631,320.283 269.298,317.95 269.5,315.5C 273.514,315.334 277.514,315.501 281.5,316C 283.119,316.236 284.119,317.069 284.5,318.5 Z"/></g>
<g><path style="opacity:0.996" fill="#4c403b" d="M 204.5,306.5 C 204.81,324.809 197.143,338.476 181.5,347.5C 179.971,347.471 178.804,346.804 178,345.5C 175.367,336.222 171.033,327.889 165,320.5C 163.748,317.986 163.248,315.32 163.5,312.5C 166.087,316.267 168.92,319.933 172,323.5C 174.663,328.119 176.33,333.119 177,338.5C 178.117,340.124 179.617,341.124 181.5,341.5C 194.954,333.582 202.62,321.915 204.5,306.5 Z"/></g>
<g><path style="opacity:0.355" fill="#878787" d="M 46.5,329.5 C 47.8684,333.298 48.8684,337.298 49.5,341.5C 47.7587,339.605 46.7587,337.272 46.5,334.5C 46.5,332.833 46.5,331.167 46.5,329.5 Z"/></g>
<g><path style="opacity:0.996" fill="#4a403c" d="M 318.5,318.5 C 317.751,332.912 313.084,345.912 304.5,357.5C 301.718,358.952 299.218,358.619 297,356.5C 293.915,351.328 290.581,346.328 287,341.5C 281.031,336.533 275.365,331.199 270,325.5C 269.26,324.251 269.427,323.251 270.5,322.5C 271.167,322.5 271.833,322.5 272.5,322.5C 282.651,330.647 290.984,340.314 297.5,351.5C 299.833,352.833 302.167,352.833 304.5,351.5C 312.223,341.728 316.89,330.728 318.5,318.5 Z"/></g>
<g><path style="opacity:0.271" fill="#999999" d="M 49.5,341.5 C 51.6736,343.684 54.3403,345.017 57.5,345.5C 55.7438,347.191 55.2438,349.191 56,351.5C 62.3483,358.251 69.515,363.917 77.5,368.5C 79.2419,373.259 82.5753,375.593 87.5,375.5C 87.5,377.167 87.5,378.833 87.5,380.5C 92.742,380.023 97.742,380.856 102.5,383C 103.867,387.633 105.701,392.133 108,396.5C 111.728,400.28 115.561,403.947 119.5,407.5C 109.984,402.817 103.984,395.317 101.5,385C 97.1766,383.191 92.6766,382.024 88,381.5C 86.6474,378.901 84.4807,377.401 81.5,377C 79.8333,374.667 78.1667,372.333 76.5,370C 68.172,364.909 60.672,358.742 54,351.5C 53.2797,349.888 53.4464,348.388 54.5,347C 51.921,345.924 50.2543,344.091 49.5,341.5 Z"/></g>
<g><path style="opacity:0.114" fill="#939393" d="M 119.5,407.5 C 122.378,408.37 125.045,409.703 127.5,411.5C 128.298,411.957 128.631,412.624 128.5,413.5C 124.951,412.277 121.951,410.277 119.5,407.5 Z"/></g>
<g><path style="opacity:0.996" fill="#353432" d="M 278.5,410.5 C 267.486,410.457 256.486,410.791 245.5,411.5C 252.109,410.047 258.942,409.381 266,409.5C 270.347,409.501 274.514,409.834 278.5,410.5 Z"/></g>
<g><path style="opacity:0.133" fill="#9e9e9e" d="M 128.5,413.5 C 132.605,414.283 135.939,416.283 138.5,419.5C 134.575,418.421 131.242,416.421 128.5,413.5 Z"/></g>
<g><path style="opacity:0.165" fill="#a2a2a2" d="M 419.5,310.5 C 412.231,326.371 404.398,342.038 396,357.5C 395.667,360.167 395.333,362.833 395,365.5C 391.573,365.986 388.406,367.153 385.5,369C 380.867,374.635 375.867,379.968 370.5,385C 357.36,395.404 343.693,405.071 329.5,414C 324.12,418.384 319.12,423.051 314.5,428C 310.942,430.154 307.775,429.654 305,426.5C 304.722,427.416 304.222,428.082 303.5,428.5C 303.5,427.5 303.5,426.5 303.5,425.5C 303.735,424.903 304.235,424.57 305,424.5C 307.163,426.555 309.663,427.388 312.5,427C 317.86,421.972 323.193,416.972 328.5,412C 344.818,401.929 360.318,390.762 375,378.5C 377.833,375 380.667,371.5 383.5,368C 386.536,365.994 389.869,365.16 393.5,365.5C 393.336,362.813 393.503,360.146 394,357.5C 400.032,346.77 405.532,335.77 410.5,324.5C 413.013,319.462 416.013,314.795 419.5,310.5 Z"/></g>
<g><path style="opacity:0.027" fill="#9a9a9a" d="M 138.5,419.5 C 149.354,423.59 160.021,428.257 170.5,433.5C 170.833,434.167 171.167,434.833 171.5,435.5C 160.03,431.004 149.03,425.67 138.5,419.5 Z"/></g>
<g><path style="opacity:0.392" fill="#989898" d="M 303.5,425.5 C 303.5,426.5 303.5,427.5 303.5,428.5C 300.624,430.299 297.458,431.632 294,432.5C 273.911,428.887 253.744,428.554 233.5,431.5C 226.549,431.314 219.715,430.314 213,428.5C 209.715,429.206 206.548,430.206 203.5,431.5C 205.65,428.585 208.65,426.919 212.5,426.5C 218.869,428.384 225.369,429.384 232,429.5C 252.578,426.615 273.078,426.949 293.5,430.5C 297.449,429.859 300.782,428.193 303.5,425.5 Z"/></g>
<g><path style="opacity:0.027" fill="#bababa" d="M 203.5,431.5 C 199.31,434.25 194.644,435.917 189.5,436.5C 190.167,435.833 190.833,435.167 191.5,434.5C 195.416,433.188 199.416,432.188 203.5,431.5 Z"/></g>
<g><path style="opacity:0.504" fill="#7f7f7f" d="M 170.5,433.5 C 177.392,435.755 184.392,436.088 191.5,434.5C 190.833,435.167 190.167,435.833 189.5,436.5C 183.499,437.978 177.499,437.644 171.5,435.5C 171.167,434.833 170.833,434.167 170.5,433.5 Z"/></g>
</svg>
