<?xml version="1.0" encoding="UTF-8"?>
<!DOCTYPE svg PUBLIC "-//W3C//DTD SVG 1.1//EN" "http://www.w3.org/Graphics/SVG/1.1/DTD/svg11.dtd">
<svg xmlns="http://www.w3.org/2000/svg" version="1.1" width="364px" height="365px" style="shape-rendering:geometricPrecision; text-rendering:geometricPrecision; image-rendering:optimizeQuality; fill-rule:evenodd; clip-rule:evenodd" xmlns:xlink="http://www.w3.org/1999/xlink">
<g><path style="opacity:0.935" fill="#b2afab" d="M 229.5,45.5 C 217.043,44.2003 205.377,46.5337 194.5,52.5C 184.305,50.506 173.971,49.506 163.5,49.5C 173.977,46.5514 184.477,46.8848 195,50.5C 200.167,48.3333 205.333,46.1667 210.5,44C 216.167,43.3333 221.833,43.3333 227.5,44C 228.416,44.2784 229.082,44.7784 229.5,45.5 Z"/></g>
<g><path style="opacity:0.996" fill="#97948e" d="M 229.5,45.5 C 229.833,45.5 230.167,45.5 230.5,45.5C 230.414,46.4959 230.748,47.3292 231.5,48C 237.833,51 244.167,54 250.5,57C 251.793,57.49 253.127,57.6567 254.5,57.5C 264.254,62.0782 272.754,68.4116 280,76.5C 280.753,84.6421 285.253,88.1421 293.5,87C 294.337,88.0113 294.67,89.1779 294.5,90.5C 295.873,90.3433 297.207,90.51 298.5,91C 301.825,95.8333 306.159,99.5 311.5,102C 315.062,105.058 318.062,108.558 320.5,112.5C 320.291,113.086 319.957,113.586 319.5,114C 320.942,114.377 321.942,115.21 322.5,116.5C 326.775,133.856 328.608,151.522 328,169.5C 329.859,175.48 332.692,180.813 336.5,185.5C 338.403,191.275 337.736,196.608 334.5,201.5C 335.167,202.5 335.833,203.5 336.5,204.5C 335.583,207.758 335.249,211.091 335.5,214.5C 334.723,224.597 333.223,234.597 331,244.5C 326.066,253.819 321.232,263.153 316.5,272.5C 315.957,272.44 315.624,272.107 315.5,271.5C 319.235,262.362 323.735,253.695 329,245.5C 330.806,240.622 331.473,235.622 331,230.5C 325.629,241.272 319.962,251.938 314,262.5C 313.751,265.177 312.751,267.51 311,269.5C 310.505,271.473 310.338,273.473 310.5,275.5C 308.073,275.523 305.74,276.023 303.5,277C 292.788,289.695 280.121,300.028 265.5,308C 258.824,313.017 252.49,318.35 246.5,324C 244.623,324.576 242.789,324.409 241,323.5C 237.69,325.809 234.023,327.143 230,327.5C 227.745,327.434 225.578,327.101 223.5,326.5C 223.082,325.778 222.416,325.278 221.5,325C 211.94,324.065 202.606,324.565 193.5,326.5C 186.492,326.666 179.492,326.5 172.5,326C 170.933,324.924 169.266,324.091 167.5,323.5C 157.422,330.36 146.422,332.526 134.5,330C 121.666,324.417 109.332,318.084 97.5,311C 92.1074,307.062 87.2741,302.562 83,297.5C 82.8142,295.1 82.3142,292.766 81.5,290.5C 77.4184,288.396 73.085,287.396 68.5,287.5C 68.5,286.5 68.5,285.5 68.5,284.5C 67.1667,284.5 65.8333,284.5 64.5,284.5C 64.607,282.097 63.607,280.264 61.5,279C 54.7921,275.298 48.9588,270.465 44,264.5C 43.3162,263.216 43.4829,262.049 44.5,261C 42,259.833 40.1667,258 39,255.5C 39.8375,261.189 41.1708,266.855 43,272.5C 44.1096,274.037 45.6096,274.703 47.5,274.5C 47.3379,276.527 47.5045,278.527 48,280.5C 50.705,283.036 53.205,285.703 55.5,288.5C 51.5977,286.107 48.0977,283.107 45,279.5C 44.5078,278.451 44.6744,277.451 45.5,276.5C 42.7443,274.909 40.911,272.576 40,269.5C 35.9358,251.384 33.2691,233.051 32,214.5C 30.357,210.54 28.6903,206.54 27,202.5C 26.2483,199.106 26.4149,195.773 27.5,192.5C 22.2684,186.227 22.2684,180.06 27.5,174C 26.1667,173.333 25.1667,172.333 24.5,171C 25.7014,170.097 26.5348,168.931 27,167.5C 27.3333,161.833 27.6667,156.167 28,150.5C 35.2838,135.323 42.9505,120.323 51,105.5C 65.2966,88.4578 82.4632,73.9578 102.5,62C 106.346,58.3202 110.346,54.8202 114.5,51.5C 117.29,51.2224 119.79,51.8891 122,53.5C 123.3,51.5407 125.133,50.374 127.5,50C 139.665,50.3747 151.665,50.208 163.5,49.5C 173.971,49.506 184.305,50.506 194.5,52.5C 205.377,46.5337 217.043,44.2003 229.5,45.5 Z"/></g>
<g><path style="opacity:0.635" fill="#bdbbb7" d="M 163.5,49.5 C 151.665,50.208 139.665,50.3747 127.5,50C 125.133,50.374 123.3,51.5407 122,53.5C 119.79,51.8891 117.29,51.2224 114.5,51.5C 116.799,48.9979 119.299,48.9979 122,51.5C 124.693,48.1425 128.193,46.8092 132.5,47.5C 142.763,49.1299 153.096,49.7966 163.5,49.5 Z"/></g>
<g><path style="opacity:0.376" fill="#c4c2bd" d="M 230.5,45.5 C 238.579,49.3066 246.579,53.3066 254.5,57.5C 253.127,57.6567 251.793,57.49 250.5,57C 244.167,54 237.833,51 231.5,48C 230.748,47.3292 230.414,46.4959 230.5,45.5 Z"/></g>
<g><path style="opacity:0.996" fill="#bd2c1e" d="M 225.5,100.5 C 222.379,102.448 219.379,104.615 216.5,107C 207.637,116.197 198.47,125.031 189,133.5C 189.64,135.86 191.14,136.193 193.5,134.5C 205.276,134.389 216.943,133.222 228.5,131C 234.839,126.346 239.172,120.346 241.5,113C 243.833,112.333 246.167,112.333 248.5,113C 250.818,115.597 253.318,118.097 256,120.5C 256.49,121.793 256.657,123.127 256.5,124.5C 233.444,138.358 211.444,153.691 190.5,170.5C 192.46,171.519 194.46,171.519 196.5,170.5C 199.881,170.54 203.214,170.207 206.5,169.5C 211.45,169.23 216.117,168.23 220.5,166.5C 225.709,165.942 230.709,164.942 235.5,163.5C 236.675,163.719 237.675,163.386 238.5,162.5C 237.533,159.871 235.867,157.871 233.5,156.5C 232.766,155.292 232.433,153.959 232.5,152.5C 241.497,154.607 249.831,158.441 257.5,164C 259.487,165.319 260.654,167.152 261,169.5C 261.499,173.152 261.665,176.818 261.5,180.5C 259.992,183.25 257.659,184.084 254.5,183C 251.212,178.923 248.045,174.756 245,170.5C 244.044,169.106 242.711,168.439 241,168.5C 229.034,170.493 217.201,172.993 205.5,176C 203.779,176.739 202.113,177.573 200.5,178.5C 201.32,180.111 202.654,180.778 204.5,180.5C 205.833,181.933 207.333,183.267 209,184.5C 209.64,186.265 209.473,187.932 208.5,189.5C 205.636,191.023 203.969,193.357 203.5,196.5C 204.5,196.5 205.5,196.5 206.5,196.5C 209.874,196.326 213.207,195.826 216.5,195C 222.024,192.047 227.857,189.88 234,188.5C 239.404,189.869 244.071,192.536 248,196.5C 248.49,197.793 248.657,199.127 248.5,200.5C 244.578,202.915 241.078,205.915 238,209.5C 233.872,217.594 229.372,225.427 224.5,233C 224.57,233.765 224.903,234.265 225.5,234.5C 231.425,240.244 238.092,245.077 245.5,249C 252.697,251.213 259.697,253.88 266.5,257C 275.288,258.599 283.954,260.599 292.5,263C 294.982,264.461 294.982,265.961 292.5,267.5C 285.186,268.646 277.853,269.646 270.5,270.5C 263.11,270.764 255.777,270.43 248.5,269.5C 238.038,260.872 228.371,251.372 219.5,241C 218.833,240.833 218.167,240.667 217.5,240.5C 207.017,248.914 195.683,256.081 183.5,262C 174.691,265.285 165.691,267.785 156.5,269.5C 153.894,268.15 153.894,266.65 156.5,265C 164.532,262.813 172.198,259.813 179.5,256C 185.167,252.333 190.833,248.667 196.5,245C 200.668,241.998 204.335,238.498 207.5,234.5C 208.478,234.189 209.145,233.522 209.5,232.5C 202.503,225.912 195.003,219.912 187,214.5C 176.797,224.353 165.297,232.353 152.5,238.5C 150.775,238.157 150.275,237.157 151,235.5C 168.93,222.079 183.43,205.745 194.5,186.5C 195.468,184.393 195.802,182.059 195.5,179.5C 190.317,181.241 184.984,182.741 179.5,184C 175.764,187.75 171.431,188.917 166.5,187.5C 166.334,183.486 166.501,179.486 167,175.5C 184.011,166.982 199.511,156.315 213.5,143.5C 215.481,141.856 217.481,140.19 219.5,138.5C 214.85,137.659 210.184,137.825 205.5,139C 195.924,141.28 186.591,144.446 177.5,148.5C 175.557,148.213 174.223,147.213 173.5,145.5C 172.632,142.327 172.632,139.327 173.5,136.5C 175.776,134.649 178.109,132.982 180.5,131.5C 191.672,122.822 200.506,112.156 207,99.5C 207.333,96.5 207.667,93.5 208,90.5C 209.808,88.6041 211.975,88.1041 214.5,89C 217.339,90.9203 220.339,92.5869 223.5,94C 225.229,95.7889 225.896,97.9556 225.5,100.5 Z"/></g>
<g><path style="opacity:0.996" fill="#bd2c1e" d="M 162.5,114.5 C 153.037,122.793 143.704,131.293 134.5,140C 126.289,146.599 117.622,152.432 108.5,157.5C 106.775,157.157 106.275,156.157 107,154.5C 119.771,142.734 131.438,130.067 142,116.5C 145.238,111.698 147.405,106.531 148.5,101C 153.704,102.371 158.204,105.204 162,109.5C 162.494,111.134 162.66,112.801 162.5,114.5 Z"/></g>
<g><path style="opacity:0.996" fill="#4d3c3a" d="M 225.5,100.5 C 225.657,101.873 225.49,103.207 225,104.5C 213.755,113.708 203.255,123.708 193.5,134.5C 191.14,136.193 189.64,135.86 189,133.5C 198.47,125.031 207.637,116.197 216.5,107C 219.379,104.615 222.379,102.448 225.5,100.5 Z"/></g>
<g><path style="opacity:0.996" fill="#4a3c3a" d="M 162.5,114.5 C 162.108,116.179 161.608,117.846 161,119.5C 151.219,128.611 141.386,137.777 131.5,147C 124.505,152.166 117.172,156.833 109.5,161C 108.5,161.667 107.5,161.667 106.5,161C 107.305,159.887 107.972,158.721 108.5,157.5C 117.622,152.432 126.289,146.599 134.5,140C 143.704,131.293 153.037,122.793 162.5,114.5 Z"/></g>
<g><path style="opacity:0.996" fill="#a95b52" d="M 180.5,131.5 C 178.109,132.982 175.776,134.649 173.5,136.5C 174.56,133.231 176.893,131.565 180.5,131.5 Z"/></g>
<g><path style="opacity:0.996" fill="#4b3c3a" d="M 213.5,143.5 C 200.99,144.015 189.157,147.015 178,152.5C 174.078,151.859 172.578,149.525 173.5,145.5C 174.223,147.213 175.557,148.213 177.5,148.5C 186.591,144.446 195.924,141.28 205.5,139C 210.184,137.825 214.85,137.659 219.5,138.5C 217.481,140.19 215.481,141.856 213.5,143.5 Z"/></g>
<g><path style="opacity:0.996" fill="#be2c1e" d="M 159.5,158.5 C 157.388,159.44 155.388,160.606 153.5,162C 147.292,168.539 141.459,175.373 136,182.5C 135.235,184.066 135.402,185.399 136.5,186.5C 136.687,188.564 137.187,190.564 138,192.5C 138.5,205.829 138.667,219.163 138.5,232.5C 137.78,245.692 137.113,259.025 136.5,272.5C 135.796,274.344 134.463,274.844 132.5,274C 130.686,271.521 129.019,269.021 127.5,266.5C 125.277,258.932 124.944,251.266 126.5,243.5C 128.014,236.391 128.847,229.058 129,221.5C 129.5,212.506 129.666,203.506 129.5,194.5C 129.5,193.167 129.5,191.833 129.5,190.5C 126.011,191.313 123.344,193.313 121.5,196.5C 112.296,204.934 101.962,211.601 90.5,216.5C 88.5354,216.052 88.2021,215.052 89.5,213.5C 110.024,197.814 127.191,179.147 141,157.5C 143.37,152.776 145.203,147.943 146.5,143C 147.5,142.333 148.5,142.333 149.5,143C 152.64,146.14 155.806,149.306 159,152.5C 159.495,154.473 159.662,156.473 159.5,158.5 Z"/></g>
<g><path style="opacity:0.995" fill="#afada8" d="M 322.5,116.5 C 324.163,118.493 325.33,120.826 326,123.5C 329.842,140.944 331.842,158.61 332,176.5C 334.038,179.243 335.538,182.243 336.5,185.5C 332.692,180.813 329.859,175.48 328,169.5C 328.608,151.522 326.775,133.856 322.5,116.5 Z"/></g>
<g><path style="opacity:0.996" fill="#4b3b39" d="M 256.5,124.5 C 256.785,126.288 256.452,127.955 255.5,129.5C 234.895,141.957 215.228,155.623 196.5,170.5C 194.46,171.519 192.46,171.519 190.5,170.5C 211.444,153.691 233.444,138.358 256.5,124.5 Z"/></g>
<g><path style="opacity:0.996" fill="#543e3c" d="M 233.5,156.5 C 235.867,157.871 237.533,159.871 238.5,162.5C 237.675,163.386 236.675,163.719 235.5,163.5C 234.878,162.373 234.045,161.373 233,160.5C 232.235,158.934 232.402,157.601 233.5,156.5 Z"/></g>
<g><path style="opacity:0.996" fill="#503d3b" d="M 159.5,158.5 C 159.657,159.873 159.49,161.207 159,162.5C 150.352,169.495 142.852,177.495 136.5,186.5C 135.402,185.399 135.235,184.066 136,182.5C 141.459,175.373 147.292,168.539 153.5,162C 155.388,160.606 157.388,159.44 159.5,158.5 Z"/></g>
<g><path style="opacity:0.996" fill="#af4b42" d="M 220.5,166.5 C 216.117,168.23 211.45,169.23 206.5,169.5C 206.918,168.778 207.584,168.278 208.5,168C 212.51,167.499 216.51,166.999 220.5,166.5 Z"/></g>
<g><path style="opacity:0.996" fill="#4b3d3b" d="M 261.5,180.5 C 263.257,187.342 260.924,189.675 254.5,187.5C 251.333,183.167 248.167,178.833 245,174.5C 244.196,173.196 243.029,172.529 241.5,172.5C 229.3,175.921 216.967,178.587 204.5,180.5C 202.654,180.778 201.32,180.111 200.5,178.5C 202.113,177.573 203.779,176.739 205.5,176C 217.201,172.993 229.034,170.493 241,168.5C 242.711,168.439 244.044,169.106 245,170.5C 248.045,174.756 251.212,178.923 254.5,183C 257.659,184.084 259.992,183.25 261.5,180.5 Z"/></g>
<g><path style="opacity:0.996" fill="#4d3c3a" d="M 194.5,186.5 C 194.38,185.414 193.713,184.747 192.5,184.5C 184.784,187.013 177.118,189.679 169.5,192.5C 166.915,191.927 165.915,190.261 166.5,187.5C 171.431,188.917 175.764,187.75 179.5,184C 184.984,182.741 190.317,181.241 195.5,179.5C 195.802,182.059 195.468,184.393 194.5,186.5 Z"/></g>
<g><path style="opacity:0.996" fill="#652f2b" d="M 129.5,194.5 C 129.167,194.5 128.833,194.5 128.5,194.5C 128.649,193.448 128.483,192.448 128,191.5C 126.223,193.79 124.056,195.457 121.5,196.5C 123.344,193.313 126.011,191.313 129.5,190.5C 129.5,191.833 129.5,193.167 129.5,194.5 Z"/></g>
<g><path style="opacity:0.996" fill="#503f3e" d="M 208.5,189.5 C 208.606,192.079 207.939,194.412 206.5,196.5C 205.5,196.5 204.5,196.5 203.5,196.5C 203.969,193.357 205.636,191.023 208.5,189.5 Z"/></g>
<g><path style="opacity:0.996" fill="#0f0f0e" d="M 28.5,194.5 C 29.7498,194.577 30.5831,195.244 31,196.5C 32.1843,200.449 32.5177,204.449 32,208.5C 29.0562,204.322 27.8895,199.655 28.5,194.5 Z"/></g>
<g><path style="opacity:0.996" fill="#4c3d3b" d="M 225.5,204.5 C 224.551,203.848 223.385,203.514 222,203.5C 213.932,205.319 205.765,206.486 197.5,207C 194.681,208.143 193.681,209.977 194.5,212.5C 192.616,212.288 191.283,211.288 190.5,209.5C 192.69,207.144 194.69,204.644 196.5,202C 199.497,201.695 202.497,201.862 205.5,202.5C 210.555,201.056 215.721,200.056 221,199.5C 225.779,198.761 227.279,200.428 225.5,204.5 Z"/></g>
<g><path style="opacity:0.431" fill="#c4c2bf" d="M 336.5,185.5 C 338.894,187.332 339.894,189.832 339.5,193C 339.766,196.297 338.766,199.13 336.5,201.5C 336.977,202.478 337.643,203.311 338.5,204C 337.059,207.466 336.059,210.966 335.5,214.5C 335.249,211.091 335.583,207.758 336.5,204.5C 335.833,203.5 335.167,202.5 334.5,201.5C 337.736,196.608 338.403,191.275 336.5,185.5 Z"/></g>
<g><path style="opacity:0.996" fill="#968e88" d="M 225.5,204.5 C 225.657,205.873 225.49,207.207 225,208.5C 222.135,214.231 219.301,219.897 216.5,225.5C 215.127,225.657 213.793,225.49 212.5,225C 206.878,220.198 200.878,216.031 194.5,212.5C 193.681,209.977 194.681,208.143 197.5,207C 205.765,206.486 213.932,205.319 222,203.5C 223.385,203.514 224.551,203.848 225.5,204.5 Z"/></g>
<g><path style="opacity:0.996" fill="#4a3c3b" d="M 128.5,194.5 C 118.435,204.394 107.102,212.56 94.5,219C 93.2068,219.49 91.8734,219.657 90.5,219.5C 90.5,218.5 90.5,217.5 90.5,216.5C 101.962,211.601 112.296,204.934 121.5,196.5C 124.056,195.457 126.223,193.79 128,191.5C 128.483,192.448 128.649,193.448 128.5,194.5 Z"/></g>
<g><path style="opacity:0.996" fill="#4a3f3d" d="M 207.5,234.5 C 203.668,230.836 199.668,227.336 195.5,224C 192.732,222.285 189.732,221.118 186.5,220.5C 180.131,225.004 173.797,229.837 167.5,235C 161.814,238.678 155.814,241.512 149.5,243.5C 149.721,241.336 150.721,239.67 152.5,238.5C 165.297,232.353 176.797,224.353 187,214.5C 195.003,219.912 202.503,225.912 209.5,232.5C 209.145,233.522 208.478,234.189 207.5,234.5 Z"/></g>
<g><path style="opacity:0.996" fill="#533f3d" d="M 248.5,200.5 C 248.785,202.288 248.452,203.955 247.5,205.5C 244.567,206.93 242.067,208.93 240,211.5C 235.439,218.186 231.439,225.186 228,232.5C 227.292,233.381 226.458,234.047 225.5,234.5C 224.903,234.265 224.57,233.765 224.5,233C 229.372,225.427 233.872,217.594 238,209.5C 241.078,205.915 244.578,202.915 248.5,200.5 Z"/></g>
<g><path style="opacity:0.996" fill="#9c433d" d="M 138.5,232.5 C 138.5,245.167 138.5,257.833 138.5,270.5C 137.833,271.167 137.167,271.833 136.5,272.5C 137.113,259.025 137.78,245.692 138.5,232.5 Z"/></g>
<g><path style="opacity:0.996" fill="#984740" d="M 126.5,243.5 C 124.944,251.266 125.277,258.932 127.5,266.5C 126.833,266.167 126.167,265.833 125.5,265.5C 125.013,261.691 124.679,257.858 124.5,254C 124.304,250.195 124.97,246.695 126.5,243.5 Z"/></g>
<g><path style="opacity:0.996" fill="#493e3d" d="M 248.5,269.5 C 248.611,270.117 248.944,270.617 249.5,271C 256.679,271.821 263.679,271.655 270.5,270.5C 277.853,269.646 285.186,268.646 292.5,267.5C 293.799,269.153 293.466,270.653 291.5,272C 281.961,272.928 272.461,274.094 263,275.5C 254.224,276.575 246.724,274.075 240.5,268C 233.241,259.576 225.574,251.743 217.5,244.5C 210.308,249.871 203.308,255.371 196.5,261C 186.725,265.064 176.725,268.73 166.5,272C 162.582,273.156 158.582,273.656 154.5,273.5C 154.527,271.801 155.194,270.467 156.5,269.5C 165.691,267.785 174.691,265.285 183.5,262C 195.683,256.081 207.017,248.914 217.5,240.5C 218.167,240.667 218.833,240.833 219.5,241C 228.371,251.372 238.038,260.872 248.5,269.5 Z"/></g>
<g><path style="opacity:0.997" fill="#0a0a09" d="M 316.5,272.5 C 315.833,273.833 315.167,275.167 314.5,276.5C 309.561,279.71 307.228,284.376 307.5,290.5C 305.436,290.687 303.436,291.187 301.5,292C 290.23,304.613 277.23,314.947 262.5,323C 257.126,327.677 251.793,332.343 246.5,337C 244.287,337.626 242.12,337.459 240,336.5C 237.901,337.278 236.401,338.611 235.5,340.5C 230.453,340.663 225.453,340.329 220.5,339.5C 208.499,338.423 196.332,338.423 184,339.5C 178.547,339.654 173.213,338.988 168,337.5C 162.567,340.628 156.734,342.795 150.5,344C 144.825,344.366 139.159,344.2 133.5,343.5C 130.184,340.196 126.184,338.196 121.5,337.5C 116.382,333.564 110.716,330.564 104.5,328.5C 103.508,328.672 102.842,328.338 102.5,327.5C 99.8749,324.185 96.5416,321.851 92.5,320.5C 92.5,318.5 91.5,317.5 89.5,317.5C 86.1516,313.802 84.1516,309.469 83.5,304.5C 80.3141,302.126 76.6474,301.126 72.5,301.5C 72.7373,300.209 72.404,299.209 71.5,298.5C 70.1266,298.657 68.7932,298.49 67.5,298C 65.797,295.668 63.797,293.835 61.5,292.5C 59.9731,292.573 58.9731,291.906 58.5,290.5C 58.0269,289.094 57.0269,288.427 55.5,288.5C 53.205,285.703 50.705,283.036 48,280.5C 47.5045,278.527 47.3379,276.527 47.5,274.5C 45.6096,274.703 44.1096,274.037 43,272.5C 41.1708,266.855 39.8375,261.189 39,255.5C 40.1667,258 42,259.833 44.5,261C 43.4829,262.049 43.3162,263.216 44,264.5C 48.9588,270.465 54.7921,275.298 61.5,279C 63.607,280.264 64.607,282.097 64.5,284.5C 65.8333,284.5 67.1667,284.5 68.5,284.5C 68.5,285.5 68.5,286.5 68.5,287.5C 73.085,287.396 77.4184,288.396 81.5,290.5C 82.3142,292.766 82.8142,295.1 83,297.5C 87.2741,302.562 92.1074,307.062 97.5,311C 109.332,318.084 121.666,324.417 134.5,330C 146.422,332.526 157.422,330.36 167.5,323.5C 169.266,324.091 170.933,324.924 172.5,326C 179.492,326.5 186.492,326.666 193.5,326.5C 203.518,325.475 213.518,325.475 223.5,326.5C 225.578,327.101 227.745,327.434 230,327.5C 234.023,327.143 237.69,325.809 241,323.5C 242.789,324.409 244.623,324.576 246.5,324C 252.49,318.35 258.824,313.017 265.5,308C 280.121,300.028 292.788,289.695 303.5,277C 305.74,276.023 308.073,275.523 310.5,275.5C 310.338,273.473 310.505,271.473 311,269.5C 312.751,267.51 313.751,265.177 314,262.5C 319.962,251.938 325.629,241.272 331,230.5C 331.473,235.622 330.806,240.622 329,245.5C 323.735,253.695 319.235,262.362 315.5,271.5C 315.624,272.107 315.957,272.44 316.5,272.5 Z"/></g>
<g><path style="opacity:0.996" fill="#692d29" d="M 248.5,269.5 C 255.777,270.43 263.11,270.764 270.5,270.5C 263.679,271.655 256.679,271.821 249.5,271C 248.944,270.617 248.611,270.117 248.5,269.5 Z"/></g>
<g><path style="opacity:0.996" fill="#574947" d="M 125.5,265.5 C 126.167,265.833 126.833,266.167 127.5,266.5C 129.019,269.021 130.686,271.521 132.5,274C 134.463,274.844 135.796,274.344 136.5,272.5C 137.167,271.833 137.833,271.167 138.5,270.5C 138.061,280.205 134.894,281.538 129,274.5C 127.047,271.745 125.88,268.745 125.5,265.5 Z"/></g>
<g><path style="opacity:0.376" fill="#878787" d="M 55.5,288.5 C 57.0269,288.427 58.0269,289.094 58.5,290.5C 56.9731,290.573 55.9731,289.906 55.5,288.5 Z"/></g>
<g><path style="opacity:0.235" fill="#9c9c9c" d="M 61.5,292.5 C 63.797,293.835 65.797,295.668 67.5,298C 68.7932,298.49 70.1266,298.657 71.5,298.5C 71.5,299.833 71.5,301.167 71.5,302.5C 74.5533,302.111 77.22,302.777 79.5,304.5C 76.4552,304.492 73.4552,304.159 70.5,303.5C 70.5,302.5 70.5,301.5 70.5,300.5C 66.3228,299.332 63.3228,296.665 61.5,292.5 Z"/></g>
<g><path style="opacity:0.871" fill="#414141" d="M 71.5,298.5 C 72.404,299.209 72.7373,300.209 72.5,301.5C 76.6474,301.126 80.3141,302.126 83.5,304.5C 82.8333,304.5 82.1667,304.5 81.5,304.5C 80.8333,304.5 80.1667,304.5 79.5,304.5C 77.22,302.777 74.5533,302.111 71.5,302.5C 71.5,301.167 71.5,299.833 71.5,298.5 Z"/></g>
<g><path style="opacity:0.035" fill="#828282" d="M 314.5,276.5 C 311.529,281.278 309.529,286.444 308.5,292C 306.553,291.464 304.553,291.798 302.5,293C 289.211,307.144 274.211,319.144 257.5,329C 253.283,333.222 248.783,337.055 244,340.5C 242.527,340.097 241.194,339.43 240,338.5C 238.89,340.037 237.39,340.703 235.5,340.5C 236.401,338.611 237.901,337.278 240,336.5C 242.12,337.459 244.287,337.626 246.5,337C 251.793,332.343 257.126,327.677 262.5,323C 277.23,314.947 290.23,304.613 301.5,292C 303.436,291.187 305.436,290.687 307.5,290.5C 307.228,284.376 309.561,279.71 314.5,276.5 Z"/></g>
<g><path style="opacity:0.337" fill="#888888" d="M 81.5,304.5 C 82.1667,304.5 82.8333,304.5 83.5,304.5C 84.1516,309.469 86.1516,313.802 89.5,317.5C 87.2598,316.432 85.4264,314.766 84,312.5C 83.16,309.798 82.3267,307.132 81.5,304.5 Z"/></g>
<g><path style="opacity:0.624" fill="#797979" d="M 89.5,317.5 C 91.5,317.5 92.5,318.5 92.5,320.5C 90.8564,320.19 89.8564,319.19 89.5,317.5 Z"/></g>
<g><path style="opacity:0.267" fill="#828282" d="M 92.5,320.5 C 96.5416,321.851 99.8749,324.185 102.5,327.5C 98.8084,325.656 95.4751,323.323 92.5,320.5 Z"/></g>
<g><path style="opacity:0.996" fill="#353432" d="M 223.5,326.5 C 213.518,325.475 203.518,325.475 193.5,326.5C 202.606,324.565 211.94,324.065 221.5,325C 222.416,325.278 223.082,325.778 223.5,326.5 Z"/></g>
<g><path style="opacity:0.624" fill="#707070" d="M 104.5,328.5 C 110.716,330.564 116.382,333.564 121.5,337.5C 115.084,335.711 109.417,332.711 104.5,328.5 Z"/></g>
<g><path style="opacity:0.62" fill="#727272" d="M 220.5,339.5 C 213.646,339.176 206.979,339.509 200.5,340.5C 189.597,342.11 178.763,341.777 168,339.5C 164.326,340.587 160.826,342.087 157.5,344C 153.273,344.744 149.106,345.578 145,346.5C 140.961,345.944 137.128,344.944 133.5,343.5C 139.159,344.2 144.825,344.366 150.5,344C 156.734,342.795 162.567,340.628 168,337.5C 173.213,338.988 178.547,339.654 184,339.5C 196.332,338.423 208.499,338.423 220.5,339.5 Z"/></g>
<g><path style="opacity:0.039" fill="#ababab" d="M 200.5,340.5 C 206.979,339.509 213.646,339.176 220.5,339.5C 225.453,340.329 230.453,340.663 235.5,340.5C 234.376,341.809 232.876,342.475 231,342.5C 220.913,340.761 210.747,340.094 200.5,340.5 Z"/></g>
<g><path style="opacity:0.027" fill="#777777" d="M 121.5,337.5 C 126.184,338.196 130.184,340.196 133.5,343.5C 129.123,342.054 125.123,340.054 121.5,337.5 Z"/></g>
</svg>
