<?xml version="1.0" encoding="UTF-8"?>
<!DOCTYPE svg PUBLIC "-//W3C//DTD SVG 1.1//EN" "http://www.w3.org/Graphics/SVG/1.1/DTD/svg11.dtd">
<svg xmlns="http://www.w3.org/2000/svg" version="1.1" width="462px" height="457px" style="shape-rendering:geometricPrecision; text-rendering:geometricPrecision; image-rendering:optimizeQuality; fill-rule:evenodd; clip-rule:evenodd" xmlns:xlink="http://www.w3.org/1999/xlink">
<g><path style="opacity:0.996" fill="#97948e" d="M 312.5,62.5 C 312.833,62.5 313.167,62.5 313.5,62.5C 314.574,63.8846 315.907,65.0513 317.5,66C 325.735,69.9491 333.735,74.1157 341.5,78.5C 348.667,82.1567 354.833,87.1567 360,93.5C 361.609,97.0615 362.775,100.728 363.5,104.5C 364.122,106.335 365.456,107.502 367.5,108C 370.833,108.333 374.167,108.667 377.5,109C 378.38,110.356 378.714,111.856 378.5,113.5C 381.188,113.166 383.521,113.832 385.5,115.5C 385.771,117.312 386.438,118.978 387.5,120.5C 397.035,125.373 405.035,132.039 411.5,140.5C 411.081,141.672 410.415,142.672 409.5,143.5C 412.769,144.779 415.436,146.779 417.5,149.5C 417.336,152.187 417.503,154.854 418,157.5C 419.964,162.317 421.298,167.317 422,172.5C 422.383,173.056 422.883,173.389 423.5,173.5C 424.151,187.489 424.651,201.489 425,215.5C 425.687,219.58 426.687,223.58 428,227.5C 428.417,228.756 429.25,229.423 430.5,229.5C 432.25,230.659 433.25,232.326 433.5,234.5C 435.086,237.937 436.086,241.604 436.5,245.5C 436.333,246.833 436.167,248.167 436,249.5C 434.423,251.076 433.256,252.909 432.5,255C 432.57,255.765 432.903,256.265 433.5,256.5C 437.095,257.905 437.262,259.572 434,261.5C 433.502,264.817 433.335,268.15 433.5,271.5C 431.881,276.874 430.547,282.54 429.5,288.5C 429.666,293.511 429.499,298.511 429,303.5C 428.295,306.476 427.129,309.142 425.5,311.5C 425.676,308.273 426.343,305.273 427.5,302.5C 428.806,299.313 428.806,295.98 427.5,292.5C 426.295,293.577 425.628,294.91 425.5,296.5C 417.348,312.136 409.182,327.802 401,343.5C 400.503,346.146 400.336,348.813 400.5,351.5C 397.393,351.351 394.393,351.851 391.5,353C 377.159,369.504 360.492,383.17 341.5,394C 332.891,399.943 324.891,406.61 317.5,414C 314.356,414.952 311.856,414.119 310,411.5C 302.749,419.166 294.249,420.666 284.5,416C 272.486,415.358 260.486,415.524 248.5,416.5C 239.148,416.566 229.815,416.232 220.5,415.5C 216.163,412.609 212.163,413.109 208.5,417C 202.94,419.279 197.274,421.279 191.5,423C 184.332,423.988 177.332,423.322 170.5,421C 151.623,413.231 133.956,403.397 117.5,391.5C 114.209,388.711 111.042,385.711 108,382.5C 106.011,378.747 105.178,374.747 105.5,370.5C 100.085,368.284 94.4182,367.117 88.5,367C 87.6198,365.644 87.2865,364.144 87.5,362.5C 85.8008,362.66 84.1341,362.494 82.5,362C 81.3241,359.314 79.6575,356.981 77.5,355C 69.1317,350.465 61.7984,344.631 55.5,337.5C 54.3192,335.865 54.3192,334.198 55.5,332.5C 52.8277,330.66 50.661,328.327 49,325.5C 49.3535,332.611 50.6869,339.611 53,346.5C 54.7455,348.749 56.9121,350.416 59.5,351.5C 58.5153,353.098 58.3486,354.765 59,356.5C 63.037,360.369 66.8704,364.369 70.5,368.5C 65.5425,365.044 61.0425,361.044 57,356.5C 56.2797,354.888 56.4464,353.388 57.5,352C 52.6808,349.254 49.8475,345.087 49,339.5C 47.8924,335.914 47.3924,332.247 47.5,328.5C 46.3815,318.836 45.2148,309.169 44,299.5C 43.1553,297.389 42.322,295.389 41.5,293.5C 41.5,293.167 41.5,292.833 41.5,292.5C 41.6663,285.159 41.4997,277.826 41,270.5C 40.5899,269.099 40.0899,267.766 39.5,266.5C 40.7479,265.666 41.4146,264.333 41.5,262.5C 40.8065,257.393 39.6398,252.393 38,247.5C 37.3109,246.643 36.4776,245.977 35.5,245.5C 33.534,248.549 33.034,251.882 34,255.5C 36.0623,258.723 37.8956,262.057 39.5,265.5C 38.8333,265.5 38.1667,265.5 37.5,265.5C 32.473,258.875 31.1397,251.709 33.5,244C 32.5819,241.914 31.9153,239.747 31.5,237.5C 29.6659,231.17 30.6659,225.337 34.5,220C 34.1639,218.97 33.4972,218.47 32.5,218.5C 32.3893,217.883 32.056,217.383 31.5,217C 33.8326,215 35.3326,212.5 36,209.5C 36.3333,202.5 36.6667,195.5 37,188.5C 41.3333,180.167 45.6667,171.833 50,163.5C 51.4301,160.647 52.2634,157.647 52.5,154.5C 58.0653,147.053 62.8986,139.053 67,130.5C 67.4955,128.527 67.6621,126.527 67.5,124.5C 71.2604,125.226 73.927,123.893 75.5,120.5C 80.2361,114.258 85.5694,108.424 91.5,103C 107.658,91.6689 123.658,80.1689 139.5,68.5C 143.472,67.0508 146.806,64.5508 149.5,61C 152.18,60.6652 154.513,61.4986 156.5,63.5C 158.316,62.1851 159.983,60.6851 161.5,59C 173.01,59.0002 184.51,59.5002 196,60.5C 202.014,60.3884 208.014,60.0551 214,59.5C 215.986,59.4313 217.486,58.7647 218.5,57.5C 229.512,56.8252 240.345,57.8252 251,60.5C 254.286,59.3632 257.452,58.0298 260.5,56.5C 265.481,56.4479 270.148,55.2812 274.5,53C 278.5,52.3333 282.5,52.3333 286.5,53C 295.246,55.8566 303.913,59.0233 312.5,62.5 Z"/></g>
<g><path style="opacity:0.29" fill="#c9c7c4" d="M 312.5,62.5 C 303.913,59.0233 295.246,55.8566 286.5,53C 282.5,52.3333 278.5,52.3333 274.5,53C 270.148,55.2812 265.481,56.4479 260.5,56.5C 269.87,51.8664 279.87,50.3664 290.5,52C 298.289,54.7295 305.622,58.2295 312.5,62.5 Z"/></g>
<g><path style="opacity:0.078" fill="#c9c7c4" d="M 218.5,57.5 C 217.486,58.7647 215.986,59.4313 214,59.5C 208.014,60.0551 202.014,60.3884 196,60.5C 184.51,59.5002 173.01,59.0002 161.5,59C 159.983,60.6851 158.316,62.1851 156.5,63.5C 154.513,61.4986 152.18,60.6652 149.5,61C 146.806,64.5508 143.472,67.0508 139.5,68.5C 142.3,65.8643 144.967,63.0309 147.5,60C 150.792,59.0643 153.792,59.5643 156.5,61.5C 158.451,59.3776 160.785,57.8776 163.5,57C 174.494,57.6294 185.494,58.4627 196.5,59.5C 203.951,59.5532 211.284,58.8865 218.5,57.5 Z"/></g>
<g><path style="opacity:0.298" fill="#cecdcb" d="M 313.5,62.5 C 323.635,66.5345 332.969,71.8678 341.5,78.5C 333.735,74.1157 325.735,69.9491 317.5,66C 315.907,65.0513 314.574,63.8846 313.5,62.5 Z"/></g>
<g><path style="opacity:0.159" fill="#cccbc7" d="M 363.5,104.5 C 368.331,106.234 373.331,107.401 378.5,108C 379.337,109.011 379.67,110.178 379.5,111.5C 383.241,110.599 385.241,111.932 385.5,115.5C 383.521,113.832 381.188,113.166 378.5,113.5C 378.714,111.856 378.38,110.356 377.5,109C 374.167,108.667 370.833,108.333 367.5,108C 365.456,107.502 364.122,106.335 363.5,104.5 Z"/></g>
<g><path style="opacity:0.996" fill="#be2a1b" d="M 221.5,129.5 C 216.895,133.602 212.395,137.936 208,142.5C 199.729,153.275 190.895,163.608 181.5,173.5C 183.045,174.452 184.712,174.785 186.5,174.5C 193.405,174.793 200.072,174.126 206.5,172.5C 211.887,170.707 217.553,169.707 223.5,169.5C 229.212,169.224 234.545,167.89 239.5,165.5C 250.92,162.645 262.253,159.478 273.5,156C 276.833,155.333 280.167,155.333 283.5,156C 292.935,158.777 301.435,163.277 309,169.5C 309.494,171.134 309.66,172.801 309.5,174.5C 308.185,175.476 306.852,176.476 305.5,177.5C 302.99,181.518 301.323,185.852 300.5,190.5C 298.04,198.52 297.04,206.854 297.5,215.5C 295.622,222.268 294.289,229.268 293.5,236.5C 293.5,236.833 293.5,237.167 293.5,237.5C 290.501,251.567 284.167,264.067 274.5,275C 271.833,277 269.167,279 266.5,281C 264.527,281.495 262.527,281.662 260.5,281.5C 258.63,271.765 254.63,263.098 248.5,255.5C 246.764,252.54 247.597,250.874 251,250.5C 255.392,253.473 260.226,254.64 265.5,254C 267.7,251.766 269.533,249.266 271,246.5C 273.325,240.183 275.158,233.85 276.5,227.5C 278.225,222.777 279.225,217.777 279.5,212.5C 280.64,201.008 280.64,189.675 279.5,178.5C 279.608,176.486 278.942,174.82 277.5,173.5C 277.389,172.883 277.056,172.383 276.5,172C 269.582,171.071 262.915,171.571 256.5,173.5C 240.838,175.161 225.505,177.828 210.5,181.5C 207.273,181.676 204.273,182.343 201.5,183.5C 196.797,183.563 192.13,183.229 187.5,182.5C 184.533,182.011 181.867,180.845 179.5,179C 178.167,178.333 176.833,178.333 175.5,179C 166.478,187.163 156.812,194.33 146.5,200.5C 142.561,200.822 141.728,199.489 144,196.5C 165.173,175.816 182.173,152.149 195,125.5C 195.315,120.162 195.148,114.828 194.5,109.5C 198.273,109.263 201.94,109.763 205.5,111C 210.422,114.378 215.255,117.878 220,121.5C 221.252,124.014 221.752,126.68 221.5,129.5 Z"/></g>
<g><path style="opacity:0.376" fill="#c8c6c2" d="M 75.5,120.5 C 73.927,123.893 71.2604,125.226 67.5,124.5C 67.6621,126.527 67.4955,128.527 67,130.5C 62.8986,139.053 58.0653,147.053 52.5,154.5C 55.7046,147.761 59.2046,141.094 63,134.5C 65.0357,130.942 65.869,127.275 65.5,123.5C 69.0228,122.865 72.3561,121.865 75.5,120.5 Z"/></g>
<g><path style="opacity:0.996" fill="#4a3d39" d="M 221.5,129.5 C 221.662,131.527 221.495,133.527 221,135.5C 209.191,147.132 198.358,159.465 188.5,172.5C 187.5,172.833 186.833,173.5 186.5,174.5C 184.712,174.785 183.045,174.452 181.5,173.5C 190.895,163.608 199.729,153.275 208,142.5C 212.395,137.936 216.895,133.602 221.5,129.5 Z"/></g>
<g><path style="opacity:0.084" fill="#cecdca" d="M 385.5,115.5 C 394.948,121.991 403.782,129.324 412,137.5C 413.495,139.11 413.661,140.776 412.5,142.5C 415.39,144.043 417.057,146.376 417.5,149.5C 415.436,146.779 412.769,144.779 409.5,143.5C 410.415,142.672 411.081,141.672 411.5,140.5C 405.035,132.039 397.035,125.373 387.5,120.5C 386.438,118.978 385.771,117.312 385.5,115.5 Z"/></g>
<g><path style="opacity:0.435" fill="#c7c5c2" d="M 417.5,149.5 C 420.879,157.03 422.879,165.03 423.5,173.5C 422.883,173.389 422.383,173.056 422,172.5C 421.298,167.317 419.964,162.317 418,157.5C 417.503,154.854 417.336,152.187 417.5,149.5 Z"/></g>
<g><path style="opacity:0.996" fill="#9c4836" d="M 239.5,165.5 C 234.545,167.89 229.212,169.224 223.5,169.5C 228.587,167.712 233.92,166.379 239.5,165.5 Z"/></g>
<g><path style="opacity:0.996" fill="#6f3023" d="M 277.5,173.5 C 270.542,172.625 263.542,172.625 256.5,173.5C 262.915,171.571 269.582,171.071 276.5,172C 277.056,172.383 277.389,172.883 277.5,173.5 Z"/></g>
<g><path style="opacity:0.996" fill="#45403e" d="M 277.5,173.5 C 278.942,174.82 279.608,176.486 279.5,178.5C 279.633,181.925 278.967,182.258 277.5,179.5C 269.201,178.712 260.868,178.879 252.5,180C 233.353,183.449 214.186,186.616 195,189.5C 192.833,189.333 190.667,189.167 188.5,189C 183.419,185.738 178.086,185.071 172.5,187C 164.471,196.105 154.805,202.105 143.5,205C 144.386,203.385 145.386,201.885 146.5,200.5C 156.812,194.33 166.478,187.163 175.5,179C 176.833,178.333 178.167,178.333 179.5,179C 181.867,180.845 184.533,182.011 187.5,182.5C 190.017,183.973 192.85,184.64 196,184.5C 198.033,184.494 199.866,184.161 201.5,183.5C 204.273,182.343 207.273,181.676 210.5,181.5C 226.046,179.465 241.38,176.799 256.5,173.5C 263.542,172.625 270.542,172.625 277.5,173.5 Z"/></g>
<g><path style="opacity:0.996" fill="#966759" d="M 188.5,172.5 C 194.325,173.206 200.325,173.206 206.5,172.5C 200.072,174.126 193.405,174.793 186.5,174.5C 186.833,173.5 187.5,172.833 188.5,172.5 Z"/></g>
<g><path style="opacity:0.996" fill="#5b3429" d="M 256.5,173.5 C 241.38,176.799 226.046,179.465 210.5,181.5C 225.505,177.828 240.838,175.161 256.5,173.5 Z"/></g>
<g><path style="opacity:0.996" fill="#4c3f3a" d="M 309.5,174.5 C 310.464,178.811 308.964,181.811 305,183.5C 303.974,186.239 302.474,188.572 300.5,190.5C 301.323,185.852 302.99,181.518 305.5,177.5C 306.852,176.476 308.185,175.476 309.5,174.5 Z"/></g>
<g><path style="opacity:0.996" fill="#683026" d="M 187.5,182.5 C 192.13,183.229 196.797,183.563 201.5,183.5C 199.866,184.161 198.033,184.494 196,184.5C 192.85,184.64 190.017,183.973 187.5,182.5 Z"/></g>
<g><path style="opacity:0.996" fill="#8d756a" d="M 279.5,178.5 C 280.64,189.675 280.64,201.008 279.5,212.5C 279.167,212.5 278.833,212.5 278.5,212.5C 278.74,201.469 278.407,190.469 277.5,179.5C 278.967,182.258 279.633,181.925 279.5,178.5 Z"/></g>
<g><path style="opacity:0.984" fill="#c4c1be" d="M 52.5,154.5 C 52.2634,157.647 51.4301,160.647 50,163.5C 45.6667,171.833 41.3333,180.167 37,188.5C 36.6667,195.5 36.3333,202.5 36,209.5C 35.3326,212.5 33.8326,215 31.5,217C 32.056,217.383 32.3893,217.883 32.5,218.5C 31.5028,218.53 30.8361,218.03 30.5,217C 31.3169,215.51 32.1502,214.01 33,212.5C 32.9186,203.679 33.9186,195.012 36,186.5C 41.2895,175.584 46.7895,164.917 52.5,154.5 Z"/></g>
<g><path style="opacity:0.454" fill="#d1cfcd" d="M 423.5,173.5 C 425.36,188.287 426.527,203.287 427,218.5C 428.174,222.178 429.341,225.844 430.5,229.5C 429.25,229.423 428.417,228.756 428,227.5C 426.687,223.58 425.687,219.58 425,215.5C 424.651,201.489 424.151,187.489 423.5,173.5 Z"/></g>
<g><path style="opacity:0.996" fill="#bf2a1a" d="M 241.5,219.5 C 237.968,220.854 234.802,222.854 232,225.5C 228.753,229.659 225.753,233.992 223,238.5C 222.19,242.358 222.357,246.024 223.5,249.5C 224.622,250.947 226.122,251.947 228,252.5C 228.64,254.543 228.14,256.21 226.5,257.5C 212.157,258.356 198.157,260.69 184.5,264.5C 179.5,264.5 174.5,264.5 169.5,264.5C 169.177,270.69 169.51,276.69 170.5,282.5C 170.035,294.034 173.368,304.201 180.5,313C 190.485,319.423 201.485,323.256 213.5,324.5C 218.598,325.957 223.931,326.624 229.5,326.5C 258.67,328.569 287.67,326.403 316.5,320C 322.515,317.321 328.015,313.821 333,309.5C 337.237,303.26 340.404,296.593 342.5,289.5C 343.315,288.571 344.148,287.571 345,286.5C 345.832,280.004 347.332,273.671 349.5,267.5C 350.645,275.787 351.978,283.787 353.5,291.5C 355.247,299.053 357.081,306.719 359,314.5C 359.498,317.482 359.665,320.482 359.5,323.5C 355.032,328.28 349.699,331.947 343.5,334.5C 334.873,336.71 326.206,338.71 317.5,340.5C 284.908,343.747 252.241,344.414 219.5,342.5C 183.783,340.445 163.449,321.778 158.5,286.5C 158.5,284.5 158.5,282.5 158.5,280.5C 158.667,261.83 158.5,243.164 158,224.5C 157.339,221.198 156.172,218.198 154.5,215.5C 153.699,213.958 153.366,212.292 153.5,210.5C 159.818,209.664 165.485,211.164 170.5,215C 172.5,215.167 174.5,215.333 176.5,215.5C 189.956,213.512 202.956,210.012 215.5,205C 225.589,204.378 234.589,207.211 242.5,213.5C 243.77,215.757 243.436,217.757 241.5,219.5 Z"/></g>
<g><path style="opacity:0.996" fill="#443c39" d="M 212.5,224.5 C 203.188,222.859 194.188,224.026 185.5,228C 181.514,228.499 177.514,228.666 173.5,228.5C 173.5,226.5 173.5,224.5 173.5,222.5C 177.182,222.665 180.848,222.499 184.5,222C 192.875,218.715 201.541,217.382 210.5,218C 212.229,219.789 212.896,221.956 212.5,224.5 Z"/></g>
<g><path style="opacity:0.996" fill="#4b3d39" d="M 241.5,219.5 C 243.082,223.788 241.415,226.288 236.5,227C 229.162,232.853 224.828,240.353 223.5,249.5C 222.357,246.024 222.19,242.358 223,238.5C 225.753,233.992 228.753,229.659 232,225.5C 234.802,222.854 237.968,220.854 241.5,219.5 Z"/></g>
<g><path style="opacity:0.996" fill="#96908a" d="M 212.5,224.5 C 211.457,230.529 209.957,236.529 208,242.5C 204.485,248.348 199.319,251.848 192.5,253C 188.886,253.936 185.22,254.436 181.5,254.5C 178.193,255.051 174.86,255.384 171.5,255.5C 171.5,252.833 171.5,250.167 171.5,247.5C 171.154,240.958 171.821,234.624 173.5,228.5C 177.514,228.666 181.514,228.499 185.5,228C 194.188,224.026 203.188,222.859 212.5,224.5 Z"/></g>
<g><path style="opacity:0.996" fill="#a34534" d="M 278.5,212.5 C 278.833,212.5 279.167,212.5 279.5,212.5C 279.225,217.777 278.225,222.777 276.5,227.5C 277.085,222.485 277.752,217.485 278.5,212.5 Z"/></g>
<g><path style="opacity:0.996" fill="#7b493a" d="M 297.5,215.5 C 297.547,222.904 296.214,229.904 293.5,236.5C 294.289,229.268 295.622,222.268 297.5,215.5 Z"/></g>
<g><path style="opacity:0.263" fill="#cdcbc8" d="M 32.5,218.5 C 33.4972,218.47 34.1639,218.97 34.5,220C 30.6659,225.337 29.6659,231.17 31.5,237.5C 27.3026,231.341 27.9693,225.507 33.5,220C 32.944,219.617 32.6107,219.117 32.5,218.5 Z"/></g>
<g><path style="opacity:0.996" fill="#815b4d" d="M 154.5,215.5 C 156.172,218.198 157.339,221.198 158,224.5C 158.5,243.164 158.667,261.83 158.5,280.5C 157.668,263.338 157.168,246.005 157,228.5C 155.369,224.312 154.536,219.979 154.5,215.5 Z"/></g>
<g><path style="opacity:0.051" fill="#dcdcd9" d="M 433.5,234.5 C 437.315,239.077 438.481,244.41 437,250.5C 435.579,252.405 434.412,254.405 433.5,256.5C 432.903,256.265 432.57,255.765 432.5,255C 433.256,252.909 434.423,251.076 436,249.5C 436.167,248.167 436.333,246.833 436.5,245.5C 436.086,241.604 435.086,237.937 433.5,234.5 Z"/></g>
<g><path style="opacity:0.994" fill="#181817" d="M 39.5,266.5 C 39.5,266.167 39.5,265.833 39.5,265.5C 37.8956,262.057 36.0623,258.723 34,255.5C 33.034,251.882 33.534,248.549 35.5,245.5C 36.4776,245.977 37.3109,246.643 38,247.5C 39.6398,252.393 40.8065,257.393 41.5,262.5C 41.4146,264.333 40.7479,265.666 39.5,266.5 Z"/></g>
<g><path style="opacity:0.996" fill="#8d5440" d="M 171.5,247.5 C 171.5,250.167 171.5,252.833 171.5,255.5C 174.86,255.384 178.193,255.051 181.5,254.5C 178.155,256.217 174.489,256.884 170.5,256.5C 170.19,253.287 170.523,250.287 171.5,247.5 Z"/></g>
<g><path style="opacity:0.996" fill="#443d3a" d="M 226.5,257.5 C 227.807,259.223 227.807,261.057 226.5,263C 212.755,263.955 199.422,266.622 186.5,271C 181.177,271.499 175.844,271.666 170.5,271.5C 170.5,269.5 170.5,267.5 170.5,265.5C 175.363,265.819 180.03,265.486 184.5,264.5C 198.157,260.69 212.157,258.356 226.5,257.5 Z"/></g>
<g><path style="opacity:0.996" fill="#8e3224" d="M 184.5,264.5 C 180.03,265.486 175.363,265.819 170.5,265.5C 170.5,267.5 170.5,269.5 170.5,271.5C 170.5,275.167 170.5,278.833 170.5,282.5C 169.51,276.69 169.177,270.69 169.5,264.5C 174.5,264.5 179.5,264.5 184.5,264.5 Z"/></g>
<g><path style="opacity:0.996" fill="#4b3f3b" d="M 293.5,237.5 C 291.98,259.546 281.98,276.546 263.5,288.5C 262.558,288.392 261.725,288.059 261,287.5C 258.3,277.662 253.967,268.662 248,260.5C 247.616,258.803 247.782,257.137 248.5,255.5C 254.63,263.098 258.63,271.765 260.5,281.5C 262.527,281.662 264.527,281.495 266.5,281C 269.167,279 271.833,277 274.5,275C 284.167,264.067 290.501,251.567 293.5,237.5 Z"/></g>
<g><path style="opacity:0.073" fill="#dedcdb" d="M 37.5,265.5 C 38.1667,265.5 38.8333,265.5 39.5,265.5C 39.5,265.833 39.5,266.167 39.5,266.5C 40.0899,267.766 40.5899,269.099 41,270.5C 41.4997,277.826 41.6663,285.159 41.5,292.5C 40.6715,285.679 40.1715,278.679 40,271.5C 39.4275,269.359 38.5942,267.359 37.5,265.5 Z"/></g>
<g><path style="opacity:0.078" fill="#dddcd9" d="M 433.5,271.5 C 432.728,275.75 432.228,280.083 432,284.5C 431.392,286.066 430.558,287.4 429.5,288.5C 430.547,282.54 431.881,276.874 433.5,271.5 Z"/></g>
<g><path style="opacity:0.996" fill="#ab3725" d="M 353.5,291.5 C 351.978,283.787 350.645,275.787 349.5,267.5C 347.332,273.671 345.832,280.004 345,286.5C 344.148,287.571 343.315,288.571 342.5,289.5C 343.696,281.719 345.362,274.052 347.5,266.5C 349.144,266.286 350.644,266.62 352,267.5C 352.442,275.51 352.942,283.51 353.5,291.5 Z"/></g>
<g><path style="opacity:0.441" fill="#484847" d="M 427.5,302.5 C 427.663,300.143 427.497,297.81 427,295.5C 426.617,296.056 426.117,296.389 425.5,296.5C 425.628,294.91 426.295,293.577 427.5,292.5C 428.806,295.98 428.806,299.313 427.5,302.5 Z"/></g>
<g><path style="opacity:0.996" fill="#080807" d="M 427.5,302.5 C 426.343,305.273 425.676,308.273 425.5,311.5C 425.5,311.833 425.5,312.167 425.5,312.5C 424.325,312.281 423.325,312.614 422.5,313.5C 420.617,317.824 418.951,322.158 417.5,326.5C 415.554,327.035 414.554,328.368 414.5,330.5C 413.123,334.92 410.956,338.92 408,342.5C 406.864,345.096 406.031,347.763 405.5,350.5C 402.097,354.369 399.43,358.703 397.5,363.5C 396.532,365.607 396.198,367.941 396.5,370.5C 393.518,370.104 390.851,370.771 388.5,372.5C 381.806,379.86 374.806,386.86 367.5,393.5C 358.182,399.502 349.182,405.835 340.5,412.5C 331.794,418.03 323.794,424.53 316.5,432C 313.695,432.442 311.028,431.942 308.5,430.5C 305.527,433.616 301.86,435.616 297.5,436.5C 291.336,435.758 285.336,434.758 279.5,433.5C 272.011,432.344 264.345,432.178 256.5,433C 255.944,433.383 255.611,433.883 255.5,434.5C 245.519,435.499 235.519,435.666 225.5,435C 222.209,434.016 219.043,432.849 216,431.5C 208.144,435.34 199.977,438.507 191.5,441C 186.139,441.609 180.805,441.442 175.5,440.5C 165.871,436.403 156.537,431.57 147.5,426C 144.252,424.54 140.919,423.374 137.5,422.5C 134.063,419.925 130.729,417.091 127.5,414C 124.91,412.555 122.243,411.388 119.5,410.5C 115.917,406.738 112.417,402.738 109,398.5C 108.111,395.313 107.278,392.147 106.5,389C 101.643,387.292 96.6432,386.125 91.5,385.5C 90.9851,383.775 90.3184,382.108 89.5,380.5C 88.7065,380.931 87.8732,381.265 87,381.5C 84.0535,377.925 80.8869,374.592 77.5,371.5C 75.2612,370.212 72.9279,369.212 70.5,368.5C 66.8704,364.369 63.037,360.369 59,356.5C 58.3486,354.765 58.5153,353.098 59.5,351.5C 56.9121,350.416 54.7455,348.749 53,346.5C 50.6869,339.611 49.3535,332.611 49,325.5C 50.661,328.327 52.8277,330.66 55.5,332.5C 54.3192,334.198 54.3192,335.865 55.5,337.5C 61.7984,344.631 69.1317,350.465 77.5,355C 79.6575,356.981 81.3241,359.314 82.5,362C 84.1341,362.494 85.8008,362.66 87.5,362.5C 87.2865,364.144 87.6198,365.644 88.5,367C 94.4182,367.117 100.085,368.284 105.5,370.5C 105.178,374.747 106.011,378.747 108,382.5C 111.042,385.711 114.209,388.711 117.5,391.5C 133.956,403.397 151.623,413.231 170.5,421C 177.332,423.322 184.332,423.988 191.5,423C 197.274,421.279 202.94,419.279 208.5,417C 212.163,413.109 216.163,412.609 220.5,415.5C 225.925,416.984 231.591,417.651 237.5,417.5C 241.349,417.499 245.016,417.165 248.5,416.5C 260.486,415.524 272.486,415.358 284.5,416C 294.249,420.666 302.749,419.166 310,411.5C 311.856,414.119 314.356,414.952 317.5,414C 324.891,406.61 332.891,399.943 341.5,394C 360.492,383.17 377.159,369.504 391.5,353C 394.393,351.851 397.393,351.351 400.5,351.5C 400.336,348.813 400.503,346.146 401,343.5C 409.182,327.802 417.348,312.136 425.5,296.5C 426.117,296.389 426.617,296.056 427,295.5C 427.497,297.81 427.663,300.143 427.5,302.5 Z"/></g>
<g><path style="opacity:0.282" fill="#d6d5d3" d="M 41.5,293.5 C 42.322,295.389 43.1553,297.389 44,299.5C 45.2148,309.169 46.3815,318.836 47.5,328.5C 44.652,317.112 42.652,305.446 41.5,293.5 Z"/></g>
<g><path style="opacity:0.016" fill="#9b9b9b" d="M 425.5,312.5 C 423.336,317.5 420.669,322.167 417.5,326.5C 418.951,322.158 420.617,317.824 422.5,313.5C 423.325,312.614 424.325,312.281 425.5,312.5 Z"/></g>
<g><path style="opacity:0.996" fill="#443e3c" d="M 158.5,286.5 C 163.449,321.778 183.783,340.445 219.5,342.5C 252.061,346.628 284.728,346.295 317.5,341.5C 326.694,340.703 335.361,338.37 343.5,334.5C 349.699,331.947 355.032,328.28 359.5,323.5C 359.752,326.32 359.252,328.986 358,331.5C 355.833,333 354,334.833 352.5,337C 331.657,343.937 310.324,348.437 288.5,350.5C 269.149,350.741 249.815,350.408 230.5,349.5C 212.659,349.041 195.992,344.541 180.5,336C 173.336,329.792 167.503,322.626 163,314.5C 160.335,305.347 158.835,296.014 158.5,286.5 Z"/></g>
<g><path style="opacity:0.996" fill="#916655" d="M 213.5,324.5 C 219.069,324.376 224.402,325.043 229.5,326.5C 223.931,326.624 218.598,325.957 213.5,324.5 Z"/></g>
<g><path style="opacity:0.588" fill="#767676" d="M 417.5,326.5 C 417.737,327.791 417.404,328.791 416.5,329.5C 415.833,329.833 415.167,330.167 414.5,330.5C 414.554,328.368 415.554,327.035 417.5,326.5 Z"/></g>
<g><path style="opacity:0.016" fill="#b4b4b4" d="M 416.5,329.5 C 413.194,336.774 409.528,343.774 405.5,350.5C 406.031,347.763 406.864,345.096 408,342.5C 410.956,338.92 413.123,334.92 414.5,330.5C 415.167,330.167 415.833,329.833 416.5,329.5 Z"/></g>
<g><path style="opacity:0.996" fill="#5d3428" d="M 343.5,334.5 C 335.361,338.37 326.694,340.703 317.5,341.5C 317.5,341.167 317.5,340.833 317.5,340.5C 326.206,338.71 334.873,336.71 343.5,334.5 Z"/></g>
<g><path style="opacity:0.996" fill="#9f2a19" d="M 317.5,340.5 C 317.5,340.833 317.5,341.167 317.5,341.5C 284.728,346.295 252.061,346.628 219.5,342.5C 252.241,344.414 284.908,343.747 317.5,340.5 Z"/></g>
<g><path style="opacity:0.996" fill="#646360" d="M 230.5,349.5 C 249.815,350.408 269.149,350.741 288.5,350.5C 271.338,351.662 254.005,351.829 236.5,351C 234.292,350.809 232.292,350.309 230.5,349.5 Z"/></g>
<g><path style="opacity:0.055" fill="#c6c6c6" d="M 405.5,350.5 C 403.641,355.223 401.474,359.89 399,364.5C 398.503,367.146 398.336,369.813 398.5,372.5C 396.5,372.5 394.5,372.5 392.5,372.5C 393.919,371.549 395.585,371.216 397.5,371.5C 397.5,368.833 397.5,366.167 397.5,363.5C 399.43,358.703 402.097,354.369 405.5,350.5 Z"/></g>
<g><path style="opacity:0.235" fill="#a5a5a5" d="M 70.5,368.5 C 72.9279,369.212 75.2612,370.212 77.5,371.5C 80.8869,374.592 84.0535,377.925 87,381.5C 87.8732,381.265 88.7065,380.931 89.5,380.5C 90.3184,382.108 90.9851,383.775 91.5,385.5C 96.6432,386.125 101.643,387.292 106.5,389C 107.278,392.147 108.111,395.313 109,398.5C 112.417,402.738 115.917,406.738 119.5,410.5C 111.662,406.502 107.162,400.169 106,391.5C 105.167,390.667 104.333,389.833 103.5,389C 99.181,388.24 94.8477,387.573 90.5,387C 89.6634,385.989 89.33,384.822 89.5,383.5C 85.2521,383.722 82.5854,381.722 81.5,377.5C 77.9468,374.242 74.2801,371.242 70.5,368.5 Z"/></g>
<g><path style="opacity:0.11" fill="#9c9c9c" d="M 397.5,363.5 C 397.5,366.167 397.5,368.833 397.5,371.5C 395.585,371.216 393.919,371.549 392.5,372.5C 391.761,372.369 391.094,372.536 390.5,373C 376.775,389.513 360.442,402.68 341.5,412.5C 341.167,412.5 340.833,412.5 340.5,412.5C 349.182,405.835 358.182,399.502 367.5,393.5C 374.806,386.86 381.806,379.86 388.5,372.5C 390.851,370.771 393.518,370.104 396.5,370.5C 396.198,367.941 396.532,365.607 397.5,363.5 Z"/></g>
<g><path style="opacity:0.996" fill="#676560" d="M 220.5,415.5 C 229.815,416.232 239.148,416.566 248.5,416.5C 245.016,417.165 241.349,417.499 237.5,417.5C 231.591,417.651 225.925,416.984 220.5,415.5 Z"/></g>
<g><path style="opacity:0.161" fill="#858585" d="M 119.5,410.5 C 122.243,411.388 124.91,412.555 127.5,414C 130.729,417.091 134.063,419.925 137.5,422.5C 131.148,418.993 125.148,414.993 119.5,410.5 Z"/></g>
<g><path style="opacity:0.078" fill="#999998" d="M 137.5,422.5 C 140.919,423.374 144.252,424.54 147.5,426C 156.537,431.57 165.871,436.403 175.5,440.5C 162.003,436.083 149.336,430.083 137.5,422.5 Z"/></g>
<g><path style="opacity:0.408" fill="#a7a7a7" d="M 340.5,412.5 C 340.833,412.5 341.167,412.5 341.5,412.5C 332.336,419.924 323.336,427.591 314.5,435.5C 310.76,431.728 307.426,431.894 304.5,436C 301.893,436.818 299.226,437.318 296.5,437.5C 288.014,436.359 279.514,435.359 271,434.5C 255.536,436.225 240.036,436.725 224.5,436C 221.471,435.268 218.471,434.435 215.5,433.5C 203.85,440.745 191.183,443.579 177.5,442C 176.584,441.722 175.918,441.222 175.5,440.5C 180.805,441.442 186.139,441.609 191.5,441C 199.977,438.507 208.144,435.34 216,431.5C 219.043,432.849 222.209,434.016 225.5,435C 235.519,435.666 245.519,435.499 255.5,434.5C 263.483,433.834 271.483,433.501 279.5,433.5C 285.336,434.758 291.336,435.758 297.5,436.5C 301.86,435.616 305.527,433.616 308.5,430.5C 311.028,431.942 313.695,432.442 316.5,432C 323.794,424.53 331.794,418.03 340.5,412.5 Z"/></g>
<g><path style="opacity:0.771" fill="#595959" d="M 279.5,433.5 C 271.483,433.501 263.483,433.834 255.5,434.5C 255.611,433.883 255.944,433.383 256.5,433C 264.345,432.178 272.011,432.344 279.5,433.5 Z"/></g>
</svg>
