<?xml version="1.0" encoding="UTF-8"?>
<!DOCTYPE svg PUBLIC "-//W3C//DTD SVG 1.1//EN" "http://www.w3.org/Graphics/SVG/1.1/DTD/svg11.dtd">
<svg xmlns="http://www.w3.org/2000/svg" version="1.1" width="465px" height="463px" style="shape-rendering:geometricPrecision; text-rendering:geometricPrecision; image-rendering:optimizeQuality; fill-rule:evenodd; clip-rule:evenodd" xmlns:xlink="http://www.w3.org/1999/xlink">
<g><path style="opacity:0.371" fill="#d1cecb" d="M 356.5,92.5 C 349.709,87.5485 343.042,82.3818 336.5,77C 322.251,68.7314 307.585,61.3981 292.5,55C 285.541,53.6695 278.541,53.3361 271.5,54C 267.673,55.7897 263.673,56.9564 259.5,57.5C 270.237,51.2655 281.57,50.0988 293.5,54C 314.985,62.7415 334.985,74.0748 353.5,88C 355.141,89.129 356.141,90.629 356.5,92.5 Z"/></g>
<g><path style="opacity:0.996" fill="#97948e" d="M 356.5,92.5 C 356.833,92.5 357.167,92.5 357.5,92.5C 358.908,96.6859 359.575,101.019 359.5,105.5C 361.216,105.629 362.883,105.962 364.5,106.5C 364.833,106.5 365.167,106.5 365.5,106.5C 365.791,107.649 366.624,108.316 368,108.5C 370.824,109.054 373.657,109.554 376.5,110C 377.38,111.356 377.714,112.856 377.5,114.5C 379.226,114.185 380.893,114.019 382.5,114C 385.289,120.234 389.956,124.401 396.5,126.5C 398.632,126.554 399.965,127.554 400.5,129.5C 403.435,132.938 406.601,136.271 410,139.5C 410.684,141.479 410.184,143.146 408.5,144.5C 410.73,145.783 413.063,146.783 415.5,147.5C 416.458,156.995 418.791,165.995 422.5,174.5C 422.5,174.833 422.5,175.167 422.5,175.5C 423.171,189.154 423.671,202.821 424,216.5C 424.874,220.535 425.874,224.535 427,228.5C 427.417,229.756 428.25,230.423 429.5,230.5C 430.633,234.481 432.467,238.147 435,241.5C 436.653,247.37 435.153,252.203 430.5,256C 431.101,257.605 432.101,258.938 433.5,260C 432.748,260.671 432.414,261.504 432.5,262.5C 432.5,265.5 432.5,268.5 432.5,271.5C 431.883,271.611 431.383,271.944 431,272.5C 431.496,279.402 429.996,285.736 426.5,291.5C 426.863,292.183 427.196,292.85 427.5,293.5C 417.752,310.462 408.252,327.795 399,345.5C 398.503,347.81 398.337,350.143 398.5,352.5C 396.011,352.298 393.677,352.798 391.5,354C 384.446,361.054 377.446,368.054 370.5,375C 357.833,383.667 345.167,392.333 332.5,401C 326.865,405.633 321.532,410.633 316.5,416C 313.51,416.76 311.01,415.927 309,413.5C 301.388,420.149 292.888,421.316 283.5,417C 279,416.833 274.5,416.667 270,416.5C 255.196,417.96 240.362,418.46 225.5,418C 221.798,417.324 218.131,416.491 214.5,415.5C 206.457,418.237 198.457,421.07 190.5,424C 183.332,424.988 176.332,424.322 169.5,422C 150.575,414.209 132.908,404.376 116.5,392.5C 113.209,389.711 110.042,386.711 107,383.5C 105.553,379.23 104.053,375.063 102.5,371C 97.6825,369.131 92.6825,368.131 87.5,368C 86.9103,366.491 86.2436,364.991 85.5,363.5C 84.109,364.645 82.7757,364.645 81.5,363.5C 80.4534,360.57 78.7868,358.07 76.5,356C 67.6459,351.15 59.9792,344.816 53.5,337C 53.9504,335.715 54.6171,334.548 55.5,333.5C 52.0604,331.232 49.5604,328.232 48,324.5C 47.7594,333.402 49.7594,341.736 54,349.5C 55.3068,350.772 56.8068,351.772 58.5,352.5C 57.5153,354.098 57.3486,355.765 58,357.5C 62.046,361.044 65.546,365.044 68.5,369.5C 63.994,365.835 59.8274,361.835 56,357.5C 55.2797,355.888 55.4464,354.388 56.5,353C 53.3333,351.833 51.1667,349.667 50,346.5C 48.2962,341.274 47.1295,335.941 46.5,330.5C 45.2726,317.408 43.4393,304.408 41,291.5C 40.6667,284.167 40.3333,276.833 40,269.5C 39.2828,268.956 38.7828,268.289 38.5,267.5C 38.1667,267.5 37.8333,267.5 37.5,267.5C 31.6565,261.057 29.9898,253.557 32.5,245C 30.6836,241.204 29.0169,237.37 27.5,233.5C 28.6057,230.598 29.7724,227.598 31,224.5C 35.6667,222.5 35.6667,220.5 31,218.5C 30.5304,217.423 30.6971,216.423 31.5,215.5C 31.5,215.167 31.5,214.833 31.5,214.5C 32.9432,213.665 33.9432,212.332 34.5,210.5C 35.3311,203.524 35.8311,196.524 36,189.5C 41.1488,179.236 46.1488,168.903 51,158.5C 56.7912,151.086 60.9579,142.753 63.5,133.5C 63.2627,132.209 63.596,131.209 64.5,130.5C 65.4614,128.735 65.7947,126.735 65.5,124.5C 67.8568,124.663 70.1902,124.497 72.5,124C 76.8147,120.23 80.4814,116.064 83.5,111.5C 88.4617,107.348 93.795,103.681 99.5,100.5C 100.776,99.3864 100.776,98.3864 99.5,97.5C 108.053,90.8736 117.053,84.7069 126.5,79C 132.278,74.1386 137.945,69.3052 143.5,64.5C 146.139,64.4292 148.306,63.4292 150,61.5C 152.231,63.1997 154.731,64.1997 157.5,64.5C 157.561,62.4078 158.561,60.9078 160.5,60C 163,59.8333 165.5,59.6667 168,59.5C 187.988,62.0756 207.988,62.0756 228,59.5C 235.589,59.8801 243.089,60.8801 250.5,62.5C 254.35,62.0815 257.35,60.4148 259.5,57.5C 263.673,56.9564 267.673,55.7897 271.5,54C 278.541,53.3361 285.541,53.6695 292.5,55C 307.585,61.3981 322.251,68.7314 336.5,77C 343.042,82.3818 349.709,87.5485 356.5,92.5 Z"/></g>
<g><path style="opacity:0.176" fill="#c9c7c4" d="M 259.5,57.5 C 257.35,60.4148 254.35,62.0815 250.5,62.5C 243.089,60.8801 235.589,59.8801 228,59.5C 207.988,62.0756 187.988,62.0756 168,59.5C 165.5,59.6667 163,59.8333 160.5,60C 158.561,60.9078 157.561,62.4078 157.5,64.5C 154.731,64.1997 152.231,63.1997 150,61.5C 148.306,63.4292 146.139,64.4292 143.5,64.5C 146.862,58.8805 151.029,58.2138 156,62.5C 158.871,58.8144 162.704,57.1477 167.5,57.5C 176.622,58.9024 185.788,59.9024 195,60.5C 210.138,58.9317 225.305,58.4317 240.5,59C 243.796,59.4574 246.963,60.2907 250,61.5C 253.115,60.0251 256.282,58.6918 259.5,57.5 Z"/></g>
<g><path style="opacity:0.625" fill="#cdcbc9" d="M 357.5,92.5 C 360.187,97.0079 362.52,101.675 364.5,106.5C 362.883,105.962 361.216,105.629 359.5,105.5C 359.575,101.019 358.908,96.6859 357.5,92.5 Z"/></g>
<g><path style="opacity:0.18" fill="#c8c7c4" d="M 99.5,97.5 C 100.776,98.3864 100.776,99.3864 99.5,100.5C 93.795,103.681 88.4617,107.348 83.5,111.5C 88.4181,106.372 93.7515,101.705 99.5,97.5 Z"/></g>
<g><path style="opacity:0.016" fill="#cfceca" d="M 365.5,106.5 C 369.47,107.166 373.47,107.832 377.5,108.5C 378.243,109.908 379.077,111.241 380,112.5C 380.718,111.549 381.551,111.383 382.5,112C 384.123,114.08 385.623,116.246 387,118.5C 390.402,121.084 393.569,123.75 396.5,126.5C 389.956,124.401 385.289,120.234 382.5,114C 380.893,114.019 379.226,114.185 377.5,114.5C 377.714,112.856 377.38,111.356 376.5,110C 373.657,109.554 370.824,109.054 368,108.5C 366.624,108.316 365.791,107.649 365.5,106.5 Z"/></g>
<g><path style="opacity:0.996" fill="#326e22" d="M 254.5,145.5 C 253.732,146.263 253.232,147.263 253,148.5C 251.77,157.469 250.936,166.469 250.5,175.5C 250.578,191.178 250.245,206.845 249.5,222.5C 252.187,222.664 254.854,222.497 257.5,222C 258.416,221.722 259.082,221.222 259.5,220.5C 284.344,216.9 309.344,212.9 334.5,208.5C 344.146,209.549 352.813,213.049 360.5,219C 364.771,221.567 365.438,224.734 362.5,228.5C 325.136,228.826 287.803,230.326 250.5,233C 249.944,233.383 249.611,233.883 249.5,234.5C 248.503,252.993 248.17,271.659 248.5,290.5C 247.511,295.975 247.178,301.642 247.5,307.5C 251.182,307.665 254.848,307.499 258.5,307C 263.732,306.235 268.732,305.069 273.5,303.5C 292.852,295.871 310.019,299.204 325,313.5C 325.678,315.598 325.511,317.598 324.5,319.5C 319.676,321.043 314.676,321.709 309.5,321.5C 297.172,320.974 284.839,320.641 272.5,320.5C 260.623,320.28 248.956,320.947 237.5,322.5C 227.224,323.662 216.89,324.828 206.5,326C 205.944,326.383 205.611,326.883 205.5,327.5C 197.114,330.401 188.447,332.067 179.5,332.5C 177.167,332.333 174.833,332.167 172.5,332C 169.284,329.61 165.95,327.444 162.5,325.5C 159.547,322.494 159.88,319.994 163.5,318C 185.995,316.487 208.329,313.821 230.5,310C 231,309.5 231.5,309 232,308.5C 232.5,286.503 232.667,264.503 232.5,242.5C 232.5,240.5 232.5,238.5 232.5,236.5C 221.084,236.856 209.75,238.023 198.5,240C 179.493,242.856 160.66,246.356 142,250.5C 135.193,249.845 129.36,247.178 124.5,242.5C 122.576,240.91 122.243,239.076 123.5,237C 155.94,234.732 188.274,231.232 220.5,226.5C 224.399,226.035 228.233,225.368 232,224.5C 232.854,201.457 232.354,178.457 230.5,155.5C 230.607,143.41 226.607,133.077 218.5,124.5C 217.537,119.182 219.704,116.849 225,117.5C 233.039,118.845 240.872,121.012 248.5,124C 251.783,125.561 254.617,127.727 257,130.5C 257.667,132.833 257.667,135.167 257,137.5C 255.554,139.941 254.721,142.608 254.5,145.5 Z"/></g>
<g><path style="opacity:0.049" fill="#e0dfdd" d="M 83.5,111.5 C 80.4814,116.064 76.8147,120.23 72.5,124C 70.1902,124.497 67.8568,124.663 65.5,124.5C 65.7947,126.735 65.4614,128.735 64.5,130.5C 63.9862,128.488 63.8195,126.488 64,124.5C 66.405,123.726 68.905,123.226 71.5,123C 75.369,118.963 79.369,115.13 83.5,111.5 Z"/></g>
<g><path style="opacity:0.29" fill="#dcd9d7" d="M 400.5,129.5 C 404.737,132.228 408.571,135.561 412,139.5C 412.595,140.899 412.428,142.232 411.5,143.5C 413.188,144.521 414.521,145.855 415.5,147.5C 413.063,146.783 410.73,145.783 408.5,144.5C 410.184,143.146 410.684,141.479 410,139.5C 406.601,136.271 403.435,132.938 400.5,129.5 Z"/></g>
<g><path style="opacity:0.996" fill="#414c3e" d="M 218.5,124.5 C 226.607,133.077 230.607,143.41 230.5,155.5C 229.833,153.833 229.167,152.167 228.5,150.5C 227.427,142.94 224.427,136.273 219.5,130.5C 218.534,128.604 218.201,126.604 218.5,124.5 Z"/></g>
<g><path style="opacity:0.371" fill="#c6c4c0" d="M 415.5,147.5 C 419.422,155.971 421.755,164.971 422.5,174.5C 418.791,165.995 416.458,156.995 415.5,147.5 Z"/></g>
<g><path style="opacity:0.996" fill="#42693a" d="M 254.5,145.5 C 253.5,155.498 252.5,165.498 251.5,175.5C 251.167,175.5 250.833,175.5 250.5,175.5C 250.936,166.469 251.77,157.469 253,148.5C 253.232,147.263 253.732,146.263 254.5,145.5 Z"/></g>
<g><path style="opacity:0.996" fill="#808877" d="M 228.5,150.5 C 229.167,152.167 229.833,153.833 230.5,155.5C 232.354,178.457 232.854,201.457 232,224.5C 228.233,225.368 224.399,226.035 220.5,226.5C 223.337,224.598 226.671,223.931 230.5,224.5C 230.805,199.801 230.138,175.134 228.5,150.5 Z"/></g>
<g><path style="opacity:0.976" fill="#c4c2bf" d="M 63.5,133.5 C 60.9579,142.753 56.7912,151.086 51,158.5C 46.1488,168.903 41.1488,179.236 36,189.5C 35.8311,196.524 35.3311,203.524 34.5,210.5C 33.9432,212.332 32.9432,213.665 31.5,214.5C 32.2973,207.579 32.7973,200.579 33,193.5C 40.4816,176.538 48.4816,159.872 57,143.5C 58.9417,139.931 61.1084,136.598 63.5,133.5 Z"/></g>
<g><path style="opacity:0.996" fill="#6e8265" d="M 250.5,175.5 C 250.833,175.5 251.167,175.5 251.5,175.5C 251.5,190.833 251.5,206.167 251.5,221.5C 254.127,220.908 256.794,220.575 259.5,220.5C 259.082,221.222 258.416,221.722 257.5,222C 254.854,222.497 252.187,222.664 249.5,222.5C 250.245,206.845 250.578,191.178 250.5,175.5 Z"/></g>
<g><path style="opacity:0.188" fill="#dfddda" d="M 31.5,215.5 C 30.6971,216.423 30.5304,217.423 31,218.5C 35.6667,220.5 35.6667,222.5 31,224.5C 29.7724,227.598 28.6057,230.598 27.5,233.5C 27.4371,229.022 28.7705,225.022 31.5,221.5C 30.3887,220.389 29.722,219.055 29.5,217.5C 29.7472,216.287 30.4138,215.62 31.5,215.5 Z"/></g>
<g><path style="opacity:0.235" fill="#d9d7d3" d="M 422.5,175.5 C 423.309,177.292 423.809,179.292 424,181.5C 424.435,194.179 425.102,206.846 426,219.5C 427.274,223.154 428.44,226.82 429.5,230.5C 428.25,230.423 427.417,229.756 427,228.5C 425.874,224.535 424.874,220.535 424,216.5C 423.671,202.821 423.171,189.154 422.5,175.5 Z"/></g>
<g><path style="opacity:0.996" fill="#3a3d3a" d="M 362.5,228.5 C 362.833,228.5 363.167,228.5 363.5,228.5C 364.126,232.375 362.459,234.209 358.5,234C 335.833,234.333 313.167,234.667 290.5,235C 287.635,235.183 284.969,235.683 282.5,236.5C 271.515,237.328 260.515,237.995 249.5,238.5C 249.5,237.167 249.5,235.833 249.5,234.5C 249.611,233.883 249.944,233.383 250.5,233C 287.803,230.326 325.136,228.826 362.5,228.5 Z"/></g>
<g><path style="opacity:0.996" fill="#595856" d="M 363.5,228.5 C 365.561,232.563 364.228,234.729 359.5,235C 333.827,235.328 308.16,235.828 282.5,236.5C 284.969,235.683 287.635,235.183 290.5,235C 313.167,234.667 335.833,234.333 358.5,234C 362.459,234.209 364.126,232.375 363.5,228.5 Z"/></g>
<g><path style="opacity:0.996" fill="#3e413d" d="M 232.5,242.5 C 225.816,242.454 219.149,242.787 212.5,243.5C 189.03,247.773 165.53,251.773 142,255.5C 134.409,255.205 128.075,252.205 123,246.5C 122.227,244.648 122.727,243.314 124.5,242.5C 129.36,247.178 135.193,249.845 142,250.5C 160.66,246.356 179.493,242.856 198.5,240C 209.75,238.023 221.084,236.856 232.5,236.5C 232.5,238.5 232.5,240.5 232.5,242.5 Z"/></g>
<g><path style="opacity:0.995" fill="#181818" d="M 38.5,267.5 C 37.2049,263.577 35.3716,259.91 33,256.5C 32.4572,253.132 32.6239,249.799 33.5,246.5C 34.675,246.281 35.675,246.614 36.5,247.5C 38.6439,253.312 39.9772,259.312 40.5,265.5C 40.2528,266.713 39.5862,267.38 38.5,267.5 Z"/></g>
<g><path style="opacity:0.027" fill="#d4d3d1" d="M 429.5,230.5 C 435.351,236.247 437.518,243.247 436,251.5C 435.028,253.305 433.861,254.972 432.5,256.5C 435.115,258.637 435.115,260.637 432.5,262.5C 432.414,261.504 432.748,260.671 433.5,260C 432.101,258.938 431.101,257.605 430.5,256C 435.153,252.203 436.653,247.37 435,241.5C 432.467,238.147 430.633,234.481 429.5,230.5 Z"/></g>
<g><path style="opacity:0.012" fill="#e6e5e4" d="M 37.5,267.5 C 37.8333,267.5 38.1667,267.5 38.5,267.5C 38.7828,268.289 39.2828,268.956 40,269.5C 40.3333,276.833 40.6667,284.167 41,291.5C 43.4393,304.408 45.2726,317.408 46.5,330.5C 41.8532,311.252 39.3532,291.586 39,271.5C 38.2086,270.255 37.7086,268.922 37.5,267.5 Z"/></g>
<g><path style="opacity:0.996" fill="#090808" d="M 427.5,293.5 C 427.635,298.66 426.801,303.66 425,308.5C 421.617,314.599 418.783,320.932 416.5,327.5C 416.737,328.791 416.404,329.791 415.5,330.5C 413.052,332.682 411.052,335.348 409.5,338.5C 407.209,344.414 404.376,350.081 401,355.5C 400.51,356.793 400.343,358.127 400.5,359.5C 399.18,361.463 397.846,363.463 396.5,365.5C 395.539,367.265 395.205,369.265 395.5,371.5C 393.473,371.338 391.473,371.505 389.5,372C 388.944,372.383 388.611,372.883 388.5,373.5C 387.5,373.833 386.833,374.5 386.5,375.5C 380.519,381.892 374.186,388.059 367.5,394C 348.172,406.003 330.005,419.503 313,434.5C 310.999,433.498 308.999,432.498 307,431.5C 305.649,433.018 304.149,434.351 302.5,435.5C 296.855,436.716 291.188,436.716 285.5,435.5C 283.833,435.5 282.167,435.5 280.5,435.5C 280.082,434.778 279.416,434.278 278.5,434C 275.667,433.833 272.833,433.667 270,433.5C 265.242,433.366 260.742,434.032 256.5,435.5C 242.2,437.358 228.033,436.691 214,433.5C 208.774,434.694 203.941,436.861 199.5,440C 190.172,443.221 180.838,443.221 171.5,440C 166.526,436.953 161.192,434.786 155.5,433.5C 153.017,430.259 149.684,428.592 145.5,428.5C 145.631,427.624 145.298,426.957 144.5,426.5C 135.344,421.423 126.344,416.089 117.5,410.5C 114.473,406.806 111.14,403.473 107.5,400.5C 107.24,396.577 106.24,392.91 104.5,389.5C 99.646,387.847 94.646,387.181 89.5,387.5C 89.5,385.833 89.5,384.167 89.5,382.5C 84.9789,381.84 81.6456,379.34 79.5,375C 78.552,374.517 77.552,374.351 76.5,374.5C 75.2426,373.182 73.9093,371.849 72.5,370.5C 71.3132,369.347 70.3132,369.347 69.5,370.5C 68.8333,370.5 68.5,370.167 68.5,369.5C 65.546,365.044 62.046,361.044 58,357.5C 57.3486,355.765 57.5153,354.098 58.5,352.5C 56.8068,351.772 55.3068,350.772 54,349.5C 49.7594,341.736 47.7594,333.402 48,324.5C 49.5604,328.232 52.0604,331.232 55.5,333.5C 54.6171,334.548 53.9504,335.715 53.5,337C 59.9792,344.816 67.6459,351.15 76.5,356C 78.7868,358.07 80.4534,360.57 81.5,363.5C 82.7757,364.645 84.109,364.645 85.5,363.5C 86.2436,364.991 86.9103,366.491 87.5,368C 92.6825,368.131 97.6825,369.131 102.5,371C 104.053,375.063 105.553,379.23 107,383.5C 110.042,386.711 113.209,389.711 116.5,392.5C 132.908,404.376 150.575,414.209 169.5,422C 176.332,424.322 183.332,424.988 190.5,424C 198.457,421.07 206.457,418.237 214.5,415.5C 218.131,416.491 221.798,417.324 225.5,418C 240.362,418.46 255.196,417.96 270,416.5C 274.5,416.667 279,416.833 283.5,417C 292.888,421.316 301.388,420.149 309,413.5C 311.01,415.927 313.51,416.76 316.5,416C 321.532,410.633 326.865,405.633 332.5,401C 345.167,392.333 357.833,383.667 370.5,375C 377.446,368.054 384.446,361.054 391.5,354C 393.677,352.798 396.011,352.298 398.5,352.5C 398.337,350.143 398.503,347.81 399,345.5C 408.252,327.795 417.752,310.462 427.5,293.5 Z"/></g>
<g><path style="opacity:0.031" fill="#babab9" d="M 432.5,271.5 C 431.849,274.137 431.849,276.637 432.5,279C 432.086,283.077 430.919,286.91 429,290.5C 429.32,304.488 425.154,316.821 416.5,327.5C 418.783,320.932 421.617,314.599 425,308.5C 426.801,303.66 427.635,298.66 427.5,293.5C 427.196,292.85 426.863,292.183 426.5,291.5C 429.996,285.736 431.496,279.402 431,272.5C 431.383,271.944 431.883,271.611 432.5,271.5 Z"/></g>
<g><path style="opacity:0.996" fill="#67835e" d="M 248.5,290.5 C 248.5,295.833 248.5,301.167 248.5,306.5C 256.844,305.665 265.178,304.665 273.5,303.5C 268.732,305.069 263.732,306.235 258.5,307C 254.848,307.499 251.182,307.665 247.5,307.5C 247.178,301.642 247.511,295.975 248.5,290.5 Z"/></g>
<g><path style="opacity:0.996" fill="#3e403d" d="M 324.5,319.5 C 325.03,324.638 322.697,327.305 317.5,327.5C 296.558,325.718 275.558,325.218 254.5,326C 244.596,326.839 234.93,328.339 225.5,330.5C 212.515,331.237 199.849,333.571 187.5,337.5C 182.533,338.662 177.533,338.829 172.5,338C 168.488,335.528 164.654,332.695 161,329.5C 160.156,327.537 160.656,326.204 162.5,325.5C 165.95,327.444 169.284,329.61 172.5,332C 174.833,332.167 177.167,332.333 179.5,332.5C 188.447,332.067 197.114,330.401 205.5,327.5C 216.384,326.352 227.051,324.686 237.5,322.5C 248.956,320.947 260.623,320.28 272.5,320.5C 284.839,320.641 297.172,320.974 309.5,321.5C 314.676,321.709 319.676,321.043 324.5,319.5 Z"/></g>
<g><path style="opacity:0.996" fill="#305928" d="M 237.5,322.5 C 227.051,324.686 216.384,326.352 205.5,327.5C 205.611,326.883 205.944,326.383 206.5,326C 216.89,324.828 227.224,323.662 237.5,322.5 Z"/></g>
<g><path style="opacity:0.996" fill="#797772" d="M 317.5,327.5 C 313.849,328.165 310.015,328.499 306,328.5C 289.662,326.563 273.162,326.063 256.5,327C 246.211,328.578 235.877,329.745 225.5,330.5C 234.93,328.339 244.596,326.839 254.5,326C 275.558,325.218 296.558,325.718 317.5,327.5 Z"/></g>
<g><path style="opacity:0.063" fill="#b1b1b1" d="M 415.5,330.5 C 411.247,340.677 406.247,350.343 400.5,359.5C 400.343,358.127 400.51,356.793 401,355.5C 404.376,350.081 407.209,344.414 409.5,338.5C 411.052,335.348 413.052,332.682 415.5,330.5 Z"/></g>
<g><path style="opacity:0.514" fill="#6b6b6b" d="M 396.5,365.5 C 396.5,367.833 396.5,370.167 396.5,372.5C 393.763,372.401 391.096,372.735 388.5,373.5C 388.611,372.883 388.944,372.383 389.5,372C 391.473,371.505 393.473,371.338 395.5,371.5C 395.205,369.265 395.539,367.265 396.5,365.5 Z"/></g>
<g><path style="opacity:0.039" fill="#cacaca" d="M 69.5,370.5 C 70.3132,369.347 71.3132,369.347 72.5,370.5C 73.9093,371.849 75.2426,373.182 76.5,374.5C 73.7052,373.937 71.3718,372.604 69.5,370.5 Z"/></g>
<g><path style="opacity:0.035" fill="#dddddd" d="M 400.5,359.5 C 400.496,361.842 399.663,363.842 398,365.5C 397.503,368.146 397.336,370.813 397.5,373.5C 393.388,373.123 389.721,374.123 386.5,376.5C 386.5,376.167 386.5,375.833 386.5,375.5C 386.833,374.5 387.5,373.833 388.5,373.5C 391.096,372.735 393.763,372.401 396.5,372.5C 396.5,370.167 396.5,367.833 396.5,365.5C 397.846,363.463 399.18,361.463 400.5,359.5 Z"/></g>
<g><path style="opacity:0.22" fill="#bbbbbb" d="M 76.5,374.5 C 77.552,374.351 78.552,374.517 79.5,375C 81.6456,379.34 84.9789,381.84 89.5,382.5C 89.5,384.167 89.5,385.833 89.5,387.5C 88.2007,385.308 86.2007,383.975 83.5,383.5C 81.4939,380.171 79.1606,377.171 76.5,374.5 Z"/></g>
<g><path style="opacity:0.175" fill="#bebebe" d="M 89.5,387.5 C 94.646,387.181 99.646,387.847 104.5,389.5C 106.24,392.91 107.24,396.577 107.5,400.5C 105.697,397.61 104.364,394.443 103.5,391C 99.251,389.874 94.9177,389.208 90.5,389C 89.944,388.617 89.6107,388.117 89.5,387.5 Z"/></g>
<g><path style="opacity:0.016" fill="#a5a5a5" d="M 107.5,400.5 C 111.14,403.473 114.473,406.806 117.5,410.5C 113.167,408.167 109.833,404.833 107.5,400.5 Z"/></g>
<g><path style="opacity:0.224" fill="#acacac" d="M 386.5,375.5 C 386.5,375.833 386.5,376.167 386.5,376.5C 381.742,382.763 376.409,388.596 370.5,394C 357.167,403.333 343.833,412.667 330.5,422C 324.98,427.021 319.314,431.854 313.5,436.5C 311.705,435.735 309.872,435.068 308,434.5C 306.022,435.906 303.855,436.906 301.5,437.5C 301.833,436.833 302.167,436.167 302.5,435.5C 304.149,434.351 305.649,433.018 307,431.5C 308.999,432.498 310.999,433.498 313,434.5C 330.005,419.503 348.172,406.003 367.5,394C 374.186,388.059 380.519,381.892 386.5,375.5 Z"/></g>
<g><path style="opacity:0.016" fill="#989898" d="M 117.5,410.5 C 126.344,416.089 135.344,421.423 144.5,426.5C 145.298,426.957 145.631,427.624 145.5,428.5C 134.818,424.463 125.485,418.463 117.5,410.5 Z"/></g>
<g><path style="opacity:0.322" fill="#989898" d="M 145.5,428.5 C 149.684,428.592 153.017,430.259 155.5,433.5C 151.86,432.347 148.526,430.68 145.5,428.5 Z"/></g>
<g><path style="opacity:0.846" fill="#797979" d="M 280.5,435.5 C 279.5,435.5 278.5,435.5 277.5,435.5C 272.5,435.5 267.5,435.5 262.5,435.5C 260.5,435.5 258.5,435.5 256.5,435.5C 260.742,434.032 265.242,433.366 270,433.5C 272.833,433.667 275.667,433.833 278.5,434C 279.416,434.278 280.082,434.778 280.5,435.5 Z"/></g>
<g><path style="opacity:0.122" fill="#b7b7b7" d="M 155.5,433.5 C 161.192,434.786 166.526,436.953 171.5,440C 180.838,443.221 190.172,443.221 199.5,440C 203.941,436.861 208.774,434.694 214,433.5C 228.033,436.691 242.2,437.358 256.5,435.5C 258.5,435.5 260.5,435.5 262.5,435.5C 251.092,438.025 239.425,438.858 227.5,438C 223.222,437.241 219.056,436.074 215,434.5C 201.813,442.892 187.646,445.392 172.5,442C 166.546,439.634 160.879,436.8 155.5,433.5 Z"/></g>
<g><path style="opacity:0.118" fill="#d0d0d0" d="M 277.5,435.5 C 278.5,435.5 279.5,435.5 280.5,435.5C 282.167,435.5 283.833,435.5 285.5,435.5C 286.167,436.167 286.833,436.833 287.5,437.5C 283.922,437.451 280.589,436.785 277.5,435.5 Z"/></g>
<g><path style="opacity:0.416" fill="#808080" d="M 285.5,435.5 C 291.188,436.716 296.855,436.716 302.5,435.5C 302.167,436.167 301.833,436.833 301.5,437.5C 296.833,438.833 292.167,438.833 287.5,437.5C 286.833,436.833 286.167,436.167 285.5,435.5 Z"/></g>
</svg>
