<?xml version="1.0" encoding="UTF-8"?>
<!DOCTYPE svg PUBLIC "-//W3C//DTD SVG 1.1//EN" "http://www.w3.org/Graphics/SVG/1.1/DTD/svg11.dtd">
<svg xmlns="http://www.w3.org/2000/svg" version="1.1" width="466px" height="464px" style="shape-rendering:geometricPrecision; text-rendering:geometricPrecision; image-rendering:optimizeQuality; fill-rule:evenodd; clip-rule:evenodd" xmlns:xlink="http://www.w3.org/1999/xlink">
<g><path style="opacity:0.733" fill="#cac8c5" d="M 298.5,57.5 C 294.045,56.5956 289.545,55.929 285,55.5C 277.409,56.7512 269.909,58.4179 262.5,60.5C 271.429,55.4534 281.096,53.6201 291.5,55C 294.191,55.1558 296.524,55.9891 298.5,57.5 Z"/></g>
<g><path style="opacity:0.996" fill="#97948e" d="M 298.5,57.5 C 309.545,61.2576 319.878,66.2576 329.5,72.5C 335.824,76.334 341.824,80.6673 347.5,85.5C 348.736,86.2458 350.07,86.5792 351.5,86.5C 355.779,90.9524 359.946,95.619 364,100.5C 362.991,107.291 365.825,110.624 372.5,110.5C 372.833,110.5 373.167,110.5 373.5,110.5C 373.611,111.117 373.944,111.617 374.5,112C 376.81,112.497 379.143,112.663 381.5,112.5C 381.5,114.167 381.5,115.833 381.5,117.5C 383.199,117.34 384.866,117.506 386.5,118C 387.592,120.594 389.259,122.761 391.5,124.5C 395.349,126.256 399.016,128.256 402.5,130.5C 402.833,130.5 403.167,130.5 403.5,130.5C 403.539,131.583 403.873,132.583 404.5,133.5C 408.121,135.476 411.121,138.142 413.5,141.5C 414.681,143.135 414.681,144.802 413.5,146.5C 413.957,147.298 414.624,147.631 415.5,147.5C 417.39,147.297 418.89,147.963 420,149.5C 421.549,152.312 422.382,155.312 422.5,158.5C 423.014,168.101 425.014,177.101 428.5,185.5C 428.5,185.833 428.5,186.167 428.5,186.5C 427.839,188.134 427.506,189.967 427.5,192C 428.192,202.489 428.692,212.989 429,223.5C 429.278,224.416 429.778,225.082 430.5,225.5C 433.892,231.28 437.059,237.28 440,243.5C 440.667,247.167 440.667,250.833 440,254.5C 439.617,255.056 439.117,255.389 438.5,255.5C 434.605,256.285 433.772,258.285 436,261.5C 436.499,265.821 436.666,270.154 436.5,274.5C 435.024,281.714 433.358,289.048 431.5,296.5C 430.624,296.369 429.957,296.702 429.5,297.5C 420.709,314.083 412.209,330.75 404,347.5C 403.503,350.146 403.336,352.813 403.5,355.5C 400.393,355.351 397.393,355.851 394.5,357C 389.199,363.302 383.532,369.302 377.5,375C 364.98,384.089 352.314,392.922 339.5,401.5C 332.994,406.842 326.66,412.342 320.5,418C 317.901,417.801 315.401,416.967 313,415.5C 311.167,417.333 309.333,419.167 307.5,421C 302.083,421.781 296.75,421.615 291.5,420.5C 290.391,419.71 289.058,419.21 287.5,419C 275.286,418.063 263.286,418.563 251.5,420.5C 240.316,422.33 229.316,421.33 218.5,417.5C 211.116,421.075 203.449,424.075 195.5,426.5C 189.137,427.76 182.804,427.593 176.5,426C 159.892,418.697 143.892,410.364 128.5,401C 121.712,396.213 115.546,390.713 110,384.5C 108.964,381.029 108.131,377.529 107.5,374C 102.271,372.363 96.9379,371.197 91.5,370.5C 90.7542,369.264 90.4208,367.93 90.5,366.5C 88.712,366.785 87.0453,366.452 85.5,365.5C 84.3649,363.201 83.0316,361.034 81.5,359C 73.1638,354.341 65.6638,348.508 59,341.5C 59.0534,339.064 58.8867,336.731 58.5,334.5C 55.5302,333.363 53.3635,331.363 52,328.5C 51.5357,329.094 51.369,329.761 51.5,330.5C 50.2168,319.916 48.5502,309.249 46.5,298.5C 45.8339,290.178 45.3339,281.845 45,273.5C 43.9054,272.307 43.072,270.973 42.5,269.5C 43.5862,269.38 44.2528,268.713 44.5,267.5C 43.9816,262.007 42.815,256.674 41,251.5C 40.1841,250.177 39.0174,249.511 37.5,249.5C 37.8039,248.85 38.1373,248.183 38.5,247.5C 34.2887,241.286 33.122,234.619 35,227.5C 36.353,226.315 37.5197,224.981 38.5,223.5C 35.4015,221.87 34.7349,219.537 36.5,216.5C 37.2679,215.737 37.7679,214.737 38,213.5C 37.5797,203.681 39.4131,194.348 43.5,185.5C 44.2421,184.713 45.0754,184.047 46,183.5C 46.3951,180.793 46.8951,178.127 47.5,175.5C 51.0408,168.766 54.8741,162.099 59,155.5C 59.9406,152.846 60.7739,150.179 61.5,147.5C 64.1968,143.806 66.6968,139.806 69,135.5C 69.4974,132.854 69.6641,130.187 69.5,127.5C 71.5273,127.662 73.5273,127.495 75.5,127C 76.056,126.617 76.3893,126.117 76.5,125.5C 80.8614,120.807 85.1948,116.141 89.5,111.5C 89.8966,112.525 90.5632,112.692 91.5,112C 96.1955,107.015 101.195,102.515 106.5,98.5C 110.454,94.1879 115.12,90.8545 120.5,88.5C 125.251,86.2702 129.918,83.7702 134.5,81C 136.141,79.871 137.141,78.371 137.5,76.5C 142.271,72.2309 146.938,67.7309 151.5,63C 154.304,62.5403 156.971,63.0403 159.5,64.5C 160.86,63.8201 162.193,63.1534 163.5,62.5C 166.449,61.9312 169.449,61.5979 172.5,61.5C 180.572,62.2916 188.572,63.2916 196.5,64.5C 201.745,64.6083 206.745,63.9417 211.5,62.5C 221.359,62.4431 231.026,61.7765 240.5,60.5C 244.732,61.2663 248.898,62.2663 253,63.5C 256.312,62.9257 259.478,61.9257 262.5,60.5C 269.909,58.4179 277.409,56.7512 285,55.5C 289.545,55.929 294.045,56.5956 298.5,57.5 Z"/></g>
<g><path style="opacity:0.071" fill="#cccac8" d="M 211.5,62.5 C 206.745,63.9417 201.745,64.6083 196.5,64.5C 188.572,63.2916 180.572,62.2916 172.5,61.5C 169.449,61.5979 166.449,61.9312 163.5,62.5C 165.607,60.3485 168.274,59.3485 171.5,59.5C 180.33,60.8883 189.163,62.2217 198,63.5C 202.489,62.9595 206.989,62.6262 211.5,62.5 Z"/></g>
<g><path style="opacity:0.058" fill="#cececd" d="M 240.5,60.5 C 231.026,61.7765 221.359,62.4431 211.5,62.5C 220.95,60.8598 230.616,60.1932 240.5,60.5 Z"/></g>
<g><path style="opacity:0.161" fill="#cdccc7" d="M 137.5,76.5 C 137.141,78.371 136.141,79.871 134.5,81C 129.918,83.7702 125.251,86.2702 120.5,88.5C 125.983,84.2569 131.65,80.2569 137.5,76.5 Z"/></g>
<g><path style="opacity:0.831" fill="#cecdc9" d="M 329.5,72.5 C 337.621,75.9589 344.954,80.6256 351.5,86.5C 350.07,86.5792 348.736,86.2458 347.5,85.5C 341.824,80.6673 335.824,76.334 329.5,72.5 Z"/></g>
<g><path style="opacity:0.231" fill="#cfcdca" d="M 106.5,98.5 C 101.195,102.515 96.1955,107.015 91.5,112C 90.5632,112.692 89.8966,112.525 89.5,111.5C 94.3318,105.992 99.9985,101.659 106.5,98.5 Z"/></g>
<g><path style="opacity:0.078" fill="#d3d1cf" d="M 351.5,86.5 C 360.067,91.0504 365.067,98.0504 366.5,107.5C 368.604,108.519 370.604,109.519 372.5,110.5C 365.825,110.624 362.991,107.291 364,100.5C 359.946,95.619 355.779,90.9524 351.5,86.5 Z"/></g>
<g><path style="opacity:0.737" fill="#c0beba" d="M 373.5,110.5 C 376.187,110.336 378.854,110.503 381.5,111C 381.967,114.465 383.967,116.132 387.5,116C 389.31,118.644 391.31,121.144 393.5,123.5C 397.112,125.129 400.112,127.462 402.5,130.5C 399.016,128.256 395.349,126.256 391.5,124.5C 389.259,122.761 387.592,120.594 386.5,118C 384.866,117.506 383.199,117.34 381.5,117.5C 381.5,115.833 381.5,114.167 381.5,112.5C 379.143,112.663 376.81,112.497 374.5,112C 373.944,111.617 373.611,111.117 373.5,110.5 Z"/></g>
<g><path style="opacity:0.149" fill="#d5d4d1" d="M 76.5,125.5 C 76.3893,126.117 76.056,126.617 75.5,127C 73.5273,127.495 71.5273,127.662 69.5,127.5C 69.6641,130.187 69.4974,132.854 69,135.5C 66.6968,139.806 64.1968,143.806 61.5,147.5C 63.398,142.704 65.5647,138.038 68,133.5C 68.7429,131.559 68.5762,129.726 67.5,128C 68.354,126.978 69.354,126.145 70.5,125.5C 72.4816,126.623 74.4816,126.623 76.5,125.5 Z"/></g>
<g><path style="opacity:0.996" fill="#935b4a" d="M 297.5,128.5 C 289.171,127.208 280.838,127.208 272.5,128.5C 273.263,127.732 274.263,127.232 275.5,127C 281.833,126.333 288.167,126.333 294.5,127C 295.737,127.232 296.737,127.732 297.5,128.5 Z"/></g>
<g><path style="opacity:0.996" fill="#be2a1b" d="M 297.5,128.5 C 299.081,130.142 299.747,132.142 299.5,134.5C 296.91,135.128 294.577,136.295 292.5,138C 287.659,138.995 282.992,140.162 278.5,141.5C 274.837,141.952 271.17,142.452 267.5,143C 266.584,143.278 265.918,143.778 265.5,144.5C 260.167,145.167 254.833,145.833 249.5,146.5C 249.5,148.5 249.5,150.5 249.5,152.5C 249.5,158.167 249.5,163.833 249.5,169.5C 258.82,165.836 268.486,164.336 278.5,165C 279.891,166.02 281.391,166.853 283,167.5C 283.877,169.674 283.377,171.341 281.5,172.5C 271.511,175.865 261.178,178.032 250.5,179C 250,179.5 249.5,180 249,180.5C 248.5,187.158 248.334,193.825 248.5,200.5C 251.067,200.279 253.401,199.612 255.5,198.5C 257.565,198.483 259.565,198.15 261.5,197.5C 267.464,196.693 273.464,196.36 279.5,196.5C 282.495,198.143 283.161,200.477 281.5,203.5C 270.372,205.862 259.372,208.862 248.5,212.5C 247.507,220.65 247.174,228.983 247.5,237.5C 249.415,237.784 251.081,237.451 252.5,236.5C 256.81,235.92 261.143,235.586 265.5,235.5C 270.45,235.23 275.117,234.23 279.5,232.5C 287.455,231.014 295.455,229.18 303.5,227C 307.167,226.333 310.833,226.333 314.5,227C 322.951,230.122 330.951,234.122 338.5,239C 340.837,241.194 341.17,243.694 339.5,246.5C 337.526,248.428 336.026,250.761 335,253.5C 333.401,261.426 332.568,269.426 332.5,277.5C 331.899,286.646 330.566,295.646 328.5,304.5C 325.505,322.004 317.839,337.171 305.5,350C 301.487,352.433 297.487,354.767 293.5,357C 291.741,357.798 290.074,357.631 288.5,356.5C 285.886,341.597 278.886,329.264 267.5,319.5C 265.615,317.947 264.615,315.947 264.5,313.5C 271.916,316.808 279.583,319.641 287.5,322C 292.287,322.879 296.953,322.545 301.5,321C 305.057,312.996 308.224,304.83 311,296.5C 312.493,291.196 313.659,285.862 314.5,280.5C 315.657,272.01 315.824,263.343 315,254.5C 313.583,245.752 308.416,241.252 299.5,241C 293.167,240.333 286.833,240.333 280.5,241C 262.936,243.285 245.603,246.118 228.5,249.5C 224.165,249.917 219.832,250.417 215.5,251C 214.584,251.278 213.918,251.778 213.5,252.5C 206.448,253.509 199.448,254.842 192.5,256.5C 188.847,258.989 185.347,261.656 182,264.5C 175.074,259.308 171.908,252.308 172.5,243.5C 173.498,235.527 174.664,227.527 176,219.5C 176.5,200.836 176.667,182.17 176.5,163.5C 176.918,155.136 174.585,147.803 169.5,141.5C 168.83,138.41 169.997,136.743 173,136.5C 178.63,138.209 184.13,140.209 189.5,142.5C 189.611,143.117 189.944,143.617 190.5,144C 192.167,144.167 193.833,144.333 195.5,144.5C 201.783,144.282 207.783,143.282 213.5,141.5C 230.943,139.05 247.943,134.884 264.5,129C 267.146,128.503 269.813,128.336 272.5,128.5C 280.838,127.208 289.171,127.208 297.5,128.5 Z"/></g>
<g><path style="opacity:0.996" fill="#433c3a" d="M 299.5,134.5 C 299.799,136.604 299.466,138.604 298.5,140.5C 295.244,142.297 291.911,143.797 288.5,145C 275.468,147.44 262.468,149.94 249.5,152.5C 249.5,150.5 249.5,148.5 249.5,146.5C 254.833,145.833 260.167,145.167 265.5,144.5C 270.124,144.237 274.458,143.237 278.5,141.5C 282.992,140.162 287.659,138.995 292.5,138C 294.577,136.295 296.91,135.128 299.5,134.5 Z"/></g>
<g><path style="opacity:0.1" fill="#d3d1cf" d="M 403.5,130.5 C 408.812,133.812 413.145,138.145 416.5,143.5C 415.754,144.736 415.421,146.07 415.5,147.5C 414.624,147.631 413.957,147.298 413.5,146.5C 414.681,144.802 414.681,143.135 413.5,141.5C 411.121,138.142 408.121,135.476 404.5,133.5C 403.873,132.583 403.539,131.583 403.5,130.5 Z"/></g>
<g><path style="opacity:0.996" fill="#a14837" d="M 213.5,141.5 C 207.783,143.282 201.783,144.282 195.5,144.5C 193.833,144.333 192.167,144.167 190.5,144C 189.944,143.617 189.611,143.117 189.5,142.5C 197.477,143.06 205.477,142.727 213.5,141.5 Z"/></g>
<g><path style="opacity:0.996" fill="#653125" d="M 278.5,141.5 C 274.458,143.237 270.124,144.237 265.5,144.5C 265.918,143.778 266.584,143.278 267.5,143C 271.17,142.452 274.837,141.952 278.5,141.5 Z"/></g>
<g><path style="opacity:0.996" fill="#5b453d" d="M 169.5,141.5 C 174.585,147.803 176.918,155.136 176.5,163.5C 175.144,160.423 174.311,157.09 174,153.5C 170.656,150.218 169.156,146.218 169.5,141.5 Z"/></g>
<g><path style="opacity:0.996" fill="#413c3a" d="M 215.5,150.5 C 221.167,150.5 226.833,150.5 232.5,150.5C 232.5,151.833 232.5,153.167 232.5,154.5C 219.248,156.507 205.915,157.507 192.5,157.5C 192.815,161.371 192.482,165.038 191.5,168.5C 191.313,162.788 191.646,157.121 192.5,151.5C 200.352,151.825 208.018,151.492 215.5,150.5 Z"/></g>
<g><path style="opacity:0.996" fill="#703126" d="M 215.5,150.5 C 221.31,149.51 227.31,149.177 233.5,149.5C 233.5,151.5 233.5,153.5 233.5,155.5C 232.833,155.5 232.5,155.167 232.5,154.5C 232.5,153.167 232.5,151.833 232.5,150.5C 226.833,150.5 221.167,150.5 215.5,150.5 Z"/></g>
<g><path style="opacity:0.996" fill="#96908a" d="M 232.5,154.5 C 232.5,155.167 232.833,155.5 233.5,155.5C 233.829,161.537 233.496,167.537 232.5,173.5C 221.776,175.37 211.11,177.37 200.5,179.5C 199.903,179.735 199.57,180.235 199.5,181C 200.686,182.412 202.019,183.579 203.5,184.5C 201.365,184.147 200.032,184.98 199.5,187C 201.627,188.902 203.96,190.569 206.5,192C 211.5,192.667 216.5,192.667 221.5,192C 225.632,190.478 229.965,189.645 234.5,189.5C 234.805,194.762 234.471,199.928 233.5,205C 224.281,207.426 214.948,209.426 205.5,211C 202.553,211.112 201.22,212.612 201.5,215.5C 201.842,216.338 202.508,216.672 203.5,216.5C 200.957,218.682 200.957,220.848 203.5,223C 208.357,223.307 213.19,223.807 218,224.5C 223.484,223.65 228.984,222.983 234.5,222.5C 234.807,228.093 234.473,233.593 233.5,239C 219.977,241.7 206.31,243.534 192.5,244.5C 191.5,244.5 190.5,244.5 189.5,244.5C 189.5,231.833 189.5,219.167 189.5,206.5C 190.167,193.833 190.833,181.167 191.5,168.5C 192.482,165.038 192.815,161.371 192.5,157.5C 205.915,157.507 219.248,156.507 232.5,154.5 Z"/></g>
<g><path style="opacity:0.286" fill="#cfcdc9" d="M 61.5,147.5 C 60.7739,150.179 59.9406,152.846 59,155.5C 54.8741,162.099 51.0408,168.766 47.5,175.5C 51.1573,165.519 55.824,156.185 61.5,147.5 Z"/></g>
<g><path style="opacity:0.996" fill="#4b3f3b" d="M 281.5,172.5 C 283.14,173.79 283.64,175.457 283,177.5C 281.391,178.147 279.891,178.98 278.5,180C 269.154,181.573 259.82,183.24 250.5,185C 249.533,189.401 249.2,193.901 249.5,198.5C 251.5,198.5 253.5,198.5 255.5,198.5C 253.401,199.612 251.067,200.279 248.5,200.5C 248.334,193.825 248.5,187.158 249,180.5C 249.5,180 250,179.5 250.5,179C 261.178,178.032 271.511,175.865 281.5,172.5 Z"/></g>
<g><path style="opacity:0.996" fill="#ac3422" d="M 233.5,155.5 C 234.491,161.979 234.824,168.646 234.5,175.5C 227.382,175.757 220.382,176.924 213.5,179C 209.179,179.499 204.846,179.666 200.5,179.5C 211.11,177.37 221.776,175.37 232.5,173.5C 233.496,167.537 233.829,161.537 233.5,155.5 Z"/></g>
<g><path style="opacity:0.055" fill="#d8d6d3" d="M 422.5,158.5 C 423.6,160.277 424.434,162.277 425,164.5C 426.013,171.544 427.179,178.544 428.5,185.5C 425.014,177.101 423.014,168.101 422.5,158.5 Z"/></g>
<g><path style="opacity:0.996" fill="#453f3d" d="M 234.5,189.5 C 229.965,189.645 225.632,190.478 221.5,192C 216.5,192.667 211.5,192.667 206.5,192C 203.96,190.569 201.627,188.902 199.5,187C 200.032,184.98 201.365,184.147 203.5,184.5C 206.94,186.035 210.607,186.702 214.5,186.5C 221.319,186.268 227.986,185.268 234.5,183.5C 234.5,185.5 234.5,187.5 234.5,189.5 Z"/></g>
<g><path style="opacity:0.996" fill="#9a4b39" d="M 279.5,196.5 C 273.464,196.36 267.464,196.693 261.5,197.5C 264.695,195.97 268.195,195.304 272,195.5C 274.69,195.503 277.19,195.836 279.5,196.5 Z"/></g>
<g><path style="opacity:0.047" fill="#d2d1d0" d="M 428.5,186.5 C 429.068,199.514 429.735,212.514 430.5,225.5C 429.778,225.082 429.278,224.416 429,223.5C 428.692,212.989 428.192,202.489 427.5,192C 427.506,189.967 427.839,188.134 428.5,186.5 Z"/></g>
<g><path style="opacity:0.996" fill="#463c38" d="M 281.5,203.5 C 283.039,206.272 282.373,208.439 279.5,210C 269.183,212.607 258.849,215.107 248.5,217.5C 248.5,215.833 248.5,214.167 248.5,212.5C 259.372,208.862 270.372,205.862 281.5,203.5 Z"/></g>
<g><path style="opacity:0.351" fill="#ceccc9" d="M 47.5,175.5 C 46.8951,178.127 46.3951,180.793 46,183.5C 45.0754,184.047 44.2421,184.713 43.5,185.5C 39.4131,194.348 37.5797,203.681 38,213.5C 37.7679,214.737 37.2679,215.737 36.5,216.5C 35.6446,206.536 36.8112,196.87 40,187.5C 42.1939,184.446 43.8605,181.112 45,177.5C 45.7083,176.619 46.5416,175.953 47.5,175.5 Z"/></g>
<g><path style="opacity:0.996" fill="#9d2f1e" d="M 201.5,215.5 C 210.801,216.387 220.134,216.721 229.5,216.5C 220.914,218.971 212.247,218.971 203.5,216.5C 202.508,216.672 201.842,216.338 201.5,215.5 Z"/></g>
<g><path style="opacity:0.996" fill="#44403e" d="M 203.5,216.5 C 212.247,218.971 220.914,218.971 229.5,216.5C 231.167,216.5 232.833,216.5 234.5,216.5C 234.5,218.5 234.5,220.5 234.5,222.5C 228.984,222.983 223.484,223.65 218,224.5C 213.19,223.807 208.357,223.307 203.5,223C 200.957,220.848 200.957,218.682 203.5,216.5 Z"/></g>
<g><path style="opacity:0.996" fill="#94594a" d="M 189.5,206.5 C 189.5,219.167 189.5,231.833 189.5,244.5C 190.5,244.5 191.5,244.5 192.5,244.5C 191.432,245.434 190.099,245.768 188.5,245.5C 188.171,232.323 188.505,219.323 189.5,206.5 Z"/></g>
<g><path style="opacity:0.996" fill="#9e4331" d="M 279.5,232.5 C 275.117,234.23 270.45,235.23 265.5,235.5C 269.862,233.656 274.529,232.656 279.5,232.5 Z"/></g>
<g><path style="opacity:0.996" fill="#92584b" d="M 248.5,212.5 C 248.5,214.167 248.5,215.833 248.5,217.5C 248.5,223.833 248.5,230.167 248.5,236.5C 249.833,236.5 251.167,236.5 252.5,236.5C 251.081,237.451 249.415,237.784 247.5,237.5C 247.174,228.983 247.507,220.65 248.5,212.5 Z"/></g>
<g><path style="opacity:0.996" fill="#473d3a" d="M 314.5,280.5 C 314.846,271.441 314.346,262.441 313,253.5C 310.222,250.193 306.722,248.026 302.5,247C 295.167,246.333 287.833,246.333 280.5,247C 259.034,249.678 237.701,253.012 216.5,257C 207.851,259.162 199.184,261.162 190.5,263C 188.218,265.956 185.384,268.123 182,269.5C 181.167,269.333 180.333,269.167 179.5,269C 173.622,261.308 171.288,252.808 172.5,243.5C 171.908,252.308 175.074,259.308 182,264.5C 185.347,261.656 188.847,258.989 192.5,256.5C 199.448,254.842 206.448,253.509 213.5,252.5C 218.752,252.138 223.752,251.138 228.5,249.5C 245.603,246.118 262.936,243.285 280.5,241C 286.833,240.333 293.167,240.333 299.5,241C 308.416,241.252 313.583,245.752 315,254.5C 315.824,263.343 315.657,272.01 314.5,280.5 Z"/></g>
<g><path style="opacity:0.995" fill="#141413" d="M 37.5,249.5 C 39.0174,249.511 40.1841,250.177 41,251.5C 42.815,256.674 43.9816,262.007 44.5,267.5C 44.2528,268.713 43.5862,269.38 42.5,269.5C 40.9356,265.372 39.1023,261.372 37,257.5C 36.3985,254.779 36.5651,252.113 37.5,249.5 Z"/></g>
<g><path style="opacity:0.996" fill="#643225" d="M 228.5,249.5 C 223.752,251.138 218.752,252.138 213.5,252.5C 213.918,251.778 214.584,251.278 215.5,251C 219.832,250.417 224.165,249.917 228.5,249.5 Z"/></g>
<g><path style="opacity:0.996" fill="#6a544b" d="M 339.5,246.5 C 340.124,246.917 340.457,247.584 340.5,248.5C 335.633,257.632 332.966,267.299 332.5,277.5C 332.568,269.426 333.401,261.426 335,253.5C 336.026,250.761 337.526,248.428 339.5,246.5 Z"/></g>
<g><path style="opacity:0.561" fill="#cccbc9" d="M 438.5,255.5 C 437.972,256.721 437.305,257.887 436.5,259C 438.937,260.279 439.437,261.779 438,263.5C 437.823,267.356 437.323,271.023 436.5,274.5C 436.666,270.154 436.499,265.821 436,261.5C 433.772,258.285 434.605,256.285 438.5,255.5 Z"/></g>
<g><path style="opacity:0.996" fill="#bd2b1b" d="M 281.5,298.5 C 279.069,301.416 276.069,302.083 272.5,300.5C 264.365,291.864 258.031,282.198 253.5,271.5C 252.699,269.958 252.366,268.292 252.5,266.5C 263.63,268.818 273.13,274.151 281,282.5C 282.767,287.773 282.934,293.106 281.5,298.5 Z"/></g>
<g><path style="opacity:0.996" fill="#bd2b1b" d="M 159.5,303.5 C 157.375,312.081 153.375,319.748 147.5,326.5C 145.926,327.631 144.259,327.798 142.5,327C 140.45,325.035 138.783,322.868 137.5,320.5C 137.275,315.752 137.775,311.085 139,306.5C 144.4,295.53 148.234,284.03 150.5,272C 151.784,271.316 152.951,271.483 154,272.5C 158.813,282.228 160.647,292.561 159.5,303.5 Z"/></g>
<g><path style="opacity:0.996" fill="#bd2b1b" d="M 234.5,297.5 C 232.721,301.447 229.721,302.947 225.5,302C 223.542,299.252 221.709,296.418 220,293.5C 218.081,288.004 215.914,282.671 213.5,277.5C 212.699,275.958 212.366,274.292 212.5,272.5C 221.929,273.129 229.095,277.463 234,285.5C 234.499,289.486 234.666,293.486 234.5,297.5 Z"/></g>
<g><path style="opacity:0.435" fill="#c2c1bf" d="M 36.5,216.5 C 34.7349,219.537 35.4015,221.87 38.5,223.5C 37.5197,224.981 36.353,226.315 35,227.5C 33.122,234.619 34.2887,241.286 38.5,247.5C 38.1373,248.183 37.8039,248.85 37.5,249.5C 36.5651,252.113 36.3985,254.779 37,257.5C 39.1023,261.372 40.9356,265.372 42.5,269.5C 43.072,270.973 43.9054,272.307 45,273.5C 45.3339,281.845 45.8339,290.178 46.5,298.5C 48.5502,309.249 50.2168,319.916 51.5,330.5C 52.7054,337.194 54.0388,343.86 55.5,350.5C 53.8714,348.142 52.7048,345.476 52,342.5C 47.2272,319.739 44.2272,296.739 43,273.5C 40.4748,268.921 38.1414,264.254 36,259.5C 35.3035,255.465 35.4701,251.465 36.5,247.5C 34.0925,243.265 32.4258,238.765 31.5,234C 31.8333,230 33.5,226.667 36.5,224C 32.543,221.36 32.543,218.86 36.5,216.5 Z"/></g>
<g><path style="opacity:0.996" fill="#be291a" d="M 192.5,288.5 C 192.151,291.045 192.984,293.045 195,294.5C 195.499,298.486 195.666,302.486 195.5,306.5C 194.172,310.254 191.506,311.421 187.5,310C 181.794,300.683 178.794,290.516 178.5,279.5C 180.881,278.17 183.214,278.336 185.5,280C 188.447,282.436 190.78,285.269 192.5,288.5 Z"/></g>
<g><path style="opacity:0.637" fill="#cbc9c5" d="M 436.5,274.5 C 434.652,285.535 432.985,296.535 431.5,307.5C 431.5,303.833 431.5,300.167 431.5,296.5C 433.358,289.048 435.024,281.714 436.5,274.5 Z"/></g>
<g><path style="opacity:0.996" fill="#49403d" d="M 253.5,271.5 C 258.031,282.198 264.365,291.864 272.5,300.5C 276.069,302.083 279.069,301.416 281.5,298.5C 282.124,305.38 279.124,308.214 272.5,307C 266.05,299.264 260.217,291.097 255,282.5C 254.281,278.855 253.781,275.188 253.5,271.5 Z"/></g>
<g><path style="opacity:0.996" fill="#080807" d="M 431.5,296.5 C 431.5,300.167 431.5,303.833 431.5,307.5C 424.762,320.298 417.929,333.298 411,346.5C 409.54,349.748 408.374,353.081 407.5,356.5C 406.624,356.369 405.957,356.702 405.5,357.5C 404.462,360.469 402.962,363.136 401,365.5C 400.502,368.482 400.335,371.482 400.5,374.5C 396.781,374.002 393.447,374.836 390.5,377C 384.323,384.344 377.656,391.177 370.5,397.5C 358.673,405.914 346.673,414.081 334.5,422C 329.199,426.3 324.199,430.966 319.5,436C 316.582,436.716 313.915,436.216 311.5,434.5C 305.282,439.498 298.282,440.831 290.5,438.5C 289.391,437.71 288.058,437.21 286.5,437C 272.963,436.126 259.629,436.626 246.5,438.5C 238.399,438.827 230.399,438.161 222.5,436.5C 220.545,435.677 218.545,435.51 216.5,436C 209.685,440.043 202.352,442.876 194.5,444.5C 189.473,444.497 184.473,444.164 179.5,443.5C 167.262,438.019 154.928,432.686 142.5,427.5C 141.535,424.68 139.535,423.347 136.5,423.5C 132.698,419.763 128.365,416.763 123.5,414.5C 119.321,409.451 115.154,404.451 111,399.5C 111.874,394.247 109.707,391.58 104.5,391.5C 104.167,391.5 103.833,391.5 103.5,391.5C 101.012,389.612 98.0122,388.945 94.5,389.5C 94.5,387.5 94.5,385.5 94.5,383.5C 93.209,383.263 92.209,383.596 91.5,384.5C 90.6136,385.776 89.6136,385.776 88.5,384.5C 85.9341,378.721 81.6008,375.054 75.5,373.5C 74.7377,371.738 73.4044,370.738 71.5,370.5C 68.482,366.983 65.3153,363.65 62,360.5C 61.3486,358.765 61.5153,357.098 62.5,355.5C 59.8761,354.205 57.5427,352.538 55.5,350.5C 54.0388,343.86 52.7054,337.194 51.5,330.5C 51.369,329.761 51.5357,329.094 52,328.5C 53.3635,331.363 55.5302,333.363 58.5,334.5C 58.8867,336.731 59.0534,339.064 59,341.5C 65.6638,348.508 73.1638,354.341 81.5,359C 83.0316,361.034 84.3649,363.201 85.5,365.5C 87.0453,366.452 88.712,366.785 90.5,366.5C 90.4208,367.93 90.7542,369.264 91.5,370.5C 96.9379,371.197 102.271,372.363 107.5,374C 108.131,377.529 108.964,381.029 110,384.5C 115.546,390.713 121.712,396.213 128.5,401C 143.892,410.364 159.892,418.697 176.5,426C 182.804,427.593 189.137,427.76 195.5,426.5C 203.449,424.075 211.116,421.075 218.5,417.5C 229.316,421.33 240.316,422.33 251.5,420.5C 264.835,419.198 278.168,419.198 291.5,420.5C 296.75,421.615 302.083,421.781 307.5,421C 309.333,419.167 311.167,417.333 313,415.5C 315.401,416.967 317.901,417.801 320.5,418C 326.66,412.342 332.994,406.842 339.5,401.5C 352.314,392.922 364.98,384.089 377.5,375C 383.532,369.302 389.199,363.302 394.5,357C 397.393,355.851 400.393,355.351 403.5,355.5C 403.336,352.813 403.503,350.146 404,347.5C 412.209,330.75 420.709,314.083 429.5,297.5C 429.957,296.702 430.624,296.369 431.5,296.5 Z"/></g>
<g><path style="opacity:0.996" fill="#a53a28" d="M 192.5,288.5 C 196.29,293.389 197.957,299.056 197.5,305.5C 196.833,305.833 196.167,306.167 195.5,306.5C 195.666,302.486 195.499,298.486 195,294.5C 192.984,293.045 192.151,291.045 192.5,288.5 Z"/></g>
<g><path style="opacity:0.996" fill="#4a3e3a" d="M 213.5,277.5 C 215.914,282.671 218.081,288.004 220,293.5C 221.709,296.418 223.542,299.252 225.5,302C 229.721,302.947 232.721,301.447 234.5,297.5C 234.662,299.527 234.495,301.527 234,303.5C 232.615,304.551 231.615,305.884 231,307.5C 229.274,308.576 227.441,308.743 225.5,308C 218.66,298.985 214.66,288.818 213.5,277.5 Z"/></g>
<g><path style="opacity:0.996" fill="#554843" d="M 178.5,279.5 C 178.794,290.516 181.794,300.683 187.5,310C 191.506,311.421 194.172,310.254 195.5,306.5C 196.167,306.167 196.833,305.833 197.5,305.5C 198.672,311.949 196.172,315.616 190,316.5C 188.289,316.561 186.956,315.894 186,314.5C 179.826,303.488 177.326,291.821 178.5,279.5 Z"/></g>
<g><path style="opacity:0.251" fill="#a0a0a0" d="M 431.5,307.5 C 429.908,313.356 427.742,319.023 425,324.5C 419.392,335.389 413.559,346.056 407.5,356.5C 408.374,353.081 409.54,349.748 411,346.5C 417.929,333.298 424.762,320.298 431.5,307.5 Z"/></g>
<g><path style="opacity:0.996" fill="#49413e" d="M 159.5,303.5 C 158.834,315.065 154.501,324.899 146.5,333C 143.692,333.92 141.525,333.087 140,330.5C 138.241,327.392 137.408,324.059 137.5,320.5C 138.783,322.868 140.45,325.035 142.5,327C 144.259,327.798 145.926,327.631 147.5,326.5C 153.375,319.748 157.375,312.081 159.5,303.5 Z"/></g>
<g><path style="opacity:0.996" fill="#493d3a" d="M 328.5,304.5 C 326.468,325.062 318.135,342.562 303.5,357C 298.899,360.25 293.899,362.417 288.5,363.5C 285.865,346.902 278.032,333.235 265,322.5C 264.517,321.552 264.351,320.552 264.5,319.5C 265.5,319.5 266.5,319.5 267.5,319.5C 278.886,329.264 285.886,341.597 288.5,356.5C 290.074,357.631 291.741,357.798 293.5,357C 297.487,354.767 301.487,352.433 305.5,350C 317.839,337.171 325.505,322.004 328.5,304.5 Z"/></g>
<g><path style="opacity:0.043" fill="#b3b3b3" d="M 55.5,350.5 C 57.5427,352.538 59.8761,354.205 62.5,355.5C 61.5153,357.098 61.3486,358.765 62,360.5C 65.3153,363.65 68.482,366.983 71.5,370.5C 67.2628,367.772 63.4294,364.439 60,360.5C 59.2797,358.888 59.4464,357.388 60.5,356C 57.921,354.924 56.2543,353.091 55.5,350.5 Z"/></g>
<g><path style="opacity:0.145" fill="#adadad" d="M 71.5,370.5 C 73.4044,370.738 74.7377,371.738 75.5,373.5C 73.5956,373.262 72.2623,372.262 71.5,370.5 Z"/></g>
<g><path style="opacity:0.137" fill="#aaaaaa" d="M 75.5,373.5 C 81.6008,375.054 85.9341,378.721 88.5,384.5C 89.6136,385.776 90.6136,385.776 91.5,384.5C 93.3079,385.918 93.9746,387.918 93.5,390.5C 92.71,389.391 92.21,388.058 92,386.5C 90.9505,387.517 89.7839,387.684 88.5,387C 87,384.833 85.5,382.667 84,380.5C 80.9772,378.302 78.1438,375.969 75.5,373.5 Z"/></g>
<g><path style="opacity:0.549" fill="#707070" d="M 91.5,384.5 C 92.209,383.596 93.209,383.263 94.5,383.5C 94.5,385.5 94.5,387.5 94.5,389.5C 98.0122,388.945 101.012,389.612 103.5,391.5C 99.9581,391.813 96.6248,391.479 93.5,390.5C 93.9746,387.918 93.3079,385.918 91.5,384.5 Z"/></g>
<g><path style="opacity:0.298" fill="#929292" d="M 104.5,391.5 C 109.707,391.58 111.874,394.247 111,399.5C 115.154,404.451 119.321,409.451 123.5,414.5C 114.79,410.769 109.79,404.102 108.5,394.5C 107.099,393.479 105.765,392.479 104.5,391.5 Z"/></g>
<g><path style="opacity:0.122" fill="#909090" d="M 123.5,414.5 C 128.365,416.763 132.698,419.763 136.5,423.5C 133.391,422.227 130.391,420.727 127.5,419C 125.959,417.629 124.625,416.129 123.5,414.5 Z"/></g>
<g><path style="opacity:0.996" fill="#444340" d="M 291.5,420.5 C 278.168,419.198 264.835,419.198 251.5,420.5C 263.286,418.563 275.286,418.063 287.5,419C 289.058,419.21 290.391,419.71 291.5,420.5 Z"/></g>
<g><path style="opacity:0.122" fill="#acacac" d="M 407.5,356.5 C 406.342,360.806 404.509,364.806 402,368.5C 401.503,370.81 401.337,373.143 401.5,375.5C 397.113,374.895 393.446,376.229 390.5,379.5C 384.992,386.841 378.658,393.341 371.5,399C 360.446,407.049 349.113,414.716 337.5,422C 331.459,427.343 325.459,432.676 319.5,438C 316.725,438.778 314.225,438.278 312,436.5C 308.563,439.553 304.563,441.219 300,441.5C 280.252,438.229 260.418,437.896 240.5,440.5C 237.314,440.498 234.314,440.165 231.5,439.5C 236.695,439.821 241.695,439.487 246.5,438.5C 261.176,437.353 275.843,437.353 290.5,438.5C 298.282,440.831 305.282,439.498 311.5,434.5C 313.915,436.216 316.582,436.716 319.5,436C 324.199,430.966 329.199,426.3 334.5,422C 346.673,414.081 358.673,405.914 370.5,397.5C 377.656,391.177 384.323,384.344 390.5,377C 393.447,374.836 396.781,374.002 400.5,374.5C 400.335,371.482 400.502,368.482 401,365.5C 402.962,363.136 404.462,360.469 405.5,357.5C 405.957,356.702 406.624,356.369 407.5,356.5 Z"/></g>
<g><path style="opacity:0.165" fill="#9e9e9e" d="M 136.5,423.5 C 139.535,423.347 141.535,424.68 142.5,427.5C 140.147,426.66 138.147,425.326 136.5,423.5 Z"/></g>
<g><path style="opacity:0.588" fill="#4e4e4e" d="M 290.5,438.5 C 275.843,437.353 261.176,437.353 246.5,438.5C 259.629,436.626 272.963,436.126 286.5,437C 288.058,437.21 289.391,437.71 290.5,438.5 Z"/></g>
<g><path style="opacity:0.122" fill="#adadad" d="M 142.5,427.5 C 154.928,432.686 167.262,438.019 179.5,443.5C 182.186,444.991 185.186,445.657 188.5,445.5C 190.696,445.495 192.696,445.162 194.5,444.5C 202.352,442.876 209.685,440.043 216.5,436C 218.545,435.51 220.545,435.677 222.5,436.5C 222.833,437.167 223.167,437.833 223.5,438.5C 221.94,438.481 220.44,438.148 219,437.5C 212.022,440.737 204.855,443.57 197.5,446C 191.833,446.667 186.167,446.667 180.5,446C 167.26,440.906 154.594,434.739 142.5,427.5 Z"/></g>
<g><path style="opacity:0.598" fill="#717171" d="M 222.5,436.5 C 230.399,438.161 238.399,438.827 246.5,438.5C 241.695,439.487 236.695,439.821 231.5,439.5C 228.615,439.806 225.948,439.473 223.5,438.5C 223.167,437.833 222.833,437.167 222.5,436.5 Z"/></g>
<g><path style="opacity:0.633" fill="#4d4d4d" d="M 179.5,443.5 C 184.473,444.164 189.473,444.497 194.5,444.5C 192.696,445.162 190.696,445.495 188.5,445.5C 185.186,445.657 182.186,444.991 179.5,443.5 Z"/></g>
</svg>
