<?xml version="1.0" encoding="UTF-8"?>
<!DOCTYPE svg PUBLIC "-//W3C//DTD SVG 1.1//EN" "http://www.w3.org/Graphics/SVG/1.1/DTD/svg11.dtd">
<svg xmlns="http://www.w3.org/2000/svg" version="1.1" width="60px" height="60px" style="shape-rendering:geometricPrecision; text-rendering:geometricPrecision; image-rendering:optimizeQuality; fill-rule:evenodd; clip-rule:evenodd" xmlns:xlink="http://www.w3.org/1999/xlink">
<g><path style="opacity:1" fill="#000000" d="M 18.5,3.5 C 25.8409,3.33368 33.1742,3.50034 40.5,4C 45.3333,8.83333 50.1667,13.6667 55,18.5C 55.6667,25.8333 55.6667,33.1667 55,40.5C 50.1667,45.3333 45.3333,50.1667 40.5,55C 33.1667,55.6667 25.8333,55.6667 18.5,55C 13.6667,50.1667 8.83333,45.3333 4,40.5C 3.33333,33.1667 3.33333,25.8333 4,18.5C 9.03651,13.6313 13.8698,8.63128 18.5,3.5 Z"/></g>
<g><path style="opacity:1" fill="#817f7f" d="M 19.5,5.5 C 26.175,5.33375 32.8417,5.50042 39.5,6C 44,10.5 48.5,15 53,19.5C 53.6667,26.1667 53.6667,32.8333 53,39.5C 48.5,44 44,48.5 39.5,53C 32.8333,53.6667 26.1667,53.6667 19.5,53C 15,48.5 10.5,44 6,39.5C 5.33333,32.8333 5.33333,26.1667 6,19.5C 10.7033,14.9645 15.2033,10.2979 19.5,5.5 Z"/></g>
<g><path style="opacity:1" fill="#fa0c07" d="M 22.5,13.5 C 26.753,13.566 27.4197,15.066 24.5,18C 31.1583,18.4996 37.825,18.6663 44.5,18.5C 44.8933,24.678 44.0599,30.678 42,36.5C 39.4355,38.1793 36.6021,38.846 33.5,38.5C 33.67,37.1779 33.3366,36.0113 32.5,35C 34.764,34.7638 36.9307,34.2638 39,33.5C 40.1564,29.5817 40.6564,25.5817 40.5,21.5C 34.1579,21.3338 27.8246,21.5005 21.5,22C 21.1667,22.3333 20.8333,22.6667 20.5,23C 25.4889,23.4993 30.4889,23.6659 35.5,23.5C 35.5,26.8333 35.5,30.1667 35.5,33.5C 31.5,33.5 27.5,33.5 23.5,33.5C 23.5,35.8333 23.5,38.1667 23.5,40.5C 29.8421,40.6662 36.1754,40.4995 42.5,40C 43.459,35.6998 45.1257,35.3664 47.5,39C 47.0097,40.982 46.0097,42.6487 44.5,44C 36.8333,44.6667 29.1667,44.6667 21.5,44C 21,43.5 20.5,43 20,42.5C 19.6667,37.1667 19.3333,31.8333 19,26.5C 17.2495,29.9942 15.4162,30.1608 13.5,27C 17.5371,23.141 20.5371,18.641 22.5,13.5 Z"/></g>
<g><path style="opacity:1" fill="#7f807f" d="M 23.5,27.5 C 26.5,27.5 29.5,27.5 32.5,27.5C 32.5,28.5 32.5,29.5 32.5,30.5C 29.5,30.5 26.5,30.5 23.5,30.5C 23.5,29.5 23.5,28.5 23.5,27.5 Z"/></g>
</svg>
