<?xml version="1.0" encoding="UTF-8"?>
<!DOCTYPE svg PUBLIC "-//W3C//DTD SVG 1.1//EN" "http://www.w3.org/Graphics/SVG/1.1/DTD/svg11.dtd">
<svg xmlns="http://www.w3.org/2000/svg" version="1.1" width="469px" height="463px" style="shape-rendering:geometricPrecision; text-rendering:geometricPrecision; image-rendering:optimizeQuality; fill-rule:evenodd; clip-rule:evenodd" xmlns:xlink="http://www.w3.org/1999/xlink">
<g><path style="opacity:0.996" fill="#97948e" d="M 283.5,52.5 C 290.086,54.4419 296.753,56.4419 303.5,58.5C 307.42,59.1266 310.753,60.7933 313.5,63.5C 314.452,64.452 315.452,65.452 316.5,66.5C 324.181,69.8598 331.848,73.1931 339.5,76.5C 350.083,82.0876 358.749,89.7543 365.5,99.5C 363.11,104.873 364.777,108.373 370.5,110C 373.482,110.498 376.482,110.665 379.5,110.5C 379.5,112.5 379.5,114.5 379.5,116.5C 381.401,116.567 383.234,116.233 385,115.5C 386.677,117.005 388.511,118.338 390.5,119.5C 395.469,122.478 400.135,125.811 404.5,129.5C 407.028,133.38 410.028,137.046 413.5,140.5C 414.734,142.398 414.401,144.065 412.5,145.5C 414.73,146.783 417.063,147.783 419.5,148.5C 422.864,154.283 424.531,160.617 424.5,167.5C 426.987,184.049 428.154,200.715 428,217.5C 428.21,219.058 428.71,220.391 429.5,221.5C 432.686,228.2 436.186,234.867 440,241.5C 440.49,242.793 440.657,244.127 440.5,245.5C 439.634,249.745 437.968,253.745 435.5,257.5C 436.139,260.322 436.472,262.989 436.5,265.5C 437.082,267.669 437.082,270.002 436.5,272.5C 435.883,272.611 435.383,272.944 435,273.5C 434.984,280.811 433.817,287.811 431.5,294.5C 429.567,295.642 428.067,297.308 427,299.5C 419.854,315.126 412.187,330.46 404,345.5C 403.503,348.146 403.336,350.813 403.5,353.5C 400.393,353.351 397.393,353.851 394.5,355C 389.199,361.302 383.532,367.302 377.5,373C 362.778,384.055 347.778,394.722 332.5,405C 328.174,408.326 324.174,411.993 320.5,416C 317.364,417.041 314.864,416.207 313,413.5C 311.629,415.041 310.129,416.375 308.5,417.5C 292.42,416.679 276.42,416.679 260.5,417.5C 246.424,418.008 232.424,417.341 218.5,415.5C 216.645,415.34 215.312,416.007 214.5,417.5C 207.968,420.262 201.302,422.762 194.5,425C 181.401,426.477 169.734,423.144 159.5,415C 145.653,410.078 132.986,403.078 121.5,394C 117.366,390.943 113.699,387.443 110.5,383.5C 108.906,380.009 108.239,376.342 108.5,372.5C 103.085,370.284 97.4182,369.117 91.5,369C 90.6198,367.644 90.2865,366.144 90.5,364.5C 88.712,364.785 87.0453,364.452 85.5,363.5C 84.1966,361.063 82.5299,358.896 80.5,357C 72.3606,352.494 65.1939,346.66 59,339.5C 58.3486,337.765 58.5153,336.098 59.5,334.5C 56.4782,332.312 53.9782,329.645 52,326.5C 51.8281,329.826 51.9947,333.159 52.5,336.5C 52.1667,336.5 51.8333,336.5 51.5,336.5C 51.1667,334.5 50.8333,332.5 50.5,330.5C 50.495,327.468 50.1616,324.468 49.5,321.5C 49.3601,319.97 48.6935,318.97 47.5,318.5C 47.5,315.833 47.5,313.167 47.5,310.5C 46.0223,297.716 44.689,285.05 43.5,272.5C 40.7581,268.019 38.2581,263.353 36,258.5C 35.879,252.76 35.7123,247.093 35.5,241.5C 34.6072,238.32 33.6072,235.154 32.5,232C 33.8031,229.256 34.8031,226.423 35.5,223.5C 35.6107,222.883 35.944,222.383 36.5,222C 35.0096,221.255 34.0096,220.088 33.5,218.5C 33.7472,217.287 34.4138,216.62 35.5,216.5C 36.1499,216.196 36.8165,215.863 37.5,215.5C 38.8194,208.01 38.8194,200.677 37.5,193.5C 37.5,192.833 37.8333,192.5 38.5,192.5C 41.1178,186.605 44.2845,180.938 48,175.5C 48.49,174.207 48.6567,172.873 48.5,171.5C 52.32,162.527 56.6533,153.86 61.5,145.5C 67.7799,140.467 70.4466,133.8 69.5,125.5C 73.7754,126.25 77.1087,124.917 79.5,121.5C 79.5,120.167 80.1667,119.5 81.5,119.5C 87.9085,113.758 93.9085,107.758 99.5,101.5C 109.925,93.7761 120.592,86.2761 131.5,79C 137.934,73.8062 144.267,68.6396 150.5,63.5C 153.104,62.4696 155.771,62.4696 158.5,63.5C 160.149,62.5272 161.816,61.5272 163.5,60.5C 170.482,59.4589 177.482,59.4589 184.5,60.5C 186.167,60.5 187.833,60.5 189.5,60.5C 189.918,61.2216 190.584,61.7216 191.5,62C 204.167,62.3487 216.834,62.182 229.5,61.5C 237.743,61.3457 245.91,62.0123 254,63.5C 258.074,63.2171 261.241,61.5504 263.5,58.5C 264.6,57.4415 265.934,56.6082 267.5,56C 272.7,54.2598 278.034,53.0931 283.5,52.5 Z"/></g>
<g><path style="opacity:0.071" fill="#c9c8c5" d="M 283.5,52.5 C 290.955,52.3776 297.622,54.3776 303.5,58.5C 296.753,56.4419 290.086,54.4419 283.5,52.5 Z"/></g>
<g><path style="opacity:0.09" fill="#d7d6d3" d="M 184.5,60.5 C 177.482,59.4589 170.482,59.4589 163.5,60.5C 163.918,59.7784 164.584,59.2784 165.5,59C 172.076,58.1593 178.409,58.6593 184.5,60.5 Z"/></g>
<g><path style="opacity:0.902" fill="#b7b5b0" d="M 263.5,58.5 C 261.241,61.5504 258.074,63.2171 254,63.5C 245.91,62.0123 237.743,61.3457 229.5,61.5C 216.834,62.182 204.167,62.3487 191.5,62C 190.584,61.7216 189.918,61.2216 189.5,60.5C 192.219,60.3975 194.885,60.7308 197.5,61.5C 213.453,59.7349 229.453,59.2349 245.5,60C 248.393,60.6309 251.226,61.4642 254,62.5C 257.035,60.8766 260.201,59.5433 263.5,58.5 Z"/></g>
<g><path style="opacity:0.267" fill="#dbdad8" d="M 158.5,63.5 C 155.771,62.4696 153.104,62.4696 150.5,63.5C 150.484,61.5159 151.484,60.5159 153.5,60.5C 155.692,60.7573 157.359,61.7573 158.5,63.5 Z"/></g>
<g><path style="opacity:0.424" fill="#c7c5c3" d="M 313.5,63.5 C 322.674,66.7535 331.34,71.0868 339.5,76.5C 331.848,73.1931 324.181,69.8598 316.5,66.5C 315.452,65.452 314.452,64.452 313.5,63.5 Z"/></g>
<g><path style="opacity:0.996" fill="#326e23" d="M 231.5,120.5 C 227.548,123.785 223.881,127.452 220.5,131.5C 222.46,132.519 224.46,132.519 226.5,131.5C 231.978,131.631 237.311,130.798 242.5,129C 248.844,126.826 255.177,124.66 261.5,122.5C 269.852,124.009 277.518,127.176 284.5,132C 287.114,134.243 287.114,136.41 284.5,138.5C 280.873,139.429 277.207,140.263 273.5,141C 261.533,147.629 250.7,155.796 241,165.5C 240.833,165.833 240.667,166.167 240.5,166.5C 242.045,167.452 243.712,167.785 245.5,167.5C 256.801,166.42 267.801,164.254 278.5,161C 282.905,160.304 287.239,160.637 291.5,162C 300.143,166.303 307.976,171.803 315,178.5C 315.678,180.598 315.511,182.598 314.5,184.5C 309.639,185.62 305.306,187.786 301.5,191C 292.777,200.058 283.777,208.725 274.5,217C 272.167,217.667 269.833,217.667 267.5,217C 266.248,214.308 264.248,212.475 261.5,211.5C 251.457,210.121 241.457,210.454 231.5,212.5C 228.059,212.301 224.726,212.801 221.5,214C 217.033,219.468 212.2,224.635 207,229.5C 206.51,230.793 206.343,232.127 206.5,233.5C 207.5,233.5 208.5,233.5 209.5,233.5C 216.437,237.641 223.437,241.807 230.5,246C 236.302,250.135 241.802,254.635 247,259.5C 260.616,249.552 272.616,237.885 283,224.5C 283.834,221.828 284.668,219.161 285.5,216.5C 288.446,215.345 291.446,215.179 294.5,216C 298.581,218.702 302.914,221.036 307.5,223C 310.086,225.494 310.086,227.994 307.5,230.5C 302.82,232.564 298.154,234.73 293.5,237C 282.2,244.321 270.867,251.654 259.5,259C 258.62,260.356 258.286,261.856 258.5,263.5C 259.5,263.5 260.5,263.5 261.5,263.5C 261.369,264.376 261.702,265.043 262.5,265.5C 298.928,284.862 337.928,295.695 379.5,298C 380.357,298.689 381.023,299.522 381.5,300.5C 380.133,301.84 378.8,303.173 377.5,304.5C 363.068,307.145 348.735,309.979 334.5,313C 326.173,314.315 318.173,313.315 310.5,310C 291.882,296.383 273.549,282.383 255.5,268C 254.517,267.409 253.85,267.743 253.5,269C 253.831,271.878 255.164,274.044 257.5,275.5C 260.185,285.722 262.352,296.056 264,306.5C 264.558,314.515 264.391,322.515 263.5,330.5C 259.78,339.106 255.28,347.44 250,355.5C 247.073,359.099 243.573,361.933 239.5,364C 237.421,364.808 235.421,364.641 233.5,363.5C 231.527,360.36 229.36,357.36 227,354.5C 222.926,349.593 218.092,345.593 212.5,342.5C 211.699,340.958 211.366,339.292 211.5,337.5C 218.841,337.666 226.174,337.5 233.5,337C 238.872,337.068 242.372,334.568 244,329.5C 247.094,320.79 248.26,311.79 247.5,302.5C 247.682,292.923 245.516,283.923 241,275.5C 239.951,274.483 238.784,274.316 237.5,275C 215.972,301.568 189.639,321.568 158.5,335C 155.207,335.826 151.874,336.326 148.5,336.5C 146.833,336.5 145.167,336.5 143.5,336.5C 143.286,334.856 143.62,333.356 144.5,332C 172.62,318.903 197.12,300.736 218,277.5C 221.752,272.982 225.252,268.316 228.5,263.5C 230.942,261.861 231.109,259.861 229,257.5C 226.726,253.848 223.559,252.015 219.5,252C 210.091,263.041 199.425,272.707 187.5,281C 178.135,286.015 168.802,291.015 159.5,296C 155.582,297.156 151.582,297.656 147.5,297.5C 146.197,295.243 146.864,293.41 149.5,292C 169.97,281.334 188.47,267.834 205,251.5C 206.094,249.922 206.928,248.255 207.5,246.5C 210.076,246.278 210.91,244.945 210,242.5C 206.825,239.915 203.491,237.581 200,235.5C 187.314,245.676 173.48,254.009 158.5,260.5C 157.5,260.5 156.5,260.5 155.5,260.5C 155.423,257.988 156.423,255.988 158.5,254.5C 172.743,244.919 186.076,234.253 198.5,222.5C 200.167,221.5 201.5,220.167 202.5,218.5C 204.048,218.179 204.715,217.179 204.5,215.5C 200.165,215.917 195.832,216.417 191.5,217C 190.177,217.816 189.511,218.983 189.5,220.5C 187.504,222.333 185.171,222.833 182.5,222C 178.363,210.066 171.696,199.732 162.5,191C 159.631,189.404 156.964,187.57 154.5,185.5C 152.478,183.581 152.144,181.414 153.5,179C 158.524,178.335 163.524,178.502 168.5,179.5C 187.71,175.902 207.044,173.069 226.5,171C 234.286,162.571 240.953,153.405 246.5,143.5C 247.931,142.22 248.598,140.553 248.5,138.5C 236.501,139.618 224.501,139.785 212.5,139C 200.425,150.913 186.425,159.747 170.5,165.5C 168.656,164.796 168.156,163.463 169,161.5C 181.368,150.799 192.701,139.133 203,126.5C 205.897,121.625 207.23,116.292 207,110.5C 207.5,110 208,109.5 208.5,109C 212.211,108.175 215.878,108.341 219.5,109.5C 223.815,111.38 228.148,113.046 232.5,114.5C 232.675,116.621 232.341,118.621 231.5,120.5 Z"/></g>
<g><path style="opacity:0.995" fill="#bcbab6" d="M 365.5,99.5 C 365.244,101.792 365.577,103.959 366.5,106C 371.627,108.115 376.96,109.282 382.5,109.5C 382.176,112.694 383.342,113.694 386,112.5C 388.02,114.551 389.52,116.884 390.5,119.5C 388.511,118.338 386.677,117.005 385,115.5C 383.234,116.233 381.401,116.567 379.5,116.5C 379.5,114.5 379.5,112.5 379.5,110.5C 376.482,110.665 373.482,110.498 370.5,110C 364.777,108.373 363.11,104.873 365.5,99.5 Z"/></g>
<g><path style="opacity:0.235" fill="#d4d2d0" d="M 99.5,101.5 C 93.9085,107.758 87.9085,113.758 81.5,119.5C 86.4789,112.521 92.4789,106.521 99.5,101.5 Z"/></g>
<g><path style="opacity:0.996" fill="#3c423b" d="M 231.5,120.5 C 231.662,122.527 231.495,124.527 231,126.5C 229.293,128.037 227.793,129.704 226.5,131.5C 224.46,132.519 222.46,132.519 220.5,131.5C 223.881,127.452 227.548,123.785 231.5,120.5 Z"/></g>
<g><path style="opacity:0.059" fill="#d4d3d1" d="M 404.5,129.5 C 408.464,132.963 412.298,136.63 416,140.5C 416.595,141.899 416.428,143.232 415.5,144.5C 416.867,145.84 418.2,147.173 419.5,148.5C 417.063,147.783 414.73,146.783 412.5,145.5C 414.401,144.065 414.734,142.398 413.5,140.5C 410.028,137.046 407.028,133.38 404.5,129.5 Z"/></g>
<g><path style="opacity:0.996" fill="#3e413d" d="M 246.5,143.5 C 245.244,143.461 244.244,143.961 243.5,145C 232.791,145.235 222.124,145.401 211.5,145.5C 199.438,158.026 185.105,166.693 168.5,171.5C 168.253,169.142 168.919,167.142 170.5,165.5C 186.425,159.747 200.425,150.913 212.5,139C 224.501,139.785 236.501,139.618 248.5,138.5C 248.598,140.553 247.931,142.22 246.5,143.5 Z"/></g>
<g><path style="opacity:0.996" fill="#3c413a" d="M 284.5,138.5 C 285.666,140.166 285.666,141.833 284.5,143.5C 269.694,148.728 256.694,156.728 245.5,167.5C 243.712,167.785 242.045,167.452 240.5,166.5C 240.667,166.167 240.833,165.833 241,165.5C 250.7,155.796 261.533,147.629 273.5,141C 277.207,140.263 280.873,139.429 284.5,138.5 Z"/></g>
<g><path style="opacity:0.549" fill="#ccc9c5" d="M 79.5,121.5 C 77.1087,124.917 73.7754,126.25 69.5,125.5C 70.4466,133.8 67.7799,140.467 61.5,145.5C 62.7951,141.577 64.6284,137.91 67,134.5C 68.1989,131.274 68.6989,127.941 68.5,124.5C 70.5273,124.662 72.5273,124.495 74.5,124C 76.0779,122.906 77.7446,122.072 79.5,121.5 Z"/></g>
<g><path style="opacity:0.996" fill="#3b3d3a" d="M 283.5,181.5 C 282.5,181.5 281.5,181.5 280.5,181.5C 266.574,180.274 252.574,180.941 238.5,183.5C 236.273,182.599 235.273,180.933 235.5,178.5C 251.104,176.493 266.771,175.66 282.5,176C 284.553,177.678 284.887,179.511 283.5,181.5 Z"/></g>
<g><path style="opacity:0.996" fill="#666561" d="M 280.5,181.5 C 266.431,181.648 252.431,182.648 238.5,184.5C 238.5,184.167 238.5,183.833 238.5,183.5C 252.574,180.941 266.574,180.274 280.5,181.5 Z"/></g>
<g><path style="opacity:0.996" fill="#3b3f3a" d="M 220.5,186.5 C 207.372,187.966 194.372,189.966 181.5,192.5C 179.654,190.97 178.654,188.97 178.5,186.5C 193.27,185.154 207.936,183.154 222.5,180.5C 222.747,182.858 222.081,184.858 220.5,186.5 Z"/></g>
<g><path style="opacity:0.996" fill="#95938c" d="M 280.5,181.5 C 281.5,181.5 282.5,181.5 283.5,181.5C 280.955,189.756 276.955,197.256 271.5,204C 258.777,202.923 246.111,203.423 233.5,205.5C 234.305,202.183 236.139,199.517 239,197.5C 239.495,195.527 239.662,193.527 239.5,191.5C 239.702,189.05 239.369,186.717 238.5,184.5C 252.431,182.648 266.431,181.648 280.5,181.5 Z"/></g>
<g><path style="opacity:0.278" fill="#cccac7" d="M 48.5,171.5 C 48.6567,172.873 48.49,174.207 48,175.5C 44.2845,180.938 41.1178,186.605 38.5,192.5C 38.687,190.436 39.187,188.436 40,186.5C 42.3765,181.162 45.2098,176.162 48.5,171.5 Z"/></g>
<g><path style="opacity:0.996" fill="#414540" d="M 154.5,185.5 C 156.964,187.57 159.631,189.404 162.5,191C 171.696,199.732 178.363,210.066 182.5,222C 185.171,222.833 187.504,222.333 189.5,220.5C 193.739,219.465 198.072,218.799 202.5,218.5C 201.5,220.167 200.167,221.5 198.5,222.5C 196.143,222.337 193.81,222.503 191.5,223C 190.167,224.667 188.833,226.333 187.5,228C 185.833,228.667 184.167,228.667 182.5,228C 178.293,220.73 174.46,213.23 171,205.5C 165.927,199.756 160.26,194.756 154,190.5C 153.22,188.613 153.387,186.946 154.5,185.5 Z"/></g>
<g><path style="opacity:0.996" fill="#93928a" d="M 220.5,186.5 C 219.446,194.669 216.446,202.003 211.5,208.5C 204.635,210.029 197.801,211.695 191,213.5C 190.228,213.355 189.561,213.022 189,212.5C 187.401,205.391 184.901,198.725 181.5,192.5C 194.372,189.966 207.372,187.966 220.5,186.5 Z"/></g>
<g><path style="opacity:0.996" fill="#3d473a" d="M 239.5,191.5 C 239.662,193.527 239.495,195.527 239,197.5C 236.139,199.517 234.305,202.183 233.5,205.5C 232.292,206.234 230.959,206.567 229.5,206.5C 231.231,200.435 234.564,195.435 239.5,191.5 Z"/></g>
<g><path style="opacity:0.431" fill="#d0cecc" d="M 37.5,193.5 C 38.8194,200.677 38.8194,208.01 37.5,215.5C 36.8165,215.863 36.1499,216.196 35.5,216.5C 36.1667,208.833 36.8333,201.167 37.5,193.5 Z"/></g>
<g><path style="opacity:0.462" fill="#d2d0cd" d="M 424.5,167.5 C 426.602,172.499 427.769,177.832 428,183.5C 428.899,196.153 429.399,208.82 429.5,221.5C 428.71,220.391 428.21,219.058 428,217.5C 428.154,200.715 426.987,184.049 424.5,167.5 Z"/></g>
<g><path style="opacity:0.996" fill="#33502f" d="M 261.5,211.5 C 251.497,211.75 241.497,212.084 231.5,212.5C 241.457,210.454 251.457,210.121 261.5,211.5 Z"/></g>
<g><path style="opacity:0.996" fill="#3d403c" d="M 314.5,184.5 C 314.896,187.044 314.229,189.211 312.5,191C 307.214,192.641 302.547,195.308 298.5,199C 290.446,207.054 282.446,215.054 274.5,223C 272.167,223.667 269.833,223.667 267.5,223C 266.167,220.333 264.167,218.333 261.5,217C 249.142,216.66 236.809,217.16 224.5,218.5C 223.624,219.251 222.624,219.751 221.5,220C 217.663,224.669 213.663,229.169 209.5,233.5C 208.5,233.5 207.5,233.5 206.5,233.5C 206.343,232.127 206.51,230.793 207,229.5C 212.2,224.635 217.033,219.468 221.5,214C 224.726,212.801 228.059,212.301 231.5,212.5C 241.497,212.084 251.497,211.75 261.5,211.5C 264.248,212.475 266.248,214.308 267.5,217C 269.833,217.667 272.167,217.667 274.5,217C 283.777,208.725 292.777,200.058 301.5,191C 305.306,187.786 309.639,185.62 314.5,184.5 Z"/></g>
<g><path style="opacity:0.996" fill="#606d5a" d="M 202.5,218.5 C 198.072,218.799 193.739,219.465 189.5,220.5C 189.511,218.983 190.177,217.816 191.5,217C 195.832,216.417 200.165,215.917 204.5,215.5C 204.715,217.179 204.048,218.179 202.5,218.5 Z"/></g>
<g><path style="opacity:0.204" fill="#dedddc" d="M 35.5,223.5 C 34.8031,226.423 33.8031,229.256 32.5,232C 33.6072,235.154 34.6072,238.32 35.5,241.5C 34.2101,240.942 33.3768,239.942 33,238.5C 30.568,232.841 31.4013,227.841 35.5,223.5 Z"/></g>
<g><path style="opacity:0.996" fill="#3c413b" d="M 307.5,230.5 C 310.139,232.838 309.806,235.005 306.5,237C 298.929,240.119 291.596,243.785 284.5,248C 277.187,253.659 269.52,258.826 261.5,263.5C 260.5,263.5 259.5,263.5 258.5,263.5C 258.286,261.856 258.62,260.356 259.5,259C 270.867,251.654 282.2,244.321 293.5,237C 298.154,234.73 302.82,232.564 307.5,230.5 Z"/></g>
<g><path style="opacity:0.996" fill="#3d413c" d="M 207.5,246.5 C 205.852,245.19 204.186,243.857 202.5,242.5C 201.277,241.386 199.944,241.219 198.5,242C 186.012,252.681 172.012,260.515 156.5,265.5C 156.392,263.486 157.058,261.82 158.5,260.5C 173.48,254.009 187.314,245.676 200,235.5C 203.491,237.581 206.825,239.915 210,242.5C 210.91,244.945 210.076,246.278 207.5,246.5 Z"/></g>
<g><path style="opacity:0.995" fill="#1a1919" d="M 37.5,247.5 C 38.675,247.281 39.675,247.614 40.5,248.5C 44.352,254.684 45.352,261.35 43.5,268.5C 40.8535,264.386 38.6869,260.052 37,255.5C 36.5702,252.808 36.7369,250.141 37.5,247.5 Z"/></g>
<g><path style="opacity:0.996" fill="#3d423c" d="M 228.5,263.5 C 226.135,261.14 223.468,259.14 220.5,257.5C 210.296,268.203 199.296,278.036 187.5,287C 177.017,292.445 166.35,297.611 155.5,302.5C 152.572,303.484 149.572,303.817 146.5,303.5C 146.297,301.61 146.963,300.11 148.5,299C 147.944,298.617 147.611,298.117 147.5,297.5C 151.582,297.656 155.582,297.156 159.5,296C 168.802,291.015 178.135,286.015 187.5,281C 199.425,272.707 210.091,263.041 219.5,252C 223.559,252.015 226.726,253.848 229,257.5C 231.109,259.861 230.942,261.861 228.5,263.5 Z"/></g>
<g><path style="opacity:0.004" fill="#dedddb" d="M 440.5,245.5 C 441.3,250.126 439.966,253.96 436.5,257C 437.687,258.019 438.687,259.186 439.5,260.5C 438.048,261.94 437.048,263.606 436.5,265.5C 436.472,262.989 436.139,260.322 435.5,257.5C 437.968,253.745 439.634,249.745 440.5,245.5 Z"/></g>
<g><path style="opacity:0.996" fill="#3f423e" d="M 377.5,304.5 C 379.346,304.222 380.68,304.889 381.5,306.5C 380.064,307.934 378.398,309.1 376.5,310C 362.362,312.493 348.362,315.493 334.5,319C 324.813,320.836 315.813,319.17 307.5,314C 290.672,301.334 274.005,288.501 257.5,275.5C 255.164,274.044 253.831,271.878 253.5,269C 253.85,267.743 254.517,267.409 255.5,268C 273.549,282.383 291.882,296.383 310.5,310C 318.173,313.315 326.173,314.315 334.5,313C 348.735,309.979 363.068,307.145 377.5,304.5 Z"/></g>
<g><path style="opacity:0.996" fill="#3d423c" d="M 247.5,302.5 C 245.505,295.539 243.338,288.539 241,281.5C 239.951,280.483 238.784,280.316 237.5,281C 215.132,309.175 187.132,329.508 153.5,342C 150.183,342.498 146.85,342.665 143.5,342.5C 143.238,341.022 143.571,339.689 144.5,338.5C 146.026,338.006 147.359,337.339 148.5,336.5C 151.874,336.326 155.207,335.826 158.5,335C 189.639,321.568 215.972,301.568 237.5,275C 238.784,274.316 239.951,274.483 241,275.5C 245.516,283.923 247.682,292.923 247.5,302.5 Z"/></g>
<g><path style="opacity:0.404" fill="#d8d7d4" d="M 43.5,272.5 C 44.689,285.05 46.0223,297.716 47.5,310.5C 44.049,298.199 42.7157,285.532 43.5,272.5 Z"/></g>
<g><path style="opacity:0.047" fill="#c9c8c7" d="M 436.5,272.5 C 434.678,283.795 433.178,295.129 432,306.5C 430.442,310.367 428.608,314.034 426.5,317.5C 427.538,313.087 428.871,308.754 430.5,304.5C 431.487,301.232 431.82,297.898 431.5,294.5C 433.817,287.811 434.984,280.811 435,273.5C 435.383,272.944 435.883,272.611 436.5,272.5 Z"/></g>
<g><path style="opacity:0.996" fill="#070707" d="M 431.5,294.5 C 431.82,297.898 431.487,301.232 430.5,304.5C 428.871,308.754 427.538,313.087 426.5,317.5C 423.865,320.079 421.699,323.079 420,326.5C 413.89,339.862 407.224,352.862 400,365.5C 399.503,367.81 399.337,370.143 399.5,372.5C 396.518,372.104 393.851,372.771 391.5,374.5C 376.073,391.424 358.406,405.59 338.5,417C 331.601,421.963 325.268,427.63 319.5,434C 316.695,434.442 314.028,433.942 311.5,432.5C 309.572,434.588 307.239,436.088 304.5,437C 299.648,437.815 294.981,437.648 290.5,436.5C 284.573,434.993 278.406,434.326 272,434.5C 267.833,434.667 263.667,434.833 259.5,435C 258.944,435.383 258.611,435.883 258.5,436.5C 256.833,436.5 255.167,436.5 253.5,436.5C 245.848,437.374 238.182,437.541 230.5,437C 226.71,435.688 222.877,434.522 219,433.5C 211.114,437.359 202.947,440.525 194.5,443C 189.411,443.826 184.411,443.492 179.5,442C 170.358,438.396 161.358,434.563 152.5,430.5C 144.762,425.099 136.762,420.099 128.5,415.5C 123.421,411.963 118.754,407.963 114.5,403.5C 112.668,399.399 111.001,395.399 109.5,391.5C 107.629,390.203 105.629,389.203 103.5,388.5C 100.713,387.523 97.7131,387.19 94.5,387.5C 94.5,385.833 94.5,384.167 94.5,382.5C 93.209,382.263 92.209,382.596 91.5,383.5C 90.325,383.719 89.325,383.386 88.5,382.5C 84.2682,376.774 78.9348,372.274 72.5,369C 69.3333,365.167 65.8333,361.667 62,358.5C 61.3486,356.765 61.5153,355.098 62.5,353.5C 59.9522,351.975 57.6188,350.308 55.5,348.5C 54.4902,344.386 53.4902,340.386 52.5,336.5C 51.9947,333.159 51.8281,329.826 52,326.5C 53.9782,329.645 56.4782,332.312 59.5,334.5C 58.5153,336.098 58.3486,337.765 59,339.5C 65.1939,346.66 72.3606,352.494 80.5,357C 82.5299,358.896 84.1966,361.063 85.5,363.5C 87.0453,364.452 88.712,364.785 90.5,364.5C 90.2865,366.144 90.6198,367.644 91.5,369C 97.4182,369.117 103.085,370.284 108.5,372.5C 108.239,376.342 108.906,380.009 110.5,383.5C 113.699,387.443 117.366,390.943 121.5,394C 132.986,403.078 145.653,410.078 159.5,415C 169.734,423.144 181.401,426.477 194.5,425C 201.302,422.762 207.968,420.262 214.5,417.5C 215.817,417.179 217.151,416.846 218.5,416.5C 232.574,419.999 246.574,420.333 260.5,417.5C 273.778,417.092 286.944,418.092 300,420.5C 303.408,420.755 306.241,419.755 308.5,417.5C 310.129,416.375 311.629,415.041 313,413.5C 314.864,416.207 317.364,417.041 320.5,416C 324.174,411.993 328.174,408.326 332.5,405C 347.778,394.722 362.778,384.055 377.5,373C 383.532,367.302 389.199,361.302 394.5,355C 397.393,353.851 400.393,353.351 403.5,353.5C 403.336,350.813 403.503,348.146 404,345.5C 412.187,330.46 419.854,315.126 427,299.5C 428.067,297.308 429.567,295.642 431.5,294.5 Z"/></g>
<g><path style="opacity:0.186" fill="#d6d6d6" d="M 47.5,318.5 C 48.6935,318.97 49.3601,319.97 49.5,321.5C 50.1616,324.468 50.495,327.468 50.5,330.5C 49.1356,326.675 48.1356,322.675 47.5,318.5 Z"/></g>
<g><path style="opacity:0.059" fill="#c3c3c3" d="M 51.5,336.5 C 51.8333,336.5 52.1667,336.5 52.5,336.5C 53.4902,340.386 54.4902,344.386 55.5,348.5C 53.1939,344.915 51.8606,340.915 51.5,336.5 Z"/></g>
<g><path style="opacity:0.996" fill="#3f443e" d="M 263.5,330.5 C 260.867,343.987 254.867,355.82 245.5,366C 237.668,371.894 231.835,370.394 228,361.5C 222.091,355.683 216.258,350.016 210.5,344.5C 210.747,343.287 211.414,342.62 212.5,342.5C 218.092,345.593 222.926,349.593 227,354.5C 229.36,357.36 231.527,360.36 233.5,363.5C 235.421,364.641 237.421,364.808 239.5,364C 243.573,361.933 247.073,359.099 250,355.5C 255.28,347.44 259.78,339.106 263.5,330.5 Z"/></g>
<g><path style="opacity:0.29" fill="#b2b2b2" d="M 55.5,348.5 C 57.6188,350.308 59.9522,351.975 62.5,353.5C 61.5153,355.098 61.3486,356.765 62,358.5C 65.8333,361.667 69.3333,365.167 72.5,369C 78.9348,372.274 84.2682,376.774 88.5,382.5C 89.325,383.386 90.325,383.719 91.5,383.5C 93.256,384.552 93.9227,386.219 93.5,388.5C 92.596,387.791 92.2627,386.791 92.5,385.5C 87.9049,385.083 84.9049,382.583 83.5,378C 74.45,372.949 66.6167,366.449 60,358.5C 59.2797,356.888 59.4464,355.388 60.5,354C 57.921,352.924 56.2543,351.091 55.5,348.5 Z"/></g>
<g><path style="opacity:0.799" fill="#3e3e3e" d="M 91.5,383.5 C 92.209,382.596 93.209,382.263 94.5,382.5C 94.5,384.167 94.5,385.833 94.5,387.5C 97.7131,387.19 100.713,387.523 103.5,388.5C 100.167,388.5 96.8333,388.5 93.5,388.5C 93.9227,386.219 93.256,384.552 91.5,383.5 Z"/></g>
<g><path style="opacity:0.157" fill="#aeaeae" d="M 93.5,388.5 C 96.8333,388.5 100.167,388.5 103.5,388.5C 105.629,389.203 107.629,390.203 109.5,391.5C 110.369,393.717 110.702,396.05 110.5,398.5C 109.926,396.212 108.926,394.045 107.5,392C 102.828,390.347 98.1614,389.181 93.5,388.5 Z"/></g>
<g><path style="opacity:0.153" fill="#6d6d6d" d="M 109.5,391.5 C 111.001,395.399 112.668,399.399 114.5,403.5C 113.833,403.5 113.167,403.5 112.5,403.5C 111.058,402.18 110.392,400.514 110.5,398.5C 110.702,396.05 110.369,393.717 109.5,391.5 Z"/></g>
<g><path style="opacity:0.133" fill="#b0b0b0" d="M 112.5,403.5 C 113.167,403.5 113.833,403.5 114.5,403.5C 118.754,407.963 123.421,411.963 128.5,415.5C 128.833,416.167 129.167,416.833 129.5,417.5C 125.544,415.515 121.878,413.015 118.5,410C 116.294,407.963 114.294,405.797 112.5,403.5 Z"/></g>
<g><path style="opacity:0.996" fill="#5d5b57" d="M 260.5,417.5 C 276.42,416.679 292.42,416.679 308.5,417.5C 306.241,419.755 303.408,420.755 300,420.5C 286.944,418.092 273.778,417.092 260.5,417.5 Z"/></g>
<g><path style="opacity:0.996" fill="#76736e" d="M 260.5,417.5 C 246.574,420.333 232.574,419.999 218.5,416.5C 217.151,416.846 215.817,417.179 214.5,417.5C 215.312,416.007 216.645,415.34 218.5,415.5C 232.424,417.341 246.424,418.008 260.5,417.5 Z"/></g>
<g><path style="opacity:0.286" fill="#848484" d="M 128.5,415.5 C 136.762,420.099 144.762,425.099 152.5,430.5C 144.106,427.437 136.44,423.103 129.5,417.5C 129.167,416.833 128.833,416.167 128.5,415.5 Z"/></g>
<g><path style="opacity:0.746" fill="#545454" d="M 290.5,436.5 C 287.167,436.5 283.833,436.5 280.5,436.5C 273.327,435.456 265.994,435.456 258.5,436.5C 258.611,435.883 258.944,435.383 259.5,435C 263.667,434.833 267.833,434.667 272,434.5C 278.406,434.326 284.573,434.993 290.5,436.5 Z"/></g>
<g><path style="opacity:0.069" fill="#d4d4d4" d="M 280.5,436.5 C 271.124,436.638 261.791,437.304 252.5,438.5C 252.833,437.833 253.167,437.167 253.5,436.5C 255.167,436.5 256.833,436.5 258.5,436.5C 265.994,435.456 273.327,435.456 280.5,436.5 Z"/></g>
<g><path style="opacity:0.102" fill="#a4a4a4" d="M 152.5,430.5 C 161.358,434.563 170.358,438.396 179.5,442C 184.411,443.492 189.411,443.826 194.5,443C 202.947,440.525 211.114,437.359 219,433.5C 222.877,434.522 226.71,435.688 230.5,437C 238.182,437.541 245.848,437.374 253.5,436.5C 253.167,437.167 252.833,437.833 252.5,438.5C 243.827,438.666 235.16,438.5 226.5,438C 224.162,437.163 221.828,436.33 219.5,435.5C 214.348,437.382 209.348,439.548 204.5,442C 199.514,443.274 194.514,444.441 189.5,445.5C 176.065,442.941 163.732,437.941 152.5,430.5 Z"/></g>
<g><path style="opacity:0.282" fill="#a7a7a7" d="M 426.5,317.5 C 418.887,334.059 410.72,350.392 402,366.5C 401.774,369.095 401.274,371.595 400.5,374C 398.167,374.333 395.833,374.667 393.5,375C 387.491,381.375 381.491,387.709 375.5,394C 362.449,403.714 349.116,413.048 335.5,422C 329.605,426.775 323.938,431.775 318.5,437C 316.063,436.797 313.729,435.963 311.5,434.5C 308.513,437.886 304.68,439.553 300,439.5C 293.298,438.891 286.798,437.891 280.5,436.5C 283.833,436.5 287.167,436.5 290.5,436.5C 294.981,437.648 299.648,437.815 304.5,437C 307.239,436.088 309.572,434.588 311.5,432.5C 314.028,433.942 316.695,434.442 319.5,434C 325.268,427.63 331.601,421.963 338.5,417C 358.406,405.59 376.073,391.424 391.5,374.5C 393.851,372.771 396.518,372.104 399.5,372.5C 399.337,370.143 399.503,367.81 400,365.5C 407.224,352.862 413.89,339.862 420,326.5C 421.699,323.079 423.865,320.079 426.5,317.5 Z"/></g>
</svg>
