<?xml version="1.0" encoding="UTF-8"?>
<!DOCTYPE svg PUBLIC "-//W3C//DTD SVG 1.1//EN" "http://www.w3.org/Graphics/SVG/1.1/DTD/svg11.dtd">
<svg xmlns="http://www.w3.org/2000/svg" version="1.1" width="60px" height="60px" style="shape-rendering:geometricPrecision; text-rendering:geometricPrecision; image-rendering:optimizeQuality; fill-rule:evenodd; clip-rule:evenodd" xmlns:xlink="http://www.w3.org/1999/xlink">
<g><path style="opacity:1" fill="#000000" d="M 18.5,3.5 C 25.8409,3.33368 33.1742,3.50034 40.5,4C 45.3333,8.83333 50.1667,13.6667 55,18.5C 55.6667,25.8333 55.6667,33.1667 55,40.5C 50.1667,45.3333 45.3333,50.1667 40.5,55C 33.1667,55.6667 25.8333,55.6667 18.5,55C 13.6667,50.1667 8.83333,45.3333 4,40.5C 3.33333,33.1667 3.33333,25.8333 4,18.5C 9.03651,13.6313 13.8698,8.63128 18.5,3.5 Z"/></g>
<g><path style="opacity:1" fill="#7f807f" d="M 19.5,5.5 C 26.175,5.33375 32.8417,5.50042 39.5,6C 44,10.5 48.5,15 53,19.5C 53.6667,26.1667 53.6667,32.8333 53,39.5C 48.5,44 44,48.5 39.5,53C 32.8333,53.6667 26.1667,53.6667 19.5,53C 15,48.5 10.5,44 6,39.5C 5.33333,32.8333 5.33333,26.1667 6,19.5C 10.7033,14.9645 15.2033,10.2979 19.5,5.5 Z"/></g>
<g><path style="opacity:1" fill="#0d800a" d="M 29.5,40.5 C 28.2502,40.4226 27.4169,39.756 27,38.5C 25.5861,39.4132 24.0861,39.4132 22.5,38.5C 24.9934,31.7848 24.9934,25.1181 22.5,18.5C 23.8333,18.5 25.1667,18.5 26.5,18.5C 26.5,16.8333 26.5,15.1667 26.5,13.5C 27.5,13.5 28.5,13.5 29.5,13.5C 29.5,15.1667 29.5,16.8333 29.5,18.5C 30.8221,18.33 31.9887,18.6634 33,19.5C 33.8333,17.5 34.6667,15.5 35.5,13.5C 38.4204,15.8108 41.7537,16.8108 45.5,16.5C 45.5,17.5 45.5,18.5 45.5,19.5C 42.0024,18.9547 39.0024,19.788 36.5,22C 38.8098,22.4966 41.1432,22.6633 43.5,22.5C 43.9193,25.3245 42.9193,27.4912 40.5,29C 42.1341,29.4935 43.8008,29.6602 45.5,29.5C 45.5,30.5 45.5,31.5 45.5,32.5C 43.8333,32.5 42.1667,32.5 40.5,32.5C 41.921,38.1132 39.921,40.2799 34.5,39C 33.6634,37.9887 33.33,36.8221 33.5,35.5C 34.8333,35.5 36.1667,35.5 37.5,35.5C 37.5,34.5 37.5,33.5 37.5,32.5C 36.1667,32.5 34.8333,32.5 33.5,32.5C 33.5,31.5 33.5,30.5 33.5,29.5C 35.7159,29.7254 37.3826,28.8921 38.5,27C 36.0577,26.0536 34.0577,24.5536 32.5,22.5C 30.9547,21.5481 29.288,21.2148 27.5,21.5C 27.5,22.5 27.5,23.5 27.5,24.5C 29.1667,24.5 30.8333,24.5 32.5,24.5C 32.6659,29.5111 32.4993,34.5111 32,39.5C 31.3292,40.2524 30.4959,40.5858 29.5,40.5 Z"/></g>
<g><path style="opacity:1" fill="#1f801b" d="M 22.5,18.5 C 21.8501,18.8039 21.1835,19.1373 20.5,19.5C 18.9716,18.1387 17.3049,16.972 15.5,16C 18.4729,12.6405 21.1396,12.9738 23.5,17C 22.944,17.3826 22.6107,17.8826 22.5,18.5 Z"/></g>
<g><path style="opacity:1" fill="#1d8019" d="M 17.5,20.5 C 22.3829,21.7843 23.2162,24.1177 20,27.5C 18.5,26 17,24.5 15.5,23C 16.3805,22.2917 17.0472,21.4584 17.5,20.5 Z"/></g>
<g><path style="opacity:1" fill="#7e807e" d="M 27.5,27.5 C 29.3878,29.9878 30.0545,32.9878 29.5,36.5C 28.448,36.6495 27.448,36.4828 26.5,36C 27.4438,33.2809 27.7771,30.4475 27.5,27.5 Z"/></g>
<g><path style="opacity:1" fill="#0a8008" d="M 22.5,38.5 C 24.0361,41.0922 26.3695,42.0922 29.5,41.5C 35.1764,41.3339 40.8431,41.5006 46.5,42C 46.0426,42.414 45.7093,42.914 45.5,43.5C 38.1893,44.6646 30.856,44.8313 23.5,44C 20.9034,41.9665 18.7367,42.4665 17,45.5C 13.7681,42.8857 14.1014,40.5524 18,38.5C 18.4966,36.1902 18.6633,33.8568 18.5,31.5C 17.5,31.5 16.5,31.5 15.5,31.5C 15.5,30.5 15.5,29.5 15.5,28.5C 17.5,28.5 19.5,28.5 21.5,28.5C 21.1872,32.0419 21.5206,35.3752 22.5,38.5 Z"/></g>
<g><path style="opacity:1" fill="#5a8059" d="M 22.5,38.5 C 24.0861,39.4132 25.5861,39.4132 27,38.5C 27.4169,39.756 28.2502,40.4226 29.5,40.5C 29.5,40.8333 29.5,41.1667 29.5,41.5C 26.3695,42.0922 24.0361,41.0922 22.5,38.5 Z"/></g>
</svg>
