<?xml version="1.0" encoding="UTF-8"?>
<!DOCTYPE svg PUBLIC "-//W3C//DTD SVG 1.1//EN" "http://www.w3.org/Graphics/SVG/1.1/DTD/svg11.dtd">
<svg xmlns="http://www.w3.org/2000/svg" version="1.1" width="60px" height="60px" style="shape-rendering:geometricPrecision; text-rendering:geometricPrecision; image-rendering:optimizeQuality; fill-rule:evenodd; clip-rule:evenodd" xmlns:xlink="http://www.w3.org/1999/xlink">
<g><path style="opacity:1" fill="#000000" d="M 18.5,3.5 C 25.8409,3.33368 33.1742,3.50034 40.5,4C 45.3333,8.83333 50.1667,13.6667 55,18.5C 55.6667,25.8333 55.6667,33.1667 55,40.5C 50.1667,45.3333 45.3333,50.1667 40.5,55C 33.1667,55.6667 25.8333,55.6667 18.5,55C 13.6667,50.1667 8.83333,45.3333 4,40.5C 3.33333,33.1667 3.33333,25.8333 4,18.5C 9.03651,13.6313 13.8698,8.63128 18.5,3.5 Z"/></g>
<g><path style="opacity:1" fill="#7f807f" d="M 19.5,5.5 C 26.175,5.33375 32.8417,5.50042 39.5,6C 44,10.5 48.5,15 53,19.5C 53.6667,26.1667 53.6667,32.8333 53,39.5C 48.5,44 44,48.5 39.5,53C 32.8333,53.6667 26.1667,53.6667 19.5,53C 15,48.5 10.5,44 6,39.5C 5.33333,32.8333 5.33333,26.1667 6,19.5C 10.7033,14.9645 15.2033,10.2979 19.5,5.5 Z"/></g>
<g><path style="opacity:1" fill="#098006" d="M 27.5,13.5 C 28.8333,13.5 30.1667,13.5 31.5,13.5C 31.5,14.5 31.5,15.5 31.5,16.5C 35.5,16.5 39.5,16.5 43.5,16.5C 43.5,17.5 43.5,18.5 43.5,19.5C 26.9378,18.9371 26.6045,20.1038 42.5,23C 44.1742,24.5059 45.1742,26.3393 45.5,28.5C 44.5,28.5 43.5,28.5 42.5,28.5C 42.8275,33.544 42.4941,38.544 41.5,43.5C 37.5051,45.3294 34.1718,44.6628 31.5,41.5C 33.7427,40.5258 36.076,40.1924 38.5,40.5C 38.5,36.5 38.5,32.5 38.5,28.5C 30.5,28.5 22.5,28.5 14.5,28.5C 14.5,27.5 14.5,26.5 14.5,25.5C 17.999,25.741 18.3323,24.9076 15.5,23C 27.6151,20.6893 27.9484,19.5227 16.5,19.5C 16.5,18.5 16.5,17.5 16.5,16.5C 20.1667,16.5 23.8333,16.5 27.5,16.5C 27.5,15.5 27.5,14.5 27.5,13.5 Z"/></g>
<g><path style="opacity:1" fill="#788077" d="M 26.5,23.5 C 29.8394,23.8897 33.1727,24.3897 36.5,25C 31.8333,25.6667 27.1667,25.6667 22.5,25C 24.0581,24.79 25.3915,24.29 26.5,23.5 Z"/></g>
<g><path style="opacity:1" fill="#008000" d="M 18.5,30.5 C 23.5,30.5 28.5,30.5 33.5,30.5C 33.5,33.5 33.5,36.5 33.5,39.5C 28.5,39.5 23.5,39.5 18.5,39.5C 18.5,36.5 18.5,33.5 18.5,30.5 Z"/></g>
<g><path style="opacity:1" fill="#7f807f" d="M 22.5,33.5 C 25.1667,33.5 27.8333,33.5 30.5,33.5C 30.5,34.5 30.5,35.5 30.5,36.5C 27.8333,36.5 25.1667,36.5 22.5,36.5C 22.5,35.5 22.5,34.5 22.5,33.5 Z"/></g>
</svg>
