<?xml version="1.0" encoding="UTF-8"?>
<!DOCTYPE svg PUBLIC "-//W3C//DTD SVG 1.1//EN" "http://www.w3.org/Graphics/SVG/1.1/DTD/svg11.dtd">
<svg xmlns="http://www.w3.org/2000/svg" version="1.1" width="60px" height="60px" style="shape-rendering:geometricPrecision; text-rendering:geometricPrecision; image-rendering:optimizeQuality; fill-rule:evenodd; clip-rule:evenodd" xmlns:xlink="http://www.w3.org/1999/xlink">
<g><path style="opacity:1" fill="#000000" d="M 18.5,3.5 C 25.8409,3.33368 33.1742,3.50034 40.5,4C 45.3333,8.83333 50.1667,13.6667 55,18.5C 55.6667,25.8333 55.6667,33.1667 55,40.5C 50.1667,45.3333 45.3333,50.1667 40.5,55C 33.1667,55.6667 25.8333,55.6667 18.5,55C 13.6667,50.1667 8.83333,45.3333 4,40.5C 3.33333,33.1667 3.33333,25.8333 4,18.5C 9.03651,13.6313 13.8698,8.63128 18.5,3.5 Z"/></g>
<g><path style="opacity:1" fill="#7f807f" d="M 19.5,5.5 C 26.175,5.33375 32.8417,5.50042 39.5,6C 44,10.5 48.5,15 53,19.5C 53.6667,26.1667 53.6667,32.8333 53,39.5C 48.5,44 44,48.5 39.5,53C 32.8333,53.6667 26.1667,53.6667 19.5,53C 15,48.5 10.5,44 6,39.5C 5.33333,32.8333 5.33333,26.1667 6,19.5C 10.7033,14.9645 15.2033,10.2979 19.5,5.5 Z"/></g>
<g><path style="opacity:1" fill="#fe0000" d="M 28.5,13.5 C 29.8333,13.5 31.1667,13.5 32.5,13.5C 32.5,14.5 32.5,15.5 32.5,16.5C 36.5,16.5 40.5,16.5 44.5,16.5C 44.5,17.5 44.5,18.5 44.5,19.5C 40.4454,19.1758 36.4454,19.5091 32.5,20.5C 35.4281,21.4841 38.4281,21.8174 41.5,21.5C 41.5,26.1667 41.5,30.8333 41.5,35.5C 38.4281,35.1826 35.4281,35.5159 32.5,36.5C 36.7828,37.4922 41.1161,37.8256 45.5,37.5C 45.5,38.5 45.5,39.5 45.5,40.5C 41.1667,40.5 36.8333,40.5 32.5,40.5C 32.5,42.1667 32.5,43.8333 32.5,45.5C 31.1667,45.5 29.8333,45.5 28.5,45.5C 28.5,43.8333 28.5,42.1667 28.5,40.5C 23.8333,40.5 19.1667,40.5 14.5,40.5C 14.5,39.5 14.5,38.5 14.5,37.5C 19.2137,37.8266 23.8804,37.4933 28.5,36.5C 25.2317,35.513 21.8984,35.1796 18.5,35.5C 18.5,30.8333 18.5,26.1667 18.5,21.5C 21.8984,21.8204 25.2317,21.487 28.5,20.5C 24.2172,19.5078 19.8839,19.1744 15.5,19.5C 15.5,18.5 15.5,17.5 15.5,16.5C 19.8333,16.5 24.1667,16.5 28.5,16.5C 28.5,15.5 28.5,14.5 28.5,13.5 Z"/></g>
<g><path style="opacity:1" fill="#7f807f" d="M 21.5,24.5 C 23.8333,24.5 26.1667,24.5 28.5,24.5C 28.5,25.5 28.5,26.5 28.5,27.5C 26.1667,27.5 23.8333,27.5 21.5,27.5C 21.5,26.5 21.5,25.5 21.5,24.5 Z"/></g>
<g><path style="opacity:1" fill="#7f807f" d="M 32.5,24.5 C 34.1667,24.5 35.8333,24.5 37.5,24.5C 37.5,25.5 37.5,26.5 37.5,27.5C 35.8333,27.5 34.1667,27.5 32.5,27.5C 32.5,26.5 32.5,25.5 32.5,24.5 Z"/></g>
<g><path style="opacity:1" fill="#7f807f" d="M 21.5,30.5 C 23.924,30.1924 26.2573,30.5258 28.5,31.5C 27.3333,31.8333 26.1667,32.1667 25,32.5C 23.3189,32.3917 22.1522,31.7251 21.5,30.5 Z"/></g>
<g><path style="opacity:1" fill="#7f807f" d="M 32.5,30.5 C 34.288,30.2148 35.9547,30.5481 37.5,31.5C 36.6667,31.8333 35.8333,32.1667 35,32.5C 33.6244,32.3158 32.7911,31.6491 32.5,30.5 Z"/></g>
</svg>
