<?xml version="1.0" encoding="UTF-8"?>
<!DOCTYPE svg PUBLIC "-//W3C//DTD SVG 1.1//EN" "http://www.w3.org/Graphics/SVG/1.1/DTD/svg11.dtd">
<svg xmlns="http://www.w3.org/2000/svg" version="1.1" width="467px" height="468px" style="shape-rendering:geometricPrecision; text-rendering:geometricPrecision; image-rendering:optimizeQuality; fill-rule:evenodd; clip-rule:evenodd" xmlns:xlink="http://www.w3.org/1999/xlink">
<g><path style="opacity:0.208" fill="#dfdeda" d="M 287.5,55.5 C 291.112,56.3121 294.446,57.6454 297.5,59.5C 293.361,59.7517 290.028,58.4184 287.5,55.5 Z"/></g>
<g><path style="opacity:0.996" fill="#97948e" d="M 286.5,55.5 C 286.833,55.5 287.167,55.5 287.5,55.5C 290.028,58.4184 293.361,59.7517 297.5,59.5C 304.203,61.9444 310.537,64.9444 316.5,68.5C 325.272,74.059 334.272,79.3924 343.5,84.5C 344.107,84.3764 344.44,84.0431 344.5,83.5C 345.167,83.5 345.5,83.8333 345.5,84.5C 346.203,86.7157 347.536,88.549 349.5,90C 352.379,92.3852 355.379,94.5518 358.5,96.5C 360.564,100.543 361.897,104.876 362.5,109.5C 367.289,112.762 372.622,114.262 378.5,114C 379.38,115.356 379.714,116.856 379.5,118.5C 381.199,118.34 382.866,118.506 384.5,119C 385.705,120.376 387.038,121.542 388.5,122.5C 393.808,125.489 398.475,129.156 402.5,133.5C 405.407,136.911 408.574,140.245 412,143.5C 412.684,145.479 412.184,147.146 410.5,148.5C 413.981,149.558 416.648,151.558 418.5,154.5C 419.167,154.5 419.5,154.833 419.5,155.5C 421.012,166.225 422.845,176.891 425,187.5C 425.333,198.5 425.667,209.5 426,220.5C 426.39,223.104 427.224,225.438 428.5,227.5C 431.77,232.98 434.937,238.647 438,244.5C 438.667,248.167 438.667,251.833 438,255.5C 437.617,256.056 437.117,256.389 436.5,256.5C 435.25,256.577 434.417,257.244 434,258.5C 432.633,262.68 432.466,266.847 433.5,271C 432.898,276.824 432.398,282.658 432,288.5C 431.692,289.308 431.192,289.975 430.5,290.5C 429.677,297.496 429.01,304.496 428.5,311.5C 428.5,311.833 428.5,312.167 428.5,312.5C 428.167,312.5 427.833,312.5 427.5,312.5C 428.167,307.84 428.333,303.174 428,298.5C 419.165,315.211 410.332,331.877 401.5,348.5C 400.526,350.743 400.192,353.076 400.5,355.5C 397.436,355.144 394.769,355.977 392.5,358C 387.161,363.006 382.161,368.339 377.5,374C 362.778,385.055 347.778,395.722 332.5,406C 327.533,409.966 322.866,414.299 318.5,419C 315.258,419.986 312.592,419.152 310.5,416.5C 308.773,418.567 306.773,420.233 304.5,421.5C 298.131,421.653 291.797,421.32 285.5,420.5C 281.849,419.835 278.015,419.501 274,419.5C 257.192,421.038 240.359,421.538 223.5,421C 217.6,417.247 212.267,417.914 207.5,423C 191.832,429.547 176.499,428.88 161.5,421C 141.982,412.991 124.482,401.824 109,387.5C 106.868,383.792 106.035,379.792 106.5,375.5C 103.525,375.287 100.858,374.287 98.5,372.5C 95.5719,371.516 92.5719,371.183 89.5,371.5C 89.5,369.833 89.5,368.167 89.5,366.5C 87.4727,366.662 85.4727,366.495 83.5,366C 82.0716,363.815 80.4049,361.815 78.5,360C 69.8366,355.345 62.3366,349.178 56,341.5C 55.8195,339.512 55.9862,337.512 56.5,335.5C 53.3579,335.201 51.1912,333.534 50,330.5C 49.51,331.793 49.3433,333.127 49.5,334.5C 47.9318,327.372 46.7651,320.038 46,312.5C 45.3292,311.748 44.4959,311.414 43.5,311.5C 43.5,309.167 43.5,306.833 43.5,304.5C 43.0667,296.5 42.5667,288.5 42,280.5C 41.79,278.942 41.29,277.609 40.5,276.5C 38.5679,272.297 36.9012,267.964 35.5,263.5C 31.9356,259.003 31.6022,254.17 34.5,249C 32.4866,246.128 31.1533,242.962 30.5,239.5C 30.1885,234.1 31.8552,229.433 35.5,225.5C 34.5,224.167 33.5,222.833 32.5,221.5C 34.7025,219.705 35.8692,217.371 36,214.5C 36.3333,207.5 36.6667,200.5 37,193.5C 39.0272,190.779 40.5272,187.779 41.5,184.5C 44.172,182.575 45.172,179.908 44.5,176.5C 46.4509,175.284 47.9509,173.618 49,171.5C 50.8863,167.334 53.053,163.334 55.5,159.5C 56.4656,157.604 56.7989,155.604 56.5,153.5C 61.328,147.823 65.1613,141.49 68,134.5C 68.4935,132.866 68.6602,131.199 68.5,129.5C 71.2062,129.425 73.8728,129.092 76.5,128.5C 77.9708,124.347 80.6374,121.013 84.5,118.5C 85.3857,117.675 85.719,116.675 85.5,115.5C 89.331,110.836 93.6643,106.67 98.5,103C 114.945,92.4558 130.612,80.9558 145.5,68.5C 149.504,65.9276 153.504,65.9276 157.5,68.5C 160.832,64.7504 164.999,62.7504 170,62.5C 183.563,65.9755 197.063,66.3088 210.5,63.5C 220.486,62.5764 230.486,62.4098 240.5,63C 244.459,63.2795 248.292,64.1128 252,65.5C 255.035,63.8766 258.201,62.5433 261.5,61.5C 269.906,59.314 278.24,57.314 286.5,55.5 Z"/></g>
<g><path style="opacity:0.302" fill="#d4d2d0" d="M 286.5,55.5 C 278.24,57.314 269.906,59.314 261.5,61.5C 269.171,57.1664 277.505,55.1664 286.5,55.5 Z"/></g>
<g><path style="opacity:0.169" fill="#ceccc9" d="M 210.5,63.5 C 197.063,66.3088 183.563,65.9755 170,62.5C 164.999,62.7504 160.832,64.7504 157.5,68.5C 153.504,65.9276 149.504,65.9276 145.5,68.5C 148.618,62.7218 152.618,62.0551 157.5,66.5C 159.051,64.4547 161.051,62.9547 163.5,62C 179.089,63.1534 194.756,63.6534 210.5,63.5 Z"/></g>
<g><path style="opacity:0.306" fill="#cbc9c7" d="M 316.5,68.5 C 326.379,72.4402 335.712,77.4402 344.5,83.5C 344.44,84.0431 344.107,84.3764 343.5,84.5C 334.272,79.3924 325.272,74.059 316.5,68.5 Z"/></g>
<g><path style="opacity:0.039" fill="#cbcac8" d="M 345.5,84.5 C 350.533,87.8709 354.866,91.8709 358.5,96.5C 355.379,94.5518 352.379,92.3852 349.5,90C 347.536,88.549 346.203,86.7157 345.5,84.5 Z"/></g>
<g><path style="opacity:0.408" fill="#d3d1cd" d="M 358.5,96.5 C 359.794,97.2899 360.961,98.2899 362,99.5C 362.548,103.287 363.714,106.787 365.5,110C 370.183,110.835 374.85,111.668 379.5,112.5C 380.167,113.833 380.833,115.167 381.5,116.5C 383.306,115.141 384.806,115.475 386,117.5C 387.094,119.078 387.928,120.745 388.5,122.5C 387.038,121.542 385.705,120.376 384.5,119C 382.866,118.506 381.199,118.34 379.5,118.5C 379.714,116.856 379.38,115.356 378.5,114C 372.622,114.262 367.289,112.762 362.5,109.5C 361.897,104.876 360.564,100.543 358.5,96.5 Z"/></g>
<g><path style="opacity:0.996" fill="#326e23" d="M 292.5,133.5 C 291.13,133.856 290.13,134.69 289.5,136C 287.348,142.441 285.848,148.941 285,155.5C 285.383,154.944 285.883,154.611 286.5,154.5C 295.904,152.108 305.404,150.108 315,148.5C 319.872,148.235 324.372,149.402 328.5,152C 329.752,153.828 329.752,155.661 328.5,157.5C 323.086,159.037 317.753,160.871 312.5,163C 302.026,164.927 291.692,167.094 281.5,169.5C 281.5,170.5 281.5,171.5 281.5,172.5C 283.737,173.449 286.071,174.116 288.5,174.5C 297.876,177.848 306.542,182.514 314.5,188.5C 317.037,192.426 318.037,196.759 317.5,201.5C 314.46,204.911 310.793,205.411 306.5,203C 296.666,194.997 287.333,186.497 278.5,177.5C 272.051,191.799 262.385,203.633 249.5,213C 248.552,213.483 247.552,213.649 246.5,213.5C 245.402,212.399 245.235,211.066 246,209.5C 249.754,203.658 253.754,197.991 258,192.5C 259.556,187.327 261.389,182.327 263.5,177.5C 264.451,176.081 264.784,174.415 264.5,172.5C 256.445,172.77 248.445,172.437 240.5,171.5C 238.455,170.077 237.455,168.077 237.5,165.5C 247.32,164.863 256.987,163.363 266.5,161C 268.189,158.443 269.356,155.609 270,152.5C 271.107,146.213 271.607,139.88 271.5,133.5C 271.874,129.353 270.874,125.686 268.5,122.5C 268.244,120.208 268.577,118.041 269.5,116C 272.167,115.333 274.833,115.333 277.5,116C 282.884,118.777 288.051,121.944 293,125.5C 293.43,128.192 293.263,130.859 292.5,133.5 Z"/></g>
<g><path style="opacity:0.996" fill="#485145" d="M 268.5,122.5 C 270.874,125.686 271.874,129.353 271.5,133.5C 269.682,130.156 268.682,126.489 268.5,122.5 Z"/></g>
<g><path style="opacity:0.376" fill="#c6c5c1" d="M 85.5,115.5 C 85.719,116.675 85.3857,117.675 84.5,118.5C 80.6374,121.013 77.9708,124.347 76.5,128.5C 73.8728,129.092 71.2062,129.425 68.5,129.5C 68.6602,131.199 68.4935,132.866 68,134.5C 65.1613,141.49 61.328,147.823 56.5,153.5C 58.7951,147.577 61.6284,141.91 65,136.5C 66.6573,133.911 66.9906,131.244 66,128.5C 68.8587,127.827 71.692,126.993 74.5,126C 78.0827,122.247 81.7494,118.747 85.5,115.5 Z"/></g>
<g><path style="opacity:0.996" fill="#326f23" d="M 221.5,148.5 C 210.712,151.395 199.712,153.562 188.5,155C 187.572,155.388 186.905,156.055 186.5,157C 187.645,158.402 188.978,159.569 190.5,160.5C 190.167,162.5 189.833,164.5 189.5,166.5C 187.547,169.24 187.214,172.24 188.5,175.5C 194.38,173.677 200.38,173.177 206.5,174C 211.153,174.824 212.487,177.324 210.5,181.5C 202.48,183.508 194.48,185.508 186.5,187.5C 186.5,189.833 186.5,192.167 186.5,194.5C 186.5,198.833 186.5,203.167 186.5,207.5C 192.797,206.461 199.13,206.294 205.5,207C 208.559,208.397 209.225,210.563 207.5,213.5C 201.351,215.904 195.018,217.737 188.5,219C 186.845,220.444 186.178,222.278 186.5,224.5C 186.5,229.5 186.5,234.5 186.5,239.5C 187.5,239.5 188.5,239.5 189.5,239.5C 193.528,238.38 197.528,238.38 201.5,239.5C 207.398,242.042 212.565,245.708 217,250.5C 217.49,252.545 217.323,254.545 216.5,256.5C 214.547,259.141 213.047,262.141 212,265.5C 212.721,287.524 210.888,309.191 206.5,330.5C 202.558,336.168 198.225,341.668 193.5,347C 184.057,353.557 179.223,351.057 179,339.5C 177.08,336.661 175.413,333.661 174,330.5C 172.621,328.285 170.787,326.619 168.5,325.5C 167.781,323.236 167.448,320.903 167.5,318.5C 173.177,320.445 179.01,322.111 185,323.5C 187.802,323.68 189.969,322.68 191.5,320.5C 192.497,320.53 193.164,320.03 193.5,319C 195.48,311.972 196.48,304.805 196.5,297.5C 197.661,284.006 197.827,270.34 197,256.5C 196.148,255.429 195.315,254.429 194.5,253.5C 194.196,252.85 193.863,252.183 193.5,251.5C 191.5,251.167 189.5,250.833 187.5,250.5C 175.154,252.56 162.821,255.06 150.5,258C 148.114,259.887 146.947,262.387 147,265.5C 144.333,268.167 141.667,268.167 139,265.5C 138.626,263.509 137.793,261.842 136.5,260.5C 136.5,254.167 136.5,247.833 136.5,241.5C 137.29,240.391 137.79,239.058 138,237.5C 138.883,212.81 138.55,188.144 137,163.5C 136.465,160.031 135.298,157.031 133.5,154.5C 132.395,152.287 132.395,150.12 133.5,148C 139.066,146.46 143.732,147.793 147.5,152C 151.167,152.667 154.833,152.667 158.5,152C 172.46,148.878 186.126,144.878 199.5,140C 206.681,137.682 213.681,138.015 220.5,141C 223.873,143.272 224.206,145.772 221.5,148.5 Z"/></g>
<g><path style="opacity:0.996" fill="#444d41" d="M 292.5,133.5 C 291.327,137.533 289.827,141.533 288,145.5C 287.498,148.513 286.998,151.513 286.5,154.5C 285.883,154.611 285.383,154.944 285,155.5C 285.848,148.941 287.348,142.441 289.5,136C 290.13,134.69 291.13,133.856 292.5,133.5 Z"/></g>
<g><path style="opacity:0.996" fill="#3c413b" d="M 221.5,148.5 C 222.695,148.866 223.361,149.699 223.5,151C 222.66,152.767 221.327,154.101 219.5,155C 209.891,157.357 200.225,159.191 190.5,160.5C 188.978,159.569 187.645,158.402 186.5,157C 186.905,156.055 187.572,155.388 188.5,155C 199.712,153.562 210.712,151.395 221.5,148.5 Z"/></g>
<g><path style="opacity:0.039" fill="#cccbc9" d="M 402.5,133.5 C 407.519,136.193 411.519,140.026 414.5,145C 413.978,145.561 413.645,146.228 413.5,147C 416.214,148.867 417.881,151.367 418.5,154.5C 416.648,151.558 413.981,149.558 410.5,148.5C 412.184,147.146 412.684,145.479 412,143.5C 408.574,140.245 405.407,136.911 402.5,133.5 Z"/></g>
<g><path style="opacity:0.996" fill="#3c403b" d="M 171.5,164.5 C 164.882,165.821 158.215,166.821 151.5,167.5C 151.5,165.5 151.5,163.5 151.5,161.5C 157.931,161.135 164.264,160.135 170.5,158.5C 170.833,160.5 171.167,162.5 171.5,164.5 Z"/></g>
<g><path style="opacity:0.996" fill="#3c403b" d="M 328.5,157.5 C 330.225,160.437 329.559,162.603 326.5,164C 313.797,167.827 301.13,171.327 288.5,174.5C 286.071,174.116 283.737,173.449 281.5,172.5C 281.5,171.5 281.5,170.5 281.5,169.5C 291.692,167.094 302.026,164.927 312.5,163C 317.753,160.871 323.086,159.037 328.5,157.5 Z"/></g>
<g><path style="opacity:0.392" fill="#cbc9c6" d="M 56.5,153.5 C 56.7989,155.604 56.4656,157.604 55.5,159.5C 53.053,163.334 50.8863,167.334 49,171.5C 47.9509,173.618 46.4509,175.284 44.5,176.5C 48.2487,168.668 52.2487,161.001 56.5,153.5 Z"/></g>
<g><path style="opacity:0.996" fill="#3d3f3c" d="M 240.5,171.5 C 248.445,172.437 256.445,172.77 264.5,172.5C 264.784,174.415 264.451,176.081 263.5,177.5C 255.453,177.723 247.453,177.223 239.5,176C 236.817,173.878 237.15,172.378 240.5,171.5 Z"/></g>
<g><path style="opacity:0.996" fill="#76856e" d="M 189.5,166.5 C 190.754,168.357 190.754,170.357 189.5,172.5C 190.167,172.833 190.833,173.167 191.5,173.5C 197.902,170.758 204.235,170.925 210.5,174C 213.059,176.707 213.059,179.207 210.5,181.5C 212.487,177.324 211.153,174.824 206.5,174C 200.38,173.177 194.38,173.677 188.5,175.5C 187.214,172.24 187.547,169.24 189.5,166.5 Z"/></g>
<g><path style="opacity:0.996" fill="#3d413c" d="M 210.5,181.5 C 211.968,183.611 211.635,185.444 209.5,187C 201.769,189.411 194.102,191.911 186.5,194.5C 186.5,192.167 186.5,189.833 186.5,187.5C 194.48,185.508 202.48,183.508 210.5,181.5 Z"/></g>
<g><path style="opacity:0.996" fill="#93918a" d="M 305.5,207.5 C 293.287,210.473 280.954,212.807 268.5,214.5C 263.77,214.283 259.103,214.617 254.5,215.5C 264.923,206.656 272.923,195.989 278.5,183.5C 286.874,192.207 295.874,200.207 305.5,207.5 Z"/></g>
<g><path style="opacity:0.996" fill="#94928b" d="M 171.5,164.5 C 173.133,169.699 173.633,175.033 173,180.5C 167.247,182.035 161.414,183.368 155.5,184.5C 154.106,186.582 154.439,188.249 156.5,189.5C 156.5,189.833 156.5,190.167 156.5,190.5C 153.983,192.077 153.983,193.91 156.5,196C 162.088,197.289 167.755,197.789 173.5,197.5C 173.5,202.5 173.5,207.5 173.5,212.5C 167.55,214.058 161.55,215.558 155.5,217C 154.243,219.076 154.576,220.91 156.5,222.5C 153.724,225.364 154.391,227.53 158.5,229C 163.489,229.499 168.489,229.666 173.5,229.5C 173.5,234.5 173.5,239.5 173.5,244.5C 166.203,245.924 158.87,247.257 151.5,248.5C 151.5,221.5 151.5,194.5 151.5,167.5C 158.215,166.821 164.882,165.821 171.5,164.5 Z"/></g>
<g><path style="opacity:0.996" fill="#76826e" d="M 133.5,154.5 C 135.298,157.031 136.465,160.031 137,163.5C 138.55,188.144 138.883,212.81 138,237.5C 137.79,239.058 137.29,240.391 136.5,241.5C 137.945,215.825 137.779,190.158 136,164.5C 134.241,161.392 133.408,158.059 133.5,154.5 Z"/></g>
<g><path style="opacity:0.996" fill="#424341" d="M 156.5,190.5 C 162.011,192.21 167.677,192.877 173.5,192.5C 173.5,194.167 173.5,195.833 173.5,197.5C 167.755,197.789 162.088,197.289 156.5,196C 153.983,193.91 153.983,192.077 156.5,190.5 Z"/></g>
<g><path style="opacity:0.996" fill="#3e433c" d="M 317.5,201.5 C 317.5,202.833 317.5,204.167 317.5,205.5C 313.764,206.989 309.764,207.656 305.5,207.5C 295.874,200.207 286.874,192.207 278.5,183.5C 272.923,195.989 264.923,206.656 254.5,215.5C 253.833,215.5 253.5,215.833 253.5,216.5C 251.167,216.5 248.833,216.5 246.5,216.5C 246.5,215.5 246.5,214.5 246.5,213.5C 247.552,213.649 248.552,213.483 249.5,213C 262.385,203.633 272.051,191.799 278.5,177.5C 287.333,186.497 296.666,194.997 306.5,203C 310.793,205.411 314.46,204.911 317.5,201.5 Z"/></g>
<g><path style="opacity:0.996" fill="#496743" d="M 156.5,190.5 C 156.5,190.167 156.5,189.833 156.5,189.5C 162.346,191.155 168.346,191.822 174.5,191.5C 174.825,198.687 174.491,205.687 173.5,212.5C 173.5,207.5 173.5,202.5 173.5,197.5C 173.5,195.833 173.5,194.167 173.5,192.5C 167.677,192.877 162.011,192.21 156.5,190.5 Z"/></g>
<g><path style="opacity:0.996" fill="#316e22" d="M 350.5,203.5 C 355.844,204.447 360.844,206.281 365.5,209C 367.715,211.242 368.048,213.742 366.5,216.5C 360.597,218.672 354.597,219.005 348.5,217.5C 336.66,216.175 324.66,216.175 312.5,217.5C 312.624,218.107 312.957,218.44 313.5,218.5C 314.965,219.737 316.632,220.737 318.5,221.5C 319.833,222.933 321.333,224.267 323,225.5C 322.904,262.845 322.404,300.178 321.5,337.5C 319.35,346.751 315.016,354.918 308.5,362C 305.901,362.769 303.401,362.602 301,361.5C 297.191,353.393 292.024,346.226 285.5,340C 282.271,337.259 278.938,334.759 275.5,332.5C 274.37,330.685 273.704,328.685 273.5,326.5C 281.171,327.367 288.838,328.367 296.5,329.5C 301.496,329.673 304.663,327.34 306,322.5C 308.351,293.061 307.851,263.728 304.5,234.5C 304.74,231.421 304.407,228.421 303.5,225.5C 301.89,223.505 300.557,221.339 299.5,219C 298.167,218.833 296.833,218.667 295.5,218.5C 275.268,222.459 255.101,226.459 235,230.5C 229.444,230.635 224.611,228.968 220.5,225.5C 218.919,223.858 218.253,221.858 218.5,219.5C 227.996,219.488 237.329,218.488 246.5,216.5C 248.833,216.5 251.167,216.5 253.5,216.5C 258.668,216.066 263.668,215.4 268.5,214.5C 280.954,212.807 293.287,210.473 305.5,207.5C 309.764,207.656 313.764,206.989 317.5,205.5C 318.833,205.5 320.167,205.5 321.5,205.5C 331.098,203.975 340.764,203.308 350.5,203.5 Z"/></g>
<g><path style="opacity:0.996" fill="#5f8255" d="M 350.5,203.5 C 340.764,203.308 331.098,203.975 321.5,205.5C 324.203,204.037 327.203,203.204 330.5,203C 337.346,202.179 344.013,202.346 350.5,203.5 Z"/></g>
<g><path style="opacity:0.35" fill="#cfcdca" d="M 419.5,155.5 C 422.351,165.231 424.518,175.231 426,185.5C 426.393,199.817 427.226,213.817 428.5,227.5C 427.224,225.438 426.39,223.104 426,220.5C 425.667,209.5 425.333,198.5 425,187.5C 422.845,176.891 421.012,166.225 419.5,155.5 Z"/></g>
<g><path style="opacity:0.996" fill="#3d403c" d="M 207.5,213.5 C 207.896,216.044 207.229,218.211 205.5,220C 199.296,222.144 192.962,223.644 186.5,224.5C 186.178,222.278 186.845,220.444 188.5,219C 195.018,217.737 201.351,215.904 207.5,213.5 Z"/></g>
<g><path style="opacity:0.996" fill="#628159" d="M 268.5,214.5 C 263.668,215.4 258.668,216.066 253.5,216.5C 253.5,215.833 253.833,215.5 254.5,215.5C 259.103,214.617 263.77,214.283 268.5,214.5 Z"/></g>
<g><path style="opacity:0.996" fill="#2e5329" d="M 348.5,217.5 C 336.655,217.172 324.988,217.505 313.5,218.5C 312.957,218.44 312.624,218.107 312.5,217.5C 324.66,216.175 336.66,216.175 348.5,217.5 Z"/></g>
<g><path style="opacity:0.996" fill="#3d3e3c" d="M 366.5,216.5 C 368.167,219.308 367.5,221.475 364.5,223C 349.124,223.165 333.791,222.665 318.5,221.5C 316.632,220.737 314.965,219.737 313.5,218.5C 324.988,217.505 336.655,217.172 348.5,217.5C 354.597,219.005 360.597,218.672 366.5,216.5 Z"/></g>
<g><path style="opacity:0.996" fill="#3d413c" d="M 304.5,234.5 C 303.042,232.068 301.875,229.401 301,226.5C 299.701,225.02 298.034,224.354 296,224.5C 274.931,228.223 253.931,232.223 233,236.5C 226.413,236.566 221.58,233.733 218.5,228C 218.639,226.699 219.305,225.866 220.5,225.5C 224.611,228.968 229.444,230.635 235,230.5C 255.101,226.459 275.268,222.459 295.5,218.5C 296.833,218.667 298.167,218.833 299.5,219C 300.557,221.339 301.89,223.505 303.5,225.5C 304.407,228.421 304.74,231.421 304.5,234.5 Z"/></g>
<g><path style="opacity:0.145" fill="#dddcd9" d="M 44.5,176.5 C 45.172,179.908 44.172,182.575 41.5,184.5C 40.5272,187.779 39.0272,190.779 37,193.5C 36.6667,200.5 36.3333,207.5 36,214.5C 35.8692,217.371 34.7025,219.705 32.5,221.5C 33.5,222.833 34.5,224.167 35.5,225.5C 31.8552,229.433 30.1885,234.1 30.5,239.5C 28.7706,234.241 29.7706,229.408 33.5,225C 30.0413,222.599 30.2079,220.099 34,217.5C 32.4003,202.344 35.9003,188.678 44.5,176.5 Z"/></g>
<g><path style="opacity:0.996" fill="#414540" d="M 156.5,222.5 C 162.464,223.307 168.464,223.64 174.5,223.5C 174.795,225.735 174.461,227.735 173.5,229.5C 168.489,229.666 163.489,229.499 158.5,229C 154.391,227.53 153.724,225.364 156.5,222.5 Z"/></g>
<g><path style="opacity:0.996" fill="#68855f" d="M 201.5,239.5 C 197.528,238.38 193.528,238.38 189.5,239.5C 191.29,238.003 193.456,237.336 196,237.5C 197.5,237.667 199,237.833 200.5,238C 201.056,238.383 201.389,238.883 201.5,239.5 Z"/></g>
<g><path style="opacity:0.996" fill="#326e23" d="M 289.5,258.5 C 284.443,262.947 281.443,268.613 280.5,275.5C 280.543,276.416 280.876,277.083 281.5,277.5C 284.37,279.648 285.037,282.315 283.5,285.5C 281.254,286.455 278.921,287.122 276.5,287.5C 267.553,287.865 258.887,289.198 250.5,291.5C 246.167,291.167 244.167,293.167 244.5,297.5C 243.566,298.568 243.232,299.901 243.5,301.5C 241.107,305.441 238.607,305.441 236,301.5C 235.098,299.073 234.264,296.74 233.5,294.5C 232.504,287.541 231.837,280.541 231.5,273.5C 231.662,271.473 231.495,269.473 231,267.5C 229.636,263.437 227.802,259.771 225.5,256.5C 223.281,250.556 225.281,248.056 231.5,249C 235.64,252.242 240.306,253.242 245.5,252C 255.14,249.81 264.307,246.643 273,242.5C 277.675,243.17 281.842,245.003 285.5,248C 289.563,250.602 290.896,254.102 289.5,258.5 Z"/></g>
<g><path style="opacity:0.996" fill="#3c413b" d="M 194.5,253.5 C 194.629,255.216 194.962,256.883 195.5,258.5C 193.669,257.005 191.502,256.338 189,256.5C 177.446,257.853 165.946,259.686 154.5,262C 149.628,263.707 146.961,267.207 146.5,272.5C 143.709,274.04 141.209,273.706 139,271.5C 137.594,267.969 136.76,264.302 136.5,260.5C 137.793,261.842 138.626,263.509 139,265.5C 141.667,268.167 144.333,268.167 147,265.5C 146.947,262.387 148.114,259.887 150.5,258C 162.821,255.06 175.154,252.56 187.5,250.5C 189.5,250.833 191.5,251.167 193.5,251.5C 193.863,252.183 194.196,252.85 194.5,253.5 Z"/></g>
<g><path style="opacity:0.996" fill="#151514" d="M 35.5,263.5 C 34.9791,259.519 34.6458,255.519 34.5,251.5C 38.5974,251.869 40.7641,254.202 41,258.5C 41.6667,262.5 41.6667,266.5 41,270.5C 39.629,267.734 37.7957,265.401 35.5,263.5 Z"/></g>
<g><path style="opacity:0.996" fill="#31512c" d="M 267.5,256.5 C 260.711,256.689 254.044,257.356 247.5,258.5C 254.001,255.728 260.668,255.061 267.5,256.5 Z"/></g>
<g><path style="opacity:0.996" fill="#3a3c3a" d="M 267.5,256.5 C 269.28,257.99 269.946,259.99 269.5,262.5C 260.717,261.183 252.05,261.85 243.5,264.5C 243.5,262.833 243.5,261.167 243.5,259.5C 245.099,259.768 246.432,259.434 247.5,258.5C 254.044,257.356 260.711,256.689 267.5,256.5 Z"/></g>
<g><path style="opacity:0.996" fill="#919088" d="M 269.5,262.5 C 269.765,269.133 267.432,274.633 262.5,279C 256.608,280.807 250.608,281.974 244.5,282.5C 243.637,276.545 243.303,270.545 243.5,264.5C 252.05,261.85 260.717,261.183 269.5,262.5 Z"/></g>
<g><path style="opacity:0.996" fill="#336e25" d="M 189.5,288.5 C 187.192,289.714 184.859,289.714 182.5,288.5C 177.791,283.071 174.124,277.071 171.5,270.5C 171.5,268.5 171.5,266.5 171.5,264.5C 185.589,266.574 191.589,274.574 189.5,288.5 Z"/></g>
<g><path style="opacity:0.996" fill="#404f3d" d="M 225.5,256.5 C 227.802,259.771 229.636,263.437 231,267.5C 231.495,269.473 231.662,271.473 231.5,273.5C 228.726,268.182 226.726,262.515 225.5,256.5 Z"/></g>
<g><path style="opacity:0.996" fill="#434a40" d="M 289.5,258.5 C 290.598,259.601 290.765,260.934 290,262.5C 286.094,266.989 283.26,271.989 281.5,277.5C 280.876,277.083 280.543,276.416 280.5,275.5C 281.443,268.613 284.443,262.947 289.5,258.5 Z"/></g>
<g><path style="opacity:0.996" fill="#667d5f" d="M 194.5,253.5 C 195.315,254.429 196.148,255.429 197,256.5C 197.827,270.34 197.661,284.006 196.5,297.5C 196.814,284.421 196.48,271.421 195.5,258.5C 194.962,256.883 194.629,255.216 194.5,253.5 Z"/></g>
<g><path style="opacity:0.996" fill="#346f25" d="M 167.5,296.5 C 165.84,298.248 163.84,298.748 161.5,298C 157.756,293.883 155.423,289.05 154.5,283.5C 154.043,282.702 153.376,282.369 152.5,282.5C 151.534,278.935 151.534,275.435 152.5,272C 155.017,271.743 157.35,272.41 159.5,274C 167.59,279.506 170.256,287.006 167.5,296.5 Z"/></g>
<g><path style="opacity:0.996" fill="#356f26" d="M 120.5,306.5 C 118.868,309.558 117.701,312.891 117,316.5C 115.705,318.122 114.205,319.455 112.5,320.5C 110.971,320.471 109.804,319.804 109,318.5C 108.284,316.121 107.117,314.121 105.5,312.5C 104.42,309.257 104.253,305.924 105,302.5C 107.602,298.294 109.936,293.961 112,289.5C 112.69,284.512 113.856,279.679 115.5,275C 116.5,274.333 117.5,274.333 118.5,275C 119.329,276.816 120.163,278.649 121,280.5C 121.802,289.245 121.636,297.912 120.5,306.5 Z"/></g>
<g><path style="opacity:0.996" fill="#346f26" d="M 148.5,301.5 C 147.696,303.189 146.696,304.855 145.5,306.5C 143.926,307.631 142.259,307.798 140.5,307C 137.796,302.65 135.463,298.15 133.5,293.5C 132.02,288.252 131.52,282.919 132,277.5C 133.388,276.446 134.888,276.28 136.5,277C 141.104,281.603 144.938,286.77 148,292.5C 148.498,295.482 148.665,298.482 148.5,301.5 Z"/></g>
<g><path style="opacity:0.169" fill="#ebe9e8" d="M 40.5,276.5 C 41.29,277.609 41.79,278.942 42,280.5C 42.5667,288.5 43.0667,296.5 43.5,304.5C 41.9742,295.364 40.9742,286.031 40.5,276.5 Z"/></g>
<g><path style="opacity:0.996" fill="#424640" d="M 171.5,270.5 C 174.124,277.071 177.791,283.071 182.5,288.5C 184.859,289.714 187.192,289.714 189.5,288.5C 189.619,293.703 187.285,295.703 182.5,294.5C 176.454,287.269 172.788,279.269 171.5,270.5 Z"/></g>
<g><path style="opacity:0.996" fill="#3f413e" d="M 283.5,285.5 C 284.666,287.166 284.666,288.833 283.5,290.5C 281.269,291.903 278.936,293.07 276.5,294C 265.822,295.137 255.155,296.304 244.5,297.5C 244.167,293.167 246.167,291.167 250.5,291.5C 259.432,291.17 268.098,289.837 276.5,287.5C 278.921,287.122 281.254,286.455 283.5,285.5 Z"/></g>
<g><path style="opacity:0.996" fill="#334c2e" d="M 276.5,287.5 C 268.098,289.837 259.432,291.17 250.5,291.5C 258.887,289.198 267.553,287.865 276.5,287.5 Z"/></g>
<g><path style="opacity:0.996" fill="#444742" d="M 152.5,282.5 C 153.376,282.369 154.043,282.702 154.5,283.5C 155.423,289.05 157.756,293.883 161.5,298C 163.84,298.748 165.84,298.248 167.5,296.5C 168.837,299.317 168.17,301.817 165.5,304C 164.167,304.667 162.833,304.667 161.5,304C 156.454,297.698 153.454,290.531 152.5,282.5 Z"/></g>
<g><path style="opacity:0.996" fill="#434842" d="M 233.5,294.5 C 234.264,296.74 235.098,299.073 236,301.5C 238.607,305.441 241.107,305.441 243.5,301.5C 242.677,304.461 242.01,307.461 241.5,310.5C 238.737,310.256 236.571,308.923 235,306.5C 233.844,302.582 233.344,298.582 233.5,294.5 Z"/></g>
<g><path style="opacity:0.024" fill="#c9c8c7" d="M 436.5,256.5 C 436.489,258.017 435.823,259.184 434.5,260C 438.119,262.024 438.286,264.191 435,266.5C 434.278,274.162 433.612,281.829 433,289.5C 432.333,290.833 431.667,292.167 431,293.5C 430.667,298.5 430.333,303.5 430,308.5C 429.768,309.737 429.268,310.737 428.5,311.5C 429.01,304.496 429.677,297.496 430.5,290.5C 431.192,289.975 431.692,289.308 432,288.5C 432.398,282.658 432.898,276.824 433.5,271C 432.466,266.847 432.633,262.68 434,258.5C 434.417,257.244 435.25,256.577 436.5,256.5 Z"/></g>
<g><path style="opacity:0.996" fill="#474b45" d="M 133.5,293.5 C 135.463,298.15 137.796,302.65 140.5,307C 142.259,307.798 143.926,307.631 145.5,306.5C 146.696,304.855 147.696,303.189 148.5,301.5C 149.585,306.989 147.752,310.989 143,313.5C 142.167,313.333 141.333,313.167 140.5,313C 136.26,307.217 133.926,300.717 133.5,293.5 Z"/></g>
<g><path style="opacity:0.996" fill="#6c7665" d="M 216.5,256.5 C 216.244,261.757 215.077,266.757 213,271.5C 212.667,284.5 212.333,297.5 212,310.5C 211.328,317.605 209.494,324.272 206.5,330.5C 210.888,309.191 212.721,287.524 212,265.5C 213.047,262.141 214.547,259.141 216.5,256.5 Z"/></g>
<g><path style="opacity:0.996" fill="#567f4c" d="M 196.5,297.5 C 196.48,304.805 195.48,311.972 193.5,319C 193.164,320.03 192.497,320.53 191.5,320.5C 193.622,312.835 195.289,305.169 196.5,297.5 Z"/></g>
<g><path style="opacity:0.012" fill="#acacac" d="M 427.5,312.5 C 427.833,312.5 428.167,312.5 428.5,312.5C 420.266,329.301 411.766,345.967 403,362.5C 400.608,367.33 398.941,372.33 398,377.5C 395.79,376.251 393.624,376.418 391.5,378C 384.947,385.43 377.947,392.43 370.5,399C 356.063,408.73 341.73,418.73 327.5,429C 324.194,432.306 320.86,435.64 317.5,439C 314.725,439.778 312.225,439.278 310,437.5C 307.262,439.12 304.428,440.62 301.5,442C 298.633,442.801 295.966,442.634 293.5,441.5C 296.877,441.932 299.877,441.265 302.5,439.5C 304.941,438.443 307.275,437.11 309.5,435.5C 311.915,437.216 314.582,437.716 317.5,437C 322.368,431.555 327.702,426.555 333.5,422C 344.993,413.753 356.66,405.753 368.5,398C 376.549,390.948 384.216,383.615 391.5,376C 393.81,375.503 396.143,375.337 398.5,375.5C 398.335,372.482 398.502,369.482 399,366.5C 408.78,348.606 418.28,330.606 427.5,312.5 Z"/></g>
<g><path style="opacity:0.996" fill="#3f443e" d="M 120.5,306.5 C 120.326,309.874 119.826,313.207 119,316.5C 117.259,319.309 116.092,322.309 115.5,325.5C 112.956,325.896 110.789,325.229 109,323.5C 106.924,320.107 105.758,316.44 105.5,312.5C 107.117,314.121 108.284,316.121 109,318.5C 109.804,319.804 110.971,320.471 112.5,320.5C 114.205,319.455 115.705,318.122 117,316.5C 117.701,312.891 118.868,309.558 120.5,306.5 Z"/></g>
<g><path style="opacity:0.997" fill="#090808" d="M 427.5,312.5 C 418.28,330.606 408.78,348.606 399,366.5C 398.502,369.482 398.335,372.482 398.5,375.5C 396.143,375.337 393.81,375.503 391.5,376C 384.216,383.615 376.549,390.948 368.5,398C 356.66,405.753 344.993,413.753 333.5,422C 327.702,426.555 322.368,431.555 317.5,437C 314.582,437.716 311.915,437.216 309.5,435.5C 307.275,437.11 304.941,438.443 302.5,439.5C 298.5,439.5 294.5,439.5 290.5,439.5C 289.833,439.5 289.167,439.5 288.5,439.5C 282.231,438.02 275.731,437.353 269,437.5C 257.488,438.029 245.988,438.696 234.5,439.5C 228.219,439.198 222.052,438.198 216,436.5C 212.268,437.366 208.934,439.033 206,441.5C 202.459,442.426 198.959,443.426 195.5,444.5C 189.5,445.833 183.5,445.833 177.5,444.5C 174.139,443.444 170.806,442.444 167.5,441.5C 160.17,437.659 152.837,433.492 145.5,429C 143.655,427.872 141.655,427.372 139.5,427.5C 137.954,425.069 135.621,423.736 132.5,423.5C 125.75,417.712 118.917,412.045 112,406.5C 109.22,403.058 107.72,399.058 107.5,394.5C 105.677,393.253 103.677,392.586 101.5,392.5C 99.0122,390.612 96.0122,389.945 92.5,390.5C 92.5,388.833 92.5,387.167 92.5,385.5C 89.4867,385.893 86.8201,385.226 84.5,383.5C 83.9717,382.279 83.305,381.113 82.5,380C 74.0209,374.335 66.1876,367.835 59,360.5C 58.6466,359.328 58.8132,358.162 59.5,357C 57.6884,355.188 55.8551,353.355 54,351.5C 52.4314,345.812 50.9314,340.145 49.5,334.5C 49.3433,333.127 49.51,331.793 50,330.5C 51.1912,333.534 53.3579,335.201 56.5,335.5C 55.9862,337.512 55.8195,339.512 56,341.5C 62.3366,349.178 69.8366,355.345 78.5,360C 80.4049,361.815 82.0716,363.815 83.5,366C 85.4727,366.495 87.4727,366.662 89.5,366.5C 89.5,368.167 89.5,369.833 89.5,371.5C 92.5719,371.183 95.5719,371.516 98.5,372.5C 100.858,374.287 103.525,375.287 106.5,375.5C 106.035,379.792 106.868,383.792 109,387.5C 124.482,401.824 141.982,412.991 161.5,421C 176.499,428.88 191.832,429.547 207.5,423C 212.267,417.914 217.6,417.247 223.5,421C 240.359,421.538 257.192,421.038 274,419.5C 278.015,419.501 281.849,419.835 285.5,420.5C 289.532,422.236 293.865,423.236 298.5,423.5C 300.883,423.639 302.883,422.972 304.5,421.5C 306.773,420.233 308.773,418.567 310.5,416.5C 312.592,419.152 315.258,419.986 318.5,419C 322.866,414.299 327.533,409.966 332.5,406C 347.778,395.722 362.778,385.055 377.5,374C 382.161,368.339 387.161,363.006 392.5,358C 394.769,355.977 397.436,355.144 400.5,355.5C 400.192,353.076 400.526,350.743 401.5,348.5C 410.332,331.877 419.165,315.211 428,298.5C 428.333,303.174 428.167,307.84 427.5,312.5 Z"/></g>
<g><path style="opacity:0.996" fill="#3e433d" d="M 275.5,332.5 C 278.938,334.759 282.271,337.259 285.5,340C 292.024,346.226 297.191,353.393 301,361.5C 303.401,362.602 305.901,362.769 308.5,362C 315.016,354.918 319.35,346.751 321.5,337.5C 320.346,348.801 316.18,358.801 309,367.5C 306.084,369.013 303.418,368.68 301,366.5C 294.233,355.043 285.566,345.043 275,336.5C 274.235,334.934 274.402,333.601 275.5,332.5 Z"/></g>
<g><path style="opacity:0.996" fill="#3d433c" d="M 168.5,325.5 C 170.787,326.619 172.621,328.285 174,330.5C 175.413,333.661 177.08,336.661 179,339.5C 179.223,351.057 184.057,353.557 193.5,347C 198.225,341.668 202.558,336.168 206.5,330.5C 203.865,340.325 198.532,348.492 190.5,355C 186.845,357.335 183.679,356.835 181,353.5C 180.188,344.87 176.521,337.87 170,332.5C 169.546,330.464 168.713,328.63 167.5,327C 167.57,326.235 167.903,325.735 168.5,325.5 Z"/></g>
<g><path style="opacity:0.047" fill="#bab9b9" d="M 43.5,311.5 C 44.4959,311.414 45.3292,311.748 46,312.5C 46.7651,320.038 47.9318,327.372 49.5,334.5C 50.9314,340.145 52.4314,345.812 54,351.5C 55.8551,353.355 57.6884,355.188 59.5,357C 58.8132,358.162 58.6466,359.328 59,360.5C 66.1876,367.835 74.0209,374.335 82.5,380C 83.305,381.113 83.9717,382.279 84.5,383.5C 84.5,384.167 84.5,384.833 84.5,385.5C 83.2206,383.877 81.8872,382.21 80.5,380.5C 71.9237,375.422 64.4237,369.089 58,361.5C 57.2797,359.888 57.4464,358.388 58.5,357C 56.3762,355.878 54.5429,354.378 53,352.5C 48.68,339.082 45.5133,325.416 43.5,311.5 Z"/></g>
<g><path style="opacity:0.459" fill="#787878" d="M 84.5,383.5 C 86.8201,385.226 89.4867,385.893 92.5,385.5C 92.5,387.167 92.5,388.833 92.5,390.5C 96.0122,389.945 99.0122,390.612 101.5,392.5C 97.9581,392.813 94.6248,392.479 91.5,391.5C 91.5,389.833 91.5,388.167 91.5,386.5C 89.0504,386.702 86.717,386.369 84.5,385.5C 84.5,384.833 84.5,384.167 84.5,383.5 Z"/></g>
<g><path style="opacity:0.249" fill="#c8c8c8" d="M 84.5,385.5 C 86.717,386.369 89.0504,386.702 91.5,386.5C 91.5,388.167 91.5,389.833 91.5,391.5C 90.7677,390.192 89.9344,388.858 89,387.5C 86.7763,388.641 85.2763,387.974 84.5,385.5 Z"/></g>
<g><path style="opacity:0.027" fill="#aaaaaa" d="M 101.5,392.5 C 103.677,392.586 105.677,393.253 107.5,394.5C 107.72,399.058 109.22,403.058 112,406.5C 118.917,412.045 125.75,417.712 132.5,423.5C 123.916,418.608 116.083,412.608 109,405.5C 107.875,402.216 106.875,398.883 106,395.5C 104.348,394.601 102.848,393.601 101.5,392.5 Z"/></g>
<g><path style="opacity:0.996" fill="#55534f" d="M 285.5,420.5 C 291.797,421.32 298.131,421.653 304.5,421.5C 302.883,422.972 300.883,423.639 298.5,423.5C 293.865,423.236 289.532,422.236 285.5,420.5 Z"/></g>
<g><path style="opacity:0.11" fill="#969696" d="M 132.5,423.5 C 135.621,423.736 137.954,425.069 139.5,427.5C 136.669,426.921 134.336,425.588 132.5,423.5 Z"/></g>
<g><path style="opacity:0.718" fill="#929292" d="M 139.5,427.5 C 141.655,427.372 143.655,427.872 145.5,429C 152.837,433.492 160.17,437.659 167.5,441.5C 159.456,438.316 151.456,434.816 143.5,431C 141.907,430.051 140.574,428.885 139.5,427.5 Z"/></g>
<g><path style="opacity:0.467" fill="#8b8b8b" d="M 288.5,439.5 C 287.5,439.5 286.5,439.5 285.5,439.5C 273.146,439.323 260.813,439.656 248.5,440.5C 243.637,440.819 238.97,440.486 234.5,439.5C 245.988,438.696 257.488,438.029 269,437.5C 275.731,437.353 282.231,438.02 288.5,439.5 Z"/></g>
<g><path style="opacity:0.945" fill="#515151" d="M 290.5,439.5 C 294.5,439.5 298.5,439.5 302.5,439.5C 299.877,441.265 296.877,441.932 293.5,441.5C 292.5,440.833 291.5,440.167 290.5,439.5 Z"/></g>
<g><path style="opacity:0.082" fill="#dcdcdc" d="M 285.5,439.5 C 286.5,439.5 287.5,439.5 288.5,439.5C 289.167,439.5 289.833,439.5 290.5,439.5C 291.5,440.167 292.5,440.833 293.5,441.5C 290.505,441.706 287.838,441.04 285.5,439.5 Z"/></g>
<g><path style="opacity:0.122" fill="#b4b4b3" d="M 234.5,439.5 C 238.97,440.486 243.637,440.819 248.5,440.5C 237.847,442.099 227.18,441.432 216.5,438.5C 209.542,442.153 202.208,444.82 194.5,446.5C 194.833,445.833 195.167,445.167 195.5,444.5C 198.959,443.426 202.459,442.426 206,441.5C 208.934,439.033 212.268,437.366 216,436.5C 222.052,438.198 228.219,439.198 234.5,439.5 Z"/></g>
<g><path style="opacity:0.078" fill="#b3b3b3" d="M 167.5,441.5 C 170.806,442.444 174.139,443.444 177.5,444.5C 178.167,445.167 178.833,445.833 179.5,446.5C 174.999,445.913 170.999,444.246 167.5,441.5 Z"/></g>
<g><path style="opacity:0.455" fill="#818181" d="M 177.5,444.5 C 183.5,445.833 189.5,445.833 195.5,444.5C 195.167,445.167 194.833,445.833 194.5,446.5C 189.5,447.833 184.5,447.833 179.5,446.5C 178.833,445.833 178.167,445.167 177.5,444.5 Z"/></g>
</svg>
