<?xml version="1.0" encoding="UTF-8"?>
<!DOCTYPE svg PUBLIC "-//W3C//DTD SVG 1.1//EN" "http://www.w3.org/Graphics/SVG/1.1/DTD/svg11.dtd">
<svg xmlns="http://www.w3.org/2000/svg" version="1.1" width="462px" height="453px" style="shape-rendering:geometricPrecision; text-rendering:geometricPrecision; image-rendering:optimizeQuality; fill-rule:evenodd; clip-rule:evenodd" xmlns:xlink="http://www.w3.org/1999/xlink">
<g><path style="opacity:0.996" fill="#97948e" d="M 293.5,51.5 C 298.95,53.0609 303.95,55.3942 308.5,58.5C 308.953,59.4584 309.619,60.2917 310.5,61C 318.391,64.0526 326.058,67.5526 333.5,71.5C 342.313,75.9731 349.98,81.9731 356.5,89.5C 356.643,101.967 362.977,107.3 375.5,105.5C 375.5,107.167 375.5,108.833 375.5,110.5C 377.512,109.986 379.512,109.82 381.5,110C 382.761,115.43 386.095,118.597 391.5,119.5C 394.533,121.016 397.2,123.016 399.5,125.5C 401.43,129.266 404.264,132.266 408,134.5C 408.687,136.568 408.52,138.568 407.5,140.5C 409.208,141.992 410.875,142.325 412.5,141.5C 413.167,141.5 413.5,141.833 413.5,142.5C 417.369,156.403 420.369,170.403 422.5,184.5C 422.5,184.833 422.5,185.167 422.5,185.5C 421.893,197.625 422.726,209.625 425,221.5C 425.697,223.584 426.864,225.251 428.5,226.5C 427.889,229.961 429.056,232.628 432,234.5C 434.511,240.765 433.677,246.431 429.5,251.5C 429.939,253.104 430.606,254.604 431.5,256C 430.596,260.111 430.263,264.278 430.5,268.5C 428.492,275.16 426.825,282.16 425.5,289.5C 424.542,289.953 423.708,290.619 423,291.5C 415.045,307.95 406.879,324.284 398.5,340.5C 397.52,343.086 397.187,345.753 397.5,348.5C 394.68,348.248 392.014,348.748 389.5,350C 383.044,356.946 376.377,363.613 369.5,370C 356.173,379.325 342.839,388.658 329.5,398C 324.533,401.966 319.866,406.299 315.5,411C 312.416,411.631 309.75,410.798 307.5,408.5C 302.8,413.984 296.8,415.984 289.5,414.5C 285.46,412.883 281.127,412.05 276.5,412C 268.988,411.178 261.655,411.345 254.5,412.5C 252.052,413.473 249.385,413.806 246.5,413.5C 236.092,413.796 225.758,413.13 215.5,411.5C 213.598,410.489 211.598,410.322 209.5,411C 197.463,418.6 184.463,421.267 170.5,419C 150.899,410.203 132.233,399.87 114.5,388C 110.298,384.133 106.465,379.967 103,375.5C 102.818,372.774 102.318,370.107 101.5,367.5C 96.7986,365.142 91.7986,363.975 86.5,364C 85.8971,362.175 85.2304,360.341 84.5,358.5C 83.109,359.645 81.7757,359.645 80.5,358.5C 78.525,355.391 76.1916,352.557 73.5,350C 68.6977,348.099 64.3643,345.432 60.5,342C 58.1054,339.36 55.6054,336.86 53,334.5C 52.3486,332.765 52.5153,331.098 53.5,329.5C 52.3984,328.824 51.3984,328.158 50.5,327.5C 48.5121,325.535 47.0121,323.202 46,320.5C 46.034,325.851 46.534,331.184 47.5,336.5C 44.546,329.925 43.2127,322.925 43.5,315.5C 41.0078,299.271 39.5078,282.937 39,266.5C 37.9055,264.922 37.0722,263.255 36.5,261.5C 37.1174,261.611 37.6174,261.944 38,262.5C 39.3356,255.777 38.1689,249.61 34.5,244C 33.8333,243.333 33.1667,243.333 32.5,244C 31.5769,246.041 31.2436,248.208 31.5,250.5C 30.5386,248.735 30.2053,246.735 30.5,244.5C 30.3284,243.508 30.6618,242.842 31.5,242.5C 32.2891,242.217 32.9558,241.717 33.5,241C 28.7382,234.393 27.5715,227.226 30,219.5C 31.1581,219.002 31.9915,218.169 32.5,217C 31.4911,215.832 30.4911,214.665 29.5,213.5C 31.7025,211.705 32.8692,209.371 33,206.5C 33.3333,199.833 33.6667,193.167 34,186.5C 39.6807,175.635 45.1807,164.635 50.5,153.5C 50.3764,152.893 50.0431,152.56 49.5,152.5C 49.3284,151.508 49.6618,150.842 50.5,150.5C 51.3285,151.332 52.1618,150.999 53,149.5C 54.5361,144.763 56.8694,140.429 60,136.5C 61.0056,133.155 62.5056,130.155 64.5,127.5C 65.4656,125.604 65.7989,123.604 65.5,121.5C 70.8187,121.191 74.4854,118.524 76.5,113.5C 80.9585,107.207 86.2918,101.707 92.5,97C 105.052,88.2319 117.718,79.7319 130.5,71.5C 136.75,67.2614 142.75,62.5947 148.5,57.5C 150.383,58.0243 152.216,58.6909 154,59.5C 157.92,56.2944 162.42,54.961 167.5,55.5C 176.436,56.8983 185.436,57.5649 194.5,57.5C 208.83,56.7123 223.163,56.0457 237.5,55.5C 239.167,55.5 240.833,55.5 242.5,55.5C 243.898,57.5328 245.898,58.5328 248.5,58.5C 255.296,56.1673 261.963,53.6673 268.5,51C 276.868,50.2596 285.202,50.4263 293.5,51.5 Z"/></g>
<g><path style="opacity:0.192" fill="#c7c5c1" d="M 293.5,51.5 C 285.202,50.4263 276.868,50.2596 268.5,51C 261.963,53.6673 255.296,56.1673 248.5,58.5C 245.898,58.5328 243.898,57.5328 242.5,55.5C 244.484,56.1557 246.484,56.8224 248.5,57.5C 258.075,52.1819 268.409,48.8485 279.5,47.5C 284.63,47.612 289.296,48.9453 293.5,51.5 Z"/></g>
<g><path style="opacity:0.153" fill="#c8c6c2" d="M 237.5,55.5 C 223.163,56.0457 208.83,56.7123 194.5,57.5C 185.436,57.5649 176.436,56.8983 167.5,55.5C 162.42,54.961 157.92,56.2944 154,59.5C 152.216,58.6909 150.383,58.0243 148.5,57.5C 142.75,62.5947 136.75,67.2614 130.5,71.5C 136.159,65.8447 142.159,60.5114 148.5,55.5C 150.697,55.8481 152.53,56.8481 154,58.5C 157.324,54.7555 161.491,53.0888 166.5,53.5C 187.135,57.0608 207.802,57.0608 228.5,53.5C 231.702,53.8598 234.702,54.5265 237.5,55.5 Z"/></g>
<g><path style="opacity:0.478" fill="#ceccc9" d="M 308.5,58.5 C 317.628,61.5618 325.961,65.8952 333.5,71.5C 326.058,67.5526 318.391,64.0526 310.5,61C 309.619,60.2917 308.953,59.4584 308.5,58.5 Z"/></g>
<g><path style="opacity:0.318" fill="#d5d3d0" d="M 356.5,89.5 C 359.214,92.7872 360.881,96.6205 361.5,101C 365.943,102.94 370.61,103.94 375.5,104C 376.772,105.307 377.772,106.807 378.5,108.5C 379.451,107.674 380.451,107.508 381.5,108C 383.377,110.251 384.877,112.751 386,115.5C 388.015,116.697 389.849,118.03 391.5,119.5C 386.095,118.597 382.761,115.43 381.5,110C 379.512,109.82 377.512,109.986 375.5,110.5C 375.5,108.833 375.5,107.167 375.5,105.5C 362.977,107.3 356.643,101.967 356.5,89.5 Z"/></g>
<g><path style="opacity:0.996" fill="#326e22" d="M 261.5,129.5 C 258.17,133.811 256.836,138.811 257.5,144.5C 255.123,163.277 253.79,182.277 253.5,201.5C 267.269,198.96 280.936,195.793 294.5,192C 303.109,191.022 311.609,191.522 320,193.5C 322.135,194.928 324.302,196.262 326.5,197.5C 327.694,199.516 327.694,201.516 326.5,203.5C 322.987,205.082 319.321,206.415 315.5,207.5C 294.632,208.79 273.965,211.457 253.5,215.5C 252.558,215.608 251.725,215.941 251,216.5C 250.505,218.473 250.338,220.473 250.5,222.5C 250.337,224.857 250.503,227.19 251,229.5C 265.478,252.997 282.645,274.497 302.5,294C 310.565,299.728 318.899,305.061 327.5,310C 340.056,314.155 352.389,318.822 364.5,324C 367.114,326.243 367.114,328.41 364.5,330.5C 345.161,334.208 325.828,334.375 306.5,331C 300.254,325.008 294.587,318.508 289.5,311.5C 279.095,295.76 269.095,279.76 259.5,263.5C 256.465,256.77 253.465,250.104 250.5,243.5C 249.5,243.5 248.5,243.5 247.5,243.5C 246.018,248.015 245.352,252.681 245.5,257.5C 239.978,278.035 229.644,295.868 214.5,311C 202.29,320.789 188.624,327.623 173.5,331.5C 171.623,330.341 171.123,328.674 172,326.5C 202.784,308.941 222.451,282.941 231,248.5C 232.622,240.894 233.788,233.227 234.5,225.5C 235.301,223.958 235.634,222.292 235.5,220.5C 229.778,220.898 224.111,221.731 218.5,223C 211.537,225.661 204.37,227.494 197,228.5C 191.467,228.49 186.633,226.824 182.5,223.5C 181.286,222.374 180.286,221.041 179.5,219.5C 179.747,218.287 180.414,217.62 181.5,217.5C 189.322,215.991 196.988,214.324 204.5,212.5C 215.062,210.364 225.729,208.198 236.5,206C 237.471,200.928 237.805,195.762 237.5,190.5C 238.496,174.342 238.83,158.009 238.5,141.5C 238.998,131.97 235.998,123.97 229.5,117.5C 229.5,115.167 229.5,112.833 229.5,110.5C 241.401,110.921 251.901,114.921 261,122.5C 261.497,124.81 261.663,127.143 261.5,129.5 Z"/></g>
<g><path style="opacity:0.996" fill="#326f22" d="M 197.5,137.5 C 194.232,141.271 190.732,144.938 187,148.5C 179.115,161.716 170.448,174.382 161,186.5C 160.235,188.066 160.402,189.399 161.5,190.5C 163.893,192.736 165.727,195.403 167,198.5C 167.124,238.184 166.291,277.851 164.5,317.5C 162.654,321.868 161.487,326.535 161,331.5C 159.421,334.994 157.587,338.327 155.5,341.5C 153.926,342.631 152.259,342.798 150.5,342C 149.837,340.482 148.837,339.315 147.5,338.5C 146.389,331.672 145.389,324.839 144.5,318C 146.637,302.857 148.637,287.69 150.5,272.5C 151.652,266.02 152.485,259.354 153,252.5C 153.5,234.503 153.667,216.503 153.5,198.5C 152.209,198.263 151.209,198.596 150.5,199.5C 137.596,214.567 122.93,227.734 106.5,239C 103.029,241.072 99.3621,242.572 95.5,243.5C 94.3871,242.054 94.2204,240.387 95,238.5C 123.928,212.919 147.595,183.252 166,149.5C 167.366,144.687 169.033,140.021 171,135.5C 172.026,130.215 172.693,124.882 173,119.5C 174.516,116.994 176.682,116.16 179.5,117C 186.21,120.704 192.043,125.538 197,131.5C 197.495,133.473 197.662,135.473 197.5,137.5 Z"/></g>
<g><path style="opacity:0.996" fill="#424f3f" d="M 229.5,117.5 C 235.998,123.97 238.998,131.97 238.5,141.5C 237.239,138.742 236.406,135.742 236,132.5C 235.617,131.944 235.117,131.611 234.5,131.5C 233.844,128.372 232.344,125.705 230,123.5C 229.505,121.527 229.338,119.527 229.5,117.5 Z"/></g>
<g><path style="opacity:0.112" fill="#d0cfcd" d="M 399.5,125.5 C 404.351,128.184 408.017,132.018 410.5,137C 409.367,139.094 410.034,140.594 412.5,141.5C 410.875,142.325 409.208,141.992 407.5,140.5C 408.52,138.568 408.687,136.568 408,134.5C 404.264,132.266 401.43,129.266 399.5,125.5 Z"/></g>
<g><path style="opacity:0.635" fill="#cccac7" d="M 76.5,113.5 C 74.4854,118.524 70.8187,121.191 65.5,121.5C 65.7989,123.604 65.4656,125.604 64.5,127.5C 62.5056,130.155 61.0056,133.155 60,136.5C 56.8694,140.429 54.5361,144.763 53,149.5C 52.1618,150.999 51.3285,151.332 50.5,150.5C 53.8489,142.639 57.6822,134.973 62,127.5C 62.4974,124.854 62.6641,122.187 62.5,119.5C 64.8568,119.663 67.1902,119.497 69.5,119C 71.9957,117.334 74.329,115.5 76.5,113.5 Z"/></g>
<g><path style="opacity:0.996" fill="#4c5947" d="M 261.5,129.5 C 261.576,134.974 260.243,139.974 257.5,144.5C 256.836,138.811 258.17,133.811 261.5,129.5 Z"/></g>
<g><path style="opacity:0.996" fill="#3d443c" d="M 197.5,137.5 C 197.662,139.527 197.495,141.527 197,143.5C 186.755,154.404 178.088,166.404 171,179.5C 167.968,183.359 164.802,187.026 161.5,190.5C 160.402,189.399 160.235,188.066 161,186.5C 170.448,174.382 179.115,161.716 187,148.5C 190.732,144.938 194.232,141.271 197.5,137.5 Z"/></g>
<g><path style="opacity:0.996" fill="#316e22" d="M 318.5,169.5 C 316.669,170.995 314.502,171.662 312,171.5C 308.153,171.324 304.653,170.157 301.5,168C 293.341,162.006 286.008,155.173 279.5,147.5C 278.566,145.761 278.566,144.095 279.5,142.5C 294.412,138.349 306.912,142.016 317,153.5C 318.271,158.754 318.771,164.087 318.5,169.5 Z"/></g>
<g><path style="opacity:0.996" fill="#40423f" d="M 279.5,147.5 C 286.008,155.173 293.341,162.006 301.5,168C 304.653,170.157 308.153,171.324 312,171.5C 314.502,171.662 316.669,170.995 318.5,169.5C 318.945,172.365 318.278,174.865 316.5,177C 312.705,177.837 309.039,177.504 305.5,176C 295.095,170.262 286.595,162.429 280,152.5C 279.506,150.866 279.34,149.199 279.5,147.5 Z"/></g>
<g><path style="opacity:0.996" fill="#76846e" d="M 234.5,131.5 C 235.117,131.611 235.617,131.944 236,132.5C 236.406,135.742 237.239,138.742 238.5,141.5C 238.83,158.009 238.496,174.342 237.5,190.5C 237.667,174.497 237.5,158.497 237,142.5C 236.1,138.829 235.266,135.163 234.5,131.5 Z"/></g>
<g><path style="opacity:0.525" fill="#cbc9c5" d="M 413.5,142.5 C 414.892,144.273 416.059,146.273 417,148.5C 420.238,160.262 422.071,172.262 422.5,184.5C 420.369,170.403 417.369,156.403 413.5,142.5 Z"/></g>
<g><path style="opacity:0.224" fill="#cfcdca" d="M 49.5,152.5 C 50.0431,152.56 50.3764,152.893 50.5,153.5C 45.1807,164.635 39.6807,175.635 34,186.5C 33.6667,193.167 33.3333,199.833 33,206.5C 32.8692,209.371 31.7025,211.705 29.5,213.5C 30.4911,214.665 31.4911,215.832 32.5,217C 31.9915,218.169 31.1581,219.002 30,219.5C 27.5715,227.226 28.7382,234.393 33.5,241C 32.9558,241.717 32.2891,242.217 31.5,242.5C 29.8703,239.325 28.3703,235.991 27,232.5C 25.591,226.684 26.7576,221.517 30.5,217C 26.5473,214.356 26.714,211.856 31,209.5C 31.3333,202.167 31.6667,194.833 32,187.5C 37.3209,175.525 43.1543,163.858 49.5,152.5 Z"/></g>
<g><path style="opacity:0.996" fill="#3c413b" d="M 150.5,199.5 C 152.256,200.552 152.923,202.219 152.5,204.5C 141.398,216.429 129.398,227.595 116.5,238C 111.833,241 107.167,244 102.5,247C 99.9373,248.079 97.2706,248.579 94.5,248.5C 94.366,246.708 94.6993,245.042 95.5,243.5C 99.3621,242.572 103.029,241.072 106.5,239C 122.93,227.734 137.596,214.567 150.5,199.5 Z"/></g>
<g><path style="opacity:0.259" fill="#d9d8d6" d="M 422.5,185.5 C 423.504,195.331 424.337,205.331 425,215.5C 425.605,219.369 426.771,223.035 428.5,226.5C 426.864,225.251 425.697,223.584 425,221.5C 422.726,209.625 421.893,197.625 422.5,185.5 Z"/></g>
<g><path style="opacity:0.996" fill="#3c403b" d="M 326.5,203.5 C 327.041,206.652 326.041,209.152 323.5,211C 305.879,213.608 288.212,215.941 270.5,218C 263.797,219.573 257.131,221.073 250.5,222.5C 250.338,220.473 250.505,218.473 251,216.5C 251.725,215.941 252.558,215.608 253.5,215.5C 273.965,211.457 294.632,208.79 315.5,207.5C 319.321,206.415 322.987,205.082 326.5,203.5 Z"/></g>
<g><path style="opacity:0.996" fill="#58804e" d="M 204.5,212.5 C 196.988,214.324 189.322,215.991 181.5,217.5C 181.611,216.883 181.944,216.383 182.5,216C 189.727,214.18 197.06,213.013 204.5,212.5 Z"/></g>
<g><path style="opacity:0.996" fill="#3e413c" d="M 234.5,225.5 C 221.766,228.764 208.933,231.764 196,234.5C 189.243,234.375 184.076,231.542 180.5,226C 180.639,224.699 181.305,223.866 182.5,223.5C 186.633,226.824 191.467,228.49 197,228.5C 204.37,227.494 211.537,225.661 218.5,223C 224.111,221.731 229.778,220.898 235.5,220.5C 235.634,222.292 235.301,223.958 234.5,225.5 Z"/></g>
<g><path style="opacity:0.371" fill="#d4d1cf" d="M 428.5,226.5 C 435.639,234.626 436.639,243.293 431.5,252.5C 432.383,253.548 433.05,254.715 433.5,256C 432.014,260.116 431.014,264.283 430.5,268.5C 430.263,264.278 430.596,260.111 431.5,256C 430.606,254.604 429.939,253.104 429.5,251.5C 433.677,246.431 434.511,240.765 432,234.5C 429.056,232.628 427.889,229.961 428.5,226.5 Z"/></g>
<g><path style="opacity:0.995" fill="#131312" d="M 36.5,261.5 C 34.0305,258.226 32.3638,254.559 31.5,250.5C 31.2436,248.208 31.5769,246.041 32.5,244C 33.1667,243.333 33.8333,243.333 34.5,244C 38.1689,249.61 39.3356,255.777 38,262.5C 37.6174,261.944 37.1174,261.611 36.5,261.5 Z"/></g>
<g><path style="opacity:0.996" fill="#607e57" d="M 150.5,199.5 C 151.209,198.596 152.209,198.263 153.5,198.5C 153.667,216.503 153.5,234.503 153,252.5C 152.485,259.354 151.652,266.02 150.5,272.5C 152.201,249.887 152.868,227.22 152.5,204.5C 152.923,202.219 152.256,200.552 150.5,199.5 Z"/></g>
<g><path style="opacity:0.392" fill="#d6d5d4" d="M 30.5,244.5 C 30.2053,246.735 30.5386,248.735 31.5,250.5C 32.3638,254.559 34.0305,258.226 36.5,261.5C 37.0722,263.255 37.9055,264.922 39,266.5C 39.5078,282.937 41.0078,299.271 43.5,315.5C 41.7426,310.436 40.5759,305.103 40,299.5C 39.0779,288.49 38.0779,277.49 37,266.5C 34.3714,261.579 32.0381,256.579 30,251.5C 29.2042,248.961 29.3709,246.628 30.5,244.5 Z"/></g>
<g><path style="opacity:0.082" fill="#d4d3d2" d="M 430.5,268.5 C 428.909,279.811 427.242,290.811 425.5,301.5C 425.5,300.5 425.5,299.5 425.5,298.5C 425.5,295.5 425.5,292.5 425.5,289.5C 426.825,282.16 428.492,275.16 430.5,268.5 Z"/></g>
<g><path style="opacity:0.997" fill="#070707" d="M 425.5,289.5 C 425.5,292.5 425.5,295.5 425.5,298.5C 421.336,308.508 416.836,318.508 412,328.5C 406.394,338.049 401.06,347.715 396,357.5C 394.801,360.726 394.301,364.059 394.5,367.5C 391.68,367.248 389.014,367.748 386.5,369C 380.167,376.667 373.167,383.667 365.5,390C 346.788,402.055 328.955,415.222 312,429.5C 310,428.833 308,428.167 306,427.5C 301.599,431.372 296.432,433.038 290.5,432.5C 288.5,432.167 286.5,431.833 284.5,431.5C 278.573,429.993 272.406,429.326 266,429.5C 257.628,429.49 249.461,430.156 241.5,431.5C 233.399,431.827 225.399,431.161 217.5,429.5C 211.527,428.298 206.194,429.798 201.5,434C 197.73,434.868 194.064,436.034 190.5,437.5C 186.541,438.66 182.541,438.827 178.5,438C 173.773,436.535 169.107,434.869 164.5,433C 152.272,426.566 139.938,420.399 127.5,414.5C 120.91,409.75 114.744,404.416 109,398.5C 106.22,395.058 104.72,391.058 104.5,386.5C 99.4843,383.93 94.151,382.93 88.5,383.5C 88.7989,381.396 88.4656,379.396 87.5,377.5C 85.802,378.681 84.1353,378.681 82.5,377.5C 80.9359,371.769 77.2692,368.269 71.5,367C 66.2745,362.266 60.9411,357.766 55.5,353.5C 55.8333,351.5 56.1667,349.5 56.5,347.5C 53.1793,346.179 50.846,343.846 49.5,340.5C 48.7567,335.809 48.2567,331.143 48,326.5C 48.6708,327.252 49.5041,327.586 50.5,327.5C 51.3984,328.158 52.3984,328.824 53.5,329.5C 52.5153,331.098 52.3486,332.765 53,334.5C 55.6054,336.86 58.1054,339.36 60.5,342C 64.3643,345.432 68.6977,348.099 73.5,350C 76.1916,352.557 78.525,355.391 80.5,358.5C 81.7757,359.645 83.109,359.645 84.5,358.5C 85.2304,360.341 85.8971,362.175 86.5,364C 91.7986,363.975 96.7986,365.142 101.5,367.5C 102.318,370.107 102.818,372.774 103,375.5C 106.465,379.967 110.298,384.133 114.5,388C 132.233,399.87 150.899,410.203 170.5,419C 184.463,421.267 197.463,418.6 209.5,411C 211.598,410.322 213.598,410.489 215.5,411.5C 218.203,412.963 221.203,413.796 224.5,414C 232.012,414.822 239.345,414.655 246.5,413.5C 249.385,413.806 252.052,413.473 254.5,412.5C 266.228,412.281 277.894,412.947 289.5,414.5C 296.8,415.984 302.8,413.984 307.5,408.5C 309.75,410.798 312.416,411.631 315.5,411C 319.866,406.299 324.533,401.966 329.5,398C 342.839,388.658 356.173,379.325 369.5,370C 376.377,363.613 383.044,356.946 389.5,350C 392.014,348.748 394.68,348.248 397.5,348.5C 397.187,345.753 397.52,343.086 398.5,340.5C 406.879,324.284 415.045,307.95 423,291.5C 423.708,290.619 424.542,289.953 425.5,289.5 Z"/></g>
<g><path style="opacity:0.996" fill="#3d423c" d="M 245.5,257.5 C 238.872,296.117 217.206,322.117 180.5,335.5C 177.885,336.269 175.219,336.603 172.5,336.5C 172.366,334.708 172.699,333.042 173.5,331.5C 188.624,327.623 202.29,320.789 214.5,311C 229.644,295.868 239.978,278.035 245.5,257.5 Z"/></g>
<g><path style="opacity:0.996" fill="#3e423d" d="M 364.5,330.5 C 366.256,331.552 366.923,333.219 366.5,335.5C 349.777,339.043 332.777,340.209 315.5,339C 312.167,338 308.833,337 305.5,336C 296.916,327.318 289.416,317.818 283,307.5C 270.967,288.094 259.467,268.427 248.5,248.5C 248.167,249 247.833,249.5 247.5,250C 246.984,252.669 246.317,255.169 245.5,257.5C 245.352,252.681 246.018,248.015 247.5,243.5C 248.5,243.5 249.5,243.5 250.5,243.5C 253.465,250.104 256.465,256.77 259.5,263.5C 269.095,279.76 279.095,295.76 289.5,311.5C 294.587,318.508 300.254,325.008 306.5,331C 325.828,334.375 345.161,334.208 364.5,330.5 Z"/></g>
<g><path style="opacity:0.988" fill="#3c3b3b" d="M 50.5,327.5 C 49.5041,327.586 48.6708,327.252 48,326.5C 48.2567,331.143 48.7567,335.809 49.5,340.5C 48.8333,339.5 48.1667,338.5 47.5,337.5C 47.5,337.167 47.5,336.833 47.5,336.5C 46.534,331.184 46.034,325.851 46,320.5C 47.0121,323.202 48.5121,325.535 50.5,327.5 Z"/></g>
<g><path style="opacity:0.039" fill="#adadad" d="M 425.5,298.5 C 425.5,299.5 425.5,300.5 425.5,301.5C 425.477,303.927 424.977,306.26 424,308.5C 414.46,325.582 405.46,342.915 397,360.5C 396.782,363.426 396.282,366.26 395.5,369C 392.132,368.061 389.132,368.894 386.5,371.5C 380.827,378.04 374.827,384.207 368.5,390C 355.674,399.247 342.674,408.247 329.5,417C 323.865,421.633 318.532,426.633 313.5,432C 310.82,432.335 308.487,431.501 306.5,429.5C 302.188,433.152 297.188,434.819 291.5,434.5C 291.167,433.833 290.833,433.167 290.5,432.5C 296.432,433.038 301.599,431.372 306,427.5C 308,428.167 310,428.833 312,429.5C 328.955,415.222 346.788,402.055 365.5,390C 373.167,383.667 380.167,376.667 386.5,369C 389.014,367.748 391.68,367.248 394.5,367.5C 394.301,364.059 394.801,360.726 396,357.5C 401.06,347.715 406.394,338.049 412,328.5C 416.836,318.508 421.336,308.508 425.5,298.5 Z"/></g>
<g><path style="opacity:0.996" fill="#424640" d="M 164.5,317.5 C 164.304,327.95 161.471,337.617 156,346.5C 154.204,347.767 152.371,347.767 150.5,346.5C 148.377,344.255 147.377,341.588 147.5,338.5C 148.837,339.315 149.837,340.482 150.5,342C 152.259,342.798 153.926,342.631 155.5,341.5C 157.587,338.327 159.421,334.994 161,331.5C 161.487,326.535 162.654,321.868 164.5,317.5 Z"/></g>
<g><path style="opacity:0.035" fill="#b7b7b7" d="M 47.5,337.5 C 48.1667,338.5 48.8333,339.5 49.5,340.5C 50.846,343.846 53.1793,346.179 56.5,347.5C 56.1667,349.5 55.8333,351.5 55.5,353.5C 52.894,352.15 52.894,350.65 55.5,349C 53.6711,348.727 52.1711,347.893 51,346.5C 48.7132,343.928 47.5465,340.928 47.5,337.5 Z"/></g>
<g><path style="opacity:0.161" fill="#acacac" d="M 55.5,353.5 C 60.9411,357.766 66.2745,362.266 71.5,367C 77.2692,368.269 80.9359,371.769 82.5,377.5C 84.1353,378.681 85.802,378.681 87.5,377.5C 88.4656,379.396 88.7989,381.396 88.5,383.5C 94.151,382.93 99.4843,383.93 104.5,386.5C 104.72,391.058 106.22,395.058 109,398.5C 114.744,404.416 120.91,409.75 127.5,414.5C 118.015,409.854 110.181,403.187 104,394.5C 104.491,389.36 102.324,386.193 97.5,385C 94.1832,384.502 90.8499,384.335 87.5,384.5C 87.5,383.167 87.5,381.833 87.5,380.5C 85.8008,380.66 84.1341,380.494 82.5,380C 80.65,376.638 78.3167,373.638 75.5,371C 67.0949,367.091 60.4282,361.258 55.5,353.5 Z"/></g>
<g><path style="opacity:0.996" fill="#43423e" d="M 254.5,412.5 C 261.655,411.345 268.988,411.178 276.5,412C 281.127,412.05 285.46,412.883 289.5,414.5C 277.894,412.947 266.228,412.281 254.5,412.5 Z"/></g>
<g><path style="opacity:0.996" fill="#54534f" d="M 215.5,411.5 C 225.758,413.13 236.092,413.796 246.5,413.5C 239.345,414.655 232.012,414.822 224.5,414C 221.203,413.796 218.203,412.963 215.5,411.5 Z"/></g>
<g><path style="opacity:0.071" fill="#acacac" d="M 127.5,414.5 C 139.938,420.399 152.272,426.566 164.5,433C 169.107,434.869 173.773,436.535 178.5,438C 182.541,438.827 186.541,438.66 190.5,437.5C 194.064,436.034 197.73,434.868 201.5,434C 206.194,429.798 211.527,428.298 217.5,429.5C 219.691,430.869 222.025,431.869 224.5,432.5C 220.7,432.589 217.034,431.922 213.5,430.5C 206.515,434.156 199.182,436.99 191.5,439C 186.167,439.667 180.833,439.667 175.5,439C 158.439,432.637 142.439,424.471 127.5,414.5 Z"/></g>
<g><path style="opacity:0.653" fill="#626161" d="M 284.5,431.5 C 270.179,430.609 255.846,430.609 241.5,431.5C 249.461,430.156 257.628,429.49 266,429.5C 272.406,429.326 278.573,429.993 284.5,431.5 Z"/></g>
<g><path style="opacity:0.102" fill="#dbdbdb" d="M 284.5,431.5 C 286.5,431.833 288.5,432.167 290.5,432.5C 290.833,433.167 291.167,433.833 291.5,434.5C 283.936,432.909 276.269,431.909 268.5,431.5C 253.689,433.103 239.022,433.436 224.5,432.5C 230.358,432.822 236.025,432.489 241.5,431.5C 255.846,430.609 270.179,430.609 284.5,431.5 Z"/></g>
<g><path style="opacity:0.789" fill="#5c5c5c" d="M 217.5,429.5 C 225.399,431.161 233.399,431.827 241.5,431.5C 236.025,432.489 230.358,432.822 224.5,432.5C 222.025,431.869 219.691,430.869 217.5,429.5 Z"/></g>
</svg>
