<?xml version="1.0" encoding="UTF-8"?>
<!DOCTYPE svg PUBLIC "-//W3C//DTD SVG 1.1//EN" "http://www.w3.org/Graphics/SVG/1.1/DTD/svg11.dtd">
<svg xmlns="http://www.w3.org/2000/svg" version="1.1" width="60px" height="60px" style="shape-rendering:geometricPrecision; text-rendering:geometricPrecision; image-rendering:optimizeQuality; fill-rule:evenodd; clip-rule:evenodd" xmlns:xlink="http://www.w3.org/1999/xlink">
<g><path style="opacity:1" fill="#000000" d="M 18.5,3.5 C 25.8409,3.33368 33.1742,3.50034 40.5,4C 45.3333,8.83333 50.1667,13.6667 55,18.5C 55.6667,25.8333 55.6667,33.1667 55,40.5C 50.1667,45.3333 45.3333,50.1667 40.5,55C 33.1667,55.6667 25.8333,55.6667 18.5,55C 13.6667,50.1667 8.83333,45.3333 4,40.5C 3.33333,33.1667 3.33333,25.8333 4,18.5C 9.03651,13.6313 13.8698,8.63128 18.5,3.5 Z"/></g>
<g><path style="opacity:1" fill="#827e7d" d="M 19.5,5.5 C 26.175,5.33375 32.8417,5.50042 39.5,6C 44,10.5 48.5,15 53,19.5C 53.6667,26.1667 53.6667,32.8333 53,39.5C 48.5,44 44,48.5 39.5,53C 32.8333,53.6667 26.1667,53.6667 19.5,53C 15,48.5 10.5,44 6,39.5C 5.33333,32.8333 5.33333,26.1667 6,19.5C 10.7033,14.9645 15.2033,10.2979 19.5,5.5 Z"/></g>
<g><path style="opacity:1" fill="#f4110d" d="M 21.5,13.5 C 23.1033,13.3118 24.4366,13.8118 25.5,15C 23.372,18.1301 20.872,20.9634 18,23.5C 17.1667,22.6667 16.3333,21.8333 15.5,21C 18.0939,18.9135 20.0939,16.4135 21.5,13.5 Z"/></g>
<g><path style="opacity:1" fill="#f7110c" d="M 25.5,25.5 C 27.6807,25.7163 29.3474,24.883 30.5,23C 28.8333,21.3333 27.1667,19.6667 25.5,18C 28.2866,17.3105 30.7866,15.4771 33,12.5C 34.2547,13.2106 35.4214,14.044 36.5,15C 34.981,16.3513 33.6477,17.8513 32.5,19.5C 32.8076,20.3081 33.3076,20.9747 34,21.5C 35.8333,19.1667 37.6667,16.8333 39.5,14.5C 40.5,14.8333 41.1667,15.5 41.5,16.5C 39.7333,19.7698 37.4,22.6032 34.5,25C 36.1686,25.1218 37.8353,24.7885 39.5,24C 39.1667,23.6667 38.8333,23.3333 38.5,23C 39.4162,22.6258 40.2496,22.1258 41,21.5C 43.3157,23.4704 45.1491,25.8037 46.5,28.5C 45.7579,29.2868 44.9246,29.9535 44,30.5C 40.4643,26.8723 36.631,26.7056 32.5,30C 35.8168,30.4983 39.1501,30.665 42.5,30.5C 42.4871,33.6903 41.4871,36.5237 39.5,39C 41.1003,40.7479 43.1003,41.9146 45.5,42.5C 45.2907,43.086 44.9574,43.586 44.5,44C 40.9359,44.3163 37.6026,43.4829 34.5,41.5C 31.9828,42.8947 29.3162,43.8947 26.5,44.5C 25.3527,44.1822 24.5194,43.5156 24,42.5C 22.951,44.1066 21.451,44.7733 19.5,44.5C 19.6657,40.1539 19.499,35.8206 19,31.5C 17.4174,33.9928 15.9174,33.8262 14.5,31C 18.0617,27.9416 21.0617,24.4416 23.5,20.5C 26.6241,21.269 27.2908,22.9356 25.5,25.5 Z"/></g>
<g><path style="opacity:1" fill="#847c7c" d="M 25.5,25.5 C 25.6243,27.5816 26.6243,29.0816 28.5,30C 23.7043,35.9458 22.2043,34.7791 24,26.5C 24.3826,25.944 24.8826,25.6107 25.5,25.5 Z"/></g>
<g><path style="opacity:1" fill="#907372" d="M 31.5,34.5 C 33.9664,33.3659 36.633,33.1993 39.5,34C 38.3147,35.353 36.9814,36.5197 35.5,37.5C 34.1482,36.4756 32.8149,35.4756 31.5,34.5 Z"/></g>
<g><path style="opacity:1" fill="#867a7a" d="M 23.5,35.5 C 24.4584,35.9528 25.2917,36.6195 26,37.5C 28.5734,34.9952 30.7401,35.4952 32.5,39C 29.6249,40.302 26.6249,41.1353 23.5,41.5C 23.5,39.5 23.5,37.5 23.5,35.5 Z"/></g>
</svg>
