<?xml version="1.0" encoding="UTF-8"?>
<!DOCTYPE svg PUBLIC "-//W3C//DTD SVG 1.1//EN" "http://www.w3.org/Graphics/SVG/1.1/DTD/svg11.dtd">
<svg xmlns="http://www.w3.org/2000/svg" version="1.1" width="464px" height="467px" style="shape-rendering:geometricPrecision; text-rendering:geometricPrecision; image-rendering:optimizeQuality; fill-rule:evenodd; clip-rule:evenodd" xmlns:xlink="http://www.w3.org/1999/xlink">
<g><path style="opacity:0.965" fill="#c4c3bf" d="M 295.5,57.5 C 291.355,56.7815 287.188,56.1148 283,55.5C 277.617,57.0552 272.117,57.7218 266.5,57.5C 275.202,54.1951 284.202,53.6951 293.5,56C 294.416,56.2784 295.082,56.7784 295.5,57.5 Z"/></g>
<g><path style="opacity:0.996" fill="#97948e" d="M 295.5,57.5 C 295.953,58.4584 296.619,59.2917 297.5,60C 308.695,65.4302 320.028,70.5969 331.5,75.5C 332.492,75.3284 333.158,75.6618 333.5,76.5C 340.274,82.6081 347.607,87.9415 355.5,92.5C 356.167,92.5 356.5,92.8333 356.5,93.5C 357.383,95.9095 358.55,98.2429 360,100.5C 359.025,107.189 361.858,110.689 368.5,111C 371.482,111.498 374.482,111.665 377.5,111.5C 377.833,111.5 378.167,111.5 378.5,111.5C 378.5,113.167 378.5,114.833 378.5,116.5C 381.188,116.166 383.521,116.832 385.5,118.5C 386.938,123.604 390.271,126.604 395.5,127.5C 396.492,127.328 397.158,127.662 397.5,128.5C 396.596,129.209 396.263,130.209 396.5,131.5C 400.297,132.311 403.631,133.978 406.5,136.5C 407.031,138.544 408.198,140.211 410,141.5C 410.305,143.557 410.305,145.557 410,147.5C 413.667,148.5 416,150.833 417,154.5C 418.334,160.46 420.168,166.127 422.5,171.5C 422.5,171.833 422.5,172.167 422.5,172.5C 422.875,187.844 423.542,203.177 424.5,218.5C 425.17,220.291 425.837,221.958 426.5,223.5C 427.817,226.428 429.15,229.428 430.5,232.5C 433.105,237.247 434.772,242.414 435.5,248C 435.624,252.138 434.291,255.638 431.5,258.5C 431.59,260.425 432.59,261.592 434.5,262C 431.6,273.334 429.266,284.834 427.5,296.5C 426.542,296.953 425.708,297.619 425,298.5C 417.33,315.173 409.164,331.506 400.5,347.5C 399.532,349.607 399.198,351.941 399.5,354.5C 397.473,354.338 395.473,354.505 393.5,355C 392.944,355.383 392.611,355.883 392.5,356.5C 385.342,363.158 378.342,369.991 371.5,377C 358.833,385.667 346.167,394.333 333.5,403C 327.865,407.633 322.532,412.633 317.5,418C 314.258,418.986 311.592,418.152 309.5,415.5C 304.702,420.653 298.702,422.653 291.5,421.5C 290.737,420.732 289.737,420.232 288.5,420C 274.98,417.876 261.647,418.043 248.5,420.5C 236.946,421.289 225.612,420.289 214.5,417.5C 203.062,423.975 190.728,426.975 177.5,426.5C 175.898,424.926 173.898,424.259 171.5,424.5C 148.231,416.122 127.398,403.789 109,387.5C 106.299,383.628 104.799,379.294 104.5,374.5C 99.5519,371.623 94.2185,370.289 88.5,370.5C 88.5,368.5 88.5,366.5 88.5,364.5C 86.5,364.833 84.5,365.167 82.5,365.5C 81.0939,362.586 79.0939,360.086 76.5,358C 68.3606,353.494 61.1939,347.66 55,340.5C 54.376,338.536 54.876,336.869 56.5,335.5C 53.1383,334.13 50.6383,331.796 49,328.5C 49.4986,335.168 50.332,341.835 51.5,348.5C 48.9161,343.95 47.5828,338.95 47.5,333.5C 47.122,327.309 46.4554,321.142 45.5,315C 45.3917,313.319 44.7251,312.152 43.5,311.5C 43.5,310.167 43.5,308.833 43.5,307.5C 42.201,295.182 41.201,282.848 40.5,270.5C 41.4845,263.721 40.4845,257.054 37.5,250.5C 36.675,249.614 35.675,249.281 34.5,249.5C 32.6267,243.215 30.96,236.881 29.5,230.5C 31.5213,228.307 33.1879,225.807 34.5,223C 32.1883,220.174 32.3549,217.341 35,214.5C 35.3333,207.833 35.6667,201.167 36,194.5C 39.8021,186.569 43.3021,178.569 46.5,170.5C 49.9586,166.497 52.2919,161.83 53.5,156.5C 56.2437,153.354 58.2437,149.687 59.5,145.5C 64.0109,140.458 66.3442,134.458 66.5,127.5C 73.5224,126.808 78.8557,123.308 82.5,117C 82.2716,116.601 81.9382,116.435 81.5,116.5C 90.3568,107.072 100.357,99.0715 111.5,92.5C 118.508,90.5063 124.174,86.5063 128.5,80.5C 128.842,79.6618 129.508,79.3284 130.5,79.5C 134.612,77.781 137.945,75.1144 140.5,71.5C 144.145,69.8551 146.812,67.1884 148.5,63.5C 151.475,63.7134 154.142,64.7134 156.5,66.5C 160.495,62.6253 165.161,60.2919 170.5,59.5C 170.833,59.5 171.167,59.5 171.5,59.5C 179.563,63.6147 188.229,65.2814 197.5,64.5C 210.922,63.0817 224.255,61.7483 237.5,60.5C 237.833,60.5 238.167,60.5 238.5,60.5C 245.032,65.1278 252.032,65.6278 259.5,62C 261.993,60.5814 264.326,59.0814 266.5,57.5C 272.117,57.7218 277.617,57.0552 283,55.5C 287.188,56.1148 291.355,56.7815 295.5,57.5 Z"/></g>
<g><path style="opacity:0.267" fill="#d7d6d3" d="M 170.5,59.5 C 165.161,60.2919 160.495,62.6253 156.5,66.5C 154.142,64.7134 151.475,63.7134 148.5,63.5C 151.128,62.4659 153.795,62.7992 156.5,64.5C 160.268,60.4653 164.934,58.7986 170.5,59.5 Z"/></g>
<g><path style="opacity:0.497" fill="#c9c7c4" d="M 171.5,59.5 C 179.654,61.8534 187.987,62.8534 196.5,62.5C 210.145,61.3913 223.811,60.7247 237.5,60.5C 224.255,61.7483 210.922,63.0817 197.5,64.5C 188.229,65.2814 179.563,63.6147 171.5,59.5 Z"/></g>
<g><path style="opacity:0.024" fill="#d4d3d0" d="M 266.5,57.5 C 264.326,59.0814 261.993,60.5814 259.5,62C 252.032,65.6278 245.032,65.1278 238.5,60.5C 242.333,61.4343 246.167,62.4343 250,63.5C 255.31,61.1001 260.81,59.1001 266.5,57.5 Z"/></g>
<g><path style="opacity:0.329" fill="#cccbc8" d="M 295.5,57.5 C 308.097,62.4649 320.097,68.4649 331.5,75.5C 320.028,70.5969 308.695,65.4302 297.5,60C 296.619,59.2917 295.953,58.4584 295.5,57.5 Z"/></g>
<g><path style="opacity:0.404" fill="#cecdca" d="M 148.5,63.5 C 146.812,67.1884 144.145,69.8551 140.5,71.5C 142.882,68.4517 145.548,65.7851 148.5,63.5 Z"/></g>
<g><path style="opacity:0.137" fill="#dbdad7" d="M 333.5,76.5 C 341.679,80.68 349.012,86.0133 355.5,92.5C 347.607,87.9415 340.274,82.6081 333.5,76.5 Z"/></g>
<g><path style="opacity:0.369" fill="#d2d1cd" d="M 140.5,71.5 C 137.945,75.1144 134.612,77.781 130.5,79.5C 133.46,76.3552 136.793,73.6885 140.5,71.5 Z"/></g>
<g><path style="opacity:0.976" fill="#bdbab6" d="M 128.5,80.5 C 124.174,86.5063 118.508,90.5063 111.5,92.5C 116.632,87.7651 122.299,83.7651 128.5,80.5 Z"/></g>
<g><path style="opacity:0.404" fill="#d7d6d4" d="M 356.5,93.5 C 360.394,97.2883 362.728,101.955 363.5,107.5C 368.111,109.475 372.778,110.809 377.5,111.5C 374.482,111.665 371.482,111.498 368.5,111C 361.858,110.689 359.025,107.189 360,100.5C 358.55,98.2429 357.383,95.9095 356.5,93.5 Z"/></g>
<g><path style="opacity:0.996" fill="#326f23" d="M 221.5,133.5 C 217.578,135.915 214.078,138.915 211,142.5C 202.236,153.02 193.236,163.354 184,173.5C 181.728,176.489 182.561,177.822 186.5,177.5C 193.197,177.452 199.864,176.952 206.5,176C 217.317,173.117 228.317,170.784 239.5,169C 252.511,165.975 265.344,162.475 278,158.5C 287.674,161.086 296.841,164.919 305.5,170C 308.397,171.715 309.731,174.215 309.5,177.5C 306.417,179.578 304.084,182.245 302.5,185.5C 301.205,188.012 300.539,190.679 300.5,193.5C 299.781,195.764 299.448,198.097 299.5,200.5C 297.789,204.881 297.123,209.547 297.5,214.5C 297.5,216.5 297.5,218.5 297.5,220.5C 295.395,230.413 293.061,240.413 290.5,250.5C 286.723,261.529 280.723,271.362 272.5,280C 269.812,282.694 266.645,284.527 263,285.5C 262.167,285.333 261.333,285.167 260.5,285C 259.915,283.698 259.249,282.531 258.5,281.5C 257.838,272.85 254.505,265.517 248.5,259.5C 247.699,257.958 247.366,256.292 247.5,254.5C 252.41,255.033 257.244,256.033 262,257.5C 264.667,257.833 266.667,256.833 268,254.5C 270.449,250.359 272.449,246.026 274,241.5C 276.428,230.157 278.261,218.823 279.5,207.5C 280.657,199.344 280.823,191.01 280,182.5C 279.8,180.68 278.966,179.347 277.5,178.5C 277.047,177.542 276.381,176.708 275.5,176C 272.518,175.502 269.518,175.335 266.5,175.5C 258.818,176.123 251.151,176.956 243.5,178C 241.256,178.05 239.589,178.883 238.5,180.5C 227.359,181.53 216.359,183.197 205.5,185.5C 197.212,187.254 189.212,186.587 181.5,183.5C 179.262,182.463 176.929,182.297 174.5,183C 165.779,191.569 156.113,198.736 145.5,204.5C 142.683,204.199 142.016,202.866 143.5,200.5C 164.457,180.213 181.124,156.88 193.5,130.5C 194.997,128.71 195.664,126.544 195.5,124C 195.001,120.51 194.668,117.01 194.5,113.5C 205.023,113.507 213.857,117.84 221,126.5C 221.497,128.81 221.663,131.143 221.5,133.5 Z"/></g>
<g><path style="opacity:0.378" fill="#dddbd8" d="M 378.5,111.5 C 379.161,112.718 379.828,114.051 380.5,115.5C 383.32,114.291 384.987,115.291 385.5,118.5C 383.521,116.832 381.188,116.166 378.5,116.5C 378.5,114.833 378.5,113.167 378.5,111.5 Z"/></g>
<g><path style="opacity:0.996" fill="#617659" d="M 194.5,113.5 C 194.668,117.01 195.001,120.51 195.5,124C 195.664,126.544 194.997,128.71 193.5,130.5C 193.178,124.642 193.511,118.975 194.5,113.5 Z"/></g>
<g><path style="opacity:0.075" fill="#d4d2d0" d="M 385.5,118.5 C 388.415,121.959 391.748,124.959 395.5,127.5C 390.271,126.604 386.938,123.604 385.5,118.5 Z"/></g>
<g><path style="opacity:0.259" fill="#d5d4d1" d="M 81.5,116.5 C 81.9382,116.435 82.2716,116.601 82.5,117C 78.8557,123.308 73.5224,126.808 66.5,127.5C 66.3442,134.458 64.0109,140.458 59.5,145.5C 61.0169,140.642 63.0169,135.975 65.5,131.5C 64.0346,129.055 64.5346,127.055 67,125.5C 68.3876,126.554 69.8876,126.72 71.5,126C 75.3607,123.304 78.694,120.137 81.5,116.5 Z"/></g>
<g><path style="opacity:0.243" fill="#ceccca" d="M 397.5,128.5 C 401.105,130.472 404.105,133.139 406.5,136.5C 403.631,133.978 400.297,132.311 396.5,131.5C 396.263,130.209 396.596,129.209 397.5,128.5 Z"/></g>
<g><path style="opacity:0.996" fill="#3d433c" d="M 221.5,133.5 C 221.799,135.604 221.466,137.604 220.5,139.5C 208.061,151.267 196.728,163.934 186.5,177.5C 182.561,177.822 181.728,176.489 184,173.5C 193.236,163.354 202.236,153.02 211,142.5C 214.078,138.915 217.578,135.915 221.5,133.5 Z"/></g>
<g><path style="opacity:0.439" fill="#d4d3d0" d="M 406.5,136.5 C 410.793,138.549 412.46,141.716 411.5,146C 415.039,147.907 417.539,150.74 419,154.5C 420.274,160.152 421.441,165.819 422.5,171.5C 420.168,166.127 418.334,160.46 417,154.5C 416,150.833 413.667,148.5 410,147.5C 410.305,145.557 410.305,143.557 410,141.5C 408.198,140.211 407.031,138.544 406.5,136.5 Z"/></g>
<g><path style="opacity:0.333" fill="#d4d3d0" d="M 59.5,145.5 C 58.2437,149.687 56.2437,153.354 53.5,156.5C 54.7417,152.345 56.7417,148.678 59.5,145.5 Z"/></g>
<g><path style="opacity:0.176" fill="#d0cfcd" d="M 53.5,156.5 C 52.2919,161.83 49.9586,166.497 46.5,170.5C 48.033,165.338 50.3663,160.671 53.5,156.5 Z"/></g>
<g><path style="opacity:0.996" fill="#3e403d" d="M 266.5,175.5 C 269.518,175.335 272.518,175.502 275.5,176C 276.381,176.708 277.047,177.542 277.5,178.5C 278.038,180.117 278.371,181.784 278.5,183.5C 272.346,181.522 266.013,181.022 259.5,182C 238.435,185.761 217.269,189.261 196,192.5C 193.833,192.333 191.667,192.167 189.5,192C 185.704,189.553 181.537,188.053 177,187.5C 167.601,195.397 157.768,202.73 147.5,209.5C 145.414,211.023 143.748,210.69 142.5,208.5C 143.524,207.148 144.524,205.815 145.5,204.5C 156.113,198.736 165.779,191.569 174.5,183C 176.929,182.297 179.262,182.463 181.5,183.5C 183.385,185.311 185.719,186.478 188.5,187C 193.167,187.667 197.833,187.667 202.5,187C 203.737,186.768 204.737,186.268 205.5,185.5C 216.359,183.197 227.359,181.53 238.5,180.5C 247.388,178.596 256.388,177.429 265.5,177C 266.056,176.617 266.389,176.117 266.5,175.5 Z"/></g>
<g><path style="opacity:0.996" fill="#344831" d="M 266.5,175.5 C 266.389,176.117 266.056,176.617 265.5,177C 256.388,177.429 247.388,178.596 238.5,180.5C 239.589,178.883 241.256,178.05 243.5,178C 251.151,176.956 258.818,176.123 266.5,175.5 Z"/></g>
<g><path style="opacity:0.996" fill="#41463f" d="M 309.5,177.5 C 309.662,179.527 309.495,181.527 309,183.5C 305.551,186.438 302.718,189.771 300.5,193.5C 300.539,190.679 301.205,188.012 302.5,185.5C 304.084,182.245 306.417,179.578 309.5,177.5 Z"/></g>
<g><path style="opacity:0.996" fill="#305629" d="M 181.5,183.5 C 189.212,186.587 197.212,187.254 205.5,185.5C 204.737,186.268 203.737,186.768 202.5,187C 197.833,187.667 193.167,187.667 188.5,187C 185.719,186.478 183.385,185.311 181.5,183.5 Z"/></g>
<g><path style="opacity:0.229" fill="#d4d3d0" d="M 46.5,170.5 C 43.3021,178.569 39.8021,186.569 36,194.5C 35.6667,201.167 35.3333,207.833 35,214.5C 32.3549,217.341 32.1883,220.174 34.5,223C 33.1879,225.807 31.5213,228.307 29.5,230.5C 29.9802,227.995 30.9802,225.662 32.5,223.5C 31.3128,222.481 30.3128,221.314 29.5,220C 31.0488,218.786 32.2155,217.286 33,215.5C 33.1877,207.782 33.8544,200.115 35,192.5C 38.0828,184.664 41.9161,177.33 46.5,170.5 Z"/></g>
<g><path style="opacity:0.996" fill="#4b6d44" d="M 277.5,178.5 C 278.966,179.347 279.8,180.68 280,182.5C 280.823,191.01 280.657,199.344 279.5,207.5C 279.801,199.414 279.467,191.414 278.5,183.5C 278.371,181.784 278.038,180.117 277.5,178.5 Z"/></g>
<g><path style="opacity:0.256" fill="#cfcdcb" d="M 422.5,172.5 C 425.24,189.238 426.573,206.238 426.5,223.5C 425.837,221.958 425.17,220.291 424.5,218.5C 423.542,203.177 422.875,187.844 422.5,172.5 Z"/></g>
<g><path style="opacity:0.996" fill="#326e22" d="M 242.5,221.5 C 231.21,227.117 224.544,236.117 222.5,248.5C 222.343,249.873 222.51,251.207 223,252.5C 225.423,253.785 227.256,255.618 228.5,258C 228.022,259.303 227.355,260.469 226.5,261.5C 222.154,261.334 217.821,261.501 213.5,262C 203.245,263.35 193.245,265.516 183.5,268.5C 178.833,268.5 174.167,268.5 169.5,268.5C 169.177,274.69 169.51,280.69 170.5,286.5C 170.932,293.619 172.098,300.619 174,307.5C 178.329,314.75 184.496,319.75 192.5,322.5C 192.611,323.117 192.944,323.617 193.5,324C 197.447,325.154 201.447,325.987 205.5,326.5C 237.091,331.553 268.757,331.72 300.5,327C 306.57,324.582 312.903,322.916 319.5,322C 330.28,316.643 337.446,308.143 341,296.5C 342.244,289.643 343.744,282.976 345.5,276.5C 346.931,275.22 347.598,273.553 347.5,271.5C 348.5,271.5 349.5,271.5 350.5,271.5C 351.192,279.142 351.692,286.808 352,294.5C 352.66,297.678 353.493,300.678 354.5,303.5C 355.124,308.35 356.624,313.017 359,317.5C 359.498,320.817 359.665,324.15 359.5,327.5C 355.709,331.233 351.376,334.233 346.5,336.5C 341.417,338.148 336.417,339.981 331.5,342C 326.844,342.998 322.178,343.831 317.5,344.5C 309.116,345.176 301.116,346.51 293.5,348.5C 274.497,348.667 255.497,348.5 236.5,348C 224.429,346.872 212.429,345.205 200.5,343C 186.986,339.504 176.153,332.004 168,320.5C 166.476,316.041 164.309,312.041 161.5,308.5C 160.926,303.817 160.26,299.15 159.5,294.5C 158.772,281.847 158.439,269.18 158.5,256.5C 158.826,247.651 158.493,238.984 157.5,230.5C 157.267,226.564 156.267,222.897 154.5,219.5C 153.85,217.565 153.517,215.565 153.5,213.5C 159.394,212.943 164.727,214.443 169.5,218C 173.833,218.667 178.167,218.667 182.5,218C 195.141,215.259 207.475,211.759 219.5,207.5C 226.252,209.139 232.919,211.306 239.5,214C 242.041,215.848 243.041,218.348 242.5,221.5 Z"/></g>
<g><path style="opacity:0.996" fill="#61705b" d="M 299.5,200.5 C 299.771,205.434 299.104,210.1 297.5,214.5C 297.123,209.547 297.789,204.881 299.5,200.5 Z"/></g>
<g><path style="opacity:0.996" fill="#3d413d" d="M 211.5,228.5 C 209.59,227.906 207.59,227.573 205.5,227.5C 194.902,229.489 184.235,230.822 173.5,231.5C 173.167,229.5 172.833,227.5 172.5,225.5C 185.516,224.329 198.516,222.996 211.5,221.5C 211.5,223.833 211.5,226.167 211.5,228.5 Z"/></g>
<g><path style="opacity:0.996" fill="#4b5248" d="M 154.5,219.5 C 156.267,222.897 157.267,226.564 157.5,230.5C 156.198,228.328 155.032,225.994 154,223.5C 153.235,221.934 153.402,220.601 154.5,219.5 Z"/></g>
<g><path style="opacity:0.996" fill="#3e423d" d="M 242.5,221.5 C 242.662,223.527 242.495,225.527 242,227.5C 238.492,229.587 235.158,231.92 232,234.5C 228.552,239.094 225.385,243.76 222.5,248.5C 224.544,236.117 231.21,227.117 242.5,221.5 Z"/></g>
<g><path style="opacity:0.996" fill="#646d5e" d="M 297.5,220.5 C 296.986,229.948 295.819,239.282 294,248.5C 292.828,251.231 291.661,253.898 290.5,256.5C 290.5,254.5 290.5,252.5 290.5,250.5C 293.061,240.413 295.395,230.413 297.5,220.5 Z"/></g>
<g><path style="opacity:0.996" fill="#96938d" d="M 211.5,228.5 C 211.329,237.528 208.329,245.361 202.5,252C 194.633,255.743 186.299,257.91 177.5,258.5C 175.833,258.5 174.167,258.5 172.5,258.5C 172.523,250.817 172.857,243.15 173.5,235.5C 173.5,234.167 173.5,232.833 173.5,231.5C 184.235,230.822 194.902,229.489 205.5,227.5C 207.59,227.573 209.59,227.906 211.5,228.5 Z"/></g>
<g><path style="opacity:0.329" fill="#d7d6d5" d="M 430.5,232.5 C 434.555,237.302 436.889,242.969 437.5,249.5C 436.937,252.862 435.603,255.862 433.5,258.5C 434.383,259.548 435.05,260.715 435.5,262C 433.292,277.755 430.625,293.255 427.5,308.5C 427.5,308.167 427.5,307.833 427.5,307.5C 427.5,303.833 427.5,300.167 427.5,296.5C 429.266,284.834 431.6,273.334 434.5,262C 432.59,261.592 431.59,260.425 431.5,258.5C 434.291,255.638 435.624,252.138 435.5,248C 434.772,242.414 433.105,237.247 430.5,232.5 Z"/></g>
<g><path style="opacity:0.995" fill="#1b1a1a" d="M 34.5,249.5 C 35.675,249.281 36.675,249.614 37.5,250.5C 40.4845,257.054 41.4845,263.721 40.5,270.5C 40.1667,270.5 39.8333,270.5 39.5,270.5C 38.6167,267.296 36.9501,264.629 34.5,262.5C 33.5289,258.1 33.5289,253.767 34.5,249.5 Z"/></g>
<g><path style="opacity:0.996" fill="#707b68" d="M 173.5,235.5 C 172.857,243.15 172.523,250.817 172.5,258.5C 174.167,258.5 175.833,258.5 177.5,258.5C 175.393,259.468 173.059,259.802 170.5,259.5C 170.834,252.493 171.334,245.493 172,238.5C 172.232,237.263 172.732,236.263 173.5,235.5 Z"/></g>
<g><path style="opacity:0.259" fill="#c6c5c4" d="M 29.5,230.5 C 30.96,236.881 32.6267,243.215 34.5,249.5C 33.5289,253.767 33.5289,258.1 34.5,262.5C 31.0565,257.966 30.7231,253.132 33.5,248C 31.8623,244.558 30.3623,241.058 29,237.5C 28.2042,234.961 28.3709,232.628 29.5,230.5 Z"/></g>
<g><path style="opacity:0.996" fill="#3c3f3b" d="M 226.5,261.5 C 227.965,263.546 227.632,265.38 225.5,267C 211.671,268.138 198.005,270.472 184.5,274C 179.845,274.499 175.179,274.666 170.5,274.5C 170.5,272.833 170.5,271.167 170.5,269.5C 175.032,269.818 179.366,269.485 183.5,268.5C 193.245,265.516 203.245,263.35 213.5,262C 217.821,261.501 222.154,261.334 226.5,261.5 Z"/></g>
<g><path style="opacity:0.996" fill="#47723f" d="M 158.5,256.5 C 158.439,269.18 158.772,281.847 159.5,294.5C 158.833,291.167 158.167,287.833 157.5,284.5C 157.173,274.985 157.506,265.652 158.5,256.5 Z"/></g>
<g><path style="opacity:0.114" fill="#bcbcbc" d="M 34.5,262.5 C 36.9501,264.629 38.6167,267.296 39.5,270.5C 36.8621,268.582 35.1954,265.915 34.5,262.5 Z"/></g>
<g><path style="opacity:0.996" fill="#3f463d" d="M 248.5,259.5 C 254.505,265.517 257.838,272.85 258.5,281.5C 256.041,275.261 252.541,269.594 248,264.5C 247.36,262.735 247.527,261.068 248.5,259.5 Z"/></g>
<g><path style="opacity:0.996" fill="#3b5b35" d="M 183.5,268.5 C 179.366,269.485 175.032,269.818 170.5,269.5C 170.5,271.167 170.5,272.833 170.5,274.5C 170.5,278.5 170.5,282.5 170.5,286.5C 169.51,280.69 169.177,274.69 169.5,268.5C 174.167,268.5 178.833,268.5 183.5,268.5 Z"/></g>
<g><path style="opacity:0.996" fill="#3e433c" d="M 290.5,250.5 C 290.5,252.5 290.5,254.5 290.5,256.5C 285.86,270.645 277.527,282.145 265.5,291C 261.747,291.926 259.58,290.426 259,286.5C 258.506,284.866 258.34,283.199 258.5,281.5C 259.249,282.531 259.915,283.698 260.5,285C 261.333,285.167 262.167,285.333 263,285.5C 266.645,284.527 269.812,282.694 272.5,280C 280.723,271.362 286.723,261.529 290.5,250.5 Z"/></g>
<g><path style="opacity:0.996" fill="#6b7365" d="M 157.5,284.5 C 158.167,287.833 158.833,291.167 159.5,294.5C 160.26,299.15 160.926,303.817 161.5,308.5C 161.5,309.833 161.5,311.167 161.5,312.5C 160.778,312.082 160.278,311.416 160,310.5C 158.367,301.905 157.534,293.238 157.5,284.5 Z"/></g>
<g><path style="opacity:0.996" fill="#4b7a40" d="M 354.5,303.5 C 353.493,300.678 352.66,297.678 352,294.5C 351.692,286.808 351.192,279.142 350.5,271.5C 349.5,271.5 348.5,271.5 347.5,271.5C 347.598,273.553 346.931,275.22 345.5,276.5C 345.317,274.064 345.984,271.897 347.5,270C 349.367,269.289 350.867,269.789 352,271.5C 352.424,282.211 353.257,292.877 354.5,303.5 Z"/></g>
<g><path style="opacity:0.055" fill="#e5e4e3" d="M 39.5,270.5 C 39.8333,270.5 40.1667,270.5 40.5,270.5C 41.201,282.848 42.201,295.182 43.5,307.5C 41.982,303.434 41.1487,299.101 41,294.5C 40.6104,286.486 40.1104,278.486 39.5,270.5 Z"/></g>
<g><path style="opacity:0.997" fill="#080807" d="M 427.5,296.5 C 427.5,300.167 427.5,303.833 427.5,307.5C 420.279,321.616 412.945,335.783 405.5,350C 404.391,352.047 403.724,354.213 403.5,356.5C 403.5,356.833 403.5,357.167 403.5,357.5C 398.552,361.519 396.219,366.852 396.5,373.5C 393.918,373.025 391.918,373.692 390.5,375.5C 385.59,378.573 381.424,382.573 378,387.5C 364.003,399.421 349.17,410.255 333.5,420C 326.964,425.543 320.464,431.043 314,436.5C 312.532,435.372 310.865,434.706 309,434.5C 306.35,436.242 303.517,437.575 300.5,438.5C 297.833,438.5 295.167,438.5 292.5,438.5C 288.176,438.073 283.842,437.739 279.5,437.5C 275.681,436.834 271.681,436.501 267.5,436.5C 256.82,436.946 246.153,437.612 235.5,438.5C 229.762,438.352 224.095,437.685 218.5,436.5C 213.391,435.28 208.891,436.613 205,440.5C 201.176,441.609 197.343,442.609 193.5,443.5C 188.87,444.229 184.203,444.563 179.5,444.5C 175.813,443.103 171.98,441.769 168,440.5C 155.983,434.074 143.816,428.074 131.5,422.5C 125.898,417.751 120.064,413.085 114,408.5C 112.374,405.872 110.374,403.539 108,401.5C 107.817,398.635 107.317,395.969 106.5,393.5C 105.313,391.025 103.313,390.025 100.5,390.5C 97.7131,389.523 94.7131,389.19 91.5,389.5C 91.5,387.833 91.5,386.167 91.5,384.5C 88.224,384.856 85.5573,383.856 83.5,381.5C 82.7377,379.738 81.4044,378.738 79.5,378.5C 78.7377,376.738 77.4044,375.738 75.5,375.5C 73.4504,373.453 71.117,371.786 68.5,370.5C 65.1485,366.65 61.6485,362.983 58,359.5C 57.7351,357.837 58.2351,356.337 59.5,355C 58.552,354.517 57.552,354.351 56.5,354.5C 54.8036,352.475 53.137,350.475 51.5,348.5C 50.332,341.835 49.4986,335.168 49,328.5C 50.6383,331.796 53.1383,334.13 56.5,335.5C 54.876,336.869 54.376,338.536 55,340.5C 61.1939,347.66 68.3606,353.494 76.5,358C 79.0939,360.086 81.0939,362.586 82.5,365.5C 82.3691,366.376 82.7025,367.043 83.5,367.5C 84.7362,366.754 86.0695,366.421 87.5,366.5C 87.2322,368.099 87.5655,369.432 88.5,370.5C 94.2185,370.289 99.5519,371.623 104.5,374.5C 104.799,379.294 106.299,383.628 109,387.5C 127.398,403.789 148.231,416.122 171.5,424.5C 173.102,426.074 175.102,426.741 177.5,426.5C 190.728,426.975 203.062,423.975 214.5,417.5C 225.612,420.289 236.946,421.289 248.5,420.5C 262.882,418.976 277.215,419.31 291.5,421.5C 298.702,422.653 304.702,420.653 309.5,415.5C 311.592,418.152 314.258,418.986 317.5,418C 322.532,412.633 327.865,407.633 333.5,403C 346.167,394.333 358.833,385.667 371.5,377C 378.342,369.991 385.342,363.158 392.5,356.5C 395.096,355.735 397.763,355.401 400.5,355.5C 400.5,352.833 400.5,350.167 400.5,347.5C 409.164,331.506 417.33,315.173 425,298.5C 425.708,297.619 426.542,296.953 427.5,296.5 Z"/></g>
<g><path style="opacity:0.996" fill="#3c3f3b" d="M 161.5,308.5 C 164.309,312.041 166.476,316.041 168,320.5C 176.153,332.004 186.986,339.504 200.5,343C 212.429,345.205 224.429,346.872 236.5,348C 255.497,348.5 274.497,348.667 293.5,348.5C 301.834,348.36 309.834,347.027 317.5,344.5C 322.178,343.831 326.844,342.998 331.5,342C 336.417,339.981 341.417,338.148 346.5,336.5C 351.376,334.233 355.709,331.233 359.5,327.5C 359.046,334.467 355.38,338.967 348.5,341C 333.394,346.977 317.727,350.81 301.5,352.5C 266.815,355.115 232.482,353.448 198.5,347.5C 179.948,342.278 167.615,330.612 161.5,312.5C 161.5,311.167 161.5,309.833 161.5,308.5 Z"/></g>
<g><path style="opacity:0.996" fill="#64845b" d="M 192.5,322.5 C 197.102,323.342 201.435,324.676 205.5,326.5C 201.447,325.987 197.447,325.154 193.5,324C 192.944,323.617 192.611,323.117 192.5,322.5 Z"/></g>
<g><path style="opacity:0.222" fill="#dedddc" d="M 43.5,311.5 C 44.7251,312.152 45.3917,313.319 45.5,315C 46.4554,321.142 47.122,327.309 47.5,333.5C 45.5492,326.402 44.2158,319.069 43.5,311.5 Z"/></g>
<g><path style="opacity:0.996" fill="#344831" d="M 317.5,344.5 C 309.834,347.027 301.834,348.36 293.5,348.5C 301.116,346.51 309.116,345.176 317.5,344.5 Z"/></g>
<g><path style="opacity:0.145" fill="#a9a9a9" d="M 427.5,307.5 C 427.5,307.833 427.5,308.167 427.5,308.5C 426.563,313.038 425.063,317.371 423,321.5C 417.063,332.375 411.396,343.375 406,354.5C 405.292,355.381 404.458,356.047 403.5,356.5C 403.724,354.213 404.391,352.047 405.5,350C 412.945,335.783 420.279,321.616 427.5,307.5 Z"/></g>
<g><path style="opacity:0.996" fill="#52514f" d="M 198.5,347.5 C 232.482,353.448 266.815,355.115 301.5,352.5C 295.063,354.039 288.396,354.706 281.5,354.5C 260.673,354.892 240.006,354.225 219.5,352.5C 214.681,351.434 209.681,350.6 204.5,350C 202.148,349.76 200.148,348.927 198.5,347.5 Z"/></g>
<g><path style="opacity:0.02" fill="#c0c0c0" d="M 51.5,348.5 C 53.137,350.475 54.8036,352.475 56.5,354.5C 53.3791,353.712 51.7124,351.712 51.5,348.5 Z"/></g>
<g><path style="opacity:0.996" fill="#7c7a75" d="M 219.5,352.5 C 240.006,354.225 260.673,354.892 281.5,354.5C 266.672,355.661 251.672,355.828 236.5,355C 230.683,354.191 225.017,353.358 219.5,352.5 Z"/></g>
<g><path style="opacity:0.996" fill="#4d4b48" d="M 400.5,347.5 C 400.5,350.167 400.5,352.833 400.5,355.5C 397.763,355.401 395.096,355.735 392.5,356.5C 392.611,355.883 392.944,355.383 393.5,355C 395.473,354.505 397.473,354.338 399.5,354.5C 399.198,351.941 399.532,349.607 400.5,347.5 Z"/></g>
<g><path style="opacity:0.251" fill="#bababa" d="M 56.5,354.5 C 57.552,354.351 58.552,354.517 59.5,355C 58.2351,356.337 57.7351,357.837 58,359.5C 61.6485,362.983 65.1485,366.65 68.5,370.5C 64.2628,367.772 60.4294,364.439 57,360.5C 56.5045,358.527 56.3379,356.527 56.5,354.5 Z"/></g>
<g><path style="opacity:0.996" fill="#4c4b47" d="M 88.5,370.5 C 87.5655,369.432 87.2322,368.099 87.5,366.5C 86.0695,366.421 84.7362,366.754 83.5,367.5C 82.7025,367.043 82.3691,366.376 82.5,365.5C 84.5,365.167 86.5,364.833 88.5,364.5C 88.5,366.5 88.5,368.5 88.5,370.5 Z"/></g>
<g><path style="opacity:0.261" fill="#888888" d="M 403.5,357.5 C 401.259,361.978 399.592,366.645 398.5,371.5C 397.596,372.209 397.263,373.209 397.5,374.5C 395.265,374.205 393.265,374.539 391.5,375.5C 391.167,375.5 390.833,375.5 390.5,375.5C 391.918,373.692 393.918,373.025 396.5,373.5C 396.219,366.852 398.552,361.519 403.5,357.5 Z"/></g>
<g><path style="opacity:0.345" fill="#c2c2c2" d="M 68.5,370.5 C 71.117,371.786 73.4504,373.453 75.5,375.5C 72.3257,374.99 69.9923,373.323 68.5,370.5 Z"/></g>
<g><path style="opacity:0.053" fill="#eaeaea" d="M 398.5,371.5 C 398.725,373.716 397.892,375.383 396,376.5C 394.644,375.62 393.144,375.286 391.5,375.5C 393.265,374.539 395.265,374.205 397.5,374.5C 397.263,373.209 397.596,372.209 398.5,371.5 Z"/></g>
<g><path style="opacity:0.294" fill="#bcbcbc" d="M 75.5,375.5 C 77.4044,375.738 78.7377,376.738 79.5,378.5C 77.5956,378.262 76.2623,377.262 75.5,375.5 Z"/></g>
<g><path style="opacity:0.224" fill="#c9c9c9" d="M 79.5,378.5 C 81.4044,378.738 82.7377,379.738 83.5,381.5C 83.5394,382.583 83.8728,383.583 84.5,384.5C 86.396,385.466 88.396,385.799 90.5,385.5C 90.7678,387.099 90.4345,388.432 89.5,389.5C 89.1366,387.223 88.1366,386.556 86.5,387.5C 83.4557,385.091 81.1223,382.091 79.5,378.5 Z"/></g>
<g><path style="opacity:0.741" fill="#656565" d="M 83.5,381.5 C 85.5573,383.856 88.224,384.856 91.5,384.5C 91.5,386.167 91.5,387.833 91.5,389.5C 94.7131,389.19 97.7131,389.523 100.5,390.5C 98.8333,390.5 97.1667,390.5 95.5,390.5C 93.2646,390.795 91.2646,390.461 89.5,389.5C 90.4345,388.432 90.7678,387.099 90.5,385.5C 88.396,385.799 86.396,385.466 84.5,384.5C 83.8728,383.583 83.5394,382.583 83.5,381.5 Z"/></g>
<g><path style="opacity:0.918" fill="#535353" d="M 100.5,390.5 C 103.313,390.025 105.313,391.025 106.5,393.5C 105.833,393.5 105.167,393.5 104.5,393.5C 103.41,392.143 102.076,391.143 100.5,390.5 Z"/></g>
<g><path style="opacity:0.014" fill="#e5e5e5" d="M 95.5,390.5 C 97.1667,390.5 98.8333,390.5 100.5,390.5C 102.076,391.143 103.41,392.143 104.5,393.5C 101.341,392.669 98.341,391.669 95.5,390.5 Z"/></g>
<g><path style="opacity:0.239" fill="#a8a8a8" d="M 390.5,375.5 C 390.833,375.5 391.167,375.5 391.5,375.5C 374.433,394.384 354.766,410.217 332.5,423C 326.744,427.546 321.41,432.546 316.5,438C 313.623,438.725 310.957,438.225 308.5,436.5C 306.757,438.038 304.757,439.038 302.5,439.5C 301.833,439.5 301.167,439.5 300.5,439.5C 300.5,439.167 300.5,438.833 300.5,438.5C 303.517,437.575 306.35,436.242 309,434.5C 310.865,434.706 312.532,435.372 314,436.5C 320.464,431.043 326.964,425.543 333.5,420C 349.17,410.255 364.003,399.421 378,387.5C 381.424,382.573 385.59,378.573 390.5,375.5 Z"/></g>
<g><path style="opacity:0.016" fill="#a5a5a5" d="M 104.5,393.5 C 105.167,393.5 105.833,393.5 106.5,393.5C 107.317,395.969 107.817,398.635 108,401.5C 110.374,403.539 112.374,405.872 114,408.5C 120.064,413.085 125.898,417.751 131.5,422.5C 123.074,418.188 115.574,412.521 109,405.5C 107.346,401.5 105.846,397.5 104.5,393.5 Z"/></g>
<g><path style="opacity:0.996" fill="#333230" d="M 291.5,421.5 C 277.215,419.31 262.882,418.976 248.5,420.5C 261.647,418.043 274.98,417.876 288.5,420C 289.737,420.232 290.737,420.732 291.5,421.5 Z"/></g>
<g><path style="opacity:0.996" fill="#4c4b47" d="M 171.5,424.5 C 173.898,424.259 175.898,424.926 177.5,426.5C 175.102,426.741 173.102,426.074 171.5,424.5 Z"/></g>
<g><path style="opacity:0.22" fill="#b0b0b0" d="M 263.5,438.5 C 268.64,437.512 273.974,437.179 279.5,437.5C 283.842,437.739 288.176,438.073 292.5,438.5C 292.5,438.833 292.5,439.167 292.5,439.5C 290.833,439.5 289.167,439.5 287.5,439.5C 279.534,438.635 271.534,438.302 263.5,438.5 Z"/></g>
<g><path style="opacity:0.6" fill="#9d9d9d" d="M 218.5,436.5 C 224.095,437.685 229.762,438.352 235.5,438.5C 246.153,437.612 256.82,436.946 267.5,436.5C 271.681,436.501 275.681,436.834 279.5,437.5C 273.974,437.179 268.64,437.512 263.5,438.5C 255.01,439.231 246.51,439.897 238,440.5C 232.373,440.639 226.873,439.972 221.5,438.5C 220.5,437.833 219.5,437.167 218.5,436.5 Z"/></g>
<g><path style="opacity:0.937" fill="#4e4e4e" d="M 292.5,439.5 C 292.5,439.167 292.5,438.833 292.5,438.5C 295.167,438.5 297.833,438.5 300.5,438.5C 300.5,438.833 300.5,439.167 300.5,439.5C 297.833,440.833 295.167,440.833 292.5,439.5 Z"/></g>
<g><path style="opacity:0.102" fill="#e9e9e9" d="M 287.5,439.5 C 289.167,439.5 290.833,439.5 292.5,439.5C 295.167,440.833 297.833,440.833 300.5,439.5C 301.167,439.5 301.833,439.5 302.5,439.5C 300.883,440.972 298.883,441.639 296.5,441.5C 293.263,441.322 290.263,440.655 287.5,439.5 Z"/></g>
<g><path style="opacity:0.024" fill="#a2a2a2" d="M 131.5,422.5 C 143.816,428.074 155.983,434.074 168,440.5C 171.98,441.769 175.813,443.103 179.5,444.5C 177.833,444.5 176.167,444.5 174.5,444.5C 159.321,438.673 144.987,431.34 131.5,422.5 Z"/></g>
<g><path style="opacity:0.188" fill="#bcbcbc" d="M 218.5,436.5 C 219.5,437.167 220.5,437.833 221.5,438.5C 218.824,437.992 216.157,437.825 213.5,438C 207.13,441.456 200.463,444.122 193.5,446C 188.5,446.667 183.5,446.667 178.5,446C 176.942,445.79 175.609,445.29 174.5,444.5C 176.167,444.5 177.833,444.5 179.5,444.5C 183.646,445.647 187.98,445.814 192.5,445C 193.056,444.617 193.389,444.117 193.5,443.5C 197.343,442.609 201.176,441.609 205,440.5C 208.891,436.613 213.391,435.28 218.5,436.5 Z"/></g>
<g><path style="opacity:0.514" fill="#646464" d="M 193.5,443.5 C 193.389,444.117 193.056,444.617 192.5,445C 187.98,445.814 183.646,445.647 179.5,444.5C 184.203,444.563 188.87,444.229 193.5,443.5 Z"/></g>
</svg>
