<?xml version="1.0" encoding="UTF-8"?>
<!DOCTYPE svg PUBLIC "-//W3C//DTD SVG 1.1//EN" "http://www.w3.org/Graphics/SVG/1.1/DTD/svg11.dtd">
<svg xmlns="http://www.w3.org/2000/svg" version="1.1" width="468px" height="464px" style="shape-rendering:geometricPrecision; text-rendering:geometricPrecision; image-rendering:optimizeQuality; fill-rule:evenodd; clip-rule:evenodd" xmlns:xlink="http://www.w3.org/1999/xlink">
<g><path style="opacity:0.984" fill="#c1bfbb" d="M 319.5,62.5 C 312.342,60.9435 305.675,58.1101 299.5,54C 294.511,53.0849 289.511,52.2515 284.5,51.5C 278.917,52.8981 273.25,53.5648 267.5,53.5C 275.024,49.9259 283.024,48.7592 291.5,50C 301.452,53.1358 310.785,57.3024 319.5,62.5 Z"/></g>
<g><path style="opacity:0.996" fill="#97948e" d="M 319.5,62.5 C 323.193,65.0133 327.193,67.0133 331.5,68.5C 334.368,69.3527 337.035,70.686 339.5,72.5C 341.14,74.1688 342.474,76.1688 343.5,78.5C 350.612,81.818 356.779,86.4847 362,92.5C 363.891,95.8709 365.058,99.5376 365.5,103.5C 368.021,104.785 370.687,105.452 373.5,105.5C 375.635,107.369 378.302,108.036 381.5,107.5C 381.33,108.822 381.663,109.989 382.5,111C 384.586,111.315 386.586,111.815 388.5,112.5C 388.286,114.144 388.62,115.644 389.5,117C 394.719,120.769 400.053,124.269 405.5,127.5C 405.833,127.5 406.167,127.5 406.5,127.5C 406.351,128.552 406.517,129.552 407,130.5C 409.628,132.126 411.961,134.126 414,136.5C 414.687,138.568 414.52,140.568 413.5,142.5C 416.981,143.558 419.648,145.558 421.5,148.5C 422.167,148.5 422.5,148.833 422.5,149.5C 421.957,149.56 421.624,149.893 421.5,150.5C 422.886,160.928 424.719,171.261 427,181.5C 427.333,192.5 427.667,203.5 428,214.5C 429.136,221.199 431.803,227.199 436,232.5C 436.399,232.272 436.565,231.938 436.5,231.5C 437.338,231.842 437.672,232.508 437.5,233.5C 438.16,236.825 438.826,240.158 439.5,243.5C 439.519,247.455 438.186,250.788 435.5,253.5C 436.408,259.125 436.742,264.792 436.5,270.5C 435.42,281.425 433.754,292.092 431.5,302.5C 431.665,298.818 431.499,295.152 431,291.5C 430.333,292.167 429.667,292.833 429,293.5C 421.045,309.95 412.879,326.284 404.5,342.5C 403.52,345.086 403.187,347.753 403.5,350.5C 400.68,350.248 398.014,350.748 395.5,352C 388.93,359.516 381.93,366.516 374.5,373C 361.506,381.992 348.506,390.992 335.5,400C 330.199,404.3 325.199,408.966 320.5,414C 319.167,414.667 317.833,414.667 316.5,414C 315.601,412.764 314.434,411.93 313,411.5C 308.076,416.038 302.243,417.704 295.5,416.5C 292.466,414.982 289.133,414.149 285.5,414C 276.99,413.177 268.656,413.343 260.5,414.5C 246.363,416.377 232.363,415.71 218.5,412.5C 216.645,412.34 215.312,413.007 214.5,414.5C 208.247,417.149 201.914,419.649 195.5,422C 189.109,422.758 182.776,422.424 176.5,421C 157.159,412.615 138.826,402.615 121.5,391C 117.366,387.943 113.699,384.443 110.5,380.5C 109.056,376.766 108.056,372.933 107.5,369C 102.344,367.038 97.011,366.205 91.5,366.5C 91.5,364.5 91.5,362.5 91.5,360.5C 89.9397,360.519 88.4397,360.852 87,361.5C 85.1958,358.752 83.0291,356.252 80.5,354C 72.3606,349.494 65.1939,343.66 59,336.5C 58.9822,334.203 59.1489,331.869 59.5,329.5C 56.0125,328.857 53.5125,326.857 52,323.5C 51.8369,332.57 54.1702,340.903 59,348.5C 60.2051,349.071 61.3717,349.738 62.5,350.5C 61.3192,352.198 61.3192,353.865 62.5,355.5C 68.6813,362.265 75.6813,368.099 83.5,373C 85.3581,375.024 87.0248,377.191 88.5,379.5C 89.325,380.386 90.325,380.719 91.5,380.5C 93.256,381.552 93.9227,383.219 93.5,385.5C 92.596,384.791 92.2627,383.791 92.5,382.5C 91.1266,382.657 89.7932,382.49 88.5,382C 83.4615,374.966 77.1282,369.299 69.5,365C 66.3333,361.833 63.1667,358.667 60,355.5C 59.4054,354.101 59.5721,352.768 60.5,351.5C 57.4167,349.583 55.25,346.916 54,343.5C 52.2568,338.283 51.0901,332.95 50.5,327.5C 50.0419,320.62 49.0419,313.953 47.5,307.5C 46.611,293.363 45.2776,279.363 43.5,265.5C 44.9804,259.414 44.3137,253.414 41.5,247.5C 40.7579,246.713 39.9246,246.047 39,245.5C 37.4303,248.633 37.0969,251.967 38,255.5C 39.4977,258.495 40.9977,261.495 42.5,264.5C 41.8333,264.5 41.1667,264.5 40.5,264.5C 38.6092,261.386 37.2759,258.052 36.5,254.5C 36.0775,250.288 36.7442,246.288 38.5,242.5C 34.9007,236.997 33.4007,230.997 34,224.5C 35.1411,222.391 36.6411,220.558 38.5,219C 35.9637,217.138 34.9637,214.971 35.5,212.5C 35.5,211.833 35.8333,211.5 36.5,211.5C 37.2216,211.082 37.7216,210.416 38,209.5C 37.3209,197.375 39.8209,186.041 45.5,175.5C 45.3764,174.893 45.0431,174.56 44.5,174.5C 44.5,173.833 44.8333,173.5 45.5,173.5C 46.4584,173.047 47.2917,172.381 48,171.5C 50.8735,163.418 55.0402,156.085 60.5,149.5C 62.3723,144.55 64.039,139.55 65.5,134.5C 67.1733,133.657 68.34,132.324 69,130.5C 69.4974,127.854 69.6641,125.187 69.5,122.5C 71.8568,122.663 74.1902,122.497 76.5,122C 86.2166,111.773 96.2166,102.273 106.5,93.5C 111.477,89.3423 116.811,85.6757 122.5,82.5C 132.789,77.38 141.789,70.5467 149.5,62C 149.272,61.6012 148.938,61.4346 148.5,61.5C 148.5,60.8333 148.833,60.5 149.5,60.5C 152.994,58.9969 156.328,59.3302 159.5,61.5C 161.679,60.2433 163.679,58.7433 165.5,57C 170.351,56.8255 175.018,56.3255 179.5,55.5C 179.833,55.5 180.167,55.5 180.5,55.5C 181.678,56.9986 183.345,57.9986 185.5,58.5C 194.5,59.8333 203.5,59.8333 212.5,58.5C 216.589,58.1119 220.256,57.1119 223.5,55.5C 223.833,55.5 224.167,55.5 224.5,55.5C 232.803,57.2575 241.469,58.2575 250.5,58.5C 250.833,58.5 251.167,58.5 251.5,58.5C 251.97,59.6935 252.97,60.3601 254.5,60.5C 255.5,60.3333 256.5,60.1667 257.5,60C 261.036,58.0706 264.369,55.9039 267.5,53.5C 273.25,53.5648 278.917,52.8981 284.5,51.5C 289.511,52.2515 294.511,53.0849 299.5,54C 305.675,58.1101 312.342,60.9435 319.5,62.5 Z"/></g>
<g><path style="opacity:0.496" fill="#c4c2bd" d="M 224.5,55.5 C 230.842,55.3338 237.175,55.5005 243.5,56C 246.191,56.1558 248.524,56.9891 250.5,58.5C 241.469,58.2575 232.803,57.2575 224.5,55.5 Z"/></g>
<g><path style="opacity:0.565" fill="#d6d5d2" d="M 179.5,55.5 C 175.018,56.3255 170.351,56.8255 165.5,57C 163.679,58.7433 161.679,60.2433 159.5,61.5C 156.328,59.3302 152.994,58.9969 149.5,60.5C 152.349,56.8499 155.683,56.5166 159.5,59.5C 165.523,55.1615 172.19,53.8282 179.5,55.5 Z"/></g>
<g><path style="opacity:0.302" fill="#cbcac7" d="M 180.5,55.5 C 194.777,59.0679 209.11,59.0679 223.5,55.5C 220.256,57.1119 216.589,58.1119 212.5,58.5C 203.5,59.8333 194.5,59.8333 185.5,58.5C 183.345,57.9986 181.678,56.9986 180.5,55.5 Z"/></g>
<g><path style="opacity:0.267" fill="#d6d5d2" d="M 267.5,53.5 C 264.369,55.9039 261.036,58.0706 257.5,60C 256.5,60.1667 255.5,60.3333 254.5,60.5C 252.97,60.3601 251.97,59.6935 251.5,58.5C 253.527,58.6621 255.527,58.4955 257.5,58C 260.614,56.0174 263.947,54.5174 267.5,53.5 Z"/></g>
<g><path style="opacity:0.161" fill="#dddcdb" d="M 319.5,62.5 C 324.098,63.4654 328.098,65.4654 331.5,68.5C 327.193,67.0133 323.193,65.0133 319.5,62.5 Z"/></g>
<g><path style="opacity:0.337" fill="#cfcdc9" d="M 148.5,61.5 C 148.938,61.4346 149.272,61.6012 149.5,62C 141.789,70.5467 132.789,77.38 122.5,82.5C 131.745,76.2584 140.412,69.2584 148.5,61.5 Z"/></g>
<g><path style="opacity:0.322" fill="#cdcbc8" d="M 339.5,72.5 C 349.635,77.8354 358.135,85.1687 365,94.5C 365.92,97.1013 366.587,99.7679 367,102.5C 369.294,103.422 371.461,104.422 373.5,105.5C 370.687,105.452 368.021,104.785 365.5,103.5C 365.058,99.5376 363.891,95.8709 362,92.5C 356.779,86.4847 350.612,81.818 343.5,78.5C 342.474,76.1688 341.14,74.1688 339.5,72.5 Z"/></g>
<g><path style="opacity:0.441" fill="#d3d2cf" d="M 373.5,105.5 C 376.187,105.336 378.854,105.503 381.5,106C 382.772,107.307 383.772,108.807 384.5,110.5C 386.866,109.016 388.199,109.683 388.5,112.5C 386.586,111.815 384.586,111.315 382.5,111C 381.663,109.989 381.33,108.822 381.5,107.5C 378.302,108.036 375.635,107.369 373.5,105.5 Z"/></g>
<g><path style="opacity:0.996" fill="#be2a1b" d="M 260.5,127.5 C 258.804,138.017 257.471,148.684 256.5,159.5C 255.39,179.476 254.723,199.476 254.5,219.5C 274.448,216.608 294.448,213.608 314.5,210.5C 324.785,209.201 335.118,208.201 345.5,207.5C 354.03,209.516 361.53,213.516 368,219.5C 368.494,221.134 368.66,222.801 368.5,224.5C 367.234,225.09 365.901,225.59 364.5,226C 343.663,226.168 322.996,226.668 302.5,227.5C 292.279,227.127 282.279,227.793 272.5,229.5C 266.35,230.037 260.35,230.704 254.5,231.5C 253.647,255.682 252.647,280.015 251.5,304.5C 253.304,305.162 255.304,305.495 257.5,305.5C 260.814,305.657 263.814,304.991 266.5,303.5C 271.147,302.704 275.814,302.037 280.5,301.5C 288.316,299.233 296.316,298.233 304.5,298.5C 314.191,299.902 322.358,304.235 329,311.5C 329.494,313.134 329.66,314.801 329.5,316.5C 327.95,317.441 326.284,318.107 324.5,318.5C 315.485,318.499 306.485,318.166 297.5,317.5C 284.673,316.34 271.673,316.173 258.5,317C 256.942,317.21 255.609,317.71 254.5,318.5C 251.545,319.159 248.545,319.492 245.5,319.5C 235.893,319.871 226.559,321.205 217.5,323.5C 207.662,325.699 197.662,327.699 187.5,329.5C 183.466,329.495 179.466,329.162 175.5,328.5C 171.614,326.945 168.28,324.612 165.5,321.5C 163.923,319.006 164.59,317.173 167.5,316C 176.526,315.665 185.526,314.999 194.5,314C 208.292,311.74 221.958,309.574 235.5,307.5C 236.497,285.006 236.831,262.339 236.5,239.5C 236.5,237.5 236.5,235.5 236.5,233.5C 228.186,234.442 219.852,235.276 211.5,236C 189.228,239.72 167.061,243.887 145,248.5C 138.13,247.231 132.463,243.897 128,238.5C 127.517,237.552 127.351,236.552 127.5,235.5C 147.342,233.859 167.342,232.025 187.5,230C 203.274,226.784 219.274,224.45 235.5,223C 236.693,202.896 236.693,182.729 235.5,162.5C 235.503,153.352 234.336,144.352 232,135.5C 229.697,130.721 226.864,126.387 223.5,122.5C 222.306,120.516 222.306,118.516 223.5,116.5C 235.562,115.515 246.896,118.015 257.5,124C 258.163,125.518 259.163,126.685 260.5,127.5 Z"/></g>
<g><path style="opacity:0.149" fill="#dad8d5" d="M 388.5,112.5 C 393.938,117.725 399.605,122.725 405.5,127.5C 400.053,124.269 394.719,120.769 389.5,117C 388.62,115.644 388.286,114.144 388.5,112.5 Z"/></g>
<g><path style="opacity:0.071" fill="#d5d4d1" d="M 106.5,93.5 C 96.2166,102.273 86.2166,111.773 76.5,122C 74.1902,122.497 71.8568,122.663 69.5,122.5C 69.6641,125.187 69.4974,127.854 69,130.5C 68.34,132.324 67.1733,133.657 65.5,134.5C 67.7195,130.521 68.8861,126.188 69,121.5C 71.4794,121.899 73.9794,121.399 76.5,120C 83.1667,113.333 89.8333,106.667 96.5,100C 99.4645,97.1903 102.798,95.0236 106.5,93.5 Z"/></g>
<g><path style="opacity:0.996" fill="#59453e" d="M 223.5,122.5 C 226.864,126.387 229.697,130.721 232,135.5C 234.336,144.352 235.503,153.352 235.5,162.5C 235.054,150.059 231.22,138.726 224,128.5C 223.505,126.527 223.338,124.527 223.5,122.5 Z"/></g>
<g><path style="opacity:0.996" fill="#744a3c" d="M 260.5,127.5 C 261.645,131.311 261.812,135.311 261,139.5C 259.286,146.254 257.786,152.92 256.5,159.5C 257.471,148.684 258.804,138.017 260.5,127.5 Z"/></g>
<g><path style="opacity:0.608" fill="#d5d4d1" d="M 406.5,127.5 C 409.797,130.296 412.964,133.296 416,136.5C 416.651,138.235 416.485,139.902 415.5,141.5C 418.948,142.614 420.948,144.947 421.5,148.5C 419.648,145.558 416.981,143.558 413.5,142.5C 414.52,140.568 414.687,138.568 414,136.5C 411.961,134.126 409.628,132.126 407,130.5C 406.517,129.552 406.351,128.552 406.5,127.5 Z"/></g>
<g><path style="opacity:0.549" fill="#cfcdca" d="M 65.5,134.5 C 64.039,139.55 62.3723,144.55 60.5,149.5C 55.0402,156.085 50.8735,163.418 48,171.5C 47.2917,172.381 46.4584,173.047 45.5,173.5C 51.7981,160.243 58.4648,147.243 65.5,134.5 Z"/></g>
<g><path style="opacity:0.394" fill="#d6d5d3" d="M 44.5,174.5 C 45.0431,174.56 45.3764,174.893 45.5,175.5C 39.8209,186.041 37.3209,197.375 38,209.5C 37.7216,210.416 37.2216,211.082 36.5,211.5C 34.6057,198.088 37.2723,185.755 44.5,174.5 Z"/></g>
<g><path style="opacity:0.996" fill="#a53e2c" d="M 345.5,207.5 C 335.118,208.201 324.785,209.201 314.5,210.5C 314.611,209.883 314.944,209.383 315.5,209C 321.175,208.406 326.842,207.74 332.5,207C 337.02,206.186 341.354,206.353 345.5,207.5 Z"/></g>
<g><path style="opacity:0.651" fill="#bfbdb8" d="M 422.5,149.5 C 428.148,170.405 430.648,191.738 430,213.5C 430.769,220.031 432.935,226.031 436.5,231.5C 436.565,231.938 436.399,232.272 436,232.5C 431.803,227.199 429.136,221.199 428,214.5C 427.667,203.5 427.333,192.5 427,181.5C 424.719,171.261 422.886,160.928 421.5,150.5C 421.624,149.893 421.957,149.56 422.5,149.5 Z"/></g>
<g><path style="opacity:0.996" fill="#453c39" d="M 368.5,224.5 C 368.5,226.5 368.5,228.5 368.5,230.5C 366.821,230.892 365.154,231.392 363.5,232C 343.167,232.333 322.833,232.667 302.5,233C 299.635,233.183 296.969,233.683 294.5,234.5C 281.105,234.439 267.772,235.106 254.5,236.5C 254.5,234.833 254.5,233.167 254.5,231.5C 260.35,230.704 266.35,230.037 272.5,229.5C 282.725,229.917 292.725,229.251 302.5,227.5C 322.996,226.668 343.663,226.168 364.5,226C 365.901,225.59 367.234,225.09 368.5,224.5 Z"/></g>
<g><path style="opacity:0.996" fill="#653324" d="M 302.5,227.5 C 292.725,229.251 282.725,229.917 272.5,229.5C 282.279,227.793 292.279,227.127 302.5,227.5 Z"/></g>
<g><path style="opacity:0.996" fill="#6e6c69" d="M 368.5,230.5 C 367.653,231.966 366.32,232.8 364.5,233C 341.163,233.415 317.829,233.915 294.5,234.5C 296.969,233.683 299.635,233.183 302.5,233C 322.833,232.667 343.167,232.333 363.5,232C 365.154,231.392 366.821,230.892 368.5,230.5 Z"/></g>
<g><path style="opacity:0.996" fill="#433d3b" d="M 236.5,239.5 C 233.287,239.19 230.287,239.523 227.5,240.5C 217.455,241.216 207.455,242.383 197.5,244C 180.333,247.313 163.166,250.48 146,253.5C 137.728,253.078 131.228,249.411 126.5,242.5C 126.619,240.074 126.953,237.74 127.5,235.5C 127.351,236.552 127.517,237.552 128,238.5C 132.463,243.897 138.13,247.231 145,248.5C 167.061,243.887 189.228,239.72 211.5,236C 219.852,235.276 228.186,234.442 236.5,233.5C 236.5,235.5 236.5,237.5 236.5,239.5 Z"/></g>
<g><path style="opacity:0.153" fill="#cdcccb" d="M 35.5,212.5 C 34.9637,214.971 35.9637,217.138 38.5,219C 36.6411,220.558 35.1411,222.391 34,224.5C 33.4007,230.997 34.9007,236.997 38.5,242.5C 36.7442,246.288 36.0775,250.288 36.5,254.5C 35.238,250.812 35.238,246.978 36.5,243C 34.1477,238.788 32.481,234.288 31.5,229.5C 31.7542,225.293 33.4209,221.793 36.5,219C 33.0865,217.086 32.7531,214.919 35.5,212.5 Z"/></g>
<g><path style="opacity:0.996" fill="#836e61" d="M 227.5,240.5 C 230.287,239.523 233.287,239.19 236.5,239.5C 236.831,262.339 236.497,285.006 235.5,307.5C 235.5,285.167 235.5,262.833 235.5,240.5C 232.833,240.5 230.167,240.5 227.5,240.5 Z"/></g>
<g><path style="opacity:0.231" fill="#d3d1cd" d="M 437.5,233.5 C 442.991,240.625 442.658,247.458 436.5,254C 437.899,255.062 438.899,256.395 439.5,258C 438.014,262.116 437.014,266.283 436.5,270.5C 436.742,264.792 436.408,259.125 435.5,253.5C 438.186,250.788 439.519,247.455 439.5,243.5C 438.826,240.158 438.16,236.825 437.5,233.5 Z"/></g>
<g><path style="opacity:0.994" fill="#151514" d="M 43.5,265.5 C 42.8333,265.5 42.5,265.167 42.5,264.5C 40.9977,261.495 39.4977,258.495 38,255.5C 37.0969,251.967 37.4303,248.633 39,245.5C 39.9246,246.047 40.7579,246.713 41.5,247.5C 44.3137,253.414 44.9804,259.414 43.5,265.5 Z"/></g>
<g><path style="opacity:0.278" fill="#d6d4d2" d="M 40.5,264.5 C 41.1667,264.5 41.8333,264.5 42.5,264.5C 42.5,265.167 42.8333,265.5 43.5,265.5C 45.2776,279.363 46.611,293.363 47.5,307.5C 44.2449,294.851 42.7449,281.851 43,268.5C 42.3378,267.016 41.5045,265.683 40.5,264.5 Z"/></g>
<g><path style="opacity:0.996" fill="#070707" d="M 431.5,302.5 C 430.388,304.599 429.721,306.933 429.5,309.5C 426.214,312.4 424.214,316.067 423.5,320.5C 417.365,329.992 411.865,339.992 407,350.5C 406.51,351.793 406.343,353.127 406.5,354.5C 401.785,358.293 399.785,363.293 400.5,369.5C 397.68,369.248 395.014,369.748 392.5,371C 377.093,388.03 359.427,402.197 339.5,413.5C 332.685,419.147 326.019,424.98 319.5,431C 316.83,431.543 314.33,431.043 312,429.5C 310.177,431.509 308.01,432.843 305.5,433.5C 295.769,433.54 286.102,432.873 276.5,431.5C 272.982,431.502 269.649,431.835 266.5,432.5C 264.167,432.5 261.833,432.5 259.5,432.5C 249.509,433.055 239.509,433.388 229.5,433.5C 226.074,432.378 222.574,431.378 219,430.5C 209.283,435.628 198.949,438.961 188,440.5C 180.427,439.651 173.261,437.651 166.5,434.5C 161.404,431.111 156.071,427.945 150.5,425C 147.978,423.659 145.311,422.826 142.5,422.5C 139.689,418.922 136.022,416.589 131.5,415.5C 130.337,413.018 128.337,411.684 125.5,411.5C 124.135,409.14 122.135,407.473 119.5,406.5C 117.949,403.437 115.782,400.771 113,398.5C 112.121,395.182 111.287,391.848 110.5,388.5C 108.115,387.339 105.781,386.339 103.5,385.5C 100.713,384.523 97.7131,384.19 94.5,384.5C 94.5,382.833 94.5,381.167 94.5,379.5C 93.209,379.263 92.209,379.596 91.5,380.5C 90.325,380.719 89.325,380.386 88.5,379.5C 87.0248,377.191 85.3581,375.024 83.5,373C 75.6813,368.099 68.6813,362.265 62.5,355.5C 61.3192,353.865 61.3192,352.198 62.5,350.5C 61.3717,349.738 60.2051,349.071 59,348.5C 54.1702,340.903 51.8369,332.57 52,323.5C 53.5125,326.857 56.0125,328.857 59.5,329.5C 59.1489,331.869 58.9822,334.203 59,336.5C 65.1939,343.66 72.3606,349.494 80.5,354C 83.0291,356.252 85.1958,358.752 87,361.5C 88.4397,360.852 89.9397,360.519 91.5,360.5C 91.5,362.5 91.5,364.5 91.5,366.5C 97.011,366.205 102.344,367.038 107.5,369C 108.056,372.933 109.056,376.766 110.5,380.5C 113.699,384.443 117.366,387.943 121.5,391C 138.826,402.615 157.159,412.615 176.5,421C 182.776,422.424 189.109,422.758 195.5,422C 201.914,419.649 208.247,417.149 214.5,414.5C 215.817,414.179 217.151,413.846 218.5,413.5C 232.561,416.973 246.561,417.307 260.5,414.5C 272.228,414.281 283.894,414.947 295.5,416.5C 302.243,417.704 308.076,416.038 313,411.5C 314.434,411.93 315.601,412.764 316.5,414C 317.833,414.667 319.167,414.667 320.5,414C 325.199,408.966 330.199,404.3 335.5,400C 348.506,390.992 361.506,381.992 374.5,373C 381.93,366.516 388.93,359.516 395.5,352C 398.014,350.748 400.68,350.248 403.5,350.5C 403.187,347.753 403.52,345.086 404.5,342.5C 412.879,326.284 421.045,309.95 429,293.5C 429.667,292.833 430.333,292.167 431,291.5C 431.499,295.152 431.665,298.818 431.5,302.5 Z"/></g>
<g><path style="opacity:0.996" fill="#a3402e" d="M 304.5,298.5 C 296.316,298.233 288.316,299.233 280.5,301.5C 282.958,299.287 285.958,298.121 289.5,298C 294.684,297.184 299.684,297.35 304.5,298.5 Z"/></g>
<g><path style="opacity:0.996" fill="#a14534" d="M 266.5,303.5 C 263.814,304.991 260.814,305.657 257.5,305.5C 255.304,305.495 253.304,305.162 251.5,304.5C 256.527,304.497 261.527,304.164 266.5,303.5 Z"/></g>
<g><path style="opacity:0.012" fill="#b2b2b2" d="M 431.5,302.5 C 431.829,305.228 431.163,307.562 429.5,309.5C 429.721,306.933 430.388,304.599 431.5,302.5 Z"/></g>
<g><path style="opacity:0.271" fill="#a5a5a5" d="M 429.5,309.5 C 428.244,313.687 426.244,317.354 423.5,320.5C 424.214,316.067 426.214,312.4 429.5,309.5 Z"/></g>
<g><path style="opacity:0.996" fill="#962919" d="M 297.5,317.5 C 283.145,317.275 268.812,317.609 254.5,318.5C 255.609,317.71 256.942,317.21 258.5,317C 271.673,316.173 284.673,316.34 297.5,317.5 Z"/></g>
<g><path style="opacity:0.996" fill="#443f3d" d="M 329.5,316.5 C 329.788,319.805 328.788,322.638 326.5,325C 304.209,323.844 281.876,323.51 259.5,324C 250.201,325.329 240.868,326.329 231.5,327C 215.926,329.416 200.426,332.249 185,335.5C 176.434,335.966 169.6,332.799 164.5,326C 165.148,324.56 165.481,323.06 165.5,321.5C 168.28,324.612 171.614,326.945 175.5,328.5C 177.462,330.017 179.795,330.684 182.5,330.5C 184.369,330.493 186.036,330.16 187.5,329.5C 197.662,327.699 207.662,325.699 217.5,323.5C 221.846,323.666 226.179,323.499 230.5,323C 235.673,322.097 240.673,320.93 245.5,319.5C 248.545,319.492 251.545,319.159 254.5,318.5C 268.812,317.609 283.145,317.275 297.5,317.5C 302.58,319.015 307.914,319.682 313.5,319.5C 317.349,319.499 321.016,319.165 324.5,318.5C 326.284,318.107 327.95,317.441 329.5,316.5 Z"/></g>
<g><path style="opacity:0.996" fill="#92281b" d="M 297.5,317.5 C 306.485,318.166 315.485,318.499 324.5,318.5C 321.016,319.165 317.349,319.499 313.5,319.5C 307.914,319.682 302.58,319.015 297.5,317.5 Z"/></g>
<g><path style="opacity:0.043" fill="#dcdcdb" d="M 47.5,307.5 C 49.0419,313.953 50.0419,320.62 50.5,327.5C 48.2362,321.151 47.2362,314.484 47.5,307.5 Z"/></g>
<g><path style="opacity:0.996" fill="#5b3529" d="M 245.5,319.5 C 240.673,320.93 235.673,322.097 230.5,323C 226.179,323.499 221.846,323.666 217.5,323.5C 226.559,321.205 235.893,319.871 245.5,319.5 Z"/></g>
<g><path style="opacity:0.996" fill="#792d22" d="M 175.5,328.5 C 179.466,329.162 183.466,329.495 187.5,329.5C 186.036,330.16 184.369,330.493 182.5,330.5C 179.795,330.684 177.462,330.017 175.5,328.5 Z"/></g>
<g><path style="opacity:0.18" fill="#a5a5a5" d="M 423.5,320.5 C 418.588,332.25 412.922,343.584 406.5,354.5C 406.343,353.127 406.51,351.793 407,350.5C 411.865,339.992 417.365,329.992 423.5,320.5 Z"/></g>
<g><path style="opacity:0.776" fill="#444444" d="M 91.5,380.5 C 92.209,379.596 93.209,379.263 94.5,379.5C 94.5,381.167 94.5,382.833 94.5,384.5C 97.7131,384.19 100.713,384.523 103.5,385.5C 100.167,385.5 96.8333,385.5 93.5,385.5C 93.9227,383.219 93.256,381.552 91.5,380.5 Z"/></g>
<g><path style="opacity:0.031" fill="#a5a5a5" d="M 93.5,385.5 C 96.8333,385.5 100.167,385.5 103.5,385.5C 105.781,386.339 108.115,387.339 110.5,388.5C 111.287,391.848 112.121,395.182 113,398.5C 115.782,400.771 117.949,403.437 119.5,406.5C 115.901,404.737 113.068,402.07 111,398.5C 110.03,395.556 109.196,392.556 108.5,389.5C 103.544,387.798 98.544,386.465 93.5,385.5 Z"/></g>
<g><path style="opacity:0.333" fill="#a0a0a0" d="M 119.5,406.5 C 122.135,407.473 124.135,409.14 125.5,411.5C 122.911,410.581 120.911,408.914 119.5,406.5 Z"/></g>
<g><path style="opacity:0.012" fill="#a5a4a4" d="M 406.5,354.5 C 404.458,358.28 402.791,362.28 401.5,366.5C 402.747,368.042 402.747,369.542 401.5,371C 399.167,371.333 396.833,371.667 394.5,372C 378.187,389.327 359.853,403.993 339.5,416C 332.039,421.793 324.872,427.959 318,434.5C 316.013,433.782 314.179,432.782 312.5,431.5C 305.933,436.532 298.599,437.865 290.5,435.5C 293.505,434.359 296.671,434.359 300,435.5C 302.111,435.299 303.945,434.633 305.5,433.5C 308.01,432.843 310.177,431.509 312,429.5C 314.33,431.043 316.83,431.543 319.5,431C 326.019,424.98 332.685,419.147 339.5,413.5C 359.427,402.197 377.093,388.03 392.5,371C 395.014,369.748 397.68,369.248 400.5,369.5C 399.785,363.293 401.785,358.293 406.5,354.5 Z"/></g>
<g><path style="opacity:0.125" fill="#939393" d="M 125.5,411.5 C 128.337,411.684 130.337,413.018 131.5,415.5C 128.802,415.155 126.802,413.822 125.5,411.5 Z"/></g>
<g><path style="opacity:0.996" fill="#565450" d="M 260.5,414.5 C 268.656,413.343 276.99,413.177 285.5,414C 289.133,414.149 292.466,414.982 295.5,416.5C 283.894,414.947 272.228,414.281 260.5,414.5 Z"/></g>
<g><path style="opacity:0.996" fill="#66635f" d="M 260.5,414.5 C 246.561,417.307 232.561,416.973 218.5,413.5C 217.151,413.846 215.817,414.179 214.5,414.5C 215.312,413.007 216.645,412.34 218.5,412.5C 232.363,415.71 246.363,416.377 260.5,414.5 Z"/></g>
<g><path style="opacity:0.047" fill="#9a9a9a" d="M 131.5,415.5 C 136.022,416.589 139.689,418.922 142.5,422.5C 138.317,420.913 134.65,418.579 131.5,415.5 Z"/></g>
<g><path style="opacity:0.129" fill="#a4a4a4" d="M 142.5,422.5 C 145.311,422.826 147.978,423.659 150.5,425C 156.071,427.945 161.404,431.111 166.5,434.5C 157.914,431.541 149.914,427.541 142.5,422.5 Z"/></g>
<g><path style="opacity:0.756" fill="#434343" d="M 266.5,432.5 C 269.649,431.835 272.982,431.502 276.5,431.5C 286.102,432.873 295.769,433.54 305.5,433.5C 303.945,434.633 302.111,435.299 300,435.5C 296.671,434.359 293.505,434.359 290.5,435.5C 289.508,435.672 288.842,435.338 288.5,434.5C 288.07,433.579 286.736,433.079 284.5,433C 278.509,432.501 272.509,432.334 266.5,432.5 Z"/></g>
<g><path style="opacity:0.104" fill="#b3b3b3" d="M 229.5,433.5 C 233.151,434.165 236.985,434.499 241,434.5C 247.399,434.63 253.566,433.963 259.5,432.5C 261.833,432.5 264.167,432.5 266.5,432.5C 272.509,432.334 278.509,432.501 284.5,433C 286.736,433.079 288.07,433.579 288.5,434.5C 272.838,433.832 257.171,434.165 241.5,435.5C 233.939,435.93 226.605,434.93 219.5,432.5C 214.505,434.664 209.505,436.83 204.5,439C 190.93,443.516 178.264,442.016 166.5,434.5C 173.261,437.651 180.427,439.651 188,440.5C 198.949,438.961 209.283,435.628 219,430.5C 222.574,431.378 226.074,432.378 229.5,433.5 Z"/></g>
<g><path style="opacity:0.741" fill="#434343" d="M 259.5,432.5 C 253.566,433.963 247.399,434.63 241,434.5C 236.985,434.499 233.151,434.165 229.5,433.5C 239.509,433.388 249.509,433.055 259.5,432.5 Z"/></g>
</svg>
