<?xml version="1.0" encoding="UTF-8"?>
<!DOCTYPE svg PUBLIC "-//W3C//DTD SVG 1.1//EN" "http://www.w3.org/Graphics/SVG/1.1/DTD/svg11.dtd">
<svg xmlns="http://www.w3.org/2000/svg" version="1.1" width="367px" height="364px" style="shape-rendering:geometricPrecision; text-rendering:geometricPrecision; image-rendering:optimizeQuality; fill-rule:evenodd; clip-rule:evenodd" xmlns:xlink="http://www.w3.org/1999/xlink">
<g><path style="opacity:0.996" fill="#97948e" d="M 278.5,71.5 C 280.017,71.5106 281.184,72.1772 282,73.5C 284.312,76.4576 285.812,79.7909 286.5,83.5C 290.264,85.441 294.264,86.441 298.5,86.5C 298.5,87.5 298.5,88.5 298.5,89.5C 301.937,90.2444 304.603,92.2444 306.5,95.5C 313.12,99.6227 318.953,104.623 324,110.5C 324.617,111.449 324.451,112.282 323.5,113C 324.381,113.708 325.047,114.542 325.5,115.5C 327.776,120.812 329.276,126.479 330,132.5C 330.769,146.86 331.769,161.193 333,175.5C 334.677,177.525 335.677,179.859 336,182.5C 340.029,186.544 341.529,191.544 340.5,197.5C 339.5,197.5 338.5,197.5 337.5,197.5C 337.441,200.049 338.441,202.049 340.5,203.5C 338.554,211.848 336.887,220.348 335.5,229C 336.348,231.77 336.681,234.603 336.5,237.5C 336.313,239.564 335.813,241.564 335,243.5C 331.313,251.548 327.147,259.215 322.5,266.5C 322.687,264.436 323.187,262.436 324,260.5C 329.184,252.462 333.018,243.795 335.5,234.5C 335.333,233.5 335.167,232.5 335,231.5C 327.931,242.649 321.598,254.315 316,266.5C 315.047,269.432 314.547,272.432 314.5,275.5C 312.011,275.298 309.677,275.798 307.5,277C 294.728,290.523 280.395,301.856 264.5,311C 259.533,314.966 254.866,319.299 250.5,324C 248.191,324.756 246.191,324.256 244.5,322.5C 241.237,325.887 237.237,327.22 232.5,326.5C 226.284,325.137 219.951,324.47 213.5,324.5C 201.223,326.21 188.89,326.71 176.5,326C 174.61,324.888 172.61,324.054 170.5,323.5C 165.698,325.368 161.032,327.534 156.5,330C 150.5,332 144.5,332 138.5,330C 123.107,323.468 108.44,315.468 94.5,306C 89.0576,302.14 85.7242,296.973 84.5,290.5C 80.9104,288.031 76.9104,287.031 72.5,287.5C 72.5,286.167 72.5,284.833 72.5,283.5C 71.1266,283.657 69.7932,283.49 68.5,283C 67.5467,281.045 66.2134,279.378 64.5,278C 58.0703,274.358 52.237,269.858 47,264.5C 46.4054,263.101 46.5721,261.768 47.5,260.5C 46.1667,259.5 44.8333,258.5 43.5,257.5C 42.9862,261.504 43.4862,265.504 45,269.5C 45.8747,272.215 47.7081,273.548 50.5,273.5C 50.2475,276.32 50.7475,278.986 52,281.5C 56.7139,286.043 61.8806,290.043 67.5,293.5C 68.5,294.833 69.5,296.167 70.5,297.5C 71.6888,298.429 73.0222,298.762 74.5,298.5C 74.33,299.822 74.6634,300.989 75.5,302C 78.5,302.333 81.5,302.667 84.5,303C 85.756,303.417 86.4226,304.25 86.5,305.5C 82.6291,304.16 78.6291,303.327 74.5,303C 70.2459,300.079 66.5793,296.413 63.5,292C 57.2274,288.393 51.894,283.727 47.5,278C 48.4506,277.282 48.6172,276.449 48,275.5C 46,274.833 44.6667,273.5 44,271.5C 40.5588,261.794 38.7255,251.794 38.5,241.5C 38.8182,230.616 37.8182,219.949 35.5,209.5C 36.5946,203.856 35.428,198.523 32,193.5C 30.9108,198.556 31.7441,203.222 34.5,207.5C 33.8333,207.5 33.1667,207.5 32.5,207.5C 28.7845,202.761 28.1179,197.761 30.5,192.5C 31.3764,192.631 32.0431,192.298 32.5,191.5C 26.8946,185.052 27.2279,179.052 33.5,173.5C 31.9884,172.751 30.9884,171.584 30.5,170C 31.2645,164.538 31.7645,159.038 32,153.5C 36.8172,140.377 43.1505,128.044 51,116.5C 51.2694,113.648 52.1028,110.982 53.5,108.5C 53.3764,107.893 53.0431,107.56 52.5,107.5C 54.8711,105.003 55.8711,102.003 55.5,98.5C 58.2257,98.7361 60.559,97.9028 62.5,96C 74.3561,82.8169 88.0227,71.8169 103.5,63C 108.833,58.3333 114.167,53.6667 119.5,49C 121.669,48.5706 123.669,49.0706 125.5,50.5C 127.986,48.1209 130.986,46.7876 134.5,46.5C 141.531,47.303 148.531,48.303 155.5,49.5C 169.728,46.9893 183.895,46.9893 198,49.5C 199.533,49.2272 201.033,48.8938 202.5,48.5C 206.708,47.1964 211.041,46.0298 215.5,45C 220.167,44.3333 224.833,44.3333 229.5,45C 239.986,49.4883 250.32,54.155 260.5,59C 266.387,63.434 272.387,67.6006 278.5,71.5 Z"/></g>
<g><path style="opacity:0.439" fill="#bebbb6" d="M 278.5,71.5 C 272.387,67.6006 266.387,63.434 260.5,59C 250.32,54.155 239.986,49.4883 229.5,45C 224.833,44.3333 220.167,44.3333 215.5,45C 211.041,46.0298 206.708,47.1964 202.5,48.5C 211.692,42.6138 221.692,41.1138 232.5,44C 247.783,50.872 262.45,58.872 276.5,68C 277.823,68.8159 278.489,69.9826 278.5,71.5 Z"/></g>
<g><path style="opacity:0.996" fill="#336f25" d="M 229.5,100.5 C 226.379,102.448 223.379,104.615 220.5,107C 211.97,115.864 203.137,124.364 194,132.5C 193.406,135.219 194.24,135.886 196.5,134.5C 208.186,133.999 219.853,133.165 231.5,132C 237.575,127.156 241.908,121.156 244.5,114C 247.634,113.21 250.634,113.543 253.5,115C 255.35,117.018 257.35,118.851 259.5,120.5C 260.666,122.167 260.666,123.834 259.5,125.5C 236.634,138.861 214.801,153.861 194,170.5C 193.409,171.483 193.743,172.15 195,172.5C 196.406,171.586 197.906,170.92 199.5,170.5C 212.795,168.22 226.129,166.22 239.5,164.5C 240.756,164.539 241.756,164.039 242.5,163C 241.002,160.336 239.002,158.17 236.5,156.5C 235.766,155.292 235.433,153.959 235.5,152.5C 244.049,154.605 252.049,158.105 259.5,163C 261.81,164.637 263.31,166.804 264,169.5C 264.499,173.152 264.665,176.818 264.5,180.5C 264.586,181.496 264.252,182.329 263.5,183C 261.5,183.667 259.5,183.667 257.5,183C 254.877,179.588 252.377,176.088 250,172.5C 248.561,170.552 246.728,169.219 244.5,168.5C 233.45,171.927 222.117,174.427 210.5,176C 209.128,176.402 207.795,176.902 206.5,177.5C 205.224,178.614 205.224,179.614 206.5,180.5C 208.868,181.783 211.035,183.45 213,185.5C 213.579,186.928 213.412,188.262 212.5,189.5C 209.985,191.182 207.985,193.348 206.5,196C 206.836,197.03 207.503,197.53 208.5,197.5C 210.199,197.66 211.866,197.494 213.5,197C 221.525,194.549 229.358,191.715 237,188.5C 242.369,189.853 247.035,192.52 251,196.5C 251.494,198.134 251.66,199.801 251.5,201.5C 245.942,204.379 242.275,208.713 240.5,214.5C 236.354,220.099 232.188,225.766 228,231.5C 227.235,233.066 227.402,234.399 228.5,235.5C 241.429,245.632 255.762,253.132 271.5,258C 279.802,259.826 288.136,261.492 296.5,263C 298.466,264.347 298.799,265.847 297.5,267.5C 282.344,271.507 267.011,272.34 251.5,270C 240.964,260.463 230.797,250.629 221,240.5C 212.024,248.155 202.524,254.988 192.5,261C 181.364,264.784 170.03,267.617 158.5,269.5C 158.33,268.178 158.663,267.011 159.5,266C 161.788,265.178 164.122,264.511 166.5,264C 180.073,258.214 192.74,250.881 204.5,242C 207.039,239.63 209.372,237.13 211.5,234.5C 213.465,234.052 213.798,233.052 212.5,231.5C 205.385,225.54 197.885,220.207 190,215.5C 182.465,222.034 174.632,228.201 166.5,234C 162.626,236.937 158.293,238.771 153.5,239.5C 153.238,238.022 153.571,236.689 154.5,235.5C 170.939,223.23 184.772,208.563 196,191.5C 197.341,188.978 198.174,186.311 198.5,183.5C 198.5,182.5 198.5,181.5 198.5,180.5C 191.22,181.703 184.553,184.203 178.5,188C 175.854,188.497 173.187,188.664 170.5,188.5C 169.404,184.587 169.238,180.587 170,176.5C 174.407,173.291 179.24,170.791 184.5,169C 196.921,160.74 208.588,151.573 219.5,141.5C 220.815,140.524 222.148,139.524 223.5,138.5C 217.433,137.839 211.433,138.506 205.5,140.5C 198.315,142.566 191.315,145.066 184.5,148C 182.071,148.703 179.738,148.537 177.5,147.5C 176.81,143.51 176.643,139.51 177,135.5C 184.356,132.312 190.689,127.645 196,121.5C 199.754,115.658 203.754,109.991 208,104.5C 210.368,100.101 211.868,95.4348 212.5,90.5C 218.857,89.7457 224.357,91.7457 229,96.5C 229.49,97.7932 229.657,99.1266 229.5,100.5 Z"/></g>
<g><path style="opacity:0.996" fill="#346f26" d="M 165.5,115.5 C 162.044,117.783 158.71,120.283 155.5,123C 142.926,137.75 127.926,149.25 110.5,157.5C 109.427,156.749 109.26,155.749 110,154.5C 123.324,142.173 135.657,128.839 147,114.5C 149.11,110.464 150.277,106.131 150.5,101.5C 152.527,101.338 154.527,101.505 156.5,102C 159.167,104 161.833,106 164.5,108C 166.715,110.242 167.048,112.742 165.5,115.5 Z"/></g>
<g><path style="opacity:0.996" fill="#3f473d" d="M 229.5,100.5 C 229.649,101.552 229.483,102.552 229,103.5C 217.655,113.263 206.822,123.597 196.5,134.5C 194.24,135.886 193.406,135.219 194,132.5C 203.137,124.364 211.97,115.864 220.5,107C 223.379,104.615 226.379,102.448 229.5,100.5 Z"/></g>
<g><path style="opacity:0.318" fill="#c1bfbb" d="M 52.5,107.5 C 53.0431,107.56 53.3764,107.893 53.5,108.5C 52.1028,110.982 51.2694,113.648 51,116.5C 43.1505,128.044 36.8172,140.377 32,153.5C 31.7645,159.038 31.2645,164.538 30.5,170C 30.9884,171.584 31.9884,172.751 33.5,173.5C 27.2279,179.052 26.8946,185.052 32.5,191.5C 32.0431,192.298 31.3764,192.631 30.5,192.5C 25.8485,186.307 25.5152,179.973 29.5,173.5C 26.7567,171.302 26.9233,169.302 30,167.5C 30.1701,160.77 30.8368,154.103 32,147.5C 39.0865,134.328 45.9198,120.994 52.5,107.5 Z"/></g>
<g><path style="opacity:0.996" fill="#3d443b" d="M 219.5,141.5 C 206.804,142.902 194.804,146.402 183.5,152C 181.866,152.494 180.199,152.66 178.5,152.5C 178.371,150.784 178.038,149.117 177.5,147.5C 179.738,148.537 182.071,148.703 184.5,148C 191.315,145.066 198.315,142.566 205.5,140.5C 211.433,138.506 217.433,137.839 223.5,138.5C 222.148,139.524 220.815,140.524 219.5,141.5 Z"/></g>
<g><path style="opacity:0.996" fill="#3e463c" d="M 259.5,125.5 C 259.256,128.263 257.923,130.429 255.5,132C 251.231,133.468 247.231,135.468 243.5,138C 228.588,148.61 213.921,159.444 199.5,170.5C 197.906,170.92 196.406,171.586 195,172.5C 193.743,172.15 193.409,171.483 194,170.5C 214.801,153.861 236.634,138.861 259.5,125.5 Z"/></g>
<g><path style="opacity:0.996" fill="#3f473d" d="M 165.5,115.5 C 165.579,116.93 165.246,118.264 164.5,119.5C 154.684,128.149 145.017,136.982 135.5,146C 127.23,151.963 118.563,157.129 109.5,161.5C 109.433,160.041 109.766,158.708 110.5,157.5C 127.926,149.25 142.926,137.75 155.5,123C 158.71,120.283 162.044,117.783 165.5,115.5 Z"/></g>
<g><path style="opacity:0.996" fill="#346f25" d="M 163.5,159.5 C 162.883,159.389 162.383,159.056 162,158.5C 153.438,165.607 145.772,173.607 139,182.5C 138.235,184.066 138.402,185.399 139.5,186.5C 139.523,188.927 140.023,191.26 141,193.5C 141.5,219.165 141.667,244.831 141.5,270.5C 140.463,271.93 139.796,273.597 139.5,275.5C 137.61,275.703 136.11,275.037 135,273.5C 132.548,270.239 130.381,266.906 128.5,263.5C 129.424,249.85 130.591,236.183 132,222.5C 132.5,213.173 132.666,203.839 132.5,194.5C 132.5,193.5 132.5,192.5 132.5,191.5C 128.188,193.289 124.521,196.123 121.5,200C 113.844,205.83 105.844,211.163 97.5,216C 95.8659,216.494 94.1992,216.66 92.5,216.5C 92.3505,215.448 92.5172,214.448 93,213.5C 114.531,196.638 132.531,176.638 147,153.5C 147.25,150.15 148.083,146.983 149.5,144C 151.289,143.48 152.956,143.813 154.5,145C 157.037,147.872 159.87,150.372 163,152.5C 163.497,154.81 163.663,157.143 163.5,159.5 Z"/></g>
<g><path style="opacity:0.996" fill="#464e44" d="M 236.5,156.5 C 239.002,158.17 241.002,160.336 242.5,163C 241.756,164.039 240.756,164.539 239.5,164.5C 237.957,162.072 236.957,159.406 236.5,156.5 Z"/></g>
<g><path style="opacity:0.996" fill="#3f473d" d="M 264.5,180.5 C 266.098,185.76 264.098,187.926 258.5,187C 255.727,184.617 253.561,181.783 252,178.5C 249.906,175.897 247.406,173.897 244.5,172.5C 231.669,174.559 219.002,177.226 206.5,180.5C 205.224,179.614 205.224,178.614 206.5,177.5C 207.795,176.902 209.128,176.402 210.5,176C 222.117,174.427 233.45,171.927 244.5,168.5C 246.728,169.219 248.561,170.552 250,172.5C 252.377,176.088 254.877,179.588 257.5,183C 259.5,183.667 261.5,183.667 263.5,183C 264.252,182.329 264.586,181.496 264.5,180.5 Z"/></g>
<g><path style="opacity:0.996" fill="#b5b3af" d="M 325.5,115.5 C 327.813,117.209 329.313,119.543 330,122.5C 333.736,138.612 335.402,154.945 335,171.5C 337.998,178.653 340.831,185.819 343.5,193C 343.33,195.858 342.33,198.358 340.5,200.5C 340.5,206.833 340.5,213.167 340.5,219.5C 338.386,225.445 337.052,231.445 336.5,237.5C 336.681,234.603 336.348,231.77 335.5,229C 336.887,220.348 338.554,211.848 340.5,203.5C 338.441,202.049 337.441,200.049 337.5,197.5C 338.5,197.5 339.5,197.5 340.5,197.5C 341.529,191.544 340.029,186.544 336,182.5C 335.677,179.859 334.677,177.525 333,175.5C 331.769,161.193 330.769,146.86 330,132.5C 329.276,126.479 327.776,120.812 325.5,115.5 Z"/></g>
<g><path style="opacity:0.996" fill="#454e42" d="M 163.5,159.5 C 155.292,168.199 147.292,177.199 139.5,186.5C 138.402,185.399 138.235,184.066 139,182.5C 145.772,173.607 153.438,165.607 162,158.5C 162.383,159.056 162.883,159.389 163.5,159.5 Z"/></g>
<g><path style="opacity:0.996" fill="#3e423d" d="M 198.5,183.5 C 189.782,185.516 181.449,188.516 173.5,192.5C 171.085,192.281 170.085,190.948 170.5,188.5C 173.187,188.664 175.854,188.497 178.5,188C 184.553,184.203 191.22,181.703 198.5,180.5C 198.5,181.5 198.5,182.5 198.5,183.5 Z"/></g>
<g><path style="opacity:0.996" fill="#404b3d" d="M 212.5,189.5 C 211.713,192.408 210.38,195.074 208.5,197.5C 207.503,197.53 206.836,197.03 206.5,196C 207.985,193.348 209.985,191.182 212.5,189.5 Z"/></g>
<g><path style="opacity:0.996" fill="#151514" d="M 35.5,209.5 C 34.6618,209.158 34.3284,208.492 34.5,207.5C 31.7441,203.222 30.9108,198.556 32,193.5C 35.428,198.523 36.5946,203.856 35.5,209.5 Z"/></g>
<g><path style="opacity:0.996" fill="#40463e" d="M 229.5,203.5 C 222.671,203.416 216.004,204.416 209.5,206.5C 206.473,206.062 203.473,205.895 200.5,206C 199.335,207.992 198.002,209.825 196.5,211.5C 194.775,211.157 194.275,210.157 195,208.5C 196.715,206.241 198.548,204.074 200.5,202C 203.803,201.94 207.136,202.107 210.5,202.5C 216.828,201.723 223.161,201.056 229.5,200.5C 229.5,201.5 229.5,202.5 229.5,203.5 Z"/></g>
<g><path style="opacity:0.996" fill="#93918a" d="M 229.5,203.5 C 227.471,211.895 223.638,219.228 218,225.5C 210.668,220.986 203.502,216.319 196.5,211.5C 198.002,209.825 199.335,207.992 200.5,206C 203.473,205.895 206.473,206.062 209.5,206.5C 216.004,204.416 222.671,203.416 229.5,203.5 Z"/></g>
<g><path style="opacity:0.996" fill="#434b40" d="M 251.5,201.5 C 251.649,202.552 251.483,203.552 251,204.5C 246.972,207.363 243.472,210.696 240.5,214.5C 242.275,208.713 245.942,204.379 251.5,201.5 Z"/></g>
<g><path style="opacity:0.996" fill="#3f463d" d="M 132.5,194.5 C 126.35,199.809 120.017,204.976 113.5,210C 107.59,213.454 101.59,216.62 95.5,219.5C 93.8247,219.132 92.8247,218.132 92.5,216.5C 94.1992,216.66 95.8659,216.494 97.5,216C 105.844,211.163 113.844,205.83 121.5,200C 124.521,196.123 128.188,193.289 132.5,191.5C 132.5,192.5 132.5,193.5 132.5,194.5 Z"/></g>
<g><path style="opacity:0.753" fill="#bcbab7" d="M 32.5,207.5 C 33.1667,207.5 33.8333,207.5 34.5,207.5C 34.3284,208.492 34.6618,209.158 35.5,209.5C 37.8182,219.949 38.8182,230.616 38.5,241.5C 36.1846,231.779 35.0179,221.779 35,211.5C 33.9054,210.307 33.072,208.973 32.5,207.5 Z"/></g>
<g><path style="opacity:0.996" fill="#4a5446" d="M 240.5,214.5 C 238.221,222.455 234.221,229.455 228.5,235.5C 227.402,234.399 227.235,233.066 228,231.5C 232.188,225.766 236.354,220.099 240.5,214.5 Z"/></g>
<g><path style="opacity:0.996" fill="#3f463e" d="M 211.5,234.5 C 204.506,229.016 197.339,223.682 190,218.5C 181.901,226.974 172.734,234.141 162.5,240C 159.647,241.43 156.647,242.263 153.5,242.5C 153.5,241.5 153.5,240.5 153.5,239.5C 158.293,238.771 162.626,236.937 166.5,234C 174.632,228.201 182.465,222.034 190,215.5C 197.885,220.207 205.385,225.54 212.5,231.5C 213.798,233.052 213.465,234.052 211.5,234.5 Z"/></g>
<g><path style="opacity:0.996" fill="#647c5c" d="M 139.5,186.5 C 140.6,188.277 141.434,190.277 142,192.5C 142.83,218.67 142.663,244.67 141.5,270.5C 141.667,244.831 141.5,219.165 141,193.5C 140.023,191.26 139.523,188.927 139.5,186.5 Z"/></g>
<g><path style="opacity:0.997" fill="#0a0a0a" d="M 322.5,266.5 C 321.624,266.369 320.957,266.702 320.5,267.5C 318.274,272.373 315.774,277.04 313,281.5C 311.921,284.063 311.421,286.729 311.5,289.5C 309.345,289.372 307.345,289.872 305.5,291C 300.527,297.306 294.86,302.973 288.5,308C 279.167,314.333 269.833,320.667 260.5,327C 256.554,330.456 252.887,334.123 249.5,338C 247.217,338.291 245.05,337.791 243,336.5C 241.495,337.673 239.995,338.839 238.5,340C 234.514,340.499 230.514,340.666 226.5,340.5C 225.737,339.732 224.737,339.232 223.5,339C 211.327,338.436 199.16,338.603 187,339.5C 181.547,339.654 176.213,338.988 171,337.5C 168.158,337.515 166.325,338.848 165.5,341.5C 159.506,342.497 153.506,343.497 147.5,344.5C 142.687,344.088 138.021,343.088 133.5,341.5C 126.307,336.193 118.307,332.193 109.5,329.5C 106.633,327.23 103.967,324.73 101.5,322C 100.207,321.51 98.8734,321.343 97.5,321.5C 97.5,320.167 96.8333,319.5 95.5,319.5C 91.4553,315.373 88.4553,310.706 86.5,305.5C 86.4226,304.25 85.756,303.417 84.5,303C 81.5,302.667 78.5,302.333 75.5,302C 74.6634,300.989 74.33,299.822 74.5,298.5C 73.0222,298.762 71.6888,298.429 70.5,297.5C 69.5,296.167 68.5,294.833 67.5,293.5C 61.8806,290.043 56.7139,286.043 52,281.5C 50.7475,278.986 50.2475,276.32 50.5,273.5C 47.7081,273.548 45.8747,272.215 45,269.5C 43.4862,265.504 42.9862,261.504 43.5,257.5C 44.8333,258.5 46.1667,259.5 47.5,260.5C 46.5721,261.768 46.4054,263.101 47,264.5C 52.237,269.858 58.0703,274.358 64.5,278C 66.2134,279.378 67.5467,281.045 68.5,283C 69.7932,283.49 71.1266,283.657 72.5,283.5C 72.5,284.833 72.5,286.167 72.5,287.5C 76.9104,287.031 80.9104,288.031 84.5,290.5C 85.7242,296.973 89.0576,302.14 94.5,306C 108.44,315.468 123.107,323.468 138.5,330C 144.5,332 150.5,332 156.5,330C 161.032,327.534 165.698,325.368 170.5,323.5C 172.61,324.054 174.61,324.888 176.5,326C 188.89,326.71 201.223,326.21 213.5,324.5C 219.951,324.47 226.284,325.137 232.5,326.5C 237.237,327.22 241.237,325.887 244.5,322.5C 246.191,324.256 248.191,324.756 250.5,324C 254.866,319.299 259.533,314.966 264.5,311C 280.395,301.856 294.728,290.523 307.5,277C 309.677,275.798 312.011,275.298 314.5,275.5C 314.547,272.432 315.047,269.432 316,266.5C 321.598,254.315 327.931,242.649 335,231.5C 335.167,232.5 335.333,233.5 335.5,234.5C 333.018,243.795 329.184,252.462 324,260.5C 323.187,262.436 322.687,264.436 322.5,266.5 Z"/></g>
<g><path style="opacity:0.996" fill="#3e443d" d="M 297.5,267.5 C 298.85,268.824 298.683,269.824 297,270.5C 281.669,274.5 266.169,275.333 250.5,273C 241.012,263.179 231.178,253.679 221,244.5C 206.64,256.597 190.473,265.431 172.5,271C 167.898,272.122 163.232,272.622 158.5,272.5C 158.5,271.5 158.5,270.5 158.5,269.5C 170.03,267.617 181.364,264.784 192.5,261C 202.524,254.988 212.024,248.155 221,240.5C 230.797,250.629 240.964,260.463 251.5,270C 267.011,272.34 282.344,271.507 297.5,267.5 Z"/></g>
<g><path style="opacity:0.996" fill="#484c45" d="M 128.5,263.5 C 130.381,266.906 132.548,270.239 135,273.5C 136.11,275.037 137.61,275.703 139.5,275.5C 139.5,276.5 139.5,277.5 139.5,278.5C 138.022,278.762 136.689,278.429 135.5,277.5C 131.641,273.587 129.308,268.921 128.5,263.5 Z"/></g>
<g><path style="opacity:0.071" fill="#8a8a8a" d="M 322.5,266.5 C 320.298,271.924 317.798,277.258 315,282.5C 314.08,285.101 313.413,287.768 313,290.5C 311.266,291.249 309.433,291.749 307.5,292C 295.617,305.216 281.95,316.216 266.5,325C 260.041,329.79 253.874,334.957 248,340.5C 246.559,339.74 245.059,339.074 243.5,338.5C 238.145,342.937 232.478,343.603 226.5,340.5C 230.514,340.666 234.514,340.499 238.5,340C 239.995,338.839 241.495,337.673 243,336.5C 245.05,337.791 247.217,338.291 249.5,338C 252.887,334.123 256.554,330.456 260.5,327C 269.833,320.667 279.167,314.333 288.5,308C 294.86,302.973 300.527,297.306 305.5,291C 307.345,289.872 309.345,289.372 311.5,289.5C 311.421,286.729 311.921,284.063 313,281.5C 315.774,277.04 318.274,272.373 320.5,267.5C 320.957,266.702 321.624,266.369 322.5,266.5 Z"/></g>
<g><path style="opacity:0.318" fill="#939393" d="M 86.5,305.5 C 88.4553,310.706 91.4553,315.373 95.5,319.5C 89.2805,316.94 86.2805,312.273 86.5,305.5 Z"/></g>
<g><path style="opacity:0.114" fill="#929292" d="M 95.5,319.5 C 96.8333,319.5 97.5,320.167 97.5,321.5C 96.1667,321.5 95.5,320.833 95.5,319.5 Z"/></g>
<g><path style="opacity:0.188" fill="#7a7a7a" d="M 97.5,321.5 C 98.8734,321.343 100.207,321.51 101.5,322C 103.967,324.73 106.633,327.23 109.5,329.5C 104.803,327.822 100.803,325.156 97.5,321.5 Z"/></g>
<g><path style="opacity:0.722" fill="#717171" d="M 109.5,329.5 C 118.307,332.193 126.307,336.193 133.5,341.5C 124.903,338.535 116.903,334.535 109.5,329.5 Z"/></g>
<g><path style="opacity:0.652" fill="#808080" d="M 226.5,340.5 C 213.827,339.61 201.161,339.943 188.5,341.5C 182.929,341.419 177.429,340.752 172,339.5C 169.558,339.482 167.392,340.149 165.5,341.5C 166.325,338.848 168.158,337.515 171,337.5C 176.213,338.988 181.547,339.654 187,339.5C 199.16,338.603 211.327,338.436 223.5,339C 224.737,339.232 225.737,339.732 226.5,340.5 Z"/></g>
<g><path style="opacity:0.235" fill="#929292" d="M 133.5,341.5 C 138.021,343.088 142.687,344.088 147.5,344.5C 153.506,343.497 159.506,342.497 165.5,341.5C 154.79,347.953 144.123,347.953 133.5,341.5 Z"/></g>
</svg>
