<?xml version="1.0" encoding="UTF-8"?>
<!DOCTYPE svg PUBLIC "-//W3C//DTD SVG 1.1//EN" "http://www.w3.org/Graphics/SVG/1.1/DTD/svg11.dtd">
<svg xmlns="http://www.w3.org/2000/svg" version="1.1" width="468px" height="471px" style="shape-rendering:geometricPrecision; text-rendering:geometricPrecision; image-rendering:optimizeQuality; fill-rule:evenodd; clip-rule:evenodd" xmlns:xlink="http://www.w3.org/1999/xlink">
<g><path style="opacity:0.89" fill="#bbb9b5" d="M 296.5,59.5 C 291.36,59.8196 286.36,59.1529 281.5,57.5C 274.692,58.2027 268.026,59.536 261.5,61.5C 270.817,56.1807 280.817,54.6807 291.5,57C 293.491,57.3736 295.158,58.207 296.5,59.5 Z"/></g>
<g><path style="opacity:0.996" fill="#97948e" d="M 296.5,59.5 C 297.791,59.2627 298.791,59.596 299.5,60.5C 299.062,60.4346 298.728,60.6012 298.5,61C 303.972,63.8177 309.305,66.8177 314.5,70C 316.134,70.4935 317.801,70.6602 319.5,70.5C 327.942,73.552 335.609,77.8853 342.5,83.5C 342.539,84.5832 342.873,85.5832 343.5,86.5C 350.33,90.571 356.33,95.571 361.5,101.5C 360.794,105.885 362.127,109.385 365.5,112C 369.7,113.367 374.033,113.867 378.5,113.5C 378.421,114.93 378.754,116.264 379.5,117.5C 381.924,118.352 384.258,119.352 386.5,120.5C 395.126,127.124 403.459,134.124 411.5,141.5C 411.73,143.973 411.397,146.64 410.5,149.5C 412.216,149.629 413.883,149.962 415.5,150.5C 417.173,151.343 418.34,152.676 419,154.5C 421.783,162.96 423.283,171.626 423.5,180.5C 423.936,195.863 424.77,211.196 426,226.5C 426.902,228.431 428.069,230.097 429.5,231.5C 432.263,234.689 434.263,238.356 435.5,242.5C 436.752,247.509 436.752,252.509 435.5,257.5C 433.41,257.45 432.077,258.45 431.5,260.5C 432.885,261.551 433.885,262.884 434.5,264.5C 433.567,268.429 433.234,272.429 433.5,276.5C 431.577,282.451 430.244,288.785 429.5,295.5C 430.666,306.646 428,316.646 421.5,325.5C 424.116,317.931 426.449,310.265 428.5,302.5C 428.333,300.833 428.167,299.167 428,297.5C 427.333,298.167 426.667,298.833 426,299.5C 418.07,315.936 409.903,332.27 401.5,348.5C 400.52,351.086 400.187,353.753 400.5,356.5C 397.68,356.248 395.014,356.748 392.5,358C 385.947,365.43 378.947,372.43 371.5,379C 359.008,388.08 346.341,396.913 333.5,405.5C 327.871,409.461 322.871,414.127 318.5,419.5C 315.324,420.997 312.658,420.33 310.5,417.5C 307.015,421.314 302.682,423.314 297.5,423.5C 288.455,421.422 279.288,420.422 270,420.5C 255.869,422.044 241.702,422.544 227.5,422C 223.39,421.675 219.39,420.842 215.5,419.5C 207.868,422.311 200.201,425.144 192.5,428C 186.109,428.758 179.776,428.424 173.5,427C 150.787,418.06 129.954,405.893 111,390.5C 109.333,387.833 107.667,385.167 106,382.5C 106.486,376.985 103.986,373.819 98.5,373C 95.1832,372.502 91.8499,372.335 88.5,372.5C 88.5,370.833 88.5,369.167 88.5,367.5C 86.8008,367.66 85.1341,367.494 83.5,367C 81.8333,364.667 80.1667,362.333 78.5,360C 70.1317,355.465 62.7984,349.631 56.5,342.5C 55.3192,340.865 55.3192,339.198 56.5,337.5C 53.4782,335.312 50.9782,332.645 49,329.5C 48.3333,331.167 48.3333,332.833 49,334.5C 50.6401,341.356 52.8067,348.023 55.5,354.5C 53.9256,354.063 52.7589,353.063 52,351.5C 49.5438,344.345 48.0438,337.012 47.5,329.5C 47.0903,321.463 46.2569,313.463 45,305.5C 44.6174,304.944 44.1174,304.611 43.5,304.5C 43.5,304.167 43.5,303.833 43.5,303.5C 42.9338,294.175 42.4338,284.842 42,275.5C 41.6174,274.944 41.1174,274.611 40.5,274.5C 39.8333,274.5 39.5,274.167 39.5,273.5C 40.3382,273.158 40.6716,272.492 40.5,271.5C 41.795,266.276 41.6284,260.943 40,255.5C 38.583,253.602 37.083,251.936 35.5,250.5C 35.6107,249.883 35.944,249.383 36.5,249C 30.427,241.138 30.0937,233.138 35.5,225C 31.9076,223.014 31.7409,220.847 35,218.5C 35.4996,211.842 35.6663,205.175 35.5,198.5C 35.3379,196.473 35.5045,194.473 36,192.5C 41.664,181.356 47.4974,170.356 53.5,159.5C 57.2888,155.096 60.4554,150.096 63,144.5C 64.0587,141.382 65.3921,138.382 67,135.5C 67.4966,133.19 67.6633,130.857 67.5,128.5C 69.7354,128.795 71.7354,128.461 73.5,127.5C 88.5821,110.313 105.915,95.9797 125.5,84.5C 125.897,85.525 126.563,85.6917 127.5,85C 132.741,80.5974 138.408,76.9307 144.5,74C 146.032,71.9656 147.365,69.7989 148.5,67.5C 151.736,66.0585 154.736,66.3919 157.5,68.5C 159.359,66.8076 161.359,65.3076 163.5,64C 174.661,64.2293 185.827,64.7293 197,65.5C 211.492,64.6218 225.992,63.9552 240.5,63.5C 244.3,63.4111 247.966,64.0778 251.5,65.5C 254.738,63.9751 258.071,62.6418 261.5,61.5C 268.026,59.536 274.692,58.2027 281.5,57.5C 286.36,59.1529 291.36,59.8196 296.5,59.5 Z"/></g>
<g><path style="opacity:0.318" fill="#c9c7c4" d="M 299.5,60.5 C 306.755,62.902 313.421,66.2353 319.5,70.5C 317.801,70.6602 316.134,70.4935 314.5,70C 309.305,66.8177 303.972,63.8177 298.5,61C 298.728,60.6012 299.062,60.4346 299.5,60.5 Z"/></g>
<g><path style="opacity:0.11" fill="#c1bfba" d="M 240.5,63.5 C 225.992,63.9552 211.492,64.6218 197,65.5C 185.827,64.7293 174.661,64.2293 163.5,64C 161.359,65.3076 159.359,66.8076 157.5,68.5C 154.736,66.3919 151.736,66.0585 148.5,67.5C 147.365,69.7989 146.032,71.9656 144.5,74C 138.408,76.9307 132.741,80.5974 127.5,85C 126.563,85.6917 125.897,85.525 125.5,84.5C 134.72,78.4539 143.22,71.4539 151,63.5C 153.139,64.2364 155.139,65.2364 157,66.5C 160.239,63.0849 164.239,61.4183 169,61.5C 189.096,64.8841 209.263,65.2175 229.5,62.5C 233.349,62.5013 237.016,62.8346 240.5,63.5 Z"/></g>
<g><path style="opacity:0.392" fill="#c4c3bf" d="M 342.5,83.5 C 349.329,86.8196 355.163,91.4863 360,97.5C 360.791,98.745 361.291,100.078 361.5,101.5C 356.33,95.571 350.33,90.571 343.5,86.5C 342.873,85.5832 342.539,84.5832 342.5,83.5 Z"/></g>
<g><path style="opacity:0.351" fill="#c6c4c0" d="M 361.5,101.5 C 363.008,103.171 363.341,105.004 362.5,107C 363.5,108 364.5,109 365.5,110C 370.012,111.636 374.678,112.636 379.5,113C 380.337,114.011 380.67,115.178 380.5,116.5C 383.878,115.891 385.878,117.224 386.5,120.5C 384.258,119.352 381.924,118.352 379.5,117.5C 378.754,116.264 378.421,114.93 378.5,113.5C 374.033,113.867 369.7,113.367 365.5,112C 362.127,109.385 360.794,105.885 361.5,101.5 Z"/></g>
<g><path style="opacity:0.996" fill="#336f24" d="M 307.5,132.5 C 301.514,141.64 296.18,151.14 291.5,161C 292.448,161.483 293.448,161.649 294.5,161.5C 304.33,158.923 313.997,155.756 323.5,152C 330.514,150.046 337.514,150.046 344.5,152C 348.436,153.371 349.769,155.871 348.5,159.5C 336.832,163.919 324.832,167.419 312.5,170C 304.09,170.787 295.756,170.287 287.5,168.5C 281.089,176.273 274.422,183.939 267.5,191.5C 265.427,193.58 263.093,195.246 260.5,196.5C 258.656,195.796 258.156,194.463 259,192.5C 269.203,177.093 277.537,160.76 284,143.5C 286.288,135.801 286.455,128.134 284.5,120.5C 284.68,119.446 285.013,118.446 285.5,117.5C 294.061,117.418 301.561,120.418 308,126.5C 308.49,128.545 308.323,130.545 307.5,132.5 Z"/></g>
<g><path style="opacity:0.996" fill="#326e23" d="M 240.5,159.5 C 237.408,162.355 233.741,163.188 229.5,162C 221.745,154.768 215.412,146.602 210.5,137.5C 208.382,133.181 209.716,131.181 214.5,131.5C 221.883,132.127 228.549,134.627 234.5,139C 240.761,144.54 242.761,151.373 240.5,159.5 Z"/></g>
<g><path style="opacity:0.996" fill="#326e23" d="M 177.5,170.5 C 176.359,172.229 174.693,173.229 172.5,173.5C 170.133,173.158 167.8,172.658 165.5,172C 156.809,164.489 149.475,155.989 143.5,146.5C 141.256,141.925 142.589,139.591 147.5,139.5C 160.046,141.521 170.212,147.521 178,157.5C 178.768,161.92 178.602,166.253 177.5,170.5 Z"/></g>
<g><path style="opacity:0.192" fill="#d6d5d2" d="M 411.5,141.5 C 413.517,143.217 413.85,145.217 412.5,147.5C 413.77,148.288 414.77,149.288 415.5,150.5C 413.883,149.962 412.216,149.629 410.5,149.5C 411.397,146.64 411.73,143.973 411.5,141.5 Z"/></g>
<g><path style="opacity:0.51" fill="#c4c3bf" d="M 73.5,127.5 C 71.7354,128.461 69.7354,128.795 67.5,128.5C 67.6633,130.857 67.4966,133.19 67,135.5C 65.3921,138.382 64.0587,141.382 63,144.5C 60.4554,150.096 57.2888,155.096 53.5,159.5C 57.3741,151.06 61.5408,142.727 66,134.5C 66.4966,132.19 66.6633,129.857 66.5,127.5C 68.8333,127.5 71.1667,127.5 73.5,127.5 Z"/></g>
<g><path style="opacity:0.996" fill="#3f423d" d="M 143.5,146.5 C 149.475,155.989 156.809,164.489 165.5,172C 167.8,172.658 170.133,173.158 172.5,173.5C 174.693,173.229 176.359,172.229 177.5,170.5C 178.259,177.545 175.259,180.379 168.5,179C 158.294,171.426 149.794,162.259 143,151.5C 142.36,149.735 142.527,148.068 143.5,146.5 Z"/></g>
<g><path style="opacity:0.996" fill="#3f423e" d="M 210.5,137.5 C 215.412,146.602 221.745,154.768 229.5,162C 233.741,163.188 237.408,162.355 240.5,159.5C 240.5,168.328 236.5,170.828 228.5,167C 219.29,158.992 213.29,149.159 210.5,137.5 Z"/></g>
<g><path style="opacity:0.996" fill="#3d453b" d="M 307.5,132.5 C 308.598,133.601 308.765,134.934 308,136.5C 303.407,144.778 298.907,153.111 294.5,161.5C 293.448,161.649 292.448,161.483 291.5,161C 296.18,151.14 301.514,141.64 307.5,132.5 Z"/></g>
<g><path style="opacity:0.996" fill="#3d413b" d="M 348.5,159.5 C 349.218,161.137 349.384,162.803 349,164.5C 347.229,165.304 345.729,166.471 344.5,168C 330.794,172.308 316.794,175.141 302.5,176.5C 297.404,176.536 292.404,175.869 287.5,174.5C 281.081,182.304 274.415,189.971 267.5,197.5C 266.167,198.167 265.167,199.167 264.5,200.5C 262.883,201.038 261.216,201.371 259.5,201.5C 259.366,199.708 259.699,198.042 260.5,196.5C 263.093,195.246 265.427,193.58 267.5,191.5C 274.422,183.939 281.089,176.273 287.5,168.5C 295.756,170.287 304.09,170.787 312.5,170C 324.832,167.419 336.832,163.919 348.5,159.5 Z"/></g>
<g><path style="opacity:0.996" fill="#326e23" d="M 262.5,179.5 C 260.391,180.391 258.391,181.558 256.5,183C 247.759,185.416 239.092,187.916 230.5,190.5C 230.273,192.933 231.273,194.599 233.5,195.5C 234.613,201.501 234.779,207.501 234,213.5C 239.215,216.127 244.715,217.961 250.5,219C 252.043,220.878 253.876,222.378 256,223.5C 256.497,226.146 256.664,228.813 256.5,231.5C 255.414,231.62 254.747,232.287 254.5,233.5C 250.365,249.208 247.365,265.208 245.5,281.5C 242.826,288.489 239.993,295.489 237,302.5C 233.858,307.638 230.024,312.138 225.5,316C 222.975,316.896 220.808,316.396 219,314.5C 216.817,308.768 214.484,303.102 212,297.5C 210.383,295.237 208.55,293.237 206.5,291.5C 205.659,289.621 205.325,287.621 205.5,285.5C 206.873,285.343 208.207,285.51 209.5,286C 214.537,290.648 220.037,291.482 226,288.5C 234.575,270.667 238.742,252 238.5,232.5C 238.678,227.538 236.678,223.705 232.5,221C 231.365,220.251 230.365,220.417 229.5,221.5C 220.682,248.155 205.348,270.322 183.5,288C 182.255,288.791 180.922,289.291 179.5,289.5C 178.351,289.209 177.684,288.376 177.5,287C 177.667,286.167 177.833,285.333 178,284.5C 184.093,278.41 189.427,271.744 194,264.5C 202.519,250.419 209.852,235.752 216,220.5C 217.551,213.916 218.384,207.249 218.5,200.5C 219.461,198.735 219.795,196.735 219.5,194.5C 214.586,194.362 209.919,195.028 205.5,196.5C 198.5,197.833 191.5,197.833 184.5,196.5C 184.08,194.906 183.414,193.406 182.5,192C 182.645,191.228 182.978,190.561 183.5,190C 205.553,185.869 226.887,179.536 247.5,171C 253.715,169.46 259.215,170.627 264,174.5C 264.613,176.495 264.113,178.162 262.5,179.5 Z"/></g>
<g><path style="opacity:0.996" fill="#3c3f3b" d="M 262.5,179.5 C 263.598,180.601 263.765,181.934 263,183.5C 253.856,189.326 244.023,193.326 233.5,195.5C 231.273,194.599 230.273,192.933 230.5,190.5C 239.092,187.916 247.759,185.416 256.5,183C 258.391,181.558 260.391,180.391 262.5,179.5 Z"/></g>
<g><path style="opacity:0.996" fill="#326f23" d="M 341.5,199.5 C 328.426,206.725 316.592,215.725 306,226.5C 305.09,228.945 305.924,230.278 308.5,230.5C 309.376,234.881 310.376,239.214 311.5,243.5C 316.924,243.312 322.257,242.478 327.5,241C 339.184,238.727 349.851,240.893 359.5,247.5C 360.771,249.806 360.438,251.806 358.5,253.5C 343.705,254.135 329.038,254.802 314.5,255.5C 314.5,257.167 314.5,258.833 314.5,260.5C 314.876,274.895 314.209,289.229 312.5,303.5C 310.376,311.9 306.043,319.067 299.5,325C 296.97,326.422 294.303,326.755 291.5,326C 289.807,322.784 287.973,319.617 286,316.5C 283.638,313.808 281.304,311.141 279,308.5C 276.931,306.915 274.764,305.581 272.5,304.5C 270.716,302.59 269.716,300.256 269.5,297.5C 275.479,298.126 281.312,299.126 287,300.5C 289.167,300.333 291.333,300.167 293.5,300C 296.615,296.064 298.448,291.564 299,286.5C 299.73,278.51 300.23,270.51 300.5,262.5C 300.66,260.801 300.494,259.134 300,257.5C 299.275,256.941 298.442,256.608 297.5,256.5C 290.575,257.338 283.909,258.838 277.5,261C 273.848,261.499 270.182,261.665 266.5,261.5C 264.112,259.639 261.446,258.306 258.5,257.5C 256.721,256.33 255.721,254.664 255.5,252.5C 269.596,250.163 283.596,247.83 297.5,245.5C 298.341,238.421 295.674,232.754 289.5,228.5C 288.85,226.565 288.517,224.565 288.5,222.5C 292.163,223.112 295.83,223.279 299.5,223C 304.798,216.882 309.465,210.382 313.5,203.5C 315.074,201.898 315.741,199.898 315.5,197.5C 307.285,198.304 299.618,200.804 292.5,205C 286.408,207.653 280.075,208.653 273.5,208C 271.138,206.489 268.805,204.989 266.5,203.5C 265.833,202.5 265.167,201.5 264.5,200.5C 265.167,199.167 266.167,198.167 267.5,197.5C 286.331,197.16 303.997,192.66 320.5,184C 323.833,183.333 327.167,183.333 330.5,184C 334.633,187.131 338.466,190.631 342,194.5C 342.64,196.265 342.473,197.932 341.5,199.5 Z"/></g>
<g><path style="opacity:0.996" fill="#414240" d="M 218.5,199.5 C 213.615,199.965 208.948,201.132 204.5,203C 198.098,203.818 191.765,203.484 185.5,202C 184.101,200.938 183.101,199.605 182.5,198C 182.836,196.97 183.503,196.47 184.5,196.5C 191.5,197.833 198.5,197.833 205.5,196.5C 209.881,196.628 214.215,196.295 218.5,195.5C 218.5,196.833 218.5,198.167 218.5,199.5 Z"/></g>
<g><path style="opacity:0.996" fill="#314f2d" d="M 218.5,200.5 C 218.5,200.167 218.5,199.833 218.5,199.5C 218.5,198.167 218.5,196.833 218.5,195.5C 214.215,196.295 209.881,196.628 205.5,196.5C 209.919,195.028 214.586,194.362 219.5,194.5C 219.795,196.735 219.461,198.735 218.5,200.5 Z"/></g>
<g><path style="opacity:0.996" fill="#3d413c" d="M 313.5,203.5 C 301.814,206.629 290.314,210.296 279,214.5C 274.809,213.99 270.975,212.49 267.5,210C 265.316,208.102 264.983,205.936 266.5,203.5C 268.805,204.989 271.138,206.489 273.5,208C 280.075,208.653 286.408,207.653 292.5,205C 299.618,200.804 307.285,198.304 315.5,197.5C 315.741,199.898 315.074,201.898 313.5,203.5 Z"/></g>
<g><path style="opacity:0.996" fill="#3c413a" d="M 341.5,199.5 C 341.896,202.044 341.229,204.211 339.5,206C 328.006,212.741 317.673,220.908 308.5,230.5C 305.924,230.278 305.09,228.945 306,226.5C 316.592,215.725 328.426,206.725 341.5,199.5 Z"/></g>
<g><path style="opacity:0.996" fill="#326e23" d="M 175.5,222.5 C 168.054,228.708 162.554,236.375 159,245.5C 158.503,248.146 158.336,250.813 158.5,253.5C 158.183,256.572 158.516,259.572 159.5,262.5C 167.175,275.363 170.342,289.363 169,304.5C 185.059,309.797 201.226,314.797 217.5,319.5C 220.539,320.01 223.539,320.677 226.5,321.5C 240.201,325.592 254.201,329.092 268.5,332C 293.078,334.961 317.745,336.128 342.5,335.5C 352.486,334.834 362.486,334.501 372.5,334.5C 372.67,335.822 372.337,336.989 371.5,338C 368.719,338.522 366.385,339.689 364.5,341.5C 347.3,347.67 329.966,353.336 312.5,358.5C 305.833,359.833 299.167,359.833 292.5,358.5C 280.075,354.195 267.409,350.361 254.5,347C 227.3,337.062 199.967,327.562 172.5,318.5C 172.389,317.883 172.056,317.383 171.5,317C 162.045,314.068 152.712,313.902 143.5,316.5C 139.481,317.713 135.481,318.879 131.5,320C 123.091,320.805 116.091,317.971 110.5,311.5C 110.261,309.533 110.594,307.699 111.5,306C 126.227,302.158 141.227,300.158 156.5,300C 157.435,297.619 157.768,295.119 157.5,292.5C 155.964,281.113 151.964,270.779 145.5,261.5C 145.312,255.112 145.812,248.778 147,242.5C 149.099,239.435 150.599,236.102 151.5,232.5C 151.756,230.208 151.423,228.041 150.5,226C 144.401,226.893 138.235,227.726 132,228.5C 127.196,228.673 122.696,227.673 118.5,225.5C 116.576,223.91 116.243,222.076 117.5,220C 131.29,219.076 143.29,214.076 153.5,205C 157.402,204.262 161.068,204.928 164.5,207C 168.333,210.167 172.167,213.333 176,216.5C 176.678,218.598 176.511,220.598 175.5,222.5 Z"/></g>
<g><path style="opacity:0.357" fill="#c0bebb" d="M 423.5,180.5 C 424.832,184.264 425.665,188.264 426,192.5C 426.333,201.833 426.667,211.167 427,220.5C 427.407,224.285 428.241,227.952 429.5,231.5C 428.069,230.097 426.902,228.431 426,226.5C 424.77,211.196 423.936,195.863 423.5,180.5 Z"/></g>
<g><path style="opacity:0.996" fill="#3e453c" d="M 175.5,222.5 C 175.662,224.527 175.495,226.527 175,228.5C 166.967,235.252 161.467,243.586 158.5,253.5C 158.336,250.813 158.503,248.146 159,245.5C 162.554,236.375 168.054,228.708 175.5,222.5 Z"/></g>
<g><path style="opacity:0.996" fill="#414340" d="M 118.5,225.5 C 122.696,227.673 127.196,228.673 132,228.5C 138.235,227.726 144.401,226.893 150.5,226C 151.423,228.041 151.756,230.208 151.5,232.5C 147.396,231.349 143.396,231.849 139.5,234C 132.664,234.961 125.997,234.295 119.5,232C 116.194,230.005 115.861,227.838 118.5,225.5 Z"/></g>
<g><path style="opacity:0.996" fill="#3e453c" d="M 289.5,228.5 C 295.674,232.754 298.341,238.421 297.5,245.5C 296.955,243.407 296.122,241.407 295,239.5C 292.626,237.461 290.626,235.128 289,232.5C 288.235,230.934 288.402,229.601 289.5,228.5 Z"/></g>
<g><path style="opacity:0.996" fill="#636b5d" d="M 256.5,231.5 C 253.521,245.702 250.854,260.035 248.5,274.5C 247.868,277.102 246.868,279.436 245.5,281.5C 247.365,265.208 250.365,249.208 254.5,233.5C 254.747,232.287 255.414,231.62 256.5,231.5 Z"/></g>
<g><path style="opacity:0.514" fill="#c5c4c2" d="M 35.5,198.5 C 35.6663,205.175 35.4996,211.842 35,218.5C 31.7409,220.847 31.9076,223.014 35.5,225C 30.0937,233.138 30.427,241.138 36.5,249C 35.944,249.383 35.6107,249.883 35.5,250.5C 34.6239,253.799 34.4572,257.132 35,260.5C 36.6554,264.303 38.4888,267.97 40.5,271.5C 40.6716,272.492 40.3382,273.158 39.5,273.5C 36.6703,269.195 34.5037,264.528 33,259.5C 32.1933,255.814 32.6933,252.314 34.5,249C 28.5674,241.3 28.2341,233.467 33.5,225.5C 30.7144,222.644 30.8811,219.978 34,217.5C 34.1721,210.987 34.6721,204.653 35.5,198.5 Z"/></g>
<g><path style="opacity:0.133" fill="#d5d4d0" d="M 435.5,242.5 C 437.033,244.634 437.7,247.134 437.5,250C 437.7,252.866 437.033,255.366 435.5,257.5C 436.752,252.509 436.752,247.509 435.5,242.5 Z"/></g>
<g><path style="opacity:0.994" fill="#131313" d="M 35.5,250.5 C 37.083,251.936 38.583,253.602 40,255.5C 41.6284,260.943 41.795,266.276 40.5,271.5C 38.4888,267.97 36.6554,264.303 35,260.5C 34.4572,257.132 34.6239,253.799 35.5,250.5 Z"/></g>
<g><path style="opacity:0.996" fill="#324830" d="M 358.5,253.5 C 358.389,254.117 358.056,254.617 357.5,255C 343.171,255.5 328.837,255.667 314.5,255.5C 329.038,254.802 343.705,254.135 358.5,253.5 Z"/></g>
<g><path style="opacity:0.996" fill="#3e3f3e" d="M 358.5,253.5 C 359.927,256.129 359.261,258.295 356.5,260C 342.504,260.5 328.504,260.667 314.5,260.5C 314.5,258.833 314.5,257.167 314.5,255.5C 328.837,255.667 343.171,255.5 357.5,255C 358.056,254.617 358.389,254.117 358.5,253.5 Z"/></g>
<g><path style="opacity:0.996" fill="#414140" d="M 258.5,257.5 C 261.446,258.306 264.112,259.639 266.5,261.5C 274.009,263.094 281.343,262.26 288.5,259C 292.152,258.501 295.818,258.335 299.5,258.5C 299.5,259.833 299.5,261.167 299.5,262.5C 291.884,263.586 284.218,265.086 276.5,267C 269.036,268.124 262.369,266.291 256.5,261.5C 255.059,259.167 255.725,257.834 258.5,257.5 Z"/></g>
<g><path style="opacity:0.996" fill="#334831" d="M 300.5,262.5 C 300.167,262.5 299.833,262.5 299.5,262.5C 299.5,261.167 299.5,259.833 299.5,258.5C 295.818,258.335 292.152,258.501 288.5,259C 281.343,262.26 274.009,263.094 266.5,261.5C 270.182,261.665 273.848,261.499 277.5,261C 283.909,258.838 290.575,257.338 297.5,256.5C 298.442,256.608 299.275,256.941 300,257.5C 300.494,259.134 300.66,260.801 300.5,262.5 Z"/></g>
<g><path style="opacity:0.102" fill="#d9d8d6" d="M 435.5,257.5 C 435.047,258.458 434.381,259.292 433.5,260C 434.743,261.154 435.743,262.488 436.5,264C 435.014,268.134 434.014,272.301 433.5,276.5C 433.234,272.429 433.567,268.429 434.5,264.5C 433.885,262.884 432.885,261.551 431.5,260.5C 432.077,258.45 433.41,257.45 435.5,257.5 Z"/></g>
<g><path style="opacity:0.996" fill="#3d433c" d="M 238.5,232.5 C 236.37,230.873 234.37,229.04 232.5,227C 231.365,226.251 230.365,226.417 229.5,227.5C 223.722,240.802 217.222,253.802 210,266.5C 201.833,277.333 192.333,286.833 181.5,295C 180.552,295.483 179.552,295.649 178.5,295.5C 178.517,293.435 178.85,291.435 179.5,289.5C 180.922,289.291 182.255,288.791 183.5,288C 205.348,270.322 220.682,248.155 229.5,221.5C 230.365,220.417 231.365,220.251 232.5,221C 236.678,223.705 238.678,227.538 238.5,232.5 Z"/></g>
<g><path style="opacity:0.996" fill="#434c40" d="M 145.5,261.5 C 151.964,270.779 155.964,281.113 157.5,292.5C 156.072,289.587 155.072,286.421 154.5,283C 152.36,278.542 149.86,274.375 147,270.5C 146.047,267.568 145.547,264.568 145.5,261.5 Z"/></g>
<g><path style="opacity:0.282" fill="#d4d1cf" d="M 433.5,276.5 C 432.305,278.773 432.305,281.106 433.5,283.5C 432.762,287.824 431.428,291.824 429.5,295.5C 430.244,288.785 431.577,282.451 433.5,276.5 Z"/></g>
<g><path style="opacity:0.027" fill="#e3e3e1" d="M 40.5,274.5 C 41.1174,274.611 41.6174,274.944 42,275.5C 42.4338,284.842 42.9338,294.175 43.5,303.5C 41.7966,294.051 40.7966,284.384 40.5,274.5 Z"/></g>
<g><path style="opacity:0.996" fill="#3f463d" d="M 245.5,281.5 C 243.57,288.232 241.903,295.065 240.5,302C 236.771,309.22 232.105,315.72 226.5,321.5C 223.539,320.677 220.539,320.01 217.5,319.5C 216.344,313.877 214.51,308.544 212,303.5C 210,300.833 208,298.167 206,295.5C 205.421,294.072 205.588,292.738 206.5,291.5C 208.55,293.237 210.383,295.237 212,297.5C 214.484,303.102 216.817,308.768 219,314.5C 220.808,316.396 222.975,316.896 225.5,316C 230.024,312.138 233.858,307.638 237,302.5C 239.993,295.489 242.826,288.489 245.5,281.5 Z"/></g>
<g><path style="opacity:0.349" fill="#d4d4d0" d="M 43.5,304.5 C 44.1174,304.611 44.6174,304.944 45,305.5C 46.2569,313.463 47.0903,321.463 47.5,329.5C 45.2146,321.449 43.8812,313.116 43.5,304.5 Z"/></g>
<g><path style="opacity:0.996" fill="#3f413e" d="M 110.5,311.5 C 116.091,317.971 123.091,320.805 131.5,320C 135.481,318.879 139.481,317.713 143.5,316.5C 153.333,314.923 162.999,315.59 172.5,318.5C 199.967,327.562 227.3,337.062 254.5,347C 267.409,350.361 280.075,354.195 292.5,358.5C 299.167,359.833 305.833,359.833 312.5,358.5C 329.966,353.336 347.3,347.67 364.5,341.5C 367.112,340.629 369.779,339.963 372.5,339.5C 374.652,340.077 374.985,341.244 373.5,343C 360.542,349.101 347.208,354.434 333.5,359C 321.333,362.436 309,364.436 296.5,365C 276.793,360.653 257.793,354.32 239.5,346C 233.766,344.088 227.933,342.588 222,341.5C 202.861,334.541 183.694,327.708 164.5,321C 152.88,320.036 141.547,321.369 130.5,325C 119.054,327.135 112.388,322.635 110.5,311.5 Z"/></g>
<g><path style="opacity:0.996" fill="#30502c" d="M 172.5,318.5 C 162.999,315.59 153.333,314.923 143.5,316.5C 152.712,313.902 162.045,314.068 171.5,317C 172.056,317.383 172.389,317.883 172.5,318.5 Z"/></g>
<g><path style="opacity:0.996" fill="#3f443d" d="M 312.5,303.5 C 311.546,314.242 307.213,323.409 299.5,331C 296.711,332.664 293.877,332.83 291,331.5C 286.562,321.721 279.895,313.721 271,307.5C 270.275,305.843 270.775,304.843 272.5,304.5C 274.764,305.581 276.931,306.915 279,308.5C 281.304,311.141 283.638,313.808 286,316.5C 287.973,319.617 289.807,322.784 291.5,326C 294.303,326.755 296.97,326.422 299.5,325C 306.043,319.067 310.376,311.9 312.5,303.5 Z"/></g>
<g><path style="opacity:0.247" fill="#b5b4b4" d="M 421.5,325.5 C 420.247,329.611 418.247,333.277 415.5,336.5C 416.214,332.067 418.214,328.4 421.5,325.5 Z"/></g>
<g><path style="opacity:0.996" fill="#080807" d="M 421.5,325.5 C 418.214,328.4 416.214,332.067 415.5,336.5C 414.624,336.369 413.957,336.702 413.5,337.5C 408.429,347.877 403.263,358.21 398,368.5C 397.503,370.81 397.337,373.143 397.5,375.5C 394.68,375.248 392.014,375.748 389.5,377C 382.806,385.027 375.473,392.36 367.5,399C 355.973,407.259 344.307,415.259 332.5,423C 327.48,427.022 322.814,431.356 318.5,436C 315.272,437.909 312.105,437.742 309,435.5C 306.052,438.797 302.386,440.797 298,441.5C 291.481,440.609 284.981,439.609 278.5,438.5C 275.686,437.835 272.686,437.502 269.5,437.5C 264.893,437.316 260.56,437.983 256.5,439.5C 243.769,441.077 231.103,440.743 218.5,438.5C 216.712,437.378 214.712,437.211 212.5,438C 208.44,439.689 204.773,441.856 201.5,444.5C 192.474,446.838 183.474,446.838 174.5,444.5C 164.577,440.205 154.91,435.372 145.5,430C 143.564,429.187 141.564,428.687 139.5,428.5C 138.599,426.273 136.933,425.273 134.5,425.5C 130.644,422.769 126.977,419.603 123.5,416C 114.538,411.538 109.205,404.371 107.5,394.5C 102.521,391.832 97.188,390.832 91.5,391.5C 91.7989,389.396 91.4656,387.396 90.5,385.5C 88.802,386.681 87.1353,386.681 85.5,385.5C 82.9812,379.645 78.6479,375.978 72.5,374.5C 71.4154,372.413 69.7488,371.08 67.5,370.5C 64.8347,367.665 62.3347,364.665 60,361.5C 59.3486,359.765 59.5153,358.098 60.5,356.5C 58.9783,355.438 57.3117,354.771 55.5,354.5C 52.8067,348.023 50.6401,341.356 49,334.5C 48.3333,332.833 48.3333,331.167 49,329.5C 50.9782,332.645 53.4782,335.312 56.5,337.5C 55.3192,339.198 55.3192,340.865 56.5,342.5C 62.7984,349.631 70.1317,355.465 78.5,360C 80.1667,362.333 81.8333,364.667 83.5,367C 85.1341,367.494 86.8008,367.66 88.5,367.5C 88.5,369.167 88.5,370.833 88.5,372.5C 91.8499,372.335 95.1832,372.502 98.5,373C 103.986,373.819 106.486,376.985 106,382.5C 107.667,385.167 109.333,387.833 111,390.5C 129.954,405.893 150.787,418.06 173.5,427C 179.776,428.424 186.109,428.758 192.5,428C 200.201,425.144 207.868,422.311 215.5,419.5C 219.39,420.842 223.39,421.675 227.5,422C 241.702,422.544 255.869,422.044 270,420.5C 279.288,420.422 288.455,421.422 297.5,423.5C 302.682,423.314 307.015,421.314 310.5,417.5C 312.658,420.33 315.324,420.997 318.5,419.5C 322.871,414.127 327.871,409.461 333.5,405.5C 346.341,396.913 359.008,388.08 371.5,379C 378.947,372.43 385.947,365.43 392.5,358C 395.014,356.748 397.68,356.248 400.5,356.5C 400.187,353.753 400.52,351.086 401.5,348.5C 409.903,332.27 418.07,315.936 426,299.5C 426.667,298.833 427.333,298.167 428,297.5C 428.167,299.167 428.333,300.833 428.5,302.5C 426.449,310.265 424.116,317.931 421.5,325.5 Z"/></g>
<g><path style="opacity:0.996" fill="#4b7641" d="M 372.5,339.5 C 369.779,339.963 367.112,340.629 364.5,341.5C 366.385,339.689 368.719,338.522 371.5,338C 372.337,336.989 372.67,335.822 372.5,334.5C 362.486,334.501 352.486,334.834 342.5,335.5C 352.6,333.409 362.933,332.575 373.5,333C 374.856,335.414 374.522,337.581 372.5,339.5 Z"/></g>
<g><path style="opacity:0.055" fill="#b6b6b6" d="M 55.5,354.5 C 57.3117,354.771 58.9783,355.438 60.5,356.5C 59.5153,358.098 59.3486,359.765 60,361.5C 62.3347,364.665 64.8347,367.665 67.5,370.5C 61.0715,366.972 57.0715,361.638 55.5,354.5 Z"/></g>
<g><path style="opacity:0.278" fill="#aeaeae" d="M 67.5,370.5 C 69.7488,371.08 71.4154,372.413 72.5,374.5C 70.2512,373.92 68.5846,372.587 67.5,370.5 Z"/></g>
<g><path style="opacity:0.239" fill="#a8a8a8" d="M 415.5,336.5 C 410.321,347.861 404.821,359.194 399,370.5C 398.695,372.557 398.695,374.557 399,376.5C 396.141,377.173 393.308,378.007 390.5,379C 384.15,385.419 377.816,391.752 371.5,398C 358.167,407.333 344.833,416.667 331.5,426C 326.533,429.966 321.866,434.299 317.5,439C 314.466,439.66 311.633,439.16 309,437.5C 305.629,441.515 301.296,443.182 296,442.5C 287.856,441.337 279.689,440.337 271.5,439.5C 260.177,440.61 248.844,441.61 237.5,442.5C 230.724,442.54 224.391,441.207 218.5,438.5C 231.103,440.743 243.769,441.077 256.5,439.5C 263.813,438.813 271.146,438.479 278.5,438.5C 284.981,439.609 291.481,440.609 298,441.5C 302.386,440.797 306.052,438.797 309,435.5C 312.105,437.742 315.272,437.909 318.5,436C 322.814,431.356 327.48,427.022 332.5,423C 344.307,415.259 355.973,407.259 367.5,399C 375.473,392.36 382.806,385.027 389.5,377C 392.014,375.748 394.68,375.248 397.5,375.5C 397.337,373.143 397.503,370.81 398,368.5C 403.263,358.21 408.429,347.877 413.5,337.5C 413.957,336.702 414.624,336.369 415.5,336.5 Z"/></g>
<g><path style="opacity:0.537" fill="#a2a2a1" d="M 72.5,374.5 C 78.6479,375.978 82.9812,379.645 85.5,385.5C 87.1353,386.681 88.802,386.681 90.5,385.5C 91.4656,387.396 91.7989,389.396 91.5,391.5C 90.3099,389.174 88.3099,388.007 85.5,388C 84.1068,386.829 83.2735,385.329 83,383.5C 79.7078,380.127 76.2078,377.127 72.5,374.5 Z"/></g>
<g><path style="opacity:0.071" fill="#929292" d="M 91.5,391.5 C 97.188,390.832 102.521,391.832 107.5,394.5C 109.205,404.371 114.538,411.538 123.5,416C 126.977,419.603 130.644,422.769 134.5,425.5C 124.049,420.55 115.215,413.55 108,404.5C 107.111,401.313 106.278,398.147 105.5,395C 100.705,393.801 96.0379,392.634 91.5,391.5 Z"/></g>
<g><path style="opacity:0.137" fill="#c1c1c1" d="M 134.5,425.5 C 136.933,425.273 138.599,426.273 139.5,428.5C 137.566,427.89 135.899,426.89 134.5,425.5 Z"/></g>
<g><path style="opacity:0.09" fill="#a9a9a9" d="M 218.5,438.5 C 212.985,440.749 207.319,442.749 201.5,444.5C 204.773,441.856 208.44,439.689 212.5,438C 214.712,437.211 216.712,437.378 218.5,438.5 Z"/></g>
<g><path style="opacity:0.77" fill="#4e4e4e" d="M 278.5,438.5 C 271.146,438.479 263.813,438.813 256.5,439.5C 260.56,437.983 264.893,437.316 269.5,437.5C 272.686,437.502 275.686,437.835 278.5,438.5 Z"/></g>
<g><path style="opacity:0.055" fill="#adadad" d="M 139.5,428.5 C 141.564,428.687 143.564,429.187 145.5,430C 154.91,435.372 164.577,440.205 174.5,444.5C 183.474,446.838 192.474,446.838 201.5,444.5C 201.082,445.222 200.416,445.722 199.5,446C 191.16,447.953 182.827,447.953 174.5,446C 162.184,441.175 150.517,435.342 139.5,428.5 Z"/></g>
</svg>
