<?xml version="1.0" encoding="UTF-8"?>
<!DOCTYPE svg PUBLIC "-//W3C//DTD SVG 1.1//EN" "http://www.w3.org/Graphics/SVG/1.1/DTD/svg11.dtd">
<svg xmlns="http://www.w3.org/2000/svg" version="1.1" width="468px" height="469px" style="shape-rendering:geometricPrecision; text-rendering:geometricPrecision; image-rendering:optimizeQuality; fill-rule:evenodd; clip-rule:evenodd" xmlns:xlink="http://www.w3.org/1999/xlink">
<g><path style="opacity:0.996" fill="#97948e" d="M 303.5,61.5 C 307.633,63.8803 311.966,65.8803 316.5,67.5C 317.167,67.5 317.833,67.5 318.5,67.5C 322.387,72.1276 327.387,75.2943 333.5,77C 336.245,80.1098 339.579,81.9432 343.5,82.5C 351.715,86.7121 358.382,92.7121 363.5,100.5C 361.758,104.689 362.758,108.189 366.5,111C 370.884,113.208 375.551,114.041 380.5,113.5C 380.5,114.833 380.5,116.167 380.5,117.5C 381.93,117.579 383.264,117.246 384.5,116.5C 386.34,119.091 388.006,121.758 389.5,124.5C 394.438,126.79 399.105,129.456 403.5,132.5C 406.447,133.781 408.781,135.781 410.5,138.5C 411.037,140.711 412.037,142.711 413.5,144.5C 413.081,145.672 412.415,146.672 411.5,147.5C 413.73,148.783 416.063,149.783 418.5,150.5C 420.748,159.731 422.582,169.064 424,178.5C 424.638,181.601 425.805,184.268 427.5,186.5C 427.5,186.833 427.5,187.167 427.5,187.5C 426.341,197.992 426.175,208.659 427,219.5C 427.156,222.191 427.989,224.524 429.5,226.5C 431.065,228.509 432.065,230.843 432.5,233.5C 434.877,238.721 436.877,244.055 438.5,249.5C 438.333,250.833 438.167,252.167 438,253.5C 434.325,256.325 433.825,259.492 436.5,263C 434.534,264.347 434.201,265.847 435.5,267.5C 435.5,270.167 435.5,272.833 435.5,275.5C 434.034,280.937 432.534,286.604 431,292.5C 430.501,297.489 430.334,302.489 430.5,307.5C 429.589,311.998 428.089,316.332 426,320.5C 417.667,336.5 409.333,352.5 401,368.5C 400.774,371.095 400.274,373.595 399.5,376C 396.711,376.241 394.044,376.908 391.5,378C 385.14,385.694 378.14,392.694 370.5,399C 357.812,407.697 345.146,416.363 332.5,425C 327.309,429.435 322.309,434.101 317.5,439C 315.063,438.797 312.729,437.963 310.5,436.5C 307.471,439.89 303.638,441.557 299,441.5C 292.617,440.965 286.451,439.965 280.5,438.5C 283.5,438.5 286.5,438.5 289.5,438.5C 294.114,439.55 298.78,439.717 303.5,439C 306.215,438.283 308.382,436.783 310,434.5C 312.73,435.861 315.563,436.361 318.5,436C 324.268,429.63 330.601,423.963 337.5,419C 357.406,407.59 375.073,393.424 390.5,376.5C 392.851,374.771 395.518,374.104 398.5,374.5C 398.481,370.648 399.314,366.981 401,363.5C 407.402,351.03 414.069,338.696 421,326.5C 424.154,320.018 426.82,313.351 429,306.5C 429.667,303.5 429.667,300.5 429,297.5C 420.943,310.947 413.943,324.947 408,339.5C 403.871,344.084 401.704,349.418 401.5,355.5C 398.68,355.248 396.014,355.748 393.5,357C 387.378,364.29 380.711,371.123 373.5,377.5C 359.675,387.579 345.675,397.413 331.5,407C 327.019,410.314 323.019,414.148 319.5,418.5C 316.397,420.047 313.897,419.38 312,416.5C 304.388,423.149 295.888,424.316 286.5,420C 274.486,419.358 262.486,419.524 250.5,420.5C 240.419,420.83 230.419,420.163 220.5,418.5C 217.813,418.336 215.146,418.503 212.5,419C 206.352,422.12 200.019,424.786 193.5,427C 187.109,427.758 180.776,427.424 174.5,426C 154.577,417.71 135.911,407.377 118.5,395C 114.631,391.466 111.131,387.633 108,383.5C 107.502,380.518 107.335,377.518 107.5,374.5C 102.085,372.284 96.4182,371.117 90.5,371C 89.6198,369.644 89.2865,368.144 89.5,366.5C 87.8008,366.66 86.1341,366.494 84.5,366C 82.8333,363.667 81.1667,361.333 79.5,359C 71.1395,354.31 63.6395,348.477 57,341.5C 56.3486,339.765 56.5153,338.098 57.5,336.5C 55.3306,334.815 53.164,333.148 51,331.5C 51.6343,338.622 53.1343,345.622 55.5,352.5C 53.3862,351.64 52.2195,349.973 52,347.5C 49.3772,339.348 47.8772,331.015 47.5,322.5C 48.069,318.671 47.4023,315.337 45.5,312.5C 45.5,312.167 45.5,311.833 45.5,311.5C 44.3334,298.49 43.3334,285.49 42.5,272.5C 44.0786,264.779 42.7453,257.445 38.5,250.5C 38.0431,249.702 37.3764,249.369 36.5,249.5C 36.6107,248.883 36.944,248.383 37.5,248C 32.0989,241.5 30.7656,234.334 33.5,226.5C 33.8039,225.85 34.1373,225.183 34.5,224.5C 33.4756,223.148 32.4756,221.815 31.5,220.5C 33.371,220.141 34.871,219.141 36,217.5C 36.3342,209.147 36.8342,200.814 37.5,192.5C 37.5,192.167 37.5,191.833 37.5,191.5C 43.1048,183.961 47.4382,175.628 50.5,166.5C 55.0714,155.688 60.4047,145.355 66.5,135.5C 67.1174,135.389 67.6174,135.056 68,134.5C 68.4955,132.527 68.6621,130.527 68.5,128.5C 70.9201,128.708 73.2534,128.374 75.5,127.5C 76.982,125.517 78.6487,123.684 80.5,122C 80.2716,121.601 79.9382,121.435 79.5,121.5C 79.5,120.833 79.8333,120.5 80.5,120.5C 87.1833,115.481 93.1833,109.815 98.5,103.5C 111.119,94.5155 123.786,85.5155 136.5,76.5C 138.593,75.9553 140.593,75.122 142.5,74C 144.661,71.0919 147.328,68.7586 150.5,67C 153.575,66.861 156.575,67.361 159.5,68.5C 159.5,67.5 159.5,66.5 159.5,65.5C 163.1,63.0923 167.1,62.0923 171.5,62.5C 191.146,65.0015 210.813,65.0015 230.5,62.5C 238.228,63.0325 245.894,64.0325 253.5,65.5C 256.647,65.0394 259.647,64.0394 262.5,62.5C 263.425,61.6431 264.092,60.6431 264.5,59.5C 273.436,55.7211 282.769,54.5544 292.5,56C 296.354,57.7442 300.021,59.5775 303.5,61.5 Z"/></g>
<g><path style="opacity:0.239" fill="#cccbc6" d="M 264.5,59.5 C 264.092,60.6431 263.425,61.6431 262.5,62.5C 259.647,64.0394 256.647,65.0394 253.5,65.5C 245.894,64.0325 238.228,63.0325 230.5,62.5C 210.813,65.0015 191.146,65.0015 171.5,62.5C 167.1,62.0923 163.1,63.0923 159.5,65.5C 161.868,61.8575 165.368,60.1908 170,60.5C 179.078,62.3493 188.245,63.3493 197.5,63.5C 212.133,61.9435 226.8,61.4435 241.5,62C 245.202,62.6756 248.869,63.5089 252.5,64.5C 256.491,62.8502 260.491,61.1836 264.5,59.5 Z"/></g>
<g><path style="opacity:0.149" fill="#dfdedd" d="M 303.5,61.5 C 308.443,62.3612 312.776,64.3612 316.5,67.5C 311.966,65.8803 307.633,63.8803 303.5,61.5 Z"/></g>
<g><path style="opacity:0.986" fill="#bab7b2" d="M 159.5,65.5 C 159.5,66.5 159.5,67.5 159.5,68.5C 156.575,67.361 153.575,66.861 150.5,67C 147.328,68.7586 144.661,71.0919 142.5,74C 140.593,75.122 138.593,75.9553 136.5,76.5C 141.294,72.8735 145.628,68.7068 149.5,64C 153.021,63.3092 156.355,63.8092 159.5,65.5 Z"/></g>
<g><path style="opacity:0.106" fill="#cac8c4" d="M 318.5,67.5 C 327.366,71.76 335.7,76.76 343.5,82.5C 339.579,81.9432 336.245,80.1098 333.5,77C 327.387,75.2943 322.387,72.1276 318.5,67.5 Z"/></g>
<g><path style="opacity:0.996" fill="#326f23" d="M 260.5,116.5 C 255.978,124.085 253.645,132.418 253.5,141.5C 256.829,141.785 259.829,141.118 262.5,139.5C 269.087,138.354 275.421,136.52 281.5,134C 286.5,133.333 291.5,133.333 296.5,134C 300.491,134.971 303.158,137.304 304.5,141C 304.138,142.434 303.472,143.601 302.5,144.5C 300.216,144.975 298.216,145.975 296.5,147.5C 285.677,149.512 275.01,151.845 264.5,154.5C 259.063,154.363 253.73,155.03 248.5,156.5C 246.953,159.575 246.62,162.575 247.5,165.5C 258.322,167.296 268.655,170.796 278.5,176C 287.884,180.603 291.551,188.103 289.5,198.5C 286.357,201.571 282.69,202.238 278.5,200.5C 268.083,189.579 256.917,179.579 245,170.5C 241.798,175.214 238.798,180.214 236,185.5C 227.083,197.883 215.25,206.217 200.5,210.5C 198.645,210.728 197.812,210.061 198,208.5C 203.978,202.19 210.312,196.19 217,190.5C 222.837,182.492 227.337,173.825 230.5,164.5C 231.738,162.786 232.405,160.786 232.5,158.5C 220.181,159.482 207.848,159.649 195.5,159C 194.255,158.209 192.922,157.709 191.5,157.5C 189.576,155.91 189.243,154.076 190.5,152C 206.165,149.537 221.832,147.037 237.5,144.5C 238.383,135.533 238.716,126.533 238.5,117.5C 238.163,113.164 236.496,109.497 233.5,106.5C 233.244,104.208 233.577,102.041 234.5,100C 244.295,100.064 252.962,103.23 260.5,109.5C 261.797,111.973 261.797,114.307 260.5,116.5 Z"/></g>
<g><path style="opacity:0.996" fill="#454943" d="M 233.5,106.5 C 236.496,109.497 238.163,113.164 238.5,117.5C 235.058,114.701 233.392,111.034 233.5,106.5 Z"/></g>
<g><path style="opacity:0.337" fill="#c6c5c2" d="M 98.5,103.5 C 93.1833,109.815 87.1833,115.481 80.5,120.5C 85.8695,114.13 91.8695,108.463 98.5,103.5 Z"/></g>
<g><path style="opacity:0.816" fill="#c5c2bd" d="M 363.5,100.5 C 363.415,104.713 365.082,107.88 368.5,110C 372.531,110.481 376.531,111.147 380.5,112C 381.337,113.011 381.67,114.178 381.5,115.5C 383.199,115.34 384.866,115.506 386.5,116C 388.069,119.572 390.402,122.572 393.5,125C 397.3,126.979 400.634,129.479 403.5,132.5C 399.105,129.456 394.438,126.79 389.5,124.5C 388.006,121.758 386.34,119.091 384.5,116.5C 383.264,117.246 381.93,117.579 380.5,117.5C 380.5,116.167 380.5,114.833 380.5,113.5C 375.551,114.041 370.884,113.208 366.5,111C 362.758,108.189 361.758,104.689 363.5,100.5 Z"/></g>
<g><path style="opacity:0.284" fill="#d3d2cf" d="M 79.5,121.5 C 79.9382,121.435 80.2716,121.601 80.5,122C 78.6487,123.684 76.982,125.517 75.5,127.5C 73.2534,128.374 70.9201,128.708 68.5,128.5C 68.6621,130.527 68.4955,132.527 68,134.5C 67.6174,135.056 67.1174,135.389 66.5,135.5C 67.0724,132.915 67.2391,130.249 67,127.5C 69.405,126.726 71.905,126.226 74.5,126C 76.0375,124.293 77.7041,122.793 79.5,121.5 Z"/></g>
<g><path style="opacity:0.996" fill="#4b5a46" d="M 260.5,116.5 C 260.663,118.857 260.497,121.19 260,123.5C 257.664,129.008 255.83,134.675 254.5,140.5C 257.167,140.167 259.833,139.833 262.5,139.5C 259.829,141.118 256.829,141.785 253.5,141.5C 253.645,132.418 255.978,124.085 260.5,116.5 Z"/></g>
<g><path style="opacity:0.173" fill="#dbdad8" d="M 410.5,138.5 C 413.902,140.144 415.236,142.644 414.5,146C 416.018,147.351 417.351,148.851 418.5,150.5C 416.063,149.783 413.73,148.783 411.5,147.5C 412.415,146.672 413.081,145.672 413.5,144.5C 412.037,142.711 411.037,140.711 410.5,138.5 Z"/></g>
<g><path style="opacity:0.996" fill="#3f413e" d="M 302.5,144.5 C 303.649,144.791 304.316,145.624 304.5,147C 304.167,147.833 303.833,148.667 303.5,149.5C 300.693,151.446 297.693,152.946 294.5,154C 279.824,156.669 265.158,159.335 250.5,162C 249.29,163.039 248.29,164.206 247.5,165.5C 246.62,162.575 246.953,159.575 248.5,156.5C 253.73,155.03 259.063,154.363 264.5,154.5C 272.438,153.011 280.438,151.844 288.5,151C 291.501,150.262 294.168,149.096 296.5,147.5C 298.216,145.975 300.216,144.975 302.5,144.5 Z"/></g>
<g><path style="opacity:0.996" fill="#334a2f" d="M 296.5,147.5 C 294.168,149.096 291.501,150.262 288.5,151C 280.438,151.844 272.438,153.011 264.5,154.5C 275.01,151.845 285.677,149.512 296.5,147.5 Z"/></g>
<g><path style="opacity:0.996" fill="#424341" d="M 191.5,157.5 C 192.922,157.709 194.255,158.209 195.5,159C 207.848,159.649 220.181,159.482 232.5,158.5C 232.405,160.786 231.738,162.786 230.5,164.5C 218.879,165.624 207.213,165.791 195.5,165C 193.188,163.686 191.188,162.019 189.5,160C 189.639,158.699 190.305,157.866 191.5,157.5 Z"/></g>
<g><path style="opacity:0.337" fill="#cbc9c6" d="M 418.5,150.5 C 420.595,154.163 422.095,158.163 423,162.5C 424.515,170.548 426.015,178.548 427.5,186.5C 425.805,184.268 424.638,181.601 424,178.5C 422.582,169.064 420.748,159.731 418.5,150.5 Z"/></g>
<g><path style="opacity:0.996" fill="#3e433d" d="M 289.5,198.5 C 289.5,200.167 289.5,201.833 289.5,203.5C 285.143,203.586 280.81,203.92 276.5,204.5C 266.794,194.295 256.294,184.962 245,176.5C 242.072,178.678 240.406,181.678 240,185.5C 233.509,196.16 225.009,204.494 214.5,210.5C 209.68,211.487 204.68,212.153 199.5,212.5C 199.833,211.833 200.167,211.167 200.5,210.5C 215.25,206.217 227.083,197.883 236,185.5C 238.798,180.214 241.798,175.214 245,170.5C 256.917,179.579 268.083,189.579 278.5,200.5C 282.69,202.238 286.357,201.571 289.5,198.5 Z"/></g>
<g><path style="opacity:0.463" fill="#d3d2cd" d="M 50.5,166.5 C 47.4382,175.628 43.1048,183.961 37.5,191.5C 41.2741,182.82 45.6074,174.486 50.5,166.5 Z"/></g>
<g><path style="opacity:0.996" fill="#94928b" d="M 276.5,204.5 C 255.936,207.427 235.269,209.427 214.5,210.5C 225.009,204.494 233.509,196.16 240,185.5C 240.406,181.678 242.072,178.678 245,176.5C 256.294,184.962 266.794,194.295 276.5,204.5 Z"/></g>
<g><path style="opacity:0.996" fill="#316e22" d="M 365.5,211.5 C 363.315,213.762 360.648,215.262 357.5,216C 343.728,215.39 329.894,214.89 316,214.5C 302.108,214.382 288.275,215.216 274.5,217C 276.466,219.144 278.8,220.644 281.5,221.5C 284.144,223.969 286.977,226.302 290,228.5C 290.337,262.838 290.837,297.171 291.5,331.5C 290.31,337.565 288.477,343.565 286,349.5C 282.833,354.5 279.667,359.5 276.5,364.5C 274.368,366.813 271.868,368.48 269,369.5C 267.289,369.561 265.956,368.894 265,367.5C 257.472,355.47 248.639,344.47 238.5,334.5C 236.615,332.947 235.615,330.947 235.5,328.5C 244.477,330.661 253.477,332.661 262.5,334.5C 266.363,335.15 269.196,333.817 271,330.5C 272.244,324.889 273.244,319.222 274,313.5C 274.81,292.79 274.643,272.123 273.5,251.5C 273.541,243.743 272.708,236.077 271,228.5C 270.564,225.602 269.397,223.269 267.5,221.5C 267.672,220.508 267.338,219.842 266.5,219.5C 263.062,218.177 259.229,217.51 255,217.5C 243.707,218.595 232.541,219.595 221.5,220.5C 195.406,223.602 169.406,227.602 143.5,232.5C 140.076,232.518 136.743,232.018 133.5,231C 130.314,228.884 126.98,227.05 123.5,225.5C 122.067,223.442 121.4,221.108 121.5,218.5C 147.691,216.978 173.691,214.978 199.5,212.5C 204.68,212.153 209.68,211.487 214.5,210.5C 235.269,209.427 255.936,207.427 276.5,204.5C 280.81,203.92 285.143,203.586 289.5,203.5C 303.408,200.861 317.408,198.695 331.5,197C 343.705,195.301 354.705,198.134 364.5,205.5C 365.466,207.396 365.799,209.396 365.5,211.5 Z"/></g>
<g><path style="opacity:0.122" fill="#d7d6d4" d="M 37.5,192.5 C 36.8342,200.814 36.3342,209.147 36,217.5C 34.871,219.141 33.371,220.141 31.5,220.5C 32.4577,219.038 33.6244,217.705 35,216.5C 35.3333,209.167 35.6667,201.833 36,194.5C 36.2784,193.584 36.7784,192.918 37.5,192.5 Z"/></g>
<g><path style="opacity:0.369" fill="#cbcac7" d="M 427.5,187.5 C 427.469,200.546 428.136,213.546 429.5,226.5C 427.989,224.524 427.156,222.191 427,219.5C 426.175,208.659 426.341,197.992 427.5,187.5 Z"/></g>
<g><path style="opacity:0.996" fill="#3e413d" d="M 365.5,211.5 C 365.978,217.863 362.978,221.363 356.5,222C 343.764,221.071 330.931,220.571 318,220.5C 305.827,220.708 293.66,221.041 281.5,221.5C 278.8,220.644 276.466,219.144 274.5,217C 288.275,215.216 302.108,214.382 316,214.5C 329.894,214.89 343.728,215.39 357.5,216C 360.648,215.262 363.315,213.762 365.5,211.5 Z"/></g>
<g><path style="opacity:0.996" fill="#334930" d="M 266.5,219.5 C 263.585,218.878 260.585,218.544 257.5,218.5C 245.551,220.021 233.551,220.688 221.5,220.5C 232.541,219.595 243.707,218.595 255,217.5C 259.229,217.51 263.062,218.177 266.5,219.5 Z"/></g>
<g><path style="opacity:0.996" fill="#3d3f3c" d="M 266.5,219.5 C 267.338,219.842 267.672,220.508 267.5,221.5C 264.5,222.167 261.5,222.833 258.5,223.5C 220.169,225.702 182.169,230.368 144.5,237.5C 135.669,237.663 128.169,234.663 122,228.5C 121.275,226.843 121.775,225.843 123.5,225.5C 126.98,227.05 130.314,228.884 133.5,231C 136.743,232.018 140.076,232.518 143.5,232.5C 169.406,227.602 195.406,223.602 221.5,220.5C 233.551,220.688 245.551,220.021 257.5,218.5C 260.585,218.544 263.585,218.878 266.5,219.5 Z"/></g>
<g><path style="opacity:0.996" fill="#4e594a" d="M 267.5,221.5 C 269.397,223.269 270.564,225.602 271,228.5C 272.708,236.077 273.541,243.743 273.5,251.5C 272.628,242.32 270.461,233.32 267,224.5C 264.281,223.556 261.448,223.223 258.5,223.5C 261.5,222.833 264.5,222.167 267.5,221.5 Z"/></g>
<g><path style="opacity:0.996" fill="#316e22" d="M 252.5,256.5 C 248.009,259.765 244.176,263.765 241,268.5C 239.524,271.265 239.357,273.932 240.5,276.5C 242.417,279.728 242.751,283.062 241.5,286.5C 232.613,288.103 223.613,289.103 214.5,289.5C 208.434,289.842 202.434,290.675 196.5,292C 194.771,293.789 194.104,295.956 194.5,298.5C 194.5,299.5 194.5,300.5 194.5,301.5C 193.207,302.842 192.374,304.509 192,306.5C 190,309.167 188,309.167 186,306.5C 184.541,304.568 183.375,302.568 182.5,300.5C 181.924,291.15 181.091,281.817 180,272.5C 179.023,270.294 177.857,268.294 176.5,266.5C 176.652,261.066 174.985,256.399 171.5,252.5C 170.659,250.621 170.325,248.621 170.5,246.5C 174.963,246.423 179.296,247.09 183.5,248.5C 183.611,249.117 183.944,249.617 184.5,250C 192.833,250.667 201.167,250.667 209.5,250C 211.974,249.963 213.974,249.13 215.5,247.5C 217.482,247.005 219.482,246.505 221.5,246C 225.716,241.928 230.716,240.261 236.5,241C 241.404,242.785 246.071,245.119 250.5,248C 253.605,250.254 254.272,253.087 252.5,256.5 Z"/></g>
<g><path style="opacity:0.345" fill="#cecdcc" d="M 33.5,226.5 C 30.7656,234.334 32.0989,241.5 37.5,248C 36.944,248.383 36.6107,248.883 36.5,249.5C 35.612,252.054 35.2786,254.721 35.5,257.5C 35.5,258.5 35.5,259.5 35.5,260.5C 34.1024,259.223 33.4357,257.557 33.5,255.5C 33.8595,252.921 34.5262,250.421 35.5,248C 30.6196,241.786 29.453,234.952 32,227.5C 32.3826,226.944 32.8826,226.611 33.5,226.5 Z"/></g>
<g><path style="opacity:0.043" fill="#d7d6d4" d="M 432.5,233.5 C 438.361,239.256 440.528,246.256 439,254.5C 438.028,256.305 436.861,257.972 435.5,259.5C 436.313,260.814 437.313,261.981 438.5,263C 436.859,264.129 435.859,265.629 435.5,267.5C 434.201,265.847 434.534,264.347 436.5,263C 433.825,259.492 434.325,256.325 438,253.5C 438.167,252.167 438.333,250.833 438.5,249.5C 436.877,244.055 434.877,238.721 432.5,233.5 Z"/></g>
<g><path style="opacity:0.996" fill="#66855d" d="M 215.5,247.5 C 213.974,249.13 211.974,249.963 209.5,250C 201.167,250.667 192.833,250.667 184.5,250C 183.944,249.617 183.611,249.117 183.5,248.5C 194.206,249.943 204.872,249.61 215.5,247.5 Z"/></g>
<g><path style="opacity:0.995" fill="#181817" d="M 36.5,249.5 C 37.3764,249.369 38.0431,249.702 38.5,250.5C 42.7453,257.445 44.0786,264.779 42.5,272.5C 41.3995,271.395 40.7329,270.062 40.5,268.5C 38.2475,265.066 36.5808,261.399 35.5,257.5C 35.2786,254.721 35.612,252.054 36.5,249.5 Z"/></g>
<g><path style="opacity:0.996" fill="#3f493d" d="M 171.5,252.5 C 174.985,256.399 176.652,261.066 176.5,266.5C 174.665,262.667 172.665,258.834 170.5,255C 170.528,253.93 170.861,253.097 171.5,252.5 Z"/></g>
<g><path style="opacity:0.996" fill="#3c3e3b" d="M 226.5,263.5 C 226.167,263.5 225.833,263.5 225.5,263.5C 214.797,262.184 204.13,262.517 193.5,264.5C 192.539,262.735 192.205,260.735 192.5,258.5C 203.813,257.674 215.146,257.34 226.5,257.5C 226.5,259.5 226.5,261.5 226.5,263.5 Z"/></g>
<g><path style="opacity:0.996" fill="#3d433b" d="M 252.5,256.5 C 252.66,258.199 252.494,259.866 252,261.5C 246.777,265.541 242.943,270.541 240.5,276.5C 239.357,273.932 239.524,271.265 241,268.5C 244.176,263.765 248.009,259.765 252.5,256.5 Z"/></g>
<g><path style="opacity:0.996" fill="#6a6865" d="M 225.5,263.5 C 214.823,263.567 204.156,263.901 193.5,264.5C 204.13,262.517 214.797,262.184 225.5,263.5 Z"/></g>
<g><path style="opacity:0.035" fill="#8d8d8d" d="M 35.5,257.5 C 36.5808,261.399 38.2475,265.066 40.5,268.5C 39.8333,268.167 39.1667,267.833 38.5,267.5C 36.1824,265.815 35.1824,263.481 35.5,260.5C 35.5,259.5 35.5,258.5 35.5,257.5 Z"/></g>
<g><path style="opacity:0.996" fill="#94938b" d="M 225.5,263.5 C 225.833,263.5 226.167,263.5 226.5,263.5C 226.306,268.918 224.639,273.751 221.5,278C 212.83,281.301 203.83,283.134 194.5,283.5C 194.1,277.171 193.767,270.838 193.5,264.5C 204.156,263.901 214.823,263.567 225.5,263.5 Z"/></g>
<g><path style="opacity:0.276" fill="#dad9d7" d="M 38.5,267.5 C 39.1667,267.833 39.8333,268.167 40.5,268.5C 40.7329,270.062 41.3995,271.395 42.5,272.5C 43.3334,285.49 44.3334,298.49 45.5,311.5C 43.3573,301.087 42.1907,290.421 42,279.5C 41.6894,275.222 40.5227,271.222 38.5,267.5 Z"/></g>
<g><path style="opacity:0.996" fill="#3c3e3b" d="M 241.5,286.5 C 242.927,289.129 242.261,291.295 239.5,293C 224.757,293.886 210.091,295.386 195.5,297.5C 196.212,294.4 198.212,292.566 201.5,292C 206.076,291.728 210.409,290.895 214.5,289.5C 223.613,289.103 232.613,288.103 241.5,286.5 Z"/></g>
<g><path style="opacity:0.069" fill="#d8d8d5" d="M 435.5,275.5 C 433.743,286.269 432.077,296.935 430.5,307.5C 430.334,302.489 430.501,297.489 431,292.5C 432.534,286.604 434.034,280.937 435.5,275.5 Z"/></g>
<g><path style="opacity:0.996" fill="#31512c" d="M 214.5,289.5 C 210.409,290.895 206.076,291.728 201.5,292C 198.212,292.566 196.212,294.4 195.5,297.5C 195.5,298.167 195.167,298.5 194.5,298.5C 194.104,295.956 194.771,293.789 196.5,292C 202.434,290.675 208.434,289.842 214.5,289.5 Z"/></g>
<g><path style="opacity:0.996" fill="#707669" d="M 176.5,266.5 C 177.857,268.294 179.023,270.294 180,272.5C 181.091,281.817 181.924,291.15 182.5,300.5C 181.224,298.438 180.39,296.104 180,293.5C 179.481,284.391 178.314,275.391 176.5,266.5 Z"/></g>
<g><path style="opacity:0.996" fill="#070707" d="M 289.5,438.5 C 279.387,436.574 269.053,436.074 258.5,437C 257.944,437.383 257.611,437.883 257.5,438.5C 255.5,438.5 253.5,438.5 251.5,438.5C 239.911,440.352 228.578,439.352 217.5,435.5C 211.132,438.232 204.799,440.899 198.5,443.5C 195.282,444.954 191.782,445.621 188,445.5C 183.1,445.232 178.267,444.566 173.5,443.5C 173.423,442.25 172.756,441.417 171.5,441C 166.452,439.042 161.452,437.209 156.5,435.5C 154.421,433.127 151.754,431.794 148.5,431.5C 146.349,428.585 143.349,426.918 139.5,426.5C 137.621,423.742 134.954,422.075 131.5,421.5C 130.952,418.916 129.285,417.916 126.5,418.5C 126.5,417.167 125.833,416.5 124.5,416.5C 118.851,412.012 114.017,406.679 110,400.5C 110.643,394.784 108.143,391.617 102.5,391C 99.1832,390.502 95.8499,390.335 92.5,390.5C 92.7989,388.396 92.4656,386.396 91.5,384.5C 89.802,385.681 88.1353,385.681 86.5,384.5C 85.7012,380.525 83.3679,378.192 79.5,377.5C 78.7101,376.206 77.7101,375.039 76.5,374C 73.3333,372.311 70.3333,370.478 67.5,368.5C 66.0583,365.306 63.8917,362.639 61,360.5C 60.3486,358.765 60.5153,357.098 61.5,355.5C 59.8273,353.914 57.8273,353.247 55.5,353.5C 55.5,353.167 55.5,352.833 55.5,352.5C 53.1343,345.622 51.6343,338.622 51,331.5C 53.164,333.148 55.3306,334.815 57.5,336.5C 56.5153,338.098 56.3486,339.765 57,341.5C 63.6395,348.477 71.1395,354.31 79.5,359C 81.1667,361.333 82.8333,363.667 84.5,366C 86.1341,366.494 87.8008,366.66 89.5,366.5C 89.2865,368.144 89.6198,369.644 90.5,371C 96.4182,371.117 102.085,372.284 107.5,374.5C 107.335,377.518 107.502,380.518 108,383.5C 111.131,387.633 114.631,391.466 118.5,395C 135.911,407.377 154.577,417.71 174.5,426C 180.776,427.424 187.109,427.758 193.5,427C 200.019,424.786 206.352,422.12 212.5,419C 215.146,418.503 217.813,418.336 220.5,418.5C 222.811,420.068 225.478,420.902 228.5,421C 236.012,421.822 243.345,421.655 250.5,420.5C 262.486,419.524 274.486,419.358 286.5,420C 295.888,424.316 304.388,423.149 312,416.5C 313.897,419.38 316.397,420.047 319.5,418.5C 323.019,414.148 327.019,410.314 331.5,407C 345.675,397.413 359.675,387.579 373.5,377.5C 380.711,371.123 387.378,364.29 393.5,357C 396.014,355.748 398.68,355.248 401.5,355.5C 401.704,349.418 403.871,344.084 408,339.5C 413.943,324.947 420.943,310.947 429,297.5C 429.667,300.5 429.667,303.5 429,306.5C 426.82,313.351 424.154,320.018 421,326.5C 414.069,338.696 407.402,351.03 401,363.5C 399.314,366.981 398.481,370.648 398.5,374.5C 395.518,374.104 392.851,374.771 390.5,376.5C 375.073,393.424 357.406,407.59 337.5,419C 330.601,423.963 324.268,429.63 318.5,436C 315.563,436.361 312.73,435.861 310,434.5C 308.382,436.783 306.215,438.283 303.5,439C 298.78,439.717 294.114,439.55 289.5,438.5 Z"/></g>
<g><path style="opacity:0.996" fill="#464944" d="M 182.5,300.5 C 183.375,302.568 184.541,304.568 186,306.5C 188,309.167 190,309.167 192,306.5C 192.374,304.509 193.207,302.842 194.5,301.5C 194.232,304.74 193.566,307.906 192.5,311C 188.473,314.783 185.64,313.949 184,308.5C 183.178,305.883 182.678,303.216 182.5,300.5 Z"/></g>
<g><path style="opacity:0.422" fill="#dddcd9" d="M 45.5,312.5 C 47.4023,315.337 48.069,318.671 47.5,322.5C 45.9886,319.456 45.322,316.122 45.5,312.5 Z"/></g>
<g><path style="opacity:0.078" fill="#939393" d="M 55.5,353.5 C 57.8273,353.247 59.8273,353.914 61.5,355.5C 60.5153,357.098 60.3486,358.765 61,360.5C 63.8917,362.639 66.0583,365.306 67.5,368.5C 63.1199,366.451 60.1199,363.118 58.5,358.5C 58.6082,357.558 58.9415,356.725 59.5,356C 57.9336,355.392 56.6002,354.558 55.5,353.5 Z"/></g>
<g><path style="opacity:0.996" fill="#3f443e" d="M 291.5,331.5 C 291.229,340.483 289.396,349.15 286,357.5C 282.525,361.104 279.525,365.104 277,369.5C 273.78,374.472 269.78,375.472 265,372.5C 256.842,359.667 247.175,348 236,337.5C 235.517,336.552 235.351,335.552 235.5,334.5C 236.5,334.5 237.5,334.5 238.5,334.5C 248.639,344.47 257.472,355.47 265,367.5C 265.956,368.894 267.289,369.561 269,369.5C 271.868,368.48 274.368,366.813 276.5,364.5C 279.667,359.5 282.833,354.5 286,349.5C 288.477,343.565 290.31,337.565 291.5,331.5 Z"/></g>
<g><path style="opacity:0.227" fill="#a1a1a1" d="M 67.5,368.5 C 70.3333,370.478 73.3333,372.311 76.5,374C 77.7101,375.039 78.7101,376.206 79.5,377.5C 74.7759,375.471 70.7759,372.471 67.5,368.5 Z"/></g>
<g><path style="opacity:0.188" fill="#a4a4a4" d="M 79.5,377.5 C 83.3679,378.192 85.7012,380.525 86.5,384.5C 88.1353,385.681 89.802,385.681 91.5,384.5C 92.4656,386.396 92.7989,388.396 92.5,390.5C 95.8499,390.335 99.1832,390.502 102.5,391C 108.143,391.617 110.643,394.784 110,400.5C 114.017,406.679 118.851,412.012 124.5,416.5C 114.591,412.095 108.591,404.595 106.5,394C 101.692,392.107 96.6918,391.273 91.5,391.5C 91.5,390.167 91.5,388.833 91.5,387.5C 89.8008,387.66 88.1341,387.494 86.5,387C 84.5235,383.537 82.1902,380.37 79.5,377.5 Z"/></g>
<g><path style="opacity:0.059" fill="#b6b6b6" d="M 124.5,416.5 C 125.833,416.5 126.5,417.167 126.5,418.5C 125.167,418.5 124.5,417.833 124.5,416.5 Z"/></g>
<g><path style="opacity:0.663" fill="#7c7c7c" d="M 126.5,418.5 C 129.285,417.916 130.952,418.916 131.5,421.5C 129.326,421.25 127.659,420.25 126.5,418.5 Z"/></g>
<g><path style="opacity:0.996" fill="#676460" d="M 220.5,418.5 C 230.419,420.163 240.419,420.83 250.5,420.5C 243.345,421.655 236.012,421.822 228.5,421C 225.478,420.902 222.811,420.068 220.5,418.5 Z"/></g>
<g><path style="opacity:0.443" fill="#8a8a8a" d="M 131.5,421.5 C 134.954,422.075 137.621,423.742 139.5,426.5C 136.329,425.564 133.662,423.897 131.5,421.5 Z"/></g>
<g><path style="opacity:0.196" fill="#909090" d="M 139.5,426.5 C 143.349,426.918 146.349,428.585 148.5,431.5C 145.008,430.59 142.008,428.924 139.5,426.5 Z"/></g>
<g><path style="opacity:0.02" fill="#b4b4b4" d="M 148.5,431.5 C 151.754,431.794 154.421,433.127 156.5,435.5C 153.515,434.674 150.849,433.341 148.5,431.5 Z"/></g>
<g><path style="opacity:0.73" fill="#545454" d="M 289.5,438.5 C 286.5,438.5 283.5,438.5 280.5,438.5C 280.167,438.5 279.833,438.5 279.5,438.5C 272.327,437.456 264.994,437.456 257.5,438.5C 257.611,437.883 257.944,437.383 258.5,437C 269.053,436.074 279.387,436.574 289.5,438.5 Z"/></g>
<g><path style="opacity:0.069" fill="#dcdcdc" d="M 279.5,438.5 C 270.112,438.506 260.779,439.172 251.5,440.5C 251.5,439.833 251.5,439.167 251.5,438.5C 253.5,438.5 255.5,438.5 257.5,438.5C 264.994,437.456 272.327,437.456 279.5,438.5 Z"/></g>
<g><path style="opacity:0.094" fill="#a2a2a2" d="M 156.5,435.5 C 161.452,437.209 166.452,439.042 171.5,441C 172.756,441.417 173.423,442.25 173.5,443.5C 167.413,441.589 161.747,438.923 156.5,435.5 Z"/></g>
<g><path style="opacity:0.125" fill="#919191" d="M 251.5,438.5 C 251.5,439.167 251.5,439.833 251.5,440.5C 242.827,440.666 234.16,440.5 225.5,440C 223.04,439.019 220.54,438.185 218,437.5C 213.931,439.466 209.764,441.133 205.5,442.5C 203.194,442.993 200.861,443.326 198.5,443.5C 204.799,440.899 211.132,438.232 217.5,435.5C 228.578,439.352 239.911,440.352 251.5,438.5 Z"/></g>
<g><path style="opacity:0.02" fill="#d0d0d0" d="M 205.5,442.5 C 200.127,445.299 194.293,446.633 188,446.5C 182.773,446.813 177.939,445.813 173.5,443.5C 178.267,444.566 183.1,445.232 188,445.5C 191.782,445.621 195.282,444.954 198.5,443.5C 200.861,443.326 203.194,442.993 205.5,442.5 Z"/></g>
</svg>
