<?xml version="1.0" encoding="UTF-8"?>
<!DOCTYPE svg PUBLIC "-//W3C//DTD SVG 1.1//EN" "http://www.w3.org/Graphics/SVG/1.1/DTD/svg11.dtd">
<svg xmlns="http://www.w3.org/2000/svg" version="1.1" width="467px" height="467px" style="shape-rendering:geometricPrecision; text-rendering:geometricPrecision; image-rendering:optimizeQuality; fill-rule:evenodd; clip-rule:evenodd" xmlns:xlink="http://www.w3.org/1999/xlink">
<g><path style="opacity:0.996" fill="#97948e" d="M 302.5,62.5 C 302.369,63.3764 302.702,64.0431 303.5,64.5C 314.158,68.9853 324.492,74.1519 334.5,80C 335.793,80.49 337.127,80.6567 338.5,80.5C 344.24,86.2093 350.573,91.2093 357.5,95.5C 362.33,98.8215 364.83,103.488 365,109.5C 366.444,111.155 368.278,111.822 370.5,111.5C 370.577,112.75 371.244,113.583 372.5,114C 374.833,114.333 377.167,114.667 379.5,115C 380.337,116.011 380.67,117.178 380.5,118.5C 382.621,118.325 384.621,118.659 386.5,119.5C 391.563,125.196 397.229,130.196 403.5,134.5C 406.435,137.938 409.601,141.271 413,144.5C 413.684,146.479 413.184,148.146 411.5,149.5C 413.113,150.427 414.779,151.261 416.5,152C 417.818,154.824 419.485,157.324 421.5,159.5C 422.804,163.36 423.471,167.36 423.5,171.5C 425.763,188.071 426.929,204.737 427,221.5C 427.21,223.058 427.71,224.391 428.5,225.5C 431.332,231.547 434.499,237.547 438,243.5C 438.815,248.352 438.648,253.019 437.5,257.5C 432.94,258.814 432.273,261.314 435.5,265C 434.586,275.664 432.919,286.164 430.5,296.5C 430.666,301.844 430.499,307.177 430,312.5C 425.151,323.582 419.651,334.249 413.5,344.5C 414.367,341.092 415.533,337.758 417,334.5C 420.922,327.658 424.588,320.658 428,313.5C 429.418,308.572 429.751,303.572 429,298.5C 421.038,313.755 413.038,329.088 405,344.5C 403.025,348.963 402.192,353.629 402.5,358.5C 400.94,358.481 399.44,358.148 398,357.5C 396.5,358 395,358.5 393.5,359C 387.167,366.667 380.167,373.667 372.5,380C 359.521,388.97 346.521,397.97 333.5,407C 328.351,410.982 323.685,415.482 319.5,420.5C 317.926,421.631 316.259,421.798 314.5,421C 313.845,419.513 312.845,418.347 311.5,417.5C 309.976,419.858 307.976,421.691 305.5,423C 301.514,423.499 297.514,423.666 293.5,423.5C 289.46,421.883 285.127,421.05 280.5,421C 273.321,420.179 266.321,420.345 259.5,421.5C 256.609,422.403 253.609,422.736 250.5,422.5C 240.419,422.83 230.419,422.163 220.5,420.5C 211.152,422.227 202.152,425.06 193.5,429C 187.109,429.758 180.776,429.424 174.5,428C 157.902,420.702 141.902,412.369 126.5,403C 120.407,398.911 114.907,394.078 110,388.5C 107.619,384.86 106.119,380.86 105.5,376.5C 100.799,374.142 95.7986,372.975 90.5,373C 89.6198,371.644 89.2865,370.144 89.5,368.5C 87.8008,368.66 86.1341,368.494 84.5,368C 82.8333,365.667 81.1667,363.333 79.5,361C 71.1395,356.31 63.6395,350.477 57,343.5C 56.3486,341.765 56.5153,340.098 57.5,338.5C 54.1064,336.271 51.6064,333.271 50,329.5C 49.5172,330.448 49.3505,331.448 49.5,332.5C 48.6303,327.841 47.9636,323.008 47.5,318C 47.3917,316.319 46.7251,315.152 45.5,314.5C 44.2682,301.867 43.4349,289.2 43,276.5C 42.3448,274.372 41.5114,272.372 40.5,270.5C 41.1174,270.611 41.6174,270.944 42,271.5C 43.3067,264.651 42.14,258.317 38.5,252.5C 38.0431,251.702 37.3764,251.369 36.5,251.5C 36.6107,250.883 36.944,250.383 37.5,250C 32.5884,243.938 30.9217,237.105 32.5,229.5C 37.7125,228.697 38.7125,226.197 35.5,222C 36.7714,213.682 36.7714,205.515 35.5,197.5C 35.5,196.833 35.8333,196.5 36.5,196.5C 37.8846,195.426 39.0513,194.093 40,192.5C 45.0821,180.951 50.7488,169.618 57,158.5C 57.49,157.207 57.6567,155.873 57.5,154.5C 58.4208,150.701 60.0875,147.368 62.5,144.5C 64.8233,142.314 66.6566,139.647 68,136.5C 68.4966,134.19 68.6633,131.857 68.5,129.5C 70.4147,129.784 72.0813,129.451 73.5,128.5C 80.6353,120.532 88.3019,113.032 96.5,106C 105.879,98.9842 115.546,92.4842 125.5,86.5C 126.978,86.762 128.311,86.4287 129.5,85.5C 133.985,82.2755 137.985,78.6088 141.5,74.5C 144.899,72.6117 147.899,70.1117 150.5,67C 152.847,66.6664 155.181,66.833 157.5,67.5C 157.56,68.0431 157.893,68.3764 158.5,68.5C 162.006,65.2763 166.173,63.9429 171,64.5C 179.894,66.2522 188.894,67.2522 198,67.5C 213.187,65.9526 228.354,64.6193 243.5,63.5C 243.833,63.5 244.167,63.5 244.5,63.5C 244.369,64.3764 244.702,65.0431 245.5,65.5C 252.011,68.6936 257.678,67.6936 262.5,62.5C 268.067,60.7557 273.734,59.4224 279.5,58.5C 287.419,58.9436 295.085,60.2769 302.5,62.5 Z"/></g>
<g><path style="opacity:0.22" fill="#c8c6c3" d="M 302.5,62.5 C 295.085,60.2769 287.419,58.9436 279.5,58.5C 273.734,59.4224 268.067,60.7557 262.5,62.5C 272.059,56.6953 282.393,55.1953 293.5,58C 296.859,59.0465 299.859,60.5465 302.5,62.5 Z"/></g>
<g><path style="opacity:0.329" fill="#d6d5d3" d="M 157.5,67.5 C 155.181,66.833 152.847,66.6664 150.5,67C 147.899,70.1117 144.899,72.6117 141.5,74.5C 144.296,71.2026 147.296,68.0359 150.5,65C 153.339,64.5565 155.672,65.3898 157.5,67.5 Z"/></g>
<g><path style="opacity:0.938" fill="#b0aea9" d="M 243.5,63.5 C 228.354,64.6193 213.187,65.9526 198,67.5C 188.894,67.2522 179.894,66.2522 171,64.5C 166.173,63.9429 162.006,65.2763 158.5,68.5C 157.893,68.3764 157.56,68.0431 157.5,67.5C 160.931,64.0728 165.098,62.0728 170,61.5C 178.728,63.2794 187.561,64.6128 196.5,65.5C 212.118,63.814 227.785,63.1473 243.5,63.5 Z"/></g>
<g><path style="opacity:0.2" fill="#d1cfcc" d="M 262.5,62.5 C 257.678,67.6936 252.011,68.6936 245.5,65.5C 244.702,65.0431 244.369,64.3764 244.5,63.5C 247.138,64.4916 249.805,65.4916 252.5,66.5C 255.629,64.6001 258.963,63.2667 262.5,62.5 Z"/></g>
<g><path style="opacity:0.396" fill="#d1cfcc" d="M 302.5,62.5 C 315.097,67.4649 327.097,73.4649 338.5,80.5C 337.127,80.6567 335.793,80.49 334.5,80C 324.492,74.1519 314.158,68.9853 303.5,64.5C 302.702,64.0431 302.369,63.3764 302.5,62.5 Z"/></g>
<g><path style="opacity:0.231" fill="#cfcecb" d="M 141.5,74.5 C 137.985,78.6088 133.985,82.2755 129.5,85.5C 128.311,86.4287 126.978,86.762 125.5,86.5C 130.437,82.025 135.77,78.025 141.5,74.5 Z"/></g>
<g><path style="opacity:0.671" fill="#d3d2cf" d="M 338.5,80.5 C 345.744,84.4185 352.078,89.4185 357.5,95.5C 350.573,91.2093 344.24,86.2093 338.5,80.5 Z"/></g>
<g><path style="opacity:0.357" fill="#d5d3d1" d="M 370.5,111.5 C 374.101,112.349 377.768,113.016 381.5,113.5C 381.105,116.523 382.105,117.523 384.5,116.5C 385.919,117.005 386.585,118.005 386.5,119.5C 384.621,118.659 382.621,118.325 380.5,118.5C 380.67,117.178 380.337,116.011 379.5,115C 377.167,114.667 374.833,114.333 372.5,114C 371.244,113.583 370.577,112.75 370.5,111.5 Z"/></g>
<g><path style="opacity:0.996" fill="#326e23" d="M 294.5,131.5 C 288.912,136.081 284.912,141.748 282.5,148.5C 283.5,148.5 284.5,148.5 285.5,148.5C 300.027,147.7 314.027,144.7 327.5,139.5C 334.02,142.013 339.853,145.68 345,150.5C 345.748,152.84 345.248,154.84 343.5,156.5C 336.874,161.292 331.04,166.959 326,173.5C 318.091,184.747 309.424,195.413 300,205.5C 299.517,206.448 299.351,207.448 299.5,208.5C 300.833,208.5 302.167,208.5 303.5,208.5C 308.016,210.656 312.683,212.823 317.5,215C 318.701,215.903 319.535,217.069 320,218.5C 318.415,224.665 317.249,230.998 316.5,237.5C 321.536,237.698 326.203,236.698 330.5,234.5C 336.525,234.047 342.525,233.38 348.5,232.5C 354.47,232.602 360.136,233.936 365.5,236.5C 367.868,237.872 369.535,239.872 370.5,242.5C 370.058,243.739 369.391,244.739 368.5,245.5C 351.319,246.237 333.985,246.904 316.5,247.5C 316.5,249.5 316.5,251.5 316.5,253.5C 316.686,278.514 317.353,303.514 318.5,328.5C 316.697,334.971 314.697,341.471 312.5,348C 310.539,350.755 308.706,353.589 307,356.5C 304.757,358.282 302.257,358.782 299.5,358C 291.227,346.225 280.893,336.725 268.5,329.5C 266.455,328.077 265.455,326.077 265.5,323.5C 270.333,323.375 275,324.208 279.5,326C 284.833,326.667 290.167,326.667 295.5,326C 299.981,323.939 301.648,320.439 300.5,315.5C 301.447,305.675 302.114,295.675 302.5,285.5C 301.786,275.512 301.453,265.512 301.5,255.5C 301.5,253.5 301.5,251.5 301.5,249.5C 285.063,250.777 268.729,252.777 252.5,255.5C 252.999,258.264 254.665,259.931 257.5,260.5C 263.474,264.309 268.307,269.309 272,275.5C 272.497,277.81 272.663,280.143 272.5,282.5C 272.068,286.193 270.401,289.36 267.5,292C 265.365,292.635 263.365,292.301 261.5,291C 257.284,284.89 253.617,278.557 250.5,272C 249.302,267.111 247.968,262.278 246.5,257.5C 241.504,258.159 236.504,258.826 231.5,259.5C 229.167,259.333 226.833,259.167 224.5,259C 223.347,257.117 221.681,256.284 219.5,256.5C 217.479,255.145 215.812,253.479 214.5,251.5C 215.473,251.013 216.473,250.513 217.5,250C 223.157,249.501 228.824,249.334 234.5,249.5C 233.959,246.348 234.959,243.848 237.5,242C 247.948,235.788 257.614,228.621 266.5,220.5C 268.23,219.974 269.564,218.974 270.5,217.5C 288.399,200.345 303.399,181.012 315.5,159.5C 316.301,157.958 316.634,156.292 316.5,154.5C 303.221,156.577 289.888,157.077 276.5,156C 273.206,159.431 270.539,163.264 268.5,167.5C 269.325,168.386 270.325,168.719 271.5,168.5C 274.949,169.97 278.616,171.136 282.5,172C 284.907,174.285 287.407,176.451 290,178.5C 290.498,181.482 290.665,184.482 290.5,187.5C 288.164,189.391 285.498,189.891 282.5,189C 276.364,183.534 270.197,178.034 264,172.5C 258.029,177.303 252.529,182.637 247.5,188.5C 249.045,189.452 250.712,189.785 252.5,189.5C 259.915,192.071 265.749,196.738 270,203.5C 270.498,206.482 270.665,209.482 270.5,212.5C 267.648,214.792 264.648,214.958 261.5,213C 256.003,205.506 249.836,198.673 243,192.5C 236.961,196.708 230.794,200.708 224.5,204.5C 223.5,204.5 222.5,204.5 221.5,204.5C 221.498,202.169 222.331,200.169 224,198.5C 228.3,195.202 232.3,191.535 236,187.5C 250.519,170.466 262.519,151.799 272,131.5C 272.499,125.843 272.666,120.176 272.5,114.5C 281.512,115.089 289.012,118.756 295,125.5C 295.678,127.598 295.511,129.598 294.5,131.5 Z"/></g>
<g><path style="opacity:0.996" fill="#326e23" d="M 219.5,140.5 C 214.012,156.926 212.012,173.926 213.5,191.5C 213.5,195.5 213.5,199.5 213.5,203.5C 212.662,203.842 212.328,204.508 212.5,205.5C 210.797,251.027 209.13,296.693 207.5,342.5C 205.664,347.632 202.33,348.798 197.5,346C 195.343,342.184 193.343,338.351 191.5,334.5C 190.408,331.895 189.741,329.062 189.5,326C 192.036,318.023 194.036,309.856 195.5,301.5C 196.632,298.372 197.465,295.038 198,291.5C 198.5,282.506 198.666,273.506 198.5,264.5C 198.472,259.138 198.806,253.805 199.5,248.5C 199.5,246.833 199.5,245.167 199.5,243.5C 190.029,244.494 180.696,246.327 171.5,249C 167.615,250.754 167.615,252.587 171.5,254.5C 171.833,255.167 172.167,255.833 172.5,256.5C 171.183,262.438 170.183,268.438 169.5,274.5C 163.663,300.796 148.663,320.129 124.5,332.5C 122.727,331.686 122.227,330.352 123,328.5C 143.07,310.161 153.903,287.494 155.5,260.5C 156.461,258.735 156.795,256.735 156.5,254.5C 152.514,255.329 148.514,256.163 144.5,257C 133.098,264.025 122.764,262.859 113.5,253.5C 113.5,252.833 113.5,252.167 113.5,251.5C 113.5,250.167 113.5,248.833 113.5,247.5C 121.716,247.677 129.716,247.01 137.5,245.5C 158.105,242.276 178.771,238.609 199.5,234.5C 199.5,226.5 199.5,218.5 199.5,210.5C 199.5,208.833 199.5,207.167 199.5,205.5C 192.224,206.043 185.058,207.376 178,209.5C 172.034,210.942 166.867,213.775 162.5,218C 159.5,220 156.5,220 153.5,218C 151.512,214.499 149.178,211.332 146.5,208.5C 145.875,204.416 147.375,201.416 151,199.5C 152.608,196.618 153.941,193.618 155,190.5C 155.821,183.654 155.654,176.987 154.5,170.5C 153.833,165.252 151.166,161.252 146.5,158.5C 143.238,154.516 144.072,152.182 149,151.5C 156.712,152.857 163.712,155.857 170,160.5C 171.879,163.8 171.879,167.134 170,170.5C 168.946,180.474 168.446,190.474 168.5,200.5C 178.613,197.905 188.946,196.571 199.5,196.5C 199.5,179.833 199.5,163.167 199.5,146.5C 200.061,139.219 197.728,133.219 192.5,128.5C 191.189,126.44 191.189,124.274 192.5,122C 202.76,122.376 211.594,126.21 219,133.5C 219.497,135.81 219.663,138.143 219.5,140.5 Z"/></g>
<g><path style="opacity:0.267" fill="#d4d3d0" d="M 73.5,128.5 C 72.0813,129.451 70.4147,129.784 68.5,129.5C 68.6633,131.857 68.4966,134.19 68,136.5C 66.6566,139.647 64.8233,142.314 62.5,144.5C 64.2581,141.068 65.9247,137.568 67.5,134C 66.6705,132.535 66.5038,131.035 67,129.5C 69.0408,128.577 71.2075,128.244 73.5,128.5 Z"/></g>
<g><path style="opacity:0.996" fill="#3c433b" d="M 294.5,131.5 C 294.66,133.199 294.494,134.866 294,136.5C 290.533,140.12 287.7,144.12 285.5,148.5C 284.5,148.5 283.5,148.5 282.5,148.5C 284.912,141.748 288.912,136.081 294.5,131.5 Z"/></g>
<g><path style="opacity:0.208" fill="#dcdad6" d="M 403.5,134.5 C 409.744,137.74 413.744,142.74 415.5,149.5C 418.744,152.08 420.744,155.413 421.5,159.5C 419.485,157.324 417.818,154.824 416.5,152C 414.779,151.261 413.113,150.427 411.5,149.5C 413.184,148.146 413.684,146.479 413,144.5C 409.601,141.271 406.435,137.938 403.5,134.5 Z"/></g>
<g><path style="opacity:0.996" fill="#3b5137" d="M 192.5,128.5 C 197.728,133.219 200.061,139.219 199.5,146.5C 197.634,142.104 195.467,137.771 193,133.5C 192.506,131.866 192.34,130.199 192.5,128.5 Z"/></g>
<g><path style="opacity:0.996" fill="#3a3f39" d="M 315.5,159.5 C 312.273,159.676 309.273,160.343 306.5,161.5C 296.161,161.334 285.828,161.5 275.5,162C 273.942,164.052 272.608,166.219 271.5,168.5C 270.325,168.719 269.325,168.386 268.5,167.5C 270.539,163.264 273.206,159.431 276.5,156C 289.888,157.077 303.221,156.577 316.5,154.5C 316.634,156.292 316.301,157.958 315.5,159.5 Z"/></g>
<g><path style="opacity:0.996" fill="#3f443e" d="M 146.5,158.5 C 151.166,161.252 153.833,165.252 154.5,170.5C 154.657,171.873 154.49,173.207 154,174.5C 152.831,170.335 150.498,167.001 147,164.5C 145.458,162.435 145.291,160.435 146.5,158.5 Z"/></g>
<g><path style="opacity:0.147" fill="#d0cdc9" d="M 57.5,154.5 C 57.6567,155.873 57.49,157.207 57,158.5C 50.7488,169.618 45.0821,180.951 40,192.5C 39.0513,194.093 37.8846,195.426 36.5,196.5C 37.7019,192.422 39.2019,188.422 41,184.5C 46.397,174.314 51.897,164.314 57.5,154.5 Z"/></g>
<g><path style="opacity:0.996" fill="#6c6b67" d="M 306.5,161.5 C 301.568,162.888 296.401,163.555 291,163.5C 286.147,163.096 281.313,162.93 276.5,163C 275.285,165.375 273.619,167.209 271.5,168.5C 272.608,166.219 273.942,164.052 275.5,162C 285.828,161.5 296.161,161.334 306.5,161.5 Z"/></g>
<g><path style="opacity:0.996" fill="#3e423d" d="M 290.5,187.5 C 291.173,193.662 288.506,196.162 282.5,195C 276.289,189.284 269.956,183.784 263.5,178.5C 259.506,181.827 255.839,185.494 252.5,189.5C 250.712,189.785 249.045,189.452 247.5,188.5C 252.529,182.637 258.029,177.303 264,172.5C 270.197,178.034 276.364,183.534 282.5,189C 285.498,189.891 288.164,189.391 290.5,187.5 Z"/></g>
<g><path style="opacity:0.996" fill="#536e4c" d="M 219.5,140.5 C 216.087,157.46 214.087,174.46 213.5,191.5C 212.012,173.926 214.012,156.926 219.5,140.5 Z"/></g>
<g><path style="opacity:0.996" fill="#93928a" d="M 315.5,159.5 C 303.399,181.012 288.399,200.345 270.5,217.5C 270.5,215.833 270.5,214.167 270.5,212.5C 270.665,209.482 270.498,206.482 270,203.5C 265.749,196.738 259.915,192.071 252.5,189.5C 255.839,185.494 259.506,181.827 263.5,178.5C 269.956,183.784 276.289,189.284 282.5,195C 288.506,196.162 291.173,193.662 290.5,187.5C 290.665,184.482 290.498,181.482 290,178.5C 287.407,176.451 284.907,174.285 282.5,172C 278.616,171.136 274.949,169.97 271.5,168.5C 273.619,167.209 275.285,165.375 276.5,163C 281.313,162.93 286.147,163.096 291,163.5C 296.401,163.555 301.568,162.888 306.5,161.5C 309.273,160.343 312.273,159.676 315.5,159.5 Z"/></g>
<g><path style="opacity:0.996" fill="#3d433b" d="M 343.5,156.5 C 345.344,157.204 345.844,158.537 345,160.5C 342.167,162.667 339.333,164.833 336.5,167C 325.286,180.708 314.286,194.542 303.5,208.5C 302.167,208.5 300.833,208.5 299.5,208.5C 299.351,207.448 299.517,206.448 300,205.5C 309.424,195.413 318.091,184.747 326,173.5C 331.04,166.959 336.874,161.292 343.5,156.5 Z"/></g>
<g><path style="opacity:0.996" fill="#3e423c" d="M 270.5,212.5 C 270.5,214.167 270.5,215.833 270.5,217.5C 269.564,218.974 268.23,219.974 266.5,220.5C 264.692,220.509 263.025,220.009 261.5,219C 255.684,211.518 249.517,204.352 243,197.5C 238.941,200.783 234.774,203.949 230.5,207C 228.091,208.707 225.425,209.54 222.5,209.5C 222.392,207.486 223.058,205.82 224.5,204.5C 230.794,200.708 236.961,196.708 243,192.5C 249.836,198.673 256.003,205.506 261.5,213C 264.648,214.958 267.648,214.792 270.5,212.5 Z"/></g>
<g><path style="opacity:0.996" fill="#3d413c" d="M 199.5,210.5 C 197.143,210.337 194.81,210.503 192.5,211C 186.083,213.084 179.583,214.918 173,216.5C 168.95,218.285 165.45,220.785 162.5,224C 159.711,225.664 156.877,225.83 154,224.5C 151.667,221.167 149.333,217.833 147,214.5C 146.505,212.527 146.338,210.527 146.5,208.5C 149.178,211.332 151.512,214.499 153.5,218C 156.5,220 159.5,220 162.5,218C 166.867,213.775 172.034,210.942 178,209.5C 185.058,207.376 192.224,206.043 199.5,205.5C 199.5,207.167 199.5,208.833 199.5,210.5 Z"/></g>
<g><path style="opacity:0.318" fill="#d3d1cf" d="M 423.5,171.5 C 424.887,173.877 425.721,176.543 426,179.5C 427.45,194.803 428.284,210.136 428.5,225.5C 427.71,224.391 427.21,223.058 427,221.5C 426.929,204.737 425.763,188.071 423.5,171.5 Z"/></g>
<g><path style="opacity:0.118" fill="#ceccc8" d="M 35.5,197.5 C 36.7714,205.515 36.7714,213.682 35.5,222C 38.7125,226.197 37.7125,228.697 32.5,229.5C 32.9371,227.926 33.9371,226.759 35.5,226C 33.6969,225.363 32.3636,224.197 31.5,222.5C 32.8613,220.972 34.028,219.305 35,217.5C 35.4996,210.842 35.6663,204.175 35.5,197.5 Z"/></g>
<g><path style="opacity:0.996" fill="#3b423a" d="M 300.5,228.5 C 300.167,228.5 299.833,228.5 299.5,228.5C 298.725,225.2 297.225,222.2 295,219.5C 293.951,218.483 292.784,218.316 291.5,219C 280.05,229.966 267.383,239.132 253.5,246.5C 249.738,248.467 245.738,248.8 241.5,247.5C 253.568,240.631 265.568,233.465 277.5,226C 282.467,222.034 287.134,217.701 291.5,213C 292.5,212.333 293.5,212.333 294.5,213C 298.758,217.272 300.758,222.439 300.5,228.5 Z"/></g>
<g><path style="opacity:0.996" fill="#93908a" d="M 299.5,228.5 C 299.5,232.5 299.5,236.5 299.5,240.5C 297.901,240.232 296.568,240.566 295.5,241.5C 281.535,243.459 267.535,245.126 253.5,246.5C 267.383,239.132 280.05,229.966 291.5,219C 292.784,218.316 293.951,218.483 295,219.5C 297.225,222.2 298.725,225.2 299.5,228.5 Z"/></g>
<g><path style="opacity:0.996" fill="#6e8865" d="M 365.5,236.5 C 360.136,233.936 354.47,232.602 348.5,232.5C 342.525,233.38 336.525,234.047 330.5,234.5C 338.741,231.644 347.408,230.811 356.5,232C 360.035,232.663 363.035,234.163 365.5,236.5 Z"/></g>
<g><path style="opacity:0.996" fill="#687a5f" d="M 299.5,228.5 C 299.833,228.5 300.167,228.5 300.5,228.5C 301.645,232.311 301.812,236.311 301,240.5C 299.301,241.406 297.467,241.739 295.5,241.5C 296.568,240.566 297.901,240.232 299.5,240.5C 299.5,236.5 299.5,232.5 299.5,228.5 Z"/></g>
<g><path style="opacity:0.996" fill="#3a4039" d="M 199.5,248.5 C 190.038,250.125 180.705,252.125 171.5,254.5C 167.615,252.587 167.615,250.754 171.5,249C 180.696,246.327 190.029,244.494 199.5,243.5C 199.5,245.167 199.5,246.833 199.5,248.5 Z"/></g>
<g><path style="opacity:0.996" fill="#57804d" d="M 137.5,245.5 C 129.716,247.01 121.716,247.677 113.5,247.5C 113.5,248.833 113.5,250.167 113.5,251.5C 110.983,249.923 110.983,248.09 113.5,246C 121.493,245.5 129.493,245.334 137.5,245.5 Z"/></g>
<g><path style="opacity:0.996" fill="#3f413f" d="M 368.5,245.5 C 371.115,247.363 371.115,249.363 368.5,251.5C 351.157,252.238 333.824,252.904 316.5,253.5C 316.5,251.5 316.5,249.5 316.5,247.5C 333.985,246.904 351.319,246.237 368.5,245.5 Z"/></g>
<g><path style="opacity:0.996" fill="#3c403b" d="M 301.5,255.5 C 290.91,255.305 280.576,256.305 270.5,258.5C 266.382,259.709 262.049,260.376 257.5,260.5C 254.665,259.931 252.999,258.264 252.5,255.5C 268.729,252.777 285.063,250.777 301.5,249.5C 301.5,251.5 301.5,253.5 301.5,255.5 Z"/></g>
<g><path style="opacity:0.995" fill="#141313" d="M 36.5,251.5 C 37.3764,251.369 38.0431,251.702 38.5,252.5C 42.14,258.317 43.3067,264.651 42,271.5C 41.6174,270.944 41.1174,270.611 40.5,270.5C 35.8366,264.847 34.5032,258.513 36.5,251.5 Z"/></g>
<g><path style="opacity:0.996" fill="#3e423d" d="M 113.5,253.5 C 122.764,262.859 133.098,264.025 144.5,257C 148.514,256.163 152.514,255.329 156.5,254.5C 156.795,256.735 156.461,258.735 155.5,260.5C 149.977,262.547 144.311,264.381 138.5,266C 126.808,270.108 118.141,266.775 112.5,256C 112.743,255.098 113.077,254.265 113.5,253.5 Z"/></g>
<g><path style="opacity:0.996" fill="#485c44" d="M 172.5,256.5 C 173.328,262.709 172.328,268.709 169.5,274.5C 170.183,268.438 171.183,262.438 172.5,256.5 Z"/></g>
<g><path style="opacity:0.339" fill="#d1d0cf" d="M 32.5,229.5 C 30.9217,237.105 32.5884,243.938 37.5,250C 36.944,250.383 36.6107,250.883 36.5,251.5C 34.5032,258.513 35.8366,264.847 40.5,270.5C 41.5114,272.372 42.3448,274.372 43,276.5C 43.4349,289.2 44.2682,301.867 45.5,314.5C 43.3188,301.724 41.8188,288.724 41,275.5C 38.3879,270.61 36.0545,265.61 34,260.5C 33.1933,256.814 33.6933,253.314 35.5,250C 32.5764,245.982 30.9097,241.482 30.5,236.5C 30.4404,233.845 31.1071,231.511 32.5,229.5 Z"/></g>
<g><path style="opacity:0.069" fill="#d5d4d3" d="M 437.5,257.5 C 434.868,259.769 434.868,262.102 437.5,264.5C 437.061,266.104 436.394,267.604 435.5,269C 435.911,270.144 436.244,271.311 436.5,272.5C 434.954,278.045 434.12,283.712 434,289.5C 433.478,292.281 432.311,294.615 430.5,296.5C 432.919,286.164 434.586,275.664 435.5,265C 432.273,261.314 432.94,258.814 437.5,257.5 Z"/></g>
<g><path style="opacity:0.996" fill="#3c6d32" d="M 212.5,205.5 C 212.353,249.859 211.353,294.192 209.5,338.5C 209.5,338.833 209.5,339.167 209.5,339.5C 208.833,340.5 208.167,341.5 207.5,342.5C 209.13,296.693 210.797,251.027 212.5,205.5 Z"/></g>
<g><path style="opacity:0.996" fill="#7f8777" d="M 213.5,203.5 C 213.17,219.675 213.504,235.675 214.5,251.5C 215.812,253.479 217.479,255.145 219.5,256.5C 216.715,255.916 215.048,256.916 214.5,259.5C 212.821,283.647 211.655,307.981 211,332.5C 210.809,334.708 210.309,336.708 209.5,338.5C 211.353,294.192 212.353,249.859 212.5,205.5C 212.328,204.508 212.662,203.842 213.5,203.5 Z"/></g>
<g><path style="opacity:0.996" fill="#434841" d="M 219.5,256.5 C 221.681,256.284 223.347,257.117 224.5,259C 226.833,259.167 229.167,259.333 231.5,259.5C 236.504,258.826 241.504,258.159 246.5,257.5C 247.968,262.278 249.302,267.111 250.5,272C 253.617,278.557 257.284,284.89 261.5,291C 263.365,292.301 265.365,292.635 267.5,292C 270.401,289.36 272.068,286.193 272.5,282.5C 272.833,288.166 271.666,293.499 269,298.5C 266.861,299.769 264.695,299.769 262.5,298.5C 255.753,287.735 250.419,276.402 246.5,264.5C 245.5,264.167 244.5,263.833 243.5,263.5C 237.263,265.27 230.93,265.77 224.5,265C 223.953,264.075 223.287,263.242 222.5,262.5C 219.66,261.797 216.993,260.797 214.5,259.5C 215.048,256.916 216.715,255.916 219.5,256.5 Z"/></g>
<g><path style="opacity:0.996" fill="#7e8476" d="M 301.5,255.5 C 301.453,265.512 301.786,275.512 302.5,285.5C 302.114,295.675 301.447,305.675 300.5,315.5C 300.5,295.833 300.5,276.167 300.5,256.5C 290.551,257.727 280.551,258.393 270.5,258.5C 280.576,256.305 290.91,255.305 301.5,255.5 Z"/></g>
<g><path style="opacity:0.996" fill="#577d4e" d="M 198.5,264.5 C 198.666,273.506 198.5,282.506 198,291.5C 197.465,295.038 196.632,298.372 195.5,301.5C 196.761,289.048 197.761,276.715 198.5,264.5 Z"/></g>
<g><path style="opacity:0.996" fill="#41453f" d="M 169.5,274.5 C 169.656,278.582 169.156,282.582 168,286.5C 165.4,291.967 163.4,297.634 162,303.5C 153.243,317.467 141.743,328.634 127.5,337C 125.866,337.494 124.199,337.66 122.5,337.5C 122.392,335.486 123.058,333.82 124.5,332.5C 148.663,320.129 163.663,300.796 169.5,274.5 Z"/></g>
<g><path style="opacity:0.316" fill="#c1c1c0" d="M 45.5,314.5 C 46.7251,315.152 47.3917,316.319 47.5,318C 47.9636,323.008 48.6303,327.841 49.5,332.5C 50.8219,338.131 51.8219,343.797 52.5,349.5C 48.5332,338.268 46.1998,326.601 45.5,314.5 Z"/></g>
<g><path style="opacity:0.996" fill="#080807" d="M 413.5,344.5 C 411.031,345.607 410.031,347.607 410.5,350.5C 409.357,350.908 408.357,351.575 407.5,352.5C 405.194,358.446 402.361,364.112 399,369.5C 398.503,371.81 398.337,374.143 398.5,376.5C 395.107,376.062 392.107,376.895 389.5,379C 383.167,386.667 376.167,393.667 368.5,400C 357.937,407.744 347.27,415.244 336.5,422.5C 329.757,426.738 323.757,431.905 318.5,438C 315.484,438.664 312.651,438.164 310,436.5C 308.098,438.405 305.932,439.905 303.5,441C 299.514,441.499 295.514,441.666 291.5,441.5C 289.189,439.932 286.522,439.098 283.5,439C 276.986,438.18 270.653,438.347 264.5,439.5C 252.83,439.728 241.163,440.062 229.5,440.5C 226.14,440.384 222.807,440.051 219.5,439.5C 217.596,436.943 215.596,437.11 213.5,440C 207.454,442.173 201.454,444.34 195.5,446.5C 187.366,448.028 179.366,447.361 171.5,444.5C 164.582,439.514 156.915,435.847 148.5,433.5C 147.7,431.259 146.034,430.259 143.5,430.5C 142.486,429.326 141.153,428.66 139.5,428.5C 134.21,423.387 128.21,419.221 121.5,416C 116.946,412.113 113.113,407.613 110,402.5C 109.814,399.964 109.314,397.631 108.5,395.5C 103.515,392.93 98.1817,391.93 92.5,392.5C 92.7989,390.396 92.4656,388.396 91.5,386.5C 89.802,387.681 88.1353,387.681 86.5,386.5C 83.6972,381.031 79.3639,377.364 73.5,375.5C 69.5644,371.062 65.3978,366.729 61,362.5C 60.3486,360.765 60.5153,359.098 61.5,357.5C 59.4469,356.473 57.4469,355.473 55.5,354.5C 55.4456,352.368 54.4456,351.035 52.5,350.5C 52.5,350.167 52.5,349.833 52.5,349.5C 51.8219,343.797 50.8219,338.131 49.5,332.5C 49.3505,331.448 49.5172,330.448 50,329.5C 51.6064,333.271 54.1064,336.271 57.5,338.5C 56.5153,340.098 56.3486,341.765 57,343.5C 63.6395,350.477 71.1395,356.31 79.5,361C 81.1667,363.333 82.8333,365.667 84.5,368C 86.1341,368.494 87.8008,368.66 89.5,368.5C 89.2865,370.144 89.6198,371.644 90.5,373C 95.7986,372.975 100.799,374.142 105.5,376.5C 106.119,380.86 107.619,384.86 110,388.5C 114.907,394.078 120.407,398.911 126.5,403C 141.902,412.369 157.902,420.702 174.5,428C 180.776,429.424 187.109,429.758 193.5,429C 202.152,425.06 211.152,422.227 220.5,420.5C 222.811,422.068 225.478,422.902 228.5,423C 236.012,423.822 243.345,423.655 250.5,422.5C 253.609,422.736 256.609,422.403 259.5,421.5C 270.894,421.303 282.228,421.97 293.5,423.5C 297.514,423.666 301.514,423.499 305.5,423C 307.976,421.691 309.976,419.858 311.5,417.5C 312.845,418.347 313.845,419.513 314.5,421C 316.259,421.798 317.926,421.631 319.5,420.5C 323.685,415.482 328.351,410.982 333.5,407C 346.521,397.97 359.521,388.97 372.5,380C 380.167,373.667 387.167,366.667 393.5,359C 395,358.5 396.5,358 398,357.5C 399.44,358.148 400.94,358.481 402.5,358.5C 402.192,353.629 403.025,348.963 405,344.5C 413.038,329.088 421.038,313.755 429,298.5C 429.751,303.572 429.418,308.572 428,313.5C 424.588,320.658 420.922,327.658 417,334.5C 415.533,337.758 414.367,341.092 413.5,344.5 Z"/></g>
<g><path style="opacity:0.996" fill="#414540" d="M 191.5,334.5 C 193.343,338.351 195.343,342.184 197.5,346C 202.33,348.798 205.664,347.632 207.5,342.5C 208.167,341.5 208.833,340.5 209.5,339.5C 209.224,344.383 207.557,348.716 204.5,352.5C 202.926,353.631 201.259,353.798 199.5,353C 194.752,347.677 192.085,341.51 191.5,334.5 Z"/></g>
<g><path style="opacity:0.369" fill="#b2b2b2" d="M 413.5,344.5 C 413.008,346.819 412.008,348.819 410.5,350.5C 410.031,347.607 411.031,345.607 413.5,344.5 Z"/></g>
<g><path style="opacity:0.227" fill="#b7b7b7" d="M 52.5,350.5 C 54.4456,351.035 55.4456,352.368 55.5,354.5C 53.5544,353.965 52.5544,352.632 52.5,350.5 Z"/></g>
<g><path style="opacity:0.996" fill="#41453f" d="M 318.5,328.5 C 317.605,333.812 316.771,339.145 316,344.5C 313.405,351.548 310.238,358.215 306.5,364.5C 304.143,364.663 301.81,364.497 299.5,364C 295.311,357.965 290.644,352.298 285.5,347C 279.089,342.045 272.589,337.211 266,332.5C 265.481,330.511 266.314,329.511 268.5,329.5C 280.893,336.725 291.227,346.225 299.5,358C 302.257,358.782 304.757,358.282 307,356.5C 308.706,353.589 310.539,350.755 312.5,348C 314.697,341.471 316.697,334.971 318.5,328.5 Z"/></g>
<g><path style="opacity:0.161" fill="#9d9d9d" d="M 410.5,350.5 C 407.618,357.266 404.451,363.933 401,370.5C 400.503,373.146 400.336,375.813 400.5,378.5C 397.813,378.336 395.146,378.503 392.5,379C 376.524,396.136 358.524,410.636 338.5,422.5C 337.833,422.5 337.167,422.5 336.5,422.5C 347.27,415.244 357.937,407.744 368.5,400C 376.167,393.667 383.167,386.667 389.5,379C 392.107,376.895 395.107,376.062 398.5,376.5C 398.337,374.143 398.503,371.81 399,369.5C 402.361,364.112 405.194,358.446 407.5,352.5C 408.357,351.575 409.357,350.908 410.5,350.5 Z"/></g>
<g><path style="opacity:0.176" fill="#9d9d9d" d="M 55.5,354.5 C 57.4469,355.473 59.4469,356.473 61.5,357.5C 60.5153,359.098 60.3486,360.765 61,362.5C 65.3978,366.729 69.5644,371.062 73.5,375.5C 66.9232,371.926 61.5898,366.926 57.5,360.5C 57.9767,359.522 58.6433,358.689 59.5,358C 57.0898,357.943 55.7565,356.776 55.5,354.5 Z"/></g>
<g><path style="opacity:0.11" fill="#aeaead" d="M 73.5,375.5 C 79.3639,377.364 83.6972,381.031 86.5,386.5C 88.1353,387.681 89.802,387.681 91.5,386.5C 92.4656,388.396 92.7989,390.396 92.5,392.5C 98.1817,391.93 103.515,392.93 108.5,395.5C 108.784,397.415 108.451,399.081 107.5,400.5C 108.035,397.762 107.035,395.928 104.5,395C 100.23,393.925 95.8967,393.425 91.5,393.5C 91.5674,390.234 89.9008,388.734 86.5,389C 85.3333,387.167 84.1667,385.333 83,383.5C 79.6425,380.969 76.4758,378.302 73.5,375.5 Z"/></g>
<g><path style="opacity:0.353" fill="#8e8e8e" d="M 108.5,395.5 C 109.314,397.631 109.814,399.964 110,402.5C 113.113,407.613 116.946,412.113 121.5,416C 128.21,419.221 134.21,423.387 139.5,428.5C 128.173,423.363 118.34,416.03 110,406.5C 109.062,404.512 108.228,402.512 107.5,400.5C 108.451,399.081 108.784,397.415 108.5,395.5 Z"/></g>
<g><path style="opacity:0.996" fill="#52514d" d="M 259.5,421.5 C 266.321,420.345 273.321,420.179 280.5,421C 285.127,421.05 289.46,421.883 293.5,423.5C 282.228,421.97 270.894,421.303 259.5,421.5 Z"/></g>
<g><path style="opacity:0.996" fill="#63615d" d="M 220.5,420.5 C 230.419,422.163 240.419,422.83 250.5,422.5C 243.345,423.655 236.012,423.822 228.5,423C 225.478,422.902 222.811,422.068 220.5,420.5 Z"/></g>
<g><path style="opacity:0.078" fill="#999999" d="M 139.5,428.5 C 141.153,428.66 142.486,429.326 143.5,430.5C 141.62,430.771 140.287,430.104 139.5,428.5 Z"/></g>
<g><path style="opacity:0.118" fill="#9a9a99" d="M 143.5,430.5 C 146.034,430.259 147.7,431.259 148.5,433.5C 146.326,433.25 144.659,432.25 143.5,430.5 Z"/></g>
<g><path style="opacity:0.235" fill="#b6b6b5" d="M 336.5,422.5 C 337.167,422.5 337.833,422.5 338.5,422.5C 330.621,428.034 323.288,434.367 316.5,441.5C 314.289,440.877 312.289,439.877 310.5,438.5C 307.025,441.827 302.858,443.493 298,443.5C 282.836,440.062 267.67,439.729 252.5,442.5C 256.232,440.869 260.232,439.869 264.5,439.5C 273.572,439.371 282.572,440.038 291.5,441.5C 295.514,441.666 299.514,441.499 303.5,441C 305.932,439.905 308.098,438.405 310,436.5C 312.651,438.164 315.484,438.664 318.5,438C 323.757,431.905 329.757,426.738 336.5,422.5 Z"/></g>
<g><path style="opacity:0.773" fill="#555555" d="M 264.5,439.5 C 270.653,438.347 276.986,438.18 283.5,439C 286.522,439.098 289.189,439.932 291.5,441.5C 282.572,440.038 273.572,439.371 264.5,439.5 Z"/></g>
<g><path style="opacity:0.016" fill="#adadad" d="M 148.5,433.5 C 156.915,435.847 164.582,439.514 171.5,444.5C 166.034,442.599 160.701,440.432 155.5,438C 153.102,436.476 150.769,434.976 148.5,433.5 Z"/></g>
<g><path style="opacity:0.783" fill="#474747" d="M 264.5,439.5 C 260.232,439.869 256.232,440.869 252.5,442.5C 252.167,442.5 251.833,442.5 251.5,442.5C 244.167,441.833 236.833,441.167 229.5,440.5C 241.163,440.062 252.83,439.728 264.5,439.5 Z"/></g>
<g><path style="opacity:0.089" fill="#a9a9a9" d="M 219.5,439.5 C 222.807,440.051 226.14,440.384 229.5,440.5C 236.833,441.167 244.167,441.833 251.5,442.5C 243.493,442.666 235.493,442.5 227.5,442C 224.478,441.902 221.811,441.068 219.5,439.5 Z"/></g>
<g><path style="opacity:0.02" fill="#d3d3d3" d="M 171.5,444.5 C 179.366,447.361 187.366,448.028 195.5,446.5C 196.5,446.5 197.5,446.5 198.5,446.5C 195.103,448.023 191.436,449.023 187.5,449.5C 182.399,448.761 177.399,447.594 172.5,446C 171.944,445.617 171.611,445.117 171.5,444.5 Z"/></g>
<g><path style="opacity:0.086" fill="#9e9d9d" d="M 219.5,439.5 C 213.904,440.79 208.571,442.957 203.5,446C 201.866,446.494 200.199,446.66 198.5,446.5C 197.5,446.5 196.5,446.5 195.5,446.5C 201.454,444.34 207.454,442.173 213.5,440C 215.596,437.11 217.596,436.943 219.5,439.5 Z"/></g>
</svg>
