<?xml version="1.0" encoding="UTF-8"?>
<!DOCTYPE svg PUBLIC "-//W3C//DTD SVG 1.1//EN" "http://www.w3.org/Graphics/SVG/1.1/DTD/svg11.dtd">
<svg xmlns="http://www.w3.org/2000/svg" version="1.1" width="463px" height="461px" style="shape-rendering:geometricPrecision; text-rendering:geometricPrecision; image-rendering:optimizeQuality; fill-rule:evenodd; clip-rule:evenodd" xmlns:xlink="http://www.w3.org/1999/xlink">
<g><path style="opacity:0.906" fill="#bebcb8" d="M 284.5,50.5 C 280.113,50.8626 275.78,51.5292 271.5,52.5C 269.631,52.4932 267.964,52.1599 266.5,51.5C 270.782,50.5774 275.116,49.9108 279.5,49.5C 281.369,49.5068 283.036,49.8401 284.5,50.5 Z"/></g>
<g><path style="opacity:0.996" fill="#97948e" d="M 284.5,50.5 C 290.334,53.2978 296.334,55.7978 302.5,58C 305.284,61.4922 308.951,62.9922 313.5,62.5C 324.871,67.194 335.537,73.194 345.5,80.5C 345.238,81.9778 345.571,83.3112 346.5,84.5C 349.869,86.8838 353.203,89.2171 356.5,91.5C 358.143,95.3005 358.81,99.3005 358.5,103.5C 363.825,106.048 369.492,107.381 375.5,107.5C 375.5,109.167 375.5,110.833 375.5,112.5C 377.924,112.192 380.257,112.526 382.5,113.5C 383.188,114.855 384.188,115.855 385.5,116.5C 385.511,118.017 386.177,119.184 387.5,120C 395.235,124.442 402.068,129.942 408,136.5C 408.687,138.568 408.52,140.568 407.5,142.5C 409.908,143.453 412.075,144.787 414,146.5C 420.02,168.318 423.02,190.652 423,213.5C 423.687,217.58 424.687,221.58 426,225.5C 426.417,226.756 427.25,227.423 428.5,227.5C 429.167,227.5 429.5,227.833 429.5,228.5C 429.378,231.657 430.545,234.657 433,237.5C 433.499,241.486 433.666,245.486 433.5,249.5C 433.5,249.833 433.5,250.167 433.5,250.5C 430.817,250.663 429.15,251.996 428.5,254.5C 430.043,259.383 430.709,264.383 430.5,269.5C 431.246,277.225 429.913,284.558 426.5,291.5C 427.802,299.484 426.135,306.817 421.5,313.5C 422.614,309.236 423.781,304.903 425,300.5C 425.667,297.5 425.667,294.5 425,291.5C 424.667,291.833 424.333,292.167 424,292.5C 415.951,309.539 407.451,326.206 398.5,342.5C 397.532,344.607 397.198,346.941 397.5,349.5C 395.473,349.338 393.473,349.505 391.5,350C 390.944,350.383 390.611,350.883 390.5,351.5C 383.368,358.131 376.368,364.964 369.5,372C 356.833,380.667 344.167,389.333 331.5,398C 325.865,402.633 320.532,407.633 315.5,413C 312.258,413.986 309.592,413.152 307.5,410.5C 304.037,414.398 299.704,416.398 294.5,416.5C 275.238,412.837 255.905,412.504 236.5,415.5C 228.214,415.443 220.047,414.443 212,412.5C 204.866,416.486 197.366,419.486 189.5,421.5C 185.486,421.666 181.486,421.499 177.5,421C 174.223,419.857 170.89,419.023 167.5,418.5C 144.845,409.664 124.345,397.331 106,381.5C 103.508,377.685 102.008,373.518 101.5,369C 96.822,366.46 91.822,365.294 86.5,365.5C 86.5,363.833 86.5,362.167 86.5,360.5C 84.0504,360.702 81.717,360.369 79.5,359.5C 78.4566,356.944 76.7899,354.777 74.5,353C 66.196,348.709 59.0293,342.876 53,335.5C 52.8195,333.512 52.9862,331.512 53.5,329.5C 50.7277,329.405 48.7277,328.071 47.5,325.5C 46.5713,326.689 46.238,328.022 46.5,329.5C 45.8333,329.167 45.1667,328.833 44.5,328.5C 43.6561,324.901 43.3227,321.234 43.5,317.5C 42.2599,301.103 40.7599,284.769 39,268.5C 38.1482,267.429 37.3149,266.429 36.5,265.5C 30.5728,258.898 28.9061,251.398 31.5,243C 30.9561,241.415 30.2894,239.915 29.5,238.5C 28.0771,233.13 28.2438,227.797 30,222.5C 34.8972,219.03 34.3972,217.03 28.5,216.5C 27.4937,215.604 27.4937,214.938 28.5,214.5C 30.4525,213.374 31.9525,211.708 33,209.5C 33.3779,201.152 33.8779,192.819 34.5,184.5C 36.7247,178.382 39.7247,172.715 43.5,167.5C 46.9877,161.865 50.4877,156.198 54,150.5C 55.2738,146.846 56.4404,143.18 57.5,139.5C 58.7417,135.345 60.7417,131.678 63.5,128.5C 64.4614,126.735 64.7947,124.735 64.5,122.5C 66.8568,122.663 69.1902,122.497 71.5,122C 77.6079,115.055 83.9412,108.222 90.5,101.5C 102.061,91.7073 114.395,82.8739 127.5,75C 133.789,70.0443 139.789,64.8776 145.5,59.5C 147.199,59.3398 148.866,59.5065 150.5,60C 151.399,61.2362 152.566,62.0696 154,62.5C 155.837,60.3874 158.004,58.5541 160.5,57C 166.856,56.4065 173.189,56.5731 179.5,57.5C 190.218,57.7871 200.885,57.4538 211.5,56.5C 220.658,57.3299 229.991,57.8299 239.5,58C 243.678,60.254 248.011,60.754 252.5,59.5C 253.298,59.0431 253.631,58.3764 253.5,57.5C 257.389,54.725 261.722,52.725 266.5,51.5C 267.964,52.1599 269.631,52.4932 271.5,52.5C 275.78,51.5292 280.113,50.8626 284.5,50.5 Z"/></g>
<g><path style="opacity:0.525" fill="#bcbab6" d="M 253.5,57.5 C 253.631,58.3764 253.298,59.0431 252.5,59.5C 248.011,60.754 243.678,60.254 239.5,58C 229.991,57.8299 220.658,57.3299 211.5,56.5C 223.959,54.3987 236.126,55.3987 248,59.5C 249.8,58.6805 251.634,58.0138 253.5,57.5 Z"/></g>
<g><path style="opacity:0.812" fill="#bcb9b5" d="M 284.5,50.5 C 288.263,50.8572 291.93,51.6905 295.5,53C 301.72,55.9409 307.72,59.1076 313.5,62.5C 308.951,62.9922 305.284,61.4922 302.5,58C 296.334,55.7978 290.334,53.2978 284.5,50.5 Z"/></g>
<g><path style="opacity:0.678" fill="#c6c5c1" d="M 179.5,57.5 C 173.189,56.5731 166.856,56.4065 160.5,57C 158.004,58.5541 155.837,60.3874 154,62.5C 152.566,62.0696 151.399,61.2362 150.5,60C 148.866,59.5065 147.199,59.3398 145.5,59.5C 145.962,58.1201 146.962,57.4534 148.5,57.5C 150.383,58.0243 152.216,58.6909 154,59.5C 157.808,56.0908 162.308,54.7574 167.5,55.5C 171.777,55.3367 175.777,56.0033 179.5,57.5 Z"/></g>
<g><path style="opacity:0.969" fill="#c2c1bd" d="M 345.5,80.5 C 349.527,83.8604 353.194,87.5271 356.5,91.5C 353.203,89.2171 349.869,86.8838 346.5,84.5C 345.571,83.3112 345.238,81.9778 345.5,80.5 Z"/></g>
<g><path style="opacity:0.996" fill="#bd2a1b" d="M 226.5,116.5 C 222.369,120.13 218.369,123.963 214.5,128C 216.473,128.495 218.473,128.662 220.5,128.5C 223.609,128.736 226.609,128.403 229.5,127.5C 233.16,127.841 236.493,127.175 239.5,125.5C 241.515,124.076 243.848,123.41 246.5,123.5C 249.022,123.122 251.355,122.289 253.5,121C 256.482,120.502 259.482,120.335 262.5,120.5C 268.717,123.181 274.55,126.515 280,130.5C 280.765,132.066 280.598,133.399 279.5,134.5C 262.147,140.52 247.147,150.186 234.5,163.5C 233.624,163.369 232.957,163.702 232.5,164.5C 234.973,165.797 237.307,165.797 239.5,164.5C 253.791,161.756 268.124,159.59 282.5,158C 292.315,161.829 301.149,167.329 309,174.5C 309.495,176.473 309.662,178.473 309.5,180.5C 304.557,182.411 299.89,184.911 295.5,188C 286.777,197.058 277.777,205.725 268.5,214C 266.5,214.667 264.5,214.667 262.5,214C 260.858,210.52 258.191,208.353 254.5,207.5C 247.769,206.123 241.102,206.457 234.5,208.5C 228.445,208.338 222.445,208.838 216.5,210C 211.7,215.802 206.533,221.302 201,226.5C 200.491,229.138 201.658,230.472 204.5,230.5C 217.913,237.729 230.413,246.396 242,256.5C 253.275,247.228 263.942,237.228 274,226.5C 276.295,222.076 278.462,217.576 280.5,213C 288.588,212.974 295.921,215.474 302.5,220.5C 303.466,222.396 303.799,224.396 303.5,226.5C 297.796,228.185 292.463,230.685 287.5,234C 277.767,240.728 267.767,247.062 257.5,253C 255.534,254.46 253.868,256.127 252.5,258C 253.13,259.31 254.13,260.144 255.5,260.5C 260.894,264.53 266.894,267.53 273.5,269.5C 275.033,271.245 277.033,272.245 279.5,272.5C 292.519,278.844 306.185,283.511 320.5,286.5C 328.265,288.798 336.265,290.631 344.5,292C 349.823,292.499 355.156,292.666 360.5,292.5C 364.982,293.326 369.649,293.826 374.5,294C 375.38,295.356 375.714,296.856 375.5,298.5C 374.027,299.072 372.693,299.905 371.5,301C 362.319,302.576 353.319,304.409 344.5,306.5C 339.223,306.775 334.223,307.775 329.5,309.5C 322.369,311.068 315.369,310.568 308.5,308C 287.972,293.998 268.139,279.164 249,263.5C 248.5,263.833 248,264.167 247.5,264.5C 248.879,267.259 250.213,269.925 251.5,272.5C 251.5,272.833 251.5,273.167 251.5,273.5C 256.305,291.849 257.639,310.516 255.5,329.5C 255.5,330.833 255.5,332.167 255.5,333.5C 251.349,342.524 245.683,350.691 238.5,358C 235.386,359.931 232.053,360.598 228.5,360C 222.666,351.666 215.666,344.499 207.5,338.5C 205.418,337.415 205.084,335.915 206.5,334C 213.833,334 221.167,334 228.5,334C 231.432,333.728 233.932,332.562 236,330.5C 242.712,317.195 244.212,303.528 240.5,289.5C 239.779,283.616 238.279,277.949 236,272.5C 235.311,271.643 234.478,270.977 233.5,270.5C 211.258,297.75 183.925,318.084 151.5,331.5C 147.202,332.2 142.869,332.533 138.5,332.5C 138.5,331.5 138.5,330.5 138.5,329.5C 164.545,316.889 187.712,300.222 208,279.5C 213.336,273.467 218.17,267.133 222.5,260.5C 224.377,259.341 224.877,257.674 224,255.5C 221.833,253.333 219.667,251.167 217.5,249C 216.167,248.333 214.833,248.333 213.5,249C 195.761,269.573 174.094,284.407 148.5,293.5C 146.5,293.5 144.5,293.5 142.5,293.5C 142.5,292.5 142.5,291.5 142.5,290.5C 158.143,281.37 173.143,271.204 187.5,260C 193.098,254.909 198.098,249.409 202.5,243.5C 204.377,242.341 204.877,240.674 204,238.5C 201.5,236.667 199,234.833 196.5,233C 195.167,232.333 193.833,232.333 192.5,233C 184.951,238.723 177.285,244.223 169.5,249.5C 164.1,251.871 158.767,254.204 153.5,256.5C 152.5,256.5 151.5,256.5 150.5,256.5C 150.744,253.737 152.077,251.571 154.5,250C 167.597,241.063 179.931,231.23 191.5,220.5C 193.5,219.167 195.167,217.5 196.5,215.5C 199.232,214.033 199.065,213.033 196,212.5C 192.519,213.123 189.019,213.623 185.5,214C 184.177,214.816 183.511,215.983 183.5,217.5C 181.247,220.124 178.913,220.124 176.5,217.5C 173.743,212.318 171.243,206.985 169,201.5C 167.088,199.343 165.421,197.009 164,194.5C 158.855,189.699 153.688,185.033 148.5,180.5C 148.421,179.07 148.754,177.736 149.5,176.5C 152.768,175.513 156.102,175.18 159.5,175.5C 160.964,176.16 162.631,176.493 164.5,176.5C 171.763,175.133 179.096,174.3 186.5,174C 188.315,173.243 189.981,172.41 191.5,171.5C 201.536,170.402 211.536,168.902 221.5,167C 229.152,158.857 235.818,150.023 241.5,140.5C 243.081,138.858 243.747,136.858 243.5,134.5C 231.383,136.898 219.383,137.065 207.5,135C 195.192,147.82 180.526,156.653 163.5,161.5C 162.427,160.749 162.26,159.749 163,158.5C 177.991,147.18 190.491,133.68 200.5,118C 201.218,114.539 201.718,111.039 202,107.5C 205.183,105.477 208.683,104.977 212.5,106C 217.337,106.784 221.67,108.617 225.5,111.5C 226.452,113.045 226.785,114.712 226.5,116.5 Z"/></g>
<g><path style="opacity:0.839" fill="#c6c4c1" d="M 356.5,91.5 C 357.79,92.0577 358.623,93.0577 359,94.5C 359.087,99.8553 361.587,103.355 366.5,105C 369.5,105.333 372.5,105.667 375.5,106C 377.037,107.11 377.703,108.61 377.5,110.5C 382.168,109.839 384.835,111.839 385.5,116.5C 384.188,115.855 383.188,114.855 382.5,113.5C 380.257,112.526 377.924,112.192 375.5,112.5C 375.5,110.833 375.5,109.167 375.5,107.5C 369.492,107.381 363.825,106.048 358.5,103.5C 358.81,99.3005 358.143,95.3005 356.5,91.5 Z"/></g>
<g><path style="opacity:0.851" fill="#cac7c3" d="M 90.5,101.5 C 83.9412,108.222 77.6079,115.055 71.5,122C 69.1902,122.497 66.8568,122.663 64.5,122.5C 64.7947,124.735 64.4614,126.735 63.5,128.5C 61.2634,122.943 62.9301,120.443 68.5,121C 75.4165,115.087 82.0831,108.754 88.5,102C 89.0944,101.536 89.7611,101.369 90.5,101.5 Z"/></g>
<g><path style="opacity:0.996" fill="#4a3c38" d="M 226.5,116.5 C 226.662,118.527 226.495,120.527 226,122.5C 223.96,124.37 222.127,126.37 220.5,128.5C 218.473,128.662 216.473,128.495 214.5,128C 218.369,123.963 222.369,120.13 226.5,116.5 Z"/></g>
<g><path style="opacity:0.996" fill="#a6432f" d="M 262.5,120.5 C 259.482,120.335 256.482,120.502 253.5,121C 251.355,122.289 249.022,123.122 246.5,123.5C 251.15,118.41 256.484,117.41 262.5,120.5 Z"/></g>
<g><path style="opacity:0.996" fill="#9c584a" d="M 239.5,125.5 C 236.493,127.175 233.16,127.841 229.5,127.5C 232.627,126.419 235.96,125.753 239.5,125.5 Z"/></g>
<g><path style="opacity:0.996" fill="#463e3b" d="M 241.5,140.5 C 229.892,142.552 218.225,143.052 206.5,142C 193.938,154.437 179.272,162.937 162.5,167.5C 162.297,165.61 162.963,164.11 164.5,163C 163.944,162.617 163.611,162.117 163.5,161.5C 180.526,156.653 195.192,147.82 207.5,135C 219.383,137.065 231.383,136.898 243.5,134.5C 243.747,136.858 243.081,138.858 241.5,140.5 Z"/></g>
<g><path style="opacity:0.996" fill="#463c38" d="M 279.5,134.5 C 280.519,136.54 280.519,138.54 279.5,140.5C 264.27,145.444 250.937,153.444 239.5,164.5C 237.585,164.784 235.919,164.451 234.5,163.5C 247.147,150.186 262.147,140.52 279.5,134.5 Z"/></g>
<g><path style="opacity:0.549" fill="#c7c5c1" d="M 57.5,139.5 C 56.4404,143.18 55.2738,146.846 54,150.5C 50.4877,156.198 46.9877,161.865 43.5,167.5C 47.1729,157.487 51.8396,148.154 57.5,139.5 Z"/></g>
<g><path style="opacity:0.996" fill="#70301f" d="M 234.5,163.5 C 235.919,164.451 237.585,164.784 239.5,164.5C 237.307,165.797 234.973,165.797 232.5,164.5C 232.957,163.702 233.624,163.369 234.5,163.5 Z"/></g>
<g><path style="opacity:0.996" fill="#643226" d="M 275.5,172.5 C 262.473,172.761 249.473,173.427 236.5,174.5C 242.573,172.852 248.907,172.019 255.5,172C 262.346,171.179 269.013,171.346 275.5,172.5 Z"/></g>
<g><path style="opacity:0.996" fill="#413d3b" d="M 275.5,172.5 C 279.629,173.713 280.296,175.713 277.5,178.5C 262.556,176.873 247.889,177.873 233.5,181.5C 231.946,180.086 230.612,178.419 229.5,176.5C 231.969,175.832 234.302,175.165 236.5,174.5C 249.473,173.427 262.473,172.761 275.5,172.5 Z"/></g>
<g><path style="opacity:0.996" fill="#a3412e" d="M 191.5,171.5 C 189.981,172.41 188.315,173.243 186.5,174C 179.096,174.3 171.763,175.133 164.5,176.5C 162.631,176.493 160.964,176.16 159.5,175.5C 170.176,174.332 180.843,172.999 191.5,171.5 Z"/></g>
<g><path style="opacity:0.204" fill="#c7c6c2" d="M 385.5,116.5 C 394.398,122.227 402.565,128.894 410,136.5C 410.192,138.577 410.692,140.577 411.5,142.5C 413.527,143.693 415.027,145.36 416,147.5C 418.313,156.085 420.313,164.752 422,173.5C 422.92,188.176 423.92,202.842 425,217.5C 425.871,221.009 427.037,224.342 428.5,227.5C 427.25,227.423 426.417,226.756 426,225.5C 424.687,221.58 423.687,217.58 423,213.5C 423.02,190.652 420.02,168.318 414,146.5C 412.075,144.787 409.908,143.453 407.5,142.5C 408.52,140.568 408.687,138.568 408,136.5C 402.068,129.942 395.235,124.442 387.5,120C 386.177,119.184 385.511,118.017 385.5,116.5 Z"/></g>
<g><path style="opacity:0.996" fill="#9f4b3b" d="M 159.5,175.5 C 156.102,175.18 152.768,175.513 149.5,176.5C 148.754,177.736 148.421,179.07 148.5,180.5C 148.167,180.5 147.833,180.5 147.5,180.5C 147.357,178.738 147.691,177.071 148.5,175.5C 152.315,174.192 155.981,174.192 159.5,175.5 Z"/></g>
<g><path style="opacity:0.996" fill="#683125" d="M 216.5,181.5 C 216.5,180.167 216.5,178.833 216.5,177.5C 211.654,179.039 206.654,179.706 201.5,179.5C 206.647,178.134 211.98,177.134 217.5,176.5C 217.784,178.415 217.451,180.081 216.5,181.5 Z"/></g>
<g><path style="opacity:0.996" fill="#453e3b" d="M 216.5,181.5 C 215.833,181.5 215.5,181.833 215.5,182.5C 202.666,185.564 189.666,187.898 176.5,189.5C 174.587,187.88 173.253,185.88 172.5,183.5C 182.275,182.889 191.942,181.556 201.5,179.5C 206.654,179.706 211.654,179.039 216.5,177.5C 216.5,178.833 216.5,180.167 216.5,181.5 Z"/></g>
<g><path style="opacity:0.996" fill="#96918b" d="M 277.5,178.5 C 276.385,182.512 275.052,186.512 273.5,190.5C 271.755,192.033 270.755,194.033 270.5,196.5C 269.067,197.833 267.733,199.333 266.5,201C 263.961,201.796 261.628,201.629 259.5,200.5C 253.347,199.347 247.014,199.18 240.5,200C 239.263,200.232 238.263,200.732 237.5,201.5C 235.167,201.5 232.833,201.5 230.5,201.5C 229.744,198.928 230.577,196.595 233,194.5C 233.495,192.527 233.662,190.527 233.5,188.5C 233.5,186.167 233.5,183.833 233.5,181.5C 247.889,177.873 262.556,176.873 277.5,178.5 Z"/></g>
<g><path style="opacity:0.996" fill="#48403d" d="M 147.5,180.5 C 147.833,180.5 148.167,180.5 148.5,180.5C 153.688,185.033 158.855,189.699 164,194.5C 165.421,197.009 167.088,199.343 169,201.5C 171.243,206.985 173.743,212.318 176.5,217.5C 178.913,220.124 181.247,220.124 183.5,217.5C 187.527,215.642 191.86,214.975 196.5,215.5C 195.167,217.5 193.5,219.167 191.5,220.5C 187.596,218.769 184.596,219.936 182.5,224C 180.421,224.808 178.421,224.641 176.5,223.5C 172.9,212.462 166.9,202.962 158.5,195C 155,192.167 151.5,189.333 148,186.5C 147.505,184.527 147.338,182.527 147.5,180.5 Z"/></g>
<g><path style="opacity:0.996" fill="#96908a" d="M 215.5,182.5 C 214.335,190.497 211.502,197.831 207,204.5C 204.874,206.377 202.374,207.377 199.5,207.5C 194.18,208.26 188.847,208.927 183.5,209.5C 182.943,204.835 181.61,200.502 179.5,196.5C 178.688,194.055 177.688,191.722 176.5,189.5C 189.666,187.898 202.666,185.564 215.5,182.5 Z"/></g>
<g><path style="opacity:0.996" fill="#52433d" d="M 233.5,188.5 C 233.662,190.527 233.495,192.527 233,194.5C 230.577,196.595 229.744,198.928 230.5,201.5C 228.712,202.622 226.712,202.789 224.5,202C 226.131,196.566 229.131,192.066 233.5,188.5 Z"/></g>
<g><path style="opacity:0.996" fill="#9e4e3d" d="M 273.5,190.5 C 273.245,192.967 272.245,194.967 270.5,196.5C 270.755,194.033 271.755,192.033 273.5,190.5 Z"/></g>
<g><path style="opacity:0.996" fill="#975746" d="M 259.5,200.5 C 252.132,200.317 244.799,200.65 237.5,201.5C 238.263,200.732 239.263,200.232 240.5,200C 247.014,199.18 253.347,199.347 259.5,200.5 Z"/></g>
<g><path style="opacity:0.624" fill="#bdbbb8" d="M 34.5,184.5 C 33.8779,192.819 33.3779,201.152 33,209.5C 31.9525,211.708 30.4525,213.374 28.5,214.5C 29.072,213.027 29.9054,211.693 31,210.5C 31.3333,203.5 31.6667,196.5 32,189.5C 32.3736,187.509 33.207,185.842 34.5,184.5 Z"/></g>
<g><path style="opacity:0.996" fill="#693225" d="M 254.5,207.5 C 247.841,207.954 241.174,208.287 234.5,208.5C 241.102,206.457 247.769,206.123 254.5,207.5 Z"/></g>
<g><path style="opacity:0.996" fill="#453e3b" d="M 309.5,180.5 C 309.799,182.604 309.466,184.604 308.5,186.5C 304.544,188.666 300.544,190.832 296.5,193C 287.444,202.391 278.11,211.391 268.5,220C 266.5,220.667 264.5,220.667 262.5,220C 261.353,217.512 259.686,215.512 257.5,214C 244.817,213.485 232.151,213.819 219.5,215C 217.671,215.273 216.171,216.107 215,217.5C 211.263,221.727 207.763,226.06 204.5,230.5C 201.658,230.472 200.491,229.138 201,226.5C 206.533,221.302 211.7,215.802 216.5,210C 222.445,208.838 228.445,208.338 234.5,208.5C 241.174,208.287 247.841,207.954 254.5,207.5C 258.191,208.353 260.858,210.52 262.5,214C 264.5,214.667 266.5,214.667 268.5,214C 277.777,205.725 286.777,197.058 295.5,188C 299.89,184.911 304.557,182.411 309.5,180.5 Z"/></g>
<g><path style="opacity:0.996" fill="#a83a28" d="M 179.5,196.5 C 181.61,200.502 182.943,204.835 183.5,209.5C 188.847,208.927 194.18,208.26 199.5,207.5C 194.126,209.592 188.46,210.925 182.5,211.5C 181.708,206.458 180.708,201.458 179.5,196.5 Z"/></g>
<g><path style="opacity:0.996" fill="#6f5d54" d="M 196.5,215.5 C 191.86,214.975 187.527,215.642 183.5,217.5C 183.511,215.983 184.177,214.816 185.5,214C 189.019,213.623 192.519,213.123 196,212.5C 199.065,213.033 199.232,214.033 196.5,215.5 Z"/></g>
<g><path style="opacity:0.565" fill="#cccac6" d="M 28.5,216.5 C 34.3972,217.03 34.8972,219.03 30,222.5C 28.2438,227.797 28.0771,233.13 29.5,238.5C 25.2516,231.694 25.5849,225.028 30.5,218.5C 29.7573,217.818 29.0906,217.151 28.5,216.5 Z"/></g>
<g><path style="opacity:0.996" fill="#473c38" d="M 303.5,226.5 C 304.536,228.391 304.536,230.224 303.5,232C 286.679,240.239 270.679,249.739 255.5,260.5C 254.13,260.144 253.13,259.31 252.5,258C 253.868,256.127 255.534,254.46 257.5,253C 267.767,247.062 277.767,240.728 287.5,234C 292.463,230.685 297.796,228.185 303.5,226.5 Z"/></g>
<g><path style="opacity:0.996" fill="#463e3b" d="M 202.5,243.5 C 199.69,240.59 196.357,239.09 192.5,239C 180.023,249.664 166.023,257.497 150.5,262.5C 150.455,259.923 151.455,257.923 153.5,256.5C 158.767,254.204 164.1,251.871 169.5,249.5C 177.285,244.223 184.951,238.723 192.5,233C 193.833,232.333 195.167,232.333 196.5,233C 199,234.833 201.5,236.667 204,238.5C 204.877,240.674 204.377,242.341 202.5,243.5 Z"/></g>
<g><path style="opacity:0.344" fill="#cdccc9" d="M 429.5,228.5 C 431.996,232.173 433.829,236.173 435,240.5C 435.781,243.817 435.281,246.817 433.5,249.5C 433.666,245.486 433.499,241.486 433,237.5C 430.545,234.657 429.378,231.657 429.5,228.5 Z"/></g>
<g><path style="opacity:0.994" fill="#121212" d="M 32.5,244.5 C 33.3764,244.369 34.0431,244.702 34.5,245.5C 37.9918,251.45 38.9918,257.784 37.5,264.5C 35.4025,261.305 33.5692,257.971 32,254.5C 31.2534,251.076 31.42,247.743 32.5,244.5 Z"/></g>
<g><path style="opacity:0.996" fill="#463d3a" d="M 222.5,260.5 C 220.554,256.683 217.554,254.85 213.5,255C 197.773,272.87 179.106,286.87 157.5,297C 152.637,298.673 147.637,299.506 142.5,299.5C 142.5,297.833 142.5,296.167 142.5,294.5C 144.735,294.795 146.735,294.461 148.5,293.5C 174.094,284.407 195.761,269.573 213.5,249C 214.833,248.333 216.167,248.333 217.5,249C 219.667,251.167 221.833,253.333 224,255.5C 224.877,257.674 224.377,259.341 222.5,260.5 Z"/></g>
<g><path style="opacity:0.986" fill="#bebcb9" d="M 433.5,250.5 C 432.71,251.794 431.71,252.961 430.5,254C 432.18,254.347 433.18,255.347 433.5,257C 432.104,261.19 431.104,265.357 430.5,269.5C 430.709,264.383 430.043,259.383 428.5,254.5C 429.15,251.996 430.817,250.663 433.5,250.5 Z"/></g>
<g><path style="opacity:0.996" fill="#463f3d" d="M 329.5,309.5 C 334.777,309.225 339.777,308.225 344.5,306.5C 353.319,304.409 362.319,302.576 371.5,301C 372.693,299.905 374.027,299.072 375.5,298.5C 376.014,300.512 376.18,302.512 376,304.5C 375.228,305.849 374.061,306.682 372.5,307C 358.114,309.388 343.78,312.055 329.5,315C 323.5,315.667 317.5,315.667 311.5,315C 306.54,312.853 301.873,310.186 297.5,307C 281.988,295.644 266.655,284.144 251.5,272.5C 250.213,269.925 248.879,267.259 247.5,264.5C 248,264.167 248.5,263.833 249,263.5C 268.139,279.164 287.972,293.998 308.5,308C 315.369,310.568 322.369,311.068 329.5,309.5 Z"/></g>
<g><path style="opacity:0.996" fill="#995c4c" d="M 273.5,269.5 C 275.967,269.755 277.967,270.755 279.5,272.5C 277.033,272.245 275.033,271.245 273.5,269.5 Z"/></g>
<g><path style="opacity:0.996" fill="#483d3a" d="M 240.5,289.5 C 238.546,285.772 236.88,281.772 235.5,277.5C 234.635,276.417 233.635,276.251 232.5,277C 210.002,305.076 182.002,325.576 148.5,338.5C 145.216,339.657 141.882,339.824 138.5,339C 137.08,336.426 137.747,334.593 140.5,333.5C 144.489,333.884 148.155,333.217 151.5,331.5C 183.925,318.084 211.258,297.75 233.5,270.5C 234.478,270.977 235.311,271.643 236,272.5C 238.279,277.949 239.779,283.616 240.5,289.5 Z"/></g>
<g><path style="opacity:0.996" fill="#967061" d="M 320.5,286.5 C 333.915,288.639 347.249,290.639 360.5,292.5C 355.156,292.666 349.823,292.499 344.5,292C 336.265,290.631 328.265,288.798 320.5,286.5 Z"/></g>
<g><path style="opacity:0.996" fill="#903f2d" d="M 142.5,290.5 C 142.5,291.5 142.5,292.5 142.5,293.5C 144.5,293.5 146.5,293.5 148.5,293.5C 146.735,294.461 144.735,294.795 142.5,294.5C 141.167,293.167 141.167,291.833 142.5,290.5 Z"/></g>
<g><path style="opacity:0.996" fill="#080807" d="M 421.5,313.5 C 419.052,315.682 417.052,318.348 415.5,321.5C 413.536,325.754 411.869,330.088 410.5,334.5C 407.865,336.339 406.532,339.006 406.5,342.5C 402.919,348.009 399.419,353.676 396,359.5C 394.851,362.393 394.351,365.393 394.5,368.5C 392.473,368.338 390.473,368.505 388.5,369C 387.944,369.383 387.611,369.883 387.5,370.5C 380.02,379.143 371.687,386.977 362.5,394C 344.883,404.641 328.55,416.974 313.5,431C 310.51,431.76 308.01,430.927 306,428.5C 302.468,432.233 298.134,434.233 293,434.5C 279.803,431.597 266.636,430.93 253.5,432.5C 252.833,432.5 252.167,432.5 251.5,432.5C 238.355,434.413 225.355,433.746 212.5,430.5C 209.971,431.025 207.638,432.025 205.5,433.5C 202.362,434.249 199.695,435.583 197.5,437.5C 197.167,437.5 196.833,437.5 196.5,437.5C 189.262,439.198 181.928,439.698 174.5,439C 170.798,436.821 166.798,435.321 162.5,434.5C 160.824,432.166 158.491,431.166 155.5,431.5C 153.599,429.204 151.266,427.371 148.5,426C 144.379,424.771 140.379,423.271 136.5,421.5C 133.232,419.438 130.232,416.938 127.5,414C 125.348,412.587 123.014,411.754 120.5,411.5C 115.244,405.906 109.911,400.24 104.5,394.5C 104.167,393.833 103.833,393.167 103.5,392.5C 104.451,391.081 104.784,389.415 104.5,387.5C 102.5,387.167 100.5,386.833 98.5,386.5C 95.6627,384.598 92.3293,383.931 88.5,384.5C 88.5,382.833 88.5,381.167 88.5,379.5C 86.396,379.799 84.396,379.466 82.5,378.5C 81.4106,375.41 79.4106,373.41 76.5,372.5C 74.8525,370.674 72.8525,369.34 70.5,368.5C 65.8954,364.398 61.3954,360.064 57,355.5C 56.6664,353.153 56.833,350.819 57.5,348.5C 53.7849,348.787 51.4515,347.12 50.5,343.5C 49.9927,339.917 48.9927,336.583 47.5,333.5C 46.5655,332.432 46.2322,331.099 46.5,329.5C 46.238,328.022 46.5713,326.689 47.5,325.5C 48.7277,328.071 50.7277,329.405 53.5,329.5C 52.9862,331.512 52.8195,333.512 53,335.5C 59.0293,342.876 66.196,348.709 74.5,353C 76.7899,354.777 78.4566,356.944 79.5,359.5C 80.5521,361.256 82.2188,361.923 84.5,361.5C 84.2291,363.38 84.8958,364.713 86.5,365.5C 91.822,365.294 96.822,366.46 101.5,369C 102.008,373.518 103.508,377.685 106,381.5C 124.345,397.331 144.845,409.664 167.5,418.5C 169.858,420.129 172.524,421.295 175.5,422C 180.352,422.815 185.019,422.648 189.5,421.5C 197.366,419.486 204.866,416.486 212,412.5C 220.047,414.443 228.214,415.443 236.5,415.5C 255.905,412.504 275.238,412.837 294.5,416.5C 299.704,416.398 304.037,414.398 307.5,410.5C 309.592,413.152 312.258,413.986 315.5,413C 320.532,407.633 325.865,402.633 331.5,398C 344.167,389.333 356.833,380.667 369.5,372C 376.368,364.964 383.368,358.131 390.5,351.5C 393.096,350.735 395.763,350.401 398.5,350.5C 398.5,347.833 398.5,345.167 398.5,342.5C 407.451,326.206 415.951,309.539 424,292.5C 424.333,292.167 424.667,291.833 425,291.5C 425.667,294.5 425.667,297.5 425,300.5C 423.781,304.903 422.614,309.236 421.5,313.5 Z"/></g>
<g><path style="opacity:0.694" fill="#cccac7" d="M 36.5,265.5 C 37.3149,266.429 38.1482,267.429 39,268.5C 40.7599,284.769 42.2599,301.103 43.5,317.5C 41.7713,312.094 40.6046,306.427 40,300.5C 39.2014,288.773 38.0347,277.106 36.5,265.5 Z"/></g>
<g><path style="opacity:0.996" fill="#ab3422" d="M 251.5,273.5 C 252.793,274.842 253.626,276.509 254,278.5C 255.465,283.765 256.632,289.099 257.5,294.5C 258.434,304.819 258.601,315.153 258,325.5C 257.066,326.858 256.232,328.192 255.5,329.5C 257.639,310.516 256.305,291.849 251.5,273.5 Z"/></g>
<g><path style="opacity:0.996" fill="#7b6054" d="M 257.5,294.5 C 258.302,295.952 258.802,297.618 259,299.5C 259.667,308.5 259.667,317.5 259,326.5C 257.085,329.862 256.085,333.529 256,337.5C 255.284,339.879 254.117,341.879 252.5,343.5C 253.503,340.15 254.503,336.817 255.5,333.5C 255.5,332.167 255.5,330.833 255.5,329.5C 256.232,328.192 257.066,326.858 258,325.5C 258.601,315.153 258.434,304.819 257.5,294.5 Z"/></g>
<g><path style="opacity:0.996" fill="#703022" d="M 344.5,306.5 C 339.777,308.225 334.777,309.225 329.5,309.5C 334.223,307.775 339.223,306.775 344.5,306.5 Z"/></g>
<g><path style="opacity:0.02" fill="#aeaeae" d="M 421.5,313.5 C 418.615,320.938 414.948,327.938 410.5,334.5C 411.869,330.088 413.536,325.754 415.5,321.5C 417.052,318.348 419.052,315.682 421.5,313.5 Z"/></g>
<g><path style="opacity:0.098" fill="#e8e8e8" d="M 44.5,328.5 C 45.1667,328.833 45.8333,329.167 46.5,329.5C 46.2322,331.099 46.5655,332.432 47.5,333.5C 47.5,335.167 47.5,336.833 47.5,338.5C 46.2097,335.358 45.2097,332.025 44.5,328.5 Z"/></g>
<g><path style="opacity:0.996" fill="#8b3629" d="M 138.5,329.5 C 138.5,330.5 138.5,331.5 138.5,332.5C 142.869,332.533 147.202,332.2 151.5,331.5C 148.155,333.217 144.489,333.884 140.5,333.5C 139.5,333.5 138.5,333.5 137.5,333.5C 137.232,331.901 137.566,330.568 138.5,329.5 Z"/></g>
<g><path style="opacity:0.51" fill="#a1a1a0" d="M 410.5,334.5 C 410.206,337.754 408.873,340.421 406.5,342.5C 406.532,339.006 407.865,336.339 410.5,334.5 Z"/></g>
<g><path style="opacity:0.486" fill="#666666" d="M 47.5,333.5 C 48.9927,336.583 49.9927,339.917 50.5,343.5C 49.8333,343.167 49.1667,342.833 48.5,342.5C 47.5655,341.432 47.2322,340.099 47.5,338.5C 47.5,336.833 47.5,335.167 47.5,333.5 Z"/></g>
<g><path style="opacity:0.996" fill="#4b4946" d="M 398.5,342.5 C 398.5,345.167 398.5,347.833 398.5,350.5C 395.763,350.401 393.096,350.735 390.5,351.5C 390.611,350.883 390.944,350.383 391.5,350C 393.473,349.505 395.473,349.338 397.5,349.5C 397.198,346.941 397.532,344.607 398.5,342.5 Z"/></g>
<g><path style="opacity:0.996" fill="#473e3a" d="M 255.5,333.5 C 254.503,336.817 253.503,340.15 252.5,343.5C 249.233,352.201 243.899,359.367 236.5,365C 230.143,368.2 225.976,366.367 224,359.5C 218.302,353.468 212.302,347.801 206,342.5C 205.7,340.934 206.2,339.601 207.5,338.5C 215.666,344.499 222.666,351.666 228.5,360C 232.053,360.598 235.386,359.931 238.5,358C 245.683,350.691 251.349,342.524 255.5,333.5 Z"/></g>
<g><path style="opacity:0.031" fill="#a7a7a7" d="M 48.5,342.5 C 49.1667,342.833 49.8333,343.167 50.5,343.5C 51.4515,347.12 53.7849,348.787 57.5,348.5C 56.833,350.819 56.6664,353.153 57,355.5C 61.3954,360.064 65.8954,364.398 70.5,368.5C 63.7743,364.613 58.1077,359.446 53.5,353C 54.0219,352.439 54.3552,351.772 54.5,351C 51.5035,348.842 49.5035,346.009 48.5,342.5 Z"/></g>
<g><path style="opacity:0.996" fill="#3a3937" d="M 79.5,359.5 C 81.717,360.369 84.0504,360.702 86.5,360.5C 86.5,362.167 86.5,363.833 86.5,365.5C 84.8958,364.713 84.2291,363.38 84.5,361.5C 82.2188,361.923 80.5521,361.256 79.5,359.5 Z"/></g>
<g><path style="opacity:0.216" fill="#c0c0c0" d="M 70.5,368.5 C 72.8525,369.34 74.8525,370.674 76.5,372.5C 73.8021,372.155 71.8021,370.822 70.5,368.5 Z"/></g>
<g><path style="opacity:0.388" fill="#5c5c5c" d="M 394.5,368.5 C 392.343,369.407 390.01,370.073 387.5,370.5C 387.611,369.883 387.944,369.383 388.5,369C 390.473,368.505 392.473,368.338 394.5,368.5 Z"/></g>
<g><path style="opacity:0.129" fill="#aaaaaa" d="M 406.5,342.5 C 403.64,349.224 400.473,355.891 397,362.5C 396.503,365.146 396.336,367.813 396.5,370.5C 392.869,370.16 389.536,370.994 386.5,373C 371.556,389.943 354.222,403.943 334.5,415C 327.18,420.655 320.18,426.655 313.5,433C 311.069,433.252 308.735,432.752 306.5,431.5C 302.969,434.265 298.969,435.932 294.5,436.5C 284.282,434.186 273.949,432.852 263.5,432.5C 260.167,432.5 256.833,432.5 253.5,432.5C 266.636,430.93 279.803,431.597 293,434.5C 298.134,434.233 302.468,432.233 306,428.5C 308.01,430.927 310.51,431.76 313.5,431C 328.55,416.974 344.883,404.641 362.5,394C 371.687,386.977 380.02,379.143 387.5,370.5C 390.01,370.073 392.343,369.407 394.5,368.5C 394.351,365.393 394.851,362.393 396,359.5C 399.419,353.676 402.919,348.009 406.5,342.5 Z"/></g>
<g><path style="opacity:0.21" fill="#a4a4a4" d="M 76.5,372.5 C 79.4106,373.41 81.4106,375.41 82.5,378.5C 84.396,379.466 86.396,379.799 88.5,379.5C 88.5,381.167 88.5,382.833 88.5,384.5C 92.3293,383.931 95.6627,384.598 98.5,386.5C 94.8648,385.886 91.1981,385.552 87.5,385.5C 87.5674,382.234 85.9008,380.734 82.5,381C 80.6133,378.05 78.6133,375.216 76.5,372.5 Z"/></g>
<g><path style="opacity:0.012" fill="#b4b4b4" d="M 98.5,386.5 C 100.5,386.833 102.5,387.167 104.5,387.5C 104.784,389.415 104.451,391.081 103.5,392.5C 103.5,391.167 103.5,389.833 103.5,388.5C 101.447,388.598 99.7804,387.931 98.5,386.5 Z"/></g>
<g><path style="opacity:0.008" fill="#919191" d="M 104.5,394.5 C 109.911,400.24 115.244,405.906 120.5,411.5C 115.686,409.005 111.519,405.672 108,401.5C 106.121,399.473 104.954,397.14 104.5,394.5 Z"/></g>
<g><path style="opacity:0.706" fill="#707070" d="M 120.5,411.5 C 123.014,411.754 125.348,412.587 127.5,414C 130.232,416.938 133.232,419.438 136.5,421.5C 134.407,420.955 132.407,420.122 130.5,419C 126.92,416.723 123.586,414.223 120.5,411.5 Z"/></g>
<g><path style="opacity:0.996" fill="#403f3c" d="M 167.5,418.5 C 170.89,419.023 174.223,419.857 177.5,421C 181.486,421.499 185.486,421.666 189.5,421.5C 185.019,422.648 180.352,422.815 175.5,422C 172.524,421.295 169.858,420.129 167.5,418.5 Z"/></g>
<g><path style="opacity:0.565" fill="#949494" d="M 136.5,421.5 C 140.379,423.271 144.379,424.771 148.5,426C 151.266,427.371 153.599,429.204 155.5,431.5C 148.685,428.927 142.351,425.594 136.5,421.5 Z"/></g>
<g><path style="opacity:0.043" fill="#e0e0e0" d="M 251.5,432.5 C 252.167,432.5 252.833,432.5 253.5,432.5C 256.833,432.5 260.167,432.5 263.5,432.5C 259.02,433.521 254.353,434.187 249.5,434.5C 250.167,433.833 250.833,433.167 251.5,432.5 Z"/></g>
<g><path style="opacity:0.02" fill="#aeaeae" d="M 155.5,431.5 C 158.491,431.166 160.824,432.166 162.5,434.5C 159.982,433.736 157.649,432.736 155.5,431.5 Z"/></g>
<g><path style="opacity:0.092" fill="#acacac" d="M 251.5,432.5 C 250.833,433.167 250.167,433.833 249.5,434.5C 237.531,436.156 225.698,435.49 214,432.5C 210.688,433.074 207.522,434.074 204.5,435.5C 204.833,434.833 205.167,434.167 205.5,433.5C 207.638,432.025 209.971,431.025 212.5,430.5C 225.355,433.746 238.355,434.413 251.5,432.5 Z"/></g>
<g><path style="opacity:0.553" fill="#646464" d="M 205.5,433.5 C 205.167,434.167 204.833,434.833 204.5,435.5C 203.791,436.404 202.791,436.737 201.5,436.5C 200.041,436.433 198.708,436.766 197.5,437.5C 199.695,435.583 202.362,434.249 205.5,433.5 Z"/></g>
<g><path style="opacity:0.078" fill="#e4e4e4" d="M 201.5,436.5 C 199.819,438.008 197.819,439.008 195.5,439.5C 195.833,438.833 196.167,438.167 196.5,437.5C 196.833,437.5 197.167,437.5 197.5,437.5C 198.708,436.766 200.041,436.433 201.5,436.5 Z"/></g>
<g><path style="opacity:0.367" fill="#a1a1a1" d="M 162.5,434.5 C 166.798,435.321 170.798,436.821 174.5,439C 181.928,439.698 189.262,439.198 196.5,437.5C 196.167,438.167 195.833,438.833 195.5,439.5C 183.584,442.752 172.584,441.085 162.5,434.5 Z"/></g>
</svg>
