<?xml version="1.0" encoding="UTF-8"?>
<!DOCTYPE svg PUBLIC "-//W3C//DTD SVG 1.1//EN" "http://www.w3.org/Graphics/SVG/1.1/DTD/svg11.dtd">
<svg xmlns="http://www.w3.org/2000/svg" version="1.1" width="60px" height="60px" style="shape-rendering:geometricPrecision; text-rendering:geometricPrecision; image-rendering:optimizeQuality; fill-rule:evenodd; clip-rule:evenodd" xmlns:xlink="http://www.w3.org/1999/xlink">
<g><path style="opacity:1" fill="#000000" d="M 18.5,3.5 C 25.8409,3.33368 33.1742,3.50034 40.5,4C 45.3333,8.83333 50.1667,13.6667 55,18.5C 55.6667,25.8333 55.6667,33.1667 55,40.5C 50.1667,45.3333 45.3333,50.1667 40.5,55C 33.1667,55.6667 25.8333,55.6667 18.5,55C 13.6667,50.1667 8.83333,45.3333 4,40.5C 3.33333,33.1667 3.33333,25.8333 4,18.5C 9.03651,13.6313 13.8698,8.63128 18.5,3.5 Z"/></g>
<g><path style="opacity:1" fill="#7f807f" d="M 19.5,5.5 C 26.175,5.33375 32.8417,5.50042 39.5,6C 44,10.5 48.5,15 53,19.5C 53.6667,26.1667 53.6667,32.8333 53,39.5C 48.5,44 44,48.5 39.5,53C 32.8333,53.6667 26.1667,53.6667 19.5,53C 15,48.5 10.5,44 6,39.5C 5.33333,32.8333 5.33333,26.1667 6,19.5C 10.7033,14.9645 15.2033,10.2979 19.5,5.5 Z"/></g>
<g><path style="opacity:1" fill="#0c8009" d="M 22.5,13.5 C 26.7183,13.7208 27.385,15.2208 24.5,18C 31.1583,18.4996 37.825,18.6663 44.5,18.5C 45.0221,24.9519 44.0221,31.1186 41.5,37C 37.8528,39.4913 34.8528,38.9913 32.5,35.5C 34.9171,34.9278 37.0838,33.9278 39,32.5C 39.5482,28.8296 40.0482,25.1629 40.5,21.5C 34.1318,21.1703 27.7985,21.5037 21.5,22.5C 26.1196,23.4933 30.7863,23.8266 35.5,23.5C 35.5,26.8333 35.5,30.1667 35.5,33.5C 31.5,33.5 27.5,33.5 23.5,33.5C 23.2436,35.7925 23.5769,37.9592 24.5,40C 30.5,40.6667 36.5,40.6667 42.5,40C 43.459,35.6998 45.1257,35.3664 47.5,39C 47.0097,40.982 46.0097,42.6487 44.5,44C 36.8333,44.6667 29.1667,44.6667 21.5,44C 21,43.5 20.5,43 20,42.5C 19.6667,37.1667 19.3333,31.8333 19,26.5C 17.2495,29.9942 15.4162,30.1608 13.5,27C 17.5065,23.1621 20.5065,18.6621 22.5,13.5 Z"/></g>
<g><path style="opacity:1" fill="#7f807f" d="M 23.5,27.5 C 26.5,27.5 29.5,27.5 32.5,27.5C 32.5,28.5 32.5,29.5 32.5,30.5C 29.5,30.5 26.5,30.5 23.5,30.5C 23.5,29.5 23.5,28.5 23.5,27.5 Z"/></g>
</svg>
