<?xml version="1.0" encoding="UTF-8"?>
<!DOCTYPE svg PUBLIC "-//W3C//DTD SVG 1.1//EN" "http://www.w3.org/Graphics/SVG/1.1/DTD/svg11.dtd">
<svg xmlns="http://www.w3.org/2000/svg" version="1.1" width="60px" height="60px" style="shape-rendering:geometricPrecision; text-rendering:geometricPrecision; image-rendering:optimizeQuality; fill-rule:evenodd; clip-rule:evenodd" xmlns:xlink="http://www.w3.org/1999/xlink">
<g><path style="opacity:1" fill="#000000" d="M 18.5,3.5 C 25.8409,3.33368 33.1742,3.50034 40.5,4C 45.3333,8.83333 50.1667,13.6667 55,18.5C 55.6667,25.8333 55.6667,33.1667 55,40.5C 50.1667,45.3333 45.3333,50.1667 40.5,55C 33.1667,55.6667 25.8333,55.6667 18.5,55C 13.6667,50.1667 8.83333,45.3333 4,40.5C 3.33333,33.1667 3.33333,25.8333 4,18.5C 9.03651,13.6313 13.8698,8.63128 18.5,3.5 Z"/></g>
<g><path style="opacity:1" fill="#7f807f" d="M 19.5,5.5 C 26.175,5.33375 32.8417,5.50042 39.5,6C 44,10.5 48.5,15 53,19.5C 53.6667,26.1667 53.6667,32.8333 53,39.5C 48.5,44 44,48.5 39.5,53C 32.8333,53.6667 26.1667,53.6667 19.5,53C 15,48.5 10.5,44 6,39.5C 5.33333,32.8333 5.33333,26.1667 6,19.5C 10.7033,14.9645 15.2033,10.2979 19.5,5.5 Z"/></g>
<g><path style="opacity:1" fill="#0f800c" d="M 45.5,18.5 C 43.4727,18.3379 41.4727,18.5045 39.5,19C 40.0442,19.7172 40.7109,20.2172 41.5,20.5C 43.4233,20.795 45.0899,21.6283 46.5,23C 45.8333,23.6667 45.1667,24.3333 44.5,25C 45.9733,25.7096 46.6399,26.8762 46.5,28.5C 45.5,28.5 44.5,28.5 43.5,28.5C 43.6659,33.5111 43.4993,38.5111 43,43.5C 41.2739,44.5762 39.4406,44.7429 37.5,44C 36.4829,42.9505 36.3162,41.7839 37,40.5C 38.0113,41.3366 39.1779,41.67 40.5,41.5C 40.5,37.1667 40.5,32.8333 40.5,28.5C 36.8333,28.5 33.1667,28.5 29.5,28.5C 30.0522,26.6693 30.0522,25.0026 29.5,23.5C 31.1667,22.3333 32.8333,21.1667 34.5,20C 32.8659,19.5065 31.1992,19.3398 29.5,19.5C 29.5,18.5 29.5,17.5 29.5,16.5C 31.5,16.5 33.5,16.5 35.5,16.5C 35.5,15.5 35.5,14.5 35.5,13.5C 38.7345,14.576 42.0678,15.2427 45.5,15.5C 45.5,16.5 45.5,17.5 45.5,18.5 Z"/></g>
<g><path style="opacity:1" fill="#10800c" d="M 15.5,14.5 C 19.8333,14.5 24.1667,14.5 28.5,14.5C 28.5,15.5 28.5,16.5 28.5,17.5C 27.0222,17.238 25.6888,17.5713 24.5,18.5C 25.325,19.3857 26.325,19.719 27.5,19.5C 27.5,20.5 27.5,21.5 27.5,22.5C 23.5,22.8333 23.5,23.1667 27.5,23.5C 27.5,24.5 27.5,25.5 27.5,26.5C 26.325,26.281 25.325,26.6143 24.5,27.5C 25.6888,28.4287 27.0222,28.762 28.5,28.5C 28.6658,33.1785 28.4992,37.8452 28,42.5C 25.8646,44.2785 23.3646,44.9452 20.5,44.5C 20.3433,43.1266 20.51,41.7932 21,40.5C 22.3333,41.8333 23.6667,41.8333 25,40.5C 25.6667,37.5 25.6667,34.5 25,31.5C 24.8142,33.9005 24.3142,36.2338 23.5,38.5C 22.8333,38.8333 22.1667,39.1667 21.5,39.5C 20.0295,36.6791 20.3628,34.1791 22.5,32C 20.1902,31.5034 17.8568,31.3367 15.5,31.5C 15.5,25.8333 15.5,20.1667 15.5,14.5 Z"/></g>
<g><path style="opacity:1" fill="#7f807f" d="M 18.5,17.5 C 19.675,17.281 20.675,17.6143 21.5,18.5C 19.9483,19.7979 18.9483,19.4646 18.5,17.5 Z"/></g>
<g><path style="opacity:1" fill="#4b804a" d="M 45.5,18.5 C 44.1667,19.1667 42.8333,19.8333 41.5,20.5C 40.7109,20.2172 40.0442,19.7172 39.5,19C 41.4727,18.5045 43.4727,18.3379 45.5,18.5 Z"/></g>
<g><path style="opacity:1" fill="#7b807b" d="M 36.5,22.5 C 38.5115,23.2283 40.5115,24.0617 42.5,25C 39.5,25.6667 36.5,25.6667 33.5,25C 34.9423,24.6232 35.9423,23.7899 36.5,22.5 Z"/></g>
<g><path style="opacity:1" fill="#7f807f" d="M 18.5,26.5 C 19.675,26.281 20.675,26.6143 21.5,27.5C 19.9483,28.7979 18.9483,28.4646 18.5,26.5 Z"/></g>
<g><path style="opacity:1" fill="#008000" d="M 30.5,29.5 C 33.5,29.5 36.5,29.5 39.5,29.5C 39.5,32.5 39.5,35.5 39.5,38.5C 36.5,38.5 33.5,38.5 30.5,38.5C 30.5,35.5 30.5,32.5 30.5,29.5 Z"/></g>
<g><path style="opacity:1" fill="#7f807f" d="M 33.5,32.5 C 35.4646,32.9483 35.7979,33.9483 34.5,35.5C 33.6143,34.675 33.281,33.675 33.5,32.5 Z"/></g>
<g><path style="opacity:1" fill="#198016" d="M 14.5,32.5 C 16.1667,32.5 17.8333,32.5 19.5,32.5C 19.8134,35.2469 19.48,37.9135 18.5,40.5C 17.7492,39.624 17.2492,38.624 17,37.5C 16.5065,39.1341 16.3398,40.8008 16.5,42.5C 15.325,42.719 14.325,42.3857 13.5,41.5C 14.4066,38.5788 14.7399,35.5788 14.5,32.5 Z"/></g>
</svg>
