<?xml version="1.0" encoding="UTF-8"?>
<!DOCTYPE svg PUBLIC "-//W3C//DTD SVG 1.1//EN" "http://www.w3.org/Graphics/SVG/1.1/DTD/svg11.dtd">
<svg xmlns="http://www.w3.org/2000/svg" version="1.1" width="474px" height="472px" style="shape-rendering:geometricPrecision; text-rendering:geometricPrecision; image-rendering:optimizeQuality; fill-rule:evenodd; clip-rule:evenodd" xmlns:xlink="http://www.w3.org/1999/xlink">
<g><path style="opacity:0.996" fill="#97948e" d="M 284.5,55.5 C 291.212,57.3491 297.878,59.5158 304.5,62C 307.606,63.6365 310.773,65.1365 314,66.5C 316.795,68.0489 319.128,70.0489 321,72.5C 322.356,71.6198 323.856,71.2865 325.5,71.5C 332.297,75.7356 339.297,79.7356 346.5,83.5C 353.336,86.6622 359.003,91.3288 363.5,97.5C 363.84,109.839 370.173,115.506 382.5,114.5C 382.5,116.167 382.5,117.833 382.5,119.5C 385.308,119.693 387.975,120.36 390.5,121.5C 390.5,122.833 390.5,124.167 390.5,125.5C 400.267,129.335 408.767,135.335 416,143.5C 416.624,145.464 416.124,147.131 414.5,148.5C 416.386,149.406 418.22,150.406 420,151.5C 421.984,159.437 424.484,167.104 427.5,174.5C 427.833,175.167 428.167,175.833 428.5,176.5C 427.839,178.134 427.506,179.967 427.5,182C 429.048,194.778 429.881,207.611 430,220.5C 430.687,224.58 431.687,228.58 433,232.5C 433.417,233.756 434.25,234.423 435.5,234.5C 438.099,239.238 439.766,244.405 440.5,250C 440.338,253.822 439.005,257.156 436.5,260C 437.101,261.605 438.101,262.938 439.5,264C 439,264.5 438.5,265 438,265.5C 437.232,274.181 436.399,282.848 435.5,291.5C 435.335,293.827 434.669,295.993 433.5,298C 433.493,299.583 433.826,301.249 434.5,303C 433.868,306.27 433.201,309.437 432.5,312.5C 432.167,312.5 431.833,312.5 431.5,312.5C 432.332,307.519 432.498,302.519 432,297.5C 423.368,315.103 414.368,332.436 405,349.5C 404.503,351.81 404.337,354.143 404.5,356.5C 401.68,356.248 399.014,356.748 396.5,358C 390.226,365.276 383.559,372.276 376.5,379C 363.833,387.667 351.167,396.333 338.5,405C 332.865,409.633 327.532,414.633 322.5,420C 319.258,420.986 316.592,420.152 314.5,417.5C 312.33,420.012 309.663,421.679 306.5,422.5C 298.784,422.133 291.118,421.466 283.5,420.5C 269.793,420.411 256.126,421.078 242.5,422.5C 234.504,422.967 226.837,421.634 219.5,418.5C 208.369,426.038 196.035,429.205 182.5,428C 157.634,420.071 135.301,407.738 115.5,391C 113.432,388.358 111.765,385.525 110.5,382.5C 111.01,379.612 110.344,377.279 108.5,375.5C 106.786,374.262 104.786,373.595 102.5,373.5C 99.7131,372.523 96.7131,372.19 93.5,372.5C 93.5,370.5 93.5,368.5 93.5,366.5C 92.209,366.263 91.209,366.596 90.5,367.5C 89.448,367.649 88.448,367.483 87.5,367C 85.8333,364.667 84.1667,362.333 82.5,360C 70.9435,354.939 62.9435,347.106 58.5,336.5C 56.9228,333.95 54.9228,331.95 52.5,330.5C 49.9717,310.726 47.3051,291.06 44.5,271.5C 45.8963,265.878 45.5629,260.211 43.5,254.5C 42.4116,253.066 41.0783,252.066 39.5,251.5C 39.4163,246.685 37.7496,242.685 34.5,239.5C 34.2837,233.981 35.9503,229.148 39.5,225C 39.2409,223.739 38.5742,222.739 37.5,222C 38.7143,219.649 39.5477,217.149 40,214.5C 40.0971,206.061 40.9304,197.728 42.5,189.5C 52.6378,171.99 62.1378,153.99 71,135.5C 71.4966,133.19 71.6633,130.857 71.5,128.5C 73.7354,128.795 75.7354,128.461 77.5,127.5C 82.1667,122.167 87.1667,117.167 92.5,112.5C 95.2682,110.913 97.9348,109.08 100.5,107C 101.252,106.329 101.586,105.496 101.5,104.5C 109.305,98.0942 117.639,92.4275 126.5,87.5C 128.693,86.3195 131.026,85.3195 133.5,84.5C 137.706,80.1298 142.372,76.2965 147.5,73C 150.076,69.9372 152.409,66.7705 154.5,63.5C 154.833,63.5 155.167,63.5 155.5,63.5C 156.59,65.6491 158.424,66.9825 161,67.5C 163.39,66.7221 165.557,65.5555 167.5,64C 169.833,63.8333 172.167,63.6667 174.5,63.5C 183.269,64.889 192.103,65.5556 201,65.5C 215.165,64.75 229.332,64.0834 243.5,63.5C 247.639,63.3293 251.639,63.996 255.5,65.5C 264.586,60.582 274.253,57.2486 284.5,55.5 Z"/></g>
<g><path style="opacity:0.286" fill="#ccc9c6" d="M 284.5,55.5 C 289.333,55.3746 294,56.2079 298.5,58C 308.151,61.5561 317.151,66.0561 325.5,71.5C 323.856,71.2865 322.356,71.6198 321,72.5C 319.128,70.0489 316.795,68.0489 314,66.5C 310.773,65.1365 307.606,63.6365 304.5,62C 297.878,59.5158 291.212,57.3491 284.5,55.5 Z"/></g>
<g><path style="opacity:0.169" fill="#c5c4c0" d="M 243.5,63.5 C 229.332,64.0834 215.165,64.75 201,65.5C 192.103,65.5556 183.269,64.889 174.5,63.5C 172.167,63.6667 169.833,63.8333 167.5,64C 165.557,65.5555 163.39,66.7221 161,67.5C 158.424,66.9825 156.59,65.6491 155.5,63.5C 157.386,64.3606 159.22,65.3606 161,66.5C 164.54,62.8738 168.874,61.2072 174,61.5C 182.748,63.0684 191.581,64.0684 200.5,64.5C 211.829,63.7595 223.162,63.0928 234.5,62.5C 237.686,62.502 240.686,62.8353 243.5,63.5 Z"/></g>
<g><path style="opacity:0.196" fill="#c6c5c2" d="M 154.5,63.5 C 152.409,66.7705 150.076,69.9372 147.5,73C 142.372,76.2965 137.706,80.1298 133.5,84.5C 131.026,85.3195 128.693,86.3195 126.5,87.5C 136.206,79.9736 145.539,71.9736 154.5,63.5 Z"/></g>
<g><path style="opacity:0.306" fill="#d2d1cf" d="M 325.5,71.5 C 329.392,72.4461 333.059,73.9461 336.5,76C 340.08,78.2774 343.414,80.7774 346.5,83.5C 339.297,79.7356 332.297,75.7356 325.5,71.5 Z"/></g>
<g><path style="opacity:0.2" fill="#d4d4d1" d="M 101.5,104.5 C 101.586,105.496 101.252,106.329 100.5,107C 97.9348,109.08 95.2682,110.913 92.5,112.5C 94.8797,109.119 97.8797,106.453 101.5,104.5 Z"/></g>
<g><path style="opacity:0.844" fill="#c3c2be" d="M 363.5,97.5 C 366.377,101.218 368.377,105.384 369.5,110C 373.416,111.102 377.416,111.769 381.5,112C 383.863,112.589 384.863,114.089 384.5,116.5C 386.288,116.215 387.955,116.548 389.5,117.5C 391.267,120.77 393.6,123.603 396.5,126C 403.912,130.741 410.745,136.241 417,142.5C 416.684,146.137 418.018,148.804 421,150.5C 424.76,158.054 426.927,166.054 427.5,174.5C 424.484,167.104 421.984,159.437 420,151.5C 418.22,150.406 416.386,149.406 414.5,148.5C 416.124,147.131 416.624,145.464 416,143.5C 408.767,135.335 400.267,129.335 390.5,125.5C 390.5,124.167 390.5,122.833 390.5,121.5C 387.975,120.36 385.308,119.693 382.5,119.5C 382.5,117.833 382.5,116.167 382.5,114.5C 370.173,115.506 363.84,109.839 363.5,97.5 Z"/></g>
<g><path style="opacity:0.996" fill="#326f23" d="M 204.5,138.5 C 199.41,140.212 194.744,142.712 190.5,146C 180.272,154.677 170.605,163.843 161.5,173.5C 164.1,174.846 166.433,174.512 168.5,172.5C 178.851,170.992 188.518,167.492 197.5,162C 207.482,160.493 216.148,163.327 223.5,170.5C 224.694,172.516 224.694,174.516 223.5,176.5C 214.397,181.936 209.397,189.936 208.5,200.5C 209.051,203.807 209.384,207.14 209.5,210.5C 204.535,212.085 199.535,213.585 194.5,215C 182.159,216.885 169.826,218.719 157.5,220.5C 157.5,222.5 157.5,224.5 157.5,226.5C 157.5,231.5 157.5,236.5 157.5,241.5C 172.845,240.094 187.345,236.094 201,229.5C 206.119,231.655 211.286,233.821 216.5,236C 219.962,238.239 221.295,241.406 220.5,245.5C 218.284,246.203 216.451,247.536 215,249.5C 210.757,254.606 207.924,260.439 206.5,267C 206.528,268.07 206.861,268.903 207.5,269.5C 208.315,270.837 209.482,271.837 211,272.5C 211.556,274.885 211.39,277.218 210.5,279.5C 199.645,282.071 188.645,283.737 177.5,284.5C 170.938,284.337 164.605,285.004 158.5,286.5C 157.833,286.5 157.5,286.833 157.5,287.5C 156.508,294.982 156.175,302.648 156.5,310.5C 155.2,314.001 154.034,317.667 153,321.5C 150.068,325.388 147.068,325.388 144,321.5C 142.722,317.302 141.222,313.302 139.5,309.5C 141.28,300.671 142.614,291.671 143.5,282.5C 144.663,256.337 144.83,230.003 144,203.5C 143.79,201.942 143.29,200.609 142.5,199.5C 142.5,198.833 142.5,198.167 142.5,197.5C 142.83,190.189 141.163,183.522 137.5,177.5C 134.742,170.989 136.742,168.489 143.5,170C 145.684,170.867 147.851,171.701 150,172.5C 151.107,172.415 152.107,172.081 153,171.5C 159.579,162.675 165.913,153.675 172,144.5C 175.377,137.425 177.877,130.091 179.5,122.5C 181.765,121.353 184.098,121.186 186.5,122C 193.041,124.853 199.207,128.353 205,132.5C 205.678,134.598 205.511,136.598 204.5,138.5 Z"/></g>
<g><path style="opacity:0.996" fill="#316e22" d="M 295.5,141.5 C 292.177,145.826 290.844,150.826 291.5,156.5C 290.612,168.14 290.279,179.807 290.5,191.5C 300.899,189.145 310.899,185.812 320.5,181.5C 328.407,183.234 336.073,185.734 343.5,189C 346.605,191.254 347.272,194.087 345.5,197.5C 342.402,200.793 341.069,204.793 341.5,209.5C 341.978,225.523 341.978,241.523 341.5,257.5C 339.086,265.158 335.42,272.325 330.5,279C 327.8,281.368 324.8,281.868 321.5,280.5C 318.295,269.716 311.629,262.05 301.5,257.5C 299.615,255.947 298.615,253.947 298.5,251.5C 306.564,252.531 314.564,252.531 322.5,251.5C 324.13,249.974 324.963,247.974 325,245.5C 325.824,236.324 325.657,227.324 324.5,218.5C 324.736,215.391 324.403,212.391 323.5,209.5C 323.322,206.784 322.822,204.117 322,201.5C 320.871,199.859 319.371,198.859 317.5,198.5C 315.866,197.839 314.033,197.506 312,197.5C 308.85,197.36 306.017,198.027 303.5,199.5C 299.177,200.495 294.844,201.495 290.5,202.5C 289.667,238.664 289.167,274.998 289,311.5C 287.77,318.445 287.27,325.445 287.5,332.5C 287.5,333.833 287.5,335.167 287.5,336.5C 286.111,341.269 285.444,346.269 285.5,351.5C 284.616,354.023 283.782,356.69 283,359.5C 281.556,361.155 279.722,361.822 277.5,361.5C 276.735,358.904 276.401,356.237 276.5,353.5C 276.4,331.657 275.733,309.99 274.5,288.5C 274.5,263.167 274.5,237.833 274.5,212.5C 274.5,210.5 274.5,208.5 274.5,206.5C 266.153,206.897 257.987,208.23 250,210.5C 247.581,212.17 247.081,214.17 248.5,216.5C 250.043,236.539 249.71,256.539 247.5,276.5C 245.804,278.268 244.47,280.435 243.5,283C 241.833,283.667 240.167,283.667 238.5,283C 235.195,279.536 232.528,275.703 230.5,271.5C 232.542,254.845 232.875,238.178 231.5,221.5C 231.973,215.609 230.64,210.276 227.5,205.5C 227.5,203.167 227.5,200.833 227.5,198.5C 233.479,199.126 239.312,200.126 245,201.5C 254.263,200.558 263.429,199.058 272.5,197C 273.056,196.617 273.389,196.117 273.5,195.5C 274.66,183.007 274.827,170.34 274,157.5C 273.665,153.264 272.832,149.264 271.5,145.5C 270.376,139.915 267.709,135.248 263.5,131.5C 261.478,129.581 261.144,127.414 262.5,125C 274.746,124.305 285.579,127.805 295,135.5C 295.495,137.473 295.662,139.473 295.5,141.5 Z"/></g>
<g><path style="opacity:0.996" fill="#40453e" d="M 263.5,131.5 C 267.709,135.248 270.376,139.915 271.5,145.5C 271.5,146.167 271.5,146.833 271.5,147.5C 269.956,144.443 267.789,141.776 265,139.5C 262.841,136.919 262.341,134.253 263.5,131.5 Z"/></g>
<g><path style="opacity:0.996" fill="#3d423b" d="M 204.5,138.5 C 207.124,140.198 207.124,142.031 204.5,144C 190.593,151.071 178.593,160.571 168.5,172.5C 166.433,174.512 164.1,174.846 161.5,173.5C 170.605,163.843 180.272,154.677 190.5,146C 194.744,142.712 199.41,140.212 204.5,138.5 Z"/></g>
<g><path style="opacity:0.996" fill="#3e5639" d="M 295.5,141.5 C 294.662,146.718 293.328,151.718 291.5,156.5C 290.844,150.826 292.177,145.826 295.5,141.5 Z"/></g>
<g><path style="opacity:0.545" fill="#d0cecb" d="M 77.5,127.5 C 75.7354,128.461 73.7354,128.795 71.5,128.5C 71.6633,130.857 71.4966,133.19 71,135.5C 62.1378,153.99 52.6378,171.99 42.5,189.5C 50.8757,170.385 60.209,151.718 70.5,133.5C 69.5153,131.902 69.3486,130.235 70,128.5C 72.3806,127.565 74.8806,127.232 77.5,127.5 Z"/></g>
<g><path style="opacity:0.996" fill="#486c41" d="M 271.5,145.5 C 272.832,149.264 273.665,153.264 274,157.5C 274.827,170.34 274.66,183.007 273.5,195.5C 273.967,179.429 273.3,163.429 271.5,147.5C 271.5,146.833 271.5,146.167 271.5,145.5 Z"/></g>
<g><path style="opacity:0.996" fill="#30552a" d="M 195.5,178.5 C 191.833,178.5 188.167,178.5 184.5,178.5C 186.74,177.313 189.24,176.646 192,176.5C 193.681,176.608 194.848,177.275 195.5,178.5 Z"/></g>
<g><path style="opacity:0.996" fill="#3d403c" d="M 184.5,178.5 C 188.167,178.5 191.833,178.5 195.5,178.5C 197.28,179.99 197.946,181.99 197.5,184.5C 196.258,183.957 194.925,183.623 193.5,183.5C 181.38,184.644 169.38,186.31 157.5,188.5C 157.5,187.167 157.5,185.833 157.5,184.5C 166.249,181.955 175.249,179.955 184.5,178.5 Z"/></g>
<g><path style="opacity:0.996" fill="#3f463d" d="M 223.5,176.5 C 224.666,178.166 224.666,179.833 223.5,181.5C 216.604,186.389 211.604,192.722 208.5,200.5C 209.397,189.936 214.397,181.936 223.5,176.5 Z"/></g>
<g><path style="opacity:0.996" fill="#95938c" d="M 197.5,184.5 C 196.819,191.47 194.819,197.97 191.5,204C 181.483,206.569 171.483,209.069 161.5,211.5C 160.167,211.5 158.833,211.5 157.5,211.5C 157.5,203.833 157.5,196.167 157.5,188.5C 169.38,186.31 181.38,184.644 193.5,183.5C 194.925,183.623 196.258,183.957 197.5,184.5 Z"/></g>
<g><path style="opacity:0.996" fill="#5e6559" d="M 137.5,177.5 C 141.163,183.522 142.83,190.189 142.5,197.5C 140.406,192.3 138.573,186.966 137,181.5C 136.235,179.934 136.402,178.601 137.5,177.5 Z"/></g>
<g><path style="opacity:0.996" fill="#647c5e" d="M 157.5,184.5 C 157.5,185.833 157.5,187.167 157.5,188.5C 157.5,196.167 157.5,203.833 157.5,211.5C 158.833,211.5 160.167,211.5 161.5,211.5C 160.081,212.451 158.415,212.784 156.5,212.5C 156.173,202.985 156.506,193.652 157.5,184.5 Z"/></g>
<g><path style="opacity:0.996" fill="#314e2d" d="M 317.5,198.5 C 312.797,198.437 308.13,198.771 303.5,199.5C 306.017,198.027 308.85,197.36 312,197.5C 314.033,197.506 315.866,197.839 317.5,198.5 Z"/></g>
<g><path style="opacity:0.996" fill="#3c3f3c" d="M 317.5,198.5 C 319.371,198.859 320.871,199.859 322,201.5C 322.822,204.117 323.322,206.784 323.5,209.5C 321.188,205.175 317.522,203.175 312.5,203.5C 305.157,204.834 297.824,206.167 290.5,207.5C 290.5,205.833 290.5,204.167 290.5,202.5C 294.844,201.495 299.177,200.495 303.5,199.5C 308.13,198.771 312.797,198.437 317.5,198.5 Z"/></g>
<g><path style="opacity:0.996" fill="#414c3d" d="M 345.5,197.5 C 346.124,197.917 346.457,198.584 346.5,199.5C 345.107,202.865 343.773,206.198 342.5,209.5C 342.167,209.5 341.833,209.5 341.5,209.5C 341.069,204.793 342.402,200.793 345.5,197.5 Z"/></g>
<g><path style="opacity:0.996" fill="#3b413a" d="M 274.5,212.5 C 265.779,213.514 257.112,214.847 248.5,216.5C 247.081,214.17 247.581,212.17 250,210.5C 257.987,208.23 266.153,206.897 274.5,206.5C 274.5,208.5 274.5,210.5 274.5,212.5 Z"/></g>
<g><path style="opacity:0.996" fill="#517849" d="M 290.5,202.5 C 290.5,204.167 290.5,205.833 290.5,207.5C 290.833,244.506 290.5,281.506 289.5,318.5C 288.833,323.317 288.166,327.983 287.5,332.5C 287.27,325.445 287.77,318.445 289,311.5C 289.167,274.998 289.667,238.664 290.5,202.5 Z"/></g>
<g><path style="opacity:0.996" fill="#3f413e" d="M 209.5,210.5 C 210.145,213.547 209.145,215.713 206.5,217C 201.543,218.489 196.543,219.822 191.5,221C 180.189,222.941 168.856,224.774 157.5,226.5C 157.5,224.5 157.5,222.5 157.5,220.5C 169.826,218.719 182.159,216.885 194.5,215C 199.535,213.585 204.535,212.085 209.5,210.5 Z"/></g>
<g><path style="opacity:0.996" fill="#4d5a49" d="M 227.5,205.5 C 230.64,210.276 231.973,215.609 231.5,221.5C 230.273,218.584 229.107,215.584 228,212.5C 227.503,210.19 227.337,207.857 227.5,205.5 Z"/></g>
<g><path style="opacity:0.996" fill="#77846f" d="M 341.5,209.5 C 341.833,209.5 342.167,209.5 342.5,209.5C 343.028,225.168 343.195,240.834 343,256.5C 342.617,257.056 342.117,257.389 341.5,257.5C 341.978,241.523 341.978,225.523 341.5,209.5 Z"/></g>
<g><path style="opacity:0.518" fill="#d6d5d2" d="M 42.5,189.5 C 40.9304,197.728 40.0971,206.061 40,214.5C 39.5477,217.149 38.7143,219.649 37.5,222C 38.5742,222.739 39.2409,223.739 39.5,225C 35.9503,229.148 34.2837,233.981 34.5,239.5C 32.9398,234.46 33.9398,229.793 37.5,225.5C 36.6872,224.186 35.6872,223.019 34.5,222C 35.6667,220.5 36.8333,219 38,217.5C 38.1689,209.116 38.8355,200.782 40,192.5C 40.3768,191.058 41.2101,190.058 42.5,189.5 Z"/></g>
<g><path style="opacity:0.024" fill="#dad9d7" d="M 428.5,176.5 C 430.109,192.115 431.275,207.782 432,223.5C 433.017,227.244 434.184,230.911 435.5,234.5C 434.25,234.423 433.417,233.756 433,232.5C 431.687,228.58 430.687,224.58 430,220.5C 429.881,207.611 429.048,194.778 427.5,182C 427.506,179.967 427.839,178.134 428.5,176.5 Z"/></g>
<g><path style="opacity:0.996" fill="#667d5f" d="M 142.5,199.5 C 143.29,200.609 143.79,201.942 144,203.5C 144.83,230.003 144.663,256.337 143.5,282.5C 143.79,254.812 143.457,227.145 142.5,199.5 Z"/></g>
<g><path style="opacity:0.996" fill="#3c3f3b" d="M 195.5,252.5 C 193.712,252.029 191.878,251.696 190,251.5C 179.209,253.287 168.375,254.954 157.5,256.5C 156.425,252.062 158.092,250.062 162.5,250.5C 169.229,250.49 175.895,249.823 182.5,248.5C 184.333,248.415 185.666,247.748 186.5,246.5C 188.966,245.366 191.633,245.199 194.5,246C 195.423,248.041 195.756,250.208 195.5,252.5 Z"/></g>
<g><path style="opacity:0.996" fill="#3f453d" d="M 220.5,245.5 C 220.66,247.199 220.494,248.866 220,250.5C 213.971,255.679 209.804,262.013 207.5,269.5C 206.861,268.903 206.528,268.07 206.5,267C 207.924,260.439 210.757,254.606 215,249.5C 216.451,247.536 218.284,246.203 220.5,245.5 Z"/></g>
<g><path style="opacity:0.996" fill="#344831" d="M 186.5,246.5 C 185.666,247.748 184.333,248.415 182.5,248.5C 175.895,249.823 169.229,250.49 162.5,250.5C 170.268,248.551 178.268,247.217 186.5,246.5 Z"/></g>
<g><path style="opacity:0.996" fill="#4a7640" d="M 324.5,218.5 C 325.657,227.324 325.824,236.324 325,245.5C 324.963,247.974 324.13,249.974 322.5,251.5C 324.247,240.597 324.913,229.597 324.5,218.5 Z"/></g>
<g><path style="opacity:0.278" fill="#bebdbd" d="M 34.5,239.5 C 37.7496,242.685 39.4163,246.685 39.5,251.5C 38.3499,255.808 38.3499,260.141 39.5,264.5C 36.1657,259.783 35.8324,254.783 38.5,249.5C 36.5936,246.36 35.2603,243.027 34.5,239.5 Z"/></g>
<g><path style="opacity:0.994" fill="#161616" d="M 39.5,251.5 C 41.0783,252.066 42.4116,253.066 43.5,254.5C 45.5629,260.211 45.8963,265.878 44.5,271.5C 43.5265,268.865 41.8598,266.865 39.5,265.5C 39.5,265.167 39.5,264.833 39.5,264.5C 38.3499,260.141 38.3499,255.808 39.5,251.5 Z"/></g>
<g><path style="opacity:0.996" fill="#93928b" d="M 195.5,252.5 C 195.225,259.499 192.891,265.665 188.5,271C 178.47,274.506 168.136,276.673 157.5,277.5C 157.5,270.5 157.5,263.5 157.5,256.5C 168.375,254.954 179.209,253.287 190,251.5C 191.878,251.696 193.712,252.029 195.5,252.5 Z"/></g>
<g><path style="opacity:0.996" fill="#41453f" d="M 301.5,257.5 C 311.629,262.05 318.295,269.716 321.5,280.5C 324.8,281.868 327.8,281.368 330.5,279C 335.42,272.325 339.086,265.158 341.5,257.5C 340.865,268.608 336.532,278.108 328.5,286C 326.098,286.814 323.765,286.647 321.5,285.5C 317.26,276.079 310.594,268.579 301.5,263C 299.393,261.736 298.393,259.903 298.5,257.5C 299.5,257.5 300.5,257.5 301.5,257.5 Z"/></g>
<g><path style="opacity:0.996" fill="#3c3f3c" d="M 210.5,279.5 C 211.145,282.547 210.145,284.713 207.5,286C 201.053,287.257 194.72,288.423 188.5,289.5C 178.268,289.655 168.268,290.655 158.5,292.5C 157.549,291.081 157.216,289.415 157.5,287.5C 157.5,286.833 157.833,286.5 158.5,286.5C 165.05,286.546 171.383,285.879 177.5,284.5C 188.645,283.737 199.645,282.071 210.5,279.5 Z"/></g>
<g><path style="opacity:0.996" fill="#3f433e" d="M 230.5,271.5 C 232.528,275.703 235.195,279.536 238.5,283C 240.167,283.667 241.833,283.667 243.5,283C 244.47,280.435 245.804,278.268 247.5,276.5C 247.154,280.377 245.988,284.043 244,287.5C 241.861,288.769 239.695,288.769 237.5,287.5C 232.97,283.109 230.637,277.775 230.5,271.5 Z"/></g>
<g><path style="opacity:0.996" fill="#30532b" d="M 177.5,284.5 C 171.383,285.879 165.05,286.546 158.5,286.5C 164.605,285.004 170.938,284.337 177.5,284.5 Z"/></g>
<g><path style="opacity:0.325" fill="#d5d4d2" d="M 435.5,234.5 C 441.597,241.047 443.431,248.713 441,257.5C 437.714,259.809 437.881,261.976 441.5,264C 440.667,264.833 439.833,265.667 439,266.5C 438.278,274.162 437.612,281.829 437,289.5C 436.722,290.416 436.222,291.082 435.5,291.5C 436.399,282.848 437.232,274.181 438,265.5C 438.5,265 439,264.5 439.5,264C 438.101,262.938 437.101,261.605 436.5,260C 439.005,257.156 440.338,253.822 440.5,250C 439.766,244.405 438.099,239.238 435.5,234.5 Z"/></g>
<g><path style="opacity:0.996" fill="#706e6b" d="M 188.5,289.5 C 178.732,291.345 168.732,292.345 158.5,292.5C 168.268,290.655 178.268,289.655 188.5,289.5 Z"/></g>
<g><path style="opacity:0.996" fill="#070707" d="M 431.5,312.5 C 425.874,322.664 420.374,332.997 415,343.5C 414.187,345.436 413.687,347.436 413.5,349.5C 409.125,355.744 405.292,362.41 402,369.5C 401.505,371.473 401.338,373.473 401.5,375.5C 399.473,375.338 397.473,375.505 395.5,376C 394.944,376.383 394.611,376.883 394.5,377.5C 388.029,383.47 381.696,389.637 375.5,396C 362.516,405.826 349.183,415.159 335.5,424C 330.5,428.667 325.5,433.333 320.5,438C 317.51,438.76 315.01,437.927 313,435.5C 311.159,438.177 308.659,439.844 305.5,440.5C 301.833,440.5 298.167,440.5 294.5,440.5C 290.989,440.101 287.656,439.434 284.5,438.5C 277.011,437.344 269.345,437.178 261.5,438C 260.944,438.383 260.611,438.883 260.5,439.5C 258.5,439.5 256.5,439.5 254.5,439.5C 244.836,440.792 235.169,440.792 225.5,439.5C 223.799,438.266 221.799,437.599 219.5,437.5C 213.406,439.712 207.406,442.212 201.5,445C 193.769,447.108 186.102,446.942 178.5,444.5C 168.153,439.659 157.819,434.826 147.5,430C 142.919,427.361 138.585,424.361 134.5,421C 132.348,419.587 130.014,418.754 127.5,418.5C 123.183,413.907 118.85,409.24 114.5,404.5C 114.112,401.121 113.445,397.788 112.5,394.5C 110.55,393.628 108.55,392.961 106.5,392.5C 102.936,391.577 99.2693,391.244 95.5,391.5C 95.5,389.833 95.5,388.167 95.5,386.5C 93.396,386.799 91.396,386.466 89.5,385.5C 88.2335,380.731 85.2335,377.898 80.5,377C 74.6458,372.144 69.1458,366.977 64,361.5C 63.3486,359.765 63.5153,358.098 64.5,356.5C 62.4332,355.866 60.5998,354.866 59,353.5C 57.7273,350.511 56.5606,347.511 55.5,344.5C 55.3679,341.111 55.2012,337.777 55,334.5C 55.8159,335.823 56.9826,336.489 58.5,336.5C 62.9435,347.106 70.9435,354.939 82.5,360C 84.1667,362.333 85.8333,364.667 87.5,367C 88.448,367.483 89.448,367.649 90.5,367.5C 92.3079,368.918 92.9746,370.918 92.5,373.5C 95.8333,373.5 99.1667,373.5 102.5,373.5C 104.786,373.595 106.786,374.262 108.5,375.5C 109.065,377.952 109.732,380.285 110.5,382.5C 111.765,385.525 113.432,388.358 115.5,391C 135.301,407.738 157.634,420.071 182.5,428C 196.035,429.205 208.369,426.038 219.5,418.5C 226.837,421.634 234.504,422.967 242.5,422.5C 256.126,421.078 269.793,420.411 283.5,420.5C 286.758,421.171 290.091,422.004 293.5,423C 298.02,423.814 302.354,423.647 306.5,422.5C 309.663,421.679 312.33,420.012 314.5,417.5C 316.592,420.152 319.258,420.986 322.5,420C 327.532,414.633 332.865,409.633 338.5,405C 351.167,396.333 363.833,387.667 376.5,379C 383.559,372.276 390.226,365.276 396.5,358C 399.014,356.748 401.68,356.248 404.5,356.5C 404.337,354.143 404.503,351.81 405,349.5C 414.368,332.436 423.368,315.103 432,297.5C 432.498,302.519 432.332,307.519 431.5,312.5 Z"/></g>
<g><path style="opacity:0.345" fill="#d2d1cf" d="M 39.5,265.5 C 41.8598,266.865 43.5265,268.865 44.5,271.5C 47.3051,291.06 49.9717,310.726 52.5,330.5C 53.0508,333.807 53.3841,337.14 53.5,340.5C 48.3878,320.282 45.5544,299.615 45,278.5C 44.2183,273.636 42.385,269.302 39.5,265.5 Z"/></g>
<g><path style="opacity:0.996" fill="#484c46" d="M 139.5,309.5 C 141.222,313.302 142.722,317.302 144,321.5C 147.068,325.388 150.068,325.388 153,321.5C 154.034,317.667 155.2,314.001 156.5,310.5C 156.608,316.738 155.441,322.738 153,328.5C 148.32,330.605 144.987,329.272 143,324.5C 140.728,319.747 139.562,314.747 139.5,309.5 Z"/></g>
<g><path style="opacity:0.02" fill="#afafaf" d="M 431.5,312.5 C 431.833,312.5 432.167,312.5 432.5,312.5C 426.929,325.311 420.596,337.644 413.5,349.5C 413.687,347.436 414.187,345.436 415,343.5C 420.374,332.997 425.874,322.664 431.5,312.5 Z"/></g>
<g><path style="opacity:0.965" fill="#444342" d="M 52.5,330.5 C 54.9228,331.95 56.9228,333.95 58.5,336.5C 56.9826,336.489 55.8159,335.823 55,334.5C 55.2012,337.777 55.3679,341.111 55.5,344.5C 54.8333,343.167 54.1667,341.833 53.5,340.5C 53.3841,337.14 53.0508,333.807 52.5,330.5 Z"/></g>
<g><path style="opacity:0.996" fill="#3e6e34" d="M 274.5,288.5 C 275.733,309.99 276.4,331.657 276.5,353.5C 275.042,332.017 274.375,310.35 274.5,288.5 Z"/></g>
<g><path style="opacity:0.996" fill="#52654c" d="M 287.5,336.5 C 287.556,341.731 286.889,346.731 285.5,351.5C 285.444,346.269 286.111,341.269 287.5,336.5 Z"/></g>
<g><path style="opacity:0.22" fill="#b3b3b3" d="M 53.5,340.5 C 54.1667,341.833 54.8333,343.167 55.5,344.5C 56.5606,347.511 57.7273,350.511 59,353.5C 60.5998,354.866 62.4332,355.866 64.5,356.5C 63.5153,358.098 63.3486,359.765 64,361.5C 69.1458,366.977 74.6458,372.144 80.5,377C 85.2335,377.898 88.2335,380.731 89.5,385.5C 91.396,386.466 93.396,386.799 95.5,386.5C 95.5,388.167 95.5,389.833 95.5,391.5C 99.2693,391.244 102.936,391.577 106.5,392.5C 106.833,393.167 107.167,393.833 107.5,394.5C 103.469,393.996 99.469,393.33 95.5,392.5C 94.7379,391.372 94.0712,390.205 93.5,389C 91.2088,389.811 89.3754,388.977 88,386.5C 87.1166,383.898 85.6166,381.731 83.5,380C 71.1568,373.328 61.9901,363.828 56,351.5C 54.5597,347.959 53.7264,344.292 53.5,340.5 Z"/></g>
<g><path style="opacity:0.996" fill="#424740" d="M 285.5,351.5 C 286.034,356.901 284.867,361.901 282,366.5C 280.817,367.731 279.651,367.731 278.5,366.5C 277.691,364.929 277.357,363.262 277.5,361.5C 279.722,361.822 281.556,361.155 283,359.5C 283.782,356.69 284.616,354.023 285.5,351.5 Z"/></g>
<g><path style="opacity:0.996" fill="#393936" d="M 90.5,367.5 C 91.209,366.596 92.209,366.263 93.5,366.5C 93.5,368.5 93.5,370.5 93.5,372.5C 96.7131,372.19 99.7131,372.523 102.5,373.5C 99.1667,373.5 95.8333,373.5 92.5,373.5C 92.9746,370.918 92.3079,368.918 90.5,367.5 Z"/></g>
<g><path style="opacity:0.42" fill="#636363" d="M 401.5,375.5 C 399.343,376.407 397.01,377.073 394.5,377.5C 394.611,376.883 394.944,376.383 395.5,376C 397.473,375.505 399.473,375.338 401.5,375.5 Z"/></g>
<g><path style="opacity:0.996" fill="#4a4845" d="M 108.5,375.5 C 110.344,377.279 111.01,379.612 110.5,382.5C 109.732,380.285 109.065,377.952 108.5,375.5 Z"/></g>
<g><path style="opacity:0.149" fill="#b0b0b0" d="M 413.5,349.5 C 410.623,356.293 407.457,362.96 404,369.5C 403.782,372.426 403.282,375.26 402.5,378C 399.303,377.163 396.303,377.83 393.5,380C 388.199,386.302 382.532,392.302 376.5,398C 364.18,407.161 351.514,415.828 338.5,424C 332.271,429.902 325.771,435.402 319,440.5C 317.215,439.76 315.382,439.093 313.5,438.5C 310.852,440.658 307.852,441.992 304.5,442.5C 304.833,441.833 305.167,441.167 305.5,440.5C 308.659,439.844 311.159,438.177 313,435.5C 315.01,437.927 317.51,438.76 320.5,438C 325.5,433.333 330.5,428.667 335.5,424C 349.183,415.159 362.516,405.826 375.5,396C 381.696,389.637 388.029,383.47 394.5,377.5C 397.01,377.073 399.343,376.407 401.5,375.5C 401.338,373.473 401.505,371.473 402,369.5C 405.292,362.41 409.125,355.744 413.5,349.5 Z"/></g>
<g><path style="opacity:0.894" fill="#3f3f3e" d="M 106.5,392.5 C 108.55,392.961 110.55,393.628 112.5,394.5C 113.445,397.788 114.112,401.121 114.5,404.5C 113.252,401.416 111.918,398.416 110.5,395.5C 109.209,395.737 108.209,395.404 107.5,394.5C 107.167,393.833 106.833,393.167 106.5,392.5 Z"/></g>
<g><path style="opacity:0.031" fill="#b2b2b2" d="M 110.5,395.5 C 111.918,398.416 113.252,401.416 114.5,404.5C 118.85,409.24 123.183,413.907 127.5,418.5C 121.601,414.774 116.435,410.107 112,404.5C 111.047,401.568 110.547,398.568 110.5,395.5 Z"/></g>
<g><path style="opacity:0.996" fill="#585753" d="M 283.5,420.5 C 291.118,421.466 298.784,422.133 306.5,422.5C 302.354,423.647 298.02,423.814 293.5,423C 290.091,422.004 286.758,421.171 283.5,420.5 Z"/></g>
<g><path style="opacity:0.094" fill="#a0a0a0" d="M 127.5,418.5 C 130.014,418.754 132.348,419.587 134.5,421C 138.585,424.361 142.919,427.361 147.5,430C 157.819,434.826 168.153,439.659 178.5,444.5C 186.102,446.942 193.769,447.108 201.5,445C 207.406,442.212 213.406,439.712 219.5,437.5C 221.799,437.599 223.799,438.266 225.5,439.5C 222.813,439.336 220.146,439.503 217.5,440C 206.166,447.123 193.832,449.456 180.5,447C 161.529,439.521 143.862,430.021 127.5,418.5 Z"/></g>
<g><path style="opacity:0.88" fill="#343434" d="M 284.5,438.5 C 278.642,438.178 272.975,438.511 267.5,439.5C 265.167,439.5 262.833,439.5 260.5,439.5C 260.611,438.883 260.944,438.383 261.5,438C 269.345,437.178 277.011,437.344 284.5,438.5 Z"/></g>
<g><path style="opacity:0.222" fill="#c7c7c7" d="M 254.5,439.5 C 256.5,439.5 258.5,439.5 260.5,439.5C 262.833,439.5 265.167,439.5 267.5,439.5C 262.694,440.593 257.694,441.259 252.5,441.5C 253.167,440.833 253.833,440.167 254.5,439.5 Z"/></g>
<g><path style="opacity:0.176" fill="#bcbcbc" d="M 267.5,439.5 C 272.975,438.511 278.642,438.178 284.5,438.5C 287.656,439.434 290.989,440.101 294.5,440.5C 297.656,441.434 300.989,442.101 304.5,442.5C 304.083,443.124 303.416,443.457 302.5,443.5C 291.011,440.602 279.345,439.269 267.5,439.5 Z"/></g>
<g><path style="opacity:0.383" fill="#a9a9a9" d="M 225.5,439.5 C 235.169,440.792 244.836,440.792 254.5,439.5C 253.833,440.167 253.167,440.833 252.5,441.5C 245.883,442.589 239.217,442.756 232.5,442C 229.896,441.61 227.562,440.776 225.5,439.5 Z"/></g>
<g><path style="opacity:0.851" fill="#505050" d="M 294.5,440.5 C 298.167,440.5 301.833,440.5 305.5,440.5C 305.167,441.167 304.833,441.833 304.5,442.5C 300.989,442.101 297.656,441.434 294.5,440.5 Z"/></g>
</svg>
