<?xml version="1.0" encoding="UTF-8"?>
<!DOCTYPE svg PUBLIC "-//W3C//DTD SVG 1.1//EN" "http://www.w3.org/Graphics/SVG/1.1/DTD/svg11.dtd">
<svg xmlns="http://www.w3.org/2000/svg" version="1.1" width="60px" height="60px" style="shape-rendering:geometricPrecision; text-rendering:geometricPrecision; image-rendering:optimizeQuality; fill-rule:evenodd; clip-rule:evenodd" xmlns:xlink="http://www.w3.org/1999/xlink">
<g><path style="opacity:1" fill="#000000" d="M 18.5,3.5 C 25.8409,3.33368 33.1742,3.50034 40.5,4C 45.3333,8.83333 50.1667,13.6667 55,18.5C 55.6667,25.8333 55.6667,33.1667 55,40.5C 50.1667,45.3333 45.3333,50.1667 40.5,55C 33.1667,55.6667 25.8333,55.6667 18.5,55C 13.6667,50.1667 8.83333,45.3333 4,40.5C 3.33333,33.1667 3.33333,25.8333 4,18.5C 9.03651,13.6313 13.8698,8.63128 18.5,3.5 Z"/></g>
<g><path style="opacity:1" fill="#817f7f" d="M 19.5,5.5 C 26.175,5.33375 32.8417,5.50042 39.5,6C 44,10.5 48.5,15 53,19.5C 53.6667,26.1667 53.6667,32.8333 53,39.5C 48.5,44 44,48.5 39.5,53C 32.8333,53.6667 26.1667,53.6667 19.5,53C 15,48.5 10.5,44 6,39.5C 5.33333,32.8333 5.33333,26.1667 6,19.5C 10.7033,14.9645 15.2033,10.2979 19.5,5.5 Z"/></g>
<g><path style="opacity:1" fill="#fe0100" d="M 28.5,13.5 C 29.8333,13.5 31.1667,13.5 32.5,13.5C 32.5,14.8333 32.5,16.1667 32.5,17.5C 36.1667,17.5 39.8333,17.5 43.5,17.5C 43.5,18.5 43.5,19.5 43.5,20.5C 39.8333,20.5 36.1667,20.5 32.5,20.5C 32.5,21.5 32.5,22.5 32.5,23.5C 36.8333,23.5 41.1667,23.5 45.5,23.5C 45.5,24.5 45.5,25.5 45.5,26.5C 41.5,26.5 37.5,26.5 33.5,26.5C 33.6641,29.1873 33.4974,31.854 33,34.5C 30.5873,37.3143 28.4206,37.1477 26.5,34C 27.448,33.5172 28.448,33.3505 29.5,33.5C 29.5,31.1667 29.5,28.8333 29.5,26.5C 24.8333,26.5 20.1667,26.5 15.5,26.5C 15.5,25.5 15.5,24.5 15.5,23.5C 17.1667,23.5 18.8333,23.5 20.5,23.5C 20.5,21.1667 20.5,18.8333 20.5,16.5C 21.8333,16.5 23.1667,16.5 24.5,16.5C 24.5,18.8333 24.5,21.1667 24.5,23.5C 25.8333,23.5 27.1667,23.5 28.5,23.5C 28.5,20.1667 28.5,16.8333 28.5,13.5 Z"/></g>
<g><path style="opacity:1" fill="#f4110e" d="M 23.5,28.5 C 24.6266,29.1217 25.6266,29.955 26.5,31C 23.9634,33.872 21.1301,36.372 18,38.5C 17.1667,37.6667 16.3333,36.8333 15.5,36C 18.6657,33.9999 21.3324,31.4999 23.5,28.5 Z"/></g>
<g><path style="opacity:1" fill="#f41710" d="M 39.5,28.5 C 41.0898,28.6282 42.4231,29.2949 43.5,30.5C 36.7586,41.5562 27.2586,45.8895 15,43.5C 14.8333,43.1667 14.6667,42.8333 14.5,42.5C 21.1047,41.5759 27.4381,39.7425 33.5,37C 36.3806,34.7213 38.3806,31.888 39.5,28.5 Z"/></g>
</svg>
