<?xml version="1.0" encoding="UTF-8"?>
<!DOCTYPE svg PUBLIC "-//W3C//DTD SVG 1.1//EN" "http://www.w3.org/Graphics/SVG/1.1/DTD/svg11.dtd">
<svg xmlns="http://www.w3.org/2000/svg" version="1.1" width="463px" height="452px" style="shape-rendering:geometricPrecision; text-rendering:geometricPrecision; image-rendering:optimizeQuality; fill-rule:evenodd; clip-rule:evenodd" xmlns:xlink="http://www.w3.org/1999/xlink">
<g><path style="opacity:0.996" fill="#b59353" d="M 290.5,46.5 C 290.953,47.4584 291.619,48.2917 292.5,49C 297.122,50.427 301.455,52.427 305.5,55C 307.066,55.765 308.399,55.5983 309.5,54.5C 312.777,55.802 315.777,57.4687 318.5,59.5C 318.414,60.4959 318.748,61.3292 319.5,62C 326.522,64.5476 333.188,67.7143 339.5,71.5C 345.281,76.6834 351.115,82.0167 357,87.5C 357.914,91.1418 358.748,94.8085 359.5,98.5C 364.496,101.005 369.83,102.172 375.5,102C 376.38,103.356 376.714,104.856 376.5,106.5C 378.604,106.201 380.604,106.534 382.5,107.5C 383.188,108.855 384.188,109.855 385.5,110.5C 386.243,113.57 388.243,115.236 391.5,115.5C 391.833,115.5 392.167,115.5 392.5,115.5C 392.703,117.044 393.37,118.378 394.5,119.5C 400.83,122.991 405.83,127.824 409.5,134C 408.978,134.95 408.311,135.784 407.5,136.5C 411.131,138.193 414.131,140.526 416.5,143.5C 421.163,166.561 423.663,189.894 424,213.5C 424.56,217.627 426.393,220.96 429.5,223.5C 431.4,227.977 432.733,232.644 433.5,237.5C 433.443,241.508 432.109,245.008 429.5,248C 431.449,249.985 431.782,252.151 430.5,254.5C 428.974,255.492 428.307,256.992 428.5,259C 428.514,260.385 428.848,261.551 429.5,262.5C 430.15,269.791 429.15,276.791 426.5,283.5C 425.662,283.842 425.328,284.508 425.5,285.5C 416.915,301.391 408.415,317.391 400,333.5C 398.314,336.981 397.481,340.648 397.5,344.5C 394.68,344.248 392.014,344.748 389.5,346C 383.35,353.317 376.683,360.15 369.5,366.5C 358.5,374 347.5,381.5 336.5,389C 330.39,393.377 324.723,398.211 319.5,403.5C 318.038,404.458 316.705,405.624 315.5,407C 313.455,407.49 311.455,407.323 309.5,406.5C 308.749,405.427 307.749,405.26 306.5,406C 299.133,412.504 291.133,413.337 282.5,408.5C 260.647,408.352 238.647,408.018 216.5,407.5C 214.545,406.677 212.545,406.51 210.5,407C 192.185,419.456 173.851,419.623 155.5,407.5C 151.166,403.855 146.166,401.522 140.5,400.5C 137.021,398.578 133.354,396.744 129.5,395C 119.404,388.684 110.571,380.851 103,371.5C 102.503,368.854 102.336,366.187 102.5,363.5C 99.9026,363.357 97.5692,362.523 95.5,361C 92.1832,360.502 88.8499,360.335 85.5,360.5C 85.5,358.833 85.5,357.167 85.5,355.5C 84.0695,355.421 82.7362,355.754 81.5,356.5C 79.7333,353.23 77.4,350.397 74.5,348C 66.2848,343.473 59.1182,337.64 53,330.5C 52.3486,328.765 52.5153,327.098 53.5,325.5C 50.0677,323.074 47.4011,320.074 45.5,316.5C 42.6108,306.409 40.7775,296.076 40,285.5C 39.7763,276.787 39.2763,268.12 38.5,259.5C 39.3564,252.233 38.0231,245.566 34.5,239.5C 33.1798,236.194 31.3465,233.194 29,230.5C 26.0527,223.591 27.5527,217.924 33.5,213.5C 32.5276,211.364 30.8609,210.197 28.5,210C 29.6667,208.833 30.8333,207.667 32,206.5C 32.3333,199.167 32.6667,191.833 33,184.5C 39.8042,170.225 47.1375,156.225 55,142.5C 56.2778,138.835 57.4445,135.168 58.5,131.5C 59.7206,130.972 60.8873,130.305 62,129.5C 63.772,125.687 64.6053,121.687 64.5,117.5C 66.9201,117.708 69.2534,117.374 71.5,116.5C 75.8972,112.108 79.8972,107.442 83.5,102.5C 88.1667,98.5 92.8333,94.5 97.5,90.5C 101.542,89.1486 104.875,86.8152 107.5,83.5C 108.922,83.2914 110.255,82.7914 111.5,82C 114.362,80.2646 116.696,78.0979 118.5,75.5C 120.564,75.313 122.564,74.813 124.5,74C 132.171,67.8099 139.504,61.1432 146.5,54C 148.847,53.6664 151.181,53.833 153.5,54.5C 153.833,54.5 154.167,54.5 154.5,54.5C 154.435,54.9382 154.601,55.2716 155,55.5C 158.283,52.6097 162.116,50.943 166.5,50.5C 178.529,53.456 190.529,54.1227 202.5,52.5C 202.5,51.8333 202.833,51.5 203.5,51.5C 213.207,52.814 222.874,52.4806 232.5,50.5C 232.833,50.5 233.167,50.5 233.5,50.5C 238.382,51.9681 243.382,53.6348 248.5,55.5C 256.674,51.8749 265.007,48.7082 273.5,46C 279.182,45.5314 284.848,45.6981 290.5,46.5 Z"/></g>
<g><path style="opacity:0.227" fill="#e0d1b5" d="M 290.5,46.5 C 284.848,45.6981 279.182,45.5314 273.5,46C 265.007,48.7082 256.674,51.8749 248.5,55.5C 243.382,53.6348 238.382,51.9681 233.5,50.5C 238.568,51.0928 243.568,52.0928 248.5,53.5C 252.824,52.338 256.824,50.5047 260.5,48C 268.211,44.7362 276.211,43.4029 284.5,44C 286.852,44.2401 288.852,45.0735 290.5,46.5 Z"/></g>
<g><path style="opacity:0.143" fill="#e4d2b9" d="M 202.5,52.5 C 190.529,54.1227 178.529,53.456 166.5,50.5C 162.116,50.943 158.283,52.6097 155,55.5C 154.601,55.2716 154.435,54.9382 154.5,54.5C 154.953,53.5416 155.619,52.7083 156.5,52C 159.711,50.6516 163.044,49.8182 166.5,49.5C 178.388,51.8208 190.388,52.8208 202.5,52.5 Z"/></g>
<g><path style="opacity:0.392" fill="#dac8a9" d="M 232.5,50.5 C 222.874,52.4806 213.207,52.814 203.5,51.5C 213.172,51.2913 222.839,50.958 232.5,50.5 Z"/></g>
<g><path style="opacity:0.725" fill="#dbc9a7" d="M 290.5,46.5 C 297.203,48.3533 303.536,51.0199 309.5,54.5C 308.399,55.5983 307.066,55.765 305.5,55C 301.455,52.427 297.122,50.427 292.5,49C 291.619,48.2917 290.953,47.4584 290.5,46.5 Z"/></g>
<g><path style="opacity:0.227" fill="#e3d6be" d="M 153.5,54.5 C 151.181,53.833 148.847,53.6664 146.5,54C 139.504,61.1432 132.171,67.8099 124.5,74C 122.564,74.813 120.564,75.313 118.5,75.5C 128.521,68.6597 137.854,60.8264 146.5,52C 149.242,51.7048 151.575,52.5381 153.5,54.5 Z"/></g>
<g><path style="opacity:0.235" fill="#e2d5b7" d="M 318.5,59.5 C 322.105,60.9629 325.771,62.4629 329.5,64C 333.08,66.2774 336.414,68.7774 339.5,71.5C 333.188,67.7143 326.522,64.5476 319.5,62C 318.748,61.3292 318.414,60.4959 318.5,59.5 Z"/></g>
<g><path style="opacity:0.149" fill="#e5dbc6" d="M 118.5,75.5 C 116.696,78.0979 114.362,80.2646 111.5,82C 110.255,82.7914 108.922,83.2914 107.5,83.5C 110.627,80.1021 114.293,77.4354 118.5,75.5 Z"/></g>
<g><path style="opacity:0.035" fill="#e6d8bf" d="M 339.5,71.5 C 346.613,75.1647 352.779,80.1647 358,86.5C 359.55,90.3889 361.05,94.2222 362.5,98C 367.138,99.03 371.805,99.8633 376.5,100.5C 377.262,101.628 377.929,102.795 378.5,104C 382.454,104.4 384.788,106.567 385.5,110.5C 384.188,109.855 383.188,108.855 382.5,107.5C 380.604,106.534 378.604,106.201 376.5,106.5C 376.714,104.856 376.38,103.356 375.5,102C 369.83,102.172 364.496,101.005 359.5,98.5C 358.748,94.8085 357.914,91.1418 357,87.5C 351.115,82.0167 345.281,76.6834 339.5,71.5 Z"/></g>
<g><path style="opacity:0.204" fill="#e6dcc7" d="M 107.5,83.5 C 104.875,86.8152 101.542,89.1486 97.5,90.5C 100.125,87.1848 103.458,84.8514 107.5,83.5 Z"/></g>
<g><path style="opacity:0.173" fill="#eadfcd" d="M 97.5,90.5 C 92.8333,94.5 88.1667,98.5 83.5,102.5C 86.8869,97.1206 91.5536,93.1206 97.5,90.5 Z"/></g>
<g><path style="opacity:0.11" fill="#ebe3d6" d="M 385.5,110.5 C 387.525,112.196 389.525,113.863 391.5,115.5C 388.243,115.236 386.243,113.57 385.5,110.5 Z"/></g>
<g><path style="opacity:0.996" fill="#336e21" d="M 294.5,124.5 C 290.973,126.506 287.306,128.34 283.5,130C 270.481,132.583 257.481,135.083 244.5,137.5C 244.5,138.833 244.5,140.167 244.5,141.5C 244.5,147.5 244.5,153.5 244.5,159.5C 249.448,158.276 254.448,157.109 259.5,156C 266.002,154.804 272.168,155.638 278,158.5C 278.64,160.265 278.473,161.932 277.5,163.5C 266.739,166.352 255.739,168.519 244.5,170C 243.594,171.699 243.261,173.533 243.5,175.5C 243.5,180.5 243.5,185.5 243.5,190.5C 248.609,189.955 253.609,188.788 258.5,187C 263.833,186.333 269.167,186.333 274.5,187C 277.261,188.705 277.927,190.871 276.5,193.5C 272.97,195.143 269.304,196.643 265.5,198C 258.38,198.707 251.38,200.04 244.5,202C 242.845,203.444 242.178,205.278 242.5,207.5C 242.5,214.167 242.5,220.833 242.5,227.5C 248.184,227.257 253.851,226.757 259.5,226C 274.643,223.423 289.643,220.256 304.5,216.5C 315.136,219.401 324.969,224.067 334,230.5C 334.495,232.473 334.662,234.473 334.5,236.5C 330.382,240.165 328.382,244.832 328.5,250.5C 327.86,264.206 326.694,277.872 325,291.5C 322.599,296.878 321.099,302.545 320.5,308.5C 317.351,315.123 313.851,321.79 310,328.5C 304.373,338.295 296.207,344.961 285.5,348.5C 283.959,347.714 282.626,346.714 281.5,345.5C 281.5,344.833 281.5,344.167 281.5,343.5C 280.748,337.492 278.914,331.826 276,326.5C 271.032,320.161 265.865,314.161 260.5,308.5C 259.058,307.18 258.392,305.514 258.5,303.5C 266.782,306.634 275.115,309.801 283.5,313C 287.9,313.978 292.067,313.478 296,311.5C 302.098,298.661 306.432,285.328 309,271.5C 309.988,261.716 309.488,252.049 307.5,242.5C 307.403,236.729 304.403,233.395 298.5,232.5C 274.438,231.773 250.771,234.273 227.5,240C 220.248,240.278 213.248,241.612 206.5,244C 199.404,244.871 192.404,246.204 185.5,248C 182.278,250.403 179.278,252.903 176.5,255.5C 174.971,255.471 173.804,254.804 173,253.5C 171.272,250.308 169.439,247.308 167.5,244.5C 166.788,231.074 167.954,217.741 171,204.5C 171.5,188.17 171.667,171.837 171.5,155.5C 171.916,147.124 169.583,139.791 164.5,133.5C 164.5,131.5 164.5,129.5 164.5,127.5C 171.735,127.897 178.401,130.064 184.5,134C 197.233,133.611 209.9,132.277 222.5,130C 238.641,126.506 254.641,122.506 270.5,118C 278.017,116.927 285.35,117.594 292.5,120C 294.037,121.11 294.703,122.61 294.5,124.5 Z"/></g>
<g><path style="opacity:0.506" fill="#e1d1b3" d="M 83.5,102.5 C 79.8972,107.442 75.8972,112.108 71.5,116.5C 69.2534,117.374 66.9201,117.708 64.5,117.5C 64.6053,121.687 63.772,125.687 62,129.5C 60.8873,130.305 59.7206,130.972 58.5,131.5C 59.3795,128.738 60.5462,126.071 62,123.5C 62.4974,120.854 62.6641,118.187 62.5,115.5C 65.6492,115.789 68.6492,115.289 71.5,114C 75.4425,109.886 79.4425,106.053 83.5,102.5 Z"/></g>
<g><path style="opacity:0.996" fill="#3e4239" d="M 294.5,124.5 C 294.812,127.888 293.479,130.388 290.5,132C 287.106,132.575 283.939,133.742 281,135.5C 268.789,137.794 256.623,139.794 244.5,141.5C 244.5,140.167 244.5,138.833 244.5,137.5C 257.481,135.083 270.481,132.583 283.5,130C 287.306,128.34 290.973,126.506 294.5,124.5 Z"/></g>
<g><path style="opacity:0.263" fill="#e8dbc7" d="M 392.5,115.5 C 400.101,120.099 406.434,126.099 411.5,133.5C 411.167,134.167 410.833,134.833 410.5,135.5C 413.64,137.307 415.64,139.974 416.5,143.5C 414.131,140.526 411.131,138.193 407.5,136.5C 408.311,135.784 408.978,134.95 409.5,134C 405.83,127.824 400.83,122.991 394.5,119.5C 393.37,118.378 392.703,117.044 392.5,115.5 Z"/></g>
<g><path style="opacity:0.996" fill="#3f4139" d="M 227.5,144.5 C 214.239,146.402 200.906,147.402 187.5,147.5C 187.5,145.833 187.5,144.167 187.5,142.5C 200.89,142.619 214.223,141.952 227.5,140.5C 227.5,141.833 227.5,143.167 227.5,144.5 Z"/></g>
<g><path style="opacity:0.996" fill="#b29251" d="M 227.5,144.5 C 227.5,151.167 227.5,157.833 227.5,164.5C 216.595,166.528 205.595,168.195 194.5,169.5C 194.366,171.292 194.699,172.958 195.5,174.5C 194.197,176.757 194.864,178.59 197.5,180C 201.46,181.025 205.46,181.859 209.5,182.5C 215.755,180.957 222.088,179.957 228.5,179.5C 228.5,185.167 228.5,190.833 228.5,196.5C 218.954,198.709 209.288,200.209 199.5,201C 195.864,202.101 194.864,204.268 196.5,207.5C 195.048,209.774 195.715,211.274 198.5,212C 208.619,215.065 218.619,214.898 228.5,211.5C 228.81,217.758 228.476,223.924 227.5,230C 212.694,231.588 198.027,233.421 183.5,235.5C 183.245,205.94 184.579,176.607 187.5,147.5C 200.906,147.402 214.239,146.402 227.5,144.5 Z"/></g>
<g><path style="opacity:0.996" fill="#4f5c36" d="M 164.5,133.5 C 169.583,139.791 171.916,147.124 171.5,155.5C 169.893,149.685 167.727,144.018 165,138.5C 164.506,136.866 164.34,135.199 164.5,133.5 Z"/></g>
<g><path style="opacity:0.996" fill="#3e4239" d="M 277.5,163.5 C 278.035,166.238 277.035,168.072 274.5,169C 264.195,171.494 253.861,173.661 243.5,175.5C 243.261,173.533 243.594,171.699 244.5,170C 255.739,168.519 266.739,166.352 277.5,163.5 Z"/></g>
<g><path style="opacity:0.996" fill="#40423a" d="M 195.5,174.5 C 197.433,174.729 199.1,175.562 200.5,177C 202.667,177.167 204.833,177.333 207,177.5C 214.094,176.143 221.261,175.476 228.5,175.5C 228.5,176.833 228.5,178.167 228.5,179.5C 222.088,179.957 215.755,180.957 209.5,182.5C 205.46,181.859 201.46,181.025 197.5,180C 194.864,178.59 194.197,176.757 195.5,174.5 Z"/></g>
<g><path style="opacity:0.011" fill="#eee6d7" d="M 416.5,143.5 C 418.795,150.584 420.629,157.917 422,165.5C 423.694,180.451 424.694,195.451 425,210.5C 425.744,215.167 427.244,219.501 429.5,223.5C 426.393,220.96 424.56,217.627 424,213.5C 423.663,189.894 421.163,166.561 416.5,143.5 Z"/></g>
<g><path style="opacity:0.996" fill="#3e4239" d="M 276.5,193.5 C 276.973,196.833 275.64,199 272.5,200C 262.375,202.339 252.375,204.839 242.5,207.5C 242.178,205.278 242.845,203.444 244.5,202C 251.38,200.04 258.38,198.707 265.5,198C 269.304,196.643 272.97,195.143 276.5,193.5 Z"/></g>
<g><path style="opacity:0.22" fill="#e0d7c6" d="M 58.5,131.5 C 57.4445,135.168 56.2778,138.835 55,142.5C 47.1375,156.225 39.8042,170.225 33,184.5C 32.6667,191.833 32.3333,199.167 32,206.5C 30.8333,207.667 29.6667,208.833 28.5,210C 30.8609,210.197 32.5276,211.364 33.5,213.5C 27.5527,217.924 26.0527,223.591 29,230.5C 31.3465,233.194 33.1798,236.194 34.5,239.5C 33.5041,239.414 32.6708,239.748 32,240.5C 31.2909,247.874 33.4576,254.207 38.5,259.5C 39.2763,268.12 39.7763,276.787 40,285.5C 40.7775,296.076 42.6108,306.409 45.5,316.5C 46.3703,323.518 47.3703,330.518 48.5,337.5C 41.7704,313.445 37.937,288.778 37,263.5C 34.3879,258.61 32.0545,253.61 30,248.5C 29.1088,244.628 29.6088,240.962 31.5,237.5C 25.4071,229.458 25.0738,221.292 30.5,213C 28.8198,212.653 27.8198,211.653 27.5,210C 28.6512,208.177 29.8179,206.344 31,204.5C 31.3333,197.167 31.6667,189.833 32,182.5C 40.3526,165.124 49.1859,148.124 58.5,131.5 Z"/></g>
<g><path style="opacity:0.996" fill="#44433b" d="M 196.5,207.5 C 207.15,209.988 217.817,209.988 228.5,207.5C 228.5,208.833 228.5,210.167 228.5,211.5C 218.619,214.898 208.619,215.065 198.5,212C 195.715,211.274 195.048,209.774 196.5,207.5 Z"/></g>
<g><path style="opacity:0.996" fill="#3d4039" d="M 307.5,242.5 C 304.238,239.747 300.571,237.747 296.5,236.5C 289.345,235.345 282.012,235.178 274.5,236C 269.924,236.272 265.591,237.105 261.5,238.5C 256.853,239.296 252.186,239.963 247.5,240.5C 230.806,242.336 214.472,245.336 198.5,249.5C 194.121,250.013 189.787,250.847 185.5,252C 182.911,255.097 179.911,257.597 176.5,259.5C 170.73,256.222 167.73,251.222 167.5,244.5C 169.439,247.308 171.272,250.308 173,253.5C 173.804,254.804 174.971,255.471 176.5,255.5C 179.278,252.903 182.278,250.403 185.5,248C 192.404,246.204 199.404,244.871 206.5,244C 213.248,241.612 220.248,240.278 227.5,240C 250.771,234.273 274.438,231.773 298.5,232.5C 304.403,233.395 307.403,236.729 307.5,242.5 Z"/></g>
<g><path style="opacity:0.996" fill="#706144" d="M 296.5,236.5 C 284.767,236.281 273.1,236.947 261.5,238.5C 265.591,237.105 269.924,236.272 274.5,236C 282.012,235.178 289.345,235.345 296.5,236.5 Z"/></g>
<g><path style="opacity:0.996" fill="#171410" d="M 34.5,239.5 C 38.0231,245.566 39.3564,252.233 38.5,259.5C 33.4576,254.207 31.2909,247.874 32,240.5C 32.6708,239.748 33.5041,239.414 34.5,239.5 Z"/></g>
<g><path style="opacity:0.996" fill="#3f4f33" d="M 334.5,236.5 C 334.66,238.199 334.494,239.866 334,241.5C 331.626,244.263 329.792,247.263 328.5,250.5C 328.382,244.832 330.382,240.165 334.5,236.5 Z"/></g>
<g><path style="opacity:0.212" fill="#e8dfcc" d="M 429.5,223.5 C 434.657,229.152 436.491,235.819 435,243.5C 434.215,245.286 433.049,246.786 431.5,248C 435.3,250.242 435.466,252.742 432,255.5C 431.097,263.146 430.43,270.812 430,278.5C 429.102,281.069 427.935,283.402 426.5,285.5C 426.5,284.833 426.5,284.167 426.5,283.5C 429.15,276.791 430.15,269.791 429.5,262.5C 430.473,260.052 430.806,257.385 430.5,254.5C 431.782,252.151 431.449,249.985 429.5,248C 432.109,245.008 433.443,241.508 433.5,237.5C 432.733,232.644 431.4,227.977 429.5,223.5 Z"/></g>
<g><path style="opacity:0.996" fill="#90784a" d="M 247.5,240.5 C 242.91,241.839 238.243,243.339 233.5,245C 221.886,246.496 210.219,247.996 198.5,249.5C 214.472,245.336 230.806,242.336 247.5,240.5 Z"/></g>
<g><path style="opacity:0.996" fill="#336e22" d="M 275.5,289.5 C 273.638,292.33 270.971,293.163 267.5,292C 258.947,283.058 252.28,272.891 247.5,261.5C 247.5,260.167 247.5,258.833 247.5,257.5C 257.997,259.056 266.83,263.722 274,271.5C 276.281,274.063 277.448,277.063 277.5,280.5C 276.821,283.506 276.154,286.506 275.5,289.5 Z"/></g>
<g><path style="opacity:0.996" fill="#6d5b3b" d="M 430.5,254.5 C 430.806,257.385 430.473,260.052 429.5,262.5C 428.848,261.551 428.514,260.385 428.5,259C 428.307,256.992 428.974,255.492 430.5,254.5 Z"/></g>
<g><path style="opacity:0.996" fill="#346f22" d="M 151.5,303.5 C 148.487,308.383 145.153,313.216 141.5,318C 139.833,318.667 138.167,318.667 136.5,318C 135.182,315.176 133.515,312.676 131.5,310.5C 131.219,305.692 131.886,301.026 133.5,296.5C 139.136,286.211 142.803,275.211 144.5,263.5C 145.167,263.167 145.833,262.833 146.5,262.5C 149.215,265.057 151.382,268.057 153,271.5C 154.999,282.414 154.499,293.081 151.5,303.5 Z"/></g>
<g><path style="opacity:0.996" fill="#336e21" d="M 229.5,287.5 C 228.221,289.123 226.887,290.79 225.5,292.5C 223.5,293.833 221.5,293.833 219.5,292.5C 215.2,284.569 211.2,276.569 207.5,268.5C 207.5,266.833 207.5,265.167 207.5,263.5C 216.834,264.349 224,268.682 229,276.5C 229.499,280.152 229.665,283.818 229.5,287.5 Z"/></g>
<g><path style="opacity:0.996" fill="#366e23" d="M 191.5,295.5 C 189.985,300.497 186.651,302.33 181.5,301C 179.521,297.893 177.854,294.726 176.5,291.5C 175.883,291.389 175.383,291.056 175,290.5C 172.845,283.634 172.178,276.634 173,269.5C 181.127,270.579 186.793,275.246 190,283.5C 191.156,287.418 191.656,291.418 191.5,295.5 Z"/></g>
<g><path style="opacity:0.996" fill="#44473a" d="M 247.5,261.5 C 252.28,272.891 258.947,283.058 267.5,292C 270.971,293.163 273.638,292.33 275.5,289.5C 275.998,295.499 273.331,297.666 267.5,296C 260.898,289.289 255.398,281.789 251,273.5C 249.119,269.693 247.953,265.693 247.5,261.5 Z"/></g>
<g><path style="opacity:0.996" fill="#45483a" d="M 207.5,268.5 C 211.2,276.569 215.2,284.569 219.5,292.5C 221.5,293.833 223.5,293.833 225.5,292.5C 226.887,290.79 228.221,289.123 229.5,287.5C 229.559,294.435 226.226,298.102 219.5,298.5C 216.699,292.897 213.865,287.231 211,281.5C 209.051,277.371 207.884,273.037 207.5,268.5 Z"/></g>
<g><path style="opacity:0.996" fill="#44473a" d="M 176.5,291.5 C 177.854,294.726 179.521,297.893 181.5,301C 186.651,302.33 189.985,300.497 191.5,295.5C 191.443,299.505 190.11,303.005 187.5,306C 183.316,307.165 180.483,305.665 179,301.5C 177.273,298.382 176.439,295.049 176.5,291.5 Z"/></g>
<g><path style="opacity:0.996" fill="#424738" d="M 260.5,308.5 C 265.865,314.161 271.032,320.161 276,326.5C 278.914,331.826 280.748,337.492 281.5,343.5C 276.752,331.043 269.252,320.376 259,311.5C 258.275,309.843 258.775,308.843 260.5,308.5 Z"/></g>
<g><path style="opacity:0.996" fill="#43463a" d="M 151.5,303.5 C 150.156,310.685 146.822,316.852 141.5,322C 138.975,322.896 136.808,322.396 135,320.5C 132.569,317.583 131.402,314.25 131.5,310.5C 133.515,312.676 135.182,315.176 136.5,318C 138.167,318.667 139.833,318.667 141.5,318C 145.153,313.216 148.487,308.383 151.5,303.5 Z"/></g>
<g><path style="opacity:0.997" fill="#090806" d="M 425.5,285.5 C 425.722,291.111 425.056,296.611 423.5,302C 414.361,320.441 404.861,338.607 395,356.5C 394.503,358.81 394.337,361.143 394.5,363.5C 391.107,363.062 388.107,363.895 385.5,366C 380.505,371.995 375.172,377.661 369.5,383C 357.023,392.74 344.023,401.74 330.5,410C 324.865,414.633 319.532,419.633 314.5,425C 311.484,425.664 308.651,425.164 306,423.5C 302.818,427.507 298.651,429.507 293.5,429.5C 288.182,428.208 282.849,427.208 277.5,426.5C 267.46,425.168 257.46,425.502 247.5,427.5C 235.696,429.601 224.196,428.601 213,424.5C 206.766,427.29 200.599,429.957 194.5,432.5C 190.489,432.644 186.489,432.977 182.5,433.5C 178.133,432.991 173.799,432.324 169.5,431.5C 158.46,425.878 147.126,420.545 135.5,415.5C 128.365,409.43 120.699,404.097 112.5,399.5C 111.287,396.775 109.454,394.441 107,392.5C 106.121,389.182 105.287,385.848 104.5,382.5C 99.4557,380.024 94.1224,378.691 88.5,378.5C 88.7852,376.712 88.4519,375.045 87.5,373.5C 85.802,374.681 84.1353,374.681 82.5,373.5C 81.627,371.587 80.627,369.753 79.5,368C 71.7919,363.954 64.9586,358.788 59,352.5C 56.5806,350.162 56.0806,347.495 57.5,344.5C 56.2713,343.719 54.938,343.219 53.5,343C 52.1666,340.809 50.5,338.976 48.5,337.5C 47.3703,330.518 46.3703,323.518 45.5,316.5C 47.4011,320.074 50.0677,323.074 53.5,325.5C 52.5153,327.098 52.3486,328.765 53,330.5C 59.1182,337.64 66.2848,343.473 74.5,348C 77.4,350.397 79.7333,353.23 81.5,356.5C 82.7362,355.754 84.0695,355.421 85.5,355.5C 85.5,357.167 85.5,358.833 85.5,360.5C 88.8499,360.335 92.1832,360.502 95.5,361C 97.5692,362.523 99.9026,363.357 102.5,363.5C 102.336,366.187 102.503,368.854 103,371.5C 110.571,380.851 119.404,388.684 129.5,395C 133.354,396.744 137.021,398.578 140.5,400.5C 145.237,403.196 150.237,405.529 155.5,407.5C 173.851,419.623 192.185,419.456 210.5,407C 212.545,406.51 214.545,406.677 216.5,407.5C 216.918,408.222 217.584,408.722 218.5,409C 223.476,409.747 228.476,410.247 233.5,410.5C 249.812,409.273 266.146,408.606 282.5,408.5C 291.133,413.337 299.133,412.504 306.5,406C 307.749,405.26 308.749,405.427 309.5,406.5C 309.611,407.117 309.944,407.617 310.5,408C 315.157,409.578 318.157,408.078 319.5,403.5C 324.723,398.211 330.39,393.377 336.5,389C 347.5,381.5 358.5,374 369.5,366.5C 376.683,360.15 383.35,353.317 389.5,346C 392.014,344.748 394.68,344.248 397.5,344.5C 397.481,340.648 398.314,336.981 400,333.5C 408.415,317.391 416.915,301.391 425.5,285.5 Z"/></g>
<g><path style="opacity:0.996" fill="#404439" d="M 320.5,308.5 C 317.106,320.788 311.439,331.954 303.5,342C 297.955,346.273 291.955,349.773 285.5,352.5C 282.013,351.531 280.68,349.198 281.5,345.5C 282.626,346.714 283.959,347.714 285.5,348.5C 296.207,344.961 304.373,338.295 310,328.5C 313.851,321.79 317.351,315.123 320.5,308.5 Z"/></g>
<g><path style="opacity:0.067" fill="#aeaeae" d="M 48.5,337.5 C 50.5,338.976 52.1666,340.809 53.5,343C 54.938,343.219 56.2713,343.719 57.5,344.5C 56.0806,347.495 56.5806,350.162 59,352.5C 64.9586,358.788 71.7919,363.954 79.5,368C 80.627,369.753 81.627,371.587 82.5,373.5C 84.1353,374.681 85.802,374.681 87.5,373.5C 88.4519,375.045 88.7852,376.712 88.5,378.5C 94.1224,378.691 99.4557,380.024 104.5,382.5C 105.287,385.848 106.121,389.182 107,392.5C 109.454,394.441 111.287,396.775 112.5,399.5C 109.59,397.761 107.09,395.428 105,392.5C 104.167,389.5 103.333,386.5 102.5,383.5C 97.8208,380.979 92.8208,379.979 87.5,380.5C 87.5674,377.234 85.9008,375.734 82.5,376C 80.8333,373.667 79.1667,371.333 77.5,369C 67.9314,363.763 59.9314,356.763 53.5,348C 53.7591,346.739 54.4258,345.739 55.5,345C 51.5719,343.908 49.2386,341.408 48.5,337.5 Z"/></g>
<g><path style="opacity:0.224" fill="#b0b0b0" d="M 426.5,283.5 C 426.5,284.167 426.5,284.833 426.5,285.5C 427.381,288.438 427.714,291.271 427.5,294C 419.495,314.178 409.995,333.678 399,352.5C 396.947,356.586 396.113,360.92 396.5,365.5C 393.351,365.211 390.351,365.711 387.5,367C 381.194,374.64 374.194,381.64 366.5,388C 356.34,395.247 346.006,402.247 335.5,409C 328.206,414.626 321.206,420.626 314.5,427C 311.412,427.847 308.579,427.347 306,425.5C 302.962,428.521 299.295,430.521 295,431.5C 283.722,428.259 272.222,426.926 260.5,427.5C 265.975,426.511 271.642,426.178 277.5,426.5C 282.849,427.208 288.182,428.208 293.5,429.5C 298.651,429.507 302.818,427.507 306,423.5C 308.651,425.164 311.484,425.664 314.5,425C 319.532,419.633 324.865,414.633 330.5,410C 344.023,401.74 357.023,392.74 369.5,383C 375.172,377.661 380.505,371.995 385.5,366C 388.107,363.895 391.107,363.062 394.5,363.5C 394.337,361.143 394.503,358.81 395,356.5C 404.861,338.607 414.361,320.441 423.5,302C 425.056,296.611 425.722,291.111 425.5,285.5C 425.328,284.508 425.662,283.842 426.5,283.5 Z"/></g>
<g><path style="opacity:0.996" fill="#705b32" d="M 140.5,400.5 C 146.166,401.522 151.166,403.855 155.5,407.5C 150.237,405.529 145.237,403.196 140.5,400.5 Z"/></g>
<g><path style="opacity:0.031" fill="#9a9a9a" d="M 112.5,399.5 C 120.699,404.097 128.365,409.43 135.5,415.5C 126.753,411.758 119.086,406.425 112.5,399.5 Z"/></g>
<g><path style="opacity:0.996" fill="#44371f" d="M 319.5,403.5 C 318.157,408.078 315.157,409.578 310.5,408C 309.944,407.617 309.611,407.117 309.5,406.5C 311.455,407.323 313.455,407.49 315.5,407C 316.705,405.624 318.038,404.458 319.5,403.5 Z"/></g>
<g><path style="opacity:0.996" fill="#8b703f" d="M 216.5,407.5 C 238.647,408.018 260.647,408.352 282.5,408.5C 266.146,408.606 249.812,409.273 233.5,410.5C 228.476,410.247 223.476,409.747 218.5,409C 217.584,408.722 216.918,408.222 216.5,407.5 Z"/></g>
<g><path style="opacity:0.114" fill="#9a9a9a" d="M 135.5,415.5 C 147.126,420.545 158.46,425.878 169.5,431.5C 170.167,432.167 170.833,432.833 171.5,433.5C 166.294,431.156 160.961,428.989 155.5,427C 150.167,424.333 144.833,421.667 139.5,419C 137.907,418.051 136.574,416.885 135.5,415.5 Z"/></g>
<g><path style="opacity:0.728" fill="#555555" d="M 277.5,426.5 C 271.642,426.178 265.975,426.511 260.5,427.5C 260.167,427.5 259.833,427.5 259.5,427.5C 255.5,427.5 251.5,427.5 247.5,427.5C 257.46,425.502 267.46,425.168 277.5,426.5 Z"/></g>
<g><path style="opacity:0.835" fill="#444444" d="M 169.5,431.5 C 173.799,432.324 178.133,432.991 182.5,433.5C 186.489,432.977 190.489,432.644 194.5,432.5C 191.114,433.97 187.447,434.637 183.5,434.5C 179.484,434.261 175.484,433.928 171.5,433.5C 170.833,432.833 170.167,432.167 169.5,431.5 Z"/></g>
<g><path style="opacity:0.148" fill="#b8b8b8" d="M 247.5,427.5 C 251.5,427.5 255.5,427.5 259.5,427.5C 244.188,430.469 228.855,430.136 213.5,426.5C 206.841,430.086 199.841,432.92 192.5,435C 186.5,435.667 180.5,435.667 174.5,435C 173.263,434.768 172.263,434.268 171.5,433.5C 175.484,433.928 179.484,434.261 183.5,434.5C 187.447,434.637 191.114,433.97 194.5,432.5C 200.599,429.957 206.766,427.29 213,424.5C 224.196,428.601 235.696,429.601 247.5,427.5 Z"/></g>
</svg>
