<?xml version="1.0" encoding="UTF-8"?>
<!DOCTYPE svg PUBLIC "-//W3C//DTD SVG 1.1//EN" "http://www.w3.org/Graphics/SVG/1.1/DTD/svg11.dtd">
<svg xmlns="http://www.w3.org/2000/svg" version="1.1" width="469px" height="465px" style="shape-rendering:geometricPrecision; text-rendering:geometricPrecision; image-rendering:optimizeQuality; fill-rule:evenodd; clip-rule:evenodd" xmlns:xlink="http://www.w3.org/1999/xlink">
<g><path style="opacity:0.996" fill="#b59352" d="M 274.5,55.5 C 281.23,55.2264 287.897,55.7264 294.5,57C 302.594,61.0465 310.928,64.5465 319.5,67.5C 321.579,69.873 324.246,71.2064 327.5,71.5C 327.833,71.5 328.167,71.5 328.5,71.5C 330.339,74.9787 333.006,76.312 336.5,75.5C 337.167,75.5 337.5,75.8333 337.5,76.5C 338.625,78.1288 339.959,79.6288 341.5,81C 347.004,84.3555 352.337,87.8555 357.5,91.5C 358.419,94.0892 360.086,96.0892 362.5,97.5C 363.024,108.656 369.024,113.323 380.5,111.5C 380.5,113.167 380.5,114.833 380.5,116.5C 385.342,115.662 388.009,117.662 388.5,122.5C 390.816,124.494 393.482,125.494 396.5,125.5C 396.511,127.017 397.177,128.184 398.5,129C 403.35,132.363 408.017,135.863 412.5,139.5C 412.511,141.017 413.177,142.184 414.5,143C 413.687,144.314 412.687,145.481 411.5,146.5C 418.508,149.823 422.008,155.49 422,163.5C 422.852,164.571 423.685,165.571 424.5,166.5C 424.5,168.167 424.5,169.833 424.5,171.5C 425.111,176.665 425.777,181.832 426.5,187C 426.569,188.986 427.235,190.486 428.5,191.5C 428.5,191.833 428.5,192.167 428.5,192.5C 427.341,202.658 427.175,212.992 428,223.5C 430.39,230.34 433.723,236.673 438,242.5C 439.622,248.546 438.122,253.546 433.5,257.5C 434.711,258.874 435.711,260.374 436.5,262C 435.852,263.44 435.519,264.94 435.5,266.5C 433.656,268.279 432.99,270.612 433.5,273.5C 434.022,281.086 433.022,288.419 430.5,295.5C 427.86,297.423 426.193,300.09 425.5,303.5C 423.461,304.911 422.461,306.911 422.5,309.5C 416.915,319.669 411.582,330.002 406.5,340.5C 404.755,342.033 403.755,344.033 403.5,346.5C 402.527,348.948 402.194,351.615 402.5,354.5C 398.181,353.799 394.514,354.966 391.5,358C 386.839,363.661 381.839,368.994 376.5,374C 361.755,385.087 346.755,395.754 331.5,406C 326.833,409.333 322.833,413.333 319.5,418C 318.167,418.667 316.833,418.667 315.5,418C 314.601,416.764 313.434,415.93 312,415.5C 309.995,416.682 308.162,418.015 306.5,419.5C 298.817,419.477 291.15,419.143 283.5,418.5C 279.514,417.834 275.347,417.501 271,417.5C 264.917,417.299 259.084,417.966 253.5,419.5C 245.344,420.657 237.01,420.823 228.5,420C 225.036,418.346 221.369,417.179 217.5,416.5C 209.991,420.672 201.991,423.672 193.5,425.5C 186.711,425.799 180.044,425.132 173.5,423.5C 154.894,415.794 137.227,406.294 120.5,395C 116.985,391.318 113.318,387.818 109.5,384.5C 108.097,380.968 107.097,377.302 106.5,373.5C 101.456,371.049 96.1229,370.049 90.5,370.5C 90.5,368.5 90.5,366.5 90.5,364.5C 88.5,364.833 86.5,365.167 84.5,365.5C 83.9087,362.386 82.242,359.886 79.5,358C 70.8116,353.315 63.3116,347.148 57,339.5C 56.7351,337.837 57.2351,336.337 58.5,335C 54.9795,333.142 52.4795,330.308 51,326.5C 50.5172,327.448 50.3505,328.448 50.5,329.5C 49.8333,328.167 49.1667,326.833 48.5,325.5C 48.5,325.167 48.5,324.833 48.5,324.5C 46.3423,306.083 44.3423,287.75 42.5,269.5C 43.9858,261.756 42.6525,254.423 38.5,247.5C 38.1436,245.81 37.1436,244.81 35.5,244.5C 31.2598,237.052 31.5931,229.886 36.5,223C 36.1802,221.347 35.1802,220.347 33.5,220C 34.6667,218.833 35.8333,217.667 37,216.5C 35.1871,202.563 38.1871,189.896 46,178.5C 46.49,177.207 46.6567,175.873 46.5,174.5C 49.415,170.327 52.2483,165.994 55,161.5C 59.155,151.857 63.8217,142.523 69,133.5C 69.4955,131.527 69.6621,129.527 69.5,127.5C 71.1992,127.66 72.8659,127.494 74.5,127C 76.8089,124.513 79.4756,122.513 82.5,121C 84.1554,119.556 84.822,117.722 84.5,115.5C 91.0276,110.402 97.3609,105.069 103.5,99.5C 105.749,98.9202 107.415,97.5869 108.5,95.5C 115.881,93.4316 121.881,89.4316 126.5,83.5C 128.749,82.9202 130.415,81.5869 131.5,79.5C 132.922,79.2914 134.255,78.7914 135.5,78C 138.288,76.2814 140.621,74.1148 142.5,71.5C 145.969,69.5286 148.969,67.0286 151.5,64C 154.089,64.1794 156.589,65.0128 159,66.5C 160.351,64.9818 161.851,63.6485 163.5,62.5C 172.211,61.2607 180.877,61.5941 189.5,63.5C 205.131,63.9257 220.464,62.5924 235.5,59.5C 235.833,59.5 236.167,59.5 236.5,59.5C 241.866,61.7284 247.533,63.3951 253.5,64.5C 257.761,64.3245 261.094,62.6579 263.5,59.5C 267.395,58.5376 271.061,57.2043 274.5,55.5 Z"/></g>
<g><path style="opacity:0.388" fill="#e4d6bb" d="M 319.5,67.5 C 310.928,64.5465 302.594,61.0465 294.5,57C 287.897,55.7264 281.23,55.2264 274.5,55.5C 280.634,53.0435 286.967,52.8768 293.5,55C 302.763,58.1396 311.43,62.3063 319.5,67.5 Z"/></g>
<g><path style="opacity:0.2" fill="#ebdec9" d="M 274.5,55.5 C 271.061,57.2043 267.395,58.5376 263.5,59.5C 266.547,56.8095 270.213,55.4762 274.5,55.5 Z"/></g>
<g><path style="opacity:0.465" fill="#cfb789" d="M 183.5,61.5 C 185.5,61.5 187.5,61.5 189.5,61.5C 189.5,62.1667 189.5,62.8333 189.5,63.5C 180.877,61.5941 172.211,61.2607 163.5,62.5C 166.356,60.9942 169.523,60.3275 173,60.5C 176.523,60.7067 180.023,61.04 183.5,61.5 Z"/></g>
<g><path style="opacity:0.401" fill="#e3d6bd" d="M 235.5,59.5 C 220.464,62.5924 205.131,63.9257 189.5,63.5C 189.5,62.8333 189.5,62.1667 189.5,61.5C 192.282,62.0612 195.116,62.3945 198,62.5C 210.491,61.2924 222.991,60.2924 235.5,59.5 Z"/></g>
<g><path style="opacity:0.135" fill="#dfcdae" d="M 236.5,59.5 C 242.122,60.2804 247.622,61.6137 253,63.5C 256.412,61.7015 259.912,60.3682 263.5,59.5C 261.094,62.6579 257.761,64.3245 253.5,64.5C 247.533,63.3951 241.866,61.7284 236.5,59.5 Z"/></g>
<g><path style="opacity:0.333" fill="#e3d7bb" d="M 183.5,61.5 C 180.023,61.04 176.523,60.7067 173,60.5C 169.523,60.3275 166.356,60.9942 163.5,62.5C 161.851,63.6485 160.351,64.9818 159,66.5C 156.589,65.0128 154.089,64.1794 151.5,64C 148.969,67.0286 145.969,69.5286 142.5,71.5C 144.293,68.8692 146.293,66.3692 148.5,64C 152.045,60.8256 155.545,60.9923 159,64.5C 160.5,63 162,61.5 163.5,60C 169.167,59.3333 174.833,59.3333 180.5,60C 181.737,60.2321 182.737,60.7321 183.5,61.5 Z"/></g>
<g><path style="opacity:0.263" fill="#e9dcc8" d="M 319.5,67.5 C 322.754,67.7936 325.421,69.127 327.5,71.5C 324.246,71.2064 321.579,69.873 319.5,67.5 Z"/></g>
<g><path style="opacity:0.506" fill="#e1d2b5" d="M 328.5,71.5 C 331.395,72.3994 334.062,73.7328 336.5,75.5C 333.006,76.312 330.339,74.9787 328.5,71.5 Z"/></g>
<g><path style="opacity:0.184" fill="#e4d8c1" d="M 142.5,71.5 C 140.621,74.1148 138.288,76.2814 135.5,78C 134.255,78.7914 132.922,79.2914 131.5,79.5C 134.627,76.1021 138.293,73.4354 142.5,71.5 Z"/></g>
<g><path style="opacity:0.184" fill="#efe1be" d="M 131.5,79.5 C 130.415,81.5869 128.749,82.9202 126.5,83.5C 127.585,81.4131 129.251,80.0798 131.5,79.5 Z"/></g>
<g><path style="opacity:0.133" fill="#e8ddc7" d="M 337.5,76.5 C 344.891,80.5294 351.557,85.5294 357.5,91.5C 352.337,87.8555 347.004,84.3555 341.5,81C 339.959,79.6288 338.625,78.1288 337.5,76.5 Z"/></g>
<g><path style="opacity:0.584" fill="#dac7a1" d="M 126.5,83.5 C 121.881,89.4316 115.881,93.4316 108.5,95.5C 114.148,91.0068 120.148,87.0068 126.5,83.5 Z"/></g>
<g><path style="opacity:0.298" fill="#ece5d3" d="M 357.5,91.5 C 359.914,92.9108 361.581,94.9108 362.5,97.5C 360.086,96.0892 358.419,94.0892 357.5,91.5 Z"/></g>
<g><path style="opacity:0.443" fill="#dfd3b8" d="M 108.5,95.5 C 107.415,97.5869 105.749,98.9202 103.5,99.5C 104.585,97.4131 106.251,96.0798 108.5,95.5 Z"/></g>
<g><path style="opacity:0.184" fill="#e1d5b9" d="M 103.5,99.5 C 97.3609,105.069 91.0276,110.402 84.5,115.5C 89.8982,108.98 96.2315,103.647 103.5,99.5 Z"/></g>
<g><path style="opacity:0.351" fill="#e2d3b8" d="M 362.5,97.5 C 364.631,100.228 365.964,103.395 366.5,107C 370.96,108.924 375.627,110.09 380.5,110.5C 381.262,111.628 381.929,112.795 382.5,114C 384.256,114.202 385.922,114.702 387.5,115.5C 389.158,120.152 392.158,123.486 396.5,125.5C 393.482,125.494 390.816,124.494 388.5,122.5C 388.009,117.662 385.342,115.662 380.5,116.5C 380.5,114.833 380.5,113.167 380.5,111.5C 369.024,113.323 363.024,108.656 362.5,97.5 Z"/></g>
<g><path style="opacity:0.996" fill="#336e21" d="M 293.5,127.5 C 276.402,142.427 259.735,157.927 243.5,174C 245.598,174.678 247.598,174.511 249.5,173.5C 264.893,172.631 280.226,171.131 295.5,169C 303.567,163.36 309.067,155.86 312,146.5C 313.126,145.056 314.626,144.39 316.5,144.5C 322.578,146.25 327.578,149.583 331.5,154.5C 332.466,156.396 332.799,158.396 332.5,160.5C 302.801,178.356 274.301,198.022 247,219.5C 246.568,220.6 247.068,221.267 248.5,221.5C 249.849,221.154 251.183,220.821 252.5,220.5C 270.609,217.151 288.609,213.817 306.5,210.5C 307.873,210.657 309.207,210.49 310.5,210C 307.999,206.333 304.999,203.166 301.5,200.5C 301.5,198.833 301.5,197.167 301.5,195.5C 313.802,198.901 324.969,204.568 335,212.5C 339.556,218.853 340.723,225.853 338.5,233.5C 336.638,236.33 333.971,237.163 330.5,236C 325.335,229.005 319.668,222.505 313.5,216.5C 295.713,220.256 278.047,224.256 260.5,228.5C 260.384,231.91 262.05,233.244 265.5,232.5C 267.355,234.033 269.188,235.7 271,237.5C 271.495,239.473 271.662,241.473 271.5,243.5C 268.371,245.799 265.704,248.632 263.5,252C 263.836,253.03 264.503,253.53 265.5,253.5C 277.042,252.557 287.709,249.057 297.5,243C 306.777,242.429 314.61,245.596 321,252.5C 321.495,254.473 321.662,256.473 321.5,258.5C 313.047,263.734 307.214,271.067 304,280.5C 299.269,287.054 294.769,293.721 290.5,300.5C 290.747,301.713 291.414,302.38 292.5,302.5C 302.266,311.408 313.266,318.575 325.5,324C 343.018,330.841 361.018,335.841 379.5,339C 381.635,340.556 381.968,342.389 380.5,344.5C 369.318,346.801 357.984,348.301 346.5,349C 338.436,349.863 330.436,349.53 322.5,348C 319.865,346.689 317.531,345.022 315.5,343C 304.213,331.713 293.046,320.546 282,309.5C 266.353,322.479 249.186,332.979 230.5,341C 221.253,343.616 211.919,345.782 202.5,347.5C 200.418,346.415 200.084,344.915 201.5,343C 215.03,337.571 228.363,331.571 241.5,325C 248.676,320.245 255.676,315.245 262.5,310C 265.371,307.297 268.038,304.464 270.5,301.5C 271.478,301.189 272.145,300.522 272.5,299.5C 263.094,291.098 253.094,283.431 242.5,276.5C 231.544,286.946 219.544,296.113 206.5,304C 203.368,305.782 200.035,306.948 196.5,307.5C 194.775,307.157 194.275,306.157 195,304.5C 216.73,287.935 235.23,268.268 250.5,245.5C 251.933,242.667 252.6,239.667 252.5,236.5C 253.234,235.292 253.567,233.959 253.5,232.5C 243.223,233.656 233.556,236.823 224.5,242C 221.739,242.722 219.073,242.555 216.5,241.5C 215.393,236.919 215.227,232.252 216,227.5C 239.241,215.425 260.408,200.425 279.5,182.5C 281.296,181.207 282.963,179.707 284.5,178C 274.379,178.208 264.379,179.541 254.5,182C 246.297,185.177 238.131,188.343 230,191.5C 229.167,191.167 228.333,190.833 227.5,190.5C 226.531,187.231 225.198,184.231 223.5,181.5C 223.298,179.011 223.798,176.677 225,174.5C 231.376,171.037 237.543,167.204 243.5,163C 253.168,151.662 261.668,139.496 269,126.5C 269.203,122.579 269.703,118.745 270.5,115C 279.15,114.547 286.65,117.38 293,123.5C 293.49,124.793 293.657,126.127 293.5,127.5 Z"/></g>
<g><path style="opacity:0.357" fill="#e3d4b5" d="M 396.5,125.5 C 402.818,129.159 408.152,133.825 412.5,139.5C 408.017,135.863 403.35,132.363 398.5,129C 397.177,128.184 396.511,127.017 396.5,125.5 Z"/></g>
<g><path style="opacity:0.996" fill="#336f21" d="M 210.5,147.5 C 201.094,155.402 192.094,163.902 183.5,173C 170.105,184.351 155.772,194.184 140.5,202.5C 139.624,202.631 138.957,202.298 138.5,201.5C 146.396,192.099 154.896,183.099 164,174.5C 168.765,168.646 173.765,162.979 179,157.5C 182.916,152.004 186.582,146.337 190,140.5C 190.066,136.767 190.899,133.267 192.5,130C 193.833,129.333 195.167,129.333 196.5,130C 202.246,132.753 207.079,136.586 211,141.5C 211.678,143.598 211.511,145.598 210.5,147.5 Z"/></g>
<g><path style="opacity:0.596" fill="#ddccab" d="M 84.5,115.5 C 84.822,117.722 84.1554,119.556 82.5,121C 79.4756,122.513 76.8089,124.513 74.5,127C 72.8659,127.494 71.1992,127.66 69.5,127.5C 69.6621,129.527 69.4955,131.527 69,133.5C 63.8217,142.523 59.155,151.857 55,161.5C 52.2483,165.994 49.415,170.327 46.5,174.5C 52.8106,160.545 59.644,146.879 67,133.5C 67.4974,130.854 67.6641,128.187 67.5,125.5C 69.8568,125.663 72.1902,125.497 74.5,125C 77.952,121.897 81.2854,118.731 84.5,115.5 Z"/></g>
<g><path style="opacity:0.208" fill="#e2d3ba" d="M 412.5,139.5 C 415.367,140.768 416.034,142.768 414.5,145.5C 416.889,146.602 418.723,148.269 420,150.5C 421.815,155.763 423.315,161.097 424.5,166.5C 423.685,165.571 422.852,164.571 422,163.5C 422.008,155.49 418.508,149.823 411.5,146.5C 412.687,145.481 413.687,144.314 414.5,143C 413.177,142.184 412.511,141.017 412.5,139.5 Z"/></g>
<g><path style="opacity:0.996" fill="#404339" d="M 293.5,127.5 C 293.66,129.199 293.494,130.866 293,132.5C 277.672,145.329 263.172,158.996 249.5,173.5C 247.598,174.511 245.598,174.678 243.5,174C 259.735,157.927 276.402,142.427 293.5,127.5 Z"/></g>
<g><path style="opacity:0.431" fill="#eee5d2" d="M 424.5,171.5 C 426.727,177.901 428.061,184.567 428.5,191.5C 427.235,190.486 426.569,188.986 426.5,187C 425.777,181.832 425.111,176.665 424.5,171.5 Z"/></g>
<g><path style="opacity:0.996" fill="#414439" d="M 279.5,182.5 C 270.016,182.925 261.016,185.091 252.5,189C 249.5,189.333 246.5,189.667 243.5,190C 239.776,192.778 235.609,194.611 231,195.5C 228.7,195.322 226.866,194.322 225.5,192.5C 224.079,188.972 223.412,185.306 223.5,181.5C 225.198,184.231 226.531,187.231 227.5,190.5C 228.333,190.833 229.167,191.167 230,191.5C 238.131,188.343 246.297,185.177 254.5,182C 264.379,179.541 274.379,178.208 284.5,178C 282.963,179.707 281.296,181.207 279.5,182.5 Z"/></g>
<g><path style="opacity:0.996" fill="#3e4238" d="M 332.5,160.5 C 332.919,163.325 331.919,165.491 329.5,167C 302.551,183.137 276.884,200.971 252.5,220.5C 251.183,220.821 249.849,221.154 248.5,221.5C 247.068,221.267 246.568,220.6 247,219.5C 274.301,198.022 302.801,178.356 332.5,160.5 Z"/></g>
<g><path style="opacity:0.996" fill="#3e4239" d="M 210.5,147.5 C 210.335,152.84 207.668,156.34 202.5,158C 187.022,175.042 169.689,189.708 150.5,202C 147.28,203.777 143.947,205.277 140.5,206.5C 139.833,206.167 139.167,205.833 138.5,205.5C 139.193,204.482 139.859,203.482 140.5,202.5C 155.772,194.184 170.105,184.351 183.5,173C 192.094,163.902 201.094,155.402 210.5,147.5 Z"/></g>
<g><path style="opacity:0.996" fill="#346f22" d="M 207.5,203.5 C 201.305,207.182 195.805,211.849 191,217.5C 186.631,223.579 181.797,229.245 176.5,234.5C 175.212,236.299 175.212,237.965 176.5,239.5C 178.758,245.736 180.091,252.069 180.5,258.5C 180.36,289.2 179.694,319.867 178.5,350.5C 177.331,353.183 175.331,354.349 172.5,354C 167.934,348.44 164.601,342.274 162.5,335.5C 162.5,331.5 162.5,327.5 162.5,323.5C 164.814,310.928 166.48,298.261 167.5,285.5C 168.833,273.5 168.833,261.5 167.5,249.5C 167.762,248.022 167.429,246.689 166.5,245.5C 153.257,258.786 138.257,269.619 121.5,278C 120.207,278.49 118.873,278.657 117.5,278.5C 115.775,278.157 115.275,277.157 116,275.5C 143.923,254.58 166.923,229.246 185,199.5C 186.544,194.783 188.044,190.117 189.5,185.5C 192.495,184.081 195.162,184.581 197.5,187C 200.333,189.833 203.167,192.667 206,195.5C 207.252,198.014 207.752,200.68 207.5,203.5 Z"/></g>
<g><path style="opacity:0.514" fill="#e4d8be" d="M 46.5,174.5 C 46.6567,175.873 46.49,177.207 46,178.5C 38.1871,189.896 35.1871,202.563 37,216.5C 35.8333,217.667 34.6667,218.833 33.5,220C 35.1802,220.347 36.1802,221.347 36.5,223C 31.5931,229.886 31.2598,237.052 35.5,244.5C 32.2459,241.637 30.9125,237.97 31.5,233.5C 30.8092,229.193 32.1425,225.693 35.5,223C 31.6823,221.118 31.5156,218.951 35,216.5C 35.3333,209.5 35.6667,202.5 36,195.5C 38.4917,187.85 41.9917,180.85 46.5,174.5 Z"/></g>
<g><path style="opacity:0.996" fill="#414638" d="M 301.5,200.5 C 304.999,203.166 307.999,206.333 310.5,210C 309.207,210.49 307.873,210.657 306.5,210.5C 303.896,207.583 302.229,204.249 301.5,200.5 Z"/></g>
<g><path style="opacity:0.996" fill="#3d4238" d="M 338.5,233.5 C 338.794,239.377 336.128,241.877 330.5,241C 326.212,235.59 322.045,230.09 318,224.5C 316.745,222.406 314.912,221.406 312.5,221.5C 296.71,225.251 281.044,228.917 265.5,232.5C 262.05,233.244 260.384,231.91 260.5,228.5C 278.047,224.256 295.713,220.256 313.5,216.5C 319.668,222.505 325.335,229.005 330.5,236C 333.971,237.163 336.638,236.33 338.5,233.5 Z"/></g>
<g><path style="opacity:0.996" fill="#404439" d="M 207.5,203.5 C 207.657,204.873 207.49,206.207 207,207.5C 195.673,216.995 185.506,227.662 176.5,239.5C 175.212,237.965 175.212,236.299 176.5,234.5C 181.797,229.245 186.631,223.579 191,217.5C 195.805,211.849 201.305,207.182 207.5,203.5 Z"/></g>
<g><path style="opacity:0.996" fill="#41433a" d="M 252.5,236.5 C 244.219,237.975 236.553,240.809 229.5,245C 225.288,246.241 221.121,246.408 217,245.5C 216.51,244.207 216.343,242.873 216.5,241.5C 219.073,242.555 221.739,242.722 224.5,242C 233.556,236.823 243.223,233.656 253.5,232.5C 253.567,233.959 253.234,235.292 252.5,236.5 Z"/></g>
<g><path style="opacity:0.604" fill="#d5c9b2" d="M 35.5,244.5 C 37.1436,244.81 38.1436,245.81 38.5,247.5C 36.9519,247.821 36.2852,248.821 36.5,250.5C 36.1667,250.5 35.8333,250.5 35.5,250.5C 35.5,248.5 35.5,246.5 35.5,244.5 Z"/></g>
<g><path style="opacity:0.996" fill="#414339" d="M 271.5,243.5 C 271.657,244.873 271.49,246.207 271,247.5C 268.96,249.37 267.127,251.37 265.5,253.5C 264.503,253.53 263.836,253.03 263.5,252C 265.704,248.632 268.371,245.799 271.5,243.5 Z"/></g>
<g><path style="opacity:0.995" fill="#1b1813" d="M 38.5,247.5 C 42.6525,254.423 43.9858,261.756 42.5,269.5C 42.1667,269.5 41.8333,269.5 41.5,269.5C 38.4295,263.552 36.7628,257.219 36.5,250.5C 36.2852,248.821 36.9519,247.821 38.5,247.5 Z"/></g>
<g><path style="opacity:0.996" fill="#7a7d3f" d="M 165.5,250.5 C 165.842,249.662 166.508,249.328 167.5,249.5C 168.833,261.5 168.833,273.5 167.5,285.5C 168.145,273.452 167.478,261.785 165.5,250.5 Z"/></g>
<g><path style="opacity:0.996" fill="#3e4139" d="M 292.5,262.5 C 289.696,261.362 286.696,261.195 283.5,262C 274.945,265.801 266.279,266.301 257.5,263.5C 254.479,265.854 251.812,268.521 249.5,271.5C 248.624,271.631 247.957,271.298 247.5,270.5C 249.975,266.858 252.642,263.358 255.5,260C 259.146,259.886 262.812,260.053 266.5,260.5C 275.404,258.762 284.404,257.762 293.5,257.5C 293.784,259.415 293.451,261.081 292.5,262.5 Z"/></g>
<g><path style="opacity:0.996" fill="#3e4239" d="M 167.5,249.5 C 166.508,249.328 165.842,249.662 165.5,250.5C 151.524,265.168 135.19,276.168 116.5,283.5C 116.629,281.784 116.962,280.117 117.5,278.5C 118.873,278.657 120.207,278.49 121.5,278C 138.257,269.619 153.257,258.786 166.5,245.5C 167.429,246.689 167.762,248.022 167.5,249.5 Z"/></g>
<g><path style="opacity:0.063" fill="#a0a0a0" d="M 35.5,250.5 C 35.8333,250.5 36.1667,250.5 36.5,250.5C 36.7628,257.219 38.4295,263.552 41.5,269.5C 41.1667,269.5 40.8333,269.5 40.5,269.5C 36.9865,264.965 34.9865,259.798 34.5,254C 34.6483,252.744 34.9816,251.577 35.5,250.5 Z"/></g>
<g><path style="opacity:0.996" fill="#b19151" d="M 292.5,262.5 C 290.451,273.265 285.784,282.598 278.5,290.5C 268.526,284.505 258.859,278.172 249.5,271.5C 251.812,268.521 254.479,265.854 257.5,263.5C 266.279,266.301 274.945,265.801 283.5,262C 286.696,261.195 289.696,261.362 292.5,262.5 Z"/></g>
<g><path style="opacity:0.489" fill="#5d574d" d="M 435.5,266.5 C 435.662,268.527 435.495,270.527 435,272.5C 434.617,273.056 434.117,273.389 433.5,273.5C 432.99,270.612 433.656,268.279 435.5,266.5 Z"/></g>
<g><path style="opacity:0.996" fill="#414738" d="M 321.5,258.5 C 321.785,260.288 321.452,261.955 320.5,263.5C 315.522,266.644 311.355,270.644 308,275.5C 303.315,284.881 298.149,293.881 292.5,302.5C 291.414,302.38 290.747,301.713 290.5,300.5C 294.769,293.721 299.269,287.054 304,280.5C 307.214,271.067 313.047,263.734 321.5,258.5 Z"/></g>
<g><path style="opacity:0.043" fill="#e5dbc8" d="M 428.5,192.5 C 428.125,203.222 428.625,213.889 430,224.5C 432.73,230.293 435.73,235.96 439,241.5C 441.714,247.847 440.547,253.347 435.5,258C 436.687,259.019 437.687,260.186 438.5,261.5C 436.601,277.107 433.934,292.44 430.5,307.5C 430.5,306.833 430.5,306.167 430.5,305.5C 430.5,302.167 430.5,298.833 430.5,295.5C 433.022,288.419 434.022,281.086 433.5,273.5C 434.117,273.389 434.617,273.056 435,272.5C 435.495,270.527 435.662,268.527 435.5,266.5C 435.519,264.94 435.852,263.44 436.5,262C 435.711,260.374 434.711,258.874 433.5,257.5C 438.122,253.546 439.622,248.546 438,242.5C 433.723,236.673 430.39,230.34 428,223.5C 427.175,212.992 427.341,202.658 428.5,192.5 Z"/></g>
<g><path style="opacity:0.996" fill="#404339" d="M 270.5,301.5 C 261.45,294.222 251.95,287.555 242,281.5C 229.746,293.42 216.079,303.42 201,311.5C 198.901,312.287 196.734,312.62 194.5,312.5C 194.392,310.486 195.058,308.82 196.5,307.5C 200.035,306.948 203.368,305.782 206.5,304C 219.544,296.113 231.544,286.946 242.5,276.5C 253.094,283.431 263.094,291.098 272.5,299.5C 272.145,300.522 271.478,301.189 270.5,301.5 Z"/></g>
<g><path style="opacity:0.997" fill="#080705" d="M 430.5,295.5 C 430.5,298.833 430.5,302.167 430.5,305.5C 428.088,309.36 426.422,313.693 425.5,318.5C 422.889,321.133 420.722,324.133 419,327.5C 418.506,329.134 418.34,330.801 418.5,332.5C 412.734,339.024 408.734,346.691 406.5,355.5C 401.46,360.276 399.127,366.276 399.5,373.5C 395.781,373.002 392.447,373.836 389.5,376C 385.5,380.667 381.5,385.333 377.5,390C 368.938,396.418 360.604,402.918 352.5,409.5C 339.961,416.181 328.627,424.681 318.5,435C 315.484,435.664 312.651,435.164 310,433.5C 308.477,435.354 306.644,436.854 304.5,438C 299.316,438.816 294.316,438.65 289.5,437.5C 283.749,435.96 277.749,435.294 271.5,435.5C 266.987,435.501 262.653,435.834 258.5,436.5C 258.167,436.5 257.833,436.5 257.5,436.5C 246.831,437.773 236.165,437.773 225.5,436.5C 222.314,435.037 218.98,434.537 215.5,435C 202.878,443.037 189.211,445.537 174.5,442.5C 174.631,441.624 174.298,440.957 173.5,440.5C 161.093,433.963 148.426,427.963 135.5,422.5C 135.027,421.094 134.027,420.427 132.5,420.5C 131.508,420.672 130.842,420.338 130.5,419.5C 128.121,416.465 125.121,414.131 121.5,412.5C 120.089,410.086 118.089,408.419 115.5,407.5C 114.969,405.456 113.802,403.789 112,402.5C 111.121,399.182 110.287,395.848 109.5,392.5C 107.925,391.544 106.258,390.877 104.5,390.5C 104.389,389.883 104.056,389.383 103.5,389C 100.183,388.502 96.8499,388.335 93.5,388.5C 93.5,386.833 93.5,385.167 93.5,383.5C 91.5,383.5 89.5,383.5 87.5,383.5C 85.9925,378.319 82.6591,375.319 77.5,374.5C 71.949,369.73 66.6157,364.73 61.5,359.5C 60.1515,357.389 60.4848,355.555 62.5,354C 58.7795,352.619 55.9461,350.119 54,346.5C 52.6178,340.872 51.4511,335.206 50.5,329.5C 50.3505,328.448 50.5172,327.448 51,326.5C 52.4795,330.308 54.9795,333.142 58.5,335C 57.2351,336.337 56.7351,337.837 57,339.5C 63.3116,347.148 70.8116,353.315 79.5,358C 82.242,359.886 83.9087,362.386 84.5,365.5C 86.5,365.167 88.5,364.833 90.5,364.5C 90.5,366.5 90.5,368.5 90.5,370.5C 96.1229,370.049 101.456,371.049 106.5,373.5C 107.097,377.302 108.097,380.968 109.5,384.5C 113.318,387.818 116.985,391.318 120.5,395C 137.227,406.294 154.894,415.794 173.5,423.5C 175.148,424.927 177.148,425.76 179.5,426C 184.352,426.815 189.019,426.648 193.5,425.5C 201.991,423.672 209.991,420.672 217.5,416.5C 221.369,417.179 225.036,418.346 228.5,420C 237.01,420.823 245.344,420.657 253.5,419.5C 263.476,418.668 273.476,418.334 283.5,418.5C 288.62,419.912 293.953,420.912 299.5,421.5C 302.155,421.56 304.489,420.893 306.5,419.5C 308.162,418.015 309.995,416.682 312,415.5C 313.434,415.93 314.601,416.764 315.5,418C 316.833,418.667 318.167,418.667 319.5,418C 322.833,413.333 326.833,409.333 331.5,406C 346.755,395.754 361.755,385.087 376.5,374C 381.839,368.994 386.839,363.661 391.5,358C 394.514,354.966 398.181,353.799 402.5,354.5C 402.194,351.615 402.527,348.948 403.5,346.5C 405.245,344.967 406.245,342.967 406.5,340.5C 411.582,330.002 416.915,319.669 422.5,309.5C 424.008,307.819 425.008,305.819 425.5,303.5C 426.193,300.09 427.86,297.423 430.5,295.5 Z"/></g>
<g><path style="opacity:0.208" fill="#e0d4bd" d="M 40.5,269.5 C 40.8333,269.5 41.1667,269.5 41.5,269.5C 41.8333,269.5 42.1667,269.5 42.5,269.5C 44.3423,287.75 46.3423,306.083 48.5,324.5C 47.0185,316.968 45.5185,309.301 44,301.5C 43.6667,293.833 43.3333,286.167 43,278.5C 42.801,275.278 41.9676,272.278 40.5,269.5 Z"/></g>
<g><path style="opacity:0.996" fill="#9c894a" d="M 180.5,258.5 C 181.664,284.997 181.83,311.664 181,338.5C 180.884,343.434 180.051,348.1 178.5,352.5C 178.5,351.833 178.5,351.167 178.5,350.5C 179.694,319.867 180.36,289.2 180.5,258.5 Z"/></g>
<g><path style="opacity:0.996" fill="#5c4a29" d="M 425.5,303.5 C 425.008,305.819 424.008,307.819 422.5,309.5C 422.461,306.911 423.461,304.911 425.5,303.5 Z"/></g>
<g><path style="opacity:0.525" fill="#999999" d="M 430.5,305.5 C 430.5,306.167 430.5,306.833 430.5,307.5C 429.779,311.689 428.113,315.355 425.5,318.5C 426.422,313.693 428.088,309.36 430.5,305.5 Z"/></g>
<g><path style="opacity:0.996" fill="#3f4239" d="M 380.5,344.5 C 381.912,346.23 381.578,347.73 379.5,349C 365.492,352.031 351.325,353.865 337,354.5C 332.432,354.523 327.932,354.023 323.5,353C 318.882,350.05 314.548,346.716 310.5,343C 301.397,332.895 291.897,323.061 282,313.5C 263.676,330.412 242.51,342.245 218.5,349C 212.63,350.801 206.63,351.635 200.5,351.5C 200.527,349.801 201.194,348.467 202.5,347.5C 211.919,345.782 221.253,343.616 230.5,341C 249.186,332.979 266.353,322.479 282,309.5C 293.046,320.546 304.213,331.713 315.5,343C 317.531,345.022 319.865,346.689 322.5,348C 330.436,349.53 338.436,349.863 346.5,349C 357.984,348.301 369.318,346.801 380.5,344.5 Z"/></g>
<g><path style="opacity:0.447" fill="#999999" d="M 425.5,318.5 C 423.69,323.453 421.357,328.12 418.5,332.5C 418.34,330.801 418.506,329.134 419,327.5C 420.722,324.133 422.889,321.133 425.5,318.5 Z"/></g>
<g><path style="opacity:0.318" fill="#aaaaaa" d="M 418.5,332.5 C 415.246,340.678 411.246,348.345 406.5,355.5C 408.734,346.691 412.734,339.024 418.5,332.5 Z"/></g>
<g><path style="opacity:0.996" fill="#746e41" d="M 162.5,323.5 C 162.5,327.5 162.5,331.5 162.5,335.5C 163.167,338.5 163.833,341.5 164.5,344.5C 163.207,343.158 162.374,341.491 162,339.5C 161.183,333.984 161.349,328.65 162.5,323.5 Z"/></g>
<g><path style="opacity:0.996" fill="#493b21" d="M 406.5,340.5 C 406.245,342.967 405.245,344.967 403.5,346.5C 403.755,344.033 404.755,342.033 406.5,340.5 Z"/></g>
<g><path style="opacity:0.996" fill="#434739" d="M 162.5,335.5 C 164.601,342.274 167.934,348.44 172.5,354C 175.331,354.349 177.331,353.183 178.5,350.5C 178.5,351.167 178.5,351.833 178.5,352.5C 178.711,356.984 176.711,358.817 172.5,358C 169.181,353.857 166.514,349.357 164.5,344.5C 163.833,341.5 163.167,338.5 162.5,335.5 Z"/></g>
<g><path style="opacity:0.2" fill="#b3b3b2" d="M 48.5,325.5 C 49.1667,326.833 49.8333,328.167 50.5,329.5C 51.4511,335.206 52.6178,340.872 54,346.5C 55.9461,350.119 58.7795,352.619 62.5,354C 60.4848,355.555 60.1515,357.389 61.5,359.5C 66.6157,364.73 71.949,369.73 77.5,374.5C 68.3875,370.39 62.0542,363.723 58.5,354.5C 55.3525,351.843 53.1859,348.51 52,344.5C 50.6665,338.172 49.4998,331.839 48.5,325.5 Z"/></g>
<g><path style="opacity:0.227" fill="#9d9d9d" d="M 77.5,374.5 C 82.6591,375.319 85.9925,378.319 87.5,383.5C 88.9187,384.451 90.5853,384.784 92.5,384.5C 92.5,385.833 92.5,387.167 92.5,388.5C 91.8423,387.602 91.1757,386.602 90.5,385.5C 89.1877,386.46 87.8544,386.294 86.5,385C 84.3541,380.693 81.3541,377.193 77.5,374.5 Z"/></g>
<g><path style="opacity:0.031" fill="#a1a1a1" d="M 406.5,355.5 C 405.353,359.759 403.519,363.759 401,367.5C 400.503,369.81 400.337,372.143 400.5,374.5C 397.107,374.062 394.107,374.895 391.5,377C 380.409,390.269 367.409,401.102 352.5,409.5C 360.604,402.918 368.938,396.418 377.5,390C 381.5,385.333 385.5,380.667 389.5,376C 392.447,373.836 395.781,373.002 399.5,373.5C 399.127,366.276 401.46,360.276 406.5,355.5 Z"/></g>
<g><path style="opacity:0.576" fill="#616161" d="M 87.5,383.5 C 89.5,383.5 91.5,383.5 93.5,383.5C 93.5,385.167 93.5,386.833 93.5,388.5C 96.8499,388.335 100.183,388.502 103.5,389C 104.056,389.383 104.389,389.883 104.5,390.5C 100.901,389.656 97.2343,389.323 93.5,389.5C 92.8333,389.5 92.5,389.167 92.5,388.5C 92.5,387.167 92.5,385.833 92.5,384.5C 90.5853,384.784 88.9187,384.451 87.5,383.5 Z"/></g>
<g><path style="opacity:0.108" fill="#a6a6a6" d="M 93.5,389.5 C 97.2343,389.323 100.901,389.656 104.5,390.5C 106.258,390.877 107.925,391.544 109.5,392.5C 110.287,395.848 111.121,399.182 112,402.5C 113.802,403.789 114.969,405.456 115.5,407.5C 110.628,403.926 107.962,399.093 107.5,393C 102.816,391.347 98.1496,390.181 93.5,389.5 Z"/></g>
<g><path style="opacity:0.404" fill="#8d8d8d" d="M 115.5,407.5 C 118.089,408.419 120.089,410.086 121.5,412.5C 118.911,411.581 116.911,409.914 115.5,407.5 Z"/></g>
<g><path style="opacity:0.02" fill="#9b9b9b" d="M 121.5,412.5 C 125.121,414.131 128.121,416.465 130.5,419.5C 126.879,417.869 123.879,415.535 121.5,412.5 Z"/></g>
<g><path style="opacity:0.996" fill="#5a4928" d="M 283.5,418.5 C 273.476,418.334 263.476,418.668 253.5,419.5C 259.084,417.966 264.917,417.299 271,417.5C 275.347,417.501 279.514,417.834 283.5,418.5 Z"/></g>
<g><path style="opacity:0.996" fill="#715b33" d="M 283.5,418.5 C 291.15,419.143 298.817,419.477 306.5,419.5C 304.489,420.893 302.155,421.56 299.5,421.5C 293.953,420.912 288.62,419.912 283.5,418.5 Z"/></g>
<g><path style="opacity:0.239" fill="#b3b3b3" d="M 132.5,420.5 C 134.027,420.427 135.027,421.094 135.5,422.5C 133.973,422.573 132.973,421.906 132.5,420.5 Z"/></g>
<g><path style="opacity:0.996" fill="#6d5831" d="M 173.5,423.5 C 180.044,425.132 186.711,425.799 193.5,425.5C 189.019,426.648 184.352,426.815 179.5,426C 177.148,425.76 175.148,424.927 173.5,423.5 Z"/></g>
<g><path style="opacity:0.008" fill="#8e8e8e" d="M 135.5,422.5 C 148.426,427.963 161.093,433.963 173.5,440.5C 174.298,440.957 174.631,441.624 174.5,442.5C 160.71,437.106 147.71,430.44 135.5,422.5 Z"/></g>
<g><path style="opacity:0.039" fill="#a6a6a5" d="M 225.5,436.5 C 226.609,437.29 227.942,437.79 229.5,438C 236.679,438.171 243.679,438.671 250.5,439.5C 239.645,440.19 228.978,439.19 218.5,436.5C 212.598,439.083 206.598,441.583 200.5,444C 192.495,445.927 184.495,445.927 176.5,444C 175.584,443.722 174.918,443.222 174.5,442.5C 189.211,445.537 202.878,443.037 215.5,435C 218.98,434.537 222.314,435.037 225.5,436.5 Z"/></g>
<g><path style="opacity:0.539" fill="#646363" d="M 258.5,436.5 C 262.653,435.834 266.987,435.501 271.5,435.5C 277.749,435.294 283.749,435.96 289.5,437.5C 287.5,437.5 285.5,437.5 283.5,437.5C 275.35,436.507 267.017,436.174 258.5,436.5 Z"/></g>
<g><path style="opacity:0.137" fill="#a9a9a9" d="M 352.5,409.5 C 345.683,414.803 338.683,419.97 331.5,425C 327.374,429.285 323.04,433.285 318.5,437C 315.83,437.543 313.33,437.043 311,435.5C 307.585,438.54 303.585,440.206 299,440.5C 293.589,440.074 288.423,439.074 283.5,437.5C 285.5,437.5 287.5,437.5 289.5,437.5C 294.316,438.65 299.316,438.816 304.5,438C 306.644,436.854 308.477,435.354 310,433.5C 312.651,435.164 315.484,435.664 318.5,435C 328.627,424.681 339.961,416.181 352.5,409.5 Z"/></g>
<g><path style="opacity:0.006" fill="#e2e2e2" d="M 257.5,436.5 C 257.833,436.5 258.167,436.5 258.5,436.5C 267.017,436.174 275.35,436.507 283.5,437.5C 272.713,437.141 262.047,437.808 251.5,439.5C 253.156,437.94 255.156,436.94 257.5,436.5 Z"/></g>
<g><path style="opacity:0.692" fill="#424241" d="M 225.5,436.5 C 236.165,437.773 246.831,437.773 257.5,436.5C 255.156,436.94 253.156,437.94 251.5,439.5C 251.167,439.5 250.833,439.5 250.5,439.5C 243.679,438.671 236.679,438.171 229.5,438C 227.942,437.79 226.609,437.29 225.5,436.5 Z"/></g>
</svg>
