<?xml version="1.0" encoding="UTF-8"?>
<!DOCTYPE svg PUBLIC "-//W3C//DTD SVG 1.1//EN" "http://www.w3.org/Graphics/SVG/1.1/DTD/svg11.dtd">
<svg xmlns="http://www.w3.org/2000/svg" version="1.1" width="468px" height="470px" style="shape-rendering:geometricPrecision; text-rendering:geometricPrecision; image-rendering:optimizeQuality; fill-rule:evenodd; clip-rule:evenodd" xmlns:xlink="http://www.w3.org/1999/xlink">
<g><path style="opacity:0.996" fill="#b59352" d="M 309.5,64.5 C 309.369,65.3764 309.702,66.0431 310.5,66.5C 330.121,74.3119 347.454,85.6452 362.5,100.5C 360.639,107.623 363.306,111.29 370.5,111.5C 370.833,111.5 371.167,111.5 371.5,111.5C 373.948,112.473 376.615,112.806 379.5,112.5C 379.201,114.604 379.534,116.604 380.5,118.5C 382.071,117.691 383.738,117.357 385.5,117.5C 385.781,119.963 386.781,122.13 388.5,124C 394.321,127.663 399.988,131.497 405.5,135.5C 407.461,137.963 409.628,140.297 412,142.5C 412.651,144.235 412.485,145.902 411.5,147.5C 412.325,148.386 413.325,148.719 414.5,148.5C 417.385,152.937 419.719,157.604 421.5,162.5C 423.217,165.845 423.884,169.511 423.5,173.5C 425.738,190.41 426.905,207.41 427,224.5C 427.383,225.056 427.883,225.389 428.5,225.5C 428.336,228.187 428.503,230.854 429,233.5C 431.425,236.741 433.925,239.741 436.5,242.5C 437.762,247.152 437.762,251.819 436.5,256.5C 434.983,256.511 433.816,257.177 433,258.5C 432.472,259.816 432.972,260.483 434.5,260.5C 434.416,263.327 433.75,265.994 432.5,268.5C 432.5,270.167 432.5,271.833 432.5,273.5C 433.01,281.714 432.01,289.714 429.5,297.5C 428.542,297.953 427.708,298.619 427,299.5C 418.396,315.708 410.063,332.042 402,348.5C 401.503,351.146 401.336,353.813 401.5,356.5C 397.869,356.16 394.536,356.994 391.5,359C 386.017,365.65 380.017,371.817 373.5,377.5C 361.304,386.195 348.971,394.695 336.5,403C 330.5,408.333 324.5,413.667 318.5,419C 315.924,419.606 313.59,419.106 311.5,417.5C 309.577,418.092 307.911,419.092 306.5,420.5C 300.894,421.407 295.227,421.74 289.5,421.5C 286.609,420.597 283.609,420.264 280.5,420.5C 261.317,420.426 241.984,420.426 222.5,420.5C 219.741,418.707 216.741,418.207 213.5,419C 209.412,421.85 205.079,424.017 200.5,425.5C 193.604,427.082 186.604,427.749 179.5,427.5C 159.254,420.711 140.254,411.211 122.5,399C 118.033,395.535 113.867,391.702 110,387.5C 107.619,383.86 106.119,379.86 105.5,375.5C 100.649,372.395 95.3161,371.061 89.5,371.5C 89.5,369.833 89.5,368.167 89.5,366.5C 87.7741,366.815 86.1075,366.981 84.5,367C 82.1034,361.604 78.1034,357.938 72.5,356C 67.0057,351.505 61.8391,346.672 57,341.5C 56.8195,339.512 56.9862,337.512 57.5,335.5C 56.5,335.5 55.5,335.5 54.5,335.5C 53.0664,332.953 51.3998,330.619 49.5,328.5C 49.7489,324.542 49.0823,320.876 47.5,317.5C 47.9227,315.219 47.256,313.552 45.5,312.5C 44.0474,299.211 43.3808,285.878 43.5,272.5C 43.6382,267.586 42.9715,262.919 41.5,258.5C 40.6766,255.52 39.3433,252.853 37.5,250.5C 35.5367,246.659 33.7034,242.659 32,238.5C 31.5026,235.854 31.3359,233.187 31.5,230.5C 31.2291,228.62 31.8958,227.287 33.5,226.5C 34.5,226.5 35.5,226.5 36.5,226.5C 36.6766,224.019 35.6766,222.186 33.5,221C 35.7656,219.486 36.9323,217.319 37,214.5C 37.3333,207.833 37.6667,201.167 38,194.5C 42.2772,185.15 46.4438,175.816 50.5,166.5C 54.841,163.304 57.341,158.971 58,153.5C 60.1466,149.396 62.48,145.396 65,141.5C 65.49,140.207 65.6567,138.873 65.5,137.5C 68.075,135.155 69.075,132.155 68.5,128.5C 70.5273,128.662 72.5273,128.495 74.5,128C 82.7236,119.944 90.7236,111.778 98.5,103.5C 100.246,101.748 102.246,100.415 104.5,99.5C 109.197,97.8225 113.197,95.1558 116.5,91.5C 118.749,90.9202 120.415,89.5869 121.5,87.5C 121.833,87.5 122.167,87.5 122.5,87.5C 131.656,82.683 139.656,76.3497 146.5,68.5C 148.68,67.8829 150.68,66.8829 152.5,65.5C 154.711,66.1228 156.711,67.1228 158.5,68.5C 162.791,63.0724 168.458,61.0724 175.5,62.5C 176.334,63.7479 177.667,64.4146 179.5,64.5C 196.157,65.5673 212.823,65.5673 229.5,64.5C 236.934,64.2936 244.267,64.9602 251.5,66.5C 253.038,66.5466 254.038,65.8799 254.5,64.5C 263.461,60.9264 272.794,58.593 282.5,57.5C 286.843,57.9178 291.176,58.4178 295.5,59C 299.858,61.7499 304.524,63.5832 309.5,64.5 Z"/></g>
<g><path style="opacity:0.412" fill="#dbc8a6" d="M 309.5,64.5 C 304.524,63.5832 299.858,61.7499 295.5,59C 291.176,58.4178 286.843,57.9178 282.5,57.5C 272.794,58.593 263.461,60.9264 254.5,64.5C 272.82,52.5905 291.153,52.5905 309.5,64.5 Z"/></g>
<g><path style="opacity:0.031" fill="#e7e4ce" d="M 226.5,61.5 C 233.082,61.1561 239.416,61.8228 245.5,63.5C 238.963,63.4138 232.63,62.7472 226.5,61.5 Z"/></g>
<g><path style="opacity:0.208" fill="#eee5d5" d="M 225.5,61.5 C 225.082,62.2216 224.416,62.7216 223.5,63C 219.848,63.4986 216.182,63.6653 212.5,63.5C 216.639,62.4371 220.972,61.7704 225.5,61.5 Z"/></g>
<g><path style="opacity:0.543" fill="#c7ac79" d="M 225.5,61.5 C 225.833,61.5 226.167,61.5 226.5,61.5C 232.63,62.7472 238.963,63.4138 245.5,63.5C 248.482,63.9629 251.482,64.2962 254.5,64.5C 254.038,65.8799 253.038,66.5466 251.5,66.5C 244.267,64.9602 236.934,64.2936 229.5,64.5C 212.823,65.5673 196.157,65.5673 179.5,64.5C 177.667,64.4146 176.334,63.7479 175.5,62.5C 178.096,63.2653 180.763,63.5987 183.5,63.5C 193.167,63.5 202.833,63.5 212.5,63.5C 216.182,63.6653 219.848,63.4986 223.5,63C 224.416,62.7216 225.082,62.2216 225.5,61.5 Z"/></g>
<g><path style="opacity:0.843" fill="#dcccac" d="M 183.5,63.5 C 180.763,63.5987 178.096,63.2653 175.5,62.5C 168.458,61.0724 162.791,63.0724 158.5,68.5C 156.711,67.1228 154.711,66.1228 152.5,65.5C 150.68,66.8829 148.68,67.8829 146.5,68.5C 148.769,63.1041 152.436,62.1041 157.5,65.5C 165.81,59.5532 174.476,58.8866 183.5,63.5 Z"/></g>
<g><path style="opacity:0.169" fill="#e3d6ba" d="M 309.5,64.5 C 329.471,71.9093 346.971,83.2426 362,98.5C 362.464,99.0944 362.631,99.7611 362.5,100.5C 347.454,85.6452 330.121,74.3119 310.5,66.5C 309.702,66.0431 309.369,65.3764 309.5,64.5 Z"/></g>
<g><path style="opacity:0.325" fill="#e2d4ba" d="M 146.5,68.5 C 139.656,76.3497 131.656,82.683 122.5,87.5C 130.495,81.1735 138.495,74.8402 146.5,68.5 Z"/></g>
<g><path style="opacity:0.133" fill="#ebdcc6" d="M 121.5,87.5 C 120.415,89.5869 118.749,90.9202 116.5,91.5C 117.585,89.4131 119.251,88.0798 121.5,87.5 Z"/></g>
<g><path style="opacity:0.333" fill="#dccdaf" d="M 116.5,91.5 C 113.197,95.1558 109.197,97.8225 104.5,99.5C 108.148,96.3401 112.148,93.6735 116.5,91.5 Z"/></g>
<g><path style="opacity:0.165" fill="#efe6d0" d="M 362.5,100.5 C 363.743,102.964 364.743,105.63 365.5,108.5C 367.145,109.696 368.811,110.696 370.5,111.5C 363.306,111.29 360.639,107.623 362.5,100.5 Z"/></g>
<g><path style="opacity:0.31" fill="#dfcfb0" d="M 98.5,103.5 C 90.7236,111.778 82.7236,119.944 74.5,128C 72.5273,128.495 70.5273,128.662 68.5,128.5C 69.075,132.155 68.075,135.155 65.5,137.5C 66.3242,134.236 66.6576,130.902 66.5,127.5C 68.8568,127.663 71.1902,127.497 73.5,127C 81.3485,118.651 89.6819,110.818 98.5,103.5 Z"/></g>
<g><path style="opacity:0.996" fill="#346f22" d="M 309.5,131.5 C 308.542,131.953 307.708,132.619 307,133.5C 302.319,142.198 297.652,150.865 293,159.5C 292.691,162.967 293.524,163.3 295.5,160.5C 295.735,161.097 296.235,161.43 297,161.5C 300.498,160.667 303.998,159.834 307.5,159C 316.158,155.558 324.991,152.725 334,150.5C 338.659,151.053 343.159,152.22 347.5,154C 349.229,155.789 349.896,157.956 349.5,160.5C 339.409,164.198 329.075,167.365 318.5,170C 307.504,171.371 296.504,171.871 285.5,171.5C 279.396,179.774 272.729,187.607 265.5,195C 263.975,196.009 262.308,196.509 260.5,196.5C 259.402,195.399 259.235,194.066 260,192.5C 262.358,189.778 264.191,186.778 265.5,183.5C 276.311,168.532 283.311,151.866 286.5,133.5C 285.667,128.511 285.5,123.511 286,118.5C 295.071,117.523 302.738,120.523 309,127.5C 309.49,128.793 309.657,130.127 309.5,131.5 Z"/></g>
<g><path style="opacity:0.29" fill="#dfd0b4" d="M 371.5,111.5 C 374.5,111.5 377.5,111.5 380.5,111.5C 379.985,115.831 381.652,117.331 385.5,116C 387.35,119.362 389.683,122.362 392.5,125C 397.355,128.039 401.688,131.539 405.5,135.5C 399.988,131.497 394.321,127.663 388.5,124C 386.781,122.13 385.781,119.963 385.5,117.5C 383.738,117.357 382.071,117.691 380.5,118.5C 379.534,116.604 379.201,114.604 379.5,112.5C 376.615,112.806 373.948,112.473 371.5,111.5 Z"/></g>
<g><path style="opacity:0.996" fill="#346e22" d="M 240.5,165.5 C 240.657,164.127 240.49,162.793 240,161.5C 236.692,163.993 233.192,164.159 229.5,162C 222.103,155.12 216.103,147.287 211.5,138.5C 209.339,133.841 210.839,131.841 216,132.5C 227.414,133.533 236.081,138.866 242,148.5C 242.943,154.436 242.443,160.103 240.5,165.5 Z"/></g>
<g><path style="opacity:0.439" fill="#dbc7a5" d="M 65.5,137.5 C 65.6567,138.873 65.49,140.207 65,141.5C 62.48,145.396 60.1466,149.396 58,153.5C 57.341,158.971 54.841,163.304 50.5,166.5C 55.1388,156.561 60.1388,146.894 65.5,137.5 Z"/></g>
<g><path style="opacity:0.996" fill="#316e21" d="M 178.5,170.5 C 177.326,172.997 175.326,174.33 172.5,174.5C 169.75,173.598 167.083,172.431 164.5,171C 156.14,163.821 149.14,155.654 143.5,146.5C 142.829,141.854 144.829,139.854 149.5,140.5C 156.914,142.204 163.914,145.037 170.5,149C 177.399,154.523 180.065,161.689 178.5,170.5 Z"/></g>
<g><path style="opacity:0.027" fill="#e7dfca" d="M 405.5,135.5 C 411.489,138.096 414.489,142.43 414.5,148.5C 413.325,148.719 412.325,148.386 411.5,147.5C 412.485,145.902 412.651,144.235 412,142.5C 409.628,140.297 407.461,137.963 405.5,135.5 Z"/></g>
<g><path style="opacity:0.996" fill="#434a38" d="M 309.5,131.5 C 309.785,133.288 309.452,134.955 308.5,136.5C 304.11,144.534 299.776,152.534 295.5,160.5C 293.524,163.3 292.691,162.967 293,159.5C 297.652,150.865 302.319,142.198 307,133.5C 307.708,132.619 308.542,131.953 309.5,131.5 Z"/></g>
<g><path style="opacity:0.502" fill="#e1d0b4" d="M 414.5,148.5 C 415.721,149.028 416.887,149.695 418,150.5C 420.056,154.268 421.222,158.268 421.5,162.5C 419.719,157.604 417.385,152.937 414.5,148.5 Z"/></g>
<g><path style="opacity:0.996" fill="#41433a" d="M 211.5,138.5 C 216.103,147.287 222.103,155.12 229.5,162C 233.192,164.159 236.692,163.993 240,161.5C 240.49,162.793 240.657,164.127 240.5,165.5C 236.109,168.247 231.775,168.08 227.5,165C 220.343,157.689 214.677,149.356 210.5,140C 210.57,139.235 210.903,138.735 211.5,138.5 Z"/></g>
<g><path style="opacity:0.996" fill="#40433a" d="M 349.5,160.5 C 349.714,162.144 349.38,163.644 348.5,165C 328.647,173.895 307.981,177.229 286.5,175C 281.27,181.984 275.937,188.818 270.5,195.5C 267.775,196.713 265.441,198.546 263.5,201C 262.207,201.49 260.873,201.657 259.5,201.5C 259.629,199.784 259.962,198.117 260.5,196.5C 262.308,196.509 263.975,196.009 265.5,195C 272.729,187.607 279.396,179.774 285.5,171.5C 296.504,171.871 307.504,171.371 318.5,170C 329.075,167.365 339.409,164.198 349.5,160.5 Z"/></g>
<g><path style="opacity:0.996" fill="#42443a" d="M 143.5,146.5 C 149.14,155.654 156.14,163.821 164.5,171C 167.083,172.431 169.75,173.598 172.5,174.5C 175.326,174.33 177.326,172.997 178.5,170.5C 177.797,178.21 173.797,180.377 166.5,177C 157.255,169.989 149.755,161.489 144,151.5C 143.506,149.866 143.34,148.199 143.5,146.5 Z"/></g>
<g><path style="opacity:0.996" fill="#336f21" d="M 252.5,171.5 C 260.064,169.37 264.064,172.037 264.5,179.5C 253.799,184.836 242.466,188.503 230.5,190.5C 230.12,192.698 230.787,194.365 232.5,195.5C 237.136,200.725 237.803,206.559 234.5,213C 234.833,213.5 235.167,214 235.5,214.5C 241.74,217.148 248.073,219.648 254.5,222C 257.125,224.196 258.125,227.03 257.5,230.5C 254.675,234.22 253.341,238.554 253.5,243.5C 252.065,250.899 250.732,258.232 249.5,265.5C 247.738,275.989 244.905,286.323 241,296.5C 237.646,303.192 233.48,309.359 228.5,315C 225.711,316.664 222.877,316.83 220,315.5C 217.747,306.118 213.247,298.118 206.5,291.5C 206.5,289.833 206.5,288.167 206.5,286.5C 210.883,288.679 215.55,290.346 220.5,291.5C 223.325,291.881 225.491,290.881 227,288.5C 231.378,280.369 234.378,271.703 236,262.5C 237.335,256.479 238.668,250.479 240,244.5C 240.762,240.413 240.596,236.413 239.5,232.5C 239.07,226.583 236.07,223.083 230.5,222C 224.591,235.986 217.757,249.486 210,262.5C 201.831,274.176 191.664,283.509 179.5,290.5C 178.387,289.054 178.22,287.387 179,285.5C 197.316,263.865 210.65,239.532 219,212.5C 219.499,208.179 219.666,203.846 219.5,199.5C 219.5,198.167 219.5,196.833 219.5,195.5C 207.869,197.456 196.202,197.79 184.5,196.5C 183.464,194.609 183.464,192.776 184.5,191C 195.678,187.83 207.011,185.163 218.5,183C 229.763,178.857 241.097,175.024 252.5,171.5 Z"/></g>
<g><path style="opacity:0.996" fill="#3c4138" d="M 264.5,179.5 C 264.714,181.144 264.38,182.644 263.5,184C 253.631,188.892 243.298,192.725 232.5,195.5C 230.787,194.365 230.12,192.698 230.5,190.5C 242.466,188.503 253.799,184.836 264.5,179.5 Z"/></g>
<g><path style="opacity:0.996" fill="#346e22" d="M 342.5,200.5 C 339.07,201.714 335.736,203.214 332.5,205C 323.722,211.81 315.222,218.977 307,226.5C 306.26,227.749 306.427,228.749 307.5,229.5C 310.174,234.016 312.174,238.849 313.5,244C 319.83,243.38 326.164,242.38 332.5,241C 342.698,239.76 352.032,242.093 360.5,248C 361.752,249.828 361.752,251.661 360.5,253.5C 359.244,253.461 358.244,253.961 357.5,255C 343.504,255.5 329.504,255.667 315.5,255.5C 315.5,257.167 315.5,258.833 315.5,260.5C 315.876,274.897 315.209,289.23 313.5,303.5C 311.507,309.823 308.674,315.823 305,321.5C 301.659,326.261 297.325,327.928 292,326.5C 287.36,317.196 280.86,309.529 272.5,303.5C 271.058,302.18 270.392,300.514 270.5,298.5C 276.319,299.23 282.153,299.897 288,300.5C 291.604,301.013 294.604,300.013 297,297.5C 300.187,286.071 301.353,274.404 300.5,262.5C 300.5,261.167 300.5,259.833 300.5,258.5C 296.154,258.334 291.821,258.501 287.5,259C 277.472,264.061 267.805,263.561 258.5,257.5C 255.982,255.643 255.982,253.81 258.5,252C 271.821,250.39 285.154,248.89 298.5,247.5C 298.5,246.167 298.5,244.833 298.5,243.5C 298.312,236.787 295.312,231.787 289.5,228.5C 288.699,226.958 288.366,225.292 288.5,223.5C 292.554,224.184 296.554,224.184 300.5,223.5C 305.913,216.76 310.913,209.76 315.5,202.5C 317.104,201.713 317.771,200.38 317.5,198.5C 314.482,198.335 311.482,198.502 308.5,199C 303.096,200.591 298.096,202.924 293.5,206C 288.526,207.327 283.526,208.494 278.5,209.5C 274.301,208.214 270.301,206.548 266.5,204.5C 265.047,201.245 266.047,198.912 269.5,197.5C 276.533,197.497 283.533,196.997 290.5,196C 302.253,192.314 313.92,188.481 325.5,184.5C 333.001,185.501 338.834,189.168 343,195.5C 343.64,197.265 343.473,198.932 342.5,200.5 Z"/></g>
<g><path style="opacity:0.996" fill="#b29151" d="M 252.5,171.5 C 263.019,168.343 267.353,172.343 265.5,183.5C 264.191,186.778 262.358,189.778 260,192.5C 259.235,194.066 259.402,195.399 260.5,196.5C 259.962,198.117 259.629,199.784 259.5,201.5C 260.873,201.657 262.207,201.49 263.5,201C 265.441,198.546 267.775,196.713 270.5,195.5C 270.167,196.167 269.833,196.833 269.5,197.5C 266.047,198.912 265.047,201.245 266.5,204.5C 268.337,210.52 272.504,213.52 279,213.5C 280.833,213.333 282.667,213.167 284.5,213C 291.178,210.332 297.845,207.665 304.5,205C 308.07,203.69 311.737,202.857 315.5,202.5C 310.913,209.76 305.913,216.76 300.5,223.5C 296.554,224.184 292.554,224.184 288.5,223.5C 288.366,225.292 288.699,226.958 289.5,228.5C 289.343,229.873 289.51,231.207 290,232.5C 293.08,236.067 295.913,239.733 298.5,243.5C 298.5,244.833 298.5,246.167 298.5,247.5C 285.154,248.89 271.821,250.39 258.5,252C 255.982,253.81 255.982,255.643 258.5,257.5C 256.915,258.002 256.415,259.002 257,260.5C 263.098,266.162 270.264,267.995 278.5,266C 285.665,263.925 292.999,262.758 300.5,262.5C 301.353,274.404 300.187,286.071 297,297.5C 294.604,300.013 291.604,301.013 288,300.5C 282.153,299.897 276.319,299.23 270.5,298.5C 270.392,300.514 271.058,302.18 272.5,303.5C 270.535,303.948 270.202,304.948 271.5,306.5C 279.781,313.611 286.781,321.778 292.5,331C 295.741,331.793 298.741,331.293 301.5,329.5C 301.249,331.17 300.582,332.67 299.5,334C 299.833,334.333 300.167,334.667 300.5,335C 314.829,335.5 329.163,335.667 343.5,335.5C 302.887,338.432 263.22,333.766 224.5,321.5C 228.647,319.677 232.147,317.011 235,313.5C 237.466,307.783 240.133,302.116 243,296.5C 243.326,291.854 244.66,287.521 247,283.5C 248.368,277.567 249.201,271.567 249.5,265.5C 250.732,258.232 252.065,250.899 253.5,243.5C 256.207,239.693 257.54,235.36 257.5,230.5C 258.125,227.03 257.125,224.196 254.5,222C 248.073,219.648 241.74,217.148 235.5,214.5C 235.167,214 234.833,213.5 234.5,213C 237.803,206.559 237.136,200.725 232.5,195.5C 243.298,192.725 253.631,188.892 263.5,184C 264.38,182.644 264.714,181.144 264.5,179.5C 264.064,172.037 260.064,169.37 252.5,171.5 Z"/></g>
<g><path style="opacity:0.663" fill="#d9c6a3" d="M 50.5,166.5 C 46.4438,175.816 42.2772,185.15 38,194.5C 37.6667,201.167 37.3333,207.833 37,214.5C 36.9323,217.319 35.7656,219.486 33.5,221C 35.6766,222.186 36.6766,224.019 36.5,226.5C 35.5,226.5 34.5,226.5 33.5,226.5C 33.8039,225.85 34.1373,225.183 34.5,224.5C 32.9884,223.751 31.9884,222.584 31.5,221C 32.4965,219.404 33.6632,217.904 35,216.5C 35.3333,209.167 35.6667,201.833 36,194.5C 40.5773,184.858 45.4107,175.524 50.5,166.5 Z"/></g>
<g><path style="opacity:0.996" fill="#3f4239" d="M 219.5,199.5 C 209.589,201.489 199.589,202.323 189.5,202C 187.579,201.64 185.912,200.806 184.5,199.5C 183.224,198.386 183.224,197.386 184.5,196.5C 196.202,197.79 207.869,197.456 219.5,195.5C 219.5,196.833 219.5,198.167 219.5,199.5 Z"/></g>
<g><path style="opacity:0.996" fill="#3e4139" d="M 315.5,202.5 C 311.737,202.857 308.07,203.69 304.5,205C 297.845,207.665 291.178,210.332 284.5,213C 282.667,213.167 280.833,213.333 279,213.5C 272.504,213.52 268.337,210.52 266.5,204.5C 270.301,206.548 274.301,208.214 278.5,209.5C 283.526,208.494 288.526,207.327 293.5,206C 298.096,202.924 303.096,200.591 308.5,199C 311.482,198.502 314.482,198.335 317.5,198.5C 317.771,200.38 317.104,201.713 315.5,202.5 Z"/></g>
<g><path style="opacity:0.996" fill="#3e4338" d="M 342.5,200.5 C 342.703,202.39 342.037,203.89 340.5,205C 329.04,212.638 318.04,220.804 307.5,229.5C 306.427,228.749 306.26,227.749 307,226.5C 315.222,218.977 323.722,211.81 332.5,205C 335.736,203.214 339.07,201.714 342.5,200.5 Z"/></g>
<g><path style="opacity:0.996" fill="#326e21" d="M 176.5,223.5 C 163.759,232.817 158.092,245.151 159.5,260.5C 163.141,268.244 166.307,276.244 169,284.5C 169.169,291.524 169.669,298.524 170.5,305.5C 179.116,307.649 187.449,310.483 195.5,314C 203.43,316.131 211.43,317.965 219.5,319.5C 220.635,321.213 222.302,321.88 224.5,321.5C 263.22,333.766 302.887,338.432 343.5,335.5C 353.809,334.335 364.142,333.835 374.5,334C 375.92,336.574 375.253,338.407 372.5,339.5C 354.755,345.403 337.089,351.57 319.5,358C 311.214,359.454 302.881,359.787 294.5,359C 282.838,355.894 271.172,352.56 259.5,349C 230.473,338.665 201.473,328.332 172.5,318C 167.344,317 162.178,316.167 157,315.5C 147.119,316.412 137.452,318.079 128,320.5C 125.075,320.477 122.241,319.977 119.5,319C 116.935,316.92 114.268,315.087 111.5,313.5C 109.822,310.368 110.489,307.868 113.5,306C 122.608,304.871 131.608,303.204 140.5,301C 146.157,300.501 151.824,300.334 157.5,300.5C 158.687,294.629 158.52,288.629 157,282.5C 153.445,274.733 149.945,267.066 146.5,259.5C 146.334,255.486 146.501,251.486 147,247.5C 148.829,242.176 150.329,236.843 151.5,231.5C 152.621,229.911 152.454,228.244 151,226.5C 150.107,225.919 149.107,225.585 148,225.5C 138.166,229.423 128.333,229.423 118.5,225.5C 117.272,223.99 117.272,222.49 118.5,221C 130.575,219.957 141.241,215.624 150.5,208C 155.462,204.676 160.462,204.676 165.5,208C 168.5,210.333 171.5,212.667 174.5,215C 177.352,217.376 178.018,220.209 176.5,223.5 Z"/></g>
<g><path style="opacity:0.141" fill="#dfd1b4" d="M 423.5,173.5 C 424.761,176.258 425.594,179.258 426,182.5C 427,196.835 427.833,211.169 428.5,225.5C 427.883,225.389 427.383,225.056 427,224.5C 426.905,207.41 425.738,190.41 423.5,173.5 Z"/></g>
<g><path style="opacity:0.996" fill="#404439" d="M 118.5,225.5 C 128.333,229.423 138.166,229.423 148,225.5C 149.107,225.585 150.107,225.919 151,226.5C 152.454,228.244 152.621,229.911 151.5,231.5C 147.681,230.225 144.014,230.725 140.5,233C 132.517,234.474 125.017,233.307 118,229.5C 117.421,228.072 117.588,226.738 118.5,225.5 Z"/></g>
<g><path style="opacity:0.984" fill="#d2bc92" d="M 428.5,225.5 C 431.135,231.149 433.802,236.816 436.5,242.5C 433.925,239.741 431.425,236.741 429,233.5C 428.503,230.854 428.336,228.187 428.5,225.5 Z"/></g>
<g><path style="opacity:0.996" fill="#5a5e3a" d="M 257.5,230.5 C 257.54,235.36 256.207,239.693 253.5,243.5C 253.341,238.554 254.675,234.22 257.5,230.5 Z"/></g>
<g><path style="opacity:0.996" fill="#434739" d="M 289.5,228.5 C 295.312,231.787 298.312,236.787 298.5,243.5C 295.913,239.733 293.08,236.067 290,232.5C 289.51,231.207 289.343,229.873 289.5,228.5 Z"/></g>
<g><path style="opacity:0.192" fill="#d0c7b4" d="M 31.5,230.5 C 31.3359,233.187 31.5026,235.854 32,238.5C 33.7034,242.659 35.5367,246.659 37.5,250.5C 35.7773,252.78 35.1107,255.447 35.5,258.5C 34.5386,256.735 34.2053,254.735 34.5,252.5C 34.6775,251.305 35.0109,250.138 35.5,249C 31.0911,243.326 29.7578,237.16 31.5,230.5 Z"/></g>
<g><path style="opacity:0.996" fill="#464c38" d="M 176.5,223.5 C 175.234,229.299 172.067,233.965 167,237.5C 164.81,241.076 162.81,244.743 161,248.5C 159.844,252.418 159.344,256.418 159.5,260.5C 158.092,245.151 163.759,232.817 176.5,223.5 Z"/></g>
<g><path style="opacity:0.204" fill="#e9ddc8" d="M 436.5,242.5 C 437.117,242.611 437.617,242.944 438,243.5C 438.658,245.8 439.158,248.133 439.5,250.5C 439.533,253.102 438.533,255.102 436.5,256.5C 437.762,251.819 437.762,247.152 436.5,242.5 Z"/></g>
<g><path style="opacity:0.013" fill="#f4f4f4" d="M 34.5,252.5 C 34.2053,254.735 34.5386,256.735 35.5,258.5C 35.5,259.5 35.5,260.5 35.5,261.5C 34.0598,260.054 33.3932,258.221 33.5,256C 33.5143,254.615 33.8476,253.449 34.5,252.5 Z"/></g>
<g><path style="opacity:0.995" fill="#0f0d0a" d="M 37.5,250.5 C 39.3433,252.853 40.6766,255.52 41.5,258.5C 41.3396,261.884 41.673,265.217 42.5,268.5C 42.5613,270.721 41.8946,271.054 40.5,269.5C 38.63,265.874 36.9633,262.208 35.5,258.5C 35.1107,255.447 35.7773,252.78 37.5,250.5 Z"/></g>
<g><path style="opacity:0.996" fill="#44443b" d="M 360.5,253.5 C 360.487,256.863 358.821,259.03 355.5,260C 342.171,260.5 328.837,260.667 315.5,260.5C 315.5,258.833 315.5,257.167 315.5,255.5C 329.504,255.667 343.504,255.5 357.5,255C 358.244,253.961 359.244,253.461 360.5,253.5 Z"/></g>
<g><path style="opacity:0.996" fill="#41423a" d="M 258.5,257.5 C 267.805,263.561 277.472,264.061 287.5,259C 291.821,258.501 296.154,258.334 300.5,258.5C 300.5,259.833 300.5,261.167 300.5,262.5C 292.999,262.758 285.665,263.925 278.5,266C 270.264,267.995 263.098,266.162 257,260.5C 256.415,259.002 256.915,258.002 258.5,257.5 Z"/></g>
<g><path style="opacity:0.047" fill="#eedec9" d="M 436.5,256.5 C 436.267,258.062 435.6,259.395 434.5,260.5C 432.972,260.483 432.472,259.816 433,258.5C 433.816,257.177 434.983,256.511 436.5,256.5 Z"/></g>
<g><path style="opacity:0.251" fill="#989898" d="M 35.5,258.5 C 36.9633,262.208 38.63,265.874 40.5,269.5C 40.5,270.167 40.5,270.833 40.5,271.5C 37.7691,268.705 36.1025,265.372 35.5,261.5C 35.5,260.5 35.5,259.5 35.5,258.5 Z"/></g>
<g><path style="opacity:0.444" fill="#4d483f" d="M 432.5,268.5 C 433.649,268.791 434.316,269.624 434.5,271C 434.316,272.376 433.649,273.209 432.5,273.5C 432.5,271.833 432.5,270.167 432.5,268.5 Z"/></g>
<g><path style="opacity:0.996" fill="#54462d" d="M 41.5,258.5 C 42.9715,262.919 43.6382,267.586 43.5,272.5C 42.609,271.89 41.609,271.557 40.5,271.5C 40.5,270.833 40.5,270.167 40.5,269.5C 41.8946,271.054 42.5613,270.721 42.5,268.5C 41.673,265.217 41.3396,261.884 41.5,258.5 Z"/></g>
<g><path style="opacity:0.996" fill="#4a5537" d="M 146.5,259.5 C 149.945,267.066 153.445,274.733 157,282.5C 158.52,288.629 158.687,294.629 157.5,300.5C 157.074,289.051 153.907,278.385 148,268.5C 146.851,265.607 146.351,262.607 146.5,259.5 Z"/></g>
<g><path style="opacity:0.996" fill="#404538" d="M 239.5,232.5 C 237.24,230.35 234.907,228.183 232.5,226C 231.668,225.312 231.002,225.479 230.5,226.5C 224.179,242.807 216.013,258.141 206,272.5C 199.371,279.954 192.205,286.787 184.5,293C 182.975,294.009 181.308,294.509 179.5,294.5C 179.5,293.167 179.5,291.833 179.5,290.5C 191.664,283.509 201.831,274.176 210,262.5C 217.757,249.486 224.591,235.986 230.5,222C 236.07,223.083 239.07,226.583 239.5,232.5 Z"/></g>
<g><path style="opacity:0.129" fill="#e5dbc7" d="M 40.5,271.5 C 41.609,271.557 42.609,271.89 43.5,272.5C 43.3808,285.878 44.0474,299.211 45.5,312.5C 43.5058,299.011 41.8392,285.344 40.5,271.5 Z"/></g>
<g><path style="opacity:0.063" fill="#d9d1bb" d="M 434.5,260.5 C 437.407,261.614 437.907,263.281 436,265.5C 435.706,275.773 434.039,285.773 431,295.5C 430.825,300.019 430.325,304.353 429.5,308.5C 429.5,304.833 429.5,301.167 429.5,297.5C 432.01,289.714 433.01,281.714 432.5,273.5C 433.649,273.209 434.316,272.376 434.5,271C 434.316,269.624 433.649,268.791 432.5,268.5C 433.75,265.994 434.416,263.327 434.5,260.5 Z"/></g>
<g><path style="opacity:0.997" fill="#080705" d="M 429.5,297.5 C 429.5,301.167 429.5,304.833 429.5,308.5C 428.503,308.47 427.836,308.97 427.5,310C 426.006,313.812 424.673,317.645 423.5,321.5C 420.966,324.868 418.633,328.535 416.5,332.5C 415.691,334.071 415.357,335.738 415.5,337.5C 413.229,339.612 411.896,342.279 411.5,345.5C 410.624,345.369 409.957,345.702 409.5,346.5C 406.101,353.176 402.601,359.842 399,366.5C 398.502,369.482 398.335,372.482 398.5,375.5C 394.781,375.002 391.447,375.836 388.5,378C 383.533,383.969 378.199,389.635 372.5,395C 362.253,402.277 352.253,409.777 342.5,417.5C 333.141,422.533 324.807,429.033 317.5,437C 314.781,437.528 312.281,437.028 310,435.5C 307.991,436.992 305.824,438.326 303.5,439.5C 298.544,440.494 293.544,440.827 288.5,440.5C 286.342,438.78 283.675,437.947 280.5,438C 272.818,437.459 265.152,437.626 257.5,438.5C 245.751,440.073 234.084,439.74 222.5,437.5C 215.558,436.449 209.224,438.116 203.5,442.5C 189.644,447.582 176.644,446.082 164.5,438C 161.555,436.869 158.555,436.036 155.5,435.5C 155.631,434.624 155.298,433.957 154.5,433.5C 150.053,432.11 146.053,429.944 142.5,427C 139.904,425.864 137.237,425.031 134.5,424.5C 133.738,422.738 132.404,421.738 130.5,421.5C 127.373,418.102 123.707,415.435 119.5,413.5C 116.169,410 113.002,406.334 110,402.5C 108.908,399.956 108.241,397.289 108,394.5C 107.329,393.748 106.496,393.414 105.5,393.5C 105.119,392.069 104.119,391.236 102.5,391C 99.1832,390.502 95.8499,390.335 92.5,390.5C 92.5,388.833 92.5,387.167 92.5,385.5C 90.4727,385.662 88.4727,385.495 86.5,385C 84.517,379.848 80.8503,376.682 75.5,375.5C 72.945,371.886 69.6117,369.219 65.5,367.5C 65.5,366.167 64.8333,365.5 63.5,365.5C 62.3914,363.446 61.3914,361.279 60.5,359C 61.1476,357.56 61.4809,356.06 61.5,354.5C 57.7632,354.759 55.4298,353.093 54.5,349.5C 52.8739,344.614 52.0406,339.614 52,334.5C 52.6708,335.252 53.5041,335.586 54.5,335.5C 55.5,335.5 56.5,335.5 57.5,335.5C 56.9862,337.512 56.8195,339.512 57,341.5C 61.8391,346.672 67.0057,351.505 72.5,356C 78.1034,357.938 82.1034,361.604 84.5,367C 86.1075,366.981 87.7741,366.815 89.5,366.5C 89.5,368.167 89.5,369.833 89.5,371.5C 95.3161,371.061 100.649,372.395 105.5,375.5C 106.119,379.86 107.619,383.86 110,387.5C 113.867,391.702 118.033,395.535 122.5,399C 140.254,411.211 159.254,420.711 179.5,427.5C 183.981,428.648 188.648,428.815 193.5,428C 196.104,427.61 198.438,426.776 200.5,425.5C 205.079,424.017 209.412,421.85 213.5,419C 216.741,418.207 219.741,418.707 222.5,420.5C 228.107,421.883 233.941,422.55 240,422.5C 253.481,421.399 266.981,420.732 280.5,420.5C 283.609,420.264 286.609,420.597 289.5,421.5C 294.657,423.802 299.99,423.969 305.5,422C 306.056,421.617 306.389,421.117 306.5,420.5C 307.911,419.092 309.577,418.092 311.5,417.5C 313.59,419.106 315.924,419.606 318.5,419C 324.5,413.667 330.5,408.333 336.5,403C 348.971,394.695 361.304,386.195 373.5,377.5C 380.017,371.817 386.017,365.65 391.5,359C 394.536,356.994 397.869,356.16 401.5,356.5C 401.336,353.813 401.503,351.146 402,348.5C 410.063,332.042 418.396,315.708 427,299.5C 427.708,298.619 428.542,297.953 429.5,297.5 Z"/></g>
<g><path style="opacity:0.529" fill="#dfd4c0" d="M 45.5,312.5 C 47.256,313.552 47.9227,315.219 47.5,317.5C 47.5,319.167 47.5,320.833 47.5,322.5C 45.8255,319.493 45.1588,316.16 45.5,312.5 Z"/></g>
<g><path style="opacity:0.996" fill="#42433a" d="M 111.5,313.5 C 114.268,315.087 116.935,316.92 119.5,319C 122.241,319.977 125.075,320.477 128,320.5C 137.452,318.079 147.119,316.412 157,315.5C 162.178,316.167 167.344,317 172.5,318C 201.473,328.332 230.473,338.665 259.5,349C 271.172,352.56 282.838,355.894 294.5,359C 302.881,359.787 311.214,359.454 319.5,358C 337.089,351.57 354.755,345.403 372.5,339.5C 373.497,339.47 374.164,339.97 374.5,341C 373.728,342.221 372.728,343.221 371.5,344C 352.007,351.155 332.34,357.822 312.5,364C 306.167,364.667 299.833,364.667 293.5,364C 281.336,361.371 269.67,357.371 258.5,352C 243.456,347.489 228.456,342.822 213.5,338C 199.157,331.885 184.49,326.551 169.5,322C 157.108,319.316 145.108,320.316 133.5,325C 122.55,327.652 115.216,323.819 111.5,313.5 Z"/></g>
<g><path style="opacity:0.996" fill="#434b37" d="M 249.5,265.5 C 249.201,271.567 248.368,277.567 247,283.5C 244.66,287.521 243.326,291.854 243,296.5C 240.133,302.116 237.466,307.783 235,313.5C 232.147,317.011 228.647,319.677 224.5,321.5C 222.302,321.88 220.635,321.213 219.5,319.5C 216.816,313.607 214.316,307.607 212,301.5C 208.83,298.822 206.997,295.488 206.5,291.5C 213.247,298.118 217.747,306.118 220,315.5C 222.877,316.83 225.711,316.664 228.5,315C 233.48,309.359 237.646,303.192 241,296.5C 244.905,286.323 247.738,275.989 249.5,265.5 Z"/></g>
<g><path style="opacity:0.349" fill="#9f9f9f" d="M 429.5,308.5 C 428.829,313.506 426.829,317.839 423.5,321.5C 424.673,317.645 426.006,313.812 427.5,310C 427.836,308.97 428.503,308.47 429.5,308.5 Z"/></g>
<g><path style="opacity:0.996" fill="#414439" d="M 272.5,303.5 C 280.86,309.529 287.36,317.196 292,326.5C 297.325,327.928 301.659,326.261 305,321.5C 308.674,315.823 311.507,309.823 313.5,303.5C 312.39,313.496 308.39,322.163 301.5,329.5C 298.741,331.293 295.741,331.793 292.5,331C 286.781,321.778 279.781,313.611 271.5,306.5C 270.202,304.948 270.535,303.948 272.5,303.5 Z"/></g>
<g><path style="opacity:0.333" fill="#9a9a9a" d="M 423.5,321.5 C 423.657,322.873 423.49,324.207 423,325.5C 420.585,329.621 418.085,333.621 415.5,337.5C 415.357,335.738 415.691,334.071 416.5,332.5C 418.633,328.535 420.966,324.868 423.5,321.5 Z"/></g>
<g><path style="opacity:0.167" fill="#b8b5ae" d="M 47.5,317.5 C 49.0823,320.876 49.7489,324.542 49.5,328.5C 50.0582,333.516 50.7249,338.516 51.5,343.5C 48.4504,336.943 47.1171,329.943 47.5,322.5C 47.5,320.833 47.5,319.167 47.5,317.5 Z"/></g>
<g><path style="opacity:0.992" fill="#3f3c37" d="M 49.5,328.5 C 51.3998,330.619 53.0664,332.953 54.5,335.5C 53.5041,335.586 52.6708,335.252 52,334.5C 52.0406,339.614 52.8739,344.614 54.5,349.5C 53.8333,349.5 53.1667,349.5 52.5,349.5C 51.6586,347.621 51.3253,345.621 51.5,343.5C 50.7249,338.516 50.0582,333.516 49.5,328.5 Z"/></g>
<g><path style="opacity:0.224" fill="#acacac" d="M 415.5,337.5 C 414.73,340.496 413.396,343.163 411.5,345.5C 411.896,342.279 413.229,339.612 415.5,337.5 Z"/></g>
<g><path style="opacity:0.353" fill="#979796" d="M 52.5,349.5 C 53.1667,349.5 53.8333,349.5 54.5,349.5C 55.4298,353.093 57.7632,354.759 61.5,354.5C 61.4809,356.06 61.1476,357.56 60.5,359C 61.3914,361.279 62.3914,363.446 63.5,365.5C 59.8874,363.695 58.054,360.695 58,356.5C 55.5705,354.578 53.7372,352.245 52.5,349.5 Z"/></g>
<g><path style="opacity:0.078" fill="#b4b4b4" d="M 63.5,365.5 C 64.8333,365.5 65.5,366.167 65.5,367.5C 64.1667,367.5 63.5,366.833 63.5,365.5 Z"/></g>
<g><path style="opacity:0.361" fill="#a1a1a1" d="M 65.5,367.5 C 69.6117,369.219 72.945,371.886 75.5,375.5C 71.296,373.967 67.9626,371.3 65.5,367.5 Z"/></g>
<g><path style="opacity:0.31" fill="#949494" d="M 75.5,375.5 C 80.8503,376.682 84.517,379.848 86.5,385C 88.4727,385.495 90.4727,385.662 92.5,385.5C 92.5,387.167 92.5,388.833 92.5,390.5C 95.8499,390.335 99.1832,390.502 102.5,391C 104.119,391.236 105.119,392.069 105.5,393.5C 101.181,392.965 96.8477,392.465 92.5,392C 91.6865,388.925 89.6865,387.258 86.5,387C 84.3834,385.269 82.8834,383.102 82,380.5C 79.648,378.97 77.4813,377.303 75.5,375.5 Z"/></g>
<g><path style="opacity:0.137" fill="#989898" d="M 411.5,345.5 C 407.956,353.589 404.123,361.589 400,369.5C 399.503,371.81 399.337,374.143 399.5,376.5C 396.68,376.248 394.014,376.748 391.5,378C 377.347,393.999 361.013,407.165 342.5,417.5C 352.253,409.777 362.253,402.277 372.5,395C 378.199,389.635 383.533,383.969 388.5,378C 391.447,375.836 394.781,375.002 398.5,375.5C 398.335,372.482 398.502,369.482 399,366.5C 402.601,359.842 406.101,353.176 409.5,346.5C 409.957,345.702 410.624,345.369 411.5,345.5 Z"/></g>
<g><path style="opacity:0.1" fill="#a6a6a6" d="M 105.5,393.5 C 106.496,393.414 107.329,393.748 108,394.5C 108.241,397.289 108.908,399.956 110,402.5C 113.002,406.334 116.169,410 119.5,413.5C 111.864,408.89 107.198,402.224 105.5,393.5 Z"/></g>
<g><path style="opacity:0.157" fill="#979797" d="M 119.5,413.5 C 123.707,415.435 127.373,418.102 130.5,421.5C 129.078,421.291 127.745,420.791 126.5,420C 123.712,418.281 121.379,416.115 119.5,413.5 Z"/></g>
<g><path style="opacity:0.263" fill="#acacac" d="M 130.5,421.5 C 132.404,421.738 133.738,422.738 134.5,424.5C 132.596,424.262 131.262,423.262 130.5,421.5 Z"/></g>
<g><path style="opacity:0.996" fill="#514225" d="M 280.5,420.5 C 266.981,420.732 253.481,421.399 240,422.5C 233.941,422.55 228.107,421.883 222.5,420.5C 241.984,420.426 261.317,420.426 280.5,420.5 Z"/></g>
<g><path style="opacity:0.996" fill="#64512d" d="M 306.5,420.5 C 306.389,421.117 306.056,421.617 305.5,422C 299.99,423.969 294.657,423.802 289.5,421.5C 295.227,421.74 300.894,421.407 306.5,420.5 Z"/></g>
<g><path style="opacity:0.996" fill="#4e3f23" d="M 200.5,425.5 C 198.438,426.776 196.104,427.61 193.5,428C 188.648,428.815 183.981,428.648 179.5,427.5C 186.604,427.749 193.604,427.082 200.5,425.5 Z"/></g>
<g><path style="opacity:0.141" fill="#a1a1a1" d="M 342.5,417.5 C 333.769,424.054 325.436,431.22 317.5,439C 314.731,439.21 312.231,438.377 310,436.5C 307.071,440.215 303.238,442.215 298.5,442.5C 295.029,441.903 291.695,441.236 288.5,440.5C 293.544,440.827 298.544,440.494 303.5,439.5C 305.824,438.326 307.991,436.992 310,435.5C 312.281,437.028 314.781,437.528 317.5,437C 324.807,429.033 333.141,422.533 342.5,417.5 Z"/></g>
<g><path style="opacity:0.365" fill="#777777" d="M 134.5,424.5 C 137.237,425.031 139.904,425.864 142.5,427C 146.053,429.944 150.053,432.11 154.5,433.5C 155.298,433.957 155.631,434.624 155.5,435.5C 148.051,432.609 141.051,428.943 134.5,424.5 Z"/></g>
<g><path style="opacity:0.264" fill="#b3b3b3" d="M 288.5,440.5 C 282.988,439.998 277.488,439.332 272,438.5C 264.862,439.538 257.696,440.205 250.5,440.5C 252.833,439.833 255.167,439.167 257.5,438.5C 265.152,437.626 272.818,437.459 280.5,438C 283.675,437.947 286.342,438.78 288.5,440.5 Z"/></g>
<g><path style="opacity:0.418" fill="#767676" d="M 222.5,437.5 C 234.084,439.74 245.751,440.073 257.5,438.5C 255.167,439.167 252.833,439.833 250.5,440.5C 247.016,441.165 243.349,441.499 239.5,441.5C 233.914,441.682 228.58,441.015 223.5,439.5C 223.167,438.833 222.833,438.167 222.5,437.5 Z"/></g>
<g><path style="opacity:0.031" fill="#9b9b9b" d="M 155.5,435.5 C 158.555,436.036 161.555,436.869 164.5,438C 176.644,446.082 189.644,447.582 203.5,442.5C 209.224,438.116 215.558,436.449 222.5,437.5C 222.833,438.167 223.167,438.833 223.5,439.5C 221.45,439.039 219.45,438.372 217.5,437.5C 204.164,446.269 189.831,448.769 174.5,445C 167.796,442.315 161.462,439.148 155.5,435.5 Z"/></g>
</svg>
