<?xml version="1.0" encoding="UTF-8"?>
<!DOCTYPE svg PUBLIC "-//W3C//DTD SVG 1.1//EN" "http://www.w3.org/Graphics/SVG/1.1/DTD/svg11.dtd">
<svg xmlns="http://www.w3.org/2000/svg" version="1.1" width="464px" height="468px" style="shape-rendering:geometricPrecision; text-rendering:geometricPrecision; image-rendering:optimizeQuality; fill-rule:evenodd; clip-rule:evenodd" xmlns:xlink="http://www.w3.org/1999/xlink">
<g><path style="opacity:0.996" fill="#b59353" d="M 297.5,59.5 C 299.474,60.9059 301.474,62.4059 303.5,64C 323.477,71.7387 341.31,82.9054 357,97.5C 358.237,101.06 358.737,104.727 358.5,108.5C 360.842,108.504 362.842,109.337 364.5,111C 368.486,111.499 372.486,111.666 376.5,111.5C 376.5,113.167 376.5,114.833 376.5,116.5C 378.95,116.298 381.283,116.631 383.5,117.5C 384.93,122.764 388.263,126.264 393.5,128C 398.667,132.5 403.833,137 409,141.5C 409.756,143.809 409.256,145.809 407.5,147.5C 412.512,149.495 415.679,153.162 417,158.5C 418.541,167.871 420.208,177.204 422,186.5C 422.333,197.167 422.667,207.833 423,218.5C 423.687,222.58 424.687,226.58 426,230.5C 426.708,231.381 427.542,232.047 428.5,232.5C 429.498,236.505 431.498,239.839 434.5,242.5C 434.728,246.39 434.394,250.224 433.5,254C 431.825,255.502 430.159,257.002 428.5,258.5C 429.711,259.874 430.711,261.374 431.5,263C 430.277,273.556 428.943,284.056 427.5,294.5C 427.5,298.5 427.5,302.5 427.5,306.5C 426.834,302.979 426.167,299.313 425.5,295.5C 424.614,296.325 424.281,297.325 424.5,298.5C 416.002,314.433 407.502,330.433 399,346.5C 398.502,349.482 398.335,352.482 398.5,355.5C 395.813,355.336 393.146,355.503 390.5,356C 383.93,363.516 376.93,370.516 369.5,377C 357.18,386.161 344.514,394.828 331.5,403C 325.891,407.606 320.558,412.606 315.5,418C 312.329,419.037 309.829,418.204 308,415.5C 304.358,419.79 299.692,421.79 294,421.5C 286.189,419.758 278.189,418.758 270,418.5C 253.859,420.039 237.693,420.539 221.5,420C 218.991,418.664 216.324,417.83 213.5,417.5C 205.578,420.631 197.578,423.465 189.5,426C 182.366,426.822 175.366,426.155 168.5,424C 149.03,416.6 131.03,406.6 114.5,394C 107.778,389.036 103.778,382.536 102.5,374.5C 99.9124,373.806 97.579,372.64 95.5,371C 92.854,370.503 90.1873,370.336 87.5,370.5C 87.7135,368.856 87.3802,367.356 86.5,366C 84.5116,365.82 82.5116,365.986 80.5,366.5C 79.8736,363.685 78.5402,361.185 76.5,359C 67.8615,354.375 60.3615,348.208 54,340.5C 53.8195,338.512 53.9862,336.512 54.5,334.5C 53.0222,334.762 51.6888,334.429 50.5,333.5C 49.1433,331.435 47.81,329.435 46.5,327.5C 46.6716,326.508 46.3382,325.842 45.5,325.5C 41.9327,308.153 40.2661,290.486 40.5,272.5C 41.2718,263.994 39.2718,256.327 34.5,249.5C 34.5,249.167 34.5,248.833 34.5,248.5C 29.7207,242.66 27.8874,235.993 29,228.5C 32.7,226.094 33.2,223.261 30.5,220C 31.6667,219.5 32.5,218.667 33,217.5C 33.3333,209.833 33.6667,202.167 34,194.5C 38.0589,186.05 42.3922,177.716 47,169.5C 47.8494,166.479 48.6827,163.479 49.5,160.5C 51.7366,155.08 54.2366,149.747 57,144.5C 57.7083,143.619 58.5416,142.953 59.5,142.5C 63.2348,138.644 65.2348,133.978 65.5,128.5C 67.5643,128.313 69.5643,127.813 71.5,127C 80.0918,116.907 89.4251,107.74 99.5,99.5C 102.351,98.6769 105.018,97.3435 107.5,95.5C 108.934,94.4116 109.934,93.0783 110.5,91.5C 110.5,90.8333 110.833,90.5 111.5,90.5C 112.721,91.4646 114.054,91.298 115.5,90C 120.269,86.9605 124.603,83.4605 128.5,79.5C 132.704,77.9668 136.037,75.3002 138.5,71.5C 141.603,69.5767 144.603,67.41 147.5,65C 149.931,64.7479 152.265,65.2479 154.5,66.5C 160.947,61.6144 168.28,60.1144 176.5,62C 179.95,63.4287 183.283,63.5953 186.5,62.5C 198.189,63.1671 209.856,62.5004 221.5,60.5C 230.776,60.8314 239.943,62.498 249,65.5C 255.343,62.5497 261.843,59.883 268.5,57.5C 275.476,56.3356 282.476,56.1689 289.5,57C 291.927,58.5914 294.593,59.4248 297.5,59.5 Z"/></g>
<g><path style="opacity:0.518" fill="#e5d8be" d="M 297.5,59.5 C 294.593,59.4248 291.927,58.5914 289.5,57C 282.476,56.1689 275.476,56.3356 268.5,57.5C 261.843,59.883 255.343,62.5497 249,65.5C 239.943,62.498 230.776,60.8314 221.5,60.5C 230.705,59.9695 239.705,60.9695 248.5,63.5C 254.796,61.1191 261.129,58.6191 267.5,56C 275.505,54.0597 283.505,54.0597 291.5,56C 293.727,56.941 295.727,58.1077 297.5,59.5 Z"/></g>
<g><path style="opacity:0.161" fill="#eadfcc" d="M 186.5,62.5 C 183.283,63.5953 179.95,63.4287 176.5,62C 168.28,60.1144 160.947,61.6144 154.5,66.5C 152.265,65.2479 149.931,64.7479 147.5,65C 144.603,67.41 141.603,69.5767 138.5,71.5C 141.218,67.7799 144.552,64.7799 148.5,62.5C 152.708,65.6234 156.374,65.1234 159.5,61C 161.744,60.0943 164.077,59.5943 166.5,59.5C 173.207,60.3151 179.873,61.3151 186.5,62.5 Z"/></g>
<g><path style="opacity:0.098" fill="#f2eadb" d="M 138.5,71.5 C 136.037,75.3002 132.704,77.9668 128.5,79.5C 131.539,76.4602 134.873,73.7935 138.5,71.5 Z"/></g>
<g><path style="opacity:0.302" fill="#e5d8c0" d="M 297.5,59.5 C 313.952,66.0602 329.619,74.2269 344.5,84C 349.661,88.1609 354.494,92.6609 359,97.5C 360.466,100.732 361.633,104.065 362.5,107.5C 367.204,109.699 372.204,111.032 377.5,111.5C 378.429,113.638 380.096,114.804 382.5,115C 383.252,115.671 383.586,116.504 383.5,117.5C 381.283,116.631 378.95,116.298 376.5,116.5C 376.5,114.833 376.5,113.167 376.5,111.5C 372.486,111.666 368.486,111.499 364.5,111C 362.842,109.337 360.842,108.504 358.5,108.5C 358.737,104.727 358.237,101.06 357,97.5C 341.31,82.9054 323.477,71.7387 303.5,64C 301.474,62.4059 299.474,60.9059 297.5,59.5 Z"/></g>
<g><path style="opacity:0.208" fill="#ebe3ca" d="M 128.5,79.5 C 124.603,83.4605 120.269,86.9605 115.5,90C 114.054,91.298 112.721,91.4646 111.5,90.5C 117.025,86.5737 122.691,82.907 128.5,79.5 Z"/></g>
<g><path style="opacity:0.184" fill="#e7dcc4" d="M 110.5,91.5 C 109.934,93.0783 108.934,94.4116 107.5,95.5C 105.018,97.3435 102.351,98.6769 99.5,99.5C 102.952,96.6007 106.618,93.9341 110.5,91.5 Z"/></g>
<g><path style="opacity:0.996" fill="#336e21" d="M 291.5,151.5 C 276.651,156.102 261.317,158.769 245.5,159.5C 245.5,161.167 245.5,162.833 245.5,164.5C 245.5,171.167 245.5,177.833 245.5,184.5C 258.316,182.419 270.983,179.585 283.5,176C 288.363,175.191 293.03,175.858 297.5,178C 304.43,181.389 310.597,185.889 316,191.5C 316.64,193.265 316.473,194.932 315.5,196.5C 307.161,205.852 301.994,216.852 300,229.5C 297.499,236.853 294.332,243.853 290.5,250.5C 288.296,253.197 285.463,254.863 282,255.5C 279.12,254.79 276.953,253.123 275.5,250.5C 273.696,249.838 271.696,249.505 269.5,249.5C 261.603,249.849 253.936,250.849 246.5,252.5C 246.5,253.833 246.5,255.167 246.5,256.5C 246.5,263.167 246.5,269.833 246.5,276.5C 265.954,274.392 285.288,271.558 304.5,268C 321.333,262.87 335.833,266.37 348,278.5C 349.664,280.786 349.83,283.119 348.5,285.5C 320.889,284.546 293.222,284.546 265.5,285.5C 259.093,285.825 252.76,286.658 246.5,288C 245.62,289.356 245.286,290.856 245.5,292.5C 246.173,313.931 245.173,335.265 242.5,356.5C 240.665,359.842 239.498,363.509 239,367.5C 236.924,368.757 235.09,368.424 233.5,366.5C 232.082,360.236 231.082,353.903 230.5,347.5C 230.616,329.822 230.283,312.155 229.5,294.5C 229.5,292.833 229.5,291.167 229.5,289.5C 227.833,289.5 226.167,289.5 224.5,289.5C 217.85,290.11 211.184,290.61 204.5,291C 198.785,292.167 193.118,293.333 187.5,294.5C 178.65,295.237 169.983,297.071 161.5,300C 151.699,302.294 142.032,301.961 132.5,299C 130.449,296.98 128.116,295.48 125.5,294.5C 124.377,292.482 124.377,290.482 125.5,288.5C 160.323,286.6 194.99,283.267 229.5,278.5C 229.5,272.167 229.5,265.833 229.5,259.5C 229.5,258.167 229.5,256.833 229.5,255.5C 220.793,255.871 212.127,256.704 203.5,258C 200.228,258.437 198.561,260.27 198.5,263.5C 195.03,264.125 192.196,263.125 190,260.5C 186.716,252.796 183.549,245.13 180.5,237.5C 179.139,232.431 177.805,227.431 176.5,222.5C 175.116,213.137 171.116,205.137 164.5,198.5C 164.261,196.533 164.594,194.699 165.5,193C 171.754,192.296 177.921,192.796 184,194.5C 198.724,191.424 213.557,189.091 228.5,187.5C 228.5,181.167 228.5,174.833 228.5,168.5C 228.5,166.833 228.5,165.167 228.5,163.5C 213.922,166.16 199.256,166.16 184.5,163.5C 183.032,162.221 182.365,160.554 182.5,158.5C 197.307,157.298 211.974,155.132 226.5,152C 227.469,147.263 227.803,142.43 227.5,137.5C 226.933,130.031 223.933,123.698 218.5,118.5C 216.608,113.076 218.608,111.076 224.5,112.5C 232.76,113.086 240.26,115.753 247,120.5C 248.022,122.702 248.522,125.035 248.5,127.5C 246.953,134.063 246.286,140.729 246.5,147.5C 254.681,146.415 262.681,144.581 270.5,142C 278.414,140.317 285.581,141.817 292,146.5C 292.64,148.265 292.473,149.932 291.5,151.5 Z"/></g>
<g><path style="opacity:0.306" fill="#e4d7bf" d="M 99.5,99.5 C 89.4251,107.74 80.0918,116.907 71.5,127C 69.5643,127.813 67.5643,128.313 65.5,128.5C 65.2348,133.978 63.2348,138.644 59.5,142.5C 59.8406,139.484 61.0073,136.818 63,134.5C 63.3333,131.833 63.6667,129.167 64,126.5C 66.5194,126.825 69.0194,126.325 71.5,125C 76.2288,120.608 80.5622,115.941 84.5,111C 89.0861,106.575 94.0861,102.741 99.5,99.5 Z"/></g>
<g><path style="opacity:0.996" fill="#405133" d="M 218.5,118.5 C 223.933,123.698 226.933,130.031 227.5,137.5C 225.664,131.514 222.498,126.18 218,121.5C 217.26,120.251 217.427,119.251 218.5,118.5 Z"/></g>
<g><path style="opacity:0.059" fill="#e8dbc5" d="M 383.5,117.5 C 389.464,123.676 396.131,129.176 403.5,134C 406,136.5 408.5,139 411,141.5C 411.72,143.112 411.554,144.612 410.5,146C 413,147.167 414.833,149 416,151.5C 418.977,161.324 421.31,171.324 423,181.5C 423.762,194.495 424.428,207.495 425,220.5C 426.171,224.518 427.337,228.518 428.5,232.5C 427.542,232.047 426.708,231.381 426,230.5C 424.687,226.58 423.687,222.58 423,218.5C 422.667,207.833 422.333,197.167 422,186.5C 420.208,177.204 418.541,167.871 417,158.5C 415.679,153.162 412.512,149.495 407.5,147.5C 409.256,145.809 409.756,143.809 409,141.5C 403.833,137 398.667,132.5 393.5,128C 388.263,126.264 384.93,122.764 383.5,117.5 Z"/></g>
<g><path style="opacity:0.996" fill="#3e4139" d="M 291.5,151.5 C 291.918,155.251 290.251,157.418 286.5,158C 272.946,160.823 259.279,162.989 245.5,164.5C 245.5,162.833 245.5,161.167 245.5,159.5C 261.317,158.769 276.651,156.102 291.5,151.5 Z"/></g>
<g><path style="opacity:0.996" fill="#41433a" d="M 184.5,163.5 C 199.256,166.16 213.922,166.16 228.5,163.5C 228.5,165.167 228.5,166.833 228.5,168.5C 218.518,169.599 208.518,170.099 198.5,170C 193.857,169.17 189.19,168.503 184.5,168C 181.867,166.311 181.867,164.811 184.5,163.5 Z"/></g>
<g><path style="opacity:0.996" fill="#42433a" d="M 286.5,196.5 C 273.234,195.55 259.901,195.55 246.5,196.5C 246.5,195.167 246.5,193.833 246.5,192.5C 259.115,190.77 271.781,190.27 284.5,191C 287.126,192.372 287.792,194.205 286.5,196.5 Z"/></g>
<g><path style="opacity:0.996" fill="#3d4139" d="M 222.5,196.5 C 224.5,196.5 226.5,196.5 228.5,196.5C 228.5,197.833 228.5,199.167 228.5,200.5C 216.05,201.945 203.717,203.945 191.5,206.5C 190.083,203.683 191.083,202.017 194.5,201.5C 203.908,199.769 213.241,198.102 222.5,196.5 Z"/></g>
<g><path style="opacity:0.996" fill="#b29251" d="M 286.5,196.5 C 286.229,210.249 283.729,223.583 279,236.5C 268.222,238.302 257.389,239.969 246.5,241.5C 246.5,236.5 246.5,231.5 246.5,226.5C 251.937,226.38 257.27,225.546 262.5,224C 266.007,222.67 267.673,220.17 267.5,216.5C 268.341,214.621 268.675,212.621 268.5,210.5C 265.313,209.248 261.98,208.582 258.5,208.5C 254.511,209.023 250.511,209.356 246.5,209.5C 246.5,205.167 246.5,200.833 246.5,196.5C 259.901,195.55 273.234,195.55 286.5,196.5 Z"/></g>
<g><path style="opacity:0.996" fill="#b09151" d="M 222.5,196.5 C 224.607,195.532 226.941,195.198 229.5,195.5C 229.83,201.868 229.496,208.202 228.5,214.5C 221.268,216.641 213.935,218.475 206.5,220C 205.243,222.076 205.576,223.91 207.5,225.5C 205.775,225.843 205.275,226.843 206,228.5C 207.171,229.893 208.671,230.727 210.5,231C 216.845,231.444 223.178,231.277 229.5,230.5C 229.5,235.167 229.5,239.833 229.5,244.5C 218.968,246.459 208.301,247.793 197.5,248.5C 196.681,234.301 194.681,220.301 191.5,206.5C 203.717,203.945 216.05,201.945 228.5,200.5C 228.5,199.167 228.5,197.833 228.5,196.5C 226.5,196.5 224.5,196.5 222.5,196.5 Z"/></g>
<g><path style="opacity:0.996" fill="#414937" d="M 164.5,198.5 C 171.116,205.137 175.116,213.137 176.5,222.5C 173.985,215.145 170.152,208.478 165,202.5C 164.51,201.207 164.343,199.873 164.5,198.5 Z"/></g>
<g><path style="opacity:0.996" fill="#495138" d="M 315.5,196.5 C 316.034,200.478 314.534,203.478 311,205.5C 305.656,215.196 301.989,225.529 300,236.5C 297.578,241.317 295.078,245.984 292.5,250.5C 291.833,250.5 291.167,250.5 290.5,250.5C 294.332,243.853 297.499,236.853 300,229.5C 301.994,216.852 307.161,205.852 315.5,196.5 Z"/></g>
<g><path style="opacity:0.996" fill="#3e4239" d="M 267.5,216.5 C 267.673,220.17 266.007,222.67 262.5,224C 257.27,225.546 251.937,226.38 246.5,226.5C 246.227,224.549 246.893,223.049 248.5,222C 255.315,221.549 261.648,219.716 267.5,216.5 Z"/></g>
<g><path style="opacity:0.996" fill="#3f403a" d="M 207.5,225.5 C 210.361,227.073 213.528,227.739 217,227.5C 221.184,227.277 225.351,226.943 229.5,226.5C 229.5,227.833 229.5,229.167 229.5,230.5C 223.178,231.277 216.845,231.444 210.5,231C 208.671,230.727 207.171,229.893 206,228.5C 205.275,226.843 205.775,225.843 207.5,225.5 Z"/></g>
<g><path style="opacity:0.357" fill="#e8ddc8" d="M 49.5,160.5 C 48.6827,163.479 47.8494,166.479 47,169.5C 42.3922,177.716 38.0589,186.05 34,194.5C 33.6667,202.167 33.3333,209.833 33,217.5C 32.5,218.667 31.6667,219.5 30.5,220C 33.2,223.261 32.7,226.094 29,228.5C 27.8874,235.993 29.7207,242.66 34.5,248.5C 33.391,248.557 32.391,248.89 31.5,249.5C 29.45,244.54 27.7834,239.373 26.5,234C 26.5895,229.788 28.2562,226.454 31.5,224C 27.6861,221.751 27.5194,219.251 31,216.5C 31.3333,209.5 31.6667,202.5 32,195.5C 36.7974,183.248 42.6307,171.581 49.5,160.5 Z"/></g>
<g><path style="opacity:0.51" fill="#ead5c2" d="M 428.5,232.5 C 429.458,232.953 430.292,233.619 431,234.5C 432.396,237.064 433.563,239.731 434.5,242.5C 431.498,239.839 429.498,236.505 428.5,232.5 Z"/></g>
<g><path style="opacity:0.996" fill="#31502c" d="M 275.5,250.5 C 265.823,251.02 256.156,251.686 246.5,252.5C 253.936,250.849 261.603,249.849 269.5,249.5C 271.696,249.505 273.696,249.838 275.5,250.5 Z"/></g>
<g><path style="opacity:0.996" fill="#1c1811" d="M 34.5,249.5 C 39.2718,256.327 41.2718,263.994 40.5,272.5C 40.1667,272.5 39.8333,272.5 39.5,272.5C 36.8328,267.821 34.6661,262.821 33,257.5C 32.3333,255.167 32.3333,252.833 33,250.5C 33.3826,249.944 33.8826,249.611 34.5,249.5 Z"/></g>
<g><path style="opacity:0.996" fill="#3f403a" d="M 275.5,250.5 C 276.953,253.123 279.12,254.79 282,255.5C 285.463,254.863 288.296,253.197 290.5,250.5C 291.167,250.5 291.833,250.5 292.5,250.5C 290.395,256.879 286.062,259.712 279.5,259C 278.167,257.667 276.833,256.333 275.5,255C 265.804,254.753 256.137,255.253 246.5,256.5C 246.5,255.167 246.5,253.833 246.5,252.5C 256.156,251.686 265.823,251.02 275.5,250.5 Z"/></g>
<g><path style="opacity:0.694" fill="#9a9999" d="M 34.5,248.5 C 34.5,248.833 34.5,249.167 34.5,249.5C 33.8826,249.611 33.3826,249.944 33,250.5C 32.3333,252.833 32.3333,255.167 33,257.5C 34.6661,262.821 36.8328,267.821 39.5,272.5C 38.8333,272.167 38.1667,271.833 37.5,271.5C 31.7561,265.191 29.7561,257.858 31.5,249.5C 32.391,248.89 33.391,248.557 34.5,248.5 Z"/></g>
<g><path style="opacity:0.996" fill="#404439" d="M 180.5,237.5 C 183.549,245.13 186.716,252.796 190,260.5C 192.196,263.125 195.03,264.125 198.5,263.5C 198.561,260.27 200.228,258.437 203.5,258C 212.127,256.704 220.793,255.871 229.5,255.5C 229.5,256.833 229.5,258.167 229.5,259.5C 220.763,260.38 212.097,261.546 203.5,263C 200.314,263.258 198.314,264.925 197.5,268C 196.167,268.667 194.833,268.667 193.5,268C 185.76,259.382 181.427,249.216 180.5,237.5 Z"/></g>
<g><path style="opacity:0.518" fill="#e1d6c2" d="M 434.5,242.5 C 435.645,246.311 435.812,250.311 435,254.5C 434.215,256.286 433.049,257.786 431.5,259C 435.312,260.797 435.479,262.964 432,265.5C 431.667,272.167 431.333,278.833 431,285.5C 430.1,288.718 428.933,291.718 427.5,294.5C 428.943,284.056 430.277,273.556 431.5,263C 430.711,261.374 429.711,259.874 428.5,258.5C 430.159,257.002 431.825,255.502 433.5,254C 434.394,250.224 434.728,246.39 434.5,242.5 Z"/></g>
<g><path style="opacity:0.996" fill="#40423a" d="M 348.5,285.5 C 348.762,290.07 346.596,292.07 342,291.5C 309.737,288.573 277.57,288.906 245.5,292.5C 245.286,290.856 245.62,289.356 246.5,288C 252.76,286.658 259.093,285.825 265.5,285.5C 293.222,284.546 320.889,284.546 348.5,285.5 Z"/></g>
<g><path style="opacity:0.996" fill="#3f413a" d="M 224.5,289.5 C 226.167,289.5 227.833,289.5 229.5,289.5C 229.5,291.167 229.5,292.833 229.5,294.5C 214.509,294.754 199.843,296.421 185.5,299.5C 171.935,300.896 158.601,303.23 145.5,306.5C 138.145,306.03 131.645,303.364 126,298.5C 125.51,297.207 125.343,295.873 125.5,294.5C 128.116,295.48 130.449,296.98 132.5,299C 142.032,301.961 151.699,302.294 161.5,300C 169.983,297.071 178.65,295.237 187.5,294.5C 200.205,294.322 212.538,292.655 224.5,289.5 Z"/></g>
<g><path style="opacity:0.996" fill="#30512b" d="M 224.5,289.5 C 212.538,292.655 200.205,294.322 187.5,294.5C 193.118,293.333 198.785,292.167 204.5,291C 211.184,290.61 217.85,290.11 224.5,289.5 Z"/></g>
<g><path style="opacity:0.051" fill="#e4dbc9" d="M 37.5,271.5 C 38.1667,271.833 38.8333,272.167 39.5,272.5C 39.8333,272.5 40.1667,272.5 40.5,272.5C 40.2661,290.486 41.9327,308.153 45.5,325.5C 45.5,327.833 45.5,330.167 45.5,332.5C 43.7614,322.629 41.9281,312.629 40,302.5C 39.7425,292.093 38.9092,281.76 37.5,271.5 Z"/></g>
<g><path style="opacity:0.996" fill="#948049" d="M 229.5,294.5 C 230.283,312.155 230.616,329.822 230.5,347.5C 229.613,330.333 228.947,312.999 228.5,295.5C 220.665,295.624 212.999,296.791 205.5,299C 198.842,299.5 192.175,299.666 185.5,299.5C 199.843,296.421 214.509,294.754 229.5,294.5 Z"/></g>
<g><path style="opacity:0.564" fill="#5e5b58" d="M 427.5,306.5 C 427.5,307.167 427.167,307.5 426.5,307.5C 425.833,308.5 425.167,309.5 424.5,310.5C 425.405,306.333 425.405,302.333 424.5,298.5C 424.281,297.325 424.614,296.325 425.5,295.5C 426.167,299.313 426.834,302.979 427.5,306.5 Z"/></g>
<g><path style="opacity:0.997" fill="#090806" d="M 424.5,298.5 C 425.405,302.333 425.405,306.333 424.5,310.5C 420.784,315.94 418.118,321.94 416.5,328.5C 413.325,330.992 411.659,334.326 411.5,338.5C 405.342,346.85 400.175,355.85 396,365.5C 395.502,368.482 395.335,371.482 395.5,374.5C 391.869,374.16 388.536,374.994 385.5,377C 379.833,384 373.5,390.333 366.5,396C 354.782,404.715 342.782,413.048 330.5,421C 324.966,425.705 319.632,430.539 314.5,435.5C 311.324,436.997 308.658,436.33 306.5,433.5C 303.083,437.309 298.75,438.976 293.5,438.5C 283.216,437.052 272.883,436.385 262.5,436.5C 252.834,437.111 243.168,437.778 233.5,438.5C 227.448,438.222 221.448,437.555 215.5,436.5C 214.399,435.402 213.066,435.235 211.5,436C 205.907,438.633 200.241,440.967 194.5,443C 188.881,444.299 183.214,444.632 177.5,444C 165.913,439.017 154.246,434.184 142.5,429.5C 139.811,426.022 136.144,424.022 131.5,423.5C 128.875,420.185 125.542,417.851 121.5,416.5C 117.202,412.704 113.036,408.704 109,404.5C 106.904,400.873 105.404,397.04 104.5,393C 100.037,389.877 95.0369,388.711 89.5,389.5C 89.5,387.5 89.5,385.5 89.5,383.5C 87.9397,383.519 86.4397,383.852 85,384.5C 80.4412,378.95 74.9412,374.45 68.5,371C 64.6667,367.167 60.8333,363.333 57,359.5C 57.1525,357.481 57.6525,355.481 58.5,353.5C 57.1266,353.657 55.7932,353.49 54.5,353C 49.1457,345.446 46.479,336.946 46.5,327.5C 47.81,329.435 49.1433,331.435 50.5,333.5C 51.6888,334.429 53.0222,334.762 54.5,334.5C 53.9862,336.512 53.8195,338.512 54,340.5C 60.3615,348.208 67.8615,354.375 76.5,359C 78.5402,361.185 79.8736,363.685 80.5,366.5C 82.5116,365.986 84.5116,365.82 86.5,366C 87.3802,367.356 87.7135,368.856 87.5,370.5C 90.1873,370.336 92.854,370.503 95.5,371C 97.579,372.64 99.9124,373.806 102.5,374.5C 103.778,382.536 107.778,389.036 114.5,394C 131.03,406.6 149.03,416.6 168.5,424C 175.366,426.155 182.366,426.822 189.5,426C 197.578,423.465 205.578,420.631 213.5,417.5C 216.324,417.83 218.991,418.664 221.5,420C 237.693,420.539 253.859,420.039 270,418.5C 278.189,418.758 286.189,419.758 294,421.5C 299.692,421.79 304.358,419.79 308,415.5C 309.829,418.204 312.329,419.037 315.5,418C 320.558,412.606 325.891,407.606 331.5,403C 344.514,394.828 357.18,386.161 369.5,377C 376.93,370.516 383.93,363.516 390.5,356C 393.146,355.503 395.813,355.336 398.5,355.5C 398.335,352.482 398.502,349.482 399,346.5C 407.502,330.433 416.002,314.433 424.5,298.5 Z"/></g>
<g><path style="opacity:0.078" fill="#b1b1b1" d="M 426.5,307.5 C 425.898,311.364 424.732,315.031 423,318.5C 421.139,320.888 419.806,323.554 419,326.5C 418.292,327.381 417.458,328.047 416.5,328.5C 418.118,321.94 420.784,315.94 424.5,310.5C 425.167,309.5 425.833,308.5 426.5,307.5 Z"/></g>
<g><path style="opacity:0.549" fill="#b3b3b3" d="M 416.5,328.5 C 415.873,332.42 414.207,335.753 411.5,338.5C 411.659,334.326 413.325,330.992 416.5,328.5 Z"/></g>
<g><path style="opacity:0.047" fill="#adadad" d="M 411.5,338.5 C 407.242,348.35 402.408,358.017 397,367.5C 396.503,370.146 396.336,372.813 396.5,375.5C 393.68,375.248 391.014,375.748 388.5,377C 372.808,394.186 354.808,408.519 334.5,420C 327.237,425.26 320.57,431.26 314.5,438C 311.503,438.755 309.003,437.922 307,435.5C 303.811,439.014 299.811,441.014 295,441.5C 280.61,438.505 266.11,437.839 251.5,439.5C 255.066,438.097 258.733,437.097 262.5,436.5C 272.883,436.385 283.216,437.052 293.5,438.5C 298.75,438.976 303.083,437.309 306.5,433.5C 308.658,436.33 311.324,436.997 314.5,435.5C 319.632,430.539 324.966,425.705 330.5,421C 342.782,413.048 354.782,404.715 366.5,396C 373.5,390.333 379.833,384 385.5,377C 388.536,374.994 391.869,374.16 395.5,374.5C 395.335,371.482 395.502,368.482 396,365.5C 400.175,355.85 405.342,346.85 411.5,338.5 Z"/></g>
<g><path style="opacity:0.996" fill="#444939" d="M 242.5,356.5 C 241.57,360.796 240.737,365.13 240,369.5C 235.727,373.779 233.56,372.779 233.5,366.5C 235.09,368.424 236.924,368.757 239,367.5C 239.498,363.509 240.665,359.842 242.5,356.5 Z"/></g>
<g><path style="opacity:0.012" fill="#ababab" d="M 45.5,325.5 C 46.3382,325.842 46.6716,326.508 46.5,327.5C 46.479,336.946 49.1457,345.446 54.5,353C 55.7932,353.49 57.1266,353.657 58.5,353.5C 57.6525,355.481 57.1525,357.481 57,359.5C 60.8333,363.333 64.6667,367.167 68.5,371C 74.9412,374.45 80.4412,378.95 85,384.5C 86.4397,383.852 87.9397,383.519 89.5,383.5C 89.5,385.5 89.5,387.5 89.5,389.5C 95.0369,388.711 100.037,389.877 104.5,393C 105.404,397.04 106.904,400.873 109,404.5C 113.036,408.704 117.202,412.704 121.5,416.5C 111.94,411.781 105.94,404.281 103.5,394C 99.0565,392.06 94.3899,391.06 89.5,391C 88.2283,389.693 87.2283,388.193 86.5,386.5C 85.549,387.326 84.549,387.492 83.5,387C 79.0265,379.262 72.6931,373.595 64.5,370C 61.6937,367.194 58.8604,364.36 56,361.5C 54.3489,359.598 54.0155,357.598 55,355.5C 52.3103,353.807 50.3103,351.473 49,348.5C 47.7253,343.183 46.5586,337.849 45.5,332.5C 45.5,330.167 45.5,327.833 45.5,325.5 Z"/></g>
<g><path style="opacity:0.361" fill="#a6a6a6" d="M 121.5,416.5 C 125.542,417.851 128.875,420.185 131.5,423.5C 127.608,421.938 124.275,419.605 121.5,416.5 Z"/></g>
<g><path style="opacity:0.729" fill="#868686" d="M 131.5,423.5 C 136.144,424.022 139.811,426.022 142.5,429.5C 138.345,428.258 134.678,426.258 131.5,423.5 Z"/></g>
<g><path style="opacity:0.364" fill="#7e7e7e" d="M 215.5,436.5 C 221.448,437.555 227.448,438.222 233.5,438.5C 243.168,437.778 252.834,437.111 262.5,436.5C 258.733,437.097 255.066,438.097 251.5,439.5C 241.161,439.666 230.828,439.5 220.5,439C 218.509,438.626 216.842,437.793 215.5,436.5 Z"/></g>
<g><path style="opacity:0.447" fill="#a8a8a8" d="M 142.5,429.5 C 154.246,434.184 165.913,439.017 177.5,444C 183.214,444.632 188.881,444.299 194.5,443C 200.241,440.967 205.907,438.633 211.5,436C 213.066,435.235 214.399,435.402 215.5,436.5C 207.642,440.733 199.308,443.9 190.5,446C 186.5,446.667 182.5,446.667 178.5,446C 165.557,442.285 153.557,436.785 142.5,429.5 Z"/></g>
</svg>
