<?xml version="1.0" encoding="UTF-8"?>
<!DOCTYPE svg PUBLIC "-//W3C//DTD SVG 1.1//EN" "http://www.w3.org/Graphics/SVG/1.1/DTD/svg11.dtd">
<svg xmlns="http://www.w3.org/2000/svg" version="1.1" width="460px" height="456px" style="shape-rendering:geometricPrecision; text-rendering:geometricPrecision; image-rendering:optimizeQuality; fill-rule:evenodd; clip-rule:evenodd" xmlns:xlink="http://www.w3.org/1999/xlink">
<g><path style="opacity:0.996" fill="#b59352" d="M 353.5,86.5 C 354.167,86.5 354.5,86.8333 354.5,87.5C 354.795,89.4233 355.628,91.0899 357,92.5C 357.333,95.1667 357.667,97.8333 358,100.5C 360.511,103.299 363.345,103.965 366.5,102.5C 369.655,102.99 372.655,103.656 375.5,104.5C 375.5,106.167 375.5,107.833 375.5,109.5C 377.199,109.34 378.866,109.506 380.5,110C 381.924,112.101 383.258,114.267 384.5,116.5C 389.738,119.609 394.738,122.942 399.5,126.5C 401.823,129.323 404.323,131.99 407,134.5C 407.124,136.936 406.624,139.269 405.5,141.5C 407.806,141.993 410.139,142.326 412.5,142.5C 415.26,151.105 417.594,159.772 419.5,168.5C 420.999,184.449 421.832,200.449 422,216.5C 423.086,220.346 424.919,223.68 427.5,226.5C 428.906,226.973 429.573,227.973 429.5,229.5C 431.919,234.589 432.753,239.923 432,245.5C 431.045,247.949 429.545,249.949 427.5,251.5C 428.5,252.833 429.5,254.167 430.5,255.5C 429.873,256.417 429.539,257.417 429.5,258.5C 428.275,259.152 427.608,260.319 427.5,262C 427.514,263.385 427.848,264.551 428.5,265.5C 428.043,273.663 426.71,281.663 424.5,289.5C 423.542,289.953 422.708,290.619 422,291.5C 420.451,295.99 418.617,300.323 416.5,304.5C 409.754,315.921 403.42,327.587 397.5,339.5C 396.52,342.086 396.187,344.753 396.5,347.5C 393.68,347.248 391.014,347.748 388.5,349C 382.35,356.317 375.683,363.15 368.5,369.5C 355.674,378.747 342.674,387.747 329.5,396.5C 323.871,400.461 318.871,405.127 314.5,410.5C 311.324,411.997 308.658,411.33 306.5,408.5C 299.095,414.92 290.762,416.253 281.5,412.5C 280.737,411.732 279.737,411.232 278.5,411C 258.172,411.037 237.839,411.203 217.5,411.5C 215.599,411.567 213.766,411.233 212,410.5C 204.122,413.347 196.289,416.18 188.5,419C 180.224,420.171 172.224,419.171 164.5,416C 143.519,407.316 124.352,395.816 107,381.5C 103.326,377.321 101.16,372.488 100.5,367C 95.4955,364.366 90.1621,363.199 84.5,363.5C 84.5,361.833 84.5,360.167 84.5,358.5C 83.0695,358.421 81.7362,358.754 80.5,359.5C 78.8847,356.55 76.8847,353.884 74.5,351.5C 65.7082,347.218 58.2082,341.218 52,333.5C 51.3486,331.765 51.5153,330.098 52.5,328.5C 50.6812,327.68 49.0145,326.68 47.5,325.5C 47.7271,323.067 46.7271,321.401 44.5,320.5C 43.6778,312.205 42.0111,304.205 39.5,296.5C 38.8037,285.848 38.4704,275.181 38.5,264.5C 38.7845,258.346 37.9512,252.346 36,246.5C 35.3028,244.416 34.1361,242.749 32.5,241.5C 31.8046,238.085 30.1379,235.418 27.5,233.5C 27.3054,229.085 27.8054,224.751 29,220.5C 33.3317,219.183 33.4984,217.516 29.5,215.5C 29.4606,214.417 29.1272,213.417 28.5,212.5C 29.5217,211.646 30.3551,210.646 31,209.5C 31.2765,201.464 31.9432,193.464 33,185.5C 39.8031,172.113 46.8031,158.78 54,145.5C 54.813,143.564 55.313,141.564 55.5,139.5C 60.7186,134.352 63.3853,128.019 63.5,120.5C 65.5273,120.662 67.5273,120.495 69.5,120C 70.756,119.583 71.4226,118.75 71.5,117.5C 80.0056,108.83 89.0056,100.663 98.5,93C 105.297,90.2782 110.964,86.1116 115.5,80.5C 118.674,79.9898 121.008,78.3231 122.5,75.5C 122.5,74.8333 122.833,74.5 123.5,74.5C 123.369,75.2389 123.536,75.9056 124,76.5C 126.1,73.5332 128.934,71.6998 132.5,71C 134.629,68.5608 136.629,66.0608 138.5,63.5C 139.552,63.6495 140.552,63.4828 141.5,63C 142.833,61 144.167,59 145.5,57C 146.167,56.8333 146.833,56.6667 147.5,56.5C 149.217,57.7175 151.05,58.7175 153,59.5C 155.074,58.9283 156.24,57.595 156.5,55.5C 159.563,55.1365 162.563,54.4698 165.5,53.5C 169.242,54.0151 172.909,54.8484 176.5,56C 197.169,56.3829 217.836,56.2162 238.5,55.5C 239.167,55.5 239.833,55.5 240.5,55.5C 243.261,58.1356 246.594,58.9689 250.5,58C 255.284,55.4971 259.951,52.9971 264.5,50.5C 273.222,47.6712 281.889,47.8379 290.5,51C 307.796,58.6463 324.462,67.313 340.5,77C 344.667,80.5 348.833,84 353,87.5C 353.399,87.2716 353.565,86.9382 353.5,86.5 Z"/></g>
<g><path style="opacity:0.618" fill="#dfcdab" d="M 238.5,55.5 C 217.836,56.2162 197.169,56.3829 176.5,56C 172.909,54.8484 169.242,54.0151 165.5,53.5C 162.563,54.4698 159.563,55.1365 156.5,55.5C 158.809,53.2729 161.642,52.2729 165,52.5C 185.405,56.1223 205.905,56.4556 226.5,53.5C 230.777,53.3367 234.777,54.0033 238.5,55.5 Z"/></g>
<g><path style="opacity:0.506" fill="#decdac" d="M 264.5,50.5 C 259.951,52.9971 255.284,55.4971 250.5,58C 246.594,58.9689 243.261,58.1356 240.5,55.5C 246.772,57.3455 252.439,56.1788 257.5,52C 259.74,51.023 262.073,50.523 264.5,50.5 Z"/></g>
<g><path style="opacity:0.298" fill="#e3d4ba" d="M 156.5,55.5 C 156.24,57.595 155.074,58.9283 153,59.5C 151.05,58.7175 149.217,57.7175 147.5,56.5C 146.833,56.6667 146.167,56.8333 145.5,57C 144.167,59 142.833,61 141.5,63C 140.552,63.4828 139.552,63.6495 138.5,63.5C 140.263,60.8937 142.263,58.3937 144.5,56C 147.606,55.1562 150.439,55.6562 153,57.5C 154.077,56.5705 155.244,55.9038 156.5,55.5 Z"/></g>
<g><path style="opacity:0.325" fill="#e4d6bb" d="M 353.5,86.5 C 353.565,86.9382 353.399,87.2716 353,87.5C 348.833,84 344.667,80.5 340.5,77C 324.462,67.313 307.796,58.6463 290.5,51C 281.889,47.8379 273.222,47.6712 264.5,50.5C 265.842,49.207 267.509,48.3736 269.5,48C 278.157,46.6636 286.49,47.6636 294.5,51C 310.897,58.0307 326.563,66.364 341.5,76C 345.693,79.3651 349.693,82.8651 353.5,86.5 Z"/></g>
<g><path style="opacity:0.255" fill="#dccaab" d="M 138.5,63.5 C 136.629,66.0608 134.629,68.5608 132.5,71C 128.934,71.6998 126.1,73.5332 124,76.5C 123.536,75.9056 123.369,75.2389 123.5,74.5C 128.214,70.4542 133.214,66.7875 138.5,63.5 Z"/></g>
<g><path style="opacity:0.224" fill="#e8d5c4" d="M 122.5,75.5 C 121.008,78.3231 118.674,79.9898 115.5,80.5C 117.55,78.4525 119.883,76.7859 122.5,75.5 Z"/></g>
<g><path style="opacity:0.145" fill="#ebe0c9" d="M 354.5,87.5 C 358.484,90.8139 360.318,95.1472 360,100.5C 362.007,101.669 364.173,102.335 366.5,102.5C 363.345,103.965 360.511,103.299 358,100.5C 357.667,97.8333 357.333,95.1667 357,92.5C 355.628,91.0899 354.795,89.4233 354.5,87.5 Z"/></g>
<g><path style="opacity:0.239" fill="#e0cfaf" d="M 115.5,80.5 C 110.964,86.1116 105.297,90.2782 98.5,93C 89.0056,100.663 80.0056,108.83 71.5,117.5C 83.7491,102.248 98.4158,89.9142 115.5,80.5 Z"/></g>
<g><path style="opacity:0.996" fill="#336f21" d="M 288.5,123.5 C 286.772,126.449 284.938,129.449 283,132.5C 282.028,136.806 281.194,141.14 280.5,145.5C 280.747,146.713 281.414,147.38 282.5,147.5C 292.189,145.295 301.855,142.962 311.5,140.5C 316.203,140.901 320.536,142.401 324.5,145C 325.752,146.828 325.752,148.661 324.5,150.5C 319.067,152.186 313.733,153.852 308.5,155.5C 297.88,157.804 287.213,159.971 276.5,162C 275.209,163.292 275.209,164.458 276.5,165.5C 277.568,166.434 278.901,166.768 280.5,166.5C 289.702,168.93 298.369,172.764 306.5,178C 312.405,182.141 314.405,187.641 312.5,194.5C 309.812,197.892 306.478,198.392 302.5,196C 293.026,188.359 284.026,180.192 275.5,171.5C 274.311,170.571 272.978,170.238 271.5,170.5C 270.306,177.555 267.473,183.888 263,189.5C 258.719,194.903 253.886,199.737 248.5,204C 246.783,205.559 244.783,206.392 242.5,206.5C 241.387,205.054 241.22,203.387 242,201.5C 249.713,191.732 255.546,181.066 259.5,169.5C 260.451,168.081 260.784,166.415 260.5,164.5C 252.133,164.705 243.8,164.371 235.5,163.5C 234.032,162.221 233.365,160.554 233.5,158.5C 243.825,158.073 253.825,156.073 263.5,152.5C 264.163,147.655 265.33,142.988 267,138.5C 267.499,133.845 267.666,129.179 267.5,124.5C 267.862,120.919 266.862,117.919 264.5,115.5C 262.284,108.918 264.618,106.751 271.5,109C 276.223,110.196 280.557,112.196 284.5,115C 287.321,117.141 288.654,119.975 288.5,123.5 Z"/></g>
<g><path style="opacity:0.996" fill="#405431" d="M 264.5,115.5 C 266.862,117.919 267.862,120.919 267.5,124.5C 265.145,122.077 264.145,119.077 264.5,115.5 Z"/></g>
<g><path style="opacity:0.451" fill="#e3d5bb" d="M 375.5,104.5 C 376.404,105.209 376.737,106.209 376.5,107.5C 377.873,107.343 379.207,107.51 380.5,108C 383.202,113.7 387.536,117.7 393.5,120C 395.899,121.98 397.899,124.147 399.5,126.5C 394.738,122.942 389.738,119.609 384.5,116.5C 383.258,114.267 381.924,112.101 380.5,110C 378.866,109.506 377.199,109.34 375.5,109.5C 375.5,107.833 375.5,106.167 375.5,104.5 Z"/></g>
<g><path style="opacity:0.51" fill="#e2d4b8" d="M 71.5,117.5 C 71.4226,118.75 70.756,119.583 69.5,120C 67.5273,120.495 65.5273,120.662 63.5,120.5C 63.3853,128.019 60.7186,134.352 55.5,139.5C 57.021,135.441 58.8543,131.441 61,127.5C 61.3333,124.833 61.6667,122.167 62,119.5C 65.1174,118.696 68.284,118.03 71.5,117.5 Z"/></g>
<g><path style="opacity:0.996" fill="#4a5a34" d="M 288.5,123.5 C 285.578,131.189 283.578,139.189 282.5,147.5C 281.414,147.38 280.747,146.713 280.5,145.5C 281.194,141.14 282.028,136.806 283,132.5C 284.938,129.449 286.772,126.449 288.5,123.5 Z"/></g>
<g><path style="opacity:0.996" fill="#326e21" d="M 218.5,140.5 C 207.38,144.138 196.047,146.805 184.5,148.5C 184.232,150.099 184.566,151.432 185.5,152.5C 185.041,157.565 185.041,162.565 185.5,167.5C 190.697,165.649 196.03,165.149 201.5,166C 206.451,167.083 208.118,169.916 206.5,174.5C 198.424,176.305 190.424,178.305 182.5,180.5C 182.5,182.167 182.5,183.833 182.5,185.5C 182.5,190.167 182.5,194.833 182.5,199.5C 188.145,198.613 193.812,198.446 199.5,199C 202.794,200.342 204.128,202.842 203.5,206.5C 196.05,208.32 188.717,210.32 181.5,212.5C 181.5,214.167 181.5,215.833 181.5,217.5C 181.5,222.5 181.5,227.5 181.5,232.5C 193.463,229.529 203.63,232.862 212,242.5C 212.497,244.81 212.663,247.143 212.5,249.5C 210.665,250.122 209.498,251.456 209,253.5C 208.178,256.117 207.678,258.784 207.5,261.5C 207.936,277.232 207.27,292.899 205.5,308.5C 202.903,323.179 195.57,335.012 183.5,344C 180.16,344.824 177.827,343.657 176.5,340.5C 174.768,331.033 170.435,323.033 163.5,316.5C 163.5,314.833 163.5,313.167 163.5,311.5C 168.227,311.909 172.56,313.409 176.5,316C 182.951,318.178 187.118,316.011 189,309.5C 190.059,301.468 191.225,293.468 192.5,285.5C 193.659,274.007 193.826,262.341 193,250.5C 192.626,248.509 191.793,246.842 190.5,245.5C 190.389,244.883 190.056,244.383 189.5,244C 185.5,243.333 181.5,243.333 177.5,244C 167.705,246.612 157.705,248.612 147.5,250C 144.262,252.305 142.428,255.472 142,259.5C 138.142,261.298 135.309,260.298 133.5,256.5C 132.093,247.848 132.26,239.181 134,230.5C 134.5,210.836 134.667,191.169 134.5,171.5C 134.183,164.446 133.35,157.446 132,150.5C 131.623,149.058 130.79,148.058 129.5,147.5C 127.321,140.918 129.655,138.751 136.5,141C 141.474,145.135 147.14,146.468 153.5,145C 169.226,141.903 184.56,137.57 199.5,132C 206.921,130.216 213.421,131.716 219,136.5C 219.579,137.928 219.412,139.262 218.5,140.5 Z"/></g>
<g><path style="opacity:0.224" fill="#e3d4b9" d="M 399.5,126.5 C 404.189,128.505 407.522,131.838 409.5,136.5C 409.392,137.442 409.059,138.275 408.5,139C 410.093,139.949 411.426,141.115 412.5,142.5C 410.139,142.326 407.806,141.993 405.5,141.5C 406.624,139.269 407.124,136.936 407,134.5C 404.323,131.99 401.823,129.323 399.5,126.5 Z"/></g>
<g><path style="opacity:0.996" fill="#41433a" d="M 218.5,140.5 C 220.126,143.121 219.459,144.954 216.5,146C 206.367,149.217 196.034,151.383 185.5,152.5C 184.566,151.432 184.232,150.099 184.5,148.5C 196.047,146.805 207.38,144.138 218.5,140.5 Z"/></g>
<g><path style="opacity:0.996" fill="#40413a" d="M 324.5,150.5 C 325.434,151.568 325.768,152.901 325.5,154.5C 319.64,156.924 313.64,159.091 307.5,161C 304.173,161.61 300.839,162.11 297.5,162.5C 290.622,164.257 283.622,165.257 276.5,165.5C 276.414,164.504 276.748,163.671 277.5,163C 287.5,161 297.5,159 307.5,157C 308.056,156.617 308.389,156.117 308.5,155.5C 313.733,153.852 319.067,152.186 324.5,150.5 Z"/></g>
<g><path style="opacity:0.996" fill="#3c4039" d="M 167.5,156.5 C 160.87,157.495 154.203,158.162 147.5,158.5C 147.5,157.5 147.5,156.5 147.5,155.5C 149.415,155.784 151.081,155.451 152.5,154.5C 156.565,153.817 160.565,152.817 164.5,151.5C 167.085,152.073 168.085,153.739 167.5,156.5 Z"/></g>
<g><path style="opacity:0.259" fill="#e7dbc2" d="M 412.5,142.5 C 413.79,143.058 414.623,144.058 415,145.5C 417.617,152.966 419.117,160.632 419.5,168.5C 417.594,159.772 415.26,151.105 412.5,142.5 Z"/></g>
<g><path style="opacity:0.996" fill="#334c2f" d="M 308.5,155.5 C 308.389,156.117 308.056,156.617 307.5,157C 297.5,159 287.5,161 277.5,163C 276.748,163.671 276.414,164.504 276.5,165.5C 275.209,164.458 275.209,163.292 276.5,162C 287.213,159.971 297.88,157.804 308.5,155.5 Z"/></g>
<g><path style="opacity:0.694" fill="#e5d8bd" d="M 55.5,139.5 C 55.313,141.564 54.813,143.564 54,145.5C 46.8031,158.78 39.8031,172.113 33,185.5C 31.9432,193.464 31.2765,201.464 31,209.5C 30.3551,210.646 29.5217,211.646 28.5,212.5C 29.1272,213.417 29.4606,214.417 29.5,215.5C 28.0047,215.585 27.0047,214.919 26.5,213.5C 27.1743,211.483 28.3409,209.817 30,208.5C 30.1293,200.106 30.796,191.772 32,183.5C 39.5781,168.676 47.4114,154.009 55.5,139.5 Z"/></g>
<g><path style="opacity:0.996" fill="#404339" d="M 235.5,163.5 C 243.8,164.371 252.133,164.705 260.5,164.5C 260.784,166.415 260.451,168.081 259.5,169.5C 252.492,169.666 245.492,169.5 238.5,169C 235.928,168.758 234.261,167.425 233.5,165C 233.836,163.97 234.503,163.47 235.5,163.5 Z"/></g>
<g><path style="opacity:0.996" fill="#887448" d="M 297.5,162.5 C 292.416,165.589 286.749,166.923 280.5,166.5C 278.901,166.768 277.568,166.434 276.5,165.5C 283.622,165.257 290.622,164.257 297.5,162.5 Z"/></g>
<g><path style="opacity:0.996" fill="#4b6332" d="M 129.5,147.5 C 130.79,148.058 131.623,149.058 132,150.5C 133.35,157.446 134.183,164.446 134.5,171.5C 132.98,163.576 131.313,155.576 129.5,147.5 Z"/></g>
<g><path style="opacity:0.996" fill="#3e4239" d="M 206.5,174.5 C 207.573,175.251 207.74,176.251 207,177.5C 199.132,180.977 190.965,183.644 182.5,185.5C 182.5,183.833 182.5,182.167 182.5,180.5C 190.424,178.305 198.424,176.305 206.5,174.5 Z"/></g>
<g><path style="opacity:0.996" fill="#b09151" d="M 302.5,200.5 C 284.681,204.117 266.681,206.784 248.5,208.5C 259.399,199.267 268.066,188.267 274.5,175.5C 283.283,184.626 292.617,192.959 302.5,200.5 Z"/></g>
<g><path style="opacity:0.996" fill="#46453b" d="M 151.5,182.5 C 157.329,184.232 163.329,184.899 169.5,184.5C 169.5,186.167 169.5,187.833 169.5,189.5C 163.013,190.117 156.846,189.117 151,186.5C 150.235,184.934 150.402,183.601 151.5,182.5 Z"/></g>
<g><path style="opacity:0.996" fill="#70793c" d="M 152.5,154.5 C 151.081,155.451 149.415,155.784 147.5,155.5C 147.5,156.5 147.5,157.5 147.5,158.5C 147.5,185.833 147.5,213.167 147.5,240.5C 150.518,240.296 153.518,239.963 156.5,239.5C 153.493,241.175 150.16,241.841 146.5,241.5C 146.5,212.5 146.5,183.5 146.5,154.5C 148.5,154.5 150.5,154.5 152.5,154.5 Z"/></g>
<g><path style="opacity:0.996" fill="#336e21" d="M 363.5,208.5 C 357.076,210.373 350.409,211.04 343.5,210.5C 332.341,209.341 321.008,209.174 309.5,210C 308.588,211.625 309.255,212.459 311.5,212.5C 311.973,213.906 312.973,214.573 314.5,214.5C 315.479,216.145 316.812,217.479 318.5,218.5C 319.438,226.497 319.271,234.497 318,242.5C 317.807,271.211 317.64,299.878 317.5,328.5C 315.018,338.013 310.685,346.68 304.5,354.5C 302.167,355.833 299.833,355.833 297.5,354.5C 290.613,342.612 281.613,332.612 270.5,324.5C 269.85,322.565 269.517,320.565 269.5,318.5C 273.553,319.013 277.553,319.846 281.5,321C 286.833,321.667 292.167,321.667 297.5,321C 299.487,319.681 300.654,317.848 301,315.5C 302.593,291.866 302.927,268.199 302,244.5C 301.827,237.398 300.994,230.398 299.5,223.5C 299.186,220.053 298.352,216.72 297,213.5C 295.527,211.993 293.693,211.326 291.5,211.5C 270.696,215.23 250.029,219.23 229.5,223.5C 223.682,223.42 218.682,221.42 214.5,217.5C 212.874,214.879 213.541,213.046 216.5,212C 225.058,211.902 233.391,211.068 241.5,209.5C 244.059,209.802 246.393,209.468 248.5,208.5C 266.681,206.784 284.681,204.117 302.5,200.5C 306.078,200.451 309.411,199.785 312.5,198.5C 324.006,195.785 335.673,194.951 347.5,196C 352.167,198 356.833,200 361.5,202C 363.229,203.789 363.896,205.956 363.5,208.5 Z"/></g>
<g><path style="opacity:0.996" fill="#3f4438" d="M 312.5,194.5 C 312.5,195.833 312.5,197.167 312.5,198.5C 309.411,199.785 306.078,200.451 302.5,200.5C 292.617,192.959 283.283,184.626 274.5,175.5C 268.066,188.267 259.399,199.267 248.5,208.5C 246.393,209.468 244.059,209.802 241.5,209.5C 241.557,208.391 241.89,207.391 242.5,206.5C 244.783,206.392 246.783,205.559 248.5,204C 253.886,199.737 258.719,194.903 263,189.5C 267.473,183.888 270.306,177.555 271.5,170.5C 272.978,170.238 274.311,170.571 275.5,171.5C 284.026,180.192 293.026,188.359 302.5,196C 306.478,198.392 309.812,197.892 312.5,194.5 Z"/></g>
<g><path style="opacity:0.306" fill="#e5d9be" d="M 419.5,168.5 C 420.984,173.253 421.818,178.253 422,183.5C 422.92,194.818 423.587,206.151 424,217.5C 425.664,220.327 426.83,223.327 427.5,226.5C 424.919,223.68 423.086,220.346 422,216.5C 421.832,200.449 420.999,184.449 419.5,168.5 Z"/></g>
<g><path style="opacity:0.996" fill="#404439" d="M 203.5,206.5 C 203.672,208.492 203.005,210.158 201.5,211.5C 194.74,213.519 188.074,215.519 181.5,217.5C 181.5,215.833 181.5,214.167 181.5,212.5C 188.717,210.32 196.05,208.32 203.5,206.5 Z"/></g>
<g><path style="opacity:0.996" fill="#304d2c" d="M 343.5,210.5 C 332.495,210.333 321.495,210.5 310.5,211C 311.056,211.383 311.389,211.883 311.5,212.5C 309.255,212.459 308.588,211.625 309.5,210C 321.008,209.174 332.341,209.341 343.5,210.5 Z"/></g>
<g><path style="opacity:0.996" fill="#41413b" d="M 363.5,208.5 C 363.95,212.224 362.283,214.391 358.5,215C 343.846,214.812 329.179,214.645 314.5,214.5C 312.973,214.573 311.973,213.906 311.5,212.5C 311.389,211.883 311.056,211.383 310.5,211C 321.495,210.5 332.495,210.333 343.5,210.5C 350.409,211.04 357.076,210.373 363.5,208.5 Z"/></g>
<g><path style="opacity:0.996" fill="#3f4239" d="M 299.5,223.5 C 298.136,221.78 297.136,219.78 296.5,217.5C 295,217.167 293.5,216.833 292,216.5C 271.059,219.696 250.226,223.362 229.5,227.5C 223.937,227.149 219.104,225.149 215,221.5C 214.51,220.207 214.343,218.873 214.5,217.5C 218.682,221.42 223.682,223.42 229.5,223.5C 250.029,219.23 270.696,215.23 291.5,211.5C 293.693,211.326 295.527,211.993 297,213.5C 298.352,216.72 299.186,220.053 299.5,223.5 Z"/></g>
<g><path style="opacity:0.996" fill="#b09151" d="M 167.5,156.5 C 168.894,162.089 169.394,167.755 169,173.5C 162.849,174.959 156.683,176.459 150.5,178C 149.257,179.816 149.59,181.316 151.5,182.5C 150.402,183.601 150.235,184.934 151,186.5C 156.846,189.117 163.013,190.117 169.5,189.5C 169.666,194.844 169.499,200.177 169,205.5C 163.251,207.098 157.418,208.432 151.5,209.5C 150.334,211.167 150.334,212.834 151.5,214.5C 150.272,216.01 150.272,217.51 151.5,219C 157.62,219.976 163.62,220.809 169.5,221.5C 169.666,226.511 169.499,231.511 169,236.5C 164.981,238.046 160.815,239.046 156.5,239.5C 153.518,239.963 150.518,240.296 147.5,240.5C 147.5,213.167 147.5,185.833 147.5,158.5C 154.203,158.162 160.87,157.495 167.5,156.5 Z"/></g>
<g><path style="opacity:0.996" fill="#43453a" d="M 151.5,214.5 C 157.711,216.101 164.044,216.768 170.5,216.5C 170.784,218.415 170.451,220.081 169.5,221.5C 163.62,220.809 157.62,219.976 151.5,219C 150.272,217.51 150.272,216.01 151.5,214.5 Z"/></g>
<g><path style="opacity:0.776" fill="#d9c5a1" d="M 29.5,215.5 C 33.4984,217.516 33.3317,219.183 29,220.5C 27.8054,224.751 27.3054,229.085 27.5,233.5C 25.0258,229.076 24.8591,224.409 27,219.5C 28.4813,218.529 29.3146,217.196 29.5,215.5 Z"/></g>
<g><path style="opacity:0.475" fill="#ddd0b4" d="M 27.5,233.5 C 30.1379,235.418 31.8046,238.085 32.5,241.5C 31.8333,241.5 31.5,241.833 31.5,242.5C 31.1667,242.5 30.8333,242.5 30.5,242.5C 29.7593,239.366 28.7593,236.366 27.5,233.5 Z"/></g>
<g><path style="opacity:0.996" fill="#336e22" d="M 286.5,249.5 C 283.441,251.397 281.274,254.064 280,257.5C 278.638,261.058 277.138,264.558 275.5,268C 275.836,269.03 276.503,269.53 277.5,269.5C 278.481,271.489 279.481,273.489 280.5,275.5C 280.315,276.584 279.982,277.584 279.5,278.5C 266.846,280.428 254.179,282.595 241.5,285C 240.663,286.011 240.33,287.178 240.5,288.5C 239.525,291.067 238.858,293.733 238.5,296.5C 236.865,297.815 235.199,297.815 233.5,296.5C 231.76,293.588 230.427,290.588 229.5,287.5C 228.871,279.909 227.871,272.242 226.5,264.5C 226.572,258.43 224.905,253.096 221.5,248.5C 219.779,243.051 221.779,240.885 227.5,242C 240.659,245.752 252.992,243.752 264.5,236C 267.167,235.333 269.833,235.333 272.5,236C 276.668,238.25 280.668,240.75 284.5,243.5C 286.086,245.173 286.753,247.173 286.5,249.5 Z"/></g>
<g><path style="opacity:0.361" fill="#e3daca" d="M 429.5,229.5 C 435.543,236.477 435.876,243.81 430.5,251.5C 432.76,253.407 432.927,255.407 431,257.5C 430.333,264.167 429.667,270.833 429,277.5C 428.294,281.325 427.128,284.992 425.5,288.5C 426.25,292.799 426.084,297.132 425,301.5C 424.722,302.416 424.222,303.082 423.5,303.5C 424.127,298.859 424.46,294.193 424.5,289.5C 426.71,281.663 428.043,273.663 428.5,265.5C 429.468,263.393 429.802,261.059 429.5,258.5C 429.539,257.417 429.873,256.417 430.5,255.5C 429.5,254.167 428.5,252.833 427.5,251.5C 429.545,249.949 431.045,247.949 432,245.5C 432.753,239.923 431.919,234.589 429.5,229.5 Z"/></g>
<g><path style="opacity:0.995" fill="#221e18" d="M 32.5,241.5 C 34.1361,242.749 35.3028,244.416 36,246.5C 37.9512,252.346 38.7845,258.346 38.5,264.5C 31.9115,258.589 29.5781,251.256 31.5,242.5C 31.5,241.833 31.8333,241.5 32.5,241.5 Z"/></g>
<g><path style="opacity:0.996" fill="#41443a" d="M 190.5,245.5 C 190.5,246.833 190.5,248.167 190.5,249.5C 185.888,248.377 181.222,248.377 176.5,249.5C 168.428,250.08 160.428,251.247 152.5,253C 151.944,253.383 151.611,253.883 151.5,254.5C 149.738,254.357 148.071,254.691 146.5,255.5C 144.283,258.058 143.117,261.058 143,264.5C 136.794,265.913 133.628,263.246 133.5,256.5C 135.309,260.298 138.142,261.298 142,259.5C 142.428,255.472 144.262,252.305 147.5,250C 157.705,248.612 167.705,246.612 177.5,244C 181.5,243.333 185.5,243.333 189.5,244C 190.056,244.383 190.389,244.883 190.5,245.5 Z"/></g>
<g><path style="opacity:0.996" fill="#404439" d="M 264.5,254.5 C 262.59,253.906 260.59,253.573 258.5,253.5C 252.217,254.779 245.883,255.779 239.5,256.5C 238.549,255.081 238.216,253.415 238.5,251.5C 245.696,250.797 252.863,249.797 260,248.5C 264.594,248.56 266.094,250.56 264.5,254.5 Z"/></g>
<g><path style="opacity:0.996" fill="#846f48" d="M 176.5,249.5 C 168.4,251.787 160.067,253.453 151.5,254.5C 151.611,253.883 151.944,253.383 152.5,253C 160.428,251.247 168.428,250.08 176.5,249.5 Z"/></g>
<g><path style="opacity:0.996" fill="#585d3a" d="M 221.5,248.5 C 224.905,253.096 226.572,258.43 226.5,264.5C 224.331,261.902 222.831,258.902 222,255.5C 221.578,253.645 221.078,251.811 220.5,250C 220.57,249.235 220.903,248.735 221.5,248.5 Z"/></g>
<g><path style="opacity:0.996" fill="#b29251" d="M 264.5,254.5 C 264.368,260.001 263.034,265.168 260.5,270C 254.093,273.812 247.26,275.312 240,274.5C 239.501,268.509 239.334,262.509 239.5,256.5C 245.883,255.779 252.217,254.779 258.5,253.5C 260.59,253.573 262.59,253.906 264.5,254.5 Z"/></g>
<g><path style="opacity:0.996" fill="#356e22" d="M 185.5,278.5 C 184.609,279.261 183.942,280.261 183.5,281.5C 181.926,282.631 180.259,282.798 178.5,282C 173.835,275.821 169.835,269.321 166.5,262.5C 166.5,260.5 166.5,258.5 166.5,256.5C 173.517,257.597 179.35,260.93 184,266.5C 185.354,270.363 185.854,274.363 185.5,278.5 Z"/></g>
<g><path style="opacity:0.996" fill="#3d5331" d="M 212.5,249.5 C 211.379,253.741 209.712,257.741 207.5,261.5C 207.678,258.784 208.178,256.117 209,253.5C 209.498,251.456 210.665,250.122 212.5,249.5 Z"/></g>
<g><path style="opacity:0.996" fill="#474c39" d="M 286.5,249.5 C 287.034,253.478 285.534,256.478 282,258.5C 279.928,261.971 278.428,265.638 277.5,269.5C 276.503,269.53 275.836,269.03 275.5,268C 277.138,264.558 278.638,261.058 280,257.5C 281.274,254.064 283.441,251.397 286.5,249.5 Z"/></g>
<g><path style="opacity:0.988" fill="#5b4e38" d="M 429.5,258.5 C 429.802,261.059 429.468,263.393 428.5,265.5C 427.848,264.551 427.514,263.385 427.5,262C 427.608,260.319 428.275,259.152 429.5,258.5 Z"/></g>
<g><path style="opacity:0.996" fill="#657638" d="M 190.5,245.5 C 191.793,246.842 192.626,248.509 193,250.5C 193.826,262.341 193.659,274.007 192.5,285.5C 193.077,273.319 192.411,261.319 190.5,249.5C 190.5,248.167 190.5,246.833 190.5,245.5 Z"/></g>
<g><path style="opacity:0.996" fill="#346e22" d="M 164.5,287.5 C 163.163,288.315 162.163,289.482 161.5,291C 160.167,291.667 158.833,291.667 157.5,291C 154.5,287.486 152.167,283.653 150.5,279.5C 149.883,279.389 149.383,279.056 149,278.5C 148.366,274.145 148.033,269.812 148,265.5C 150.647,264.536 153.147,265.036 155.5,267C 158,269.5 160.5,272 163,274.5C 164.29,278.73 164.79,283.064 164.5,287.5 Z"/></g>
<g><path style="opacity:0.996" fill="#356f22" d="M 116.5,298.5 C 115.225,303.225 113.225,307.725 110.5,312C 108.741,312.798 107.074,312.631 105.5,311.5C 104.184,308.447 102.517,305.781 100.5,303.5C 101.247,295.979 103.747,288.979 108,282.5C 108.368,277.696 109.368,273.03 111,268.5C 112.333,267.167 113.667,267.167 115,268.5C 117.648,278.423 118.148,288.423 116.5,298.5 Z"/></g>
<g><path style="opacity:0.996" fill="#366f23" d="M 144.5,293.5 C 143.799,295.588 142.799,297.588 141.5,299.5C 138.598,301.115 136.265,300.449 134.5,297.5C 132.112,290.751 129.779,284.085 127.5,277.5C 127.337,275.143 127.503,272.81 128,270.5C 129.388,269.446 130.888,269.28 132.5,270C 139.865,276.232 143.865,284.065 144.5,293.5 Z"/></g>
<g><path style="opacity:0.996" fill="#3d4139" d="M 279.5,278.5 C 280.477,281.597 279.144,283.597 275.5,284.5C 263.857,285.898 252.191,287.231 240.5,288.5C 240.33,287.178 240.663,286.011 241.5,285C 254.179,282.595 266.846,280.428 279.5,278.5 Z"/></g>
<g><path style="opacity:0.996" fill="#43453a" d="M 166.5,262.5 C 169.835,269.321 173.835,275.821 178.5,282C 180.259,282.798 181.926,282.631 183.5,281.5C 183.942,280.261 184.609,279.261 185.5,278.5C 186.37,284.352 184.037,286.852 178.5,286C 172.769,279.039 168.769,271.205 166.5,262.5 Z"/></g>
<g><path style="opacity:0.2" fill="#e1ddd3" d="M 30.5,242.5 C 30.8333,242.5 31.1667,242.5 31.5,242.5C 29.5781,251.256 31.9115,258.589 38.5,264.5C 38.4704,275.181 38.8037,285.848 39.5,296.5C 37.7711,286.382 36.6044,276.049 36,265.5C 33.155,261.143 30.8217,256.477 29,251.5C 28.3333,248.833 28.3333,246.167 29,243.5C 29.3826,242.944 29.8826,242.611 30.5,242.5 Z"/></g>
<g><path style="opacity:0.996" fill="#4d5c34" d="M 127.5,277.5 C 129.779,284.085 132.112,290.751 134.5,297.5C 133.833,297.167 133.167,296.833 132.5,296.5C 129.277,290.716 127.611,284.382 127.5,277.5 Z"/></g>
<g><path style="opacity:0.996" fill="#44463a" d="M 150.5,279.5 C 152.167,283.653 154.5,287.486 157.5,291C 158.833,291.667 160.167,291.667 161.5,291C 162.163,289.482 163.163,288.315 164.5,287.5C 164.96,292.869 162.627,295.369 157.5,295C 153.526,290.578 151.192,285.412 150.5,279.5 Z"/></g>
<g><path style="opacity:0.996" fill="#877348" d="M 275.5,284.5 C 275.389,285.117 275.056,285.617 274.5,286C 263.418,286.974 252.418,288.474 241.5,290.5C 240.727,293.465 240.061,296.465 239.5,299.5C 239.253,300.713 238.586,301.38 237.5,301.5C 238.038,299.883 238.371,298.216 238.5,296.5C 238.858,293.733 239.525,291.067 240.5,288.5C 252.191,287.231 263.857,285.898 275.5,284.5 Z"/></g>
<g><path style="opacity:0.996" fill="#43453a" d="M 229.5,287.5 C 230.427,290.588 231.76,293.588 233.5,296.5C 235.199,297.815 236.865,297.815 238.5,296.5C 238.371,298.216 238.038,299.883 237.5,301.5C 235.856,301.714 234.356,301.38 233,300.5C 230.74,296.46 229.573,292.127 229.5,287.5 Z"/></g>
<g><path style="opacity:0.996" fill="#41413a" d="M 132.5,296.5 C 133.167,296.833 133.833,297.167 134.5,297.5C 136.265,300.449 138.598,301.115 141.5,299.5C 142.494,300.999 142.494,302.666 141.5,304.5C 139.473,304.662 137.473,304.495 135.5,304C 134.219,301.573 133.219,299.073 132.5,296.5 Z"/></g>
<g><path style="opacity:0.996" fill="#716742" d="M 144.5,293.5 C 144.663,295.857 144.497,298.19 144,300.5C 143.8,302.32 142.966,303.653 141.5,304.5C 142.494,302.666 142.494,300.999 141.5,299.5C 142.799,297.588 143.799,295.588 144.5,293.5 Z"/></g>
<g><path style="opacity:0.408" fill="#909090" d="M 423.5,303.5 C 422.643,308.425 420.643,312.758 417.5,316.5C 417.34,314.801 417.506,313.134 418,311.5C 419.635,308.517 421.468,305.851 423.5,303.5 Z"/></g>
<g><path style="opacity:0.129" fill="#dbd6ce" d="M 39.5,296.5 C 42.0111,304.205 43.6778,312.205 44.5,320.5C 44.6459,324.387 45.3126,328.054 46.5,331.5C 46.5,333.167 46.5,334.833 46.5,336.5C 44.0368,328.424 42.2035,320.091 41,311.5C 39.9502,306.552 39.4502,301.552 39.5,296.5 Z"/></g>
<g><path style="opacity:0.996" fill="#4b4c3b" d="M 116.5,298.5 C 116.673,305.333 114.673,311.499 110.5,317C 108.299,317.825 106.466,317.325 105,315.5C 101.821,312.129 100.321,308.129 100.5,303.5C 102.517,305.781 104.184,308.447 105.5,311.5C 107.074,312.631 108.741,312.798 110.5,312C 113.225,307.725 115.225,303.225 116.5,298.5 Z"/></g>
<g><path style="opacity:0.349" fill="#a8a8a8" d="M 417.5,316.5 C 416.258,320.655 414.258,324.322 411.5,327.5C 412.244,323.003 414.244,319.336 417.5,316.5 Z"/></g>
<g><path style="opacity:0.996" fill="#404837" d="M 163.5,316.5 C 170.435,323.033 174.768,331.033 176.5,340.5C 173.952,333.751 170.118,327.751 165,322.5C 163.872,320.655 163.372,318.655 163.5,316.5 Z"/></g>
<g><path style="opacity:0.855" fill="#403d38" d="M 44.5,320.5 C 46.7271,321.401 47.7271,323.067 47.5,325.5C 46.7093,327.309 46.7093,329.309 47.5,331.5C 47.1667,331.5 46.8333,331.5 46.5,331.5C 45.3126,328.054 44.6459,324.387 44.5,320.5 Z"/></g>
<g><path style="opacity:0.997" fill="#080705" d="M 424.5,289.5 C 424.46,294.193 424.127,298.859 423.5,303.5C 421.468,305.851 419.635,308.517 418,311.5C 417.506,313.134 417.34,314.801 417.5,316.5C 414.244,319.336 412.244,323.003 411.5,327.5C 404.965,337.553 399.132,348.219 394,359.5C 393.503,361.81 393.337,364.143 393.5,366.5C 391.08,366.292 388.747,366.626 386.5,367.5C 370.718,384.785 352.718,399.285 332.5,411C 324.969,417.04 317.636,423.206 310.5,429.5C 308.315,429.148 306.481,428.148 305,426.5C 302.844,427.985 300.677,429.485 298.5,431C 296.5,431.167 294.5,431.333 292.5,431.5C 272.344,428.999 252.177,428.999 232,431.5C 225.181,431.67 218.681,430.336 212.5,427.5C 207.56,429.304 202.893,431.637 198.5,434.5C 189.588,437.126 180.588,437.626 171.5,436C 157.334,428.581 143,421.748 128.5,415.5C 127.421,413.457 125.754,412.124 123.5,411.5C 123.167,411.5 122.833,411.5 122.5,411.5C 118.133,407.132 113.467,403.132 108.5,399.5C 105.73,395.281 104.064,390.614 103.5,385.5C 98.5322,382.931 93.1988,381.931 87.5,382.5C 87.5,380.833 87.5,379.167 87.5,377.5C 85.396,377.799 83.396,377.466 81.5,376.5C 79.5613,371.367 75.8947,368.367 70.5,367.5C 70.5858,366.504 70.2524,365.671 69.5,365C 65.0341,362.528 61.2008,359.362 58,355.5C 57.1502,353.99 56.3169,352.49 55.5,351C 56.1476,349.56 56.4809,348.06 56.5,346.5C 54.2776,346.822 52.4443,346.155 51,344.5C 48.9104,340.401 47.7438,336.067 47.5,331.5C 46.7093,329.309 46.7093,327.309 47.5,325.5C 49.0145,326.68 50.6812,327.68 52.5,328.5C 51.5153,330.098 51.3486,331.765 52,333.5C 58.2082,341.218 65.7082,347.218 74.5,351.5C 76.8847,353.884 78.8847,356.55 80.5,359.5C 81.7362,358.754 83.0695,358.421 84.5,358.5C 84.5,360.167 84.5,361.833 84.5,363.5C 90.1621,363.199 95.4955,364.366 100.5,367C 101.16,372.488 103.326,377.321 107,381.5C 124.352,395.816 143.519,407.316 164.5,416C 172.224,419.171 180.224,420.171 188.5,419C 196.289,416.18 204.122,413.347 212,410.5C 213.766,411.233 215.599,411.567 217.5,411.5C 222.748,413.022 228.248,413.689 234,413.5C 249.827,411.91 265.661,411.576 281.5,412.5C 290.762,416.253 299.095,414.92 306.5,408.5C 308.658,411.33 311.324,411.997 314.5,410.5C 318.871,405.127 323.871,400.461 329.5,396.5C 342.674,387.747 355.674,378.747 368.5,369.5C 375.683,363.15 382.35,356.317 388.5,349C 391.014,347.748 393.68,347.248 396.5,347.5C 396.187,344.753 396.52,342.086 397.5,339.5C 403.42,327.587 409.754,315.921 416.5,304.5C 418.617,300.323 420.451,295.99 422,291.5C 422.708,290.619 423.542,289.953 424.5,289.5 Z"/></g>
<g><path style="opacity:0.996" fill="#434739" d="M 205.5,308.5 C 204.713,323.066 199.046,335.232 188.5,345C 185.453,348.126 181.953,348.959 178,347.5C 176.798,345.323 176.298,342.989 176.5,340.5C 177.827,343.657 180.16,344.824 183.5,344C 195.57,335.012 202.903,323.179 205.5,308.5 Z"/></g>
<g><path style="opacity:0.027" fill="#aeaeae" d="M 46.5,331.5 C 46.8333,331.5 47.1667,331.5 47.5,331.5C 47.7438,336.067 48.9104,340.401 51,344.5C 52.4443,346.155 54.2776,346.822 56.5,346.5C 56.4809,348.06 56.1476,349.56 55.5,351C 56.3169,352.49 57.1502,353.99 58,355.5C 61.2008,359.362 65.0341,362.528 69.5,365C 70.2524,365.671 70.5858,366.504 70.5,367.5C 63.4395,363.278 57.4395,357.778 52.5,351C 53.0219,350.439 53.3552,349.772 53.5,349C 49.2219,345.946 46.8885,341.779 46.5,336.5C 46.5,334.833 46.5,333.167 46.5,331.5 Z"/></g>
<g><path style="opacity:0.996" fill="#43453a" d="M 270.5,324.5 C 281.613,332.612 290.613,342.612 297.5,354.5C 299.833,355.833 302.167,355.833 304.5,354.5C 310.685,346.68 315.018,338.013 317.5,328.5C 316.316,340.032 311.982,350.199 304.5,359C 301.901,359.769 299.401,359.602 297,358.5C 290.18,346.342 281.18,336.008 270,327.5C 269.26,326.251 269.427,325.251 270.5,324.5 Z"/></g>
<g><path style="opacity:0.251" fill="#a4a4a3" d="M 70.5,367.5 C 75.8947,368.367 79.5613,371.367 81.5,376.5C 83.396,377.466 85.396,377.799 87.5,377.5C 87.5,379.167 87.5,380.833 87.5,382.5C 93.1988,381.931 98.5322,382.931 103.5,385.5C 104.064,390.614 105.73,395.281 108.5,399.5C 104.126,396.463 101.792,392.13 101.5,386.5C 96.6562,384.848 91.6562,383.848 86.5,383.5C 86.5674,380.234 84.9008,378.734 81.5,379C 78.9763,373.978 75.3097,370.145 70.5,367.5 Z"/></g>
<g><path style="opacity:0.31" fill="#9a9a9a" d="M 108.5,399.5 C 113.467,403.132 118.133,407.132 122.5,411.5C 116.894,408.558 112.227,404.558 108.5,399.5 Z"/></g>
<g><path style="opacity:0.996" fill="#947843" d="M 281.5,412.5 C 265.661,411.576 249.827,411.91 234,413.5C 228.248,413.689 222.748,413.022 217.5,411.5C 237.839,411.203 258.172,411.037 278.5,411C 279.737,411.232 280.737,411.732 281.5,412.5 Z"/></g>
<g><path style="opacity:0.259" fill="#bcbcbc" d="M 123.5,411.5 C 125.754,412.124 127.421,413.457 128.5,415.5C 126.205,414.864 124.539,413.531 123.5,411.5 Z"/></g>
<g><path style="opacity:0.053" fill="#a2a2a2" d="M 411.5,327.5 C 406.63,338.259 401.463,348.926 396,359.5C 395.667,362.167 395.333,364.833 395,367.5C 392.595,368.274 390.095,368.774 387.5,369C 371.892,385.957 354.226,400.291 334.5,412C 326.655,418.514 318.822,425.014 311,431.5C 308.684,431.066 306.684,430.066 305,428.5C 301.918,431.429 298.251,433.429 294,434.5C 285.474,432.314 276.807,430.98 268,430.5C 252.866,432.119 237.699,432.619 222.5,432C 219.026,431.699 215.692,430.866 212.5,429.5C 203.149,434.674 193.149,438.007 182.5,439.5C 176.545,439.095 170.878,437.595 165.5,435C 152.536,429.52 140.203,423.02 128.5,415.5C 143,421.748 157.334,428.581 171.5,436C 180.588,437.626 189.588,437.126 198.5,434.5C 202.893,431.637 207.56,429.304 212.5,427.5C 218.681,430.336 225.181,431.67 232,431.5C 252.177,428.999 272.344,428.999 292.5,431.5C 294.5,431.333 296.5,431.167 298.5,431C 300.677,429.485 302.844,427.985 305,426.5C 306.481,428.148 308.315,429.148 310.5,429.5C 317.636,423.206 324.969,417.04 332.5,411C 352.718,399.285 370.718,384.785 386.5,367.5C 388.747,366.626 391.08,366.292 393.5,366.5C 393.337,364.143 393.503,361.81 394,359.5C 399.132,348.219 404.965,337.553 411.5,327.5 Z"/></g>
</svg>
