<?xml version="1.0" encoding="UTF-8"?>
<!DOCTYPE svg PUBLIC "-//W3C//DTD SVG 1.1//EN" "http://www.w3.org/Graphics/SVG/1.1/DTD/svg11.dtd">
<svg xmlns="http://www.w3.org/2000/svg" version="1.1" width="467px" height="459px" style="shape-rendering:geometricPrecision; text-rendering:geometricPrecision; image-rendering:optimizeQuality; fill-rule:evenodd; clip-rule:evenodd" xmlns:xlink="http://www.w3.org/1999/xlink">
<g><path style="opacity:0.996" fill="#b59352" d="M 338.5,76.5 C 338.833,76.5 339.167,76.5 339.5,76.5C 340.024,79.1878 341.691,80.6878 344.5,81C 351.569,85.8015 357.735,91.6348 363,98.5C 363.179,101.553 363.679,104.553 364.5,107.5C 369.901,109.879 375.568,110.879 381.5,110.5C 381.5,112.167 381.5,113.833 381.5,115.5C 383.5,115.5 385.5,115.5 387.5,115.5C 387.936,117.746 388.603,119.913 389.5,122C 394.943,125.081 400.276,128.247 405.5,131.5C 407.833,134.5 410.5,137.167 413.5,139.5C 414.167,139.5 414.5,139.833 414.5,140.5C 414.617,142.484 413.95,144.15 412.5,145.5C 414.518,146.509 416.518,147.509 418.5,148.5C 420.977,158.523 423.311,168.523 425.5,178.5C 425.833,182.5 426.167,186.5 426.5,190.5C 426.334,199.839 426.5,209.173 427,218.5C 427.5,220.5 428,222.5 428.5,224.5C 428.747,225.713 429.414,226.38 430.5,226.5C 431.317,229.479 432.151,232.479 433,235.5C 438.034,239.71 439.701,245.044 438,251.5C 437.045,253.949 435.545,255.949 433.5,257.5C 434.577,258.705 435.91,259.372 437.5,259.5C 438.833,260.5 438.833,261.5 437.5,262.5C 436.167,262.5 435.5,263.167 435.5,264.5C 434.275,265.152 433.608,266.319 433.5,268C 433.514,269.385 433.848,270.551 434.5,271.5C 434.035,279.661 432.701,287.661 430.5,295.5C 429.115,296.574 427.949,297.907 427,299.5C 424.959,302.919 423.459,306.586 422.5,310.5C 416.755,320.4 411.255,330.4 406,340.5C 403.737,344.506 402.57,348.84 402.5,353.5C 400.396,353.201 398.396,353.534 396.5,354.5C 394.972,355.861 393.305,357.028 391.5,358C 386.323,364.343 380.656,370.176 374.5,375.5C 364.637,382.529 354.637,389.362 344.5,396C 335.343,402.83 326.509,409.997 318,417.5C 315.825,417.166 313.992,416.166 312.5,414.5C 310.31,416.524 307.977,418.357 305.5,420C 303,420.167 300.5,420.333 298,420.5C 290.294,418.577 282.461,417.577 274.5,417.5C 263.5,418.167 252.5,418.833 241.5,419.5C 233.198,419.485 225.031,418.485 217,416.5C 211.684,418.273 206.518,420.44 201.5,423C 194.333,425.345 187,426.011 179.5,425C 176.135,424.495 173.135,423.328 170.5,421.5C 168.967,419.755 166.967,418.755 164.5,418.5C 143.937,411.129 125.77,399.795 110,384.5C 108.411,380.969 107.245,377.302 106.5,373.5C 105.478,373.145 104.811,372.478 104.5,371.5C 100.726,368.839 96.3931,367.839 91.5,368.5C 91.5,366.833 91.5,365.167 91.5,363.5C 88.5825,363.635 85.9158,362.968 83.5,361.5C 75.9446,355.962 68.6112,349.962 61.5,343.5C 60.5197,342.019 59.353,340.685 58,339.5C 57.3486,337.765 57.5153,336.098 58.5,334.5C 54.7245,333.06 52.3912,330.393 51.5,326.5C 50.866,322.627 49.866,318.961 48.5,315.5C 47.0995,311.318 46.2662,306.985 46,302.5C 45.2631,291.797 44.4298,281.13 43.5,270.5C 44.6608,265.769 44.3275,261.103 42.5,256.5C 41.7148,253.596 40.3815,250.93 38.5,248.5C 38.44,247.957 38.1067,247.624 37.5,247.5C 36.8182,248.243 36.1515,248.909 35.5,249.5C 35.5,247.5 35.5,245.5 35.5,243.5C 31.2755,236.382 31.6089,229.549 36.5,223C 35.8993,221.395 34.8993,220.062 33.5,219C 34.8228,218.184 35.4894,217.017 35.5,215.5C 37.3053,208.232 38.1386,200.565 38,192.5C 41.7101,185.746 44.8767,178.746 47.5,171.5C 48.4745,170.365 49.6412,169.365 51,168.5C 56.1379,157.901 60.9713,147.234 65.5,136.5C 68.9175,134.187 70.2508,130.854 69.5,126.5C 76.439,125.572 81.439,121.905 84.5,115.5C 92.2369,108.753 99.9036,102.086 107.5,95.5C 113.537,92.8181 118.871,89.1514 123.5,84.5C 127.03,82.4888 130.697,80.6554 134.5,79C 135.305,77.8873 135.972,76.7206 136.5,75.5C 142.211,72.2986 147.211,68.1319 151.5,63C 152.833,62.3333 154.167,62.3333 155.5,63C 156.399,64.2362 157.566,65.0696 159,65.5C 160.684,63.9833 162.184,62.3166 163.5,60.5C 174.035,60.6727 184.535,61.3394 195,62.5C 206.501,61.8571 218.001,61.1904 229.5,60.5C 237.635,60.5169 245.635,61.5169 253.5,63.5C 260.529,60.9806 267.529,58.4806 274.5,56C 280.461,54.7607 286.461,54.4274 292.5,55C 307.953,62.0864 323.286,69.2531 338.5,76.5 Z"/></g>
<g><path style="opacity:0.486" fill="#e3d5ba" d="M 338.5,76.5 C 323.286,69.2531 307.953,62.0864 292.5,55C 286.461,54.4274 280.461,54.7607 274.5,56C 267.529,58.4806 260.529,60.9806 253.5,63.5C 245.635,61.5169 237.635,60.5169 229.5,60.5C 218.001,61.1904 206.501,61.8571 195,62.5C 184.535,61.3394 174.035,60.6727 163.5,60.5C 165.807,58.9532 168.473,58.2865 171.5,58.5C 180.291,59.8286 189.124,60.8286 198,61.5C 213.464,59.7751 228.964,59.2751 244.5,60C 247.633,60.3925 250.633,61.2259 253.5,62.5C 263.166,56.7872 273.666,53.4539 285,52.5C 290,52.9582 294.833,54.1249 299.5,56C 313.162,61.8281 326.162,68.6615 338.5,76.5 Z"/></g>
<g><path style="opacity:0.384" fill="#e8dcc3" d="M 163.5,60.5 C 162.184,62.3166 160.684,63.9833 159,65.5C 157.566,65.0696 156.399,64.2362 155.5,63C 154.167,62.3333 152.833,62.3333 151.5,63C 147.211,68.1319 142.211,72.2986 136.5,75.5C 141.557,70.9463 146.557,66.1129 151.5,61C 154.269,60.7898 156.769,61.6231 159,63.5C 160.129,61.8588 161.629,60.8588 163.5,60.5 Z"/></g>
<g><path style="opacity:0.118" fill="#e4d8c1" d="M 136.5,75.5 C 135.972,76.7206 135.305,77.8873 134.5,79C 130.697,80.6554 127.03,82.4888 123.5,84.5C 127.302,80.7629 131.635,77.7629 136.5,75.5 Z"/></g>
<g><path style="opacity:0.125" fill="#e8dcbd" d="M 123.5,84.5 C 118.871,89.1514 113.537,92.8181 107.5,95.5C 112.278,91.0599 117.612,87.3932 123.5,84.5 Z"/></g>
<g><path style="opacity:0.267" fill="#e5d4be" d="M 339.5,76.5 C 348.002,81.1778 355.502,87.1778 362,94.5C 364.399,98.4758 366.233,102.642 367.5,107C 372.295,108.199 376.962,109.366 381.5,110.5C 375.568,110.879 369.901,109.879 364.5,107.5C 363.679,104.553 363.179,101.553 363,98.5C 357.735,91.6348 351.569,85.8015 344.5,81C 341.691,80.6878 340.024,79.1878 339.5,76.5 Z"/></g>
<g><path style="opacity:0.298" fill="#e3d5b9" d="M 107.5,95.5 C 99.9036,102.086 92.2369,108.753 84.5,115.5C 85.8823,112.606 87.8823,110.106 90.5,108C 96.0628,103.591 101.729,99.4244 107.5,95.5 Z"/></g>
<g><path style="opacity:0.996" fill="#336e21" d="M 295.5,127.5 C 289.684,132.478 285.351,138.478 282.5,145.5C 284.099,145.768 285.432,145.434 286.5,144.5C 300.806,144.172 314.472,141.172 327.5,135.5C 334.855,137.599 341.022,141.599 346,147.5C 346.64,149.265 346.473,150.932 345.5,152.5C 338.607,156.555 332.774,161.888 328,168.5C 318.946,180.047 310.113,191.713 301.5,203.5C 301.957,204.298 302.624,204.631 303.5,204.5C 308.141,206.555 312.808,208.722 317.5,211C 321.532,213.628 322.532,217.128 320.5,221.5C 318.307,223.522 317.307,226.189 317.5,229.5C 317.5,230.833 317.5,232.167 317.5,233.5C 325.81,232.004 334.143,230.504 342.5,229C 352.974,227.326 362.307,229.826 370.5,236.5C 371.77,238.757 371.436,240.757 369.5,242.5C 368.167,242.5 366.833,242.5 365.5,242.5C 349.146,242.26 332.812,242.594 316.5,243.5C 316.5,245.5 316.5,247.5 316.5,249.5C 316.803,264.673 317.47,279.673 318.5,294.5C 318.926,301.658 319.26,308.824 319.5,316C 319.671,322.313 319.005,328.48 317.5,334.5C 315.051,340.185 312.218,345.852 309,351.5C 306.321,354.835 303.155,355.335 299.5,353C 291.289,342.074 281.289,333.241 269.5,326.5C 268.315,325.143 267.315,323.643 266.5,322C 266.734,320.268 267.734,319.434 269.5,319.5C 279.061,322.619 288.728,323.119 298.5,321C 299.893,319.829 300.727,318.329 301,316.5C 301.499,311.511 301.666,306.511 301.5,301.5C 302.695,295.034 303.362,288.368 303.5,281.5C 303.114,271.325 302.447,261.325 301.5,251.5C 301.5,249.5 301.5,247.5 301.5,245.5C 284.721,247.105 268.055,249.438 251.5,252.5C 253.355,254.013 255.355,255.346 257.5,256.5C 263.002,260.015 267.836,264.348 272,269.5C 273.337,273.026 273.837,276.692 273.5,280.5C 271.662,283.654 269.662,286.82 267.5,290C 266.101,290.595 264.768,290.428 263.5,289.5C 260.813,285.976 258.313,282.31 256,278.5C 252.551,270.696 249.718,262.696 247.5,254.5C 237.621,256.426 227.954,255.76 218.5,252.5C 217.833,251.167 216.833,250.167 215.5,249.5C 215.5,248.833 215.5,248.167 215.5,247.5C 216.289,247.217 216.956,246.717 217.5,246C 223.5,245.667 229.5,245.333 235.5,245C 234.124,242.46 234.79,240.46 237.5,239C 248.295,232.024 258.628,224.524 268.5,216.5C 269.694,215.728 270.694,214.728 271.5,213.5C 289.249,196.767 303.916,177.767 315.5,156.5C 317.074,154.898 317.741,152.898 317.5,150.5C 315.708,150.366 314.042,150.699 312.5,151.5C 302.861,152.36 293.194,152.693 283.5,152.5C 281.143,152.337 278.81,152.503 276.5,153C 273.077,156.238 270.743,160.071 269.5,164.5C 270.5,164.5 271.5,164.5 272.5,164.5C 279.997,165.81 286.163,169.477 291,175.5C 291.497,178.146 291.664,180.813 291.5,183.5C 288.823,185.432 285.823,185.932 282.5,185C 276.644,179.586 270.644,174.42 264.5,169.5C 258.565,173.765 253.232,178.765 248.5,184.5C 250.045,185.452 251.712,185.785 253.5,185.5C 261.228,188.045 267.061,193.045 271,200.5C 271.497,203.146 271.664,205.813 271.5,208.5C 268.772,210.288 265.772,210.788 262.5,210C 257.39,201.962 251.223,194.795 244,188.5C 237.629,193.04 231.129,197.374 224.5,201.5C 222.439,200.249 222.106,198.582 223.5,196.5C 240.836,180.002 255.336,161.336 267,140.5C 269.296,136.246 271.296,131.912 273,127.5C 273.333,122.167 273.667,116.833 274,111.5C 275.388,110.446 276.888,110.28 278.5,111C 284.881,113.606 290.714,117.106 296,121.5C 296.678,123.598 296.511,125.598 295.5,127.5 Z"/></g>
<g><path style="opacity:0.11" fill="#e9decc" d="M 381.5,110.5 C 382.158,111.398 382.824,112.398 383.5,113.5C 385.505,112.501 386.838,113.168 387.5,115.5C 385.5,115.5 383.5,115.5 381.5,115.5C 381.5,113.833 381.5,112.167 381.5,110.5 Z"/></g>
<g><path style="opacity:0.996" fill="#336f21" d="M 220.5,137.5 C 218.308,141.098 217.308,145.098 217.5,149.5C 217.5,150.833 217.5,152.167 217.5,153.5C 216.105,157.591 215.272,161.924 215,166.5C 213.982,193.491 213.482,220.491 213.5,247.5C 211.893,266.309 211.226,285.309 211.5,304.5C 211.666,313.506 211.5,322.506 211,331.5C 210.768,332.737 210.268,333.737 209.5,334.5C 208.224,336.562 207.39,338.896 207,341.5C 203.351,345.598 200.018,345.265 197,340.5C 195.094,335.569 192.927,330.902 190.5,326.5C 194.176,312.785 196.676,298.785 198,284.5C 198.223,271.468 198.723,258.468 199.5,245.5C 200.451,244.081 200.784,242.415 200.5,240.5C 190.243,242.014 179.91,243.681 169.5,245.5C 169.273,247.933 170.273,249.599 172.5,250.5C 173.403,253.391 173.736,256.391 173.5,259.5C 171.876,262.035 170.543,264.868 169.5,268C 165.429,295.9 150.763,316.066 125.5,328.5C 123.656,327.796 123.156,326.463 124,324.5C 143.919,306.578 154.752,284.245 156.5,257.5C 157.341,255.621 157.675,253.621 157.5,251.5C 154.813,251.336 152.146,251.503 149.5,252C 143.275,254.964 136.775,257.131 130,258.5C 126.871,258.671 124.037,257.838 121.5,256C 118.986,253.585 116.319,251.419 113.5,249.5C 113.179,248.183 112.846,246.849 112.5,245.5C 112.818,244.353 113.484,243.519 114.5,243C 143.376,241.408 171.709,237.242 199.5,230.5C 200.492,222.684 200.826,214.684 200.5,206.5C 200.5,204.833 200.5,203.167 200.5,201.5C 189.841,202.581 179.507,205.081 169.5,209C 166.43,212.249 162.763,214.416 158.5,215.5C 157.5,215.333 156.5,215.167 155.5,215C 152.696,211.855 150.03,208.688 147.5,205.5C 146.623,201.09 148.123,197.757 152,195.5C 153.275,193.283 154.275,190.949 155,188.5C 155.499,182.509 155.666,176.509 155.5,170.5C 155.453,163.74 152.787,158.407 147.5,154.5C 145.478,152.581 145.144,150.414 146.5,148C 156.422,147.976 164.922,151.476 172,158.5C 172.495,160.473 172.662,162.473 172.5,164.5C 171.883,164.611 171.383,164.944 171,165.5C 170.505,167.473 170.338,169.473 170.5,171.5C 169.815,179.816 169.482,188.149 169.5,196.5C 175.153,195.725 180.82,195.058 186.5,194.5C 191.233,194.777 195.9,194.443 200.5,193.5C 201.666,176.176 201.833,158.843 201,141.5C 200.722,140.584 200.222,139.918 199.5,139.5C 198.662,139.158 198.328,138.492 198.5,137.5C 198.439,132.724 196.772,128.724 193.5,125.5C 192.631,123.283 192.298,120.95 192.5,118.5C 195.85,118.335 199.183,118.502 202.5,119C 209.232,121.45 215.065,125.284 220,130.5C 220.497,132.81 220.663,135.143 220.5,137.5 Z"/></g>
<g><path style="opacity:0.82" fill="#decdae" d="M 387.5,115.5 C 389.268,117.508 390.934,119.674 392.5,122C 397.577,124.257 401.91,127.424 405.5,131.5C 400.276,128.247 394.943,125.081 389.5,122C 388.603,119.913 387.936,117.746 387.5,115.5 Z"/></g>
<g><path style="opacity:0.075" fill="#ddccab" d="M 84.5,115.5 C 81.439,121.905 76.439,125.572 69.5,126.5C 70.2508,130.854 68.9175,134.187 65.5,136.5C 67.1432,132.7 67.8099,128.7 67.5,124.5C 70.6492,124.789 73.6492,124.289 76.5,123C 78.8533,120.083 81.52,117.583 84.5,115.5 Z"/></g>
<g><path style="opacity:0.996" fill="#414539" d="M 193.5,125.5 C 196.772,128.724 198.439,132.724 198.5,137.5C 197.288,135.093 195.788,132.76 194,130.5C 193.506,128.866 193.34,127.199 193.5,125.5 Z"/></g>
<g><path style="opacity:0.004" fill="#f2ede1" d="M 405.5,131.5 C 409.167,133.167 411.833,135.833 413.5,139.5C 410.5,137.167 407.833,134.5 405.5,131.5 Z"/></g>
<g><path style="opacity:0.996" fill="#3d4537" d="M 295.5,127.5 C 295.702,129.989 295.202,132.323 294,134.5C 291.283,137.71 288.783,141.044 286.5,144.5C 285.432,145.434 284.099,145.768 282.5,145.5C 285.351,138.478 289.684,132.478 295.5,127.5 Z"/></g>
<g><path style="opacity:0.996" fill="#4e503a" d="M 220.5,137.5 C 220.281,141.8 219.281,145.8 217.5,149.5C 217.308,145.098 218.308,141.098 220.5,137.5 Z"/></g>
<g><path style="opacity:0.098" fill="#eee6d4" d="M 414.5,140.5 C 415.801,141.884 415.801,143.384 414.5,145C 416.544,145.498 417.878,146.665 418.5,148.5C 416.518,147.509 414.518,146.509 412.5,145.5C 413.95,144.15 414.617,142.484 414.5,140.5 Z"/></g>
<g><path style="opacity:0.996" fill="#3e3f3a" d="M 315.5,156.5 C 303.231,158.683 290.898,159.016 278.5,157.5C 275.787,159.214 273.787,161.547 272.5,164.5C 271.5,164.5 270.5,164.5 269.5,164.5C 270.743,160.071 273.077,156.238 276.5,153C 278.81,152.503 281.143,152.337 283.5,152.5C 291.99,153.657 300.657,153.824 309.5,153C 310.737,152.768 311.737,152.268 312.5,151.5C 314.042,150.699 315.708,150.366 317.5,150.5C 317.741,152.898 317.074,154.898 315.5,156.5 Z"/></g>
<g><path style="opacity:0.996" fill="#334a30" d="M 312.5,151.5 C 311.737,152.268 310.737,152.768 309.5,153C 300.657,153.824 291.99,153.657 283.5,152.5C 293.194,152.693 302.861,152.36 312.5,151.5 Z"/></g>
<g><path style="opacity:0.996" fill="#42453a" d="M 147.5,154.5 C 152.787,158.407 155.453,163.74 155.5,170.5C 153.368,165.847 150.202,161.847 146,158.5C 145.156,156.537 145.656,155.204 147.5,154.5 Z"/></g>
<g><path style="opacity:0.996" fill="#4d702e" d="M 199.5,139.5 C 200.222,139.918 200.722,140.584 201,141.5C 201.833,158.843 201.666,176.176 200.5,193.5C 195.9,194.443 191.233,194.777 186.5,194.5C 187.263,193.732 188.263,193.232 189.5,193C 193.152,192.501 196.818,192.335 200.5,192.5C 200.714,174.817 200.381,157.15 199.5,139.5 Z"/></g>
<g><path style="opacity:0.624" fill="#e0cfb3" d="M 65.5,136.5 C 60.9713,147.234 56.1379,157.901 51,168.5C 49.6412,169.365 48.4745,170.365 47.5,171.5C 52.7477,159.335 58.7477,147.669 65.5,136.5 Z"/></g>
<g><path style="opacity:0.996" fill="#51563a" d="M 172.5,164.5 C 172.662,166.527 172.495,168.527 172,170.5C 171.617,171.056 171.117,171.389 170.5,171.5C 170.338,169.473 170.505,167.473 171,165.5C 171.383,164.944 171.883,164.611 172.5,164.5 Z"/></g>
<g><path style="opacity:0.99" fill="#cdb486" d="M 418.5,148.5 C 421.985,152.399 423.652,157.066 423.5,162.5C 424.167,167.833 424.833,173.167 425.5,178.5C 423.311,168.523 420.977,158.523 418.5,148.5 Z"/></g>
<g><path style="opacity:0.996" fill="#40433a" d="M 291.5,183.5 C 292.327,190.503 289.327,193.003 282.5,191C 277.017,185.113 271.017,179.946 264.5,175.5C 260.217,178.115 256.55,181.448 253.5,185.5C 251.712,185.785 250.045,185.452 248.5,184.5C 253.232,178.765 258.565,173.765 264.5,169.5C 270.644,174.42 276.644,179.586 282.5,185C 285.823,185.932 288.823,185.432 291.5,183.5 Z"/></g>
<g><path style="opacity:0.063" fill="#e7dbc3" d="M 423.5,162.5 C 425.758,169.539 427.258,176.873 428,184.5C 428.403,196.92 429.237,209.254 430.5,221.5C 428.883,220.411 428.05,218.744 428,216.5C 427.83,207.657 427.33,198.99 426.5,190.5C 426.167,186.5 425.833,182.5 425.5,178.5C 424.833,173.167 424.167,167.833 423.5,162.5 Z"/></g>
<g><path style="opacity:0.996" fill="#b09151" d="M 315.5,156.5 C 303.916,177.767 289.249,196.767 271.5,213.5C 271.5,211.833 271.5,210.167 271.5,208.5C 271.664,205.813 271.497,203.146 271,200.5C 267.061,193.045 261.228,188.045 253.5,185.5C 256.55,181.448 260.217,178.115 264.5,175.5C 271.017,179.946 277.017,185.113 282.5,191C 289.327,193.003 292.327,190.503 291.5,183.5C 291.664,180.813 291.497,178.146 291,175.5C 286.163,169.477 279.997,165.81 272.5,164.5C 273.787,161.547 275.787,159.214 278.5,157.5C 290.898,159.016 303.231,158.683 315.5,156.5 Z"/></g>
<g><path style="opacity:0.996" fill="#3f4339" d="M 345.5,152.5 C 346.666,154.166 346.666,155.833 345.5,157.5C 340.245,161.249 335.412,165.582 331,170.5C 322.348,182.311 313.182,193.645 303.5,204.5C 302.624,204.631 301.957,204.298 301.5,203.5C 310.113,191.713 318.946,180.047 328,168.5C 332.774,161.888 338.607,156.555 345.5,152.5 Z"/></g>
<g><path style="opacity:0.996" fill="#3f4239" d="M 271.5,208.5 C 271.5,210.167 271.5,211.833 271.5,213.5C 270.694,214.728 269.694,215.728 268.5,216.5C 266.801,216.66 265.134,216.494 263.5,216C 257.561,208.259 251.061,201.093 244,194.5C 238.604,198.451 233.104,202.284 227.5,206C 225.866,206.494 224.199,206.66 222.5,206.5C 222.392,204.486 223.058,202.82 224.5,201.5C 231.129,197.374 237.629,193.04 244,188.5C 251.223,194.795 257.39,201.962 262.5,210C 265.772,210.788 268.772,210.288 271.5,208.5 Z"/></g>
<g><path style="opacity:0.996" fill="#9e894b" d="M 217.5,153.5 C 216.941,178.078 215.941,202.578 214.5,227C 214.5,234.008 214.834,240.842 215.5,247.5C 215.5,248.167 215.5,248.833 215.5,249.5C 214.833,249.5 214.167,249.5 213.5,249.5C 213.5,248.833 213.5,248.167 213.5,247.5C 213.482,220.491 213.982,193.491 215,166.5C 215.272,161.924 216.105,157.591 217.5,153.5 Z"/></g>
<g><path style="opacity:0.996" fill="#3e4139" d="M 200.5,206.5 C 191.473,207.833 182.806,210.166 174.5,213.5C 172.076,214.03 169.743,214.864 167.5,216C 160.714,223.677 154.547,223.177 149,214.5C 147.851,211.607 147.351,208.607 147.5,205.5C 150.03,208.688 152.696,211.855 155.5,215C 156.5,215.167 157.5,215.333 158.5,215.5C 162.763,214.416 166.43,212.249 169.5,209C 179.507,205.081 189.841,202.581 200.5,201.5C 200.5,203.167 200.5,204.833 200.5,206.5 Z"/></g>
<g><path style="opacity:0.416" fill="#e8dbc4" d="M 47.5,171.5 C 44.8767,178.746 41.7101,185.746 38,192.5C 38.1386,200.565 37.3053,208.232 35.5,215.5C 35.1367,207.429 35.6367,199.429 37,191.5C 40.2594,184.646 43.7594,177.979 47.5,171.5 Z"/></g>
<g><path style="opacity:0.996" fill="#3c4038" d="M 299.5,216.5 C 299.768,218.099 299.434,219.432 298.5,220.5C 297.758,218.574 296.758,216.741 295.5,215C 294.5,214.333 293.5,214.333 292.5,215C 282.456,224.894 271.456,233.394 259.5,240.5C 257.326,240.75 255.659,241.75 254.5,243.5C 250.822,244.586 247.155,244.586 243.5,243.5C 255.032,236.905 266.365,230.072 277.5,223C 283.02,218.143 288.52,213.31 294,208.5C 296.08,210.992 297.913,213.658 299.5,216.5 Z"/></g>
<g><path style="opacity:0.996" fill="#96804a" d="M 200.5,206.5 C 200.826,214.684 200.492,222.684 199.5,230.5C 199.5,223.167 199.5,215.833 199.5,208.5C 193.441,208.463 187.775,209.963 182.5,213C 179.854,213.497 177.187,213.664 174.5,213.5C 182.806,210.166 191.473,207.833 200.5,206.5 Z"/></g>
<g><path style="opacity:0.996" fill="#b09051" d="M 298.5,220.5 C 300.238,225.654 301.238,230.988 301.5,236.5C 293.795,237.588 286.129,238.922 278.5,240.5C 271.989,241.136 265.655,241.136 259.5,240.5C 271.456,233.394 282.456,224.894 292.5,215C 293.5,214.333 294.5,214.333 295.5,215C 296.758,216.741 297.758,218.574 298.5,220.5 Z"/></g>
<g><path style="opacity:0.663" fill="#ccb484" d="M 426.5,190.5 C 427.33,198.99 427.83,207.657 428,216.5C 428.05,218.744 428.883,220.411 430.5,221.5C 430.5,222.833 430.5,224.167 430.5,225.5C 430.5,225.833 430.5,226.167 430.5,226.5C 429.414,226.38 428.747,225.713 428.5,224.5C 428,222.5 427.5,220.5 427,218.5C 426.5,209.173 426.334,199.839 426.5,190.5 Z"/></g>
<g><path style="opacity:0.996" fill="#476130" d="M 299.5,216.5 C 302.272,222.993 302.938,229.66 301.5,236.5C 301.238,230.988 300.238,225.654 298.5,220.5C 299.434,219.432 299.768,218.099 299.5,216.5 Z"/></g>
<g><path style="opacity:0.996" fill="#485137" d="M 320.5,221.5 C 320.982,224.831 319.982,227.497 317.5,229.5C 317.307,226.189 318.307,223.522 320.5,221.5 Z"/></g>
<g><path style="opacity:0.035" fill="#e5d9c2" d="M 35.5,215.5 C 35.4894,217.017 34.8228,218.184 33.5,219C 34.8993,220.062 35.8993,221.395 36.5,223C 31.6089,229.549 31.2755,236.382 35.5,243.5C 32.2245,240.685 30.8912,237.019 31.5,232.5C 30.7468,228.319 32.0801,225.153 35.5,223C 31.543,220.36 31.543,217.86 35.5,215.5 Z"/></g>
<g><path style="opacity:0.098" fill="#e4d5b9" d="M 430.5,225.5 C 434.239,231.106 437.405,237.106 440,243.5C 441.257,248.788 440.091,253.454 436.5,257.5C 436.863,258.183 437.196,258.85 437.5,259.5C 435.91,259.372 434.577,258.705 433.5,257.5C 435.545,255.949 437.045,253.949 438,251.5C 439.701,245.044 438.034,239.71 433,235.5C 432.151,232.479 431.317,229.479 430.5,226.5C 430.5,226.167 430.5,225.833 430.5,225.5 Z"/></g>
<g><path style="opacity:0.996" fill="#3c4039" d="M 199.5,245.5 C 190.642,247.478 181.642,249.144 172.5,250.5C 170.273,249.599 169.273,247.933 169.5,245.5C 179.91,243.681 190.243,242.014 200.5,240.5C 200.784,242.415 200.451,244.081 199.5,245.5 Z"/></g>
<g><path style="opacity:0.996" fill="#7f8041" d="M 259.5,240.5 C 265.655,241.136 271.989,241.136 278.5,240.5C 270.713,242.091 262.713,243.091 254.5,243.5C 255.659,241.75 257.326,240.75 259.5,240.5 Z"/></g>
<g><path style="opacity:0.996" fill="#324830" d="M 365.5,242.5 C 349.655,243.261 333.655,243.928 317.5,244.5C 317.5,246.167 317.5,247.833 317.5,249.5C 317.167,249.5 316.833,249.5 316.5,249.5C 316.5,247.5 316.5,245.5 316.5,243.5C 332.812,242.594 349.146,242.26 365.5,242.5 Z"/></g>
<g><path style="opacity:0.996" fill="#3e3e3b" d="M 365.5,242.5 C 366.833,242.5 368.167,242.5 369.5,242.5C 372.167,244.167 372.167,245.833 369.5,247.5C 352.191,248.211 334.857,248.878 317.5,249.5C 317.5,247.833 317.5,246.167 317.5,244.5C 333.655,243.928 349.655,243.261 365.5,242.5 Z"/></g>
<g><path style="opacity:0.996" fill="#3e4139" d="M 301.5,251.5 C 301.5,251.833 301.5,252.167 301.5,252.5C 286.79,253.32 272.124,254.653 257.5,256.5C 255.355,255.346 253.355,254.013 251.5,252.5C 268.055,249.438 284.721,247.105 301.5,245.5C 301.5,247.5 301.5,249.5 301.5,251.5 Z"/></g>
<g><path style="opacity:0.995" fill="#0b0a07" d="M 38.5,248.5 C 40.3815,250.93 41.7148,253.596 42.5,256.5C 42.665,259.85 42.4983,263.183 42,266.5C 41.6174,265.944 41.1174,265.611 40.5,265.5C 40.0679,264.29 39.4013,263.29 38.5,262.5C 37.9421,259.656 37.2755,256.822 36.5,254C 36.7006,251.889 37.3673,250.055 38.5,248.5 Z"/></g>
<g><path style="opacity:0.996" fill="#42433a" d="M 113.5,249.5 C 116.319,251.419 118.986,253.585 121.5,256C 124.037,257.838 126.871,258.671 130,258.5C 136.775,257.131 143.275,254.964 149.5,252C 152.146,251.503 154.813,251.336 157.5,251.5C 157.675,253.621 157.341,255.621 156.5,257.5C 149.145,258.602 142.145,260.768 135.5,264C 132.167,264.667 128.833,264.667 125.5,264C 120.771,261.279 116.604,257.779 113,253.5C 112.421,252.072 112.588,250.738 113.5,249.5 Z"/></g>
<g><path style="opacity:0.996" fill="#97834a" d="M 369.5,247.5 C 369.389,248.117 369.056,248.617 368.5,249C 351.777,249.069 335.11,249.902 318.5,251.5C 318.5,265.833 318.5,280.167 318.5,294.5C 317.47,279.673 316.803,264.673 316.5,249.5C 316.833,249.5 317.167,249.5 317.5,249.5C 334.857,248.878 352.191,248.211 369.5,247.5 Z"/></g>
<g><path style="opacity:0.616" fill="#818180" d="M 38.5,248.5 C 37.3673,250.055 36.7006,251.889 36.5,254C 37.2755,256.822 37.9421,259.656 38.5,262.5C 38.1667,262.5 37.8333,262.5 37.5,262.5C 37.2041,260.597 36.5375,258.93 35.5,257.5C 34.2329,254.728 34.2329,252.061 35.5,249.5C 36.1515,248.909 36.8182,248.243 37.5,247.5C 38.1067,247.624 38.44,247.957 38.5,248.5 Z"/></g>
<g><path style="opacity:0.012" fill="#dbdbdb" d="M 35.5,257.5 C 36.5375,258.93 37.2041,260.597 37.5,262.5C 35.7868,261.365 35.1201,259.698 35.5,257.5 Z"/></g>
<g><path style="opacity:0.996" fill="#4b3f29" d="M 42.5,256.5 C 44.3275,261.103 44.6608,265.769 43.5,270.5C 41.7497,269.341 40.7497,267.674 40.5,265.5C 41.1174,265.611 41.6174,265.944 42,266.5C 42.4983,263.183 42.665,259.85 42.5,256.5 Z"/></g>
<g><path style="opacity:0.992" fill="#5d5036" d="M 435.5,264.5 C 435.802,267.059 435.468,269.393 434.5,271.5C 433.848,270.551 433.514,269.385 433.5,268C 433.608,266.319 434.275,265.152 435.5,264.5 Z"/></g>
<g><path style="opacity:0.996" fill="#6f773c" d="M 213.5,247.5 C 213.5,248.167 213.5,248.833 213.5,249.5C 213.211,268.005 212.544,286.339 211.5,304.5C 211.226,285.309 211.893,266.309 213.5,247.5 Z"/></g>
<g><path style="opacity:0.996" fill="#918547" d="M 301.5,251.5 C 302.447,261.325 303.114,271.325 303.5,281.5C 303.362,288.368 302.695,295.034 301.5,301.5C 301.5,285.167 301.5,268.833 301.5,252.5C 301.5,252.167 301.5,251.833 301.5,251.5 Z"/></g>
<g><path style="opacity:0.357" fill="#d8d1c1" d="M 437.5,262.5 C 436.471,269.786 435.638,277.12 435,284.5C 434.747,287.79 433.747,290.79 432,293.5C 431.74,299.551 431.073,305.551 430,311.5C 429.722,312.416 429.222,313.082 428.5,313.5C 429.092,310.873 429.425,308.206 429.5,305.5C 430.414,302.272 430.747,298.939 430.5,295.5C 432.701,287.661 434.035,279.661 434.5,271.5C 435.468,269.393 435.802,267.059 435.5,264.5C 435.5,263.167 436.167,262.5 437.5,262.5 Z"/></g>
<g><path style="opacity:0.996" fill="#43453a" d="M 218.5,252.5 C 227.954,255.76 237.621,256.426 247.5,254.5C 249.718,262.696 252.551,270.696 256,278.5C 258.313,282.31 260.813,285.976 263.5,289.5C 264.768,290.428 266.101,290.595 267.5,290C 269.662,286.82 271.662,283.654 273.5,280.5C 273.545,286.204 271.545,291.037 267.5,295C 265.866,295.494 264.199,295.66 262.5,295.5C 256.691,283.919 251.358,272.085 246.5,260C 241.853,259.915 237.186,260.081 232.5,260.5C 225.901,261.272 220.234,259.439 215.5,255C 216.078,253.583 217.078,252.75 218.5,252.5 Z"/></g>
<g><path style="opacity:0.997" fill="#090806" d="M 430.5,295.5 C 430.747,298.939 430.414,302.272 429.5,305.5C 428.331,308.341 427.331,311.341 426.5,314.5C 424.345,319.207 421.845,323.874 419,328.5C 418.51,329.793 418.343,331.127 418.5,332.5C 413.972,337.762 410.972,343.762 409.5,350.5C 405.893,354.998 402.726,359.998 400,365.5C 399.503,367.81 399.337,370.143 399.5,372.5C 397.473,372.338 395.473,372.505 393.5,373C 392.944,373.383 392.611,373.883 392.5,374.5C 386.062,380.436 379.729,386.603 373.5,393C 361.07,402.724 348.07,411.724 334.5,420C 328.865,424.633 323.532,429.633 318.5,435C 315.911,434.821 313.411,433.987 311,432.5C 308.815,434.673 306.315,436.507 303.5,438C 299.797,438.579 296.131,438.412 292.5,437.5C 285.552,436.074 278.386,435.408 271,435.5C 255.836,436.973 240.669,437.307 225.5,436.5C 223.565,435.85 221.565,435.517 219.5,435.5C 218.399,434.402 217.066,434.235 215.5,435C 211.554,436.306 207.888,438.139 204.5,440.5C 193.487,444.436 182.487,444.436 171.5,440.5C 171.631,439.624 171.298,438.957 170.5,438.5C 166.72,436.813 163.053,434.98 159.5,433C 155.332,430.911 150.998,429.411 146.5,428.5C 145.393,426.031 143.393,425.031 140.5,425.5C 139.965,423.554 138.632,422.554 136.5,422.5C 135.508,422.672 134.842,422.338 134.5,421.5C 131.725,418.395 128.392,416.062 124.5,414.5C 123.415,412.413 121.749,411.08 119.5,410.5C 117.223,406.72 114.389,403.387 111,400.5C 111.053,397.325 110.22,394.658 108.5,392.5C 107.64,390.386 105.973,389.22 103.5,389C 100.183,388.502 96.8499,388.335 93.5,388.5C 93.5,386.5 93.5,384.5 93.5,382.5C 91.4012,383.231 89.4012,383.231 87.5,382.5C 83.2451,376.747 77.9117,372.247 71.5,369C 67.9626,365.631 64.6293,362.131 61.5,358.5C 61.3573,356.738 61.6906,355.071 62.5,353.5C 61.675,352.614 60.675,352.281 59.5,352.5C 57.4503,350.763 55.617,348.763 54,346.5C 52.7618,341.138 51.5951,335.805 50.5,330.5C 50.2322,328.901 50.5655,327.568 51.5,326.5C 52.3912,330.393 54.7245,333.06 58.5,334.5C 57.5153,336.098 57.3486,337.765 58,339.5C 59.353,340.685 60.5197,342.019 61.5,343.5C 68.6112,349.962 75.9446,355.962 83.5,361.5C 84.5328,365.516 86.8661,366.516 90.5,364.5C 90.5,366.167 90.5,367.833 90.5,369.5C 95.3923,369.226 100.059,369.893 104.5,371.5C 104.811,372.478 105.478,373.145 106.5,373.5C 107.245,377.302 108.411,380.969 110,384.5C 125.77,399.795 143.937,411.129 164.5,418.5C 166.033,420.245 168.033,421.245 170.5,421.5C 173.135,423.328 176.135,424.495 179.5,425C 187,426.011 194.333,425.345 201.5,423C 206.518,420.44 211.684,418.273 217,416.5C 225.031,418.485 233.198,419.485 241.5,419.5C 252.5,418.833 263.5,418.167 274.5,417.5C 282.461,417.577 290.294,418.577 298,420.5C 300.5,420.333 303,420.167 305.5,420C 307.977,418.357 310.31,416.524 312.5,414.5C 313.992,416.166 315.825,417.166 318,417.5C 326.509,409.997 335.343,402.83 344.5,396C 354.637,389.362 364.637,382.529 374.5,375.5C 380.656,370.176 386.323,364.343 391.5,358C 393.305,357.028 394.972,355.861 396.5,354.5C 398.396,353.534 400.396,353.201 402.5,353.5C 402.57,348.84 403.737,344.506 406,340.5C 411.255,330.4 416.755,320.4 422.5,310.5C 423.459,306.586 424.959,302.919 427,299.5C 427.949,297.907 429.115,296.574 430.5,295.5 Z"/></g>
<g><path style="opacity:0.165" fill="#e4dbc9" d="M 37.5,262.5 C 37.8333,262.5 38.1667,262.5 38.5,262.5C 39.4013,263.29 40.0679,264.29 40.5,265.5C 40.7497,267.674 41.7497,269.341 43.5,270.5C 44.4298,281.13 45.2631,291.797 46,302.5C 46.2662,306.985 47.0995,311.318 48.5,315.5C 48.6133,320.518 48.9466,325.518 49.5,330.5C 44.825,311.259 42.325,291.592 42,271.5C 39.9617,268.757 38.4617,265.757 37.5,262.5 Z"/></g>
<g><path style="opacity:0.996" fill="#414539" d="M 173.5,259.5 C 170.499,270.763 167.665,282.097 165,293.5C 156.826,311.676 143.826,325.342 126,334.5C 122.897,332.888 122.73,330.888 125.5,328.5C 150.763,316.066 165.429,295.9 169.5,268C 170.543,264.868 171.876,262.035 173.5,259.5 Z"/></g>
<g><path style="opacity:0.651" fill="#4d4c4c" d="M 429.5,305.5 C 429.425,308.206 429.092,310.873 428.5,313.5C 427.833,313.833 427.167,314.167 426.5,314.5C 427.331,311.341 428.331,308.341 429.5,305.5 Z"/></g>
<g><path style="opacity:0.498" fill="#8f846f" d="M 48.5,315.5 C 49.866,318.961 50.866,322.627 51.5,326.5C 50.5655,327.568 50.2322,328.901 50.5,330.5C 50.1667,330.5 49.8333,330.5 49.5,330.5C 48.9466,325.518 48.6133,320.518 48.5,315.5 Z"/></g>
<g><path style="opacity:0.043" fill="#aeaeae" d="M 428.5,313.5 C 425.541,320.057 422.207,326.39 418.5,332.5C 418.343,331.127 418.51,329.793 419,328.5C 421.845,323.874 424.345,319.207 426.5,314.5C 427.167,314.167 427.833,313.833 428.5,313.5 Z"/></g>
<g><path style="opacity:0.996" fill="#42443a" d="M 190.5,326.5 C 192.927,330.902 195.094,335.569 197,340.5C 200.018,345.265 203.351,345.598 207,341.5C 207.39,338.896 208.224,336.562 209.5,334.5C 209.732,339.046 208.899,343.379 207,347.5C 202.997,350.501 199.664,349.835 197,345.5C 193.108,339.725 190.941,333.392 190.5,326.5 Z"/></g>
<g><path style="opacity:0.035" fill="#b6b6b6" d="M 418.5,332.5 C 416.013,338.807 413.013,344.807 409.5,350.5C 410.972,343.762 413.972,337.762 418.5,332.5 Z"/></g>
<g><path style="opacity:0.996" fill="#41433a" d="M 269.5,326.5 C 281.289,333.241 291.289,342.074 299.5,353C 303.155,355.335 306.321,354.835 309,351.5C 312.218,345.852 315.051,340.185 317.5,334.5C 316.829,344.641 312.829,353.141 305.5,360C 303.421,360.808 301.421,360.641 299.5,359.5C 291.793,347.816 281.793,338.65 269.5,332C 267.393,330.736 266.393,328.903 266.5,326.5C 267.5,326.5 268.5,326.5 269.5,326.5 Z"/></g>
<g><path style="opacity:0.741" fill="#6a6a6a" d="M 59.5,352.5 C 60.675,352.281 61.675,352.614 62.5,353.5C 61.6906,355.071 61.3573,356.738 61.5,358.5C 60.7148,356.626 60.0482,354.626 59.5,352.5 Z"/></g>
<g><path style="opacity:0.208" fill="#aeaeae" d="M 409.5,350.5 C 406.632,357.069 403.632,363.569 400.5,370C 401.148,371.44 401.481,372.94 401.5,374.5C 399.167,374.5 396.833,374.5 394.5,374.5C 396.167,373.833 397.833,373.167 399.5,372.5C 399.337,370.143 399.503,367.81 400,365.5C 402.726,359.998 405.893,354.998 409.5,350.5 Z"/></g>
<g><path style="opacity:0.996" fill="#8c713f" d="M 83.5,361.5 C 85.9158,362.968 88.5825,363.635 91.5,363.5C 91.5,365.167 91.5,366.833 91.5,368.5C 96.3931,367.839 100.726,368.839 104.5,371.5C 100.059,369.893 95.3923,369.226 90.5,369.5C 90.5,367.833 90.5,366.167 90.5,364.5C 86.8661,366.516 84.5328,365.516 83.5,361.5 Z"/></g>
<g><path style="opacity:0.235" fill="#acacac" d="M 49.5,330.5 C 49.8333,330.5 50.1667,330.5 50.5,330.5C 51.5951,335.805 52.7618,341.138 54,346.5C 55.617,348.763 57.4503,350.763 59.5,352.5C 60.0482,354.626 60.7148,356.626 61.5,358.5C 64.6293,362.131 67.9626,365.631 71.5,369C 77.9117,372.247 83.2451,376.747 87.5,382.5C 89.4012,383.231 91.4012,383.231 93.5,382.5C 93.5,384.5 93.5,386.5 93.5,388.5C 96.8499,388.335 100.183,388.502 103.5,389C 105.973,389.22 107.64,390.386 108.5,392.5C 103.675,390.921 98.6752,390.088 93.5,390C 91.9632,388.89 91.2965,387.39 91.5,385.5C 89.712,385.785 88.0453,385.452 86.5,384.5C 85.1667,382.5 83.8333,380.5 82.5,378.5C 74.8396,373.424 67.6729,367.758 61,361.5C 60.1502,359.99 59.3169,358.49 58.5,357C 58.6448,356.228 58.9781,355.561 59.5,355C 56.6155,353.116 54.4488,350.616 53,347.5C 51.6385,341.859 50.4719,336.192 49.5,330.5 Z"/></g>
<g><path style="opacity:0.584" fill="#505050" d="M 399.5,372.5 C 397.833,373.167 396.167,373.833 394.5,374.5C 393.833,374.5 393.167,374.5 392.5,374.5C 392.611,373.883 392.944,373.383 393.5,373C 395.473,372.505 397.473,372.338 399.5,372.5 Z"/></g>
<g><path style="opacity:0.243" fill="#a7a7a7" d="M 392.5,374.5 C 393.167,374.5 393.833,374.5 394.5,374.5C 387.06,382.105 379.393,389.605 371.5,397C 359.776,405.723 347.776,414.056 335.5,422C 329.511,426.657 323.844,431.657 318.5,437C 315.503,437.755 313.003,436.922 311,434.5C 309.661,437.094 307.494,438.594 304.5,439C 297.924,439.841 291.591,439.341 285.5,437.5C 287.833,437.5 290.167,437.5 292.5,437.5C 296.131,438.412 299.797,438.579 303.5,438C 306.315,436.507 308.815,434.673 311,432.5C 313.411,433.987 315.911,434.821 318.5,435C 323.532,429.633 328.865,424.633 334.5,420C 348.07,411.724 361.07,402.724 373.5,393C 379.729,386.603 386.062,380.436 392.5,374.5 Z"/></g>
<g><path style="opacity:0.128" fill="#959595" d="M 108.5,392.5 C 110.22,394.658 111.053,397.325 111,400.5C 114.389,403.387 117.223,406.72 119.5,410.5C 112.262,406.691 108.595,400.691 108.5,392.5 Z"/></g>
<g><path style="opacity:0.373" fill="#8f8f8f" d="M 119.5,410.5 C 121.749,411.08 123.415,412.413 124.5,414.5C 122.251,413.92 120.585,412.587 119.5,410.5 Z"/></g>
<g><path style="opacity:0.106" fill="#8a8a8a" d="M 124.5,414.5 C 128.392,416.062 131.725,418.395 134.5,421.5C 130.458,420.149 127.125,417.815 124.5,414.5 Z"/></g>
<g><path style="opacity:0.996" fill="#65512d" d="M 164.5,418.5 C 166.967,418.755 168.967,419.755 170.5,421.5C 168.033,421.245 166.033,420.245 164.5,418.5 Z"/></g>
<g><path style="opacity:0.067" fill="#c1c1c1" d="M 136.5,422.5 C 138.632,422.554 139.965,423.554 140.5,425.5C 138.77,424.974 137.436,423.974 136.5,422.5 Z"/></g>
<g><path style="opacity:0.529" fill="#939393" d="M 140.5,425.5 C 143.393,425.031 145.393,426.031 146.5,428.5C 144.181,428.008 142.181,427.008 140.5,425.5 Z"/></g>
<g><path style="opacity:0.6" fill="#888888" d="M 146.5,428.5 C 150.998,429.411 155.332,430.911 159.5,433C 163.053,434.98 166.72,436.813 170.5,438.5C 171.298,438.957 171.631,439.624 171.5,440.5C 162.916,436.87 154.583,432.87 146.5,428.5 Z"/></g>
<g><path style="opacity:0.349" fill="#b7b7b7" d="M 219.5,435.5 C 221.565,435.517 223.565,435.85 225.5,436.5C 225.5,436.833 225.5,437.167 225.5,437.5C 223.102,437.741 221.102,437.074 219.5,435.5 Z"/></g>
<g><path style="opacity:0.349" fill="#9e9e9e" d="M 292.5,437.5 C 290.167,437.5 287.833,437.5 285.5,437.5C 270.293,437.251 255.126,437.918 240,439.5C 234.969,439.223 230.136,438.556 225.5,437.5C 225.5,437.167 225.5,436.833 225.5,436.5C 240.669,437.307 255.836,436.973 271,435.5C 278.386,435.408 285.552,436.074 292.5,437.5 Z"/></g>
<g><path style="opacity:0.188" fill="#ababab" d="M 219.5,435.5 C 214.735,437.382 210.068,439.548 205.5,442C 196.657,445.065 187.657,445.731 178.5,444C 175.813,443.272 173.48,442.105 171.5,440.5C 182.487,444.436 193.487,444.436 204.5,440.5C 207.888,438.139 211.554,436.306 215.5,435C 217.066,434.235 218.399,434.402 219.5,435.5 Z"/></g>
</svg>
