<?xml version="1.0" encoding="UTF-8"?>
<!DOCTYPE svg PUBLIC "-//W3C//DTD SVG 1.1//EN" "http://www.w3.org/Graphics/SVG/1.1/DTD/svg11.dtd">
<svg xmlns="http://www.w3.org/2000/svg" version="1.1" width="458px" height="460px" style="shape-rendering:geometricPrecision; text-rendering:geometricPrecision; image-rendering:optimizeQuality; fill-rule:evenodd; clip-rule:evenodd" xmlns:xlink="http://www.w3.org/1999/xlink">
<g><path style="opacity:0.933" fill="#d4c09a" d="M 289.5,48.5 C 279.725,48.5184 270.059,49.5184 260.5,51.5C 266.301,48.3002 272.635,46.6336 279.5,46.5C 283.024,46.9006 286.358,47.5672 289.5,48.5 Z"/></g>
<g><path style="opacity:0.996" fill="#b59352" d="M 289.5,48.5 C 292.999,51.2461 296.999,52.9127 301.5,53.5C 301.369,54.3764 301.702,55.0431 302.5,55.5C 313.533,60.8928 324.533,66.2262 335.5,71.5C 339.392,73.0621 342.725,75.3954 345.5,78.5C 346.973,81.3542 349.14,83.6875 352,85.5C 352.464,84.9056 352.631,84.2389 352.5,83.5C 353.803,85.1423 355.136,86.8089 356.5,88.5C 357.835,92.3053 358.668,96.3053 359,100.5C 363.928,103.889 369.428,105.223 375.5,104.5C 375.201,106.604 375.534,108.604 376.5,110.5C 378.409,109.652 380.409,109.318 382.5,109.5C 382.081,112.325 383.081,114.491 385.5,116C 390.393,119.945 395.727,123.112 401.5,125.5C 402.498,128.974 404.332,131.974 407,134.5C 407.495,136.473 407.662,138.473 407.5,140.5C 410.325,140.081 412.491,141.081 414,143.5C 420.435,166.971 423.769,190.971 424,215.5C 424.712,221.516 427.212,226.516 431.5,230.5C 433.745,236.117 433.912,241.784 432,247.5C 430.933,248.943 429.766,250.276 428.5,251.5C 431.39,252.837 432.057,254.837 430.5,257.5C 429.883,257.611 429.383,257.944 429,258.5C 428.503,260.81 428.337,263.143 428.5,265.5C 429.154,273.764 428.154,281.764 425.5,289.5C 421.732,293.362 419.232,298.029 418,303.5C 411.339,315.464 404.672,327.464 398,339.5C 397.503,342.146 397.336,344.813 397.5,347.5C 394.68,347.248 392.014,347.748 389.5,349C 382.833,357 375.5,364.333 367.5,371C 355.167,379.5 342.833,388 330.5,396.5C 324.871,400.461 319.871,405.127 315.5,410.5C 312.324,411.997 309.658,411.33 307.5,408.5C 305.33,411.012 302.663,412.679 299.5,413.5C 294.463,413.587 289.463,413.254 284.5,412.5C 267.995,411.483 251.495,411.816 235,413.5C 227.32,413.84 219.82,412.84 212.5,410.5C 204.911,413.42 197.244,416.253 189.5,419C 183.109,419.758 176.776,419.424 170.5,418C 147.512,409.25 126.679,397.084 108,381.5C 106.333,378.833 104.667,376.167 103,373.5C 102.503,371.19 102.337,368.857 102.5,366.5C 99.9837,366.245 97.6504,365.411 95.5,364C 92.1832,363.502 88.8499,363.335 85.5,363.5C 85.5,361.833 85.5,360.167 85.5,358.5C 83.5,358.833 81.5,359.167 79.5,359.5C 79.3784,355.853 77.7118,353.019 74.5,351C 66.2848,346.473 59.1182,340.64 53,333.5C 52.3486,331.765 52.5153,330.098 53.5,328.5C 50.0677,326.074 47.4011,323.074 45.5,319.5C 45.4656,315.396 44.7989,311.396 43.5,307.5C 43.3601,305.97 42.6935,304.97 41.5,304.5C 40.2683,291.868 39.4349,279.201 39,266.5C 38.2086,265.255 37.7086,263.922 37.5,262.5C 39.6119,254.847 38.2786,247.847 33.5,241.5C 33.1551,238.802 31.8218,236.802 29.5,235.5C 27.7868,234.365 27.1201,232.698 27.5,230.5C 26.8976,224.805 28.5642,219.971 32.5,216C 31.556,214.523 30.2226,213.523 28.5,213C 29.6667,211.833 30.8333,210.667 32,209.5C 32.2244,201.457 32.8911,193.457 34,185.5C 38.1441,176.545 42.8108,167.878 48,159.5C 48.4955,157.527 48.6621,155.527 48.5,153.5C 48.7497,151.326 49.7497,149.659 51.5,148.5C 55.0751,145.35 57.0751,141.35 57.5,136.5C 58.4959,136.586 59.3292,136.252 60,135.5C 62.2736,130.74 63.7736,125.74 64.5,120.5C 66.5273,120.662 68.5273,120.495 70.5,120C 72.2878,117.816 73.9544,115.649 75.5,113.5C 75.5,112.167 76.1667,111.5 77.5,111.5C 84.7368,103.554 93.0701,97.0537 102.5,92C 104.867,89.4938 107.201,86.9938 109.5,84.5C 114.809,82.5113 119.476,79.5113 123.5,75.5C 124.539,73.4689 126.205,72.1355 128.5,71.5C 132.456,69.5146 136.122,67.0146 139.5,64C 142.114,60.8731 145.114,58.3731 148.5,56.5C 152.631,59.6329 155.964,58.9662 158.5,54.5C 170.322,55.29 182.156,55.9567 194,56.5C 202.07,56.6128 210.07,55.9461 218,54.5C 219.681,54.3917 220.848,53.7251 221.5,52.5C 221.833,52.5 222.167,52.5 222.5,52.5C 230.828,54.4759 239.495,56.1426 248.5,57.5C 252.181,56.4401 255.847,55.2734 259.5,54C 260.252,53.3292 260.586,52.4959 260.5,51.5C 270.059,49.5184 279.725,48.5184 289.5,48.5 Z"/></g>
<g><path style="opacity:0.129" fill="#e8dfc5" d="M 289.5,48.5 C 293.787,49.6483 297.787,51.315 301.5,53.5C 296.999,52.9127 292.999,51.2461 289.5,48.5 Z"/></g>
<g><path style="opacity:0.253" fill="#d5bd94" d="M 221.5,52.5 C 220.848,53.7251 219.681,54.3917 218,54.5C 210.07,55.9461 202.07,56.6128 194,56.5C 182.156,55.9567 170.322,55.29 158.5,54.5C 160.456,52.452 162.956,51.452 166,51.5C 184.443,56.4806 202.943,56.8139 221.5,52.5 Z"/></g>
<g><path style="opacity:0.294" fill="#d8c29c" d="M 260.5,51.5 C 260.586,52.4959 260.252,53.3292 259.5,54C 255.847,55.2734 252.181,56.4401 248.5,57.5C 239.495,56.1426 230.828,54.4759 222.5,52.5C 231.428,52.1523 240.094,53.4856 248.5,56.5C 252.303,54.2624 256.303,52.5957 260.5,51.5 Z"/></g>
<g><path style="opacity:0.373" fill="#e5d7bb" d="M 158.5,54.5 C 155.964,58.9662 152.631,59.6329 148.5,56.5C 145.114,58.3731 142.114,60.8731 139.5,64C 136.122,67.0146 132.456,69.5146 128.5,71.5C 134.658,66.2404 140.658,60.7404 146.5,55C 149.063,54.8458 151.563,55.3458 154,56.5C 155.406,55.5862 156.906,54.9195 158.5,54.5 Z"/></g>
<g><path style="opacity:0.447" fill="#e0cfb3" d="M 301.5,53.5 C 313.438,58.4678 324.772,64.4678 335.5,71.5C 324.533,66.2262 313.533,60.8928 302.5,55.5C 301.702,55.0431 301.369,54.3764 301.5,53.5 Z"/></g>
<g><path style="opacity:0.235" fill="#e3d4bb" d="M 123.5,75.5 C 119.476,79.5113 114.809,82.5113 109.5,84.5C 113.652,80.6772 118.319,77.6772 123.5,75.5 Z"/></g>
<g><path style="opacity:0.298" fill="#e2d6b7" d="M 345.5,78.5 C 348.093,79.7536 350.427,81.4202 352.5,83.5C 352.631,84.2389 352.464,84.9056 352,85.5C 349.14,83.6875 346.973,81.3542 345.5,78.5 Z"/></g>
<g><path style="opacity:0.133" fill="#e3d4b6" d="M 109.5,84.5 C 107.201,86.9938 104.867,89.4938 102.5,92C 93.0701,97.0537 84.7368,103.554 77.5,111.5C 86.3328,100.334 96.9995,91.3345 109.5,84.5 Z"/></g>
<g><path style="opacity:0.996" fill="#336e21" d="M 226.5,115.5 C 222.834,118.997 219.001,122.331 215,125.5C 215.64,127.86 217.14,128.193 219.5,126.5C 231.109,126.883 241.775,124.05 251.5,118C 256.363,117.191 261.03,117.858 265.5,120C 270.668,122.277 275.502,125.11 280,128.5C 280.49,129.793 280.657,131.127 280.5,132.5C 262.391,138.81 246.557,148.81 233,162.5C 232.568,163.6 233.068,164.267 234.5,164.5C 236.073,164.248 237.406,163.582 238.5,162.5C 247.436,161.258 256.436,160.091 265.5,159C 270.503,156.161 275.836,155.161 281.5,156C 291.436,159.968 300.436,165.468 308.5,172.5C 309.374,174.747 309.708,177.08 309.5,179.5C 305.189,181.656 300.855,183.822 296.5,186C 286.836,194.664 277.503,203.664 268.5,213C 263.91,214.615 261.077,213.115 260,208.5C 258.933,207.809 257.766,207.309 256.5,207C 242.727,206.081 229.06,206.914 215.5,209.5C 211.221,215.282 206.388,220.615 201,225.5C 200.275,227.157 200.775,228.157 202.5,228.5C 216.838,235.495 229.838,244.495 241.5,255.5C 253.188,245.401 264.354,234.734 275,223.5C 276.612,219.185 278.446,215.018 280.5,211C 289.21,211.579 297.043,214.746 304,220.5C 304.384,222.197 304.218,223.863 303.5,225.5C 296.43,227.869 289.763,231.036 283.5,235C 274.038,241.57 264.371,247.903 254.5,254C 251.707,256.24 252.04,257.74 255.5,258.5C 255.369,259.376 255.702,260.043 256.5,260.5C 285.31,276.061 315.976,286.228 348.5,291C 357.54,291.564 366.54,292.398 375.5,293.5C 375.634,295.292 375.301,296.958 374.5,298.5C 354.343,304.686 333.676,307.853 312.5,308C 305.902,305.702 299.902,302.368 294.5,298C 279.314,286.142 264.147,274.309 249,262.5C 248.5,262.833 248,263.167 247.5,263.5C 249.038,265.243 250.038,267.243 250.5,269.5C 256.061,283.191 258.728,297.524 258.5,312.5C 258.438,316.882 258.105,321.216 257.5,325.5C 253.961,337.071 247.961,347.238 239.5,356C 235.361,360.036 231.028,360.369 226.5,357C 221.268,348.934 214.602,342.434 206.5,337.5C 205.058,336.18 204.392,334.514 204.5,332.5C 212.843,332.859 221.176,333.025 229.5,333C 232.539,331.969 235.039,330.135 237,327.5C 238.861,323.346 240.194,319.013 241,314.5C 241.632,305.814 241.466,297.148 240.5,288.5C 239.774,282.594 238.274,276.928 236,271.5C 235.311,270.643 234.478,269.977 233.5,269.5C 210.554,297.782 182.221,318.449 148.5,331.5C 145.232,332.487 141.898,332.82 138.5,332.5C 137.113,330.511 137.447,328.678 139.5,327C 146.217,324.808 152.551,321.808 158.5,318C 177.458,305.386 194.958,290.886 211,274.5C 215.384,268.956 219.551,263.289 223.5,257.5C 224.573,256.749 224.74,255.749 224,254.5C 221.286,251.449 218.286,248.782 215,246.5C 197.411,267.211 175.911,282.378 150.5,292C 147.883,292.822 145.216,293.322 142.5,293.5C 141.334,291.834 141.334,290.167 142.5,288.5C 162.854,277.74 181.354,264.406 198,248.5C 199.75,246.266 201.25,243.932 202.5,241.5C 204.273,240.686 204.773,239.352 204,237.5C 200.969,235.158 197.969,232.824 195,230.5C 186.571,236.629 178.071,242.629 169.5,248.5C 163.672,251.419 157.672,253.753 151.5,255.5C 150.503,255.53 149.836,255.03 149.5,254C 150.101,252.395 151.101,251.062 152.5,250C 167.231,240.757 180.564,229.924 192.5,217.5C 194.773,216.233 196.773,214.567 198.5,212.5C 191.94,210.302 186.606,211.802 182.5,217C 180.421,217.808 178.421,217.641 176.5,216.5C 173.524,211.415 171.024,206.081 169,200.5C 163.222,192.037 156.055,185.037 147.5,179.5C 147.261,177.533 147.594,175.699 148.5,174C 173.02,173.115 197.353,170.448 221.5,166C 229.555,157.358 236.222,147.858 241.5,137.5C 243.104,136.713 243.771,135.38 243.5,133.5C 242.167,133.5 240.833,133.5 239.5,133.5C 229.467,133.784 219.467,133.451 209.5,132.5C 207.962,132.453 206.962,133.12 206.5,134.5C 194.681,146.665 180.681,155.332 164.5,160.5C 162.915,159.998 162.415,158.998 163,157.5C 175.368,146.799 186.701,135.133 197,122.5C 200.675,117.425 202.342,111.759 202,105.5C 205.183,103.477 208.683,102.977 212.5,104C 216.464,105.663 220.464,107.33 224.5,109C 226.229,110.789 226.896,112.956 226.5,115.5 Z"/></g>
<g><path style="opacity:0.698" fill="#dbc9a7" d="M 356.5,88.5 C 359.568,91.6538 361.235,95.4871 361.5,100C 366.589,102.308 371.923,103.475 377.5,103.5C 377.105,106.523 378.105,107.523 380.5,106.5C 381.919,107.005 382.585,108.005 382.5,109.5C 380.409,109.318 378.409,109.652 376.5,110.5C 375.534,108.604 375.201,106.604 375.5,104.5C 369.428,105.223 363.928,103.889 359,100.5C 358.668,96.3053 357.835,92.3053 356.5,88.5 Z"/></g>
<g><path style="opacity:0.141" fill="#e3d3b9" d="M 382.5,109.5 C 384.6,111.498 386.6,113.665 388.5,116C 393.256,118.699 397.589,121.866 401.5,125.5C 395.727,123.112 390.393,119.945 385.5,116C 383.081,114.491 382.081,112.325 382.5,109.5 Z"/></g>
<g><path style="opacity:0.996" fill="#3e4338" d="M 226.5,115.5 C 226.657,116.873 226.49,118.207 226,119.5C 224.272,122.33 222.105,124.663 219.5,126.5C 217.14,128.193 215.64,127.86 215,125.5C 219.001,122.331 222.834,118.997 226.5,115.5 Z"/></g>
<g><path style="opacity:0.11" fill="#e2d3b6" d="M 75.5,113.5 C 73.9544,115.649 72.2878,117.816 70.5,120C 68.5273,120.495 66.5273,120.662 64.5,120.5C 63.7736,125.74 62.2736,130.74 60,135.5C 59.3292,136.252 58.4959,136.586 57.5,136.5C 58.7138,133.07 60.2138,129.736 62,126.5C 62.3333,124.167 62.6667,121.833 63,119.5C 65.0693,118.736 67.236,118.236 69.5,118C 71.3509,116.248 73.3509,114.748 75.5,113.5 Z"/></g>
<g><path style="opacity:0.996" fill="#2f5c26" d="M 239.5,133.5 C 234.767,135.046 229.767,135.713 224.5,135.5C 218.487,135.287 212.487,134.954 206.5,134.5C 206.962,133.12 207.962,132.453 209.5,132.5C 219.467,133.451 229.467,133.784 239.5,133.5 Z"/></g>
<g><path style="opacity:0.996" fill="#3d4338" d="M 280.5,132.5 C 280.785,134.288 280.452,135.955 279.5,137.5C 264.009,143.022 250.342,151.355 238.5,162.5C 237.406,163.582 236.073,164.248 234.5,164.5C 233.068,164.267 232.568,163.6 233,162.5C 246.557,148.81 262.391,138.81 280.5,132.5 Z"/></g>
<g><path style="opacity:0.357" fill="#dbc6a7" d="M 57.5,136.5 C 57.0751,141.35 55.0751,145.35 51.5,148.5C 52.9867,144.193 54.9867,140.193 57.5,136.5 Z"/></g>
<g><path style="opacity:0.996" fill="#3f413a" d="M 239.5,133.5 C 240.833,133.5 242.167,133.5 243.5,133.5C 243.771,135.38 243.104,136.713 241.5,137.5C 239.518,137.995 237.518,138.495 235.5,139C 225.802,139.525 216.135,139.525 206.5,139C 194.491,150.673 180.658,159.506 165,165.5C 161.927,164.252 161.76,162.585 164.5,160.5C 180.681,155.332 194.681,146.665 206.5,134.5C 212.487,134.954 218.487,135.287 224.5,135.5C 229.767,135.713 234.767,135.046 239.5,133.5 Z"/></g>
<g><path style="opacity:0.996" fill="#3a3e39" d="M 278.5,175.5 C 270.913,174.369 263.246,174.202 255.5,175C 248.907,175.019 242.573,175.852 236.5,177.5C 234.833,177.5 233.167,177.5 231.5,177.5C 229.896,176.713 229.229,175.38 229.5,173.5C 244.772,171.537 260.106,170.704 275.5,171C 277.863,171.589 278.863,173.089 278.5,175.5 Z"/></g>
<g><path style="opacity:0.996" fill="#6b5e43" d="M 278.5,175.5 C 278.5,176.167 278.167,176.5 277.5,176.5C 263.872,175.613 250.206,175.946 236.5,177.5C 242.573,175.852 248.907,175.019 255.5,175C 263.246,174.202 270.913,174.369 278.5,175.5 Z"/></g>
<g><path style="opacity:0.996" fill="#3d4139" d="M 215.5,180.5 C 202.286,183.146 188.953,185.146 175.5,186.5C 173.896,185.713 173.229,184.38 173.5,182.5C 187.746,180.064 202.08,178.064 216.5,176.5C 216.567,177.959 216.234,179.292 215.5,180.5 Z"/></g>
<g><path style="opacity:0.996" fill="#b29252" d="M 277.5,176.5 C 276.255,185.228 272.588,192.728 266.5,199C 253.463,198.094 240.463,198.594 227.5,200.5C 228.684,197.139 230.517,194.139 233,191.5C 233.49,190.207 233.657,188.873 233.5,187.5C 233.848,183.915 233.181,180.582 231.5,177.5C 233.167,177.5 234.833,177.5 236.5,177.5C 250.206,175.946 263.872,175.613 277.5,176.5 Z"/></g>
<g><path style="opacity:0.69" fill="#e1d0b1" d="M 48.5,153.5 C 48.6621,155.527 48.4955,157.527 48,159.5C 42.8108,167.878 38.1441,176.545 34,185.5C 32.8911,193.457 32.2244,201.457 32,209.5C 30.8333,210.667 29.6667,211.833 28.5,213C 30.2226,213.523 31.556,214.523 32.5,216C 28.5642,219.971 26.8976,224.805 27.5,230.5C 25.7706,225.241 26.7706,220.408 30.5,216C 29.2718,215.221 28.2718,214.221 27.5,213C 28.6512,211.177 29.8179,209.344 31,207.5C 31.3333,200.167 31.6667,192.833 32,185.5C 36.8617,174.347 42.3617,163.68 48.5,153.5 Z"/></g>
<g><path style="opacity:0.996" fill="#b19151" d="M 215.5,180.5 C 213.637,188.91 210.304,196.743 205.5,204C 198.269,206.022 190.936,207.522 183.5,208.5C 181.961,200.755 179.294,193.422 175.5,186.5C 188.953,185.146 202.286,183.146 215.5,180.5 Z"/></g>
<g><path style="opacity:0.996" fill="#414837" d="M 233.5,187.5 C 233.657,188.873 233.49,190.207 233,191.5C 230.517,194.139 228.684,197.139 227.5,200.5C 224.971,201.543 224.138,200.543 225,197.5C 227.14,193.538 229.973,190.204 233.5,187.5 Z"/></g>
<g><path style="opacity:0.996" fill="#3e4139" d="M 309.5,179.5 C 309.714,181.144 309.38,182.644 308.5,184C 303.214,185.641 298.547,188.308 294.5,192C 286.802,199.364 279.469,207.03 272.5,215C 269.454,217.174 266.12,217.841 262.5,217C 258.444,211.049 252.778,208.882 245.5,210.5C 235.43,211.401 225.43,212.734 215.5,214.5C 211.117,219.213 206.783,223.88 202.5,228.5C 200.775,228.157 200.275,227.157 201,225.5C 206.388,220.615 211.221,215.282 215.5,209.5C 229.06,206.914 242.727,206.081 256.5,207C 257.766,207.309 258.933,207.809 260,208.5C 261.077,213.115 263.91,214.615 268.5,213C 277.503,203.664 286.836,194.664 296.5,186C 300.855,183.822 305.189,181.656 309.5,179.5 Z"/></g>
<g><path style="opacity:0.996" fill="#46483a" d="M 147.5,179.5 C 156.055,185.037 163.222,192.037 169,200.5C 171.024,206.081 173.524,211.415 176.5,216.5C 178.421,217.641 180.421,217.808 182.5,217C 186.606,211.802 191.94,210.302 198.5,212.5C 196.773,214.567 194.773,216.233 192.5,217.5C 188.045,216.622 184.711,218.122 182.5,222C 180.833,222.667 179.167,222.667 177.5,222C 173.491,215.013 169.658,207.846 166,200.5C 160.302,194.468 154.302,188.801 148,183.5C 147.51,182.207 147.343,180.873 147.5,179.5 Z"/></g>
<g><path style="opacity:0.204" fill="#e4d6be" d="M 401.5,125.5 C 404.464,127.962 407.297,130.629 410,133.5C 410.743,135.441 410.576,137.274 409.5,139C 413.742,140.245 416.242,143.078 417,147.5C 422.075,169.505 424.742,191.839 425,214.5C 426.372,220.231 428.538,225.565 431.5,230.5C 427.212,226.516 424.712,221.516 424,215.5C 423.769,190.971 420.435,166.971 414,143.5C 412.491,141.081 410.325,140.081 407.5,140.5C 407.662,138.473 407.495,136.473 407,134.5C 404.332,131.974 402.498,128.974 401.5,125.5 Z"/></g>
<g><path style="opacity:0.996" fill="#3d4238" d="M 303.5,225.5 C 303.762,226.978 303.429,228.311 302.5,229.5C 286.046,237.968 270.379,247.634 255.5,258.5C 252.04,257.74 251.707,256.24 254.5,254C 264.371,247.903 274.038,241.57 283.5,235C 289.763,231.036 296.43,227.869 303.5,225.5 Z"/></g>
<g><path style="opacity:0.996" fill="#3f4239" d="M 202.5,241.5 C 200.351,239.161 197.851,237.161 195,235.5C 194.5,235.667 194,235.833 193.5,236C 180.88,246.977 166.547,254.81 150.5,259.5C 150.433,258.041 150.766,256.708 151.5,255.5C 157.672,253.753 163.672,251.419 169.5,248.5C 178.071,242.629 186.571,236.629 195,230.5C 197.969,232.824 200.969,235.158 204,237.5C 204.773,239.352 204.273,240.686 202.5,241.5 Z"/></g>
<g><path style="opacity:0.995" fill="#1a1713" d="M 33.5,241.5 C 38.2786,247.847 39.6119,254.847 37.5,262.5C 36.8333,262.5 36.5,262.167 36.5,261.5C 34.732,258.297 33.232,254.963 32,251.5C 31.3333,248.833 31.3333,246.167 32,243.5C 32.2784,242.584 32.7784,241.918 33.5,241.5 Z"/></g>
<g><path style="opacity:0.043" fill="#e1d7c3" d="M 431.5,230.5 C 436.694,237.406 436.694,244.406 431.5,251.5C 432.415,252.328 433.081,253.328 433.5,254.5C 431.43,270.156 428.763,285.489 425.5,300.5C 425.5,299.833 425.5,299.167 425.5,298.5C 425.5,295.5 425.5,292.5 425.5,289.5C 428.154,281.764 429.154,273.764 428.5,265.5C 430.369,263.365 431.036,260.698 430.5,257.5C 432.057,254.837 431.39,252.837 428.5,251.5C 429.766,250.276 430.933,248.943 432,247.5C 433.912,241.784 433.745,236.117 431.5,230.5 Z"/></g>
<g><path style="opacity:0.298" fill="#b1afac" d="M 29.5,235.5 C 31.8218,236.802 33.1551,238.802 33.5,241.5C 32.7784,241.918 32.2784,242.584 32,243.5C 31.3333,246.167 31.3333,248.833 32,251.5C 33.232,254.963 34.732,258.297 36.5,261.5C 36.1667,261.5 35.8333,261.5 35.5,261.5C 29.9834,255.287 28.6501,248.287 31.5,240.5C 30.5435,238.925 29.8769,237.258 29.5,235.5 Z"/></g>
<g><path style="opacity:0.996" fill="#615339" d="M 430.5,257.5 C 431.036,260.698 430.369,263.365 428.5,265.5C 428.337,263.143 428.503,260.81 429,258.5C 429.383,257.944 429.883,257.611 430.5,257.5 Z"/></g>
<g><path style="opacity:0.996" fill="#3e4239" d="M 223.5,257.5 C 220.755,256.263 218.422,254.43 216.5,252C 215.5,251.333 214.5,251.333 213.5,252C 194.736,275.543 170.736,290.71 141.5,297.5C 141.433,296.041 141.766,294.708 142.5,293.5C 145.216,293.322 147.883,292.822 150.5,292C 175.911,282.378 197.411,267.211 215,246.5C 218.286,248.782 221.286,251.449 224,254.5C 224.74,255.749 224.573,256.749 223.5,257.5 Z"/></g>
<g><path style="opacity:0.265" fill="#e9e0ce" d="M 35.5,261.5 C 35.8333,261.5 36.1667,261.5 36.5,261.5C 36.5,262.167 36.8333,262.5 37.5,262.5C 37.7086,263.922 38.2086,265.255 39,266.5C 39.4349,279.201 40.2683,291.868 41.5,304.5C 39.5475,290.245 37.5475,275.911 35.5,261.5 Z"/></g>
<g><path style="opacity:0.996" fill="#40433a" d="M 374.5,298.5 C 375.434,299.568 375.768,300.901 375.5,302.5C 358.168,307.669 340.502,311.336 322.5,313.5C 315.374,313.219 308.707,311.386 302.5,308C 285.286,294.904 267.952,282.071 250.5,269.5C 250.038,267.243 249.038,265.243 247.5,263.5C 248,263.167 248.5,262.833 249,262.5C 264.147,274.309 279.314,286.142 294.5,298C 299.902,302.368 305.902,305.702 312.5,308C 333.676,307.853 354.343,304.686 374.5,298.5 Z"/></g>
<g><path style="opacity:0.996" fill="#3f4339" d="M 240.5,288.5 C 238.734,284.715 237.234,280.715 236,276.5C 235.311,275.643 234.478,274.977 233.5,274.5C 212.491,299.312 187.491,318.812 158.5,333C 151.784,335.868 144.784,337.035 137.5,336.5C 137.433,335.041 137.766,333.708 138.5,332.5C 141.898,332.82 145.232,332.487 148.5,331.5C 182.221,318.449 210.554,297.782 233.5,269.5C 234.478,269.977 235.311,270.643 236,271.5C 238.274,276.928 239.774,282.594 240.5,288.5 Z"/></g>
<g><path style="opacity:0.408" fill="#999999" d="M 425.5,298.5 C 425.5,299.167 425.5,299.833 425.5,300.5C 423.103,309.958 419.103,318.625 413.5,326.5C 415.206,318.612 418.539,311.446 423.5,305C 423.99,302.654 424.657,300.487 425.5,298.5 Z"/></g>
<g><path style="opacity:0.261" fill="#c0bcb3" d="M 41.5,304.5 C 42.6935,304.97 43.3601,305.97 43.5,307.5C 44.7989,311.396 45.4656,315.396 45.5,319.5C 46.2411,326.206 47.2411,332.872 48.5,339.5C 44.4025,328.304 42.0692,316.637 41.5,304.5 Z"/></g>
<g><path style="opacity:0.997" fill="#090806" d="M 425.5,289.5 C 425.5,292.5 425.5,295.5 425.5,298.5C 424.657,300.487 423.99,302.654 423.5,305C 418.539,311.446 415.206,318.612 413.5,326.5C 412.357,326.908 411.357,327.575 410.5,328.5C 407.017,335.309 404.017,342.309 401.5,349.5C 396.713,354.083 394.38,359.75 394.5,366.5C 391.107,366.062 388.107,366.895 385.5,369C 380.839,374.661 375.839,379.994 370.5,385C 357.36,395.404 343.693,405.071 329.5,414C 323.596,419.414 317.596,424.581 311.5,429.5C 309.783,428.283 307.95,427.283 306,426.5C 304.036,427.464 302.37,428.797 301,430.5C 298.542,431.08 296.042,431.414 293.5,431.5C 283.549,430.126 273.549,429.46 263.5,429.5C 255.932,429.29 248.599,429.956 241.5,431.5C 237.167,431.5 232.833,431.5 228.5,431.5C 223.57,430.827 218.57,429.827 213.5,428.5C 207.098,430.529 200.765,432.862 194.5,435.5C 187.555,437.91 180.555,438.076 173.5,436C 169.771,433.769 165.771,432.269 161.5,431.5C 156.626,428.141 151.459,425.141 146,422.5C 144.234,421.767 142.401,421.433 140.5,421.5C 138.664,419.412 136.331,418.079 133.5,417.5C 130.974,413.528 127.307,411.194 122.5,410.5C 118.466,406.464 114.132,402.798 109.5,399.5C 106.668,395.343 105.001,390.676 104.5,385.5C 99.4843,382.93 94.151,381.93 88.5,382.5C 88.7989,380.396 88.4656,378.396 87.5,376.5C 83.661,378.076 81.3277,376.743 80.5,372.5C 79.0603,371.048 77.3936,370.048 75.5,369.5C 74.9517,366.916 73.285,365.916 70.5,366.5C 67.1153,362.432 63.2819,358.766 59,355.5C 56.5806,353.162 56.0806,350.495 57.5,347.5C 56.2713,346.719 54.938,346.219 53.5,346C 52.1666,343.809 50.5,341.976 48.5,340.5C 48.5,340.167 48.5,339.833 48.5,339.5C 47.2411,332.872 46.2411,326.206 45.5,319.5C 47.4011,323.074 50.0677,326.074 53.5,328.5C 52.5153,330.098 52.3486,331.765 53,333.5C 59.1182,340.64 66.2848,346.473 74.5,351C 77.7118,353.019 79.3784,355.853 79.5,359.5C 81.5,359.167 83.5,358.833 85.5,358.5C 85.5,360.167 85.5,361.833 85.5,363.5C 88.8499,363.335 92.1832,363.502 95.5,364C 97.6504,365.411 99.9837,366.245 102.5,366.5C 102.337,368.857 102.503,371.19 103,373.5C 104.667,376.167 106.333,378.833 108,381.5C 126.679,397.084 147.512,409.25 170.5,418C 176.776,419.424 183.109,419.758 189.5,419C 197.244,416.253 204.911,413.42 212.5,410.5C 219.82,412.84 227.32,413.84 235,413.5C 251.495,411.816 267.995,411.483 284.5,412.5C 287.186,413.991 290.186,414.657 293.5,414.5C 295.696,414.495 297.696,414.162 299.5,413.5C 302.663,412.679 305.33,411.012 307.5,408.5C 309.658,411.33 312.324,411.997 315.5,410.5C 319.871,405.127 324.871,400.461 330.5,396.5C 342.833,388 355.167,379.5 367.5,371C 375.5,364.333 382.833,357 389.5,349C 392.014,347.748 394.68,347.248 397.5,347.5C 397.336,344.813 397.503,342.146 398,339.5C 404.672,327.464 411.339,315.464 418,303.5C 419.232,298.029 421.732,293.362 425.5,289.5 Z"/></g>
<g><path style="opacity:0.29" fill="#a1a1a1" d="M 413.5,326.5 C 410.231,334.71 406.231,342.377 401.5,349.5C 404.017,342.309 407.017,335.309 410.5,328.5C 411.357,327.575 412.357,326.908 413.5,326.5 Z"/></g>
<g><path style="opacity:0.2" fill="#aeaead" d="M 48.5,340.5 C 50.5,341.976 52.1666,343.809 53.5,346C 54.938,346.219 56.2713,346.719 57.5,347.5C 56.0806,350.495 56.5806,353.162 59,355.5C 63.2819,358.766 67.1153,362.432 70.5,366.5C 64.3053,362.818 58.8053,358.151 54,352.5C 53.7351,350.837 54.2351,349.337 55.5,348C 51.6093,346.943 49.2759,344.443 48.5,340.5 Z"/></g>
<g><path style="opacity:0.996" fill="#424639" d="M 257.5,325.5 C 255.47,342.061 247.47,354.895 233.5,364C 231.833,364.667 230.167,364.667 228.5,364C 222.337,354.977 214.837,347.144 206,340.5C 205.26,339.251 205.427,338.251 206.5,337.5C 214.602,342.434 221.268,348.934 226.5,357C 231.028,360.369 235.361,360.036 239.5,356C 247.961,347.238 253.961,337.071 257.5,325.5 Z"/></g>
<g><path style="opacity:0.671" fill="#8d8d8d" d="M 70.5,366.5 C 73.285,365.916 74.9517,366.916 75.5,369.5C 73.326,369.25 71.6594,368.25 70.5,366.5 Z"/></g>
<g><path style="opacity:0.133" fill="#989898" d="M 75.5,369.5 C 77.3936,370.048 79.0603,371.048 80.5,372.5C 81.3277,376.743 83.661,378.076 87.5,376.5C 88.4656,378.396 88.7989,380.396 88.5,382.5C 94.151,381.93 99.4843,382.93 104.5,385.5C 105.001,390.676 106.668,395.343 109.5,399.5C 105.392,396.295 103.059,391.961 102.5,386.5C 97.8606,383.866 92.8606,382.866 87.5,383.5C 87.5674,380.234 85.9008,378.734 82.5,379C 80.5235,375.537 78.1902,372.37 75.5,369.5 Z"/></g>
<g><path style="opacity:0.157" fill="#9f9f9e" d="M 401.5,349.5 C 399.536,354.104 397.536,358.771 395.5,363.5C 396.747,365.042 396.747,366.542 395.5,368C 393.08,367.012 390.747,367.345 388.5,369C 381.491,376.043 374.491,383.043 367.5,390C 354.833,398.667 342.167,407.333 329.5,416C 323.865,420.633 318.532,425.633 313.5,431C 310.82,431.335 308.487,430.501 306.5,428.5C 302.925,432.12 298.591,433.787 293.5,433.5C 285.235,432.116 276.901,431.116 268.5,430.5C 261.525,431.342 254.525,431.675 247.5,431.5C 245.5,431.5 243.5,431.5 241.5,431.5C 248.599,429.956 255.932,429.29 263.5,429.5C 273.549,429.46 283.549,430.126 293.5,431.5C 296.042,431.414 298.542,431.08 301,430.5C 302.37,428.797 304.036,427.464 306,426.5C 307.95,427.283 309.783,428.283 311.5,429.5C 317.596,424.581 323.596,419.414 329.5,414C 343.693,405.071 357.36,395.404 370.5,385C 375.839,379.994 380.839,374.661 385.5,369C 388.107,366.895 391.107,366.062 394.5,366.5C 394.38,359.75 396.713,354.083 401.5,349.5 Z"/></g>
<g><path style="opacity:0.008" fill="#979797" d="M 109.5,399.5 C 114.132,402.798 118.466,406.464 122.5,410.5C 117.281,407.954 112.948,404.287 109.5,399.5 Z"/></g>
<g><path style="opacity:0.231" fill="#767676" d="M 122.5,410.5 C 127.307,411.194 130.974,413.528 133.5,417.5C 129.317,415.913 125.65,413.579 122.5,410.5 Z"/></g>
<g><path style="opacity:0.996" fill="#594828" d="M 284.5,412.5 C 289.463,413.254 294.463,413.587 299.5,413.5C 297.696,414.162 295.696,414.495 293.5,414.5C 290.186,414.657 287.186,413.991 284.5,412.5 Z"/></g>
<g><path style="opacity:0.016" fill="#a1a1a1" d="M 133.5,417.5 C 136.331,418.079 138.664,419.412 140.5,421.5C 137.669,420.921 135.336,419.588 133.5,417.5 Z"/></g>
<g><path style="opacity:0.392" fill="#868685" d="M 140.5,421.5 C 142.401,421.433 144.234,421.767 146,422.5C 151.459,425.141 156.626,428.141 161.5,431.5C 159.436,431.313 157.436,430.813 155.5,430C 150.126,427.618 145.126,424.785 140.5,421.5 Z"/></g>
<g><path style="opacity:0.265" fill="#d5d5d5" d="M 223.5,431.5 C 225.167,431.5 226.833,431.5 228.5,431.5C 232.833,431.5 237.167,431.5 241.5,431.5C 243.5,431.5 245.5,431.5 247.5,431.5C 239.489,434.003 231.489,434.003 223.5,431.5 Z"/></g>
<g><path style="opacity:0.408" fill="#919191" d="M 228.5,431.5 C 226.833,431.5 225.167,431.5 223.5,431.5C 219.993,431.693 216.66,431.027 213.5,429.5C 204.059,434.825 193.893,437.825 183,438.5C 174.88,438.845 167.714,436.512 161.5,431.5C 165.771,432.269 169.771,433.769 173.5,436C 180.555,438.076 187.555,437.91 194.5,435.5C 200.765,432.862 207.098,430.529 213.5,428.5C 218.57,429.827 223.57,430.827 228.5,431.5 Z"/></g>
</svg>
