<?xml version="1.0" encoding="UTF-8"?>
<!DOCTYPE svg PUBLIC "-//W3C//DTD SVG 1.1//EN" "http://www.w3.org/Graphics/SVG/1.1/DTD/svg11.dtd">
<svg xmlns="http://www.w3.org/2000/svg" version="1.1" width="470px" height="460px" style="shape-rendering:geometricPrecision; text-rendering:geometricPrecision; image-rendering:optimizeQuality; fill-rule:evenodd; clip-rule:evenodd" xmlns:xlink="http://www.w3.org/1999/xlink">
<g><path style="opacity:0.996" fill="#b59353" d="M 309.5,60.5 C 317.707,65.771 326.374,70.271 335.5,74C 342.778,78.612 349.778,83.612 356.5,89C 359.704,91.8688 362.537,95.0354 365,98.5C 365.498,101.482 365.665,104.482 365.5,107.5C 366.833,107.5 368.167,107.5 369.5,107.5C 369.833,107.5 370.167,107.5 370.5,107.5C 371.681,109.067 373.347,109.901 375.5,110C 378.146,110.497 380.813,110.664 383.5,110.5C 383.5,112.167 383.5,113.833 383.5,115.5C 385.5,115.5 387.5,115.5 389.5,115.5C 391.326,117.147 392.66,119.147 393.5,121.5C 394.781,124.609 397.115,126.443 400.5,127C 406.484,131.492 411.817,136.659 416.5,142.5C 414.891,145.579 415.891,147.246 419.5,147.5C 419.833,147.5 420.167,147.5 420.5,147.5C 424.161,159.842 427.161,172.175 429.5,184.5C 429.333,195.505 429.5,206.505 430,217.5C 430.687,221.58 431.687,225.58 433,229.5C 433.417,230.756 434.25,231.423 435.5,231.5C 438.066,236.7 439.733,242.2 440.5,248C 440.611,252.209 438.945,255.375 435.5,257.5C 436.5,258.833 437.5,260.167 438.5,261.5C 436.95,269.742 436.284,278.075 436.5,286.5C 436.267,289.542 435.267,292.208 433.5,294.5C 433.167,291.833 432.833,291.833 432.5,294.5C 423.577,311.347 414.91,328.347 406.5,345.5C 405.883,345.611 405.383,345.944 405,346.5C 404.503,348.81 404.337,351.143 404.5,353.5C 402.473,353.338 400.473,353.505 398.5,354C 397.944,354.383 397.611,354.883 397.5,355.5C 390.342,362.158 383.342,368.991 376.5,376C 363.833,384.667 351.167,393.333 338.5,402C 332.865,406.633 327.532,411.633 322.5,417C 319.258,417.986 316.592,417.152 314.5,414.5C 312.456,416.219 310.456,417.886 308.5,419.5C 303.167,419.5 297.833,419.5 292.5,419.5C 279.506,416.958 266.506,416.958 253.5,419.5C 244.485,419.499 235.485,419.166 226.5,418.5C 223.314,417.037 219.98,416.537 216.5,417C 210.309,421.114 203.643,423.947 196.5,425.5C 190.804,425.553 185.138,425.22 179.5,424.5C 155.703,416.184 134.203,403.851 115,387.5C 111.779,383.389 109.946,378.722 109.5,373.5C 104.228,370.512 98.5617,369.179 92.5,369.5C 92.5,367.833 92.5,366.167 92.5,364.5C 90.8008,364.66 89.1341,364.494 87.5,364C 85.8745,361.372 83.8745,359.039 81.5,357C 73.1734,352.681 66.0067,346.848 60,339.5C 59.8195,337.512 59.9862,335.512 60.5,333.5C 59.5,333.5 58.5,333.5 57.5,333.5C 56.2141,330.883 54.5475,328.55 52.5,326.5C 51.7537,322.201 51.087,317.868 50.5,313.5C 50.3601,311.97 49.6935,310.97 48.5,310.5C 47.3666,297.153 46.3666,283.819 45.5,270.5C 46.656,265.956 46.4893,261.289 45,256.5C 44.5283,252.89 43.0283,249.89 40.5,247.5C 39.8046,244.085 38.1379,241.418 35.5,239.5C 34.8121,233.304 36.1454,227.638 39.5,222.5C 39.0431,221.702 38.3764,221.369 37.5,221.5C 35.8881,219.037 36.3881,217.037 39,215.5C 39.0061,206.375 40.0061,197.375 42,188.5C 47.024,181.071 50.8574,173.071 53.5,164.5C 59.1729,155.825 64.3395,146.825 69,137.5C 70.9039,134.077 71.7372,130.41 71.5,126.5C 74.3198,126.752 76.9865,126.252 79.5,125C 86.4184,115.722 94.7517,108.056 104.5,102C 109.374,97.953 114.041,93.7864 118.5,89.5C 119.873,89.6567 121.207,89.49 122.5,89C 127.047,85.279 131.38,81.4457 135.5,77.5C 139.88,75.2999 143.88,72.4665 147.5,69C 147.272,68.6012 146.938,68.4346 146.5,68.5C 146.5,67.8333 146.833,67.5 147.5,67.5C 150.156,65.8502 152.822,64.1836 155.5,62.5C 159.722,65.7517 163.055,65.0851 165.5,60.5C 177.024,60.8387 188.524,61.5054 200,62.5C 211.352,62.1653 222.686,61.4986 234,60.5C 239.181,60.8534 244.347,61.3534 249.5,62C 250.645,63.8594 252.312,64.6927 254.5,64.5C 260.351,62.4912 266.018,59.9912 271.5,57C 280.066,54.1197 288.732,53.7863 297.5,56C 300.29,56.5609 302.623,57.8942 304.5,60C 306.134,60.4935 307.801,60.6602 309.5,60.5 Z"/></g>
<g><path style="opacity:0.233" fill="#deceb0" d="M 309.5,60.5 C 307.801,60.6602 306.134,60.4935 304.5,60C 302.623,57.8942 300.29,56.5609 297.5,56C 288.732,53.7863 280.066,54.1197 271.5,57C 266.018,59.9912 260.351,62.4912 254.5,64.5C 252.312,64.6927 250.645,63.8594 249.5,62C 244.347,61.3534 239.181,60.8534 234,60.5C 222.686,61.4986 211.352,62.1653 200,62.5C 188.524,61.5054 177.024,60.8387 165.5,60.5C 167.895,59.2342 170.562,58.5676 173.5,58.5C 182.305,59.8284 191.138,60.8284 200,61.5C 215.795,59.76 231.628,59.26 247.5,60C 250.136,60.9343 252.803,61.7676 255.5,62.5C 265.175,57.164 275.508,53.8306 286.5,52.5C 294.986,53.2157 302.653,55.8823 309.5,60.5 Z"/></g>
<g><path style="opacity:0.29" fill="#efe4d5" d="M 165.5,60.5 C 163.055,65.0851 159.722,65.7517 155.5,62.5C 152.822,64.1836 150.156,65.8502 147.5,67.5C 149.529,64.4731 152.196,62.1398 155.5,60.5C 157.614,61.0339 159.448,62.0339 161,63.5C 162.129,61.8588 163.629,60.8588 165.5,60.5 Z"/></g>
<g><path style="opacity:0.29" fill="#ebe1cd" d="M 146.5,68.5 C 146.938,68.4346 147.272,68.6012 147.5,69C 143.88,72.4665 139.88,75.2999 135.5,77.5C 138.851,74.1518 142.518,71.1518 146.5,68.5 Z"/></g>
<g><path style="opacity:0.424" fill="#e5d8bf" d="M 135.5,77.5 C 131.38,81.4457 127.047,85.279 122.5,89C 121.207,89.49 119.873,89.6567 118.5,89.5C 123.954,85.2665 129.62,81.2665 135.5,77.5 Z"/></g>
<g><path style="opacity:0.216" fill="#e7d8c1" d="M 309.5,60.5 C 318.707,64.102 327.707,68.2687 336.5,73C 347.127,78.9481 356.627,86.4481 365,95.5C 366.603,99.5438 368.103,103.544 369.5,107.5C 368.167,107.5 366.833,107.5 365.5,107.5C 365.665,104.482 365.498,101.482 365,98.5C 362.537,95.0354 359.704,91.8688 356.5,89C 349.778,83.612 342.778,78.612 335.5,74C 326.374,70.271 317.707,65.771 309.5,60.5 Z"/></g>
<g><path style="opacity:0.205" fill="#ebe1ce" d="M 370.5,107.5 C 374.452,108.196 378.452,108.696 382.5,109C 384.137,112.101 386.471,114.268 389.5,115.5C 387.5,115.5 385.5,115.5 383.5,115.5C 383.5,113.833 383.5,112.167 383.5,110.5C 380.813,110.664 378.146,110.497 375.5,110C 373.347,109.901 371.681,109.067 370.5,107.5 Z"/></g>
<g><path style="opacity:0.996" fill="#336e22" d="M 263.5,125.5 C 262.542,125.953 261.708,126.619 261,127.5C 259.462,134.967 259.295,142.3 260.5,149.5C 272.945,144.721 285.612,140.554 298.5,137C 304.993,135.62 310.993,136.62 316.5,140C 318.684,141.898 319.017,144.064 317.5,146.5C 298.482,153.241 278.816,156.574 258.5,156.5C 258.5,158.167 258.5,159.833 258.5,161.5C 257.804,172.152 257.47,182.819 257.5,193.5C 279.255,190.569 300.922,186.735 322.5,182C 332.311,180.927 341.978,181.594 351.5,184C 354.418,185.709 357.252,187.542 360,189.5C 360.494,191.134 360.66,192.801 360.5,194.5C 359.609,195.11 358.609,195.443 357.5,195.5C 337.538,195.52 317.538,195.686 297.5,196C 284.186,197.255 270.853,198.255 257.5,199C 256.944,199.383 256.611,199.883 256.5,200.5C 252.727,200.263 249.06,200.763 245.5,202C 247.063,203.947 249.063,205.114 251.5,205.5C 254.104,207.6 256.604,209.933 259,212.5C 259.494,214.134 259.66,215.801 259.5,217.5C 257.803,219.305 256.97,221.639 257,224.5C 256.5,240.497 256.333,256.497 256.5,272.5C 254.271,276.29 251.937,280.123 249.5,284C 248.167,284.667 246.833,284.667 245.5,284C 243.934,281.674 242.268,279.508 240.5,277.5C 239.302,270.46 239.636,263.46 241.5,256.5C 242.66,244.34 242.827,232.007 242,219.5C 241.61,216.896 240.776,214.562 239.5,212.5C 239.149,209.762 238.482,207.096 237.5,204.5C 236.5,204.167 235.5,203.833 234.5,203.5C 223.898,205.46 213.231,206.96 202.5,208C 191.691,211.118 180.691,213.451 169.5,215C 157.122,221.11 144.788,220.943 132.5,214.5C 130.048,212.246 130.048,210.079 132.5,208C 154.626,206.156 176.626,203.989 198.5,201.5C 197.988,192.305 196.988,183.305 195.5,174.5C 195.746,168.493 194.579,162.826 192,157.5C 190.306,154.642 188.139,152.309 185.5,150.5C 183.474,146.567 184.474,143.9 188.5,142.5C 195.36,144.217 202.026,146.55 208.5,149.5C 210.922,151.552 211.922,154.218 211.5,157.5C 210.25,171.326 210.25,184.993 211.5,198.5C 222.194,197.812 232.861,196.812 243.5,195.5C 243.953,173.452 243.286,151.452 241.5,129.5C 240.951,123.619 238.284,118.952 233.5,115.5C 233.244,113.208 233.577,111.041 234.5,109C 244.764,108.145 254.097,110.645 262.5,116.5C 263.484,119.428 263.817,122.428 263.5,125.5 Z"/></g>
<g><path style="opacity:0.996" fill="#434838" d="M 233.5,115.5 C 238.284,118.952 240.951,123.619 241.5,129.5C 239.751,125.699 237.251,122.365 234,119.5C 233.51,118.207 233.343,116.873 233.5,115.5 Z"/></g>
<g><path style="opacity:0.027" fill="#e6dabc" d="M 393.5,121.5 C 402.292,126.11 410.126,132.11 417,139.5C 417.082,142.285 417.915,144.952 419.5,147.5C 415.891,147.246 414.891,145.579 416.5,142.5C 411.817,136.659 406.484,131.492 400.5,127C 397.115,126.443 394.781,124.609 393.5,121.5 Z"/></g>
<g><path style="opacity:0.169" fill="#e4d7bf" d="M 118.5,89.5 C 114.041,93.7864 109.374,97.953 104.5,102C 94.7517,108.056 86.4184,115.722 79.5,125C 76.9865,126.252 74.3198,126.752 71.5,126.5C 71.7372,130.41 70.9039,134.077 69,137.5C 64.3395,146.825 59.1729,155.825 53.5,164.5C 58.1284,153.91 63.2951,143.577 69,133.5C 69.3333,130.833 69.6667,128.167 70,125.5C 73.2713,124.87 76.4379,123.87 79.5,122.5C 90.4106,108.914 103.411,97.9141 118.5,89.5 Z"/></g>
<g><path style="opacity:0.996" fill="#4a6430" d="M 263.5,125.5 C 263.295,128.988 262.461,132.321 261,135.5C 260.501,140.155 260.334,144.821 260.5,149.5C 259.295,142.3 259.462,134.967 261,127.5C 261.708,126.619 262.542,125.953 263.5,125.5 Z"/></g>
<g><path style="opacity:0.996" fill="#3f4239" d="M 317.5,146.5 C 318.791,147.542 318.791,148.708 317.5,150C 298.605,157.484 278.938,161.317 258.5,161.5C 258.5,159.833 258.5,158.167 258.5,156.5C 278.816,156.574 298.482,153.241 317.5,146.5 Z"/></g>
<g><path style="opacity:0.792" fill="#e2d4b9" d="M 420.5,147.5 C 422.497,150.16 423.997,153.16 425,156.5C 427.692,165.651 429.192,174.985 429.5,184.5C 427.161,172.175 424.161,159.842 420.5,147.5 Z"/></g>
<g><path style="opacity:0.996" fill="#435433" d="M 185.5,150.5 C 188.139,152.309 190.306,154.642 192,157.5C 194.579,162.826 195.746,168.493 195.5,174.5C 194.037,171.797 193.204,168.797 193,165.5C 190.452,160.405 187.952,155.405 185.5,150.5 Z"/></g>
<g><path style="opacity:0.996" fill="#928447" d="M 208.5,149.5 C 211.571,150.039 213.238,151.873 213.5,155C 211.714,169.438 211.047,183.938 211.5,198.5C 210.25,184.993 210.25,171.326 211.5,157.5C 211.922,154.218 210.922,151.552 208.5,149.5 Z"/></g>
<g><path style="opacity:0.506" fill="#e6dac3" d="M 53.5,164.5 C 50.8574,173.071 47.024,181.071 42,188.5C 40.0061,197.375 39.0061,206.375 39,215.5C 36.3881,217.037 35.8881,219.037 37.5,221.5C 35.7483,221.582 34.7483,220.749 34.5,219C 35.2703,217.225 36.437,215.725 38,214.5C 38.1293,206.106 38.796,197.772 40,189.5C 44.5431,181.073 49.0431,172.74 53.5,164.5 Z"/></g>
<g><path style="opacity:0.996" fill="#2e5827" d="M 357.5,195.5 C 354.785,196.886 351.785,197.553 348.5,197.5C 317.74,195.745 287.073,196.745 256.5,200.5C 256.611,199.883 256.944,199.383 257.5,199C 270.853,198.255 284.186,197.255 297.5,196C 317.538,195.686 337.538,195.52 357.5,195.5 Z"/></g>
<g><path style="opacity:0.996" fill="#3d3f39" d="M 360.5,194.5 C 360.913,197.32 359.913,199.32 357.5,200.5C 338.531,200.573 319.531,200.74 300.5,201C 289.99,201.55 279.656,202.383 269.5,203.5C 263.65,204.296 257.65,204.963 251.5,205.5C 249.063,205.114 247.063,203.947 245.5,202C 249.06,200.763 252.727,200.263 256.5,200.5C 287.073,196.745 317.74,195.745 348.5,197.5C 351.785,197.553 354.785,196.886 357.5,195.5C 358.609,195.443 359.609,195.11 360.5,194.5 Z"/></g>
<g><path style="opacity:0.996" fill="#937a4b" d="M 357.5,200.5 C 356.391,201.29 355.058,201.79 353.5,202C 325.496,202.403 297.496,202.903 269.5,203.5C 279.656,202.383 289.99,201.55 300.5,201C 319.531,200.74 338.531,200.573 357.5,200.5 Z"/></g>
<g><path style="opacity:0.325" fill="#e9dec9" d="M 429.5,184.5 C 430.59,196.326 431.423,208.326 432,220.5C 433.017,224.244 434.184,227.911 435.5,231.5C 434.25,231.423 433.417,230.756 433,229.5C 431.687,225.58 430.687,221.58 430,217.5C 429.5,206.505 429.333,195.505 429.5,184.5 Z"/></g>
<g><path style="opacity:0.996" fill="#40423a" d="M 239.5,212.5 C 238.399,211.152 237.399,209.652 236.5,208C 214.16,210.206 192.16,214.04 170.5,219.5C 157.562,226.351 144.895,226.018 132.5,218.5C 131.218,217.042 131.218,215.708 132.5,214.5C 144.788,220.943 157.122,221.11 169.5,215C 180.691,213.451 191.691,211.118 202.5,208C 213.231,206.96 223.898,205.46 234.5,203.5C 235.5,203.833 236.5,204.167 237.5,204.5C 238.482,207.096 239.149,209.762 239.5,212.5 Z"/></g>
<g><path style="opacity:0.996" fill="#346f21" d="M 322.5,233.5 C 319.255,236.24 316.089,239.24 313,242.5C 295.588,273.79 273.088,300.957 245.5,324C 219.217,342.964 189.883,355.464 157.5,361.5C 155.864,358.268 156.864,356.101 160.5,355C 198.161,342.094 230.661,321.26 258,292.5C 270.159,276.183 281.826,259.516 293,242.5C 294.52,237.406 296.187,232.406 298,227.5C 298.333,223.833 298.667,220.167 299,216.5C 301.497,214.522 304.331,214.022 307.5,215C 312.279,218.478 316.779,222.311 321,226.5C 322.202,228.677 322.702,231.011 322.5,233.5 Z"/></g>
<g><path style="opacity:0.996" fill="#827d43" d="M 239.5,212.5 C 240.776,214.562 241.61,216.896 242,219.5C 242.827,232.007 242.66,244.34 241.5,256.5C 241.942,241.743 241.276,227.076 239.5,212.5 Z"/></g>
<g><path style="opacity:0.769" fill="#decdad" d="M 37.5,221.5 C 38.3764,221.369 39.0431,221.702 39.5,222.5C 36.1454,227.638 34.8121,233.304 35.5,239.5C 34.7784,239.082 34.2784,238.416 34,237.5C 33.3333,234.167 33.3333,230.833 34,227.5C 35.4424,225.609 36.6091,223.609 37.5,221.5 Z"/></g>
<g><path style="opacity:0.996" fill="#346f22" d="M 204.5,254.5 C 201.896,260.363 198.73,266.03 195,271.5C 191.793,276.885 187.293,280.551 181.5,282.5C 178.59,282.58 176.923,281.247 176.5,278.5C 175.189,274.317 175.189,269.984 176.5,265.5C 183.617,254.713 190.284,243.547 196.5,232C 197.5,231.333 198.5,231.333 199.5,232C 205.559,238.339 207.226,245.839 204.5,254.5 Z"/></g>
<g><path style="opacity:0.996" fill="#928348" d="M 259.5,217.5 C 259.196,220.522 258.696,223.522 258,226.5C 257.831,242.005 257.331,257.339 256.5,272.5C 256.333,256.497 256.5,240.497 257,224.5C 256.97,221.639 257.803,219.305 259.5,217.5 Z"/></g>
<g><path style="opacity:0.995" fill="#211d18" d="M 40.5,247.5 C 43.0283,249.89 44.5283,252.89 45,256.5C 46.4893,261.289 46.656,265.956 45.5,270.5C 43.4364,267.456 41.4364,264.456 39.5,261.5C 39.3639,258.65 39.0305,255.817 38.5,253C 38.3932,250.779 39.0598,248.946 40.5,247.5 Z"/></g>
<g><path style="opacity:0.169" fill="#cbc7c1" d="M 35.5,239.5 C 38.1379,241.418 39.8046,244.085 40.5,247.5C 39.0598,248.946 38.3932,250.779 38.5,253C 39.0305,255.817 39.3639,258.65 39.5,261.5C 36.0565,256.966 35.7231,252.132 38.5,247C 36.8069,244.78 35.8069,242.28 35.5,239.5 Z"/></g>
<g><path style="opacity:0.335" fill="#e2d7c1" d="M 435.5,231.5 C 443.38,239.425 444.38,248.092 438.5,257.5C 442.208,259.626 442.374,261.959 439,264.5C 438.379,272.007 437.546,279.341 436.5,286.5C 436.284,278.075 436.95,269.742 438.5,261.5C 437.5,260.167 436.5,258.833 435.5,257.5C 438.945,255.375 440.611,252.209 440.5,248C 439.733,242.2 438.066,236.7 435.5,231.5 Z"/></g>
<g><path style="opacity:0.996" fill="#43453a" d="M 204.5,254.5 C 201.421,265.488 196.087,275.321 188.5,284C 180.901,289.936 176.901,288.102 176.5,278.5C 176.923,281.247 178.59,282.58 181.5,282.5C 187.293,280.551 191.793,276.885 195,271.5C 198.73,266.03 201.896,260.363 204.5,254.5 Z"/></g>
<g><path style="opacity:0.114" fill="#e1d7c7" d="M 39.5,261.5 C 41.4364,264.456 43.4364,267.456 45.5,270.5C 46.3666,283.819 47.3666,297.153 48.5,310.5C 46.4513,297.708 44.9513,284.708 44,271.5C 41.8156,268.48 40.3156,265.147 39.5,261.5 Z"/></g>
<g><path style="opacity:0.996" fill="#4e4d3c" d="M 256.5,272.5 C 256.239,277.111 255.072,281.444 253,285.5C 251.395,288.89 248.895,289.89 245.5,288.5C 241.929,285.691 240.262,282.025 240.5,277.5C 242.268,279.508 243.934,281.674 245.5,284C 246.833,284.667 248.167,284.667 249.5,284C 251.937,280.123 254.271,276.29 256.5,272.5 Z"/></g>
<g><path style="opacity:0.997" fill="#080705" d="M 432.5,294.5 C 432.66,299.566 432.16,304.566 431,309.5C 421.71,327.475 412.377,345.475 403,363.5C 401.801,366.726 401.301,370.059 401.5,373.5C 398.729,373.421 396.063,373.921 393.5,375C 387.5,382.333 380.833,389 373.5,395C 354.55,406.641 336.883,419.974 320.5,435C 317.593,435.854 315.26,435.021 313.5,432.5C 312.146,433.854 310.812,435.188 309.5,436.5C 300.469,437.665 291.469,437.332 282.5,435.5C 275.146,435.479 267.813,435.813 260.5,436.5C 248.751,438.073 237.084,437.74 225.5,435.5C 222.859,434.737 220.192,434.57 217.5,435C 202.915,444.416 187.581,445.916 171.5,439.5C 169.493,437.163 166.827,435.829 163.5,435.5C 162.07,434.463 160.403,433.796 158.5,433.5C 158.631,432.624 158.298,431.957 157.5,431.5C 153.246,429.536 148.912,427.869 144.5,426.5C 143.71,425.206 142.71,424.039 141.5,423C 137.736,421.221 134.069,419.388 130.5,417.5C 124.573,412.718 118.907,407.718 113.5,402.5C 112.839,399.213 112.339,395.88 112,392.5C 111.167,391.667 110.333,390.833 109.5,390C 105.249,388.805 100.915,388.305 96.5,388.5C 96.5,386.833 96.5,385.167 96.5,383.5C 94.1667,383.5 91.8333,383.5 89.5,383.5C 87.7938,378.132 84.1272,374.798 78.5,373.5C 73.9071,368.715 69.0738,364.048 64,359.5C 63.6664,357.153 63.833,354.819 64.5,352.5C 62.4176,352.528 60.5843,351.861 59,350.5C 56.9104,346.401 55.7438,342.067 55.5,337.5C 54.9862,335.488 54.8195,333.488 55,331.5C 55.7083,332.381 56.5416,333.047 57.5,333.5C 58.5,333.5 59.5,333.5 60.5,333.5C 59.9862,335.512 59.8195,337.512 60,339.5C 66.0067,346.848 73.1734,352.681 81.5,357C 83.8745,359.039 85.8745,361.372 87.5,364C 89.1341,364.494 90.8008,364.66 92.5,364.5C 92.5,366.167 92.5,367.833 92.5,369.5C 98.5617,369.179 104.228,370.512 109.5,373.5C 109.946,378.722 111.779,383.389 115,387.5C 134.203,403.851 155.703,416.184 179.5,424.5C 182.526,426.019 185.859,426.685 189.5,426.5C 192.025,426.497 194.359,426.163 196.5,425.5C 203.643,423.947 210.309,421.114 216.5,417C 219.98,416.537 223.314,417.037 226.5,418.5C 231.58,420.015 236.914,420.682 242.5,420.5C 246.349,420.499 250.016,420.165 253.5,419.5C 266.506,416.958 279.506,416.958 292.5,419.5C 295.617,420.579 298.95,421.246 302.5,421.5C 304.883,421.639 306.883,420.972 308.5,419.5C 310.456,417.886 312.456,416.219 314.5,414.5C 316.592,417.152 319.258,417.986 322.5,417C 327.532,411.633 332.865,406.633 338.5,402C 351.167,393.333 363.833,384.667 376.5,376C 383.342,368.991 390.342,362.158 397.5,355.5C 400.096,354.735 402.763,354.401 405.5,354.5C 405.368,351.43 405.701,348.43 406.5,345.5C 414.91,328.347 423.577,311.347 432.5,294.5 Z"/></g>
<g><path style="opacity:0.149" fill="#d7d3ca" d="M 48.5,310.5 C 49.6935,310.97 50.3601,311.97 50.5,313.5C 51.087,317.868 51.7537,322.201 52.5,326.5C 52.6459,330.387 53.3126,334.054 54.5,337.5C 54.5,338.833 54.5,340.167 54.5,341.5C 53.2237,339.438 52.3903,337.104 52,334.5C 50.507,326.534 49.3403,318.534 48.5,310.5 Z"/></g>
<g><path style="opacity:0.996" fill="#3e4239" d="M 322.5,233.5 C 322.66,235.199 322.494,236.866 322,238.5C 314.626,244.92 308.959,252.587 305,261.5C 291.59,280.902 276.757,299.069 260.5,316C 235.691,338.496 207.025,353.829 174.5,362C 168.944,363.64 163.278,364.473 157.5,364.5C 157.5,363.5 157.5,362.5 157.5,361.5C 189.883,355.464 219.217,342.964 245.5,324C 273.088,300.957 295.588,273.79 313,242.5C 316.089,239.24 319.255,236.24 322.5,233.5 Z"/></g>
<g><path style="opacity:0.882" fill="#423e38" d="M 52.5,326.5 C 54.5475,328.55 56.2141,330.883 57.5,333.5C 56.5416,333.047 55.7083,332.381 55,331.5C 54.8195,333.488 54.9862,335.488 55.5,337.5C 55.1667,337.5 54.8333,337.5 54.5,337.5C 53.3126,334.054 52.6459,330.387 52.5,326.5 Z"/></g>
<g><path style="opacity:0.996" fill="#5e4c2a" d="M 406.5,345.5 C 405.701,348.43 405.368,351.43 405.5,354.5C 402.763,354.401 400.096,354.735 397.5,355.5C 397.611,354.883 397.944,354.383 398.5,354C 400.473,353.505 402.473,353.338 404.5,353.5C 404.337,351.143 404.503,348.81 405,346.5C 405.383,345.944 405.883,345.611 406.5,345.5 Z"/></g>
<g><path style="opacity:0.012" fill="#a8a8a8" d="M 54.5,337.5 C 54.8333,337.5 55.1667,337.5 55.5,337.5C 55.7438,342.067 56.9104,346.401 59,350.5C 60.5843,351.861 62.4176,352.528 64.5,352.5C 63.833,354.819 63.6664,357.153 64,359.5C 69.0738,364.048 73.9071,368.715 78.5,373.5C 72.2549,369.758 66.7549,365.092 62,359.5C 61.6667,357.833 61.3333,356.167 61,354.5C 56.6997,351.233 54.5331,346.899 54.5,341.5C 54.5,340.167 54.5,338.833 54.5,337.5 Z"/></g>
<g><path style="opacity:0.067" fill="#b2b2b2" d="M 78.5,373.5 C 84.1272,374.798 87.7938,378.132 89.5,383.5C 90.9516,384.302 92.6183,384.802 94.5,385C 95.3802,386.356 95.7135,387.856 95.5,389.5C 94.7515,388.469 94.0848,387.302 93.5,386C 91.7444,385.798 90.0777,385.298 88.5,384.5C 86.5065,379.511 83.1731,375.844 78.5,373.5 Z"/></g>
<g><path style="opacity:0.643" fill="#828282" d="M 89.5,383.5 C 91.8333,383.5 94.1667,383.5 96.5,383.5C 96.5,385.167 96.5,386.833 96.5,388.5C 100.915,388.305 105.249,388.805 109.5,390C 110.333,390.833 111.167,391.667 112,392.5C 112.339,395.88 112.839,399.213 113.5,402.5C 112.883,402.389 112.383,402.056 112,401.5C 111.782,398.574 111.282,395.74 110.5,393C 105.53,391.185 100.53,390.018 95.5,389.5C 95.7135,387.856 95.3802,386.356 94.5,385C 92.6183,384.802 90.9516,384.302 89.5,383.5 Z"/></g>
<g><path style="opacity:0.184" fill="#9f9f9f" d="M 113.5,402.5 C 118.907,407.718 124.573,412.718 130.5,417.5C 123.429,414.125 117.762,409.125 113.5,402.5 Z"/></g>
<g><path style="opacity:0.357" fill="#a5a5a5" d="M 433.5,294.5 C 434.091,299.7 433.924,305.034 433,310.5C 423.652,328.531 414.318,346.531 405,364.5C 403.801,367.726 403.301,371.059 403.5,374.5C 400.276,374.203 397.276,374.87 394.5,376.5C 378.687,393.823 360.687,408.323 340.5,420C 333.571,424.925 327.238,430.592 321.5,437C 318.83,437.543 316.33,437.043 314,435.5C 312.14,437.201 309.973,438.201 307.5,438.5C 308.167,437.833 308.833,437.167 309.5,436.5C 310.812,435.188 312.146,433.854 313.5,432.5C 315.26,435.021 317.593,435.854 320.5,435C 336.883,419.974 354.55,406.641 373.5,395C 380.833,389 387.5,382.333 393.5,375C 396.063,373.921 398.729,373.421 401.5,373.5C 401.301,370.059 401.801,366.726 403,363.5C 412.377,345.475 421.71,327.475 431,309.5C 432.16,304.566 432.66,299.566 432.5,294.5C 432.833,291.833 433.167,291.833 433.5,294.5 Z"/></g>
<g><path style="opacity:0.2" fill="#9f9f9f" d="M 130.5,417.5 C 134.069,419.388 137.736,421.221 141.5,423C 142.71,424.039 143.71,425.206 144.5,426.5C 139.179,424.507 134.512,421.507 130.5,417.5 Z"/></g>
<g><path style="opacity:0.996" fill="#4e3f23" d="M 226.5,418.5 C 235.485,419.166 244.485,419.499 253.5,419.5C 250.016,420.165 246.349,420.499 242.5,420.5C 236.914,420.682 231.58,420.015 226.5,418.5 Z"/></g>
<g><path style="opacity:0.996" fill="#5e4c2a" d="M 292.5,419.5 C 297.833,419.5 303.167,419.5 308.5,419.5C 306.883,420.972 304.883,421.639 302.5,421.5C 298.95,421.246 295.617,420.579 292.5,419.5 Z"/></g>
<g><path style="opacity:0.996" fill="#4e3f23" d="M 179.5,424.5 C 185.138,425.22 190.804,425.553 196.5,425.5C 194.359,426.163 192.025,426.497 189.5,426.5C 185.859,426.685 182.526,426.019 179.5,424.5 Z"/></g>
<g><path style="opacity:0.053" fill="#999999" d="M 144.5,426.5 C 148.912,427.869 153.246,429.536 157.5,431.5C 158.298,431.957 158.631,432.624 158.5,433.5C 153.358,432.002 148.691,429.668 144.5,426.5 Z"/></g>
<g><path style="opacity:0.061" fill="#b2b2b2" d="M 158.5,433.5 C 160.403,433.796 162.07,434.463 163.5,435.5C 161.302,435.88 159.635,435.213 158.5,433.5 Z"/></g>
<g><path style="opacity:0.399" fill="#cacaca" d="M 282.5,435.5 C 285.408,436.816 288.408,437.816 291.5,438.5C 279.173,437.306 266.839,437.306 254.5,438.5C 256.5,437.833 258.5,437.167 260.5,436.5C 267.813,435.813 275.146,435.479 282.5,435.5 Z"/></g>
<g><path style="opacity:0.067" fill="#a9a9a9" d="M 163.5,435.5 C 166.827,435.829 169.493,437.163 171.5,439.5C 168.246,439.206 165.579,437.873 163.5,435.5 Z"/></g>
<g><path style="opacity:0.276" fill="#807f7f" d="M 225.5,435.5 C 237.084,437.74 248.751,438.073 260.5,436.5C 258.5,437.167 256.5,437.833 254.5,438.5C 244.972,440.005 235.638,439.672 226.5,437.5C 226.167,436.833 225.833,436.167 225.5,435.5 Z"/></g>
<g><path style="opacity:0.718" fill="#535353" d="M 282.5,435.5 C 291.469,437.332 300.469,437.665 309.5,436.5C 308.833,437.167 308.167,437.833 307.5,438.5C 302.5,438.5 297.5,438.5 292.5,438.5C 292.167,438.5 291.833,438.5 291.5,438.5C 288.408,437.816 285.408,436.816 282.5,435.5 Z"/></g>
<g><path style="opacity:0.422" fill="#b2b2b2" d="M 292.5,438.5 C 297.5,438.5 302.5,438.5 307.5,438.5C 306.088,439.533 304.422,440.199 302.5,440.5C 298.998,439.989 295.665,439.322 292.5,438.5 Z"/></g>
<g><path style="opacity:0.231" fill="#b2b2b2" d="M 225.5,435.5 C 225.833,436.167 226.167,436.833 226.5,437.5C 224.45,437.039 222.45,436.372 220.5,435.5C 207.264,444.643 192.931,447.143 177.5,443C 175.273,442.059 173.273,440.892 171.5,439.5C 187.581,445.916 202.915,444.416 217.5,435C 220.192,434.57 222.859,434.737 225.5,435.5 Z"/></g>
</svg>
