<?xml version="1.0" encoding="UTF-8"?>
<!DOCTYPE svg PUBLIC "-//W3C//DTD SVG 1.1//EN" "http://www.w3.org/Graphics/SVG/1.1/DTD/svg11.dtd">
<svg xmlns="http://www.w3.org/2000/svg" version="1.1" width="468px" height="464px" style="shape-rendering:geometricPrecision; text-rendering:geometricPrecision; image-rendering:optimizeQuality; fill-rule:evenodd; clip-rule:evenodd" xmlns:xlink="http://www.w3.org/1999/xlink">
<g><path style="opacity:0.996" fill="#b59352" d="M 311.5,63.5 C 318.334,67.4693 325.334,71.3027 332.5,75C 339.143,79.6342 345.81,84.3008 352.5,89C 357.851,94.1566 361.184,100.323 362.5,107.5C 367.516,110.07 372.849,111.07 378.5,110.5C 378.5,112.167 378.5,113.833 378.5,115.5C 383.05,114.724 385.716,116.558 386.5,121C 393.554,125.187 400.221,129.853 406.5,135C 408.333,136.833 410.167,138.667 412,140.5C 412.624,142.464 412.124,144.131 410.5,145.5C 412.243,147.038 414.243,148.038 416.5,148.5C 417.426,153.538 419.093,158.205 421.5,162.5C 421.724,169.237 422.558,175.904 424,182.5C 424.333,194.167 424.667,205.833 425,217.5C 425.221,222.365 427.054,226.365 430.5,229.5C 431.462,234.437 433.295,239.103 436,243.5C 437.582,249.097 436.082,253.597 431.5,257C 432.217,258.531 433.217,259.864 434.5,261C 433.852,262.44 433.519,263.94 433.5,265.5C 431.692,266.918 431.025,268.918 431.5,271.5C 431.972,279.386 430.972,287.052 428.5,294.5C 427.624,294.369 426.957,294.702 426.5,295.5C 418.246,312.342 409.746,329.009 401,345.5C 400.503,348.146 400.336,350.813 400.5,353.5C 398.143,353.337 395.81,353.503 393.5,354C 375.729,372.873 355.729,388.873 333.5,402C 327.865,406.633 322.532,411.633 317.5,417C 316.167,417.667 314.833,417.667 313.5,417C 312.601,415.764 311.434,414.93 310,414.5C 307.853,416.478 305.353,417.811 302.5,418.5C 292.015,417.729 281.515,417.063 271,416.5C 264.254,416.28 257.754,416.946 251.5,418.5C 243.344,419.657 235.01,419.823 226.5,419C 223.036,417.346 219.369,416.179 215.5,415.5C 209.189,419.077 202.522,421.743 195.5,423.5C 188.49,424.714 181.49,424.714 174.5,423.5C 157.834,417.106 141.834,409.273 126.5,400C 120.041,395.21 113.874,390.043 108,384.5C 106.19,380.71 105.023,376.71 104.5,372.5C 99.4219,370.213 94.0886,369.046 88.5,369C 87.6198,367.644 87.2865,366.144 87.5,364.5C 85.712,364.785 84.0453,364.452 82.5,363.5C 78.2143,357.843 72.8809,353.343 66.5,350C 62.2902,345.958 58.2902,341.792 54.5,337.5C 54.5288,335.971 55.1955,334.804 56.5,334C 54.9419,333.79 53.6085,333.29 52.5,332.5C 49.8038,328.317 47.8038,323.984 46.5,319.5C 45.3248,311.123 43.8248,302.789 42,294.5C 41.7763,285.787 41.2763,277.12 40.5,268.5C 41.6378,265.696 41.8045,262.696 41,259.5C 40,256.167 39,252.833 38,249.5C 37.1841,248.177 36.0174,247.511 34.5,247.5C 34.6107,246.883 34.944,246.383 35.5,246C 32.374,240.689 30.0407,235.189 28.5,229.5C 28.8333,228.833 29.1667,228.167 29.5,227.5C 33.0752,225.145 34.4085,221.978 33.5,218C 33.6301,216.941 34.1301,216.108 35,215.5C 33.0843,197.717 37.7509,182.051 49,168.5C 49.4955,166.527 49.6621,164.527 49.5,162.5C 51.8916,159.402 54.0583,156.069 56,152.5C 57.1362,150.257 57.9695,147.924 58.5,145.5C 59.3764,145.631 60.0431,145.298 60.5,144.5C 63.9722,138.574 65.9722,132.241 66.5,125.5C 68.5273,125.662 70.5273,125.495 72.5,125C 73.056,124.617 73.3893,124.117 73.5,123.5C 80.11,118.559 86.11,112.892 91.5,106.5C 100.68,100.163 110.013,93.9962 119.5,88C 124.31,84.0252 128.976,79.8585 133.5,75.5C 136.168,73.4995 139.168,71.9995 142.5,71C 145.553,66.0823 149.886,63.5823 155.5,63.5C 155.369,64.3764 155.702,65.0431 156.5,65.5C 160.108,61.5733 164.608,59.9067 170,60.5C 178.963,61.6621 187.963,62.3287 197,62.5C 211.438,60.7431 225.938,60.2431 240.5,61C 243.982,61.9121 247.482,62.7454 251,63.5C 256.686,62.4601 261.853,60.2934 266.5,57C 274.748,54.2113 283.081,53.878 291.5,56C 298.071,58.8008 304.737,61.3008 311.5,63.5 Z"/></g>
<g><path style="opacity:0.314" fill="#e4d6bb" d="M 311.5,63.5 C 304.737,61.3008 298.071,58.8008 291.5,56C 283.081,53.878 274.748,54.2113 266.5,57C 261.853,60.2934 256.686,62.4601 251,63.5C 247.482,62.7454 243.982,61.9121 240.5,61C 225.938,60.2431 211.438,60.7431 197,62.5C 187.963,62.3287 178.963,61.6621 170,60.5C 164.608,59.9067 160.108,61.5733 156.5,65.5C 155.702,65.0431 155.369,64.3764 155.5,63.5C 157.544,62.9688 159.211,61.8022 160.5,60C 163.269,59.1368 166.102,58.6368 169,58.5C 177.847,59.4644 186.68,60.4644 195.5,61.5C 211.456,59.668 227.456,59.168 243.5,60C 246,60.8333 248.5,61.6667 251,62.5C 260.757,56.9337 271.257,53.6004 282.5,52.5C 293.281,53.7435 302.948,57.4102 311.5,63.5 Z"/></g>
<g><path style="opacity:0.949" fill="#ddcba9" d="M 155.5,63.5 C 149.886,63.5823 145.553,66.0823 142.5,71C 139.168,71.9995 136.168,73.4995 133.5,75.5C 138.947,70.2724 144.614,65.2724 150.5,60.5C 152.598,60.9572 154.264,61.9572 155.5,63.5 Z"/></g>
<g><path style="opacity:0.945" fill="#dcc9a7" d="M 133.5,75.5 C 128.976,79.8585 124.31,84.0252 119.5,88C 110.013,93.9962 100.68,100.163 91.5,106.5C 94.2588,102.912 97.5921,99.7456 101.5,97C 112.396,90.0609 123.063,82.8942 133.5,75.5 Z"/></g>
<g><path style="opacity:0.376" fill="#e6dac2" d="M 311.5,63.5 C 331.139,70.6343 347.972,81.9676 362,97.5C 363.289,100.351 363.789,103.351 363.5,106.5C 368.386,107.877 373.386,108.711 378.5,109C 379.772,110.307 380.772,111.807 381.5,113.5C 382.812,112.54 384.146,112.706 385.5,114C 386.708,116.25 388.041,118.417 389.5,120.5C 398.057,125.885 405.89,132.219 413,139.5C 413.333,141.5 413.667,143.5 414,145.5C 415.417,146.078 416.25,147.078 416.5,148.5C 414.243,148.038 412.243,147.038 410.5,145.5C 412.124,144.131 412.624,142.464 412,140.5C 410.167,138.667 408.333,136.833 406.5,135C 400.221,129.853 393.554,125.187 386.5,121C 385.716,116.558 383.05,114.724 378.5,115.5C 378.5,113.833 378.5,112.167 378.5,110.5C 372.849,111.07 367.516,110.07 362.5,107.5C 361.184,100.323 357.851,94.1566 352.5,89C 345.81,84.3008 339.143,79.6342 332.5,75C 325.334,71.3027 318.334,67.4693 311.5,63.5 Z"/></g>
<g><path style="opacity:0.384" fill="#e3d0b1" d="M 91.5,106.5 C 86.11,112.892 80.11,118.559 73.5,123.5C 78.9163,117.08 84.9163,111.413 91.5,106.5 Z"/></g>
<g><path style="opacity:0.996" fill="#336e21" d="M 200.5,135.5 C 197.309,136.092 194.309,137.259 191.5,139C 179.435,148.059 168.269,158.226 158,169.5C 157.409,170.483 157.743,171.15 159,171.5C 160.406,170.586 161.906,169.92 163.5,169.5C 174.757,167.944 185.091,164.111 194.5,158C 203.796,157.992 211.962,161.159 219,167.5C 219.678,169.598 219.511,171.598 218.5,173.5C 214.869,176.629 211.369,179.963 208,183.5C 205.973,187.228 204.807,191.228 204.5,195.5C 205.201,199.587 205.201,203.587 204.5,207.5C 187.3,211.453 169.967,214.787 152.5,217.5C 152.5,219.167 152.5,220.833 152.5,222.5C 152.5,227.833 152.5,233.167 152.5,238.5C 161.831,237.185 171.164,235.352 180.5,233C 185.76,231.369 190.76,229.202 195.5,226.5C 203.355,227.882 210.188,231.216 216,236.5C 216.678,238.598 216.511,240.598 215.5,242.5C 213.484,243.456 211.651,244.79 210,246.5C 208.01,250.184 205.843,253.684 203.5,257C 201.88,259.897 201.547,262.731 202.5,265.5C 203.458,266.962 204.624,268.295 206,269.5C 206.495,271.473 206.662,273.473 206.5,275.5C 201.407,277.525 196.073,279.025 190.5,280C 178.15,280.796 165.816,281.796 153.5,283C 152.577,285.041 152.244,287.208 152.5,289.5C 153.156,298.798 152.156,307.798 149.5,316.5C 145.325,322.041 141.492,321.708 138,315.5C 137.61,312.896 136.776,310.562 135.5,308.5C 136.01,298.789 137.01,289.122 138.5,279.5C 139.663,253.337 139.83,227.003 139,200.5C 138.79,198.942 138.29,197.609 137.5,196.5C 137.448,192.802 137.114,189.135 136.5,185.5C 136.492,180.419 134.825,176.085 131.5,172.5C 130.753,166.933 133.087,165.1 138.5,167C 140.715,167.69 142.882,168.524 145,169.5C 146.711,169.561 148.044,168.894 149,167.5C 157.912,156.263 165.579,144.263 172,131.5C 172.333,128.167 172.667,124.833 173,121.5C 174.864,118.793 177.364,117.959 180.5,119C 188.321,121.158 195.155,124.992 201,130.5C 201.384,132.197 201.218,133.863 200.5,135.5 Z"/></g>
<g><path style="opacity:0.996" fill="#326e21" d="M 291.5,137.5 C 288.09,142.145 286.424,147.478 286.5,153.5C 285.639,165.144 285.305,176.81 285.5,188.5C 286.791,188.737 287.791,188.404 288.5,187.5C 296.765,186.136 304.432,183.302 311.5,179C 321.503,178.668 330.836,181.001 339.5,186C 342.739,188.219 343.406,191.052 341.5,194.5C 337.997,198.031 336.663,202.364 337.5,207.5C 337.365,219.18 337.698,230.846 338.5,242.5C 338.579,247.412 337.912,252.079 336.5,256.5C 334.008,263.534 330.341,270.034 325.5,276C 322.97,277.422 320.303,277.755 317.5,277C 313.168,266.832 306.168,258.999 296.5,253.5C 295.544,252.341 294.544,251.174 293.5,250C 293.645,249.228 293.978,248.561 294.5,248C 300.335,248.309 306.169,249.142 312,250.5C 314.894,250.305 317.061,248.972 318.5,246.5C 321.134,233.128 321.134,219.795 318.5,206.5C 318.135,195.985 312.801,192.151 302.5,195C 296.96,196.812 291.293,197.979 285.5,198.5C 285.5,200.5 285.5,202.5 285.5,204.5C 285.667,241.168 285.5,277.835 285,314.5C 284.3,327.413 282.8,340.079 280.5,352.5C 279.088,354.98 277.422,357.313 275.5,359.5C 273.432,356.794 272.099,353.794 271.5,350.5C 270.997,301.335 270.33,252.335 269.5,203.5C 260.909,205.109 252.243,206.442 243.5,207.5C 243.5,209.5 243.5,211.5 243.5,213.5C 243.5,213.833 243.5,214.167 243.5,214.5C 245.076,234.222 244.743,253.889 242.5,273.5C 239.592,280.709 235.425,281.375 230,275.5C 228.205,272.901 226.705,270.234 225.5,267.5C 226.003,261.479 226.669,255.479 227.5,249.5C 228.659,238.007 228.826,226.341 228,214.5C 227,210.833 226,207.167 225,203.5C 224.617,202.944 224.117,202.611 223.5,202.5C 221.174,195.995 223.507,193.829 230.5,196C 233.008,197.819 235.841,198.653 239,198.5C 249.056,197.852 258.89,196.185 268.5,193.5C 268.675,177.818 268.342,162.151 267.5,146.5C 267.649,143.393 267.149,140.393 266,137.5C 263.636,134.31 261.136,131.31 258.5,128.5C 257.232,126.33 257.232,124.163 258.5,122C 270.69,121.347 281.523,124.847 291,132.5C 291.494,134.134 291.66,135.801 291.5,137.5 Z"/></g>
<g><path style="opacity:0.194" fill="#e6dbc4" d="M 73.5,123.5 C 73.3893,124.117 73.056,124.617 72.5,125C 70.5273,125.495 68.5273,125.662 66.5,125.5C 65.9722,132.241 63.9722,138.574 60.5,144.5C 60.0431,145.298 59.3764,145.631 58.5,145.5C 60.7715,140.2 63.1049,134.867 65.5,129.5C 64.5721,128.232 64.4054,126.899 65,125.5C 67.7781,124.675 70.6114,124.008 73.5,123.5 Z"/></g>
<g><path style="opacity:0.996" fill="#3f4538" d="M 258.5,128.5 C 261.136,131.31 263.636,134.31 266,137.5C 267.149,140.393 267.649,143.393 267.5,146.5C 265.401,141.212 262.234,136.545 258,132.5C 257.235,130.934 257.402,129.601 258.5,128.5 Z"/></g>
<g><path style="opacity:0.996" fill="#3e4239" d="M 200.5,135.5 C 201.968,137.611 201.635,139.444 199.5,141C 185.562,148.11 173.562,157.61 163.5,169.5C 161.906,169.92 160.406,170.586 159,171.5C 157.743,171.15 157.409,170.483 158,169.5C 168.269,158.226 179.435,148.059 191.5,139C 194.309,137.259 197.309,136.092 200.5,135.5 Z"/></g>
<g><path style="opacity:0.996" fill="#455534" d="M 291.5,137.5 C 291.702,139.95 291.369,142.283 290.5,144.5C 289.017,147.433 287.683,150.433 286.5,153.5C 286.424,147.478 288.09,142.145 291.5,137.5 Z"/></g>
<g><path style="opacity:0.525" fill="#e7d8c1" d="M 58.5,145.5 C 57.9695,147.924 57.1362,150.257 56,152.5C 54.0583,156.069 51.8916,159.402 49.5,162.5C 51.7545,156.319 54.7545,150.652 58.5,145.5 Z"/></g>
<g><path style="opacity:0.122" fill="#e7dbbf" d="M 416.5,148.5 C 417.458,148.953 418.292,149.619 419,150.5C 420.148,154.453 420.982,158.453 421.5,162.5C 419.093,158.205 417.426,153.538 416.5,148.5 Z"/></g>
<g><path style="opacity:0.996" fill="#3c4039" d="M 191.5,181.5 C 178.352,180.89 165.352,182.557 152.5,186.5C 152.244,184.208 152.577,182.041 153.5,180C 166.015,176.853 178.682,175.186 191.5,175C 192.811,177.274 192.811,179.44 191.5,181.5 Z"/></g>
<g><path style="opacity:0.996" fill="#414439" d="M 218.5,173.5 C 219.666,175.166 219.666,176.833 218.5,178.5C 216.146,181.688 213.312,184.355 210,186.5C 208.141,189.564 206.308,192.564 204.5,195.5C 204.807,191.228 205.973,187.228 208,183.5C 211.369,179.963 214.869,176.629 218.5,173.5 Z"/></g>
<g><path style="opacity:0.996" fill="#8a8145" d="M 290.5,144.5 C 289.659,150.868 288.492,157.202 287,163.5C 286.833,167.5 286.667,171.5 286.5,175.5C 286.509,179.893 287.176,183.893 288.5,187.5C 287.791,188.404 286.791,188.737 285.5,188.5C 285.305,176.81 285.639,165.144 286.5,153.5C 287.683,150.433 289.017,147.433 290.5,144.5 Z"/></g>
<g><path style="opacity:0.996" fill="#474b39" d="M 131.5,172.5 C 134.825,176.085 136.492,180.419 136.5,185.5C 132.987,181.951 131.321,177.618 131.5,172.5 Z"/></g>
<g><path style="opacity:0.996" fill="#b29151" d="M 191.5,181.5 C 191.318,187.257 190.485,192.924 189,198.5C 188.167,199.333 187.333,200.167 186.5,201C 175.232,204.149 163.898,206.982 152.5,209.5C 152.5,201.833 152.5,194.167 152.5,186.5C 165.352,182.557 178.352,180.89 191.5,181.5 Z"/></g>
<g><path style="opacity:0.996" fill="#3e4139" d="M 318.5,206.5 C 317.053,205.378 316.053,203.878 315.5,202C 313.13,200.964 310.63,200.464 308,200.5C 300.433,201.524 292.933,202.857 285.5,204.5C 285.5,202.5 285.5,200.5 285.5,198.5C 291.293,197.979 296.96,196.812 302.5,195C 312.801,192.151 318.135,195.985 318.5,206.5 Z"/></g>
<g><path style="opacity:0.996" fill="#494d39" d="M 341.5,194.5 C 340.922,199.165 339.589,203.499 337.5,207.5C 336.663,202.364 337.997,198.031 341.5,194.5 Z"/></g>
<g><path style="opacity:0.108" fill="#f5f0e6" d="M 35.5,191.5 C 34.8082,199.142 34.3082,206.808 34,214.5C 33.6174,215.056 33.1174,215.389 32.5,215.5C 33.2648,208.214 33.7648,200.881 34,193.5C 34.2784,192.584 34.7784,191.918 35.5,191.5 Z"/></g>
<g><path style="opacity:0.763" fill="#ddcbab" d="M 49.5,162.5 C 49.6621,164.527 49.4955,166.527 49,168.5C 37.7509,182.051 33.0843,197.717 35,215.5C 34.1301,216.108 33.6301,216.941 33.5,218C 34.4085,221.978 33.0752,225.145 29.5,227.5C 30.2423,225.574 31.2423,223.741 32.5,222C 28.5611,219.681 28.5611,217.514 32.5,215.5C 33.1174,215.389 33.6174,215.056 34,214.5C 34.3082,206.808 34.8082,199.142 35.5,191.5C 38.8746,181.087 43.5413,171.421 49.5,162.5 Z"/></g>
<g><path style="opacity:0.996" fill="#3c3f39" d="M 269.5,203.5 C 269.5,205.5 269.5,207.5 269.5,209.5C 260.71,210.108 252.044,211.441 243.5,213.5C 243.5,211.5 243.5,209.5 243.5,207.5C 252.243,206.442 260.909,205.109 269.5,203.5 Z"/></g>
<g><path style="opacity:0.294" fill="#e4d6bd" d="M 421.5,162.5 C 423.498,169.596 424.998,176.929 426,184.5C 426.972,196.816 427.638,209.149 428,221.5C 428.941,224.154 429.774,226.821 430.5,229.5C 427.054,226.365 425.221,222.365 425,217.5C 424.667,205.833 424.333,194.167 424,182.5C 422.558,175.904 421.724,169.237 421.5,162.5 Z"/></g>
<g><path style="opacity:0.996" fill="#3c3e39" d="M 204.5,207.5 C 205.092,210.631 204.092,212.964 201.5,214.5C 189.56,216.198 177.893,218.531 166.5,221.5C 161.786,221.353 157.119,221.686 152.5,222.5C 152.5,220.833 152.5,219.167 152.5,217.5C 169.967,214.787 187.3,211.453 204.5,207.5 Z"/></g>
<g><path style="opacity:0.996" fill="#4d6532" d="M 223.5,202.5 C 224.117,202.611 224.617,202.944 225,203.5C 226,207.167 227,210.833 228,214.5C 228.826,226.341 228.659,238.007 227.5,249.5C 227.666,239.828 227.5,230.161 227,220.5C 225.803,214.402 224.637,208.402 223.5,202.5 Z"/></g>
<g><path style="opacity:0.996" fill="#8e8046" d="M 269.5,209.5 C 269.5,234.5 269.5,259.5 269.5,284.5C 268.502,260.006 268.169,235.339 268.5,210.5C 265.09,210.457 261.757,210.957 258.5,212C 258.833,212.333 259.167,212.667 259.5,213C 254.146,213.391 248.812,213.891 243.5,214.5C 243.5,214.167 243.5,213.833 243.5,213.5C 252.044,211.441 260.71,210.108 269.5,209.5 Z"/></g>
<g><path style="opacity:0.996" fill="#826e48" d="M 201.5,214.5 C 201.389,215.117 201.056,215.617 200.5,216C 189.135,217.79 177.801,219.623 166.5,221.5C 177.893,218.531 189.56,216.198 201.5,214.5 Z"/></g>
<g><path style="opacity:0.996" fill="#8b8245" d="M 137.5,196.5 C 138.29,197.609 138.79,198.942 139,200.5C 139.83,227.003 139.663,253.337 138.5,279.5C 138.752,251.82 138.419,224.153 137.5,196.5 Z"/></g>
<g><path style="opacity:0.996" fill="#3c4039" d="M 190.5,249.5 C 188.924,248.925 187.258,248.592 185.5,248.5C 174.461,250.228 163.461,251.895 152.5,253.5C 152.261,251.533 152.594,249.699 153.5,248C 164.124,246.141 174.791,244.307 185.5,242.5C 187.1,242.551 188.6,242.884 190,243.5C 190.495,245.473 190.662,247.473 190.5,249.5 Z"/></g>
<g><path style="opacity:0.996" fill="#404439" d="M 215.5,242.5 C 215.328,247.209 213.161,250.875 209,253.5C 206.733,257.485 204.567,261.485 202.5,265.5C 201.547,262.731 201.88,259.897 203.5,257C 205.843,253.684 208.01,250.184 210,246.5C 211.651,244.79 213.484,243.456 215.5,242.5 Z"/></g>
<g><path style="opacity:0.996" fill="#1c1915" d="M 34.5,247.5 C 36.0174,247.511 37.1841,248.177 38,249.5C 39,252.833 40,256.167 41,259.5C 41.8045,262.696 41.6378,265.696 40.5,268.5C 38.3596,264.897 36.193,261.23 34,257.5C 33.4572,254.132 33.6239,250.799 34.5,247.5 Z"/></g>
<g><path style="opacity:0.996" fill="#b09151" d="M 190.5,249.5 C 190.968,263.868 183.968,271.368 169.5,272C 163.871,273.16 158.204,273.993 152.5,274.5C 152.5,267.5 152.5,260.5 152.5,253.5C 163.461,251.895 174.461,250.228 185.5,248.5C 187.258,248.592 188.924,248.925 190.5,249.5 Z"/></g>
<g><path style="opacity:0.996" fill="#42443a" d="M 296.5,253.5 C 306.168,258.999 313.168,266.832 317.5,277C 320.303,277.755 322.97,277.422 325.5,276C 330.341,270.034 334.008,263.534 336.5,256.5C 335.65,266.217 331.983,274.717 325.5,282C 322.135,284.157 318.968,283.991 316,281.5C 311.525,271.187 304.359,263.187 294.5,257.5C 293.059,255.167 293.725,253.834 296.5,253.5 Z"/></g>
<g><path style="opacity:0.98" fill="#564c39" d="M 433.5,265.5 C 433.975,268.082 433.308,270.082 431.5,271.5C 431.025,268.918 431.692,266.918 433.5,265.5 Z"/></g>
<g><path style="opacity:0.033" fill="#e6ddcf" d="M 430.5,229.5 C 436.117,235.742 438.617,243.075 438,251.5C 436.833,253.333 435.667,255.167 434.5,257C 436.884,259.024 437.051,261.191 435,263.5C 434.896,274.364 433.063,284.864 429.5,295C 429.645,295.772 429.978,296.439 430.5,297C 429.707,300.411 429.207,303.911 429,307.5C 428.295,310.476 427.129,313.142 425.5,315.5C 425.833,313.5 426.167,311.5 426.5,309.5C 428.145,304.766 428.811,299.766 428.5,294.5C 430.972,287.052 431.972,279.386 431.5,271.5C 433.308,270.082 433.975,268.082 433.5,265.5C 433.519,263.94 433.852,262.44 434.5,261C 433.217,259.864 432.217,258.531 431.5,257C 436.082,253.597 437.582,249.097 436,243.5C 433.295,239.103 431.462,234.437 430.5,229.5 Z"/></g>
<g><path style="opacity:0.996" fill="#43463a" d="M 225.5,267.5 C 226.705,270.234 228.205,272.901 230,275.5C 235.425,281.375 239.592,280.709 242.5,273.5C 242.567,277.686 241.567,281.519 239.5,285C 237.5,285.667 235.5,285.667 233.5,285C 229.041,279.92 226.375,274.087 225.5,267.5 Z"/></g>
<g><path style="opacity:0.996" fill="#3d4039" d="M 206.5,275.5 C 207.363,279.162 206.03,281.328 202.5,282C 185.965,285.687 169.298,288.187 152.5,289.5C 152.244,287.208 152.577,285.041 153.5,283C 165.816,281.796 178.15,280.796 190.5,280C 196.073,279.025 201.407,277.525 206.5,275.5 Z"/></g>
<g><path style="opacity:0.996" fill="#577332" d="M 269.5,203.5 C 270.33,252.335 270.997,301.335 271.5,350.5C 269.995,328.684 269.329,306.684 269.5,284.5C 269.5,259.5 269.5,234.5 269.5,209.5C 269.5,207.5 269.5,205.5 269.5,203.5 Z"/></g>
<g><path style="opacity:0.997" fill="#090806" d="M 428.5,294.5 C 428.811,299.766 428.145,304.766 426.5,309.5C 417.48,327.705 407.98,345.705 398,363.5C 397.502,366.482 397.335,369.482 397.5,372.5C 394.193,372.063 391.193,372.73 388.5,374.5C 373.172,391.508 355.506,405.675 335.5,417C 328.978,422.432 322.645,428.099 316.5,434C 313.582,434.716 310.915,434.216 308.5,432.5C 305.466,436.347 301.466,438.014 296.5,437.5C 290.954,436.106 285.288,435.439 279.5,435.5C 271.833,435.5 264.167,435.5 256.5,435.5C 245.165,436.773 233.831,436.773 222.5,435.5C 219.772,433.924 216.772,433.424 213.5,434C 208.984,436.097 204.65,438.263 200.5,440.5C 197.848,440.41 195.515,441.076 193.5,442.5C 186.46,442.587 179.46,442.087 172.5,441C 161.917,434.971 150.917,429.804 139.5,425.5C 138.71,424.206 137.71,423.039 136.5,422C 132.811,420.156 129.145,418.322 125.5,416.5C 125.027,415.094 124.027,414.427 122.5,414.5C 121.738,412.738 120.404,411.738 118.5,411.5C 115.727,408.548 113.06,405.382 110.5,402C 108.329,398.64 106.995,394.973 106.5,391C 101.705,388.967 96.7046,388.134 91.5,388.5C 91.5,386.5 91.5,384.5 91.5,382.5C 89.4727,382.662 87.4727,382.495 85.5,382C 83.5,379.667 81.5,377.333 79.5,375C 71.8045,370.569 64.9711,365.069 59,358.5C 58.2571,356.559 58.4238,354.726 59.5,353C 56.8838,351.388 54.5505,349.388 52.5,347C 51.5514,343.355 50.5514,339.855 49.5,336.5C 49.3379,334.473 49.5045,332.473 50,330.5C 50.7083,331.381 51.5416,332.047 52.5,332.5C 53.6085,333.29 54.9419,333.79 56.5,334C 55.1955,334.804 54.5288,335.971 54.5,337.5C 58.2902,341.792 62.2902,345.958 66.5,350C 72.8809,353.343 78.2143,357.843 82.5,363.5C 84.0453,364.452 85.712,364.785 87.5,364.5C 87.2865,366.144 87.6198,367.644 88.5,369C 94.0886,369.046 99.4219,370.213 104.5,372.5C 105.023,376.71 106.19,380.71 108,384.5C 113.874,390.043 120.041,395.21 126.5,400C 141.834,409.273 157.834,417.106 174.5,423.5C 177.526,425.019 180.859,425.685 184.5,425.5C 188.447,425.637 192.114,424.97 195.5,423.5C 202.522,421.743 209.189,419.077 215.5,415.5C 219.369,416.179 223.036,417.346 226.5,419C 235.01,419.823 243.344,419.657 251.5,418.5C 266.964,416.678 282.298,417.344 297.5,420.5C 298.833,420.333 300.167,420.167 301.5,420C 302.056,419.617 302.389,419.117 302.5,418.5C 305.353,417.811 307.853,416.478 310,414.5C 311.434,414.93 312.601,415.764 313.5,417C 314.833,417.667 316.167,417.667 317.5,417C 322.532,411.633 327.865,406.633 333.5,402C 355.729,388.873 375.729,372.873 393.5,354C 395.81,353.503 398.143,353.337 400.5,353.5C 400.336,350.813 400.503,348.146 401,345.5C 409.746,329.009 418.246,312.342 426.5,295.5C 426.957,294.702 427.624,294.369 428.5,294.5 Z"/></g>
<g><path style="opacity:0.176" fill="#e1dbd0" d="M 28.5,229.5 C 30.0407,235.189 32.374,240.689 35.5,246C 34.944,246.383 34.6107,246.883 34.5,247.5C 33.6239,250.799 33.4572,254.132 34,257.5C 36.193,261.23 38.3596,264.897 40.5,268.5C 41.2763,277.12 41.7763,285.787 42,294.5C 43.8248,302.789 45.3248,311.123 46.5,319.5C 47.1621,323.466 47.4955,327.466 47.5,331.5C 42.7389,311.578 39.9056,291.244 39,270.5C 35.4095,265.319 32.9095,259.652 31.5,253.5C 31.9812,250.917 32.6479,248.417 33.5,246C 29.6536,241.146 27.9869,235.646 28.5,229.5 Z"/></g>
<g><path style="opacity:0.996" fill="#42433a" d="M 135.5,308.5 C 136.776,310.562 137.61,312.896 138,315.5C 141.492,321.708 145.325,322.041 149.5,316.5C 150.037,322.776 147.371,325.942 141.5,326C 137.604,320.811 135.604,314.978 135.5,308.5 Z"/></g>
<g><path style="opacity:0.996" fill="#5d5445" d="M 46.5,319.5 C 47.8038,323.984 49.8038,328.317 52.5,332.5C 51.5416,332.047 50.7083,331.381 50,330.5C 49.5045,332.473 49.3379,334.473 49.5,336.5C 48.8333,334.833 48.1667,333.167 47.5,331.5C 47.4955,327.466 47.1621,323.466 46.5,319.5 Z"/></g>
<g><path style="opacity:0.169" fill="#aeaeae" d="M 426.5,309.5 C 426.167,311.5 425.833,313.5 425.5,315.5C 417.129,332.332 408.629,348.999 400,365.5C 399.782,368.426 399.282,371.26 398.5,374C 394.808,373.996 391.475,374.996 388.5,377C 381.86,384.973 374.527,392.306 366.5,399C 348.912,409.632 332.578,421.966 317.5,436C 314.466,436.66 311.633,436.16 309,434.5C 305.46,438.126 301.126,439.793 296,439.5C 290.393,438.887 284.893,437.887 279.5,436.5C 279.5,436.167 279.5,435.833 279.5,435.5C 285.288,435.439 290.954,436.106 296.5,437.5C 301.466,438.014 305.466,436.347 308.5,432.5C 310.915,434.216 313.582,434.716 316.5,434C 322.645,428.099 328.978,422.432 335.5,417C 355.506,405.675 373.172,391.508 388.5,374.5C 391.193,372.73 394.193,372.063 397.5,372.5C 397.335,369.482 397.502,366.482 398,363.5C 407.98,345.705 417.48,327.705 426.5,309.5 Z"/></g>
<g><path style="opacity:0.996" fill="#47493b" d="M 271.5,350.5 C 272.099,353.794 273.432,356.794 275.5,359.5C 277.422,357.313 279.088,354.98 280.5,352.5C 280.186,355.947 279.352,359.28 278,362.5C 276.89,364.037 275.39,364.703 273.5,364.5C 272.446,359.893 271.779,355.227 271.5,350.5 Z"/></g>
<g><path style="opacity:0.075" fill="#b8b8b8" d="M 47.5,331.5 C 48.1667,333.167 48.8333,334.833 49.5,336.5C 50.5514,339.855 51.5514,343.355 52.5,347C 54.5505,349.388 56.8838,351.388 59.5,353C 58.4238,354.726 58.2571,356.559 59,358.5C 64.9711,365.069 71.8045,370.569 79.5,375C 81.5,377.333 83.5,379.667 85.5,382C 87.4727,382.495 89.4727,382.662 91.5,382.5C 91.5,384.5 91.5,386.5 91.5,388.5C 96.7046,388.134 101.705,388.967 106.5,391C 106.995,394.973 108.329,398.64 110.5,402C 113.06,405.382 115.727,408.548 118.5,411.5C 110.589,407.409 105.922,400.909 104.5,392C 100.012,390.189 95.3457,389.189 90.5,389C 88.682,386.51 86.3487,384.677 83.5,383.5C 82.3649,381.201 81.0316,379.034 79.5,377C 70.2568,371.751 62.2568,365.084 55.5,357C 58.3045,354.315 57.6379,352.648 53.5,352C 49.9069,345.643 47.9069,338.81 47.5,331.5 Z"/></g>
<g><path style="opacity:0.212" fill="#bdbdbd" d="M 118.5,411.5 C 120.404,411.738 121.738,412.738 122.5,414.5C 120.596,414.262 119.262,413.262 118.5,411.5 Z"/></g>
<g><path style="opacity:0.11" fill="#b7b7b7" d="M 122.5,414.5 C 124.027,414.427 125.027,415.094 125.5,416.5C 123.973,416.573 122.973,415.906 122.5,414.5 Z"/></g>
<g><path style="opacity:0.996" fill="#6f5a32" d="M 302.5,418.5 C 302.389,419.117 302.056,419.617 301.5,420C 300.167,420.167 298.833,420.333 297.5,420.5C 282.298,417.344 266.964,416.678 251.5,418.5C 257.754,416.946 264.254,416.28 271,416.5C 281.515,417.063 292.015,417.729 302.5,418.5 Z"/></g>
<g><path style="opacity:0.157" fill="#a9a9a9" d="M 125.5,416.5 C 129.145,418.322 132.811,420.156 136.5,422C 137.71,423.039 138.71,424.206 139.5,425.5C 134.179,423.507 129.512,420.507 125.5,416.5 Z"/></g>
<g><path style="opacity:0.996" fill="#6f5a32" d="M 174.5,423.5 C 181.49,424.714 188.49,424.714 195.5,423.5C 192.114,424.97 188.447,425.637 184.5,425.5C 180.859,425.685 177.526,425.019 174.5,423.5 Z"/></g>
<g><path style="opacity:0.031" fill="#a5a5a5" d="M 139.5,425.5 C 150.917,429.804 161.917,434.971 172.5,441C 179.46,442.087 186.46,442.587 193.5,442.5C 196.152,442.59 198.485,441.924 200.5,440.5C 204.65,438.263 208.984,436.097 213.5,434C 216.772,433.424 219.772,433.924 222.5,435.5C 221.167,435.5 219.833,435.5 218.5,435.5C 211.736,437.7 205.07,440.2 198.5,443C 190.172,444.945 181.838,444.945 173.5,443C 161.635,437.903 150.302,432.07 139.5,425.5 Z"/></g>
<g><path style="opacity:0.055" fill="#dbdbdb" d="M 218.5,435.5 C 219.833,435.5 221.167,435.5 222.5,435.5C 227.58,437.015 232.914,437.682 238.5,437.5C 244.733,437.62 250.733,436.953 256.5,435.5C 264.167,435.5 271.833,435.5 279.5,435.5C 279.5,435.833 279.5,436.167 279.5,436.5C 265.811,436.725 252.145,437.391 238.5,438.5C 234.167,438.333 229.833,438.167 225.5,438C 222.896,437.61 220.562,436.776 218.5,435.5 Z"/></g>
<g><path style="opacity:0.751" fill="#424242" d="M 222.5,435.5 C 233.831,436.773 245.165,436.773 256.5,435.5C 250.733,436.953 244.733,437.62 238.5,437.5C 232.914,437.682 227.58,437.015 222.5,435.5 Z"/></g>
<g><path style="opacity:0.69" fill="#6c6b6b" d="M 200.5,440.5 C 198.485,441.924 196.152,442.59 193.5,442.5C 195.515,441.076 197.848,440.41 200.5,440.5 Z"/></g>
</svg>
