<?xml version="1.0" encoding="UTF-8"?>
<!DOCTYPE svg PUBLIC "-//W3C//DTD SVG 1.1//EN" "http://www.w3.org/Graphics/SVG/1.1/DTD/svg11.dtd">
<svg xmlns="http://www.w3.org/2000/svg" version="1.1" width="464px" height="452px" style="shape-rendering:geometricPrecision; text-rendering:geometricPrecision; image-rendering:optimizeQuality; fill-rule:evenodd; clip-rule:evenodd" xmlns:xlink="http://www.w3.org/1999/xlink">
<g><path style="opacity:0.996" fill="#b59353" d="M 271.5,43.5 C 271.833,43.5 272.167,43.5 272.5,43.5C 281.455,42.4525 289.455,44.6192 296.5,50C 313.125,56.1456 328.791,64.1456 343.5,74C 348.335,78.0035 353.002,82.1702 357.5,86.5C 358.003,89.8458 358.67,93.1792 359.5,96.5C 364.423,99.0894 369.757,100.256 375.5,100C 376.38,101.356 376.714,102.856 376.5,104.5C 378.262,104.357 379.929,104.691 381.5,105.5C 383.131,108.596 385.131,111.43 387.5,114C 392.77,116.402 397.77,119.236 402.5,122.5C 404.403,125.748 406.737,128.748 409.5,131.5C 406.587,133.901 406.921,135.234 410.5,135.5C 411.458,136.962 412.624,138.295 414,139.5C 417.554,150.924 420.054,162.59 421.5,174.5C 421.333,185.172 421.5,195.839 422,206.5C 423.945,215.586 427.612,223.919 433,231.5C 433.717,235.045 433.55,238.545 432.5,242C 430.797,243.37 429.464,245.036 428.5,247C 429.509,248.168 430.509,249.335 431.5,250.5C 430.147,251.524 429.48,252.857 429.5,254.5C 428.612,257.054 428.279,259.721 428.5,262.5C 428.535,269.989 427.535,277.322 425.5,284.5C 424.167,284.5 423.5,285.167 423.5,286.5C 414.832,303.213 406.165,319.879 397.5,336.5C 396.539,338.265 396.205,340.265 396.5,342.5C 394.585,342.216 392.919,342.549 391.5,343.5C 381.784,353.551 371.451,362.884 360.5,371.5C 357.802,371.845 355.802,373.178 354.5,375.5C 339.938,383.96 326.605,394.126 314.5,406C 312.011,406.941 310.011,406.441 308.5,404.5C 305.804,403.431 303.804,404.431 302.5,407.5C 301.167,407.833 299.833,408.167 298.5,408.5C 294.167,408.5 289.833,408.5 285.5,408.5C 277.944,407.12 270.278,406.454 262.5,406.5C 256.611,406.45 250.944,407.116 245.5,408.5C 234.155,409.145 222.988,408.145 212,405.5C 204.36,409.246 196.527,412.246 188.5,414.5C 181.73,414.714 175.063,414.047 168.5,412.5C 146.787,404.395 126.954,393.062 109,378.5C 107,375.833 105,373.167 103,370.5C 102.818,367.774 102.318,365.107 101.5,362.5C 96.5519,359.623 91.2185,358.289 85.5,358.5C 85.5,356.833 85.5,355.167 85.5,353.5C 83.5,353.5 81.5,353.5 79.5,353.5C 78.0939,350.586 76.0939,348.086 73.5,346C 65.2209,341.739 58.0542,335.906 52,328.5C 51.3486,326.765 51.5153,325.098 52.5,323.5C 50.2276,322.866 48.5609,321.532 47.5,319.5C 46.7593,316.703 46.0927,313.87 45.5,311C 45.3158,309.624 44.6491,308.791 43.5,308.5C 39.9267,292.25 37.9267,275.916 37.5,259.5C 37.1667,258.833 36.8333,258.167 36.5,257.5C 37.6453,253.689 37.8119,249.689 37,245.5C 36.5283,241.89 35.0283,238.89 32.5,236.5C 30.4906,231.828 28.4906,227.162 26.5,222.5C 26.5247,218.037 28.1913,214.371 31.5,211.5C 27.7678,209.457 27.6011,207.124 31,204.5C 31.1689,196.116 31.8355,187.782 33,179.5C 35.0836,175.664 37.417,171.997 40,168.5C 46.2833,153.267 53.6166,138.6 62,124.5C 63.1488,121.607 63.6488,118.607 63.5,115.5C 68.1701,116.585 71.1701,114.918 72.5,110.5C 78.5496,105.959 84.2163,100.793 89.5,95C 98.4136,88.7226 107.08,82.2226 115.5,75.5C 118.198,75.1551 120.198,73.8218 121.5,71.5C 123.853,70.6597 125.853,69.3264 127.5,67.5C 131.572,65.7924 134.905,63.1257 137.5,59.5C 140.403,57.3642 143.403,55.1976 146.5,53C 148.931,52.7479 151.265,53.2479 153.5,54.5C 156.684,50.908 160.684,48.908 165.5,48.5C 172.33,50.6533 179.33,51.6533 186.5,51.5C 190.167,51.5 193.833,51.5 197.5,51.5C 200.674,51.9975 204.007,51.9975 207.5,51.5C 221.137,49.576 234.637,50.2426 248,53.5C 249.376,53.3158 250.209,52.6491 250.5,51.5C 250.833,51.5 251.167,51.5 251.5,51.5C 258.333,49.0056 265,46.3389 271.5,43.5 Z"/></g>
<g><path style="opacity:0.412" fill="#eae1ce" d="M 271.5,43.5 C 265,46.3389 258.333,49.0056 251.5,51.5C 253.209,49.187 255.543,47.687 258.5,47C 262.599,44.9104 266.933,43.7438 271.5,43.5 Z"/></g>
<g><path style="opacity:0.216" fill="#ebe2d0" d="M 186.5,51.5 C 179.33,51.6533 172.33,50.6533 165.5,48.5C 160.684,48.908 156.684,50.908 153.5,54.5C 151.265,53.2479 148.931,52.7479 146.5,53C 143.403,55.1976 140.403,57.3642 137.5,59.5C 139.893,56.4569 142.559,53.6236 145.5,51C 148.304,50.5403 150.971,51.0403 153.5,52.5C 157.975,48.2127 163.308,46.7127 169.5,48C 175.363,48.8719 181.03,50.0385 186.5,51.5 Z"/></g>
<g><path style="opacity:0.059" fill="#ede2d2" d="M 236.5,49.5 C 226.621,49.2505 216.954,49.9172 207.5,51.5C 204.007,51.9975 200.674,51.9975 197.5,51.5C 210.412,48.686 223.412,48.0193 236.5,49.5 Z"/></g>
<g><path style="opacity:0.971" fill="#d2bc93" d="M 236.5,49.5 C 241.049,50.7633 245.716,51.43 250.5,51.5C 250.209,52.6491 249.376,53.3158 248,53.5C 234.637,50.2426 221.137,49.576 207.5,51.5C 216.954,49.9172 226.621,49.2505 236.5,49.5 Z"/></g>
<g><path style="opacity:0.729" fill="#e2d4ba" d="M 272.5,43.5 C 278.379,42.2392 284.379,42.4059 290.5,44C 307.469,51.2037 323.803,59.537 339.5,69C 346.714,73.7154 352.714,79.5488 357.5,86.5C 353.002,82.1702 348.335,78.0035 343.5,74C 328.791,64.1456 313.125,56.1456 296.5,50C 289.455,44.6192 281.455,42.4525 272.5,43.5 Z"/></g>
<g><path style="opacity:0.196" fill="#ece5d5" d="M 137.5,59.5 C 134.905,63.1257 131.572,65.7924 127.5,67.5C 130.46,64.3552 133.793,61.6885 137.5,59.5 Z"/></g>
<g><path style="opacity:0.141" fill="#f3ebe1" d="M 127.5,67.5 C 125.853,69.3264 123.853,70.6597 121.5,71.5C 122.802,69.1782 124.802,67.8449 127.5,67.5 Z"/></g>
<g><path style="opacity:0.204" fill="#ede0d3" d="M 121.5,71.5 C 120.198,73.8218 118.198,75.1551 115.5,75.5C 117.147,73.6736 119.147,72.3403 121.5,71.5 Z"/></g>
<g><path style="opacity:0.072" fill="#f0e7d8" d="M 357.5,86.5 C 358.117,86.6107 358.617,86.944 359,87.5C 358.525,91.7656 360.025,94.9323 363.5,97C 367.795,97.9119 372.128,98.5785 376.5,99C 377.337,100.011 377.67,101.178 377.5,102.5C 378.873,102.343 380.207,102.51 381.5,103C 383.257,105.846 385.257,108.512 387.5,111C 393.255,113.931 398.255,117.764 402.5,122.5C 397.77,119.236 392.77,116.402 387.5,114C 385.131,111.43 383.131,108.596 381.5,105.5C 379.929,104.691 378.262,104.357 376.5,104.5C 376.714,102.856 376.38,101.356 375.5,100C 369.757,100.256 364.423,99.0894 359.5,96.5C 358.67,93.1792 358.003,89.8458 357.5,86.5 Z"/></g>
<g><path style="opacity:0.318" fill="#ece3d3" d="M 115.5,75.5 C 107.08,82.2226 98.4136,88.7226 89.5,95C 84.2163,100.793 78.5496,105.959 72.5,110.5C 84.8068,96.2014 99.1402,84.5347 115.5,75.5 Z"/></g>
<g><path style="opacity:0.996" fill="#336f21" d="M 254.5,122.5 C 254.223,127.886 253.556,133.219 252.5,138.5C 252.5,138.833 252.5,139.167 252.5,139.5C 250.204,147.878 249.204,156.544 249.5,165.5C 248.516,181.422 248.183,197.422 248.5,213.5C 276.084,209.124 303.584,204.791 331,200.5C 342.699,201.514 353.032,205.848 362,213.5C 362.678,215.598 362.511,217.598 361.5,219.5C 360.833,219.5 360.167,219.5 359.5,219.5C 338.372,220.145 317.372,220.812 296.5,221.5C 296.167,221.5 295.833,221.5 295.5,221.5C 286.435,220.864 277.769,221.53 269.5,223.5C 262.485,223.729 255.485,224.229 248.5,225C 247.62,226.356 247.286,227.856 247.5,229.5C 246.681,252.486 246.014,275.486 245.5,298.5C 258.239,298.451 270.572,296.285 282.5,292C 298.587,289.219 312.087,293.719 323,305.5C 323.78,307.387 323.613,309.054 322.5,310.5C 321.395,311.6 320.062,312.267 318.5,312.5C 303.349,311.598 288.183,310.931 273,310.5C 266.167,310.667 259.333,310.833 252.5,311C 247.611,311.354 242.944,312.187 238.5,313.5C 221.218,315.176 204.218,318.343 187.5,323C 176.979,325.353 167.646,323.186 159.5,316.5C 156.54,313.4 157.207,311.233 161.5,310C 183.872,307.826 206.205,305.16 228.5,302C 229.056,301.617 229.389,301.117 229.5,300.5C 230.497,278.006 230.831,255.339 230.5,232.5C 230.5,231.167 230.5,229.833 230.5,228.5C 215.092,229.176 199.758,230.676 184.5,233C 169.604,236.374 154.604,239.541 139.5,242.5C 137.133,242.158 134.8,241.658 132.5,241C 129.014,239.004 125.681,236.837 122.5,234.5C 120.478,232.581 120.144,230.414 121.5,228C 131.167,227.667 140.833,227.333 150.5,227C 176.97,224.233 203.304,220.733 229.5,216.5C 229.5,196.5 229.5,176.5 229.5,156.5C 229.844,150.902 229.178,145.568 227.5,140.5C 227.5,139.833 227.5,139.167 227.5,138.5C 226.096,129.906 222.43,122.573 216.5,116.5C 216.201,114.396 216.534,112.396 217.5,110.5C 220.773,109.415 224.106,109.248 227.5,110C 235.325,112.053 242.991,114.72 250.5,118C 252.041,119.371 253.375,120.871 254.5,122.5 Z"/></g>
<g><path style="opacity:0.996" fill="#434c37" d="M 216.5,116.5 C 222.43,122.573 226.096,129.906 227.5,138.5C 224.994,132.874 221.828,127.54 218,122.5C 216.872,120.655 216.372,118.655 216.5,116.5 Z"/></g>
<g><path style="opacity:0.173" fill="#f2eddf" d="M 402.5,122.5 C 405.13,124.628 407.63,126.961 410,129.5C 410.061,131.686 410.228,133.686 410.5,135.5C 406.921,135.234 406.587,133.901 409.5,131.5C 406.737,128.748 404.403,125.748 402.5,122.5 Z"/></g>
<g><path style="opacity:0.996" fill="#6a6c3d" d="M 254.5,122.5 C 255.641,125.64 255.808,128.973 255,132.5C 254.963,134.974 254.13,136.974 252.5,138.5C 253.556,133.219 254.223,127.886 254.5,122.5 Z"/></g>
<g><path style="opacity:0.996" fill="#777440" d="M 252.5,139.5 C 251.688,148.328 250.688,156.995 249.5,165.5C 249.204,156.544 250.204,147.878 252.5,139.5 Z"/></g>
<g><path style="opacity:0.678" fill="#ebe0cd" d="M 72.5,110.5 C 71.1701,114.918 68.1701,116.585 63.5,115.5C 63.6488,118.607 63.1488,121.607 62,124.5C 53.6166,138.6 46.2833,153.267 40,168.5C 37.417,171.997 35.0836,175.664 33,179.5C 31.8355,187.782 31.1689,196.116 31,204.5C 27.6011,207.124 27.7678,209.457 31.5,211.5C 28.1913,214.371 26.5247,218.037 26.5,222.5C 28.4906,227.162 30.4906,231.828 32.5,236.5C 31.8333,236.5 31.5,236.833 31.5,237.5C 30.8333,237.833 30.1667,238.167 29.5,238.5C 28.1721,233.174 26.8387,227.84 25.5,222.5C 25.1707,218.315 26.504,214.815 29.5,212C 28.1007,210.938 27.1007,209.605 26.5,208C 28.0855,206.075 29.2521,203.909 30,201.5C 30.1877,193.782 30.8544,186.115 32,178.5C 40.9849,161.198 49.9849,143.865 59,126.5C 60.8271,122.719 61.8271,118.719 62,114.5C 63.7216,114.038 65.555,113.872 67.5,114C 69.3231,113.003 70.9897,111.836 72.5,110.5 Z"/></g>
<g><path style="opacity:0.243" fill="#eee6d7" d="M 410.5,135.5 C 412.371,135.859 413.871,136.859 415,138.5C 418.895,150.198 421.395,162.198 422.5,174.5C 422.167,174.5 421.833,174.5 421.5,174.5C 420.054,162.59 417.554,150.924 414,139.5C 412.624,138.295 411.458,136.962 410.5,135.5 Z"/></g>
<g><path style="opacity:0.996" fill="#596b35" d="M 227.5,140.5 C 229.178,145.568 229.844,150.902 229.5,156.5C 228.194,151.384 227.527,146.051 227.5,140.5 Z"/></g>
<g><path style="opacity:0.996" fill="#2f522a" d="M 359.5,219.5 C 359.389,220.117 359.056,220.617 358.5,221C 337.836,221.5 317.169,221.667 296.5,221.5C 317.372,220.812 338.372,220.145 359.5,219.5 Z"/></g>
<g><path style="opacity:0.996" fill="#3c3e3a" d="M 359.5,219.5 C 360.167,219.5 360.833,219.5 361.5,219.5C 361.5,220.833 361.5,222.167 361.5,223.5C 359.897,223.312 358.563,223.812 357.5,225C 334.155,225.265 310.822,225.765 287.5,226.5C 277.607,226.095 267.941,226.761 258.5,228.5C 254.936,229.423 251.269,229.756 247.5,229.5C 247.286,227.856 247.62,226.356 248.5,225C 255.485,224.229 262.485,223.729 269.5,223.5C 278.325,222.989 286.992,222.322 295.5,221.5C 295.833,221.5 296.167,221.5 296.5,221.5C 317.169,221.667 337.836,221.5 358.5,221C 359.056,220.617 359.389,220.117 359.5,219.5 Z"/></g>
<g><path style="opacity:0.996" fill="#2e5c26" d="M 295.5,221.5 C 286.992,222.322 278.325,222.989 269.5,223.5C 277.769,221.53 286.435,220.864 295.5,221.5 Z"/></g>
<g><path style="opacity:0.996" fill="#5f5541" d="M 287.5,226.5 C 278.008,227.511 268.342,228.177 258.5,228.5C 267.941,226.761 277.607,226.095 287.5,226.5 Z"/></g>
<g><path style="opacity:0.996" fill="#3f413a" d="M 230.5,232.5 C 211.457,233.892 192.457,236.392 173.5,240C 172.944,240.383 172.611,240.883 172.5,241.5C 161.691,242.995 150.858,244.662 140,246.5C 132.87,245.935 126.87,242.935 122,237.5C 121.26,236.251 121.427,235.251 122.5,234.5C 125.681,236.837 129.014,239.004 132.5,241C 134.8,241.658 137.133,242.158 139.5,242.5C 154.604,239.541 169.604,236.374 184.5,233C 199.758,230.676 215.092,229.176 230.5,228.5C 230.5,229.833 230.5,231.167 230.5,232.5 Z"/></g>
<g><path style="opacity:0.996" fill="#8d7d48" d="M 230.5,232.5 C 230.831,255.339 230.497,278.006 229.5,300.5C 229.5,278.167 229.5,255.833 229.5,233.5C 210.522,235.392 191.522,238.058 172.5,241.5C 172.611,240.883 172.944,240.383 173.5,240C 192.457,236.392 211.457,233.892 230.5,232.5 Z"/></g>
<g><path style="opacity:0.996" fill="#181510" d="M 32.5,236.5 C 35.0283,238.89 36.5283,241.89 37,245.5C 37.8119,249.689 37.6453,253.689 36.5,257.5C 36.0679,256.29 35.4013,255.29 34.5,254.5C 34.2451,252.033 33.2451,250.033 31.5,248.5C 30.2722,244.816 30.2722,241.15 31.5,237.5C 31.5,236.833 31.8333,236.5 32.5,236.5 Z"/></g>
<g><path style="opacity:0.129" fill="#cbcbcb" d="M 31.5,237.5 C 30.2722,241.15 30.2722,244.816 31.5,248.5C 31.7549,250.967 32.7549,252.967 34.5,254.5C 35.4013,255.29 36.0679,256.29 36.5,257.5C 36.8333,258.167 37.1667,258.833 37.5,259.5C 37.1583,260.338 36.4916,260.672 35.5,260.5C 32.8715,256.481 30.7048,252.148 29,247.5C 28.1955,244.304 28.3622,241.304 29.5,238.5C 30.1667,238.167 30.8333,237.833 31.5,237.5 Z"/></g>
<g><path style="opacity:0.627" fill="#6a6a6a" d="M 31.5,248.5 C 33.2451,250.033 34.2451,252.033 34.5,254.5C 32.7549,252.967 31.7549,250.967 31.5,248.5 Z"/></g>
<g><path style="opacity:0.047" fill="#e4dac8" d="M 421.5,174.5 C 421.833,174.5 422.167,174.5 422.5,174.5C 423.291,185.788 423.791,197.121 424,208.5C 425.996,216.158 429.33,223.158 434,229.5C 436.561,235.741 435.728,241.408 431.5,246.5C 432.611,247.611 433.278,248.945 433.5,250.5C 431.246,267.14 428.246,283.474 424.5,299.5C 424.5,298.167 424.5,296.833 424.5,295.5C 425.482,292.038 425.815,288.371 425.5,284.5C 427.535,277.322 428.535,269.989 428.5,262.5C 429.748,261.666 430.415,260.333 430.5,258.5C 430.489,256.955 430.156,255.622 429.5,254.5C 429.48,252.857 430.147,251.524 431.5,250.5C 430.509,249.335 429.509,248.168 428.5,247C 429.464,245.036 430.797,243.37 432.5,242C 433.55,238.545 433.717,235.045 433,231.5C 427.612,223.919 423.945,215.586 422,206.5C 421.5,195.839 421.333,185.172 421.5,174.5 Z"/></g>
<g><path style="opacity:0.278" fill="#7d786e" d="M 429.5,254.5 C 430.156,255.622 430.489,256.955 430.5,258.5C 430.415,260.333 429.748,261.666 428.5,262.5C 428.279,259.721 428.612,257.054 429.5,254.5 Z"/></g>
<g><path style="opacity:0.714" fill="#4f4d4b" d="M 425.5,284.5 C 425.815,288.371 425.482,292.038 424.5,295.5C 424.81,292.287 424.477,289.287 423.5,286.5C 423.5,285.167 424.167,284.5 425.5,284.5 Z"/></g>
<g><path style="opacity:0.997" fill="#080705" d="M 423.5,286.5 C 424.477,289.287 424.81,292.287 424.5,295.5C 414.965,314.907 405.131,334.24 395,353.5C 394.502,356.482 394.335,359.482 394.5,362.5C 391.753,362.187 389.086,362.52 386.5,363.5C 380.357,368.898 374.69,374.731 369.5,381C 355.675,391.079 341.675,400.913 327.5,410.5C 322.48,414.522 317.814,418.856 313.5,423.5C 311.484,424.694 309.484,424.694 307.5,423.5C 307.189,422.522 306.522,421.855 305.5,421.5C 302.083,425.309 297.75,426.976 292.5,426.5C 272.51,423.986 252.51,423.986 232.5,426.5C 227.385,426.536 222.385,425.869 217.5,424.5C 215.309,423.709 213.309,423.709 211.5,424.5C 204.513,428.081 197.18,430.748 189.5,432.5C 184.463,432.587 179.463,432.254 174.5,431.5C 168.305,428.908 161.972,426.574 155.5,424.5C 152.121,420.646 147.787,418.646 142.5,418.5C 141.341,416.75 139.674,415.75 137.5,415.5C 137.167,415.5 136.833,415.5 136.5,415.5C 132.558,410.761 127.558,407.261 121.5,405C 115.698,400.2 110.198,395.033 105,389.5C 105.038,385.6 103.871,382.267 101.5,379.5C 97.4552,377.823 93.1219,377.156 88.5,377.5C 88.6602,375.801 88.4935,374.134 88,372.5C 86.7496,371.427 85.4162,371.427 84,372.5C 82.9889,371.944 82.1556,371.278 81.5,370.5C 78.7548,366.426 75.0881,363.426 70.5,361.5C 66.1667,357.5 61.8333,353.5 57.5,349.5C 56.3284,347.156 56.3284,344.823 57.5,342.5C 55.8614,341.678 54.1947,341.011 52.5,340.5C 50.8828,338.879 49.7162,336.879 49,334.5C 47.7506,329.722 46.5839,325.055 45.5,320.5C 45.4088,318.302 46.0755,317.969 47.5,319.5C 48.5609,321.532 50.2276,322.866 52.5,323.5C 51.5153,325.098 51.3486,326.765 52,328.5C 58.0542,335.906 65.2209,341.739 73.5,346C 76.0939,348.086 78.0939,350.586 79.5,353.5C 79.3691,354.376 79.7025,355.043 80.5,355.5C 81.7362,354.754 83.0695,354.421 84.5,354.5C 84.2322,356.099 84.5655,357.432 85.5,358.5C 91.2185,358.289 96.5519,359.623 101.5,362.5C 102.318,365.107 102.818,367.774 103,370.5C 105,373.167 107,375.833 109,378.5C 126.954,393.062 146.787,404.395 168.5,412.5C 170.277,413.6 172.277,414.434 174.5,415C 179.352,415.815 184.019,415.648 188.5,414.5C 196.527,412.246 204.36,409.246 212,405.5C 222.988,408.145 234.155,409.145 245.5,408.5C 251.404,408.679 257.071,408.012 262.5,406.5C 270.278,406.454 277.944,407.12 285.5,408.5C 288.263,409.655 291.263,410.322 294.5,410.5C 296.333,410.415 297.666,409.748 298.5,408.5C 299.833,408.167 301.167,407.833 302.5,407.5C 304.5,406.5 306.5,405.5 308.5,404.5C 310.011,406.441 312.011,406.941 314.5,406C 326.605,394.126 339.938,383.96 354.5,375.5C 356.853,374.66 358.853,373.326 360.5,371.5C 371.451,362.884 381.784,353.551 391.5,343.5C 393.5,343.5 395.5,343.5 397.5,343.5C 397.5,341.167 397.5,338.833 397.5,336.5C 406.165,319.879 414.832,303.213 423.5,286.5 Z"/></g>
<g><path style="opacity:0.153" fill="#e9e2d5" d="M 37.5,259.5 C 37.9267,275.916 39.9267,292.25 43.5,308.5C 43.5,310.167 43.5,311.833 43.5,313.5C 43.5,314.833 43.5,316.167 43.5,317.5C 39.3554,298.819 36.6887,279.819 35.5,260.5C 36.4916,260.672 37.1583,260.338 37.5,259.5 Z"/></g>
<g><path style="opacity:0.996" fill="#2d5c25" d="M 318.5,312.5 C 315.016,313.165 311.349,313.499 307.5,313.5C 284.501,310.833 261.501,310.833 238.5,313.5C 242.944,312.187 247.611,311.354 252.5,311C 259.333,310.833 266.167,310.667 273,310.5C 288.183,310.931 303.349,311.598 318.5,312.5 Z"/></g>
<g><path style="opacity:0.996" fill="#3e4139" d="M 322.5,310.5 C 322.741,312.886 322.075,314.886 320.5,316.5C 310.827,317.909 301.161,317.743 291.5,316C 279.833,315.333 268.167,315.333 256.5,316C 245.555,317.279 234.555,318.279 223.5,319C 222.944,319.383 222.611,319.883 222.5,320.5C 207.442,323.18 192.442,325.846 177.5,328.5C 170.221,328.444 164.054,325.778 159,320.5C 158.235,318.934 158.402,317.601 159.5,316.5C 167.646,323.186 176.979,325.353 187.5,323C 204.218,318.343 221.218,315.176 238.5,313.5C 261.501,310.833 284.501,310.833 307.5,313.5C 311.349,313.499 315.016,313.165 318.5,312.5C 320.062,312.267 321.395,311.6 322.5,310.5 Z"/></g>
<g><path style="opacity:0.996" fill="#887249" d="M 320.5,316.5 C 316.049,317.827 311.216,318.494 306,318.5C 278.097,316.817 250.264,317.484 222.5,320.5C 222.611,319.883 222.944,319.383 223.5,319C 234.555,318.279 245.555,317.279 256.5,316C 268.167,315.333 279.833,315.333 291.5,316C 301.161,317.743 310.827,317.909 320.5,316.5 Z"/></g>
<g><path style="opacity:0.996" fill="#6d5d42" d="M 43.5,308.5 C 44.6491,308.791 45.3158,309.624 45.5,311C 46.0927,313.87 46.7593,316.703 47.5,319.5C 46.0755,317.969 45.4088,318.302 45.5,320.5C 44.8333,318.167 44.1667,315.833 43.5,313.5C 43.5,311.833 43.5,310.167 43.5,308.5 Z"/></g>
<g><path style="opacity:0.192" fill="#c0c0c0" d="M 43.5,313.5 C 44.1667,315.833 44.8333,318.167 45.5,320.5C 46.5839,325.055 47.7506,329.722 49,334.5C 49.7162,336.879 50.8828,338.879 52.5,340.5C 52.5,341.167 52.5,341.833 52.5,342.5C 49.7687,340.929 47.9354,338.595 47,335.5C 44.8761,329.674 43.7094,323.674 43.5,317.5C 43.5,316.167 43.5,314.833 43.5,313.5 Z"/></g>
<g><path style="opacity:0.996" fill="#67542f" d="M 397.5,336.5 C 397.5,338.833 397.5,341.167 397.5,343.5C 395.5,343.5 393.5,343.5 391.5,343.5C 392.919,342.549 394.585,342.216 396.5,342.5C 396.205,340.265 396.539,338.265 397.5,336.5 Z"/></g>
<g><path style="opacity:0.992" fill="#444444" d="M 52.5,340.5 C 54.1947,341.011 55.8614,341.678 57.5,342.5C 56.3284,344.823 56.3284,347.156 57.5,349.5C 54.2329,347.955 53.5663,345.622 55.5,342.5C 54.5,342.5 53.5,342.5 52.5,342.5C 52.5,341.833 52.5,341.167 52.5,340.5 Z"/></g>
<g><path style="opacity:0.208" fill="#a5a5a5" d="M 52.5,342.5 C 53.5,342.5 54.5,342.5 55.5,342.5C 53.5663,345.622 54.2329,347.955 57.5,349.5C 61.8333,353.5 66.1667,357.5 70.5,361.5C 69.8333,361.5 69.1667,361.5 68.5,361.5C 61.9898,357.489 56.6564,352.322 52.5,346C 53.6843,344.855 53.6843,343.688 52.5,342.5 Z"/></g>
<g><path style="opacity:0.996" fill="#534325" d="M 79.5,353.5 C 81.5,353.5 83.5,353.5 85.5,353.5C 85.5,355.167 85.5,356.833 85.5,358.5C 84.5655,357.432 84.2322,356.099 84.5,354.5C 83.0695,354.421 81.7362,354.754 80.5,355.5C 79.7025,355.043 79.3691,354.376 79.5,353.5 Z"/></g>
<g><path style="opacity:0.224" fill="#adadad" d="M 424.5,295.5 C 424.5,296.833 424.5,298.167 424.5,299.5C 415.569,318.695 406.069,337.695 396,356.5C 395.667,358.833 395.333,361.167 395,363.5C 392.606,363.265 390.106,363.765 387.5,365C 381.194,372.64 374.194,379.64 366.5,386C 353.867,394.655 341.2,403.322 328.5,412C 323.351,416.425 318.351,421.092 313.5,426C 310.425,426.139 307.425,425.639 304.5,424.5C 305.209,423.596 306.209,423.263 307.5,423.5C 309.484,424.694 311.484,424.694 313.5,423.5C 317.814,418.856 322.48,414.522 327.5,410.5C 341.675,400.913 355.675,391.079 369.5,381C 374.69,374.731 380.357,368.898 386.5,363.5C 389.086,362.52 391.753,362.187 394.5,362.5C 394.335,359.482 394.502,356.482 395,353.5C 405.131,334.24 414.965,314.907 424.5,295.5 Z"/></g>
<g><path style="opacity:0.024" fill="#cdcdcd" d="M 68.5,361.5 C 69.1667,361.5 69.8333,361.5 70.5,361.5C 75.0881,363.426 78.7548,366.426 81.5,370.5C 81.5,371.5 81.5,372.5 81.5,373.5C 85.938,372.425 87.938,374.092 87.5,378.5C 86.4415,377.4 85.6082,376.066 85,374.5C 83.8869,375.711 82.7202,375.711 81.5,374.5C 78.4509,368.784 74.1176,364.451 68.5,361.5 Z"/></g>
<g><path style="opacity:0.792" fill="#868686" d="M 81.5,370.5 C 82.1556,371.278 82.9889,371.944 84,372.5C 85.4162,371.427 86.7496,371.427 88,372.5C 88.4935,374.134 88.6602,375.801 88.5,377.5C 93.1219,377.156 97.4552,377.823 101.5,379.5C 100.209,379.263 99.209,379.596 98.5,380.5C 94.688,379.974 91.0213,379.307 87.5,378.5C 87.938,374.092 85.938,372.425 81.5,373.5C 81.5,372.5 81.5,371.5 81.5,370.5 Z"/></g>
<g><path style="opacity:0.996" fill="#4c3d23" d="M 360.5,371.5 C 358.853,373.326 356.853,374.66 354.5,375.5C 355.802,373.178 357.802,371.845 360.5,371.5 Z"/></g>
<g><path style="opacity:0.176" fill="#a1a1a1" d="M 98.5,380.5 C 99.209,379.596 100.209,379.263 101.5,379.5C 103.871,382.267 105.038,385.6 105,389.5C 110.198,395.033 115.698,400.2 121.5,405C 127.558,407.261 132.558,410.761 136.5,415.5C 124.11,409.287 113.277,400.954 104,390.5C 103.689,388.444 103.189,386.444 102.5,384.5C 102.709,383.914 103.043,383.414 103.5,383C 101.922,381.906 100.255,381.072 98.5,380.5 Z"/></g>
<g><path style="opacity:0.996" fill="#483a20" d="M 308.5,404.5 C 306.5,405.5 304.5,406.5 302.5,407.5C 303.804,404.431 305.804,403.431 308.5,404.5 Z"/></g>
<g><path style="opacity:0.996" fill="#352b18" d="M 262.5,406.5 C 257.071,408.012 251.404,408.679 245.5,408.5C 250.944,407.116 256.611,406.45 262.5,406.5 Z"/></g>
<g><path style="opacity:0.996" fill="#43371e" d="M 285.5,408.5 C 289.833,408.5 294.167,408.5 298.5,408.5C 297.666,409.748 296.333,410.415 294.5,410.5C 291.263,410.322 288.263,409.655 285.5,408.5 Z"/></g>
<g><path style="opacity:0.996" fill="#46381f" d="M 168.5,412.5 C 175.063,414.047 181.73,414.714 188.5,414.5C 184.019,415.648 179.352,415.815 174.5,415C 172.277,414.434 170.277,413.6 168.5,412.5 Z"/></g>
<g><path style="opacity:0.075" fill="#cccccc" d="M 137.5,415.5 C 139.674,415.75 141.341,416.75 142.5,418.5C 140.326,418.25 138.659,417.25 137.5,415.5 Z"/></g>
<g><path style="opacity:0.62" fill="#959595" d="M 142.5,418.5 C 147.787,418.646 152.121,420.646 155.5,424.5C 150.749,423.29 146.416,421.29 142.5,418.5 Z"/></g>
<g><path style="opacity:0.02" fill="#d2d2d2" d="M 211.5,424.5 C 213.309,423.709 215.309,423.709 217.5,424.5C 217.5,425.167 217.5,425.833 217.5,426.5C 215.5,425.833 213.5,425.167 211.5,424.5 Z"/></g>
<g><path style="opacity:0.118" fill="#9a9a9a" d="M 307.5,423.5 C 306.209,423.263 305.209,423.596 304.5,424.5C 303.599,426.727 301.933,427.727 299.5,427.5C 295.167,427.5 290.833,427.5 286.5,427.5C 268.813,426.334 251.146,426.667 233.5,428.5C 228.102,427.941 222.769,427.274 217.5,426.5C 217.5,425.833 217.5,425.167 217.5,424.5C 222.385,425.869 227.385,426.536 232.5,426.5C 252.51,423.986 272.51,423.986 292.5,426.5C 297.75,426.976 302.083,425.309 305.5,421.5C 306.522,421.855 307.189,422.522 307.5,423.5 Z"/></g>
<g><path style="opacity:0.094" fill="#bab9b9" d="M 155.5,424.5 C 161.972,426.574 168.305,428.908 174.5,431.5C 175.167,432.167 175.833,432.833 176.5,433.5C 168.847,431.836 161.847,428.836 155.5,424.5 Z"/></g>
<g><path style="opacity:0.008" fill="#e5e5e5" d="M 286.5,427.5 C 290.833,427.5 295.167,427.5 299.5,427.5C 295.214,429.989 290.881,429.989 286.5,427.5 Z"/></g>
<g><path style="opacity:0.282" fill="#c4c4c4" d="M 211.5,424.5 C 205.125,429.683 197.792,432.683 189.5,433.5C 189.5,433.167 189.5,432.833 189.5,432.5C 197.18,430.748 204.513,428.081 211.5,424.5 Z"/></g>
<g><path style="opacity:0.471" fill="#a5a5a5" d="M 174.5,431.5 C 179.463,432.254 184.463,432.587 189.5,432.5C 189.5,432.833 189.5,433.167 189.5,433.5C 185.167,434.833 180.833,434.833 176.5,433.5C 175.833,432.833 175.167,432.167 174.5,431.5 Z"/></g>
</svg>
