<?xml version="1.0" encoding="UTF-8"?>
<!DOCTYPE svg PUBLIC "-//W3C//DTD SVG 1.1//EN" "http://www.w3.org/Graphics/SVG/1.1/DTD/svg11.dtd">
<svg xmlns="http://www.w3.org/2000/svg" version="1.1" width="457px" height="463px" style="shape-rendering:geometricPrecision; text-rendering:geometricPrecision; image-rendering:optimizeQuality; fill-rule:evenodd; clip-rule:evenodd" xmlns:xlink="http://www.w3.org/1999/xlink">
<g><path style="opacity:0.227" fill="#eae1cd" d="M 356.5,94.5 C 349.667,88.1807 342.333,82.3473 334.5,77C 329.14,74.2875 323.807,71.6208 318.5,69C 317.5,68 316.5,67 315.5,66C 306.252,63.0394 297.585,59.0394 289.5,54C 281.855,52.2703 274.189,52.1036 266.5,53.5C 267.263,52.7321 268.263,52.2321 269.5,52C 275.5,51.3333 281.5,51.3333 287.5,52C 309.288,60.4882 329.621,71.4882 348.5,85C 351.777,87.7663 354.443,90.933 356.5,94.5 Z"/></g>
<g><path style="opacity:0.996" fill="#b59353" d="M 356.5,94.5 C 357.021,98.1718 357.687,101.838 358.5,105.5C 360.943,107.055 363.61,107.722 366.5,107.5C 369.287,108.477 372.287,108.81 375.5,108.5C 375.5,110.167 375.5,111.833 375.5,113.5C 377.5,113.5 379.5,113.5 381.5,113.5C 382.167,115.833 382.833,118.167 383.5,120.5C 387.619,123.062 391.952,125.396 396.5,127.5C 399.385,130.891 402.552,134.224 406,137.5C 407.656,140.053 407.823,142.719 406.5,145.5C 409.719,145.776 412.385,147.109 414.5,149.5C 417.08,160.65 418.914,171.983 420,183.5C 420.333,194.167 420.667,204.833 421,215.5C 421.198,217.382 421.698,219.048 422.5,220.5C 423.731,223.687 424.897,227.02 426,230.5C 433.48,238.31 434.314,246.643 428.5,255.5C 429.821,257.332 430.821,259.332 431.5,261.5C 429.952,261.821 429.285,262.821 429.5,264.5C 428.351,264.791 427.684,265.624 427.5,267C 427.528,268.07 427.861,268.903 428.5,269.5C 428.5,270.167 428.5,270.833 428.5,271.5C 428.038,278.24 426.705,284.906 424.5,291.5C 424.5,292.167 424.5,292.833 424.5,293.5C 423.542,293.953 422.708,294.619 422,295.5C 413.807,311.885 405.641,328.218 397.5,344.5C 396.52,347.086 396.187,349.753 396.5,352.5C 393.729,352.421 391.063,352.921 388.5,354C 381.779,360.721 375.113,367.387 368.5,374C 355.5,383 342.5,392 329.5,401C 324.199,405.3 319.199,409.966 314.5,415C 311.416,415.631 308.75,414.798 306.5,412.5C 304.773,414.567 302.773,416.233 300.5,417.5C 288.488,417.099 276.488,416.432 264.5,415.5C 247.816,416.701 231.149,416.701 214.5,415.5C 210.039,414.536 206.039,415.703 202.5,419C 193.598,423.164 184.265,424.831 174.5,424C 152.644,416.239 132.311,405.572 113.5,392C 106.075,386.799 101.742,379.799 100.5,371C 95.6825,369.131 90.6825,368.131 85.5,368C 84.8971,366.175 84.2304,364.341 83.5,362.5C 82.109,363.645 80.7757,363.645 79.5,362.5C 78.4078,359.906 76.7411,357.739 74.5,356C 65.8366,351.345 58.3366,345.178 52,337.5C 51.2797,335.888 51.4464,334.388 52.5,333C 50.4098,332.331 48.7432,331.164 47.5,329.5C 47.2503,327.326 46.2503,325.659 44.5,324.5C 41.6723,305.878 39.339,287.212 37.5,268.5C 39.2431,261.099 37.9098,254.099 33.5,247.5C 33.0431,246.702 32.3764,246.369 31.5,246.5C 31.8039,245.85 32.1373,245.183 32.5,244.5C 30.3454,240.359 28.3454,236.192 26.5,232C 26.9172,229.502 27.2505,227.002 27.5,224.5C 32.0393,222.498 32.3726,220.165 28.5,217.5C 29.1449,216.354 29.9783,215.354 31,214.5C 31.298,205.803 31.9646,197.136 33,188.5C 35.3333,184.833 37.6667,181.167 40,177.5C 44.4832,167.2 49.4832,157.2 55,147.5C 55.9406,144.846 56.7739,142.179 57.5,139.5C 60.3239,137.2 62.1572,134.2 63,130.5C 63.4955,128.527 63.6621,126.527 63.5,124.5C 68.1929,125.46 71.5262,123.793 73.5,119.5C 78.8943,115.108 83.561,110.108 87.5,104.5C 93.5604,100.457 99.8937,96.7902 106.5,93.5C 107.51,90.8588 109.176,88.8588 111.5,87.5C 114.707,86.8208 117.707,85.6541 120.5,84C 124.702,79.6298 129.036,75.4632 133.5,71.5C 138.802,69.704 143.135,66.5374 146.5,62C 148.931,61.7479 151.265,62.2479 153.5,63.5C 154.386,62.675 154.719,61.675 154.5,60.5C 154.5,59.8333 154.833,59.5 155.5,59.5C 155.369,60.2389 155.536,60.9056 156,61.5C 159.001,59.0216 162.501,58.0216 166.5,58.5C 186.291,60.9584 206.124,60.9584 226,58.5C 233.594,58.5363 240.927,59.8697 248,62.5C 254.304,59.5969 260.471,56.5969 266.5,53.5C 274.189,52.1036 281.855,52.2703 289.5,54C 297.585,59.0394 306.252,63.0394 315.5,66C 316.5,67 317.5,68 318.5,69C 323.807,71.6208 329.14,74.2875 334.5,77C 342.333,82.3473 349.667,88.1807 356.5,94.5 Z"/></g>
<g><path style="opacity:0.082" fill="#eae1cd" d="M 266.5,53.5 C 260.471,56.5969 254.304,59.5969 248,62.5C 240.927,59.8697 233.594,58.5363 226,58.5C 206.124,60.9584 186.291,60.9584 166.5,58.5C 162.501,58.0216 159.001,59.0216 156,61.5C 155.536,60.9056 155.369,60.2389 155.5,59.5C 158.493,57.7533 161.66,56.42 165,55.5C 170.35,57.2114 175.85,58.3781 181.5,59C 196.362,59.5423 211.195,59.0423 226,57.5C 233.293,57.6133 240.46,58.6133 247.5,60.5C 253.519,57.3242 259.853,54.9908 266.5,53.5 Z"/></g>
<g><path style="opacity:0.961" fill="#e0d0b3" d="M 154.5,60.5 C 154.719,61.675 154.386,62.675 153.5,63.5C 151.265,62.2479 148.931,61.7479 146.5,62C 143.135,66.5374 138.802,69.704 133.5,71.5C 136.991,67.5092 140.657,63.6759 144.5,60C 147.588,59.1533 150.421,59.6533 153,61.5C 153.383,60.944 153.883,60.6107 154.5,60.5 Z"/></g>
<g><path style="opacity:0.98" fill="#ddcbaa" d="M 133.5,71.5 C 129.036,75.4632 124.702,79.6298 120.5,84C 117.707,85.6541 114.707,86.8208 111.5,87.5C 118.403,81.7015 125.737,76.3681 133.5,71.5 Z"/></g>
<g><path style="opacity:0.996" fill="#dac7a5" d="M 111.5,87.5 C 109.176,88.8588 107.51,90.8588 106.5,93.5C 99.8937,96.7902 93.5604,100.457 87.5,104.5C 94.8356,97.8378 102.836,92.1712 111.5,87.5 Z"/></g>
<g><path style="opacity:0.086" fill="#ede3cf" d="M 356.5,94.5 C 357.79,95.0577 358.623,96.0577 359,97.5C 358.709,103.031 361.209,106.364 366.5,107.5C 363.61,107.722 360.943,107.055 358.5,105.5C 357.687,101.838 357.021,98.1718 356.5,94.5 Z"/></g>
<g><path style="opacity:0.365" fill="#e8dcc5" d="M 87.5,104.5 C 83.561,110.108 78.8943,115.108 73.5,119.5C 77.439,113.892 82.1057,108.892 87.5,104.5 Z"/></g>
<g><path style="opacity:0.21" fill="#eeddc9" d="M 366.5,107.5 C 369.833,107.5 373.167,107.5 376.5,107.5C 376.5,108.833 376.5,110.167 376.5,111.5C 378.781,111.077 380.448,111.744 381.5,113.5C 379.5,113.5 377.5,113.5 375.5,113.5C 375.5,111.833 375.5,110.167 375.5,108.5C 372.287,108.81 369.287,108.477 366.5,107.5 Z"/></g>
<g><path style="opacity:0.996" fill="#336e21" d="M 218.5,131.5 C 214.752,134.137 211.252,137.137 208,140.5C 198.355,152.313 188.521,163.98 178.5,175.5C 179.689,176.429 181.022,176.762 182.5,176.5C 195.559,175.215 208.559,173.382 221.5,171C 239.405,166.941 257.071,162.108 274.5,156.5C 286.22,159.119 296.72,164.119 306,171.5C 306.494,173.134 306.66,174.801 306.5,176.5C 304.284,177.203 302.451,178.536 301,180.5C 298.383,185.183 296.883,190.183 296.5,195.5C 296.163,202.866 295.496,210.199 294.5,217.5C 292.294,224.543 290.96,231.876 290.5,239.5C 290.5,240.167 290.5,240.833 290.5,241.5C 286.542,251.844 281.709,261.844 276,271.5C 272.088,276.083 267.588,279.917 262.5,283C 260.559,283.743 258.726,283.576 257,282.5C 255.417,272.667 251.251,264.334 244.5,257.5C 243.699,255.958 243.366,254.292 243.5,252.5C 245.857,252.337 248.19,252.503 250.5,253C 257.537,258.525 263.037,257.358 267,249.5C 274.631,227.836 277.797,205.503 276.5,182.5C 276.66,180.801 276.494,179.134 276,177.5C 273.374,175.682 270.54,174.349 267.5,173.5C 242.376,176.646 217.376,180.646 192.5,185.5C 185.721,185.266 179.554,183.266 174,179.5C 164.402,189.037 153.569,196.704 141.5,202.5C 139.775,202.157 139.275,201.157 140,199.5C 161.363,178.49 178.363,154.49 191,127.5C 190.773,121.927 190.94,116.427 191.5,111C 193.833,110.333 196.167,110.333 198.5,111C 206.058,114.517 212.558,119.35 218,125.5C 218.495,127.473 218.662,129.473 218.5,131.5 Z"/></g>
<g><path style="opacity:0.082" fill="#eae0ca" d="M 381.5,113.5 C 383.255,114.962 384.588,116.795 385.5,119C 389.597,121.37 393.264,124.203 396.5,127.5C 391.952,125.396 387.619,123.062 383.5,120.5C 382.833,118.167 382.167,115.833 381.5,113.5 Z"/></g>
<g><path style="opacity:0.29" fill="#e5d9c5" d="M 396.5,127.5 C 400.736,129.787 404.402,132.787 407.5,136.5C 409.015,138.547 409.849,140.881 410,143.5C 412.237,144.985 413.737,146.985 414.5,149.5C 412.385,147.109 409.719,145.776 406.5,145.5C 407.823,142.719 407.656,140.053 406,137.5C 402.552,134.224 399.385,130.891 396.5,127.5 Z"/></g>
<g><path style="opacity:0.373" fill="#e9e0ca" d="M 73.5,119.5 C 71.5262,123.793 68.1929,125.46 63.5,124.5C 63.6621,126.527 63.4955,128.527 63,130.5C 62.1572,134.2 60.3239,137.2 57.5,139.5C 58.3664,136.746 59.533,134.079 61,131.5C 61.3333,128.833 61.6667,126.167 62,123.5C 63.7216,123.038 65.555,122.872 67.5,123C 69.4048,121.579 71.4048,120.412 73.5,119.5 Z"/></g>
<g><path style="opacity:0.996" fill="#404439" d="M 218.5,131.5 C 218.66,133.199 218.494,134.866 218,136.5C 211,142.167 204.667,148.5 199,155.5C 193.262,162.394 187.762,169.394 182.5,176.5C 181.022,176.762 179.689,176.429 178.5,175.5C 188.521,163.98 198.355,152.313 208,140.5C 211.252,137.137 214.752,134.137 218.5,131.5 Z"/></g>
<g><path style="opacity:0.663" fill="#e8dcc6" d="M 57.5,139.5 C 56.7739,142.179 55.9406,144.846 55,147.5C 49.4832,157.2 44.4832,167.2 40,177.5C 37.6667,181.167 35.3333,184.833 33,188.5C 31.9646,197.136 31.298,205.803 31,214.5C 29.9783,215.354 29.1449,216.354 28.5,217.5C 32.3726,220.165 32.0393,222.498 27.5,224.5C 27.5106,222.983 28.1772,221.816 29.5,221C 28.3128,219.981 27.3128,218.814 26.5,217.5C 30.5039,211.779 31.5039,205.779 29.5,199.5C 30.439,195.536 31.2724,191.536 32,187.5C 39.9281,171.105 48.4281,155.105 57.5,139.5 Z"/></g>
<g><path style="opacity:0.996" fill="#41423a" d="M 276.5,182.5 C 274.99,181.164 273.323,179.997 271.5,179C 266.833,178.333 262.167,178.333 257.5,179C 235.776,182.038 214.276,185.871 193,190.5C 190.5,190.333 188,190.167 185.5,190C 181.727,188.03 177.894,186.197 174,184.5C 169.511,188.32 165.011,192.153 160.5,196C 155.031,199.303 149.698,202.803 144.5,206.5C 139.579,207.918 138.579,206.585 141.5,202.5C 153.569,196.704 164.402,189.037 174,179.5C 179.554,183.266 185.721,185.266 192.5,185.5C 217.376,180.646 242.376,176.646 267.5,173.5C 270.54,174.349 273.374,175.682 276,177.5C 276.494,179.134 276.66,180.801 276.5,182.5 Z"/></g>
<g><path style="opacity:0.996" fill="#444a38" d="M 306.5,176.5 C 306.203,180.326 304.37,183.326 301,185.5C 299.491,188.946 297.991,192.28 296.5,195.5C 296.883,190.183 298.383,185.183 301,180.5C 302.451,178.536 304.284,177.203 306.5,176.5 Z"/></g>
<g><path style="opacity:0.659" fill="#dccaa8" d="M 414.5,149.5 C 418.855,160.602 421.189,172.269 421.5,184.5C 421.903,196.498 422.237,208.498 422.5,220.5C 421.698,219.048 421.198,217.382 421,215.5C 420.667,204.833 420.333,194.167 420,183.5C 418.914,171.983 417.08,160.65 414.5,149.5 Z"/></g>
<g><path style="opacity:0.996" fill="#336f21" d="M 239.5,220.5 C 230.515,224.653 224.015,231.32 220,240.5C 219.506,242.134 219.34,243.801 219.5,245.5C 219.338,247.527 219.505,249.527 220,251.5C 224.33,252.286 225.83,254.62 224.5,258.5C 219.549,259.228 214.549,259.728 209.5,260C 200.696,262.06 192.029,264.393 183.5,267C 178.177,267.499 172.844,267.666 167.5,267.5C 167.5,268.833 167.5,270.167 167.5,271.5C 167.248,284.077 168.748,296.41 172,308.5C 178.731,316.428 187.231,321.594 197.5,324C 199.134,324.494 200.801,324.66 202.5,324.5C 210.171,327.066 218.171,328.566 226.5,329C 239.5,329.667 252.5,329.667 265.5,329C 267.708,328.809 269.708,328.309 271.5,327.5C 283.282,326.902 294.948,325.402 306.5,323C 323.037,320.127 333.537,310.627 338,294.5C 339.76,287.945 341.093,281.278 342,274.5C 342.795,271.885 344.295,269.885 346.5,268.5C 347.442,268.608 348.275,268.941 349,269.5C 349.004,285.54 351.337,301.207 356,316.5C 356.498,319.482 356.665,322.482 356.5,325.5C 351.886,329.92 346.553,333.42 340.5,336C 322.505,341.12 304.171,344.62 285.5,346.5C 262.482,346.388 239.482,345.721 216.5,344.5C 210.2,343.384 203.867,342.217 197.5,341C 191.101,338.484 184.768,335.817 178.5,333C 173.667,329.5 169.5,325.333 166,320.5C 162.828,314.878 159.995,309.211 157.5,303.5C 156.016,280.043 155.016,256.71 154.5,233.5C 154.569,229.103 153.402,225.103 151,221.5C 150.502,218.183 150.335,214.85 150.5,211.5C 153.85,211.335 157.183,211.502 160.5,212C 161.978,214.057 163.978,215.39 166.5,216C 171.5,216.667 176.5,216.667 181.5,216C 192.969,213.069 204.302,209.569 215.5,205.5C 224.339,206.609 232.173,209.942 239,215.5C 239.494,217.134 239.66,218.801 239.5,220.5 Z"/></g>
<g><path style="opacity:0.996" fill="#3e4139" d="M 208.5,224.5 C 195.833,225.833 183.167,227.167 170.5,228.5C 169.766,227.292 169.433,225.959 169.5,224.5C 176.838,225.141 183.838,223.975 190.5,221C 196.188,219.742 201.854,219.576 207.5,220.5C 208.429,221.689 208.762,223.022 208.5,224.5 Z"/></g>
<g><path style="opacity:0.996" fill="#404638" d="M 239.5,220.5 C 239.657,221.873 239.49,223.207 239,224.5C 230.567,229.764 224.067,236.764 219.5,245.5C 219.34,243.801 219.506,242.134 220,240.5C 224.015,231.32 230.515,224.653 239.5,220.5 Z"/></g>
<g><path style="opacity:0.996" fill="#b29252" d="M 208.5,224.5 C 208.873,233.487 206.54,241.654 201.5,249C 195.706,251.945 189.706,254.278 183.5,256C 178.504,256.611 173.504,257.111 168.5,257.5C 168.31,247.719 168.977,238.052 170.5,228.5C 183.167,227.167 195.833,225.833 208.5,224.5 Z"/></g>
<g><path style="opacity:0.996" fill="#666c3b" d="M 294.5,217.5 C 294.665,220.518 294.498,223.518 294,226.5C 293.076,231.008 291.91,235.342 290.5,239.5C 290.96,231.876 292.294,224.543 294.5,217.5 Z"/></g>
<g><path style="opacity:0.357" fill="#eee5d6" d="M 421.5,184.5 C 422.884,197.335 424.05,210.335 425,223.5C 428.034,229.186 431.034,234.853 434,240.5C 435.409,246.316 434.242,251.483 430.5,256C 431.687,257.019 432.687,258.186 433.5,259.5C 433.145,260.522 432.478,261.189 431.5,261.5C 430.821,259.332 429.821,257.332 428.5,255.5C 434.314,246.643 433.48,238.31 426,230.5C 424.897,227.02 423.731,223.687 422.5,220.5C 422.237,208.498 421.903,196.498 421.5,184.5 Z"/></g>
<g><path style="opacity:0.995" fill="#1c1915" d="M 31.5,246.5 C 32.3764,246.369 33.0431,246.702 33.5,247.5C 37.9098,254.099 39.2431,261.099 37.5,268.5C 36.1798,265.194 34.3465,262.194 32,259.5C 30.5363,255.141 30.3696,250.808 31.5,246.5 Z"/></g>
<g><path style="opacity:0.996" fill="#3f4139" d="M 224.5,258.5 C 225.728,260.01 225.728,261.51 224.5,263C 210.185,265.748 195.851,268.415 181.5,271C 176.845,271.499 172.179,271.666 167.5,271.5C 167.5,270.167 167.5,268.833 167.5,267.5C 172.844,267.666 178.177,267.499 183.5,267C 192.029,264.393 200.696,262.06 209.5,260C 214.549,259.728 219.549,259.228 224.5,258.5 Z"/></g>
<g><path style="opacity:0.996" fill="#5f7535" d="M 154.5,233.5 C 155.016,256.71 156.016,280.043 157.5,303.5C 156.075,300.097 155.242,296.43 155,292.5C 154.5,272.836 154.333,253.169 154.5,233.5 Z"/></g>
<g><path style="opacity:0.241" fill="#e5e5e3" d="M 431.5,261.5 C 430.751,268.457 429.751,275.457 428.5,282.5C 428.5,278.833 428.5,275.167 428.5,271.5C 428.5,270.833 428.5,270.167 428.5,269.5C 429.451,268.081 429.784,266.415 429.5,264.5C 429.285,262.821 429.952,261.821 431.5,261.5 Z"/></g>
<g><path style="opacity:0.996" fill="#564931" d="M 429.5,264.5 C 429.784,266.415 429.451,268.081 428.5,269.5C 427.861,268.903 427.528,268.07 427.5,267C 427.684,265.624 428.351,264.791 429.5,264.5 Z"/></g>
<g><path style="opacity:0.667" fill="#d7c5a3" d="M 428.5,271.5 C 428.5,275.167 428.5,278.833 428.5,282.5C 428.793,285.754 428.126,288.754 426.5,291.5C 425.833,291.5 425.167,291.5 424.5,291.5C 426.705,284.906 428.038,278.24 428.5,271.5 Z"/></g>
<g><path style="opacity:0.996" fill="#424738" d="M 290.5,241.5 C 287.697,255.101 282.197,267.434 274,278.5C 270.167,281.667 266.333,284.833 262.5,288C 260.559,288.743 258.726,288.576 257,287.5C 254.792,277.973 250.792,269.306 245,261.5C 244.51,260.207 244.343,258.873 244.5,257.5C 251.251,264.334 255.417,272.667 257,282.5C 258.726,283.576 260.559,283.743 262.5,283C 267.588,279.917 272.088,276.083 276,271.5C 281.709,261.844 286.542,251.844 290.5,241.5 Z"/></g>
<g><path style="opacity:0.997" fill="#080705" d="M 424.5,293.5 C 424.709,298.623 424.042,303.623 422.5,308.5C 415.614,322.668 408.447,336.668 401,350.5C 400.51,351.793 400.343,353.127 400.5,354.5C 398.896,355.287 398.229,356.62 398.5,358.5C 396.926,358.937 395.759,359.937 395,361.5C 393.801,364.726 393.301,368.059 393.5,371.5C 391.143,371.337 388.81,371.503 386.5,372C 379.5,380.333 371.833,388 363.5,395C 345.089,405.741 328.089,418.407 312.5,433C 309.725,433.778 307.225,433.278 305,431.5C 299.729,436.081 293.562,437.748 286.5,436.5C 283.545,435.841 280.545,435.508 277.5,435.5C 277.389,434.883 277.056,434.383 276.5,434C 268.485,433.442 260.485,433.609 252.5,434.5C 242.816,435.447 233.149,435.447 223.5,434.5C 219.607,434.236 215.774,433.569 212,432.5C 206.032,435.462 199.866,437.962 193.5,440C 185.058,442.256 176.725,441.922 168.5,439C 149.938,431.054 132.272,421.554 115.5,410.5C 111.866,406.856 108.533,402.856 105.5,398.5C 104.682,395.893 104.182,393.226 104,390.5C 101.706,389.578 99.5394,388.578 97.5,387.5C 94.7131,386.523 91.7131,386.19 88.5,386.5C 88.5,384.833 88.5,383.167 88.5,381.5C 86.1667,381.5 83.8333,381.5 81.5,381.5C 80.4434,379.059 79.11,376.725 77.5,374.5C 69.4444,369.801 62.111,364.135 55.5,357.5C 54.4528,356.078 54.4528,354.578 55.5,353C 50.5961,349.026 47.9294,343.86 47.5,337.5C 46.7417,334.648 46.7417,331.981 47.5,329.5C 48.7432,331.164 50.4098,332.331 52.5,333C 51.4464,334.388 51.2797,335.888 52,337.5C 58.3366,345.178 65.8366,351.345 74.5,356C 76.7411,357.739 78.4078,359.906 79.5,362.5C 80.7757,363.645 82.109,363.645 83.5,362.5C 84.2304,364.341 84.8971,366.175 85.5,368C 90.6825,368.131 95.6825,369.131 100.5,371C 101.742,379.799 106.075,386.799 113.5,392C 132.311,405.572 152.644,416.239 174.5,424C 184.265,424.831 193.598,423.164 202.5,419C 206.039,415.703 210.039,414.536 214.5,415.5C 217.203,416.963 220.203,417.796 223.5,418C 237.862,418.529 252.195,418.029 266.5,416.5C 275.729,416.94 284.895,417.94 294,419.5C 296.484,419.503 298.651,418.837 300.5,417.5C 302.773,416.233 304.773,414.567 306.5,412.5C 308.75,414.798 311.416,415.631 314.5,415C 319.199,409.966 324.199,405.3 329.5,401C 342.5,392 355.5,383 368.5,374C 375.113,367.387 381.779,360.721 388.5,354C 391.063,352.921 393.729,352.421 396.5,352.5C 396.187,349.753 396.52,347.086 397.5,344.5C 405.641,328.218 413.807,311.885 422,295.5C 422.708,294.619 423.542,293.953 424.5,293.5 Z"/></g>
<g><path style="opacity:0.161" fill="#b4b4b4" d="M 424.5,291.5 C 425.167,291.5 425.833,291.5 426.5,291.5C 426.834,297.994 426.001,304.327 424,310.5C 416.462,325.291 408.628,339.958 400.5,354.5C 400.343,353.127 400.51,351.793 401,350.5C 408.447,336.668 415.614,322.668 422.5,308.5C 424.042,303.623 424.709,298.623 424.5,293.5C 424.5,292.833 424.5,292.167 424.5,291.5 Z"/></g>
<g><path style="opacity:0.227" fill="#cec9c0" d="M 27.5,224.5 C 27.2505,227.002 26.9172,229.502 26.5,232C 28.3454,236.192 30.3454,240.359 32.5,244.5C 32.1373,245.183 31.8039,245.85 31.5,246.5C 30.3696,250.808 30.5363,255.141 32,259.5C 34.3465,262.194 36.1798,265.194 37.5,268.5C 39.339,287.212 41.6723,305.878 44.5,324.5C 44.3738,329.222 45.3738,333.555 47.5,337.5C 47.9294,343.86 50.5961,349.026 55.5,353C 54.4528,354.578 54.4528,356.078 55.5,357.5C 62.111,364.135 69.4444,369.801 77.5,374.5C 79.11,376.725 80.4434,379.059 81.5,381.5C 83.2646,382.461 85.2646,382.795 87.5,382.5C 87.5,384.167 87.5,385.833 87.5,387.5C 86.3099,385.174 84.3099,384.007 81.5,384C 79.9594,380.45 77.626,377.45 74.5,375C 66.7285,369.894 59.5619,364.06 53,357.5C 52.4054,356.101 52.5721,354.768 53.5,353.5C 51.5237,351.603 49.6904,349.603 48,347.5C 41.2341,321.95 37.2341,295.95 36,269.5C 33.1394,265.112 30.8061,260.446 29,255.5C 28.1958,251.796 28.6958,248.296 30.5,245C 25.321,238.671 24.321,231.837 27.5,224.5 Z"/></g>
<g><path style="opacity:0.996" fill="#9c8d49" d="M 202.5,324.5 C 208.416,324.155 214.083,324.988 219.5,327C 236.83,327.5 254.163,327.667 271.5,327.5C 269.708,328.309 267.708,328.809 265.5,329C 252.5,329.667 239.5,329.667 226.5,329C 218.171,328.566 210.171,327.066 202.5,324.5 Z"/></g>
<g><path style="opacity:0.996" fill="#42443a" d="M 157.5,303.5 C 159.995,309.211 162.828,314.878 166,320.5C 169.5,325.333 173.667,329.5 178.5,333C 184.768,335.817 191.101,338.484 197.5,341C 203.867,342.217 210.2,343.384 216.5,344.5C 224.298,345.848 232.298,346.681 240.5,347C 255.672,347.828 270.672,347.661 285.5,346.5C 304.171,344.62 322.505,341.12 340.5,336C 346.553,333.42 351.886,329.92 356.5,325.5C 356.857,329.664 355.19,332.831 351.5,335C 342.435,340.182 332.768,343.682 322.5,345.5C 291.465,352.564 260.132,354.231 228.5,350.5C 212.424,349.986 197.091,346.486 182.5,340C 168.817,331.486 160.484,319.32 157.5,303.5 Z"/></g>
<g><path style="opacity:0.882" fill="#48443d" d="M 44.5,324.5 C 46.2503,325.659 47.2503,327.326 47.5,329.5C 46.7417,331.981 46.7417,334.648 47.5,337.5C 45.3738,333.555 44.3738,329.222 44.5,324.5 Z"/></g>
<g><path style="opacity:0.996" fill="#2e5b26" d="M 216.5,344.5 C 239.482,345.721 262.482,346.388 285.5,346.5C 270.672,347.661 255.672,347.828 240.5,347C 232.298,346.681 224.298,345.848 216.5,344.5 Z"/></g>
<g><path style="opacity:0.996" fill="#9d824d" d="M 322.5,345.5 C 319.788,346.359 317.122,347.525 314.5,349C 287.314,353.309 259.981,354.475 232.5,352.5C 231.051,351.828 229.718,351.161 228.5,350.5C 260.132,354.231 291.465,352.564 322.5,345.5 Z"/></g>
<g><path style="opacity:0.169" fill="#b7b7b7" d="M 400.5,354.5 C 400.771,356.38 400.104,357.713 398.5,358.5C 398.229,356.62 398.896,355.287 400.5,354.5 Z"/></g>
<g><path style="opacity:0.882" fill="#585858" d="M 81.5,381.5 C 83.8333,381.5 86.1667,381.5 88.5,381.5C 88.5,383.167 88.5,384.833 88.5,386.5C 91.7131,386.19 94.7131,386.523 97.5,387.5C 94.1667,387.5 90.8333,387.5 87.5,387.5C 87.5,385.833 87.5,384.167 87.5,382.5C 85.2646,382.795 83.2646,382.461 81.5,381.5 Z"/></g>
<g><path style="opacity:0.333" fill="#b1b1b1" d="M 87.5,387.5 C 90.8333,387.5 94.1667,387.5 97.5,387.5C 99.5394,388.578 101.706,389.578 104,390.5C 104.182,393.226 104.682,395.893 105.5,398.5C 108.533,402.856 111.866,406.856 115.5,410.5C 107.544,406.375 102.877,399.875 101.5,391C 96.7926,389.506 92.1259,388.34 87.5,387.5 Z"/></g>
<g><path style="opacity:0.996" fill="#66522e" d="M 214.5,415.5 C 231.149,416.701 247.816,416.701 264.5,415.5C 276.488,416.432 288.488,417.099 300.5,417.5C 298.651,418.837 296.484,419.503 294,419.5C 284.895,417.94 275.729,416.94 266.5,416.5C 252.195,418.029 237.862,418.529 223.5,418C 220.203,417.796 217.203,416.963 214.5,415.5 Z"/></g>
<g><path style="opacity:0.098" fill="#acabab" d="M 398.5,358.5 C 397.951,360.901 397.118,363.235 396,365.5C 395.503,368.146 395.336,370.813 395.5,373.5C 393.738,373.643 392.071,373.309 390.5,372.5C 382.355,379.145 374.688,386.311 367.5,394C 354.167,403.333 340.833,412.667 327.5,422C 322.533,425.966 317.866,430.299 313.5,435C 310.534,435.895 307.867,435.395 305.5,433.5C 299.83,438.38 293.497,439.714 286.5,437.5C 286.5,437.167 286.5,436.833 286.5,436.5C 293.562,437.748 299.729,436.081 305,431.5C 307.225,433.278 309.725,433.778 312.5,433C 328.089,418.407 345.089,405.741 363.5,395C 371.833,388 379.5,380.333 386.5,372C 388.81,371.503 391.143,371.337 393.5,371.5C 393.301,368.059 393.801,364.726 395,361.5C 395.759,359.937 396.926,358.937 398.5,358.5 Z"/></g>
<g><path style="opacity:0.765" fill="#444444" d="M 223.5,434.5 C 233.149,435.447 242.816,435.447 252.5,434.5C 250.708,435.309 248.708,435.809 246.5,436C 240.175,436.5 233.842,436.666 227.5,436.5C 226.167,435.833 224.833,435.167 223.5,434.5 Z"/></g>
<g><path style="opacity:0.09" fill="#e8e8e8" d="M 277.5,435.5 C 280.545,435.508 283.545,435.841 286.5,436.5C 286.5,436.833 286.5,437.167 286.5,437.5C 283.273,437.324 280.273,436.657 277.5,435.5 Z"/></g>
<g><path style="opacity:0.067" fill="#cdcccc" d="M 277.5,435.5 C 262.597,435.474 247.764,436.474 233,438.5C 229.323,438.028 225.823,437.362 222.5,436.5C 224.167,436.5 225.833,436.5 227.5,436.5C 233.842,436.666 240.175,436.5 246.5,436C 248.708,435.809 250.708,435.309 252.5,434.5C 260.485,433.609 268.485,433.442 276.5,434C 277.056,434.383 277.389,434.883 277.5,435.5 Z"/></g>
<g><path style="opacity:0.376" fill="#9f9f9f" d="M 115.5,410.5 C 132.272,421.554 149.938,431.054 168.5,439C 176.725,441.922 185.058,442.256 193.5,440C 199.866,437.962 206.032,435.462 212,432.5C 215.774,433.569 219.607,434.236 223.5,434.5C 224.833,435.167 226.167,435.833 227.5,436.5C 225.833,436.5 224.167,436.5 222.5,436.5C 219.115,436.154 215.782,435.488 212.5,434.5C 206.631,437.301 200.631,439.801 194.5,442C 186.495,443.94 178.495,443.94 170.5,442C 156.275,435.439 142.275,428.439 128.5,421C 123.731,417.96 119.397,414.46 115.5,410.5 Z"/></g>
</svg>
