<?xml version="1.0" encoding="UTF-8"?>
<!DOCTYPE svg PUBLIC "-//W3C//DTD SVG 1.1//EN" "http://www.w3.org/Graphics/SVG/1.1/DTD/svg11.dtd">
<svg xmlns="http://www.w3.org/2000/svg" version="1.1" width="471px" height="470px" style="shape-rendering:geometricPrecision; text-rendering:geometricPrecision; image-rendering:optimizeQuality; fill-rule:evenodd; clip-rule:evenodd" xmlns:xlink="http://www.w3.org/1999/xlink">
<g><path style="opacity:0.518" fill="#e0d1b4" d="M 293.5,53.5 C 288.359,53.6773 283.026,53.8439 277.5,54C 271.631,56.1359 265.631,57.9692 259.5,59.5C 260.749,57.8639 262.416,56.6972 264.5,56C 269.543,54.8225 274.543,53.4892 279.5,52C 284.293,51.3491 288.959,51.8491 293.5,53.5 Z"/></g>
<g><path style="opacity:0.996" fill="#b59352" d="M 293.5,53.5 C 294.167,53.5 294.5,53.8333 294.5,54.5C 294.953,55.4584 295.619,56.2917 296.5,57C 310.178,62.4998 323.511,68.6665 336.5,75.5C 339.407,79.7294 343.407,82.3961 348.5,83.5C 353.5,87.8333 358.167,92.5 362.5,97.5C 362.183,100.572 362.516,103.572 363.5,106.5C 365.071,107.309 366.738,107.643 368.5,107.5C 371.903,108.925 375.57,109.758 379.5,110C 380.38,111.356 380.714,112.856 380.5,114.5C 382.5,114.5 384.5,114.5 386.5,114.5C 386.811,118.17 388.478,121.17 391.5,123.5C 398.396,126.772 404.73,130.772 410.5,135.5C 410.343,136.873 410.51,138.207 411,139.5C 411.739,141.889 412.905,143.889 414.5,145.5C 417.752,150.621 420.419,155.954 422.5,161.5C 422.19,164.713 422.523,167.713 423.5,170.5C 424.535,186.153 425.869,201.486 427.5,216.5C 427.92,224.766 430.753,232.1 436,238.5C 438.66,245.043 437.827,251.043 433.5,256.5C 433.722,258.055 434.389,259.389 435.5,260.5C 434.873,261.417 434.539,262.417 434.5,263.5C 433.275,264.152 432.608,265.319 432.5,267C 432.514,268.385 432.848,269.551 433.5,270.5C 434.379,278.609 433.045,286.276 429.5,293.5C 420.561,310.378 411.895,327.378 403.5,344.5C 402.883,344.611 402.383,344.944 402,345.5C 401.503,347.81 401.337,350.143 401.5,352.5C 399.473,352.338 397.473,352.505 395.5,353C 394.944,353.383 394.611,353.883 394.5,354.5C 387.395,361.103 380.395,367.937 373.5,375C 360.833,383.667 348.167,392.333 335.5,401C 329.865,405.633 324.532,410.633 319.5,416C 316.258,416.986 313.592,416.152 311.5,413.5C 309.456,415.219 307.456,416.886 305.5,418.5C 300.167,418.5 294.833,418.5 289.5,418.5C 284.41,417.035 279.077,416.368 273.5,416.5C 262.17,417.218 250.836,417.884 239.5,418.5C 231.507,418.668 223.674,417.668 216,415.5C 209.934,417.412 204.101,419.912 198.5,423C 190.173,424.953 181.84,424.953 173.5,423C 162.483,417.873 151.483,412.54 140.5,407C 133.365,402.366 126.365,397.533 119.5,392.5C 118.415,390.413 116.749,389.08 114.5,388.5C 109.842,384.157 106.842,378.824 105.5,372.5C 100.655,369.396 95.322,368.062 89.5,368.5C 89.5,366.833 89.5,365.167 89.5,363.5C 87.8008,363.66 86.1341,363.494 84.5,363C 82.8745,360.372 80.8745,358.039 78.5,356C 70.1734,351.681 63.0067,345.848 57,338.5C 56.3486,336.765 56.5153,335.098 57.5,333.5C 57.0431,332.702 56.3764,332.369 55.5,332.5C 53.4707,330.142 51.4707,327.808 49.5,325.5C 49.8016,322.941 49.4682,320.607 48.5,318.5C 45.0772,302.331 43.0772,285.998 42.5,269.5C 42.5,268.833 42.5,268.167 42.5,267.5C 42.6655,263.486 42.4988,259.486 42,255.5C 40.1552,253.133 38.9886,250.467 38.5,247.5C 38.5,246.833 38.1667,246.5 37.5,246.5C 35.8602,242.555 33.8602,238.889 31.5,235.5C 31.3187,232.603 31.6521,229.77 32.5,227C 34.3584,225.742 35.6918,224.075 36.5,222C 36.5607,220.289 35.8941,218.956 34.5,218C 35.1905,216.933 35.6905,215.766 36,214.5C 36.2511,206.976 36.7511,199.476 37.5,192C 47.5898,171.862 57.7565,151.695 68,131.5C 68.4955,129.527 68.6621,127.527 68.5,125.5C 70.9201,125.708 73.2534,125.374 75.5,124.5C 82.1882,117.48 88.8549,110.48 95.5,103.5C 97.7488,102.92 99.4154,101.587 100.5,99.5C 108.699,94.9032 116.365,89.5699 123.5,83.5C 127.466,81.2217 131.466,78.8884 135.5,76.5C 141.161,71.5061 146.494,66.1727 151.5,60.5C 151.5,59.8333 151.833,59.5 152.5,59.5C 156.217,65.679 160.217,65.8457 164.5,60C 166.833,59.8333 169.167,59.6667 171.5,59.5C 180.469,60.5795 189.469,61.2462 198.5,61.5C 215.847,60.2992 233.181,60.2992 250.5,61.5C 253.845,62.8962 256.845,62.2295 259.5,59.5C 265.631,57.9692 271.631,56.1359 277.5,54C 283.026,53.8439 288.359,53.6773 293.5,53.5 Z"/></g>
<g><path style="opacity:0.808" fill="#dfd0b1" d="M 250.5,61.5 C 233.181,60.2992 215.847,60.2992 198.5,61.5C 189.469,61.2462 180.469,60.5795 171.5,59.5C 169.167,59.6667 166.833,59.8333 164.5,60C 160.217,65.8457 156.217,65.679 152.5,59.5C 154.473,60.4867 156.473,61.4867 158.5,62.5C 161.613,59.3642 165.446,57.6975 170,57.5C 190.592,60.9133 211.259,61.2466 232,58.5C 237.194,58.7118 242.361,59.2118 247.5,60C 248.737,60.2321 249.737,60.7321 250.5,61.5 Z"/></g>
<g><path style="opacity:0.012" fill="#f3eadf" d="M 259.5,59.5 C 256.845,62.2295 253.845,62.8962 250.5,61.5C 253.574,61.1274 256.574,60.4608 259.5,59.5 Z"/></g>
<g><path style="opacity:0.439" fill="#ddccaa" d="M 294.5,54.5 C 308.15,59.8228 321.484,65.9895 334.5,73C 335.381,73.7083 336.047,74.5416 336.5,75.5C 323.511,68.6665 310.178,62.4998 296.5,57C 295.619,56.2917 294.953,55.4584 294.5,54.5 Z"/></g>
<g><path style="opacity:0.239" fill="#e6dac1" d="M 151.5,60.5 C 146.494,66.1727 141.161,71.5061 135.5,76.5C 131.466,78.8884 127.466,81.2217 123.5,83.5C 132.828,75.84 142.161,68.1734 151.5,60.5 Z"/></g>
<g><path style="opacity:0.992" fill="#d6c19b" d="M 336.5,75.5 C 341.293,76.9562 345.293,79.6229 348.5,83.5C 343.407,82.3961 339.407,79.7294 336.5,75.5 Z"/></g>
<g><path style="opacity:0.22" fill="#e7dbc0" d="M 348.5,83.5 C 354.868,86.5343 359.534,91.201 362.5,97.5C 358.167,92.5 353.5,87.8333 348.5,83.5 Z"/></g>
<g><path style="opacity:0.38" fill="#e5d8bf" d="M 123.5,83.5 C 116.365,89.5699 108.699,94.9032 100.5,99.5C 104.763,96.0191 109.097,92.5191 113.5,89C 116.74,86.9094 120.074,85.0761 123.5,83.5 Z"/></g>
<g><path style="opacity:0.616" fill="#e3d6b9" d="M 362.5,97.5 C 364.011,99.4758 364.844,101.809 365,104.5C 366.145,105.636 367.312,106.636 368.5,107.5C 366.738,107.643 365.071,107.309 363.5,106.5C 362.516,103.572 362.183,100.572 362.5,97.5 Z"/></g>
<g><path style="opacity:0.353" fill="#e5d2ba" d="M 100.5,99.5 C 99.4154,101.587 97.7488,102.92 95.5,103.5C 96.5846,101.413 98.2512,100.08 100.5,99.5 Z"/></g>
<g><path style="opacity:0.118" fill="#e3d5b9" d="M 368.5,107.5 C 372.509,107.858 376.509,108.358 380.5,109C 381.337,110.011 381.67,111.178 381.5,112.5C 383.781,112.077 385.448,112.744 386.5,114.5C 384.5,114.5 382.5,114.5 380.5,114.5C 380.714,112.856 380.38,111.356 379.5,110C 375.57,109.758 371.903,108.925 368.5,107.5 Z"/></g>
<g><path style="opacity:0.996" fill="#356f22" d="M 302.5,120.5 C 299.222,121.809 296.222,123.642 293.5,126C 282.5,135.667 271.5,145.333 260.5,155C 259.255,155.791 257.922,156.291 256.5,156.5C 255.527,154.932 255.36,153.265 256,151.5C 261.599,142.633 266.932,133.633 272,124.5C 272.954,119.31 273.787,114.143 274.5,109C 285.013,107.172 294.513,109.338 303,115.5C 303.64,117.265 303.473,118.932 302.5,120.5 Z"/></g>
<g><path style="opacity:0.118" fill="#e0d1b1" d="M 386.5,114.5 C 388.268,116.508 389.934,118.674 391.5,121C 398.622,124.884 404.955,129.717 410.5,135.5C 404.73,130.772 398.396,126.772 391.5,123.5C 388.478,121.17 386.811,118.17 386.5,114.5 Z"/></g>
<g><path style="opacity:0.996" fill="#336e21" d="M 228.5,155.5 C 226.1,158.24 223.1,159.073 219.5,158C 211.914,150.418 205.081,142.252 199,133.5C 198.329,132.748 197.496,132.414 196.5,132.5C 196.5,130.833 196.5,129.167 196.5,127.5C 210.193,126.372 221.027,131.372 229,142.5C 229.706,146.887 229.54,151.22 228.5,155.5 Z"/></g>
<g><path style="opacity:0.169" fill="#ddceae" d="M 410.5,135.5 C 413.917,137.891 415.25,141.225 414.5,145.5C 412.905,143.889 411.739,141.889 411,139.5C 410.51,138.207 410.343,136.873 410.5,135.5 Z"/></g>
<g><path style="opacity:0.996" fill="#3f4239" d="M 302.5,120.5 C 303.803,122.757 303.136,124.59 300.5,126C 287.916,135.247 275.916,145.247 264.5,156C 261.92,157.786 259.253,159.286 256.5,160.5C 256.5,159.167 256.5,157.833 256.5,156.5C 257.922,156.291 259.255,155.791 260.5,155C 271.5,145.333 282.5,135.667 293.5,126C 296.222,123.642 299.222,121.809 302.5,120.5 Z"/></g>
<g><path style="opacity:0.282" fill="#e1d2b6" d="M 95.5,103.5 C 88.8549,110.48 82.1882,117.48 75.5,124.5C 73.2534,125.374 70.9201,125.708 68.5,125.5C 68.6621,127.527 68.4955,129.527 68,131.5C 57.7565,151.695 47.5898,171.862 37.5,192C 36.7511,199.476 36.2511,206.976 36,214.5C 35.6905,215.766 35.1905,216.933 34.5,218C 35.8941,218.956 36.5607,220.289 36.5,222C 35.6918,224.075 34.3584,225.742 32.5,227C 31.6521,229.77 31.3187,232.603 31.5,235.5C 29.7341,230.362 30.7341,225.696 34.5,221.5C 30.5493,218.775 30.716,216.108 35,213.5C 35.3333,206.167 35.6667,198.833 36,191.5C 45.7291,171.709 55.7291,152.042 66,132.5C 66.3333,129.833 66.6667,127.167 67,124.5C 69.405,123.726 71.905,123.226 74.5,123C 80.763,115.566 87.763,109.066 95.5,103.5 Z"/></g>
<g><path style="opacity:0.996" fill="#40433a" d="M 196.5,132.5 C 197.496,132.414 198.329,132.748 199,133.5C 205.081,142.252 211.914,150.418 219.5,158C 223.1,159.073 226.1,158.24 228.5,155.5C 227.986,161.996 224.653,163.996 218.5,161.5C 212.911,154.736 207.078,148.069 201,141.5C 198.775,138.8 197.275,135.8 196.5,132.5 Z"/></g>
<g><path style="opacity:0.996" fill="#336f21" d="M 368.5,169.5 C 366.565,170.15 364.565,170.483 362.5,170.5C 356.167,170.5 349.833,170.5 343.5,170.5C 327.833,170.5 312.167,170.5 296.5,170.5C 286.658,170.823 276.992,171.489 267.5,172.5C 241.901,175.409 216.234,178.242 190.5,181C 174.71,183.207 159.043,186.041 143.5,189.5C 135.67,188.782 128.67,186.116 122.5,181.5C 121.85,179.565 121.517,177.565 121.5,175.5C 131.19,175.832 140.856,175.498 150.5,174.5C 174.494,172.356 198.494,170.189 222.5,168C 246.05,164.949 269.716,161.949 293.5,159C 307.538,155.577 321.704,153.41 336,152.5C 348.837,151.508 359.837,155.508 369,164.5C 369.78,166.387 369.613,168.054 368.5,169.5 Z"/></g>
<g><path style="opacity:0.455" fill="#d9c39f" d="M 414.5,145.5 C 415.822,145.33 416.989,145.663 418,146.5C 420.897,151.088 422.397,156.088 422.5,161.5C 420.419,155.954 417.752,150.621 414.5,145.5 Z"/></g>
<g><path style="opacity:0.996" fill="#2f5529" d="M 296.5,170.5 C 287.055,172.192 277.388,172.858 267.5,172.5C 276.992,171.489 286.658,170.823 296.5,170.5 Z"/></g>
<g><path style="opacity:0.996" fill="#40423a" d="M 368.5,169.5 C 368.5,171.167 368.5,172.833 368.5,174.5C 363.277,175.903 357.944,176.569 352.5,176.5C 333.51,175.625 314.51,175.292 295.5,175.5C 284.149,176.009 272.816,176.675 261.5,177.5C 251.264,177.58 241.264,178.58 231.5,180.5C 230.791,181.404 229.791,181.737 228.5,181.5C 204.513,184.093 180.513,187.26 156.5,191C 155.944,191.383 155.611,191.883 155.5,192.5C 141.809,197.32 130.476,194.154 121.5,183C 121.57,182.235 121.903,181.735 122.5,181.5C 128.67,186.116 135.67,188.782 143.5,189.5C 159.043,186.041 174.71,183.207 190.5,181C 216.234,178.242 241.901,175.409 267.5,172.5C 277.388,172.858 287.055,172.192 296.5,170.5C 312.167,170.5 327.833,170.5 343.5,170.5C 349.267,172.22 355.267,172.72 361.5,172C 362.056,171.617 362.389,171.117 362.5,170.5C 364.565,170.483 366.565,170.15 368.5,169.5 Z"/></g>
<g><path style="opacity:0.996" fill="#2f5b26" d="M 343.5,170.5 C 349.833,170.5 356.167,170.5 362.5,170.5C 362.389,171.117 362.056,171.617 361.5,172C 355.267,172.72 349.267,172.22 343.5,170.5 Z"/></g>
<g><path style="opacity:0.078" fill="#e5d5c0" d="M 422.5,161.5 C 424.075,165.59 425.075,169.923 425.5,174.5C 424.833,173.167 424.167,171.833 423.5,170.5C 422.523,167.713 422.19,164.713 422.5,161.5 Z"/></g>
<g><path style="opacity:0.996" fill="#857048" d="M 295.5,175.5 C 284.362,177.068 273.029,178.068 261.5,178.5C 261.5,178.167 261.5,177.833 261.5,177.5C 272.816,176.675 284.149,176.009 295.5,175.5 Z"/></g>
<g><path style="opacity:0.996" fill="#625741" d="M 261.5,177.5 C 261.5,177.833 261.5,178.167 261.5,178.5C 251.524,179.497 241.524,180.164 231.5,180.5C 241.264,178.58 251.264,177.58 261.5,177.5 Z"/></g>
<g><path style="opacity:0.996" fill="#326e21" d="M 316.5,200.5 C 315.678,202.389 314.845,204.389 314,206.5C 313.833,213.5 313.667,220.5 313.5,227.5C 313.372,239.035 314.039,250.369 315.5,261.5C 315.176,268.354 315.509,275.021 316.5,281.5C 316.127,291.721 316.793,301.721 318.5,311.5C 318.5,316.833 318.5,322.167 318.5,327.5C 315.73,333.626 313.23,339.959 311,346.5C 308.861,349.939 306.361,353.106 303.5,356C 300.356,356.952 297.856,356.119 296,353.5C 290.123,342.143 283.29,331.476 275.5,321.5C 274.596,320.791 274.263,319.791 274.5,318.5C 280.651,319.35 286.651,320.683 292.5,322.5C 295.371,322.885 297.537,321.885 299,319.5C 302.143,289.523 302.31,259.523 299.5,229.5C 299.913,220.533 298.913,211.866 296.5,203.5C 296.052,197.782 293.719,193.115 289.5,189.5C 288.631,187.283 288.298,184.95 288.5,182.5C 299.267,182.145 308.434,185.812 316,193.5C 316.497,195.81 316.663,198.143 316.5,200.5 Z"/></g>
<g><path style="opacity:0.996" fill="#987e4c" d="M 228.5,181.5 C 227.737,182.268 226.737,182.768 225.5,183C 202.144,186.192 178.811,189.359 155.5,192.5C 155.611,191.883 155.944,191.383 156.5,191C 180.513,187.26 204.513,184.093 228.5,181.5 Z"/></g>
<g><path style="opacity:0.996" fill="#414838" d="M 289.5,189.5 C 293.719,193.115 296.052,197.782 296.5,203.5C 293.102,199.372 290.769,194.705 289.5,189.5 Z"/></g>
<g><path style="opacity:0.996" fill="#346f21" d="M 235.5,215.5 C 233.287,217.958 232.121,220.958 232,224.5C 231.171,242.338 231.338,260.005 232.5,277.5C 234.128,289.403 234.628,301.403 234,313.5C 232.856,315.709 232.023,318.043 231.5,320.5C 229.298,325.232 226.798,329.899 224,334.5C 220.333,339.833 216.667,339.833 213,334.5C 209.482,327.15 204.648,320.817 198.5,315.5C 196.721,314.33 195.721,312.664 195.5,310.5C 201.317,312.114 207.317,312.614 213.5,312C 214.911,309.622 216.077,307.122 217,304.5C 217.667,277.167 217.667,249.833 217,222.5C 216.809,220.292 216.309,218.292 215.5,216.5C 215.946,213.99 215.28,211.99 213.5,210.5C 212.726,209.853 211.726,209.52 210.5,209.5C 203.297,210.764 196.297,212.431 189.5,214.5C 186.5,214.5 183.5,214.5 180.5,214.5C 180.5,216.167 180.5,217.833 180.5,219.5C 180.5,225.167 180.5,230.833 180.5,236.5C 182.099,236.768 183.432,236.434 184.5,235.5C 188.57,234.644 192.57,233.477 196.5,232C 201.195,231.263 205.361,232.43 209,235.5C 209.966,238.34 209.133,240.34 206.5,241.5C 198.329,243.706 189.995,244.873 181.5,245C 180.62,246.356 180.286,247.856 180.5,249.5C 180.5,255.5 180.5,261.5 180.5,267.5C 188.356,265.246 196.356,264.413 204.5,265C 207.941,266.318 209.275,268.818 208.5,272.5C 199.169,275.941 189.502,277.274 179.5,276.5C 179.5,277.833 179.5,279.167 179.5,280.5C 177.899,285.599 176.899,290.933 176.5,296.5C 175.351,296.791 174.684,297.624 174.5,299C 173.857,305.986 172.524,312.819 170.5,319.5C 169.055,322.118 167.389,324.618 165.5,327C 164.167,327.667 162.833,327.667 161.5,327C 160.627,325.955 159.627,325.122 158.5,324.5C 157.557,316.519 157.39,308.519 158,300.5C 159.08,298.004 160.414,295.67 162,293.5C 167.011,269.057 169.178,244.39 168.5,219.5C 168.741,215.981 167.407,213.315 164.5,211.5C 164.5,209.5 164.5,207.5 164.5,205.5C 180.286,208.694 194.953,206.194 208.5,198C 218.948,197.029 227.948,200.196 235.5,207.5C 236.703,210.16 236.703,212.827 235.5,215.5 Z"/></g>
<g><path style="opacity:0.984" fill="#ccb384" d="M 423.5,170.5 C 424.167,171.833 424.833,173.167 425.5,174.5C 426.482,177.962 426.815,181.629 426.5,185.5C 426.716,195.838 427.049,206.171 427.5,216.5C 425.869,201.486 424.535,186.153 423.5,170.5 Z"/></g>
<g><path style="opacity:0.996" fill="#346e22" d="M 273.5,215.5 C 272.886,237.175 272.219,258.842 271.5,280.5C 270.534,284.428 268.534,287.761 265.5,290.5C 263.971,290.471 262.804,289.804 262,288.5C 260.541,286.568 259.375,284.568 258.5,282.5C 259.176,265.175 259.509,247.842 259.5,230.5C 258.797,223.777 256.464,217.777 252.5,212.5C 252.338,210.473 252.505,208.473 253,206.5C 256.545,205.434 260.045,205.767 263.5,207.5C 267.553,209.29 270.887,211.957 273.5,215.5 Z"/></g>
<g><path style="opacity:0.996" fill="#3e3f3a" d="M 213.5,210.5 C 215.28,211.99 215.946,213.99 215.5,216.5C 214.833,216.167 214.167,215.833 213.5,215.5C 212.378,214.844 211.045,214.511 209.5,214.5C 205.148,214.659 201.148,215.659 197.5,217.5C 196.5,217.5 195.5,217.5 194.5,217.5C 189.747,217.843 185.081,218.51 180.5,219.5C 180.5,217.833 180.5,216.167 180.5,214.5C 183.5,214.5 186.5,214.5 189.5,214.5C 197.64,213.804 205.64,212.471 213.5,210.5 Z"/></g>
<g><path style="opacity:0.996" fill="#71713f" d="M 296.5,203.5 C 298.913,211.866 299.913,220.533 299.5,229.5C 298.149,221.014 297.149,212.348 296.5,203.5 Z"/></g>
<g><path style="opacity:0.996" fill="#334830" d="M 213.5,210.5 C 205.64,212.471 197.64,213.804 189.5,214.5C 196.297,212.431 203.297,210.764 210.5,209.5C 211.726,209.52 212.726,209.853 213.5,210.5 Z"/></g>
<g><path style="opacity:0.996" fill="#454e36" d="M 164.5,211.5 C 167.407,213.315 168.741,215.981 168.5,219.5C 165.593,217.685 164.259,215.019 164.5,211.5 Z"/></g>
<g><path style="opacity:0.996" fill="#7e6b47" d="M 213.5,215.5 C 208.137,215.949 202.804,216.616 197.5,217.5C 201.148,215.659 205.148,214.659 209.5,214.5C 211.045,214.511 212.378,214.844 213.5,215.5 Z"/></g>
<g><path style="opacity:0.996" fill="#4a5138" d="M 252.5,212.5 C 256.464,217.777 258.797,223.777 259.5,230.5C 256.287,224.915 253.954,218.915 252.5,212.5 Z"/></g>
<g><path style="opacity:0.996" fill="#908148" d="M 194.5,217.5 C 190.924,219.728 186.924,220.728 182.5,220.5C 181.892,225.944 182.558,230.944 184.5,235.5C 183.432,236.434 182.099,236.768 180.5,236.5C 180.5,230.833 180.5,225.167 180.5,219.5C 185.081,218.51 189.747,217.843 194.5,217.5 Z"/></g>
<g><path style="opacity:0.996" fill="#898145" d="M 316.5,200.5 C 314.971,209.565 314.304,218.732 314.5,228C 314.739,239.172 315.073,250.339 315.5,261.5C 314.039,250.369 313.372,239.035 313.5,227.5C 313.667,220.5 313.833,213.5 314,206.5C 314.845,204.389 315.678,202.389 316.5,200.5 Z"/></g>
<g><path style="opacity:0.996" fill="#647737" d="M 235.5,215.5 C 235.206,220.261 234.373,224.928 233,229.5C 232.5,245.497 232.333,261.497 232.5,277.5C 231.338,260.005 231.171,242.338 232,224.5C 232.121,220.958 233.287,217.958 235.5,215.5 Z"/></g>
<g><path style="opacity:0.188" fill="#e7ddc8" d="M 426.5,185.5 C 428.052,196.626 428.885,207.959 429,219.5C 431.071,226.248 434.071,232.582 438,238.5C 440.584,245.06 439.75,251.06 435.5,256.5C 436.5,257.833 437.5,259.167 438.5,260.5C 435.469,268.805 433.969,277.471 434,286.5C 432.82,288.86 431.653,291.193 430.5,293.5C 430.167,293.5 429.833,293.5 429.5,293.5C 433.045,286.276 434.379,278.609 433.5,270.5C 434.468,268.393 434.802,266.059 434.5,263.5C 434.539,262.417 434.873,261.417 435.5,260.5C 434.389,259.389 433.722,258.055 433.5,256.5C 437.827,251.043 438.66,245.043 436,238.5C 430.753,232.1 427.92,224.766 427.5,216.5C 427.049,206.171 426.716,195.838 426.5,185.5 Z"/></g>
<g><path style="opacity:0.996" fill="#3d4139" d="M 206.5,241.5 C 208.981,242.696 208.981,244.196 206.5,246C 197.954,248.138 189.287,249.304 180.5,249.5C 180.286,247.856 180.62,246.356 181.5,245C 189.995,244.873 198.329,243.706 206.5,241.5 Z"/></g>
<g><path style="opacity:0.09" fill="#ddceb4" d="M 31.5,235.5 C 33.8602,238.889 35.8602,242.555 37.5,246.5C 36.8333,246.5 36.1667,246.5 35.5,246.5C 33.3341,243.162 32.0007,239.495 31.5,235.5 Z"/></g>
<g><path style="opacity:0.995" fill="#161411" d="M 38.5,247.5 C 38.9886,250.467 40.1552,253.133 42,255.5C 42.4988,259.486 42.6655,263.486 42.5,267.5C 36.9152,262.505 34.7486,256.172 36,248.5C 36.6708,247.748 37.5041,247.414 38.5,247.5 Z"/></g>
<g><path style="opacity:0.996" fill="#857f43" d="M 273.5,215.5 C 274.163,217.473 274.496,219.639 274.5,222C 273.757,240.157 273.257,258.324 273,276.5C 272.79,278.058 272.29,279.391 271.5,280.5C 272.219,258.842 272.886,237.175 273.5,215.5 Z"/></g>
<g><path style="opacity:0.029" fill="#b2b1b0" d="M 35.5,246.5 C 36.1667,246.5 36.8333,246.5 37.5,246.5C 38.1667,246.5 38.5,246.833 38.5,247.5C 37.5041,247.414 36.6708,247.748 36,248.5C 34.7486,256.172 36.9152,262.505 42.5,267.5C 42.5,268.167 42.5,268.833 42.5,269.5C 41.8333,269.5 41.1667,269.5 40.5,269.5C 35.8046,263.249 33.638,256.249 34,248.5C 34.2784,247.584 34.7784,246.918 35.5,246.5 Z"/></g>
<g><path style="opacity:0.996" fill="#6a5939" d="M 434.5,263.5 C 434.802,266.059 434.468,268.393 433.5,270.5C 432.848,269.551 432.514,268.385 432.5,267C 432.608,265.319 433.275,264.152 434.5,263.5 Z"/></g>
<g><path style="opacity:0.996" fill="#43443a" d="M 208.5,272.5 C 208.762,273.978 208.429,275.311 207.5,276.5C 198.712,281.468 189.379,282.801 179.5,280.5C 179.5,279.167 179.5,277.833 179.5,276.5C 189.502,277.274 199.169,275.941 208.5,272.5 Z"/></g>
<g><path style="opacity:0.264" fill="#e6dcc9" d="M 40.5,269.5 C 41.1667,269.5 41.8333,269.5 42.5,269.5C 43.0772,285.998 45.0772,302.331 48.5,318.5C 48.5,322.167 48.5,325.833 48.5,329.5C 44.4605,309.774 41.7938,289.774 40.5,269.5 Z"/></g>
<g><path style="opacity:0.996" fill="#4b4b3b" d="M 271.5,280.5 C 271.965,284.792 271.132,288.792 269,292.5C 266.034,295.265 263.367,294.932 261,291.5C 259.57,288.647 258.737,285.647 258.5,282.5C 259.375,284.568 260.541,286.568 262,288.5C 262.804,289.804 263.971,290.471 265.5,290.5C 268.534,287.761 270.534,284.428 271.5,280.5 Z"/></g>
<g><path style="opacity:0.996" fill="#6f7e3a" d="M 316.5,281.5 C 317.494,291.326 318.161,301.326 318.5,311.5C 316.793,301.721 316.127,291.721 316.5,281.5 Z"/></g>
<g><path style="opacity:0.997" fill="#080705" d="M 429.5,293.5 C 429.66,298.566 429.16,303.566 428,308.5C 422.432,318.635 417.098,328.968 412,339.5C 411.187,341.436 410.687,343.436 410.5,345.5C 408.896,346.287 408.229,347.62 408.5,349.5C 407.624,349.369 406.957,349.702 406.5,350.5C 402.293,357.36 399.627,364.693 398.5,372.5C 396.585,372.216 394.919,372.549 393.5,373.5C 391.516,373.383 389.85,374.05 388.5,375.5C 383.321,381.179 377.988,386.679 372.5,392C 359.526,401.823 346.193,411.156 332.5,420C 331.748,420.671 331.414,421.504 331.5,422.5C 326.145,425.342 321.478,429.175 317.5,434C 316.833,434.167 316.167,434.333 315.5,434.5C 313.513,432.673 311.179,431.673 308.5,431.5C 307.795,434.543 305.795,436.21 302.5,436.5C 296.811,436.468 291.145,436.134 285.5,435.5C 278.863,434.724 272.196,434.391 265.5,434.5C 250.859,436.37 236.192,436.704 221.5,435.5C 220.376,434.191 218.876,433.525 217,433.5C 210.68,435.575 204.514,438.075 198.5,441C 190.058,443.256 181.725,442.922 173.5,440C 167.892,436.413 161.892,433.913 155.5,432.5C 153.08,429.339 149.747,427.673 145.5,427.5C 142.839,424.498 139.505,422.498 135.5,421.5C 134.508,421.672 133.842,421.338 133.5,420.5C 132.738,418.738 131.404,417.738 129.5,417.5C 123.873,413.044 118.373,408.377 113,403.5C 110.456,399.526 108.956,395.193 108.5,390.5C 103.484,387.93 98.151,386.93 92.5,387.5C 92.7989,385.396 92.4656,383.396 91.5,381.5C 89.802,382.681 88.1353,382.681 86.5,381.5C 81.9382,375.443 76.2716,370.61 69.5,367C 65.7902,363.953 62.7902,360.286 60.5,356C 61.1476,354.56 61.4809,353.06 61.5,351.5C 59.2776,351.822 57.4443,351.155 56,349.5C 54.164,345.154 52.664,340.821 51.5,336.5C 51.3379,334.473 51.5045,332.473 52,330.5C 52.8159,331.823 53.9826,332.489 55.5,332.5C 56.3764,332.369 57.0431,332.702 57.5,333.5C 56.5153,335.098 56.3486,336.765 57,338.5C 63.0067,345.848 70.1734,351.681 78.5,356C 80.8745,358.039 82.8745,360.372 84.5,363C 86.1341,363.494 87.8008,363.66 89.5,363.5C 89.5,365.167 89.5,366.833 89.5,368.5C 95.322,368.062 100.655,369.396 105.5,372.5C 106.842,378.824 109.842,384.157 114.5,388.5C 115.585,390.587 117.251,391.92 119.5,392.5C 126.365,397.533 133.365,402.366 140.5,407C 151.483,412.54 162.483,417.873 173.5,423C 181.84,424.953 190.173,424.953 198.5,423C 204.101,419.912 209.934,417.412 216,415.5C 223.674,417.668 231.507,418.668 239.5,418.5C 250.836,417.884 262.17,417.218 273.5,416.5C 279.077,416.368 284.41,417.035 289.5,418.5C 294.257,420.194 299.257,420.694 304.5,420C 305.056,419.617 305.389,419.117 305.5,418.5C 307.456,416.886 309.456,415.219 311.5,413.5C 313.592,416.152 316.258,416.986 319.5,416C 324.532,410.633 329.865,405.633 335.5,401C 348.167,392.333 360.833,383.667 373.5,375C 380.395,367.937 387.395,361.103 394.5,354.5C 397.096,353.735 399.763,353.401 402.5,353.5C 402.368,350.43 402.701,347.43 403.5,344.5C 411.895,327.378 420.561,310.378 429.5,293.5 Z"/></g>
<g><path style="opacity:0.996" fill="#415d2e" d="M 176.5,296.5 C 175.933,304.433 174.266,312.1 171.5,319.5C 171.167,319.5 170.833,319.5 170.5,319.5C 172.524,312.819 173.857,305.986 174.5,299C 174.684,297.624 175.351,296.791 176.5,296.5 Z"/></g>
<g><path style="opacity:0.369" fill="#928d84" d="M 48.5,318.5 C 49.4682,320.607 49.8016,322.941 49.5,325.5C 49.448,327.903 49.7814,330.236 50.5,332.5C 50.1667,332.5 49.8333,332.5 49.5,332.5C 48.596,331.791 48.2627,330.791 48.5,329.5C 48.5,325.833 48.5,322.167 48.5,318.5 Z"/></g>
<g><path style="opacity:0.996" fill="#434539" d="M 170.5,319.5 C 170.833,319.5 171.167,319.5 171.5,319.5C 170.447,324.106 168.447,328.273 165.5,332C 161.096,331.757 158.763,329.257 158.5,324.5C 159.627,325.122 160.627,325.955 161.5,327C 162.833,327.667 164.167,327.667 165.5,327C 167.389,324.618 169.055,322.118 170.5,319.5 Z"/></g>
<g><path style="opacity:0.051" fill="#9d9d9d" d="M 429.5,293.5 C 429.833,293.5 430.167,293.5 430.5,293.5C 431.128,298.423 430.961,303.423 430,308.5C 423.951,321.274 417.451,333.607 410.5,345.5C 410.687,343.436 411.187,341.436 412,339.5C 417.098,328.968 422.432,318.635 428,308.5C 429.16,303.566 429.66,298.566 429.5,293.5 Z"/></g>
<g><path style="opacity:0.884" fill="#3d3830" d="M 49.5,325.5 C 51.4707,327.808 53.4707,330.142 55.5,332.5C 53.9826,332.489 52.8159,331.823 52,330.5C 51.5045,332.473 51.3379,334.473 51.5,336.5C 50.5655,335.432 50.2322,334.099 50.5,332.5C 49.7814,330.236 49.448,327.903 49.5,325.5 Z"/></g>
<g><path style="opacity:0.035" fill="#e4e3e3" d="M 49.5,332.5 C 49.8333,332.5 50.1667,332.5 50.5,332.5C 50.2322,334.099 50.5655,335.432 51.5,336.5C 51.5,337.833 51.5,339.167 51.5,340.5C 49.9605,338.162 49.2938,335.495 49.5,332.5 Z"/></g>
<g><path style="opacity:0.996" fill="#424739" d="M 198.5,315.5 C 204.648,320.817 209.482,327.15 213,334.5C 216.667,339.833 220.333,339.833 224,334.5C 226.798,329.899 229.298,325.232 231.5,320.5C 230.696,327.451 228.196,333.784 224,339.5C 219.929,344.987 216.263,344.654 213,338.5C 208.786,330.623 203.453,323.623 197,317.5C 196.472,316.184 196.972,315.517 198.5,315.5 Z"/></g>
<g><path style="opacity:0.031" fill="#a9a9a9" d="M 410.5,345.5 C 410.771,347.38 410.104,348.713 408.5,349.5C 408.229,347.62 408.896,346.287 410.5,345.5 Z"/></g>
<g><path style="opacity:0.067" fill="#9e9e9e" d="M 51.5,336.5 C 52.664,340.821 54.164,345.154 56,349.5C 57.4443,351.155 59.2776,351.822 61.5,351.5C 61.4809,353.06 61.1476,354.56 60.5,356C 62.7902,360.286 65.7902,363.953 69.5,367C 76.2716,370.61 81.9382,375.443 86.5,381.5C 88.1353,382.681 89.802,382.681 91.5,381.5C 92.4656,383.396 92.7989,385.396 92.5,387.5C 98.151,386.93 103.484,387.93 108.5,390.5C 108.956,395.193 110.456,399.526 113,403.5C 118.373,408.377 123.873,413.044 129.5,417.5C 122.975,414.148 117.142,409.814 112,404.5C 108.911,400.743 107.078,396.41 106.5,391.5C 102.02,389.862 97.3529,389.029 92.5,389C 91.6198,387.644 91.2865,386.144 91.5,384.5C 89.8008,384.66 88.1341,384.494 86.5,384C 82.311,377.393 76.6443,372.393 69.5,369C 65.6667,365.167 61.8333,361.333 58,357.5C 57.4926,356.004 57.9926,354.837 59.5,354C 53.6864,351.355 51.0197,346.855 51.5,340.5C 51.5,339.167 51.5,337.833 51.5,336.5 Z"/></g>
<g><path style="opacity:0.996" fill="#554526" d="M 403.5,344.5 C 402.701,347.43 402.368,350.43 402.5,353.5C 399.763,353.401 397.096,353.735 394.5,354.5C 394.611,353.883 394.944,353.383 395.5,353C 397.473,352.505 399.473,352.338 401.5,352.5C 401.337,350.143 401.503,347.81 402,345.5C 402.383,344.944 402.883,344.611 403.5,344.5 Z"/></g>
<g><path style="opacity:0.996" fill="#444839" d="M 275.5,321.5 C 283.29,331.476 290.123,342.143 296,353.5C 297.856,356.119 300.356,356.952 303.5,356C 306.361,353.106 308.861,349.939 311,346.5C 313.23,339.959 315.73,333.626 318.5,327.5C 316.766,340.055 311.766,351.055 303.5,360.5C 301.051,361.91 298.884,361.576 297,359.5C 291.077,346.923 283.577,335.423 274.5,325C 274.989,323.862 275.322,322.695 275.5,321.5 Z"/></g>
<g><path style="opacity:0.3" fill="#a7a7a7" d="M 408.5,349.5 C 405.784,355.933 402.784,362.266 399.5,368.5C 400.428,369.768 400.595,371.101 400,372.5C 397.959,373.423 395.792,373.756 393.5,373.5C 394.919,372.549 396.585,372.216 398.5,372.5C 399.627,364.693 402.293,357.36 406.5,350.5C 406.957,349.702 407.624,349.369 408.5,349.5 Z"/></g>
<g><path style="opacity:0.098" fill="#9c9c9c" d="M 393.5,373.5 C 386.058,381.774 378.058,389.607 369.5,397C 356.948,405.768 344.282,414.268 331.5,422.5C 331.414,421.504 331.748,420.671 332.5,420C 346.193,411.156 359.526,401.823 372.5,392C 377.988,386.679 383.321,381.179 388.5,375.5C 389.85,374.05 391.516,373.383 393.5,373.5 Z"/></g>
<g><path style="opacity:0.996" fill="#5e4c2a" d="M 114.5,388.5 C 116.749,389.08 118.415,390.413 119.5,392.5C 117.251,391.92 115.585,390.587 114.5,388.5 Z"/></g>
<g><path style="opacity:0.325" fill="#a9a9a9" d="M 129.5,417.5 C 131.404,417.738 132.738,418.738 133.5,420.5C 131.596,420.262 130.262,419.262 129.5,417.5 Z"/></g>
<g><path style="opacity:0.996" fill="#392e1b" d="M 289.5,418.5 C 294.833,418.5 300.167,418.5 305.5,418.5C 305.389,419.117 305.056,419.617 304.5,420C 299.257,420.694 294.257,420.194 289.5,418.5 Z"/></g>
<g><path style="opacity:0.035" fill="#a8a8a8" d="M 135.5,421.5 C 139.505,422.498 142.839,424.498 145.5,427.5C 141.575,426.421 138.242,424.421 135.5,421.5 Z"/></g>
<g><path style="opacity:0.012" fill="#a1a1a1" d="M 145.5,427.5 C 149.747,427.673 153.08,429.339 155.5,432.5C 151.849,431.341 148.515,429.674 145.5,427.5 Z"/></g>
<g><path style="opacity:0.236" fill="#a8a7a7" d="M 265.5,434.5 C 272.196,434.391 278.863,434.724 285.5,435.5C 286.5,436.167 287.5,436.833 288.5,437.5C 281.257,435.968 273.924,435.302 266.5,435.5C 265.833,435.5 265.5,435.167 265.5,434.5 Z"/></g>
<g><path style="opacity:0.141" fill="#a3a3a3" d="M 155.5,432.5 C 161.892,433.913 167.892,436.413 173.5,440C 181.725,442.922 190.058,443.256 198.5,441C 204.514,438.075 210.68,435.575 217,433.5C 218.876,433.525 220.376,434.191 221.5,435.5C 220.07,435.579 218.736,435.246 217.5,434.5C 205.232,442.652 191.899,445.485 177.5,443C 169.9,439.761 162.567,436.261 155.5,432.5 Z"/></g>
<g><path style="opacity:0.252" fill="#898989" d="M 265.5,434.5 C 265.5,435.167 265.833,435.5 266.5,435.5C 257.187,436.907 247.687,437.907 238,438.5C 232.238,438.126 226.738,437.126 221.5,435.5C 236.192,436.704 250.859,436.37 265.5,434.5 Z"/></g>
<g><path style="opacity:0.429" fill="#646464" d="M 285.5,435.5 C 291.145,436.134 296.811,436.468 302.5,436.5C 299.375,437.479 296.042,437.813 292.5,437.5C 291.167,437.5 289.833,437.5 288.5,437.5C 287.5,436.833 286.5,436.167 285.5,435.5 Z"/></g>
<g><path style="opacity:0.173" fill="#a3a3a3" d="M 331.5,422.5 C 326.723,427.392 321.723,432.058 316.5,436.5C 314.386,435.966 312.552,434.966 311,433.5C 305.502,438.31 299.335,439.643 292.5,437.5C 296.042,437.813 299.375,437.479 302.5,436.5C 305.795,436.21 307.795,434.543 308.5,431.5C 311.179,431.673 313.513,432.673 315.5,434.5C 316.167,434.333 316.833,434.167 317.5,434C 321.478,429.175 326.145,425.342 331.5,422.5 Z"/></g>
</svg>
