<?xml version="1.0" encoding="UTF-8"?>
<!DOCTYPE svg PUBLIC "-//W3C//DTD SVG 1.1//EN" "http://www.w3.org/Graphics/SVG/1.1/DTD/svg11.dtd">
<svg xmlns="http://www.w3.org/2000/svg" version="1.1" width="451px" height="443px" style="shape-rendering:geometricPrecision; text-rendering:geometricPrecision; image-rendering:optimizeQuality; fill-rule:evenodd; clip-rule:evenodd" xmlns:xlink="http://www.w3.org/1999/xlink">
<g><path style="opacity:0.012" fill="#faf8f3" d="M 265.5,43.5 C 267.473,42.8373 269.639,42.5039 272,42.5C 275.782,42.3791 279.282,43.0458 282.5,44.5C 280.833,44.5 279.167,44.5 277.5,44.5C 273.702,43.5166 269.702,43.1832 265.5,43.5 Z"/></g>
<g><path style="opacity:0.676" fill="#d8c4a0" d="M 265.5,43.5 C 269.702,43.1832 273.702,43.5166 277.5,44.5C 270.82,44.6123 264.153,44.9457 257.5,45.5C 259.838,43.9605 262.505,43.2938 265.5,43.5 Z"/></g>
<g><path style="opacity:0.996" fill="#b59352" d="M 277.5,44.5 C 279.167,44.5 280.833,44.5 282.5,44.5C 297.695,52.4634 313.029,60.1301 328.5,67.5C 328.833,67.5 329.167,67.5 329.5,67.5C 334.16,73.1387 339.826,77.8054 346.5,81.5C 347.723,84.2739 349.223,86.9406 351,89.5C 351.226,92.095 351.726,94.595 352.5,97C 357.452,99.7015 362.785,100.868 368.5,100.5C 368.5,102.167 368.5,103.833 368.5,105.5C 370.924,105.192 373.257,105.526 375.5,106.5C 377.412,111.625 381.078,114.625 386.5,115.5C 391.718,120.214 396.885,125.214 402,130.5C 402.115,132.107 401.615,133.607 400.5,135C 401.954,136.713 403.788,137.88 406,138.5C 407.723,144.443 409.89,150.109 412.5,155.5C 414.081,172.787 415.247,190.12 416,207.5C 416.21,209.058 416.71,210.391 417.5,211.5C 417.018,214.831 418.018,217.497 420.5,219.5C 422.162,222.12 423.828,224.787 425.5,227.5C 426.845,232.9 426.678,238.233 425,243.5C 421.838,245.912 422.005,248.245 425.5,250.5C 424.05,251.85 423.383,253.516 423.5,255.5C 421.692,256.918 421.025,258.918 421.5,261.5C 421.554,268.578 420.887,275.578 419.5,282.5C 418.662,282.842 418.328,283.508 418.5,284.5C 411.629,296.734 404.795,309.067 398,321.5C 395.964,327.003 393.63,332.336 391,337.5C 390.505,339.473 390.338,341.473 390.5,343.5C 387.68,343.248 385.014,343.748 382.5,345C 375.833,353 368.5,360.333 360.5,367C 341.12,378.932 322.954,392.432 306,407.5C 303.976,406.487 302.143,405.154 300.5,403.5C 299.081,404.005 298.415,405.005 298.5,406.5C 294.853,407.981 291.02,408.648 287,408.5C 281.831,408.124 276.665,407.791 271.5,407.5C 270.833,407.5 270.167,407.5 269.5,407.5C 257.395,405.929 245.395,406.596 233.5,409.5C 225.937,409.772 218.603,409.105 211.5,407.5C 209.799,406.266 207.799,405.599 205.5,405.5C 203.645,405.34 202.312,406.007 201.5,407.5C 195.294,410.144 188.961,412.644 182.5,415C 175.332,415.988 168.332,415.322 161.5,413C 154.785,410.309 148.452,407.143 142.5,403.5C 139.018,400.556 135.018,398.556 130.5,397.5C 117.346,391.252 106.013,382.585 96.5,371.5C 95.9149,368.497 95.2482,365.497 94.5,362.5C 89.4563,360.049 84.1229,359.049 78.5,359.5C 78.5,357.5 78.5,355.5 78.5,353.5C 76.7741,353.815 75.1075,353.981 73.5,354C 71.8745,351.372 69.8745,349.039 67.5,347C 58.8116,342.315 51.3116,336.148 45,328.5C 44.7351,326.837 45.2351,325.337 46.5,324C 42.9591,321.96 40.2924,319.127 38.5,315.5C 38.7847,312.171 38.1181,309.171 36.5,306.5C 34.1957,290.456 32.1957,274.456 30.5,258.5C 32.3535,251.418 31.3535,244.752 27.5,238.5C 27.1667,237.833 26.8333,237.167 26.5,236.5C 24.6157,231.902 22.6157,227.402 20.5,223C 20.6568,220.363 21.3235,217.863 22.5,215.5C 23.325,214.614 24.325,214.281 25.5,214.5C 25.5,212.833 25.5,211.167 25.5,209.5C 21.8431,209.026 21.6764,207.693 25,205.5C 24.7345,194.213 26.2345,183.213 29.5,172.5C 30.4584,172.047 31.2917,171.381 32,170.5C 33.5705,165.688 35.9038,161.355 39,157.5C 41.9356,151.68 44.4356,145.68 46.5,139.5C 49.8069,135.574 52.6403,131.24 55,126.5C 56.2367,122.94 56.7367,119.273 56.5,115.5C 62.8498,115.824 67.5165,113.157 70.5,107.5C 75.1667,103.5 79.5,99.1667 83.5,94.5C 83.5,93.1667 84.1667,92.5 85.5,92.5C 90.0004,89.5221 94.6671,86.6888 99.5,84C 100.252,83.3292 100.586,82.4959 100.5,81.5C 107.645,79.5338 113.645,75.7005 118.5,70C 122.919,66.5749 127.585,63.5749 132.5,61C 135.299,58.8767 137.299,56.2101 138.5,53C 141.516,52.336 144.349,52.836 147,54.5C 149.112,53.392 150.946,51.892 152.5,50C 155,49.8333 157.5,49.6667 160,49.5C 167.934,50.8682 175.934,51.8682 184,52.5C 195.84,51.6423 207.673,50.6423 219.5,49.5C 226.997,49.9327 234.33,51.266 241.5,53.5C 245.967,52.289 250.301,50.789 254.5,49C 255.71,47.9609 256.71,46.7942 257.5,45.5C 264.153,44.9457 270.82,44.6123 277.5,44.5 Z"/></g>
<g><path style="opacity:0.216" fill="#e3d5ba" d="M 257.5,45.5 C 256.71,46.7942 255.71,47.9609 254.5,49C 250.301,50.789 245.967,52.289 241.5,53.5C 234.33,51.266 226.997,49.9327 219.5,49.5C 207.673,50.6423 195.84,51.6423 184,52.5C 175.934,51.8682 167.934,50.8682 160,49.5C 157.5,49.6667 155,49.8333 152.5,50C 150.946,51.892 149.112,53.392 147,54.5C 144.349,52.836 141.516,52.336 138.5,53C 137.299,56.2101 135.299,58.8767 132.5,61C 127.585,63.5749 122.919,66.5749 118.5,70C 113.645,75.7005 107.645,79.5338 100.5,81.5C 107.591,76.1095 114.925,70.9428 122.5,66C 128.155,62.011 133.155,57.3444 137.5,52C 140.526,50.2677 143.526,50.4344 146.5,52.5C 148.517,51.8257 150.183,50.6591 151.5,49C 153.953,48.2618 156.453,47.7618 159,47.5C 167.958,49.2258 176.958,50.5591 186,51.5C 197.312,50.2802 208.645,49.2802 220,48.5C 227.02,48.4053 233.853,49.4053 240.5,51.5C 246.023,49.2457 251.689,47.2457 257.5,45.5 Z"/></g>
<g><path style="opacity:0.455" fill="#e6dac0" d="M 282.5,44.5 C 291.653,47.737 300.653,51.5703 309.5,56C 316.164,59.3301 322.498,63.1635 328.5,67.5C 313.029,60.1301 297.695,52.4634 282.5,44.5 Z"/></g>
<g><path style="opacity:0.325" fill="#e4d6bd" d="M 329.5,67.5 C 335.829,71.4795 341.496,76.1461 346.5,81.5C 339.826,77.8054 334.16,73.1387 329.5,67.5 Z"/></g>
<g><path style="opacity:0.129" fill="#ebe1ce" d="M 100.5,81.5 C 100.586,82.4959 100.252,83.3292 99.5,84C 94.6671,86.6888 90.0004,89.5221 85.5,92.5C 89.929,88.1125 94.929,84.4458 100.5,81.5 Z"/></g>
<g><path style="opacity:0.494" fill="#e3d5bb" d="M 346.5,81.5 C 351.502,85.012 354.169,89.8453 354.5,96C 358.943,97.9403 363.61,98.9403 368.5,99C 370.107,100.049 370.773,101.549 370.5,103.5C 372.199,103.34 373.866,103.506 375.5,104C 377.032,106.034 378.365,108.201 379.5,110.5C 382.148,111.828 384.481,113.494 386.5,115.5C 381.078,114.625 377.412,111.625 375.5,106.5C 373.257,105.526 370.924,105.192 368.5,105.5C 368.5,103.833 368.5,102.167 368.5,100.5C 362.785,100.868 357.452,99.7015 352.5,97C 351.726,94.595 351.226,92.095 351,89.5C 349.223,86.9406 347.723,84.2739 346.5,81.5 Z"/></g>
<g><path style="opacity:0.996" fill="#414a37" d="M 222.5,95.5 C 225.883,98.2887 227.55,101.955 227.5,106.5C 225.043,103.249 223.376,99.5821 222.5,95.5 Z"/></g>
<g><path style="opacity:0.365" fill="#e5d8c1" d="M 83.5,94.5 C 79.5,99.1667 75.1667,103.5 70.5,107.5C 73.8333,102.167 78.1667,97.8333 83.5,94.5 Z"/></g>
<g><path style="opacity:0.345" fill="#e8dcc5" d="M 386.5,115.5 C 393.03,119.518 398.863,124.518 404,130.5C 404.265,132.163 403.765,133.663 402.5,135C 406.307,136.14 408.807,138.64 410,142.5C 410.737,146.87 411.57,151.204 412.5,155.5C 409.89,150.109 407.723,144.443 406,138.5C 403.788,137.88 401.954,136.713 400.5,135C 401.615,133.607 402.115,132.107 402,130.5C 396.885,125.214 391.718,120.214 386.5,115.5 Z"/></g>
<g><path style="opacity:0.996" fill="#455733" d="M 249.5,107.5 C 246.174,114.814 243.841,122.481 242.5,130.5C 241.853,129.726 241.52,128.726 241.5,127.5C 242.85,121.585 244.517,115.751 246.5,110C 247.13,108.69 248.13,107.856 249.5,107.5 Z"/></g>
<g><path style="opacity:0.392" fill="#e8dbc4" d="M 70.5,107.5 C 67.5165,113.157 62.8498,115.824 56.5,115.5C 56.7367,119.273 56.2367,122.94 55,126.5C 52.6403,131.24 49.8069,135.574 46.5,139.5C 49.0325,133.432 51.8658,127.432 55,121.5C 55.3333,119.167 55.6667,116.833 56,114.5C 57.6453,114.307 59.4787,114.14 61.5,114C 64.3968,111.59 67.3968,109.423 70.5,107.5 Z"/></g>
<g><path style="opacity:0.996" fill="#3e4239" d="M 293.5,132.5 C 294.026,135.808 292.693,137.974 289.5,139C 272.47,144.073 255.136,147.739 237.5,150C 236.663,151.011 236.33,152.178 236.5,153.5C 235.552,150.7 235.885,147.867 237.5,145C 253.183,142.464 268.85,139.797 284.5,137C 287.411,135.239 290.411,133.739 293.5,132.5 Z"/></g>
<g><path style="opacity:0.996" fill="#3e3f3a" d="M 179.5,145.5 C 181.423,145.795 183.09,146.628 184.5,148C 196.533,148.771 208.533,148.605 220.5,147.5C 220.5,148.833 220.5,150.167 220.5,151.5C 209.185,152.294 197.852,152.627 186.5,152.5C 184.072,151.788 181.739,150.788 179.5,149.5C 178.374,148.192 178.374,146.858 179.5,145.5 Z"/></g>
<g><path style="opacity:0.043" fill="#eadfc9" d="M 46.5,139.5 C 44.4356,145.68 41.9356,151.68 39,157.5C 35.9038,161.355 33.5705,165.688 32,170.5C 31.2917,171.381 30.4584,172.047 29.5,172.5C 34.435,160.959 40.1016,149.959 46.5,139.5 Z"/></g>
<g><path style="opacity:0.996" fill="#7c6946" d="M 220.5,151.5 C 220.5,151.833 220.5,152.167 220.5,152.5C 209.01,153.672 197.677,153.672 186.5,152.5C 197.852,152.627 209.185,152.294 220.5,151.5 Z"/></g>
<g><path style="opacity:0.447" fill="#e4d6bb" d="M 412.5,155.5 C 416.198,173.842 417.864,192.508 417.5,211.5C 416.71,210.391 416.21,209.058 416,207.5C 415.247,190.12 414.081,172.787 412.5,155.5 Z"/></g>
<g><path style="opacity:0.996" fill="#336f21" d="M 249.5,107.5 C 248.13,107.856 247.13,108.69 246.5,110C 244.517,115.751 242.85,121.585 241.5,127.5C 241.52,128.726 241.853,129.726 242.5,130.5C 254.175,127.723 265.842,125.056 277.5,122.5C 282.554,122.129 287.221,123.296 291.5,126C 293.229,127.789 293.896,129.956 293.5,132.5C 290.411,133.739 287.411,135.239 284.5,137C 268.85,139.797 253.183,142.464 237.5,145C 235.885,147.867 235.552,150.7 236.5,153.5C 236.791,154.649 237.624,155.316 239,155.5C 250.252,157.455 260.752,161.288 270.5,167C 273.372,169.537 275.872,172.37 278,175.5C 278.812,179.689 278.645,183.689 277.5,187.5C 275.133,191.678 271.8,192.511 267.5,190C 257.241,179.123 246.074,169.289 234,160.5C 233.228,160.645 232.561,160.978 232,161.5C 227.669,171.327 221.502,179.827 213.5,187C 205.047,192.224 196.38,196.891 187.5,201C 192.267,201.48 196.933,200.98 201.5,199.5C 222.901,198.155 244.234,196.155 265.5,193.5C 269.6,193.763 273.6,193.43 277.5,192.5C 290.836,190.446 304.169,188.279 317.5,186C 331.299,183.656 343.465,186.823 354,195.5C 354.678,197.598 354.511,199.598 353.5,201.5C 351.711,202.877 349.711,203.877 347.5,204.5C 333.713,203.116 319.88,202.449 306,202.5C 298.326,202.5 290.826,202.834 283.5,203.5C 276.655,204.167 269.655,204.833 262.5,205.5C 264.264,207.278 266.264,208.611 268.5,209.5C 272.397,211.886 275.897,214.886 279,218.5C 279.253,249.006 279.753,279.506 280.5,310C 280.61,316.067 279.943,321.9 278.5,327.5C 275.151,338.022 269.818,347.522 262.5,356C 258.526,358.364 255.026,357.864 252,354.5C 244.811,342.477 235.978,331.811 225.5,322.5C 224.962,320.883 224.629,319.216 224.5,317.5C 231.13,319.325 237.797,321.158 244.5,323C 249.287,323.879 253.953,323.545 258.5,322C 261.057,314.082 262.39,305.915 262.5,297.5C 263.662,278.338 263.829,259.004 263,239.5C 262.819,236.305 262.319,233.305 261.5,230.5C 261.5,229.833 261.5,229.167 261.5,228.5C 261.12,221.24 259.12,214.573 255.5,208.5C 255.672,207.508 255.338,206.842 254.5,206.5C 253.551,205.848 252.385,205.514 251,205.5C 244.667,206.016 238.501,206.683 232.5,207.5C 232.167,207.5 231.833,207.5 231.5,207.5C 224.95,207.454 218.617,208.121 212.5,209.5C 206.325,210.339 199.992,211.006 193.5,211.5C 184.082,211.058 175.082,212.391 166.5,215.5C 165.833,215.5 165.167,215.5 164.5,215.5C 155.892,216.408 147.559,218.074 139.5,220.5C 134.13,220.608 128.797,220.275 123.5,219.5C 119.097,218.348 115.097,216.348 111.5,213.5C 110.85,211.565 110.517,209.565 110.5,207.5C 135.864,206.23 161.197,204.563 186.5,202.5C 186.67,201.178 186.337,200.011 185.5,199C 186.191,197.933 186.691,196.766 187,195.5C 194.948,190.219 201.948,183.885 208,176.5C 212.973,168.887 217.139,160.887 220.5,152.5C 220.5,152.167 220.5,151.833 220.5,151.5C 220.5,150.167 220.5,148.833 220.5,147.5C 208.533,148.605 196.533,148.771 184.5,148C 183.09,146.628 181.423,145.795 179.5,145.5C 177.75,142.276 178.75,140.442 182.5,140C 196.957,138.377 211.29,136.21 225.5,133.5C 227.162,124.594 227.828,115.594 227.5,106.5C 227.55,101.955 225.883,98.2887 222.5,95.5C 221.677,93.5454 221.51,91.5454 222,89.5C 232.109,88.8697 241.109,91.8697 249,98.5C 249.498,101.482 249.665,104.482 249.5,107.5 Z"/></g>
<g><path style="opacity:0.996" fill="#3f4439" d="M 277.5,187.5 C 277.5,189.167 277.5,190.833 277.5,192.5C 273.6,193.43 269.6,193.763 265.5,193.5C 262.772,189.263 259.439,185.429 255.5,182C 248.311,175.976 240.977,170.143 233.5,164.5C 229.525,171.77 225.025,178.77 220,185.5C 214.393,191.038 208.226,195.704 201.5,199.5C 196.933,200.98 192.267,201.48 187.5,201C 196.38,196.891 205.047,192.224 213.5,187C 221.502,179.827 227.669,171.327 232,161.5C 232.561,160.978 233.228,160.645 234,160.5C 246.074,169.289 257.241,179.123 267.5,190C 271.8,192.511 275.133,191.678 277.5,187.5 Z"/></g>
<g><path style="opacity:0.996" fill="#b29152" d="M 265.5,193.5 C 244.234,196.155 222.901,198.155 201.5,199.5C 208.226,195.704 214.393,191.038 220,185.5C 225.025,178.77 229.525,171.77 233.5,164.5C 240.977,170.143 248.311,175.976 255.5,182C 259.439,185.429 262.772,189.263 265.5,193.5 Z"/></g>
<g><path style="opacity:0.427" fill="#e2d5ba" d="M 29.5,172.5 C 26.2345,183.213 24.7345,194.213 25,205.5C 21.6764,207.693 21.8431,209.026 25.5,209.5C 25.5,211.167 25.5,212.833 25.5,214.5C 24.325,214.281 23.325,214.614 22.5,215.5C 21.3235,217.863 20.6568,220.363 20.5,223C 22.6157,227.402 24.6157,231.902 26.5,236.5C 25.2223,236.782 24.2223,237.449 23.5,238.5C 21.6167,233.37 20.2834,228.036 19.5,222.5C 18.8092,218.193 20.1425,214.693 23.5,212C 22.1667,211 20.8333,210 19.5,209C 21.0488,207.786 22.2155,206.286 23,204.5C 23.3333,197.833 23.6667,191.167 24,184.5C 25.0612,180.05 26.8946,176.05 29.5,172.5 Z"/></g>
<g><path style="opacity:0.996" fill="#2d5f24" d="M 283.5,203.5 C 290.826,202.834 298.326,202.5 306,202.5C 319.88,202.449 333.713,203.116 347.5,204.5C 340.288,205.817 332.954,205.65 325.5,204C 311.504,203.5 297.504,203.333 283.5,203.5 Z"/></g>
<g><path style="opacity:0.996" fill="#41433a" d="M 353.5,201.5 C 353.939,205.404 352.272,207.904 348.5,209C 321.832,208.294 295.165,208.46 268.5,209.5C 266.264,208.611 264.264,207.278 262.5,205.5C 269.655,204.833 276.655,204.167 283.5,203.5C 297.504,203.333 311.504,203.5 325.5,204C 332.954,205.65 340.288,205.817 347.5,204.5C 349.711,203.877 351.711,202.877 353.5,201.5 Z"/></g>
<g><path style="opacity:0.996" fill="#304e2d" d="M 254.5,206.5 C 247.191,207.248 239.858,207.582 232.5,207.5C 238.501,206.683 244.667,206.016 251,205.5C 252.385,205.514 253.551,205.848 254.5,206.5 Z"/></g>
<g><path style="opacity:0.996" fill="#3e3f3a" d="M 254.5,206.5 C 255.338,206.842 255.672,207.508 255.5,208.5C 255.672,209.492 255.338,210.158 254.5,210.5C 243.617,210.803 232.951,211.803 222.5,213.5C 201.435,214.928 180.435,217.095 159.5,220C 157.347,220.099 155.681,220.933 154.5,222.5C 149.076,222.688 143.743,223.522 138.5,225C 127.814,226.993 118.647,224.16 111,216.5C 110.26,215.251 110.427,214.251 111.5,213.5C 115.097,216.348 119.097,218.348 123.5,219.5C 123.918,220.222 124.584,220.722 125.5,221C 130.352,221.815 135.019,221.648 139.5,220.5C 148.137,219.706 156.47,218.039 164.5,215.5C 165.167,215.5 165.833,215.5 166.5,215.5C 175.608,213.959 184.608,212.626 193.5,211.5C 199.992,211.006 206.325,210.339 212.5,209.5C 219.05,209.546 225.383,208.879 231.5,207.5C 231.833,207.5 232.167,207.5 232.5,207.5C 239.858,207.582 247.191,207.248 254.5,206.5 Z"/></g>
<g><path style="opacity:0.996" fill="#2f532a" d="M 231.5,207.5 C 225.383,208.879 219.05,209.546 212.5,209.5C 218.617,208.121 224.95,207.454 231.5,207.5 Z"/></g>
<g><path style="opacity:0.996" fill="#2f5927" d="M 193.5,211.5 C 184.608,212.626 175.608,213.959 166.5,215.5C 175.082,212.391 184.082,211.058 193.5,211.5 Z"/></g>
<g><path style="opacity:0.996" fill="#505738" d="M 255.5,208.5 C 259.12,214.573 261.12,221.24 261.5,228.5C 259.572,222.391 257.239,216.391 254.5,210.5C 255.338,210.158 255.672,209.492 255.5,208.5 Z"/></g>
<g><path style="opacity:0.043" fill="#e9e1ce" d="M 417.5,211.5 C 418.871,213.936 419.871,216.603 420.5,219.5C 418.018,217.497 417.018,214.831 417.5,211.5 Z"/></g>
<g><path style="opacity:0.996" fill="#92794b" d="M 222.5,213.5 C 206.074,216.094 189.407,218.26 172.5,220C 166.798,222.294 160.798,223.128 154.5,222.5C 155.681,220.933 157.347,220.099 159.5,220C 180.435,217.095 201.435,214.928 222.5,213.5 Z"/></g>
<g><path style="opacity:0.996" fill="#334b2f" d="M 164.5,215.5 C 156.47,218.039 148.137,219.706 139.5,220.5C 147.559,218.074 155.892,216.408 164.5,215.5 Z"/></g>
<g><path style="opacity:0.996" fill="#30542a" d="M 123.5,219.5 C 128.797,220.275 134.13,220.608 139.5,220.5C 135.019,221.648 130.352,221.815 125.5,221C 124.584,220.722 123.918,220.222 123.5,219.5 Z"/></g>
<g><path style="opacity:0.996" fill="#336e21" d="M 241.5,244.5 C 237.169,247.998 233.336,251.998 230,256.5C 228.798,258.677 228.298,261.011 228.5,263.5C 230.643,267.148 231.643,271.148 231.5,275.5C 217.524,277.166 203.524,278.832 189.5,280.5C 187.892,281.318 186.225,281.985 184.5,282.5C 183.571,283.689 183.238,285.022 183.5,286.5C 183.5,288.167 183.5,289.833 183.5,291.5C 182.15,292.483 181.15,293.816 180.5,295.5C 176.259,297.252 173.593,295.918 172.5,291.5C 171.351,286.094 170.351,280.76 169.5,275.5C 169.666,271.154 169.499,266.821 169,262.5C 168.861,259.555 167.694,257.221 165.5,255.5C 165.5,255.167 165.5,254.833 165.5,254.5C 164.849,249.205 162.849,244.539 159.5,240.5C 158.699,238.958 158.366,237.292 158.5,235.5C 163.984,234.826 168.984,235.992 173.5,239C 184.679,240.029 195.679,239.029 206.5,236C 219.282,226.952 231.115,228.119 242,239.5C 242.78,241.387 242.613,243.054 241.5,244.5 Z"/></g>
<g><path style="opacity:0.541" fill="#e9e1d3" d="M 425.5,227.5 C 429.78,234.176 429.446,240.676 424.5,247C 425.804,247.804 426.471,248.971 426.5,250.5C 424.706,258.14 423.373,265.807 422.5,273.5C 422.5,269.5 422.5,265.5 422.5,261.5C 423.461,259.735 423.795,257.735 423.5,255.5C 423.383,253.516 424.05,251.85 425.5,250.5C 422.005,248.245 421.838,245.912 425,243.5C 426.678,238.233 426.845,232.9 425.5,227.5 Z"/></g>
<g><path style="opacity:0.996" fill="#17140f" d="M 27.5,238.5 C 31.3535,244.752 32.3535,251.418 30.5,258.5C 29.8333,258.5 29.5,258.167 29.5,257.5C 28.134,254.768 26.8007,252.101 25.5,249.5C 25.41,247.304 25.0767,245.137 24.5,243C 24.4136,240.648 25.4136,239.148 27.5,238.5 Z"/></g>
<g><path style="opacity:0.602" fill="#8b8986" d="M 26.5,236.5 C 26.8333,237.167 27.1667,237.833 27.5,238.5C 25.4136,239.148 24.4136,240.648 24.5,243C 25.0767,245.137 25.41,247.304 25.5,249.5C 24.8333,248.833 24.1667,248.167 23.5,247.5C 22.1667,244.5 22.1667,241.5 23.5,238.5C 24.2223,237.449 25.2223,236.782 26.5,236.5 Z"/></g>
<g><path style="opacity:0.996" fill="#464c38" d="M 159.5,240.5 C 162.849,244.539 164.849,249.205 165.5,254.5C 164.138,251.298 162.304,248.298 160,245.5C 159.506,243.866 159.34,242.199 159.5,240.5 Z"/></g>
<g><path style="opacity:0.996" fill="#3f413a" d="M 214.5,251.5 C 211.183,250.835 207.683,250.501 204,250.5C 196.448,250.676 188.948,251.343 181.5,252.5C 180.549,251.081 180.216,249.415 180.5,247.5C 192.148,246.698 203.815,246.365 215.5,246.5C 215.784,248.415 215.451,250.081 214.5,251.5 Z"/></g>
<g><path style="opacity:0.106" fill="#a8a8a8" d="M 23.5,247.5 C 24.1667,248.167 24.8333,248.833 25.5,249.5C 26.8007,252.101 28.134,254.768 29.5,257.5C 28.8333,257.5 28.1667,257.5 27.5,257.5C 25.6249,254.412 24.2915,251.078 23.5,247.5 Z"/></g>
<g><path style="opacity:0.996" fill="#434739" d="M 241.5,244.5 C 241.628,246.655 241.128,248.655 240,250.5C 235.587,254.408 231.753,258.741 228.5,263.5C 228.298,261.011 228.798,258.677 230,256.5C 233.336,251.998 237.169,247.998 241.5,244.5 Z"/></g>
<g><path style="opacity:0.996" fill="#b19251" d="M 214.5,251.5 C 214.575,255.897 214.075,260.23 213,264.5C 209.947,267.081 206.447,268.915 202.5,270C 196.198,271.159 189.864,271.992 183.5,272.5C 182.74,265.843 182.073,259.177 181.5,252.5C 188.948,251.343 196.448,250.676 204,250.5C 207.683,250.501 211.183,250.835 214.5,251.5 Z"/></g>
<g><path style="opacity:0.996" fill="#526036" d="M 165.5,255.5 C 167.694,257.221 168.861,259.555 169,262.5C 169.499,266.821 169.666,271.154 169.5,275.5C 168.522,268.894 167.188,262.227 165.5,255.5 Z"/></g>
<g><path style="opacity:0.996" fill="#647338" d="M 261.5,230.5 C 262.319,233.305 262.819,236.305 263,239.5C 263.829,259.004 263.662,278.338 262.5,297.5C 262.702,275.154 262.369,252.821 261.5,230.5 Z"/></g>
<g><path style="opacity:0.996" fill="#584b34" d="M 423.5,255.5 C 423.795,257.735 423.461,259.735 422.5,261.5C 422.167,261.5 421.833,261.5 421.5,261.5C 421.025,258.918 421.692,256.918 423.5,255.5 Z"/></g>
<g><path style="opacity:0.531" fill="#d2bf99" d="M 421.5,261.5 C 421.833,261.5 422.167,261.5 422.5,261.5C 422.5,265.5 422.5,269.5 422.5,273.5C 422.862,277.081 421.862,280.081 419.5,282.5C 420.887,275.578 421.554,268.578 421.5,261.5 Z"/></g>
<g><path style="opacity:0.533" fill="#e2d7c0" d="M 27.5,257.5 C 28.1667,257.5 28.8333,257.5 29.5,257.5C 29.5,258.167 29.8333,258.5 30.5,258.5C 32.1957,274.456 34.1957,290.456 36.5,306.5C 36.5,309.167 36.5,311.833 36.5,314.5C 32.5249,297.199 30.3582,279.532 30,261.5C 29.3378,260.016 28.5045,258.683 27.5,257.5 Z"/></g>
<g><path style="opacity:0.996" fill="#3e4139" d="M 231.5,275.5 C 231.5,276.833 231.5,278.167 231.5,279.5C 215.455,281.427 199.455,283.761 183.5,286.5C 183.238,285.022 183.571,283.689 184.5,282.5C 186.225,281.985 187.892,281.318 189.5,280.5C 203.524,278.832 217.524,277.166 231.5,275.5 Z"/></g>
<g><path style="opacity:0.996" fill="#46483a" d="M 172.5,291.5 C 173.593,295.918 176.259,297.252 180.5,295.5C 181.15,293.816 182.15,292.483 183.5,291.5C 182.969,294.237 182.136,296.904 181,299.5C 179.267,301.602 177.267,301.935 175,300.5C 173.092,297.794 172.259,294.794 172.5,291.5 Z"/></g>
<g><path style="opacity:0.997" fill="#080605" d="M 418.5,284.5 C 418.709,289.623 418.042,294.623 416.5,299.5C 407.106,318.155 397.606,336.822 388,355.5C 387.503,357.81 387.337,360.143 387.5,362.5C 384.68,362.248 382.014,362.748 379.5,364C 364.392,380.87 347.059,394.87 327.5,406C 320.18,411.655 313.18,417.655 306.5,424C 303.83,424.543 301.33,424.043 299,422.5C 297.02,423.315 295.52,424.648 294.5,426.5C 286.448,427.878 278.448,427.544 270.5,425.5C 266.681,424.834 262.681,424.501 258.5,424.5C 252.26,424.333 246.26,425 240.5,426.5C 235.68,426.931 230.847,427.264 226,427.5C 221.242,427.634 216.742,426.968 212.5,425.5C 208.779,423.08 205.112,423.08 201.5,425.5C 187.648,433.413 173.315,434.413 158.5,428.5C 157.584,428.543 156.917,428.876 156.5,429.5C 155.833,429.5 155.5,429.167 155.5,428.5C 153.927,425.107 151.26,423.774 147.5,424.5C 145.421,422.127 142.754,420.794 139.5,420.5C 139.631,419.624 139.298,418.957 138.5,418.5C 134.479,416.821 130.479,415.154 126.5,413.5C 117.006,407.192 108.173,399.859 100,391.5C 99.1208,388.182 98.2875,384.848 97.5,381.5C 95.396,380.481 93.396,379.481 91.5,378.5C 88.3752,377.521 85.0419,377.187 81.5,377.5C 81.5,375.833 81.5,374.167 81.5,372.5C 80.209,372.263 79.209,372.596 78.5,373.5C 77.325,373.719 76.325,373.386 75.5,372.5C 74.627,370.587 73.627,368.753 72.5,367C 71.552,366.517 70.552,366.351 69.5,366.5C 62.5349,360.87 55.8683,354.87 49.5,348.5C 49.3184,346.409 49.6518,344.409 50.5,342.5C 48.472,341.451 46.472,340.451 44.5,339.5C 40.8582,331.972 38.8582,323.972 38.5,315.5C 40.2924,319.127 42.9591,321.96 46.5,324C 45.2351,325.337 44.7351,326.837 45,328.5C 51.3116,336.148 58.8116,342.315 67.5,347C 69.8745,349.039 71.8745,351.372 73.5,354C 75.1075,353.981 76.7741,353.815 78.5,353.5C 78.5,355.5 78.5,357.5 78.5,359.5C 84.1229,359.049 89.4563,360.049 94.5,362.5C 95.2482,365.497 95.9149,368.497 96.5,371.5C 106.013,382.585 117.346,391.252 130.5,397.5C 133.893,400.53 137.893,402.53 142.5,403.5C 148.452,407.143 154.785,410.309 161.5,413C 168.332,415.322 175.332,415.988 182.5,415C 188.961,412.644 195.294,410.144 201.5,407.5C 204.794,406.481 208.128,406.481 211.5,407.5C 218.603,409.105 225.937,409.772 233.5,409.5C 245.468,408.303 257.468,407.637 269.5,407.5C 270.167,407.5 270.833,407.5 271.5,407.5C 279.269,410.286 287.269,410.786 295.5,409C 296.942,408.623 297.942,407.79 298.5,406.5C 298.415,405.005 299.081,404.005 300.5,403.5C 302.143,405.154 303.976,406.487 306,407.5C 322.954,392.432 341.12,378.932 360.5,367C 368.5,360.333 375.833,353 382.5,345C 385.014,343.748 387.68,343.248 390.5,343.5C 390.338,341.473 390.505,339.473 391,337.5C 393.63,332.336 395.964,327.003 398,321.5C 404.795,309.067 411.629,296.734 418.5,284.5 Z"/></g>
<g><path style="opacity:0.081" fill="#acaba8" d="M 36.5,306.5 C 38.1181,309.171 38.7847,312.171 38.5,315.5C 38.8582,323.972 40.8582,331.972 44.5,339.5C 45.1451,340.812 46.1451,341.812 47.5,342.5C 48.1687,344.631 48.8354,346.631 49.5,348.5C 55.8683,354.87 62.5349,360.87 69.5,366.5C 54.9658,359.163 45.1325,348.163 40,333.5C 38.3022,327.247 37.1355,320.914 36.5,314.5C 36.5,311.833 36.5,309.167 36.5,306.5 Z"/></g>
<g><path style="opacity:0.016" fill="#a6a6a6" d="M 419.5,282.5 C 419.804,288.577 419.304,294.577 418,300.5C 408.264,320.14 398.43,339.64 388.5,359C 389.554,360.388 389.72,361.888 389,363.5C 386.141,364.173 383.308,365.007 380.5,366C 374.15,372.419 367.816,378.752 361.5,385C 341.861,398.072 323.028,412.239 305,427.5C 302.912,426.692 300.912,425.692 299,424.5C 298.292,425.381 297.458,426.047 296.5,426.5C 295.833,426.5 295.167,426.5 294.5,426.5C 295.52,424.648 297.02,423.315 299,422.5C 301.33,424.043 303.83,424.543 306.5,424C 313.18,417.655 320.18,411.655 327.5,406C 347.059,394.87 364.392,380.87 379.5,364C 382.014,362.748 384.68,362.248 387.5,362.5C 387.337,360.143 387.503,357.81 388,355.5C 397.606,336.822 407.106,318.155 416.5,299.5C 418.042,294.623 418.709,289.623 418.5,284.5C 418.328,283.508 418.662,282.842 419.5,282.5 Z"/></g>
<g><path style="opacity:0.91" fill="#464646" d="M 44.5,339.5 C 46.472,340.451 48.472,341.451 50.5,342.5C 49.6518,344.409 49.3184,346.409 49.5,348.5C 48.8354,346.631 48.1687,344.631 47.5,342.5C 46.1451,341.812 45.1451,340.812 44.5,339.5 Z"/></g>
<g><path style="opacity:0.996" fill="#414539" d="M 225.5,322.5 C 235.978,331.811 244.811,342.477 252,354.5C 255.026,357.864 258.526,358.364 262.5,356C 269.818,347.522 275.151,338.022 278.5,327.5C 276.945,339.899 271.945,350.732 263.5,360C 260.822,362.446 257.822,362.946 254.5,361.5C 248.821,352.81 242.654,344.477 236,336.5C 232.333,332.833 228.667,329.167 225,325.5C 224.26,324.251 224.427,323.251 225.5,322.5 Z"/></g>
<g><path style="opacity:0.322" fill="#b7b7b7" d="M 69.5,366.5 C 70.552,366.351 71.552,366.517 72.5,367C 73.627,368.753 74.627,370.587 75.5,372.5C 76.325,373.386 77.325,373.719 78.5,373.5C 80.256,374.552 80.9227,376.219 80.5,378.5C 79.8386,377.282 79.1719,375.949 78.5,374.5C 76.939,375.347 75.439,375.014 74,373.5C 72.4894,371.138 70.9894,368.805 69.5,366.5 Z"/></g>
<g><path style="opacity:0.475" fill="#636363" d="M 78.5,373.5 C 79.209,372.596 80.209,372.263 81.5,372.5C 81.5,374.167 81.5,375.833 81.5,377.5C 85.0419,377.187 88.3752,377.521 91.5,378.5C 87.8333,378.5 84.1667,378.5 80.5,378.5C 80.9227,376.219 80.256,374.552 78.5,373.5 Z"/></g>
<g><path style="opacity:0.122" fill="#a3a3a3" d="M 80.5,378.5 C 84.1667,378.5 87.8333,378.5 91.5,378.5C 93.396,379.481 95.396,380.481 97.5,381.5C 98.2875,384.848 99.1208,388.182 100,391.5C 108.173,399.859 117.006,407.192 126.5,413.5C 115.629,407.977 106.129,400.643 98,391.5C 97.0296,388.556 96.1962,385.556 95.5,382.5C 90.5664,380.442 85.5664,379.108 80.5,378.5 Z"/></g>
<g><path style="opacity:0.996" fill="#7d6538" d="M 130.5,397.5 C 135.018,398.556 139.018,400.556 142.5,403.5C 137.893,402.53 133.893,400.53 130.5,397.5 Z"/></g>
<g><path style="opacity:0.996" fill="#514224" d="M 211.5,407.5 C 208.128,406.481 204.794,406.481 201.5,407.5C 202.312,406.007 203.645,405.34 205.5,405.5C 207.799,405.599 209.799,406.266 211.5,407.5 Z"/></g>
<g><path style="opacity:0.996" fill="#63502d" d="M 269.5,407.5 C 257.468,407.637 245.468,408.303 233.5,409.5C 245.395,406.596 257.395,405.929 269.5,407.5 Z"/></g>
<g><path style="opacity:0.996" fill="#7d6538" d="M 298.5,406.5 C 297.942,407.79 296.942,408.623 295.5,409C 287.269,410.786 279.269,410.286 271.5,407.5C 276.665,407.791 281.831,408.124 287,408.5C 291.02,408.648 294.853,407.981 298.5,406.5 Z"/></g>
<g><path style="opacity:0.408" fill="#8d8d8d" d="M 126.5,413.5 C 130.479,415.154 134.479,416.821 138.5,418.5C 139.298,418.957 139.631,419.624 139.5,420.5C 134.425,419.398 130.091,417.064 126.5,413.5 Z"/></g>
<g><path style="opacity:0.153" fill="#aeaeae" d="M 139.5,420.5 C 142.754,420.794 145.421,422.127 147.5,424.5C 144.455,423.721 141.789,422.387 139.5,420.5 Z"/></g>
<g><path style="opacity:0.6" fill="#616161" d="M 212.5,425.5 C 210.833,425.5 209.167,425.5 207.5,425.5C 205.691,424.709 203.691,424.709 201.5,425.5C 205.112,423.08 208.779,423.08 212.5,425.5 Z"/></g>
<g><path style="opacity:0.757" fill="#555454" d="M 270.5,425.5 C 260.486,425.501 250.486,425.834 240.5,426.5C 246.26,425 252.26,424.333 258.5,424.5C 262.681,424.501 266.681,424.834 270.5,425.5 Z"/></g>
<g><path style="opacity:0.227" fill="#a0a0a0" d="M 147.5,424.5 C 151.26,423.774 153.927,425.107 155.5,428.5C 152.455,427.721 149.789,426.387 147.5,424.5 Z"/></g>
<g><path style="opacity:0.104" fill="#c1c1c1" d="M 207.5,425.5 C 209.167,425.5 210.833,425.5 212.5,425.5C 216.742,426.968 221.242,427.634 226,427.5C 230.847,427.264 235.68,426.931 240.5,426.5C 250.486,425.834 260.486,425.501 270.5,425.5C 278.448,427.544 286.448,427.878 294.5,426.5C 295.167,426.5 295.833,426.5 296.5,426.5C 294.035,428.481 291.201,429.815 288,430.5C 281.925,429.07 275.758,427.903 269.5,427C 255.99,426.934 242.49,427.434 229,428.5C 224.5,428.333 220,428.167 215.5,428C 212.621,427.454 209.954,426.621 207.5,425.5 Z"/></g>
<g><path style="opacity:0.059" fill="#919191" d="M 207.5,425.5 C 200.463,428.934 193.13,431.767 185.5,434C 175.251,435.734 165.584,434.234 156.5,429.5C 156.917,428.876 157.584,428.543 158.5,428.5C 173.315,434.413 187.648,433.413 201.5,425.5C 203.691,424.709 205.691,424.709 207.5,425.5 Z"/></g>
</svg>
