<?xml version="1.0" encoding="UTF-8"?>
<!DOCTYPE svg PUBLIC "-//W3C//DTD SVG 1.1//EN" "http://www.w3.org/Graphics/SVG/1.1/DTD/svg11.dtd">
<svg xmlns="http://www.w3.org/2000/svg" version="1.1" width="461px" height="456px" style="shape-rendering:geometricPrecision; text-rendering:geometricPrecision; image-rendering:optimizeQuality; fill-rule:evenodd; clip-rule:evenodd" xmlns:xlink="http://www.w3.org/1999/xlink">
<g><path style="opacity:0.635" fill="#e2d4b8" d="M 308.5,59.5 C 308.631,60.3764 308.298,61.0431 307.5,61.5C 302.211,59.4665 297.211,56.9665 292.5,54C 280.691,50.6463 269.024,51.1463 257.5,55.5C 268.169,49.2599 279.502,48.0932 291.5,52C 297.132,54.6528 302.799,57.1528 308.5,59.5 Z"/></g>
<g><path style="opacity:0.996" fill="#b59352" d="M 308.5,59.5 C 309.167,59.5 309.5,59.8333 309.5,60.5C 309.5,61.5 309.5,62.5 309.5,63.5C 320.689,67.4272 331.022,72.9272 340.5,80C 341.448,80.4828 342.448,80.6495 343.5,80.5C 346.719,84.2242 350.219,87.8909 354,91.5C 356.468,95.129 357.634,99.129 357.5,103.5C 358.5,103.5 359.5,103.5 360.5,103.5C 364.427,106.927 369.094,108.26 374.5,107.5C 374.5,109.167 374.5,110.833 374.5,112.5C 376.924,112.192 379.257,112.526 381.5,113.5C 382.373,115.413 383.373,117.247 384.5,119C 393.148,123.964 400.982,130.131 408,137.5C 408.14,139.256 407.64,140.922 406.5,142.5C 408.908,143.453 411.075,144.787 413,146.5C 419.44,168.683 422.44,191.35 422,214.5C 422.794,217.471 423.461,220.471 424,223.5C 424.498,225.544 425.665,226.878 427.5,227.5C 429.85,232.385 431.517,237.552 432.5,243C 432.624,247.138 431.291,250.638 428.5,253.5C 430.348,255.68 430.681,258.014 429.5,260.5C 428.235,261.514 427.569,263.014 427.5,265C 427.508,266.707 427.842,268.207 428.5,269.5C 428.666,273.514 428.499,277.514 428,281.5C 426.91,284.939 425.744,288.273 424.5,291.5C 414.984,308.317 405.984,325.317 397.5,342.5C 395.837,344.438 395.171,346.772 395.5,349.5C 392.99,349.054 390.99,349.72 389.5,351.5C 382.315,358.185 375.315,365.019 368.5,372C 355.833,380.667 343.167,389.333 330.5,398C 324.865,402.633 319.532,407.633 314.5,413C 311.258,413.986 308.592,413.152 306.5,410.5C 304.456,412.219 302.456,413.886 300.5,415.5C 294.137,415.593 287.804,415.26 281.5,414.5C 269.314,413.123 257.314,413.456 245.5,415.5C 235.419,415.83 225.419,415.163 215.5,413.5C 213.372,412.371 211.039,412.204 208.5,413C 202.309,417.114 195.643,419.947 188.5,421.5C 184.486,421.666 180.486,421.499 176.5,421C 177.167,420.667 177.833,420.333 178.5,420C 174.452,419.696 170.452,419.196 166.5,418.5C 163.937,417.912 161.604,416.912 159.5,415.5C 156.302,412.875 152.635,411.209 148.5,410.5C 132.318,403.483 117.818,393.816 105,381.5C 102.477,377.931 101.144,373.931 101,369.5C 98.5848,368.868 96.4181,367.868 94.5,366.5C 92.22,364.777 89.5533,364.111 86.5,364.5C 86.5,362.833 86.5,361.167 86.5,359.5C 84.139,359.674 81.8056,360.007 79.5,360.5C 78.4322,357.925 76.7655,355.758 74.5,354C 65.8366,349.345 58.3366,343.178 52,335.5C 51.2797,333.888 51.4464,332.388 52.5,331C 50.4098,330.331 48.7432,329.164 47.5,327.5C 47.2503,325.326 46.2503,323.659 44.5,322.5C 44.6716,321.508 44.3382,320.842 43.5,320.5C 42.6049,310.11 41.2715,299.777 39.5,289.5C 38.5025,281.862 38.1692,274.196 38.5,266.5C 39.1817,258.895 37.515,251.895 33.5,245.5C 33.0431,244.702 32.3764,244.369 31.5,244.5C 31.7709,242.62 31.1042,241.287 29.5,240.5C 28.6618,240.158 28.3284,239.492 28.5,238.5C 27.6945,235.715 27.0278,232.881 26.5,230C 26.9172,227.502 27.2505,225.002 27.5,222.5C 32.2253,220.627 32.5587,218.293 28.5,215.5C 29.1667,214.167 30.1667,213.167 31.5,212.5C 29.8409,197.378 33.3409,183.711 42,171.5C 42.5046,169.482 43.0046,167.482 43.5,165.5C 44.4959,165.586 45.3292,165.252 46,164.5C 47.5512,160.09 49.0512,155.757 50.5,151.5C 53.9562,147.51 56.2895,142.843 57.5,137.5C 60.3239,135.2 62.1572,132.2 63,128.5C 63.4955,126.527 63.6621,124.527 63.5,122.5C 70.9501,122.07 76.2835,118.403 79.5,111.5C 79.3284,110.508 79.6618,109.842 80.5,109.5C 80.4346,109.938 80.6012,110.272 81,110.5C 85.3373,106.599 89.504,102.599 93.5,98.5C 99.7907,96.5282 104.791,92.8615 108.5,87.5C 111.773,85.9387 115.106,84.2721 118.5,82.5C 119.425,81.6431 120.092,80.6431 120.5,79.5C 121.552,79.6495 122.552,79.4828 123.5,79C 131.381,72.2787 139.381,65.7787 147.5,59.5C 149.383,60.0243 151.216,60.6909 153,61.5C 155.156,60.0149 157.323,58.5149 159.5,57C 165.993,56.1657 172.326,56.8324 178.5,59C 187.849,59.6103 197.183,59.4436 206.5,58.5C 220.252,57.9726 233.919,58.6392 247.5,60.5C 250.581,59.9733 253.581,59.14 256.5,58C 257.252,57.3292 257.586,56.4959 257.5,55.5C 269.024,51.1463 280.691,50.6463 292.5,54C 297.211,56.9665 302.211,59.4665 307.5,61.5C 308.298,61.0431 308.631,60.3764 308.5,59.5 Z"/></g>
<g><path style="opacity:0.965" fill="#cfb78a" d="M 221.5,55.5 C 227.322,56.4891 233.322,57.1558 239.5,57.5C 242.311,57.5713 244.978,58.238 247.5,59.5C 250.605,57.615 253.938,56.2816 257.5,55.5C 257.586,56.4959 257.252,57.3292 256.5,58C 253.581,59.14 250.581,59.9733 247.5,60.5C 233.919,58.6392 220.252,57.9726 206.5,58.5C 206.5,58.1667 206.5,57.8333 206.5,57.5C 211.515,56.9149 216.515,56.2482 221.5,55.5 Z"/></g>
<g><path style="opacity:0.031" fill="#f5f1e1" d="M 221.5,55.5 C 227.762,55.1049 233.762,55.7716 239.5,57.5C 233.322,57.1558 227.322,56.4891 221.5,55.5 Z"/></g>
<g><path style="opacity:0.463" fill="#e9ddc7" d="M 206.5,57.5 C 206.5,57.8333 206.5,58.1667 206.5,58.5C 197.183,59.4436 187.849,59.6103 178.5,59C 172.326,56.8324 165.993,56.1657 159.5,57C 157.323,58.5149 155.156,60.0149 153,61.5C 151.216,60.6909 149.383,60.0243 147.5,59.5C 139.381,65.7787 131.381,72.2787 123.5,79C 122.552,79.4828 121.552,79.6495 120.5,79.5C 129.231,72.9465 137.564,65.7798 145.5,58C 148.17,57.4574 150.67,57.9574 153,59.5C 156.808,56.0908 161.308,54.7574 166.5,55.5C 174.971,56.6213 183.471,57.6213 192,58.5C 196.819,57.9089 201.652,57.5755 206.5,57.5 Z"/></g>
<g><path style="opacity:0.345" fill="#e3d5b6" d="M 309.5,60.5 C 321.824,65.6555 333.158,72.3221 343.5,80.5C 342.448,80.6495 341.448,80.4828 340.5,80C 331.022,72.9272 320.689,67.4272 309.5,63.5C 309.5,62.5 309.5,61.5 309.5,60.5 Z"/></g>
<g><path style="opacity:0.137" fill="#e0d4bc" d="M 120.5,79.5 C 120.092,80.6431 119.425,81.6431 118.5,82.5C 115.106,84.2721 111.773,85.9387 108.5,87.5C 112.148,84.3401 116.148,81.6735 120.5,79.5 Z"/></g>
<g><path style="opacity:0.788" fill="#dccca7" d="M 108.5,87.5 C 104.791,92.8615 99.7907,96.5282 93.5,98.5C 97.6522,93.6817 102.652,90.015 108.5,87.5 Z"/></g>
<g><path style="opacity:0.945" fill="#ddcbac" d="M 343.5,80.5 C 350.095,84.0431 355.261,89.0431 359,95.5C 359.272,98.2538 359.772,100.921 360.5,103.5C 359.5,103.5 358.5,103.5 357.5,103.5C 357.634,99.129 356.468,95.129 354,91.5C 350.219,87.8909 346.719,84.2242 343.5,80.5 Z"/></g>
<g><path style="opacity:0.161" fill="#eadcc8" d="M 93.5,98.5 C 89.504,102.599 85.3373,106.599 81,110.5C 80.6012,110.272 80.4346,109.938 80.5,109.5C 84.2678,105.123 88.6012,101.456 93.5,98.5 Z"/></g>
<g><path style="opacity:0.996" fill="#326e21" d="M 260.5,132.5 C 257.769,136.322 256.436,140.656 256.5,145.5C 254.644,165.12 253.311,184.786 252.5,204.5C 266.382,202.578 280.049,199.411 293.5,195C 302.124,193.982 310.624,194.482 319,196.5C 323.617,197.934 326.117,200.934 326.5,205.5C 324.071,206.871 321.737,208.371 319.5,210C 310.184,210.901 300.85,211.568 291.5,212C 277.894,214.495 264.227,216.662 250.5,218.5C 249.908,221.127 249.575,223.794 249.5,226.5C 249.338,228.527 249.505,230.527 250,232.5C 264.17,255.683 281.004,276.85 300.5,296C 319.155,310.329 339.822,320.329 362.5,326C 364.919,327.509 365.919,329.675 365.5,332.5C 354.345,335.878 342.845,337.212 331,336.5C 322.33,336.873 313.83,336.04 305.5,334C 301.022,329.853 296.855,325.353 293,320.5C 287.481,311.448 281.481,302.781 275,294.5C 269.252,284.003 263.252,273.67 257,263.5C 254.465,257.771 251.965,252.104 249.5,246.5C 248.5,246.5 247.5,246.5 246.5,246.5C 246.5,248.167 246.5,249.833 246.5,251.5C 244.185,256.472 242.851,261.806 242.5,267.5C 231.425,303.244 207.758,325.577 171.5,334.5C 170.185,332.865 170.185,331.199 171.5,329.5C 201.354,312.12 220.854,286.787 230,253.5C 231.312,244.82 232.478,236.154 233.5,227.5C 234.434,226.432 234.768,225.099 234.5,223.5C 230.466,223.672 226.466,224.172 222.5,225C 214.187,227.907 205.687,230.073 197,231.5C 190.628,230.766 184.795,228.766 179.5,225.5C 177.841,221.664 179.175,219.498 183.5,219C 200.823,215.505 218.156,212.338 235.5,209.5C 237.055,189.538 237.721,169.538 237.5,149.5C 238.354,138.723 235.687,129.056 229.5,120.5C 228.232,118.33 228.232,116.163 229.5,114C 240.826,114.109 250.826,117.942 259.5,125.5C 260.474,127.743 260.808,130.076 260.5,132.5 Z"/></g>
<g><path style="opacity:0.996" fill="#326f21" d="M 196.5,141.5 C 192.521,144.812 188.854,148.479 185.5,152.5C 177.067,165.711 168.401,178.711 159.5,191.5C 159.747,192.713 160.414,193.38 161.5,193.5C 162.806,195.816 164.139,198.15 165.5,200.5C 167.073,242.176 166.239,283.843 163,325.5C 162.721,328.457 161.887,331.123 160.5,333.5C 159.178,337.593 157.178,341.426 154.5,345C 152.741,345.798 151.074,345.631 149.5,344.5C 147.962,341.852 146.628,339.185 145.5,336.5C 144.343,327.513 144.343,318.513 145.5,309.5C 151.013,275.428 153.347,241.094 152.5,206.5C 152.5,204.833 152.5,203.167 152.5,201.5C 145.481,206.682 139.147,212.849 133.5,220C 124.048,229.116 113.715,237.116 102.5,244C 99.6473,245.43 96.6473,246.263 93.5,246.5C 93.3398,244.801 93.5065,243.134 94,241.5C 126.685,212.838 152.018,178.838 170,139.5C 170.966,133.87 171.633,128.204 172,122.5C 174.153,120.556 176.653,120.056 179.5,121C 185.849,124.338 191.349,128.838 196,134.5C 196.497,136.81 196.663,139.143 196.5,141.5 Z"/></g>
<g><path style="opacity:0.553" fill="#e9dcc6" d="M 79.5,111.5 C 76.2835,118.403 70.9501,122.07 63.5,122.5C 63.6621,124.527 63.4955,126.527 63,128.5C 62.1572,132.2 60.3239,135.2 57.5,137.5C 58.9597,133.808 60.6264,130.141 62.5,126.5C 61.5721,125.232 61.4054,123.899 62,122.5C 64.0693,121.736 66.236,121.236 68.5,121C 72.4039,117.917 76.0706,114.75 79.5,111.5 Z"/></g>
<g><path style="opacity:0.996" fill="#535d37" d="M 229.5,120.5 C 235.687,129.056 238.354,138.723 237.5,149.5C 236.434,144.681 235.6,139.681 235,134.5C 231.77,130.375 229.937,125.708 229.5,120.5 Z"/></g>
<g><path style="opacity:0.996" fill="#4f5b37" d="M 260.5,132.5 C 260.346,137.289 259.013,141.622 256.5,145.5C 256.436,140.656 257.769,136.322 260.5,132.5 Z"/></g>
<g><path style="opacity:0.996" fill="#326e21" d="M 317.5,172.5 C 313.035,174.964 308.368,175.131 303.5,173C 294.051,166.716 285.717,159.216 278.5,150.5C 277.464,148.609 277.464,146.776 278.5,145C 291.905,142.065 303.738,144.898 314,153.5C 316.868,159.493 318.035,165.826 317.5,172.5 Z"/></g>
<g><path style="opacity:0.498" fill="#e5d8c1" d="M 57.5,137.5 C 56.2895,142.843 53.9562,147.51 50.5,151.5C 52.033,146.338 54.3663,141.671 57.5,137.5 Z"/></g>
<g><path style="opacity:0.541" fill="#decdad" d="M 50.5,151.5 C 49.0512,155.757 47.5512,160.09 46,164.5C 45.3292,165.252 44.4959,165.586 43.5,165.5C 45.0208,160.345 47.3541,155.678 50.5,151.5 Z"/></g>
<g><path style="opacity:0.996" fill="#414738" d="M 196.5,141.5 C 196.66,143.199 196.494,144.866 196,146.5C 192.43,149.614 189.097,152.947 186,156.5C 178.273,169.342 170.107,181.676 161.5,193.5C 160.414,193.38 159.747,192.713 159.5,191.5C 168.401,178.711 177.067,165.711 185.5,152.5C 188.854,148.479 192.521,144.812 196.5,141.5 Z"/></g>
<g><path style="opacity:0.996" fill="#44443b" d="M 278.5,150.5 C 285.717,159.216 294.051,166.716 303.5,173C 308.368,175.131 313.035,174.964 317.5,172.5C 317.896,175.044 317.229,177.211 315.5,179C 312.5,179.667 309.5,179.667 306.5,179C 295.234,172.454 285.734,163.954 278,153.5C 277.26,152.251 277.427,151.251 278.5,150.5 Z"/></g>
<g><path style="opacity:0.651" fill="#e1d2b7" d="M 43.5,165.5 C 43.0046,167.482 42.5046,169.482 42,171.5C 33.3409,183.711 29.8409,197.378 31.5,212.5C 30.1667,213.167 29.1667,214.167 28.5,215.5C 32.5587,218.293 32.2253,220.627 27.5,222.5C 27.5106,220.983 28.1772,219.816 29.5,219C 25.7941,216.147 25.9608,213.314 30,210.5C 30.1358,202.438 30.8025,194.438 32,186.5C 35.3536,179.117 39.1869,172.117 43.5,165.5 Z"/></g>
<g><path style="opacity:0.288" fill="#e5d8bf" d="M 360.5,103.5 C 365.016,104.949 369.683,105.782 374.5,106C 376.107,107.049 376.773,108.549 376.5,110.5C 378.199,110.34 379.866,110.506 381.5,111C 383.257,113.846 385.257,116.512 387.5,119C 395.675,123.516 402.842,129.349 409,136.5C 409.743,138.441 409.576,140.274 408.5,142C 412.307,143.14 414.807,145.64 416,149.5C 421.444,171.481 424.111,193.814 424,216.5C 424.605,220.369 425.771,224.035 427.5,227.5C 425.665,226.878 424.498,225.544 424,223.5C 423.461,220.471 422.794,217.471 422,214.5C 422.44,191.35 419.44,168.683 413,146.5C 411.075,144.787 408.908,143.453 406.5,142.5C 407.64,140.922 408.14,139.256 408,137.5C 400.982,130.131 393.148,123.964 384.5,119C 383.373,117.247 382.373,115.413 381.5,113.5C 379.257,112.526 376.924,112.192 374.5,112.5C 374.5,110.833 374.5,109.167 374.5,107.5C 369.094,108.26 364.427,106.927 360.5,103.5 Z"/></g>
<g><path style="opacity:0.996" fill="#3e4239" d="M 326.5,205.5 C 327.275,209.182 325.941,211.682 322.5,213C 308.609,215.653 294.609,217.486 280.5,218.5C 271.669,219.64 263.002,220.974 254.5,222.5C 253.432,223.434 252.099,223.768 250.5,223.5C 250.737,224.791 250.404,225.791 249.5,226.5C 249.575,223.794 249.908,221.127 250.5,218.5C 264.227,216.662 277.894,214.495 291.5,212C 300.85,211.568 310.184,210.901 319.5,210C 321.737,208.371 324.071,206.871 326.5,205.5 Z"/></g>
<g><path style="opacity:0.996" fill="#836e48" d="M 280.5,218.5 C 272.219,221.484 263.552,222.817 254.5,222.5C 263.002,220.974 271.669,219.64 280.5,218.5 Z"/></g>
<g><path style="opacity:0.996" fill="#3e4139" d="M 233.5,227.5 C 230.303,227.405 227.303,228.072 224.5,229.5C 217.264,231.434 209.931,233.267 202.5,235C 197.472,235.588 192.472,235.422 187.5,234.5C 182.67,233.341 180.004,230.341 179.5,225.5C 184.795,228.766 190.628,230.766 197,231.5C 205.687,230.073 214.187,227.907 222.5,225C 226.466,224.172 230.466,223.672 234.5,223.5C 234.768,225.099 234.434,226.432 233.5,227.5 Z"/></g>
<g><path style="opacity:0.125" fill="#f4f0e2" d="M 27.5,222.5 C 27.2505,225.002 26.9172,227.502 26.5,230C 27.0278,232.881 27.6945,235.715 28.5,238.5C 26.1364,236.052 25.1364,233.052 25.5,229.5C 25.3161,226.795 25.9827,224.462 27.5,222.5 Z"/></g>
<g><path style="opacity:0.259" fill="#eae3d3" d="M 427.5,227.5 C 432.97,233.413 435.136,240.413 434,248.5C 433.208,250.587 432.041,252.421 430.5,254C 432.884,256.024 433.051,258.191 431,260.5C 430.223,267.823 429.556,275.157 429,282.5C 428.127,285.618 426.961,288.618 425.5,291.5C 426.465,295.676 426.132,299.676 424.5,303.5C 424.5,302.5 424.5,301.5 424.5,300.5C 424.5,297.5 424.5,294.5 424.5,291.5C 425.744,288.273 426.91,284.939 428,281.5C 428.499,277.514 428.666,273.514 428.5,269.5C 429.477,266.713 429.81,263.713 429.5,260.5C 430.681,258.014 430.348,255.68 428.5,253.5C 431.291,250.638 432.624,247.138 432.5,243C 431.517,237.552 429.85,232.385 427.5,227.5 Z"/></g>
<g><path style="opacity:0.996" fill="#404439" d="M 152.5,206.5 C 151.448,206.351 150.448,206.517 149.5,207C 134.872,223.981 118.205,238.648 99.5,251C 97.5273,251.495 95.5273,251.662 93.5,251.5C 93.5,249.833 93.5,248.167 93.5,246.5C 96.6473,246.263 99.6473,245.43 102.5,244C 113.715,237.116 124.048,229.116 133.5,220C 139.147,212.849 145.481,206.682 152.5,201.5C 152.5,203.167 152.5,204.833 152.5,206.5 Z"/></g>
<g><path style="opacity:0.996" fill="#937a4b" d="M 224.5,229.5 C 219.652,231.58 214.652,233.746 209.5,236C 203.167,236.667 196.833,236.667 190.5,236C 189.263,235.768 188.263,235.268 187.5,234.5C 192.472,235.422 197.472,235.588 202.5,235C 209.931,233.267 217.264,231.434 224.5,229.5 Z"/></g>
<g><path style="opacity:0.022" fill="#f6f6f5" d="M 29.5,240.5 C 31.1042,241.287 31.7709,242.62 31.5,244.5C 31.1667,245.167 30.8333,245.833 30.5,246.5C 29.5318,248.607 29.1984,250.941 29.5,253.5C 28.6022,249.09 28.6022,244.757 29.5,240.5 Z"/></g>
<g><path style="opacity:0.995" fill="#1f1c16" d="M 31.5,244.5 C 32.3764,244.369 33.0431,244.702 33.5,245.5C 37.515,251.895 39.1817,258.895 38.5,266.5C 37.609,265.89 36.609,265.557 35.5,265.5C 35.7009,262.235 34.5343,259.569 32,257.5C 31.0642,253.886 30.5642,250.22 30.5,246.5C 30.8333,245.833 31.1667,245.167 31.5,244.5 Z"/></g>
<g><path style="opacity:0.141" fill="#a9a9a9" d="M 30.5,246.5 C 30.5642,250.22 31.0642,253.886 32,257.5C 34.5343,259.569 35.7009,262.235 35.5,265.5C 32.4598,262.086 30.4598,258.086 29.5,253.5C 29.1984,250.941 29.5318,248.607 30.5,246.5 Z"/></g>
<g><path style="opacity:0.996" fill="#8f8446" d="M 165.5,200.5 C 166.117,200.611 166.617,200.944 167,201.5C 168.205,244.905 167.039,288.239 163.5,331.5C 162.792,333.745 161.792,335.745 160.5,337.5C 160.5,336.167 160.5,334.833 160.5,333.5C 161.887,331.123 162.721,328.457 163,325.5C 166.239,283.843 167.073,242.176 165.5,200.5 Z"/></g>
<g><path style="opacity:0.996" fill="#6c5e45" d="M 429.5,260.5 C 429.81,263.713 429.477,266.713 428.5,269.5C 427.842,268.207 427.508,266.707 427.5,265C 427.569,263.014 428.235,261.514 429.5,260.5 Z"/></g>
<g><path style="opacity:0.423" fill="#dfd2bd" d="M 35.5,265.5 C 36.609,265.557 37.609,265.89 38.5,266.5C 38.1692,274.196 38.5025,281.862 39.5,289.5C 41.2715,299.777 42.6049,310.11 43.5,320.5C 43.5,321.5 43.5,322.5 43.5,323.5C 41.8697,318.4 40.703,313.066 40,307.5C 38.301,293.507 36.801,279.507 35.5,265.5 Z"/></g>
<g><path style="opacity:0.997" fill="#080705" d="M 424.5,291.5 C 424.5,294.5 424.5,297.5 424.5,300.5C 420.336,310.508 415.836,320.508 411,330.5C 405.413,340.006 400.08,349.673 395,359.5C 393.801,362.726 393.301,366.059 393.5,369.5C 391.143,369.337 388.81,369.503 386.5,370C 369.948,387.544 351.281,402.544 330.5,415C 324.203,419.962 318.203,425.295 312.5,431C 309.593,431.854 307.26,431.021 305.5,428.5C 304.146,429.854 302.812,431.188 301.5,432.5C 298.797,432.955 296.13,433.622 293.5,434.5C 287.224,433.091 280.891,432.091 274.5,431.5C 267.146,431.479 259.813,431.813 252.5,432.5C 241.821,433.549 231.155,433.549 220.5,432.5C 217.751,431.649 214.917,430.982 212,430.5C 207.844,431.661 204.011,433.495 200.5,436C 194.835,438.042 189.002,439.208 183,439.5C 176.311,439.035 169.811,437.702 163.5,435.5C 163.53,434.503 163.03,433.836 162,433.5C 140.694,425.45 121.861,413.784 105.5,398.5C 104.997,395.154 104.33,391.821 103.5,388.5C 98.6241,385.391 93.2908,384.058 87.5,384.5C 87.5,382.833 87.5,381.167 87.5,379.5C 75.6469,373.081 64.8135,364.748 55,354.5C 54.6466,353.328 54.8132,352.162 55.5,351C 50.5961,347.026 47.9294,341.86 47.5,335.5C 46.7417,332.648 46.7417,329.981 47.5,327.5C 48.7432,329.164 50.4098,330.331 52.5,331C 51.4464,332.388 51.2797,333.888 52,335.5C 58.3366,343.178 65.8366,349.345 74.5,354C 76.7655,355.758 78.4322,357.925 79.5,360.5C 79.3691,361.376 79.7025,362.043 80.5,362.5C 81.7362,361.754 83.0695,361.421 84.5,361.5C 84.2865,363.144 84.6198,364.644 85.5,366C 88.4816,366.498 91.4816,366.665 94.5,366.5C 96.4181,367.868 98.5848,368.868 101,369.5C 101.144,373.931 102.477,377.931 105,381.5C 117.818,393.816 132.318,403.483 148.5,410.5C 151.849,412.733 155.515,414.4 159.5,415.5C 161.604,416.912 163.937,417.912 166.5,418.5C 168.761,420.255 171.428,421.422 174.5,422C 179.352,422.815 184.019,422.648 188.5,421.5C 195.643,419.947 202.309,417.114 208.5,413C 211.039,412.204 213.372,412.371 215.5,413.5C 217.811,415.068 220.478,415.902 223.5,416C 231.012,416.822 238.345,416.655 245.5,415.5C 257.314,413.456 269.314,413.123 281.5,414.5C 284.865,416.039 288.531,416.706 292.5,416.5C 295.355,416.497 298.022,416.164 300.5,415.5C 302.456,413.886 304.456,412.219 306.5,410.5C 308.592,413.152 311.258,413.986 314.5,413C 319.532,407.633 324.865,402.633 330.5,398C 343.167,389.333 355.833,380.667 368.5,372C 375.315,365.019 382.315,358.185 389.5,351.5C 392.096,350.735 394.763,350.401 397.5,350.5C 397.5,347.833 397.5,345.167 397.5,342.5C 405.984,325.317 414.984,308.317 424.5,291.5 Z"/></g>
<g><path style="opacity:0.996" fill="#414539" d="M 242.5,267.5 C 237.933,291.148 225.933,309.982 206.5,324C 199.544,328.305 192.544,332.305 185.5,336C 181.037,337.975 176.371,338.808 171.5,338.5C 171.5,337.167 171.5,335.833 171.5,334.5C 207.758,325.577 231.425,303.244 242.5,267.5 Z"/></g>
<g><path style="opacity:0.996" fill="#6e7a3a" d="M 145.5,309.5 C 144.343,318.513 144.343,327.513 145.5,336.5C 145.5,337.833 145.5,339.167 145.5,340.5C 144.069,335.067 143.402,329.401 143.5,323.5C 143.3,318.563 143.967,313.896 145.5,309.5 Z"/></g>
<g><path style="opacity:0.865" fill="#48443e" d="M 44.5,322.5 C 46.2503,323.659 47.2503,325.326 47.5,327.5C 46.7417,329.981 46.7417,332.648 47.5,335.5C 45.3738,331.555 44.3738,327.222 44.5,322.5 Z"/></g>
<g><path style="opacity:0.996" fill="#404339" d="M 365.5,332.5 C 365.785,334.288 365.452,335.955 364.5,337.5C 361.34,339.027 358.007,339.693 354.5,339.5C 340.525,340.409 326.525,340.743 312.5,340.5C 309.189,340.091 306.189,338.924 303.5,337C 281.837,310.847 263.837,282.347 249.5,251.5C 248.5,251.5 247.5,251.5 246.5,251.5C 246.5,249.833 246.5,248.167 246.5,246.5C 247.5,246.5 248.5,246.5 249.5,246.5C 251.965,252.104 254.465,257.771 257,263.5C 263.252,273.67 269.252,284.003 275,294.5C 281.481,302.781 287.481,311.448 293,320.5C 296.855,325.353 301.022,329.853 305.5,334C 313.83,336.04 322.33,336.873 331,336.5C 342.845,337.212 354.345,335.878 365.5,332.5 Z"/></g>
<g><path style="opacity:0.996" fill="#937a4b" d="M 354.5,339.5 C 354.389,340.117 354.056,340.617 353.5,341C 340.852,342.231 328.185,342.565 315.5,342C 314.263,341.768 313.263,341.268 312.5,340.5C 326.525,340.743 340.525,340.409 354.5,339.5 Z"/></g>
<g><path style="opacity:0.996" fill="#45483a" d="M 160.5,333.5 C 160.5,334.833 160.5,336.167 160.5,337.5C 159.349,340.474 158.183,343.474 157,346.5C 154.236,351.126 151.236,351.459 148,347.5C 147.302,344.996 146.469,342.663 145.5,340.5C 145.5,339.167 145.5,337.833 145.5,336.5C 146.628,339.185 147.962,341.852 149.5,344.5C 151.074,345.631 152.741,345.798 154.5,345C 157.178,341.426 159.178,337.593 160.5,333.5 Z"/></g>
<g><path style="opacity:0.996" fill="#6e5932" d="M 397.5,342.5 C 397.5,345.167 397.5,347.833 397.5,350.5C 394.763,350.401 392.096,350.735 389.5,351.5C 390.99,349.72 392.99,349.054 395.5,349.5C 395.171,346.772 395.837,344.438 397.5,342.5 Z"/></g>
<g><path style="opacity:0.071" fill="#b7b7b7" d="M 43.5,320.5 C 44.3382,320.842 44.6716,321.508 44.5,322.5C 44.3738,327.222 45.3738,331.555 47.5,335.5C 47.9294,341.86 50.5961,347.026 55.5,351C 54.8132,352.162 54.6466,353.328 55,354.5C 64.8135,364.748 75.6469,373.081 87.5,379.5C 87.5,381.167 87.5,382.833 87.5,384.5C 93.2908,384.058 98.6241,385.391 103.5,388.5C 104.33,391.821 104.997,395.154 105.5,398.5C 103.369,395.772 102.036,392.605 101.5,389C 97.0565,387.06 92.3899,386.06 87.5,386C 86.8333,384.667 86.1667,383.333 85.5,382C 83.7444,381.798 82.0777,381.298 80.5,380.5C 79.07,377.567 77.07,375.067 74.5,373C 66.024,367.685 58.6907,361.185 52.5,353.5C 52.9767,352.522 53.6433,351.689 54.5,351C 52.04,349.542 49.8734,347.709 48,345.5C 45.5438,338.345 44.0438,331.012 43.5,323.5C 43.5,322.5 43.5,321.5 43.5,320.5 Z"/></g>
<g><path style="opacity:0.996" fill="#856c3c" d="M 94.5,366.5 C 91.4816,366.665 88.4816,366.498 85.5,366C 84.6198,364.644 84.2865,363.144 84.5,361.5C 83.0695,361.421 81.7362,361.754 80.5,362.5C 79.7025,362.043 79.3691,361.376 79.5,360.5C 81.8056,360.007 84.139,359.674 86.5,359.5C 86.5,361.167 86.5,362.833 86.5,364.5C 89.5533,364.111 92.22,364.777 94.5,366.5 Z"/></g>
<g><path style="opacity:0.243" fill="#a8a8a8" d="M 424.5,300.5 C 424.5,301.5 424.5,302.5 424.5,303.5C 424.66,305.199 424.494,306.866 424,308.5C 414.141,326.217 404.808,344.217 396,362.5C 395.667,365.167 395.333,367.833 395,370.5C 393.75,371.573 392.416,371.573 391,370.5C 389.107,371.196 387.274,372.03 385.5,373C 380.199,379.302 374.532,385.302 368.5,391C 355.167,400.333 341.833,409.667 328.5,419C 322.641,424.195 316.808,429.362 311,434.5C 309.247,433.373 307.413,432.373 305.5,431.5C 303.358,433.905 300.691,435.238 297.5,435.5C 298.833,434.5 300.167,433.5 301.5,432.5C 302.812,431.188 304.146,429.854 305.5,428.5C 307.26,431.021 309.593,431.854 312.5,431C 318.203,425.295 324.203,419.962 330.5,415C 351.281,402.544 369.948,387.544 386.5,370C 388.81,369.503 391.143,369.337 393.5,369.5C 393.301,366.059 393.801,362.726 395,359.5C 400.08,349.673 405.413,340.006 411,330.5C 415.836,320.508 420.336,310.508 424.5,300.5 Z"/></g>
<g><path style="opacity:0.996" fill="#63502d" d="M 148.5,410.5 C 152.635,411.209 156.302,412.875 159.5,415.5C 155.515,414.4 151.849,412.733 148.5,410.5 Z"/></g>
<g><path style="opacity:0.996" fill="#504124" d="M 215.5,413.5 C 225.419,415.163 235.419,415.83 245.5,415.5C 238.345,416.655 231.012,416.822 223.5,416C 220.478,415.902 217.811,415.068 215.5,413.5 Z"/></g>
<g><path style="opacity:0.996" fill="#725c33" d="M 281.5,414.5 C 287.804,415.26 294.137,415.593 300.5,415.5C 298.022,416.164 295.355,416.497 292.5,416.5C 288.531,416.706 284.865,416.039 281.5,414.5 Z"/></g>
<g><path style="opacity:0.996" fill="#7b6337" d="M 166.5,418.5 C 170.452,419.196 174.452,419.696 178.5,420C 177.833,420.333 177.167,420.667 176.5,421C 180.486,421.499 184.486,421.666 188.5,421.5C 184.019,422.648 179.352,422.815 174.5,422C 171.428,421.422 168.761,420.255 166.5,418.5 Z"/></g>
<g><path style="opacity:0.035" fill="#9f9f9f" d="M 105.5,398.5 C 121.861,413.784 140.694,425.45 162,433.5C 163.03,433.836 163.53,434.503 163.5,435.5C 144.865,428.902 127.865,419.402 112.5,407C 109.577,404.584 107.243,401.75 105.5,398.5 Z"/></g>
<g><path style="opacity:0.486" fill="#b2b2b2" d="M 220.5,432.5 C 221.263,433.268 222.263,433.768 223.5,434C 230.346,434.172 237.013,434.672 243.5,435.5C 236.492,435.666 229.492,435.5 222.5,435C 218.933,433.963 215.433,432.796 212,431.5C 198.686,440.94 184.186,443.44 168.5,439C 166.654,437.97 164.987,436.804 163.5,435.5C 169.811,437.702 176.311,439.035 183,439.5C 189.002,439.208 194.835,438.042 200.5,436C 204.011,433.495 207.844,431.661 212,430.5C 214.917,430.982 217.751,431.649 220.5,432.5 Z"/></g>
<g><path style="opacity:0.487" fill="#cbcaca" d="M 274.5,431.5 C 277.692,432.7 280.359,433.7 282.5,434.5C 269.784,433.082 257.117,433.415 244.5,435.5C 247.02,434.082 249.687,433.082 252.5,432.5C 259.813,431.813 267.146,431.479 274.5,431.5 Z"/></g>
<g><path style="opacity:0.538" fill="#5a5a5a" d="M 220.5,432.5 C 231.155,433.549 241.821,433.549 252.5,432.5C 249.687,433.082 247.02,434.082 244.5,435.5C 244.167,435.5 243.833,435.5 243.5,435.5C 237.013,434.672 230.346,434.172 223.5,434C 222.263,433.768 221.263,433.268 220.5,432.5 Z"/></g>
<g><path style="opacity:0.494" fill="#878787" d="M 274.5,431.5 C 280.891,432.091 287.224,433.091 293.5,434.5C 296.13,433.622 298.797,432.955 301.5,432.5C 300.167,433.5 298.833,434.5 297.5,435.5C 292.386,436.263 287.386,435.93 282.5,434.5C 280.359,433.7 277.692,432.7 274.5,431.5 Z"/></g>
</svg>
