<?xml version="1.0" encoding="UTF-8"?>
<!DOCTYPE svg PUBLIC "-//W3C//DTD SVG 1.1//EN" "http://www.w3.org/Graphics/SVG/1.1/DTD/svg11.dtd">
<svg xmlns="http://www.w3.org/2000/svg" version="1.1" width="446px" height="451px" style="shape-rendering:geometricPrecision; text-rendering:geometricPrecision; image-rendering:optimizeQuality; fill-rule:evenodd; clip-rule:evenodd" xmlns:xlink="http://www.w3.org/1999/xlink">
<g><path style="opacity:0.996" fill="#b59353" d="M 333.5,71.5 C 336.39,74.6254 339.723,77.292 343.5,79.5C 345.795,82.2971 348.295,84.9638 351,87.5C 352.153,90.7111 352.82,94.0445 353,97.5C 358.111,100.259 363.611,101.759 369.5,102C 370.38,103.356 370.714,104.856 370.5,106.5C 372.604,106.201 374.604,106.534 376.5,107.5C 377.034,109.614 378.034,111.448 379.5,113C 388.173,117.995 396.006,124.162 403,131.5C 403.651,133.235 403.485,134.902 402.5,136.5C 404.193,138.027 406.027,139.36 408,140.5C 409.032,142.994 410.198,145.328 411.5,147.5C 411.577,151.877 412.077,156.21 413,160.5C 414.407,165.056 415.907,169.389 417.5,173.5C 417.5,173.833 417.5,174.167 417.5,174.5C 416.341,185.659 416.174,196.992 417,208.5C 417.687,212.58 418.687,216.58 420,220.5C 420.417,221.756 421.25,222.423 422.5,222.5C 422.343,223.873 422.51,225.207 423,226.5C 428.302,231.874 429.802,238.208 427.5,245.5C 423.085,246.677 422.419,249.01 425.5,252.5C 424.222,262.834 422.889,273.167 421.5,283.5C 421.818,288.032 421.485,292.366 420.5,296.5C 420.82,293.102 420.487,289.768 419.5,286.5C 419.167,286.833 418.833,287.167 418.5,287.5C 410.012,303.925 401.679,320.259 393.5,336.5C 392.883,336.611 392.383,336.944 392,337.5C 391.503,339.81 391.337,342.143 391.5,344.5C 389.585,344.216 387.919,344.549 386.5,345.5C 385.761,345.369 385.094,345.536 384.5,346C 367.321,364.76 347.654,380.427 325.5,393C 319.865,397.633 314.532,402.633 309.5,408C 306.829,408.833 304.496,408.333 302.5,406.5C 300.315,405.913 298.648,406.913 297.5,409.5C 296.167,409.833 294.833,410.167 293.5,410.5C 288.833,410.5 284.167,410.5 279.5,410.5C 278.737,409.732 277.737,409.232 276.5,409C 264.486,408.358 252.486,408.524 240.5,409.5C 229.389,409.984 218.389,409.317 207.5,407.5C 203.199,408.624 199.199,410.458 195.5,413C 192.883,413.822 190.216,414.322 187.5,414.5C 178.714,416.113 170.047,415.78 161.5,413.5C 155.755,410.817 150.089,408.15 144.5,405.5C 142.967,403.755 140.967,402.755 138.5,402.5C 123.879,395.608 110.712,386.608 99,375.5C 98.0858,371.858 97.2525,368.192 96.5,364.5C 91.5218,361.782 86.1884,360.282 80.5,360C 79.6198,358.644 79.2865,357.144 79.5,355.5C 77.8008,355.66 76.1341,355.494 74.5,355C 72.8745,352.372 70.8745,350.039 68.5,348C 60.1415,343.809 53.1415,337.976 47.5,330.5C 47.8333,328.5 48.1667,326.5 48.5,324.5C 47.5,324.5 46.5,324.5 45.5,324.5C 44.1667,323.833 43.1667,322.833 42.5,321.5C 41.1616,318.122 39.8283,314.789 38.5,311.5C 37.3245,302.089 35.8245,292.756 34,283.5C 33.7648,276.119 33.2648,268.786 32.5,261.5C 33.8333,256.833 33.8333,252.167 32.5,247.5C 31.6276,244.091 29.961,241.091 27.5,238.5C 25.6791,234.188 23.8458,229.855 22,225.5C 21.4436,223.115 21.6103,220.782 22.5,218.5C 26.8857,215.964 27.2191,213.131 23.5,210C 24.7101,208.961 25.7101,207.794 26.5,206.5C 27.3495,197.988 28.1828,189.321 29,180.5C 30.3187,178.713 31.152,176.713 31.5,174.5C 39.768,159.058 48.268,143.725 57,128.5C 58.2367,124.94 58.7367,121.273 58.5,117.5C 62.6568,118.343 65.6568,117.009 67.5,113.5C 68.1667,111.5 69.5,110.167 71.5,109.5C 76.5,105.167 81.1667,100.5 85.5,95.5C 91.1997,91.984 96.533,87.984 101.5,83.5C 105.361,82.7399 108.361,80.7399 110.5,77.5C 113.674,76.9898 116.008,75.3231 117.5,72.5C 121.495,71.1645 124.828,68.8312 127.5,65.5C 132.697,62.3896 137.363,58.5563 141.5,54C 144.025,53.9593 146.358,54.7927 148.5,56.5C 150.359,54.8076 152.359,53.3076 154.5,52C 166.005,52.0411 177.505,52.5411 189,53.5C 199.85,53.1141 210.683,52.4474 221.5,51.5C 228.841,51.4544 235.841,52.7877 242.5,55.5C 246.449,53.8641 250.115,51.8641 253.5,49.5C 254.99,47.7202 256.99,47.0535 259.5,47.5C 267.437,45.1173 275.437,44.9506 283.5,47C 291.951,50.3918 300.284,54.0585 308.5,58C 316.847,62.5061 325.18,67.0061 333.5,71.5 Z"/></g>
<g><path style="opacity:0.227" fill="#e4d6b9" d="M 333.5,71.5 C 325.18,67.0061 316.847,62.5061 308.5,58C 300.284,54.0585 291.951,50.3918 283.5,47C 275.437,44.9506 267.437,45.1173 259.5,47.5C 267.819,42.9328 276.485,42.4328 285.5,46C 298.167,52 310.833,58 323.5,64C 327.08,66.2774 330.414,68.7774 333.5,71.5 Z"/></g>
<g><path style="opacity:0.643" fill="#e2d1b4" d="M 253.5,49.5 C 250.115,51.8641 246.449,53.8641 242.5,55.5C 235.841,52.7877 228.841,51.4544 221.5,51.5C 210.683,52.4474 199.85,53.1141 189,53.5C 177.505,52.5411 166.005,52.0411 154.5,52C 152.359,53.3076 150.359,54.8076 148.5,56.5C 146.358,54.7927 144.025,53.9593 141.5,54C 137.363,58.5563 132.697,62.3896 127.5,65.5C 132.459,60.8768 137.459,56.2102 142.5,51.5C 144.711,52.1228 146.711,53.1228 148.5,54.5C 151.833,51.3281 155.833,49.6614 160.5,49.5C 180.925,52.9221 201.425,53.2554 222,50.5C 228.986,50.5217 235.819,51.5217 242.5,53.5C 246.185,52.1612 249.851,50.8279 253.5,49.5 Z"/></g>
<g><path style="opacity:0.122" fill="#eadfca" d="M 127.5,65.5 C 124.828,68.8312 121.495,71.1645 117.5,72.5C 120.475,69.6771 123.808,67.3437 127.5,65.5 Z"/></g>
<g><path style="opacity:0.22" fill="#eddece" d="M 117.5,72.5 C 116.008,75.3231 113.674,76.9898 110.5,77.5C 112.55,75.4525 114.883,73.7859 117.5,72.5 Z"/></g>
<g><path style="opacity:0.165" fill="#e2d5bc" d="M 333.5,71.5 C 336.26,72.7437 338.927,74.2437 341.5,76C 342.823,76.8159 343.489,77.9826 343.5,79.5C 339.723,77.292 336.39,74.6254 333.5,71.5 Z"/></g>
<g><path style="opacity:0.349" fill="#e2ceb3" d="M 110.5,77.5 C 108.361,80.7399 105.361,82.7399 101.5,83.5C 103.975,80.7589 106.975,78.7589 110.5,77.5 Z"/></g>
<g><path style="opacity:0.133" fill="#eadcc7" d="M 101.5,83.5 C 96.533,87.984 91.1997,91.984 85.5,95.5C 90.1092,90.5293 95.4425,86.5293 101.5,83.5 Z"/></g>
<g><path style="opacity:0.302" fill="#eae1c7" d="M 85.5,95.5 C 81.1667,100.5 76.5,105.167 71.5,109.5C 75.1667,103.833 79.8333,99.1667 85.5,95.5 Z"/></g>
<g><path style="opacity:0.996" fill="#b95d36" d="M 281.5,117.5 C 274.798,117.336 268.131,117.669 261.5,118.5C 265.034,116.952 268.867,116.286 273,116.5C 276.021,116.502 278.854,116.836 281.5,117.5 Z"/></g>
<g><path style="opacity:0.996" fill="#c02b1b" d="M 281.5,117.5 C 288.345,117.305 290.011,119.972 286.5,125.5C 283.42,126.517 280.42,127.684 277.5,129C 264.276,131.427 251.276,134.26 238.5,137.5C 237.508,144.648 237.175,151.981 237.5,159.5C 238.791,159.737 239.791,159.404 240.5,158.5C 249.102,155.181 258.102,154.015 267.5,155C 272.159,155.87 273.493,158.37 271.5,162.5C 266.76,163.742 262.093,165.076 257.5,166.5C 250.734,166.943 244.068,167.943 237.5,169.5C 237.5,171.5 237.5,173.5 237.5,175.5C 237.5,180.167 237.5,184.833 237.5,189.5C 242.739,188.36 248.072,187.193 253.5,186C 258.5,185.333 263.5,185.333 268.5,186C 272.013,188.066 272.346,190.566 269.5,193.5C 262.116,195.593 254.782,197.593 247.5,199.5C 243.584,199.025 240.251,200.025 237.5,202.5C 236.508,210.316 236.174,218.316 236.5,226.5C 239.385,226.806 242.052,226.473 244.5,225.5C 257.836,223.573 271.169,221.573 284.5,219.5C 290.354,217.661 296.354,216.661 302.5,216.5C 311.575,219.621 320.075,223.955 328,229.5C 328.497,231.81 328.663,234.143 328.5,236.5C 323.989,241.207 321.989,246.873 322.5,253.5C 321.322,261.644 320.655,269.978 320.5,278.5C 320.5,279.5 320.5,280.5 320.5,281.5C 319.055,287.382 317.722,293.382 316.5,299.5C 312.938,310.663 308.104,321.33 302,331.5C 295.609,339.765 287.442,345.098 277.5,347.5C 275.197,332.226 268.197,319.56 256.5,309.5C 255.19,307.852 253.857,306.186 252.5,304.5C 253.167,304.167 253.833,303.833 254.5,303.5C 262.408,306.622 270.408,309.455 278.5,312C 281.833,312.667 285.167,312.667 288.5,312C 299.589,292.306 304.589,271.14 303.5,248.5C 304.549,239.564 300.883,233.897 292.5,231.5C 291.737,230.732 290.737,230.232 289.5,230C 283.167,229.333 276.833,229.333 270.5,230C 269.584,230.278 268.918,230.778 268.5,231.5C 265.941,231.198 263.607,231.532 261.5,232.5C 252.54,232.773 243.873,234.106 235.5,236.5C 225.141,238.252 214.807,239.919 204.5,241.5C 196.018,243.135 187.685,245.135 179.5,247.5C 176.682,249.736 173.849,252.07 171,254.5C 169.056,253.561 167.389,252.227 166,250.5C 164.199,247.563 162.699,244.563 161.5,241.5C 160.939,240.092 160.605,238.592 160.5,237C 165.066,209.8 166.732,182.3 165.5,154.5C 165.844,149.878 165.177,145.545 163.5,141.5C 163.445,138.386 162.112,136.052 159.5,134.5C 158.735,131.904 158.401,129.237 158.5,126.5C 166.107,125.899 172.773,128.066 178.5,133C 179.667,133.167 180.833,133.333 182,133.5C 193.978,132.712 205.811,131.045 217.5,128.5C 225.652,128.472 233.319,126.805 240.5,123.5C 247.158,120.699 254.158,119.032 261.5,118.5C 268.131,117.669 274.798,117.336 281.5,117.5 Z"/></g>
<g><path style="opacity:0.192" fill="#e6dbc2" d="M 343.5,79.5 C 350.913,83.4891 355.246,89.6558 356.5,98C 361.339,99.6954 366.339,100.529 371.5,100.5C 371.433,103.766 373.099,105.266 376.5,105C 378.35,108.362 380.683,111.362 383.5,114C 391.247,119.076 398.413,124.909 405,131.5C 405.72,133.112 405.554,134.612 404.5,136C 408.773,138.649 411.106,142.482 411.5,147.5C 410.198,145.328 409.032,142.994 408,140.5C 406.027,139.36 404.193,138.027 402.5,136.5C 403.485,134.902 403.651,133.235 403,131.5C 396.006,124.162 388.173,117.995 379.5,113C 378.034,111.448 377.034,109.614 376.5,107.5C 374.604,106.534 372.604,106.201 370.5,106.5C 370.714,104.856 370.38,103.356 369.5,102C 363.611,101.759 358.111,100.259 353,97.5C 352.82,94.0445 352.153,90.7111 351,87.5C 348.295,84.9638 345.795,82.2971 343.5,79.5 Z"/></g>
<g><path style="opacity:0.996" fill="#bc4c2c" d="M 240.5,123.5 C 233.319,126.805 225.652,128.472 217.5,128.5C 225.05,126.737 232.717,125.07 240.5,123.5 Z"/></g>
<g><path style="opacity:0.996" fill="#463b38" d="M 286.5,125.5 C 289.132,127.699 288.799,129.699 285.5,131.5C 281.067,132.869 276.733,134.203 272.5,135.5C 261.308,138.036 249.974,140.369 238.5,142.5C 238.5,140.833 238.5,139.167 238.5,137.5C 251.276,134.26 264.276,131.427 277.5,129C 280.42,127.684 283.42,126.517 286.5,125.5 Z"/></g>
<g><path style="opacity:0.996" fill="#6e6044" d="M 285.5,131.5 C 281.894,134.783 277.56,136.117 272.5,135.5C 276.733,134.203 281.067,132.869 285.5,131.5 Z"/></g>
<g><path style="opacity:0.996" fill="#533c36" d="M 159.5,134.5 C 162.112,136.052 163.445,138.386 163.5,141.5C 163.5,142.5 163.5,143.5 163.5,144.5C 160.384,141.641 159.051,138.307 159.5,134.5 Z"/></g>
<g><path style="opacity:0.996" fill="#962920" d="M 216.5,139.5 C 214.369,140.314 212.036,140.814 209.5,141C 200.173,141.5 190.839,141.666 181.5,141.5C 193.003,140.639 204.67,139.972 216.5,139.5 Z"/></g>
<g><path style="opacity:0.996" fill="#463e3a" d="M 216.5,139.5 C 218.415,139.216 220.081,139.549 221.5,140.5C 221.5,142.167 221.5,143.833 221.5,145.5C 208.216,147.005 194.883,147.672 181.5,147.5C 181.5,145.5 181.5,143.5 181.5,141.5C 190.839,141.666 200.173,141.5 209.5,141C 212.036,140.814 214.369,140.314 216.5,139.5 Z"/></g>
<g><path style="opacity:0.42" fill="#e2d2b5" d="M 67.5,113.5 C 65.6568,117.009 62.6568,118.343 58.5,117.5C 58.7367,121.273 58.2367,124.94 57,128.5C 48.268,143.725 39.768,159.058 31.5,174.5C 38.6556,158.506 46.4889,142.84 55,127.5C 56.0734,123.916 56.7401,120.25 57,116.5C 60.6288,115.912 64.1288,114.912 67.5,113.5 Z"/></g>
<g><path style="opacity:0.996" fill="#9d412b" d="M 238.5,137.5 C 238.5,139.167 238.5,140.833 238.5,142.5C 237.887,148.271 238.554,153.604 240.5,158.5C 239.791,159.404 238.791,159.737 237.5,159.5C 237.175,151.981 237.508,144.648 238.5,137.5 Z"/></g>
<g><path style="opacity:0.996" fill="#b49152" d="M 221.5,145.5 C 222.053,151.792 221.386,157.792 219.5,163.5C 215.126,163.502 211.126,164.502 207.5,166.5C 201.434,166.842 195.434,167.675 189.5,169C 188.08,171.574 188.747,173.407 191.5,174.5C 189.748,174.418 188.748,175.251 188.5,177C 189.816,178.659 191.482,179.825 193.5,180.5C 193.918,181.222 194.584,181.722 195.5,182C 203.865,182.623 212.198,182.29 220.5,181C 221.416,180.722 222.082,180.222 222.5,179.5C 222.833,179.5 223.167,179.5 223.5,179.5C 223.827,184.544 223.494,189.544 222.5,194.5C 213.431,197.547 204.098,199.38 194.5,200C 192.33,200.811 190.663,202.145 189.5,204C 190.071,205.599 191.071,206.766 192.5,207.5C 189.611,207.999 188.944,209.499 190.5,212C 191.448,212.483 192.448,212.649 193.5,212.5C 203.415,215.123 213.415,215.123 223.5,212.5C 223.821,218.026 223.488,223.36 222.5,228.5C 213.27,229.548 204.27,231.214 195.5,233.5C 190.786,233.353 186.119,233.686 181.5,234.5C 180.5,234.5 179.5,234.5 178.5,234.5C 178.5,221.833 178.5,209.167 178.5,196.5C 179.737,180.324 180.737,163.991 181.5,147.5C 194.883,147.672 208.216,147.005 221.5,145.5 Z"/></g>
<g><path style="opacity:0.996" fill="#a35e39" d="M 221.5,140.5 C 222.492,147.982 222.825,155.648 222.5,163.5C 221.5,163.5 220.5,163.5 219.5,163.5C 221.386,157.792 222.053,151.792 221.5,145.5C 221.5,143.833 221.5,142.167 221.5,140.5 Z"/></g>
<g><path style="opacity:0.996" fill="#84432f" d="M 163.5,141.5 C 165.177,145.545 165.844,149.878 165.5,154.5C 164.215,151.411 163.549,148.078 163.5,144.5C 163.5,143.5 163.5,142.5 163.5,141.5 Z"/></g>
<g><path style="opacity:0.31" fill="#ece4d2" d="M 411.5,147.5 C 414.081,155.938 416.081,164.605 417.5,173.5C 415.907,169.389 414.407,165.056 413,160.5C 412.077,156.21 411.577,151.877 411.5,147.5 Z"/></g>
<g><path style="opacity:0.996" fill="#bb5832" d="M 219.5,163.5 C 215.841,165.342 211.841,166.342 207.5,166.5C 211.126,164.502 215.126,163.502 219.5,163.5 Z"/></g>
<g><path style="opacity:0.996" fill="#453c39" d="M 271.5,163.5 C 272.598,164.601 272.765,165.934 272,167.5C 270.581,168.46 269.081,169.293 267.5,170C 257.439,171.732 247.439,173.565 237.5,175.5C 237.5,173.5 237.5,171.5 237.5,169.5C 244.068,167.943 250.734,166.943 257.5,166.5C 262.406,166.233 267.073,165.233 271.5,163.5 Z"/></g>
<g><path style="opacity:0.996" fill="#662f2b" d="M 271.5,162.5 C 271.5,162.833 271.5,163.167 271.5,163.5C 267.073,165.233 262.406,166.233 257.5,166.5C 262.093,165.076 266.76,163.742 271.5,162.5 Z"/></g>
<g><path style="opacity:0.996" fill="#a63b26" d="M 181.5,141.5 C 181.5,143.5 181.5,145.5 181.5,147.5C 180.737,163.991 179.737,180.324 178.5,196.5C 178.246,179.143 178.746,161.81 180,144.5C 180.232,143.263 180.732,142.263 181.5,141.5 Z"/></g>
<g><path style="opacity:0.996" fill="#413d3a" d="M 191.5,174.5 C 192.167,174.5 192.833,174.5 193.5,174.5C 196.537,176.098 199.87,177.098 203.5,177.5C 209.799,176.219 216.132,175.219 222.5,174.5C 222.5,176.167 222.5,177.833 222.5,179.5C 212.866,181.332 203.199,181.665 193.5,180.5C 191.482,179.825 189.816,178.659 188.5,177C 188.748,175.251 189.748,174.418 191.5,174.5 Z"/></g>
<g><path style="opacity:0.996" fill="#7a2b25" d="M 223.5,179.5 C 223.167,179.5 222.833,179.5 222.5,179.5C 222.5,177.833 222.5,176.167 222.5,174.5C 216.132,175.219 209.799,176.219 203.5,177.5C 199.87,177.098 196.537,176.098 193.5,174.5C 203.526,175.61 213.526,175.277 223.5,173.5C 223.5,175.5 223.5,177.5 223.5,179.5 Z"/></g>
<g><path style="opacity:0.996" fill="#7c6947" d="M 222.5,179.5 C 222.082,180.222 221.416,180.722 220.5,181C 212.198,182.29 203.865,182.623 195.5,182C 194.584,181.722 193.918,181.222 193.5,180.5C 203.199,181.665 212.866,181.332 222.5,179.5 Z"/></g>
<g><path style="opacity:0.793" fill="#d5c097" d="M 31.5,174.5 C 31.152,176.713 30.3187,178.713 29,180.5C 28.1828,189.321 27.3495,197.988 26.5,206.5C 26.8229,200.31 26.4896,194.31 25.5,188.5C 26.4279,185.546 27.2612,182.546 28,179.5C 28.6972,177.416 29.8639,175.749 31.5,174.5 Z"/></g>
<g><path style="opacity:0.01" fill="#ebdec9" d="M 417.5,174.5 C 417.702,186.843 418.202,199.176 419,211.5C 420.323,215.127 421.489,218.793 422.5,222.5C 421.25,222.423 420.417,221.756 420,220.5C 418.687,216.58 417.687,212.58 417,208.5C 416.174,196.992 416.341,185.659 417.5,174.5 Z"/></g>
<g><path style="opacity:0.996" fill="#453c39" d="M 269.5,193.5 C 270.649,193.791 271.316,194.624 271.5,196C 271.167,196.833 270.833,197.667 270.5,198.5C 267.017,200.289 263.35,201.623 259.5,202.5C 253.089,203.235 246.756,204.402 240.5,206C 239.944,206.383 239.611,206.883 239.5,207.5C 238.833,207.5 238.167,207.5 237.5,207.5C 237.5,205.833 237.5,204.167 237.5,202.5C 240.94,201.489 244.274,200.489 247.5,199.5C 254.782,197.593 262.116,195.593 269.5,193.5 Z"/></g>
<g><path style="opacity:0.996" fill="#782b25" d="M 247.5,199.5 C 244.274,200.489 240.94,201.489 237.5,202.5C 240.251,200.025 243.584,199.025 247.5,199.5 Z"/></g>
<g><path style="opacity:0.996" fill="#7c6947" d="M 259.5,202.5 C 253.085,204.678 246.419,206.345 239.5,207.5C 239.611,206.883 239.944,206.383 240.5,206C 246.756,204.402 253.089,203.235 259.5,202.5 Z"/></g>
<g><path style="opacity:0.996" fill="#453e3a" d="M 223.5,211.5 C 219.205,212.894 214.705,213.561 210,213.5C 204.503,213.056 199.003,212.722 193.5,212.5C 192.448,212.649 191.448,212.483 190.5,212C 188.944,209.499 189.611,207.999 192.5,207.5C 197.03,207.403 201.53,207.736 206,208.5C 211.829,207.723 217.662,207.056 223.5,206.5C 223.5,208.167 223.5,209.833 223.5,211.5 Z"/></g>
<g><path style="opacity:0.357" fill="#ece3d0" d="M 25.5,188.5 C 26.4896,194.31 26.8229,200.31 26.5,206.5C 25.7101,207.794 24.7101,208.961 23.5,210C 27.2191,213.131 26.8857,215.964 22.5,218.5C 22.8769,216.742 23.5435,215.075 24.5,213.5C 21.9054,210.741 22.072,208.074 25,205.5C 25.4994,199.843 25.6661,194.176 25.5,188.5 Z"/></g>
<g><path style="opacity:0.996" fill="#8a7349" d="M 223.5,211.5 C 223.5,211.833 223.5,212.167 223.5,212.5C 213.415,215.123 203.415,215.123 193.5,212.5C 199.003,212.722 204.503,213.056 210,213.5C 214.705,213.561 219.205,212.894 223.5,211.5 Z"/></g>
<g><path style="opacity:0.996" fill="#b96137" d="M 302.5,216.5 C 296.354,216.661 290.354,217.661 284.5,219.5C 284.611,218.883 284.944,218.383 285.5,218C 288.232,217.587 290.899,216.92 293.5,216C 296.696,215.195 299.696,215.362 302.5,216.5 Z"/></g>
<g><path style="opacity:0.996" fill="#a86b40" d="M 237.5,202.5 C 237.5,204.167 237.5,205.833 237.5,207.5C 237.5,213.5 237.5,219.5 237.5,225.5C 239.833,225.5 242.167,225.5 244.5,225.5C 242.052,226.473 239.385,226.806 236.5,226.5C 236.174,218.316 236.508,210.316 237.5,202.5 Z"/></g>
<g><path style="opacity:0.996" fill="#ac663c" d="M 178.5,196.5 C 178.5,209.167 178.5,221.833 178.5,234.5C 179.5,234.5 180.5,234.5 181.5,234.5C 180.432,235.434 179.099,235.768 177.5,235.5C 177.171,222.323 177.505,209.323 178.5,196.5 Z"/></g>
<g><path style="opacity:0.133" fill="#e6d7b8" d="M 422.5,222.5 C 424.892,225.598 427.058,228.931 429,232.5C 429.667,236.167 429.667,239.833 429,243.5C 428.722,244.416 428.222,245.082 427.5,245.5C 429.802,238.208 428.302,231.874 423,226.5C 422.51,225.207 422.343,223.873 422.5,222.5 Z"/></g>
<g><path style="opacity:0.58" fill="#d2c9b9" d="M 22.5,218.5 C 21.6103,220.782 21.4436,223.115 22,225.5C 23.8458,229.855 25.6791,234.188 27.5,238.5C 26.0598,239.946 25.3932,241.779 25.5,244C 26.4016,248.202 27.4016,252.368 28.5,256.5C 24.0609,250.817 23.0609,244.65 25.5,238C 24.1365,234.773 22.6365,231.606 21,228.5C 20.3333,225.5 20.3333,222.5 21,219.5C 21.3826,218.944 21.8826,218.611 22.5,218.5 Z"/></g>
<g><path style="opacity:0.996" fill="#8f271f" d="M 292.5,231.5 C 284.512,230.319 276.512,230.319 268.5,231.5C 268.918,230.778 269.584,230.278 270.5,230C 276.833,229.333 283.167,229.333 289.5,230C 290.737,230.232 291.737,230.732 292.5,231.5 Z"/></g>
<g><path style="opacity:0.996" fill="#ba5a34" d="M 222.5,228.5 C 222.389,229.117 222.056,229.617 221.5,230C 212.869,231.494 204.202,232.661 195.5,233.5C 204.27,231.214 213.27,229.548 222.5,228.5 Z"/></g>
<g><path style="opacity:0.996" fill="#453d39" d="M 292.5,231.5 C 300.883,233.897 304.549,239.564 303.5,248.5C 302.125,242.622 298.459,238.789 292.5,237C 284.833,236.333 277.167,236.333 269.5,237C 260.533,238.293 251.533,239.293 242.5,240C 227.954,243.313 213.288,245.98 198.5,248C 192.21,249.772 185.876,251.439 179.5,253C 176.333,255.222 173.5,257.722 171,260.5C 169.056,259.561 167.389,258.227 166,256.5C 164.92,254.004 163.586,251.67 162,249.5C 161.503,246.854 161.336,244.187 161.5,241.5C 162.699,244.563 164.199,247.563 166,250.5C 167.389,252.227 169.056,253.561 171,254.5C 173.849,252.07 176.682,249.736 179.5,247.5C 188.28,246.659 196.613,244.659 204.5,241.5C 214.807,239.919 225.141,238.252 235.5,236.5C 244.389,235.795 253.055,234.461 261.5,232.5C 263.607,231.532 265.941,231.198 268.5,231.5C 276.512,230.319 284.512,230.319 292.5,231.5 Z"/></g>
<g><path style="opacity:0.996" fill="#57322f" d="M 261.5,232.5 C 253.055,234.461 244.389,235.795 235.5,236.5C 243.873,234.106 252.54,232.773 261.5,232.5 Z"/></g>
<g><path style="opacity:0.996" fill="#5f4337" d="M 328.5,236.5 C 328.662,238.527 328.495,240.527 328,242.5C 326.049,246.239 324.216,249.905 322.5,253.5C 321.989,246.873 323.989,241.207 328.5,236.5 Z"/></g>
<g><path style="opacity:0.996" fill="#1a1816" d="M 27.5,238.5 C 29.961,241.091 31.6276,244.091 32.5,247.5C 32.8168,251.702 32.4834,255.702 31.5,259.5C 30.8333,258.167 29.8333,257.167 28.5,256.5C 27.4016,252.368 26.4016,248.202 25.5,244C 25.3932,241.779 26.0598,239.946 27.5,238.5 Z"/></g>
<g><path style="opacity:0.996" fill="#60312d" d="M 204.5,241.5 C 196.613,244.659 188.28,246.659 179.5,247.5C 187.685,245.135 196.018,243.135 204.5,241.5 Z"/></g>
<g><path style="opacity:0.996" fill="#604e2d" d="M 32.5,247.5 C 33.8333,252.167 33.8333,256.833 32.5,261.5C 32.1667,260.833 31.8333,260.167 31.5,259.5C 32.4834,255.702 32.8168,251.702 32.5,247.5 Z"/></g>
<g><path style="opacity:0.996" fill="#bf2b1b" d="M 271.5,283.5 C 270.656,285.843 269.656,288.176 268.5,290.5C 266.262,291.537 263.929,291.703 261.5,291C 253.704,282.39 247.371,272.89 242.5,262.5C 242.579,261.07 242.246,259.736 241.5,258.5C 242,257.119 243,256.453 244.5,256.5C 254.651,259.363 263.151,264.697 270,272.5C 271.237,276.06 271.737,279.727 271.5,283.5 Z"/></g>
<g><path style="opacity:0.996" fill="#bf2e1c" d="M 147.5,296.5 C 145.46,304.404 141.46,311.238 135.5,317C 133.741,317.798 132.074,317.631 130.5,316.5C 129.143,314.435 127.81,312.435 126.5,310.5C 125.359,307.36 125.192,304.027 126,300.5C 128.129,294.244 130.796,288.244 134,282.5C 135.193,275.782 137.026,269.282 139.5,263C 141.112,262.28 142.612,262.446 144,263.5C 145.528,266.417 146.861,269.417 148,272.5C 148.8,280.579 148.633,288.579 147.5,296.5 Z"/></g>
<g><path style="opacity:0.996" fill="#bd2c1c" d="M 223.5,288.5 C 222.038,289.458 220.705,290.624 219.5,292C 217.421,292.808 215.421,292.641 213.5,291.5C 208.871,284.273 205.205,276.607 202.5,268.5C 201.659,266.621 201.325,264.621 201.5,262.5C 209.039,263.185 215.539,266.185 221,271.5C 224.691,276.682 225.524,282.349 223.5,288.5 Z"/></g>
<g><path style="opacity:0.196" fill="#d6c9b3" d="M 427.5,245.5 C 426.859,246.482 426.193,247.482 425.5,248.5C 428.995,250.755 429.162,253.088 426,255.5C 425.181,263.153 424.514,270.82 424,278.5C 423.243,280.315 422.41,281.981 421.5,283.5C 422.889,273.167 424.222,262.834 425.5,252.5C 422.419,249.01 423.085,246.677 427.5,245.5 Z"/></g>
<g><path style="opacity:0.996" fill="#9d6c41" d="M 322.5,253.5 C 322.666,260.175 322.5,266.842 322,273.5C 321.802,275.382 321.302,277.048 320.5,278.5C 320.655,269.978 321.322,261.644 322.5,253.5 Z"/></g>
<g><path style="opacity:0.996" fill="#bf2d1c" d="M 185.5,295.5 C 183.122,300.847 179.455,301.847 174.5,298.5C 171.674,290.851 169.008,283.184 166.5,275.5C 165.572,268.575 168.239,266.741 174.5,270C 180.239,274.662 184.073,280.495 186,287.5C 186.722,290.261 186.555,292.927 185.5,295.5 Z"/></g>
<g><path style="opacity:0.149" fill="#e4ddce" d="M 28.5,256.5 C 29.8333,257.167 30.8333,258.167 31.5,259.5C 31.8333,260.167 32.1667,260.833 32.5,261.5C 33.2648,268.786 33.7648,276.119 34,283.5C 35.8245,292.756 37.3245,302.089 38.5,311.5C 39.1143,315.135 39.4476,318.802 39.5,322.5C 34.6742,302.609 31.8409,282.276 31,261.5C 29.6283,260.09 28.795,258.423 28.5,256.5 Z"/></g>
<g><path style="opacity:0.996" fill="#493e39" d="M 242.5,262.5 C 247.371,272.89 253.704,282.39 261.5,291C 263.929,291.703 266.262,291.537 268.5,290.5C 269.434,291.568 269.768,292.901 269.5,294.5C 264.976,298.642 260.809,297.976 257,292.5C 252.84,285.671 248.673,278.838 244.5,272C 243.128,268.974 242.462,265.807 242.5,262.5 Z"/></g>
<g><path style="opacity:0.996" fill="#7e5d3f" d="M 271.5,283.5 C 271.884,287.489 271.217,291.155 269.5,294.5C 269.768,292.901 269.434,291.568 268.5,290.5C 269.656,288.176 270.656,285.843 271.5,283.5 Z"/></g>
<g><path style="opacity:0.997" fill="#080705" d="M 420.5,296.5 C 417.255,304.287 413.255,311.787 408.5,319C 406.531,323.44 404.864,327.94 403.5,332.5C 402.624,332.369 401.957,332.702 401.5,333.5C 396.931,341.305 392.931,349.305 389.5,357.5C 388.539,359.265 388.205,361.265 388.5,363.5C 386.473,363.338 384.473,363.505 382.5,364C 381.944,364.383 381.611,364.883 381.5,365.5C 375.032,371.136 369.032,377.303 363.5,384C 353.686,391.742 343.352,398.742 332.5,405C 323.571,411.297 315.238,418.297 307.5,426C 304.593,426.854 302.26,426.021 300.5,423.5C 297.643,426.518 294.143,428.518 290,429.5C 275.78,426.589 261.613,425.922 247.5,427.5C 243.298,427.183 239.298,427.517 235.5,428.5C 228.504,428.106 221.504,427.773 214.5,427.5C 207.807,424.23 201.807,425.396 196.5,431C 191.404,432.36 186.404,433.526 181.5,434.5C 173.856,434.754 166.522,433.421 159.5,430.5C 159.167,430.5 158.833,430.5 158.5,430.5C 154.839,427.171 150.506,425.171 145.5,424.5C 145.631,423.624 145.298,422.957 144.5,422.5C 132.756,417.203 121.756,410.703 111.5,403C 106.866,398.877 102.866,394.377 99.5,389.5C 99.9405,384.246 97.6072,381.246 92.5,380.5C 89.7131,379.523 86.7131,379.19 83.5,379.5C 83.5,377.833 83.5,376.167 83.5,374.5C 81.5,374.5 79.5,374.5 77.5,374.5C 75.6394,371.978 73.6394,369.478 71.5,367C 63.7255,362.547 56.8921,357.047 51,350.5C 50.2438,348.191 50.7438,346.191 52.5,344.5C 49.6398,343.82 47.1398,342.487 45,340.5C 43.1801,334.232 41.6801,327.899 40.5,321.5C 40.9698,320.537 41.6365,320.537 42.5,321.5C 43.1667,322.833 44.1667,323.833 45.5,324.5C 45.9175,325.222 46.5842,325.722 47.5,326C 46.1991,327.616 46.1991,329.116 47.5,330.5C 53.1415,337.976 60.1415,343.809 68.5,348C 70.8745,350.039 72.8745,352.372 74.5,355C 76.1341,355.494 77.8008,355.66 79.5,355.5C 79.2865,357.144 79.6198,358.644 80.5,360C 86.1884,360.282 91.5218,361.782 96.5,364.5C 97.2525,368.192 98.0858,371.858 99,375.5C 110.712,386.608 123.879,395.608 138.5,402.5C 140.033,404.245 142.033,405.245 144.5,405.5C 150.089,408.15 155.755,410.817 161.5,413.5C 165.929,416.526 170.929,417.859 176.5,417.5C 180.548,417.414 184.214,416.414 187.5,414.5C 190.216,414.322 192.883,413.822 195.5,413C 199.199,410.458 203.199,408.624 207.5,407.5C 210.842,409.335 214.509,410.502 218.5,411C 226.012,411.822 233.345,411.655 240.5,410.5C 253.507,409.351 266.507,409.351 279.5,410.5C 282.617,411.579 285.95,412.246 289.5,412.5C 291.333,412.415 292.666,411.748 293.5,410.5C 294.833,410.167 296.167,409.833 297.5,409.5C 299.411,408.925 301.078,407.925 302.5,406.5C 304.496,408.333 306.829,408.833 309.5,408C 314.532,402.633 319.865,397.633 325.5,393C 347.654,380.427 367.321,364.76 384.5,346C 385.094,345.536 385.761,345.369 386.5,345.5C 388.5,345.5 390.5,345.5 392.5,345.5C 392.368,342.43 392.701,339.43 393.5,336.5C 401.679,320.259 410.012,303.925 418.5,287.5C 418.833,287.167 419.167,286.833 419.5,286.5C 420.487,289.768 420.82,293.102 420.5,296.5 Z"/></g>
<g><path style="opacity:0.996" fill="#6c4a38" d="M 166.5,275.5 C 169.008,283.184 171.674,290.851 174.5,298.5C 173.833,298.167 173.167,297.833 172.5,297.5C 168.648,290.768 166.648,283.435 166.5,275.5 Z"/></g>
<g><path style="opacity:0.996" fill="#4b3f39" d="M 202.5,268.5 C 205.205,276.607 208.871,284.273 213.5,291.5C 215.421,292.641 217.421,292.808 219.5,292C 220.705,290.624 222.038,289.458 223.5,288.5C 222.869,291.786 221.536,294.786 219.5,297.5C 217.926,298.631 216.259,298.798 214.5,298C 212.503,295.007 210.503,292.007 208.5,289C 207.005,283.516 204.839,278.349 202,273.5C 201.22,271.613 201.387,269.946 202.5,268.5 Z"/></g>
<g><path style="opacity:0.996" fill="#493c38" d="M 185.5,295.5 C 186.369,301.111 184.203,304.778 179,306.5C 177.289,306.561 175.956,305.894 175,304.5C 173.882,302.235 173.049,299.901 172.5,297.5C 173.167,297.833 173.833,298.167 174.5,298.5C 179.455,301.847 183.122,300.847 185.5,295.5 Z"/></g>
<g><path style="opacity:0.996" fill="#896542" d="M 320.5,281.5 C 321.248,289.354 319.914,296.688 316.5,303.5C 316.5,302.167 316.5,300.833 316.5,299.5C 317.722,293.382 319.055,287.382 320.5,281.5 Z"/></g>
<g><path style="opacity:0.008" fill="#9d9d9d" d="M 420.5,296.5 C 416.361,309.267 410.694,321.267 403.5,332.5C 404.864,327.94 406.531,323.44 408.5,319C 413.255,311.787 417.255,304.287 420.5,296.5 Z"/></g>
<g><path style="opacity:0.996" fill="#483e3a" d="M 147.5,296.5 C 146.752,306.793 142.752,315.626 135.5,323C 132.692,323.92 130.525,323.087 129,320.5C 127.241,317.392 126.408,314.059 126.5,310.5C 127.81,312.435 129.143,314.435 130.5,316.5C 132.074,317.631 133.741,317.798 135.5,317C 141.46,311.238 145.46,304.404 147.5,296.5 Z"/></g>
<g><path style="opacity:0.996" fill="#504024" d="M 45.5,324.5 C 46.5,324.5 47.5,324.5 48.5,324.5C 48.1667,326.5 47.8333,328.5 47.5,330.5C 46.1991,329.116 46.1991,327.616 47.5,326C 46.5842,325.722 45.9175,325.222 45.5,324.5 Z"/></g>
<g><path style="opacity:0.996" fill="#4e3d38" d="M 316.5,299.5 C 316.5,300.833 316.5,302.167 316.5,303.5C 312.915,320.41 304.915,334.91 292.5,347C 288.162,349.169 283.828,351.336 279.5,353.5C 277.912,352.99 276.745,351.99 276,350.5C 275.317,345.766 274.317,341.1 273,336.5C 267.809,327.637 261.476,319.637 254,312.5C 253.517,311.552 253.351,310.552 253.5,309.5C 254.5,309.5 255.5,309.5 256.5,309.5C 268.197,319.56 275.197,332.226 277.5,347.5C 287.442,345.098 295.609,339.765 302,331.5C 308.104,321.33 312.938,310.663 316.5,299.5 Z"/></g>
<g><path style="opacity:0.357" fill="#a5a4a3" d="M 38.5,311.5 C 39.8283,314.789 41.1616,318.122 42.5,321.5C 41.6365,320.537 40.9698,320.537 40.5,321.5C 41.6801,327.899 43.1801,334.232 45,340.5C 47.1398,342.487 49.6398,343.82 52.5,344.5C 50.7438,346.191 50.2438,348.191 51,350.5C 56.8921,357.047 63.7255,362.547 71.5,367C 73.6394,369.478 75.6394,371.978 77.5,374.5C 78.9187,375.451 80.5853,375.784 82.5,375.5C 82.5,376.833 82.5,378.167 82.5,379.5C 81.6851,378.571 80.8518,377.571 80,376.5C 79.2825,377.451 78.4491,377.617 77.5,377C 72.7925,370.297 66.7925,364.964 59.5,361C 56,357.5 52.5,354 49,350.5C 48.2797,348.888 48.4464,347.388 49.5,346C 47.3911,344.859 45.5578,343.359 44,341.5C 41.3943,335.411 39.8943,329.078 39.5,322.5C 39.4476,318.802 39.1143,315.135 38.5,311.5 Z"/></g>
<g><path style="opacity:0.996" fill="#66522e" d="M 393.5,336.5 C 392.701,339.43 392.368,342.43 392.5,345.5C 390.5,345.5 388.5,345.5 386.5,345.5C 387.919,344.549 389.585,344.216 391.5,344.5C 391.337,342.143 391.503,339.81 392,337.5C 392.383,336.944 392.883,336.611 393.5,336.5 Z"/></g>
<g><path style="opacity:0.706" fill="#474747" d="M 389.5,357.5 C 389.5,359.833 389.5,362.167 389.5,364.5C 386.763,364.401 384.096,364.735 381.5,365.5C 381.611,364.883 381.944,364.383 382.5,364C 384.473,363.505 386.473,363.338 388.5,363.5C 388.205,361.265 388.539,359.265 389.5,357.5 Z"/></g>
<g><path style="opacity:0.761" fill="#686868" d="M 77.5,374.5 C 79.5,374.5 81.5,374.5 83.5,374.5C 83.5,376.167 83.5,377.833 83.5,379.5C 86.7131,379.19 89.7131,379.523 92.5,380.5C 89.1667,380.5 85.8333,380.5 82.5,380.5C 82.5,380.167 82.5,379.833 82.5,379.5C 82.5,378.167 82.5,376.833 82.5,375.5C 80.5853,375.784 78.9187,375.451 77.5,374.5 Z"/></g>
<g><path style="opacity:0.204" fill="#cecece" d="M 82.5,380.5 C 85.8333,380.5 89.1667,380.5 92.5,380.5C 97.6072,381.246 99.9405,384.246 99.5,389.5C 99.5,389.833 99.5,390.167 99.5,390.5C 99.0245,387.598 97.6911,385.098 95.5,383C 91.0351,382.126 86.7017,381.293 82.5,380.5 Z"/></g>
<g><path style="opacity:0.996" fill="#66522e" d="M 138.5,402.5 C 140.967,402.755 142.967,403.755 144.5,405.5C 142.033,405.245 140.033,404.245 138.5,402.5 Z"/></g>
<g><path style="opacity:0.996" fill="#504023" d="M 302.5,406.5 C 301.078,407.925 299.411,408.925 297.5,409.5C 298.648,406.913 300.315,405.913 302.5,406.5 Z"/></g>
<g><path style="opacity:0.996" fill="#3c311b" d="M 279.5,410.5 C 266.507,409.351 253.507,409.351 240.5,410.5C 240.5,410.167 240.5,409.833 240.5,409.5C 252.486,408.524 264.486,408.358 276.5,409C 277.737,409.232 278.737,409.732 279.5,410.5 Z"/></g>
<g><path style="opacity:0.996" fill="#735d34" d="M 207.5,407.5 C 218.389,409.317 229.389,409.984 240.5,409.5C 240.5,409.833 240.5,410.167 240.5,410.5C 233.345,411.655 226.012,411.822 218.5,411C 214.509,410.502 210.842,409.335 207.5,407.5 Z"/></g>
<g><path style="opacity:0.149" fill="#a6a5a5" d="M 403.5,332.5 C 399.601,341.298 395.435,349.964 391,358.5C 390.667,360.833 390.333,363.167 390,365.5C 387.521,365.101 385.021,365.601 382.5,367C 366.332,384.266 347.998,398.933 327.5,411C 320.601,415.963 314.268,421.63 308.5,428C 305.725,428.778 303.225,428.278 301,426.5C 297.729,429.384 293.896,431.05 289.5,431.5C 283.455,430.762 277.455,429.762 271.5,428.5C 263.684,427.508 255.684,427.174 247.5,427.5C 261.613,425.922 275.78,426.589 290,429.5C 294.143,428.518 297.643,426.518 300.5,423.5C 302.26,426.021 304.593,426.854 307.5,426C 315.238,418.297 323.571,411.297 332.5,405C 343.352,398.742 353.686,391.742 363.5,384C 369.032,377.303 375.032,371.136 381.5,365.5C 384.096,364.735 386.763,364.401 389.5,364.5C 389.5,362.167 389.5,359.833 389.5,357.5C 392.931,349.305 396.931,341.305 401.5,333.5C 401.957,332.702 402.624,332.369 403.5,332.5 Z"/></g>
<g><path style="opacity:0.008" fill="#949494" d="M 99.5,389.5 C 102.866,394.377 106.866,398.877 111.5,403C 121.756,410.703 132.756,417.203 144.5,422.5C 145.298,422.957 145.631,423.624 145.5,424.5C 129.895,417.722 115.729,408.722 103,397.5C 101.121,395.473 99.954,393.14 99.5,390.5C 99.5,390.167 99.5,389.833 99.5,389.5 Z"/></g>
<g><path style="opacity:0.996" fill="#4d3e22" d="M 279.5,410.5 C 284.167,410.5 288.833,410.5 293.5,410.5C 292.666,411.748 291.333,412.415 289.5,412.5C 285.95,412.246 282.617,411.579 279.5,410.5 Z"/></g>
<g><path style="opacity:0.996" fill="#82693b" d="M 161.5,413.5 C 170.047,415.78 178.714,416.113 187.5,414.5C 184.214,416.414 180.548,417.414 176.5,417.5C 170.929,417.859 165.929,416.526 161.5,413.5 Z"/></g>
<g><path style="opacity:0.576" fill="#a7a7a7" d="M 145.5,424.5 C 150.506,425.171 154.839,427.171 158.5,430.5C 153.718,429.273 149.385,427.273 145.5,424.5 Z"/></g>
<g><path style="opacity:0.086" fill="#a5a4a4" d="M 214.5,427.5 C 214.5,427.833 214.5,428.167 214.5,428.5C 211.951,428.613 209.618,427.946 207.5,426.5C 203.628,428.935 199.628,431.102 195.5,433C 193.26,433.977 190.927,434.477 188.5,434.5C 186.167,434.5 183.833,434.5 181.5,434.5C 186.404,433.526 191.404,432.36 196.5,431C 201.807,425.396 207.807,424.23 214.5,427.5 Z"/></g>
<g><path style="opacity:0.037" fill="#d6d6d6" d="M 247.5,427.5 C 255.684,427.174 263.684,427.508 271.5,428.5C 262.472,428.32 253.472,428.653 244.5,429.5C 245.5,428.833 246.5,428.167 247.5,427.5 Z"/></g>
<g><path style="opacity:0.588" fill="#515050" d="M 214.5,428.5 C 214.5,428.167 214.5,427.833 214.5,427.5C 221.504,427.773 228.504,428.106 235.5,428.5C 235.5,428.833 235.5,429.167 235.5,429.5C 228.471,429.623 221.471,429.29 214.5,428.5 Z"/></g>
<g><path style="opacity:0.255" fill="#858585" d="M 247.5,427.5 C 246.5,428.167 245.5,428.833 244.5,429.5C 242.784,429.629 241.117,429.962 239.5,430.5C 238.432,429.566 237.099,429.232 235.5,429.5C 235.5,429.167 235.5,428.833 235.5,428.5C 239.298,427.517 243.298,427.183 247.5,427.5 Z"/></g>
<g><path style="opacity:0.055" fill="#cecece" d="M 214.5,428.5 C 221.471,429.29 228.471,429.623 235.5,429.5C 237.099,429.232 238.432,429.566 239.5,430.5C 232.492,430.666 225.492,430.5 218.5,430C 216.942,429.79 215.609,429.29 214.5,428.5 Z"/></g>
<g><path style="opacity:0.051" fill="#9a9999" d="M 159.5,430.5 C 166.522,433.421 173.856,434.754 181.5,434.5C 178.713,435.477 175.713,435.81 172.5,435.5C 167.419,435.492 163.085,433.825 159.5,430.5 Z"/></g>
<g><path style="opacity:0.023" fill="#eeeeee" d="M 181.5,434.5 C 183.833,434.5 186.167,434.5 188.5,434.5C 183.245,436.524 177.911,436.857 172.5,435.5C 175.713,435.81 178.713,435.477 181.5,434.5 Z"/></g>
</svg>
