<?xml version="1.0" encoding="UTF-8"?>
<!DOCTYPE svg PUBLIC "-//W3C//DTD SVG 1.1//EN" "http://www.w3.org/Graphics/SVG/1.1/DTD/svg11.dtd">
<svg xmlns="http://www.w3.org/2000/svg" version="1.1" width="470px" height="464px" style="shape-rendering:geometricPrecision; text-rendering:geometricPrecision; image-rendering:optimizeQuality; fill-rule:evenodd; clip-rule:evenodd" xmlns:xlink="http://www.w3.org/1999/xlink">
<g><path style="opacity:0.275" fill="#e5d5bc" d="M 311.5,61.5 C 304.519,59.1161 297.519,56.6161 290.5,54C 283.266,52.928 276.266,53.7613 269.5,56.5C 268.584,56.4573 267.917,56.1239 267.5,55.5C 272.126,54.2372 276.792,53.0706 281.5,52C 292.547,52.0322 302.547,55.1989 311.5,61.5 Z"/></g>
<g><path style="opacity:0.996" fill="#b59352" d="M 311.5,61.5 C 315.299,62.4208 318.632,64.0875 321.5,66.5C 324.305,68.923 327.471,70.923 331,72.5C 331.464,71.9056 331.631,71.2389 331.5,70.5C 332.167,70.8333 332.833,71.1667 333.5,71.5C 334.238,75.2178 336.571,77.0511 340.5,77C 344.217,80.3847 348.217,83.3847 352.5,86C 356.809,89.6277 360.809,93.461 364.5,97.5C 363.994,101.007 364.66,104.174 366.5,107C 371.325,108.895 376.325,109.728 381.5,109.5C 381.5,111.167 381.5,112.833 381.5,114.5C 383.527,114.338 385.527,114.505 387.5,115C 388.163,116.518 389.163,117.685 390.5,118.5C 393.873,121.178 397.206,123.844 400.5,126.5C 400.414,127.496 400.748,128.329 401.5,129C 405.984,132.154 410.151,135.654 414,139.5C 414.651,141.235 414.485,142.902 413.5,144.5C 415.243,146.038 417.243,147.038 419.5,147.5C 421.424,158.2 424.09,168.533 427.5,178.5C 427.5,178.833 427.5,179.167 427.5,179.5C 427.333,191.838 427.5,204.171 428,216.5C 428.037,218.974 428.87,220.974 430.5,222.5C 430.659,226.674 432.325,230.008 435.5,232.5C 436.728,236.914 437.728,241.414 438.5,246C 438.518,249.978 437.185,253.311 434.5,256C 436.015,258.569 436.681,261.402 436.5,264.5C 435.352,274.315 433.686,283.982 431.5,293.5C 430.624,293.369 429.957,293.702 429.5,294.5C 421.627,311.525 413.127,328.191 404,344.5C 403.503,347.146 403.336,349.813 403.5,352.5C 400.68,352.248 398.014,352.748 395.5,354C 388.446,361.054 381.446,368.054 374.5,375C 362.108,384.057 349.441,392.724 336.5,401C 330.865,405.633 325.532,410.633 320.5,416C 319.167,416.667 317.833,416.667 316.5,416C 315.601,414.764 314.434,413.93 313,413.5C 310.941,415.07 308.774,416.403 306.5,417.5C 295.812,417.046 285.145,416.38 274.5,415.5C 269.654,415.501 264.988,415.834 260.5,416.5C 246.424,417.008 232.424,416.341 218.5,414.5C 216.645,414.34 215.312,415.007 214.5,416.5C 208.01,419.296 201.343,421.796 194.5,424C 188.109,424.758 181.776,424.424 175.5,423C 155.641,414.739 136.975,404.406 119.5,392C 116.289,388.958 113.289,385.791 110.5,382.5C 108.906,379.009 108.239,375.342 108.5,371.5C 103.085,369.284 97.4182,368.117 91.5,368C 90.6198,366.644 90.2865,365.144 90.5,363.5C 88.712,363.785 87.0453,363.452 85.5,362.5C 84.1966,360.063 82.5299,357.896 80.5,356C 71.46,351.127 63.7934,344.627 57.5,336.5C 57.5288,334.971 58.1955,333.804 59.5,333C 56.3333,331.167 53.8333,328.667 52,325.5C 51.5357,326.094 51.369,326.761 51.5,327.5C 49.4201,318.363 47.7534,309.029 46.5,299.5C 45.8866,289.512 45.5533,279.512 45.5,269.5C 45.6382,264.586 44.9715,259.919 43.5,255.5C 42.2601,252.976 41.0934,250.309 40,247.5C 39.3292,246.748 38.4959,246.414 37.5,246.5C 37.9234,245.735 38.2568,244.902 38.5,244C 31.8566,236.252 31.8566,228.585 38.5,221C 37.9067,219.118 36.5733,218.118 34.5,218C 35.6184,216.926 36.6184,215.76 37.5,214.5C 38.2597,206.157 39.093,197.823 40,189.5C 44.5554,182.342 48.0554,174.675 50.5,166.5C 53.0582,164.566 54.3915,161.899 54.5,158.5C 58.3371,154.699 60.6705,150.032 61.5,144.5C 64.4152,142.349 66.0819,139.349 66.5,135.5C 69.917,133.109 71.2503,129.775 70.5,125.5C 73.5641,125.856 76.2307,125.023 78.5,123C 83.3374,117.33 88.3374,111.83 93.5,106.5C 97.3077,104.284 100.641,101.617 103.5,98.5C 109.139,95.011 114.805,91.511 120.5,88C 122.041,86.6288 123.375,85.1288 124.5,83.5C 135.048,78.144 144.381,70.9773 152.5,62C 153.793,61.51 155.127,61.3433 156.5,61.5C 156.833,61.5 157.167,61.5 157.5,61.5C 157.418,63.2517 158.251,64.2517 160,64.5C 164.467,61.7333 169.3,60.0666 174.5,59.5C 182.787,60.7443 191.121,61.4109 199.5,61.5C 214.494,60.5759 229.494,60.4092 244.5,61C 247.638,61.9885 250.805,62.8218 254,63.5C 258.581,61.7957 262.748,59.4623 266.5,56.5C 266.5,55.8333 266.833,55.5 267.5,55.5C 267.917,56.1239 268.584,56.4573 269.5,56.5C 276.266,53.7613 283.266,52.928 290.5,54C 297.519,56.6161 304.519,59.1161 311.5,61.5 Z"/></g>
<g><path style="opacity:0.996" fill="#d6c09b" d="M 266.5,56.5 C 262.748,59.4623 258.581,61.7957 254,63.5C 250.805,62.8218 247.638,61.9885 244.5,61C 229.494,60.4092 214.494,60.5759 199.5,61.5C 191.121,61.4109 182.787,60.7443 174.5,59.5C 169.3,60.0666 164.467,61.7333 160,64.5C 158.251,64.2517 157.418,63.2517 157.5,61.5C 158.15,61.8039 158.817,62.1373 159.5,62.5C 162.826,59.2784 166.826,57.6117 171.5,57.5C 192.091,60.8765 212.757,61.2098 233.5,58.5C 240.458,58.7237 247.292,59.7237 254,61.5C 258.273,59.9415 262.439,58.2749 266.5,56.5 Z"/></g>
<g><path style="opacity:0.306" fill="#dfcfb0" d="M 321.5,66.5 C 325.078,67.2915 328.412,68.6249 331.5,70.5C 331.631,71.2389 331.464,71.9056 331,72.5C 327.471,70.923 324.305,68.923 321.5,66.5 Z"/></g>
<g><path style="opacity:0.373" fill="#e0ceb2" d="M 156.5,61.5 C 155.127,61.3433 153.793,61.51 152.5,62C 144.381,70.9773 135.048,78.144 124.5,83.5C 134.521,76.6597 143.854,68.8264 152.5,60C 154.14,59.6522 155.473,60.1522 156.5,61.5 Z"/></g>
<g><path style="opacity:0.086" fill="#e3d7bf" d="M 333.5,71.5 C 343.4,77.0453 352.566,83.712 361,91.5C 362.421,93.4048 363.588,95.4048 364.5,97.5C 360.809,93.461 356.809,89.6277 352.5,86C 348.217,83.3847 344.217,80.3847 340.5,77C 336.571,77.0511 334.238,75.2178 333.5,71.5 Z"/></g>
<g><path style="opacity:0.431" fill="#e4d5ba" d="M 124.5,83.5 C 123.375,85.1288 122.041,86.6288 120.5,88C 114.805,91.511 109.139,95.011 103.5,98.5C 109.896,92.7884 116.896,87.7884 124.5,83.5 Z"/></g>
<g><path style="opacity:0.451" fill="#e0d0b1" d="M 103.5,98.5 C 100.641,101.617 97.3077,104.284 93.5,106.5C 96.0241,102.894 99.3574,100.228 103.5,98.5 Z"/></g>
<g><path style="opacity:0.996" fill="#c02d1c" d="M 304.5,119.5 C 301.286,120.44 298.286,121.94 295.5,124C 285.859,132.638 276.192,141.305 266.5,150C 263.941,151.777 261.274,153.277 258.5,154.5C 257.387,153.054 257.22,151.387 258,149.5C 263.585,140.665 268.919,131.665 274,122.5C 275.025,117.331 275.859,112.164 276.5,107C 284.079,106.079 291.412,107.079 298.5,110C 303.789,111.399 305.789,114.565 304.5,119.5 Z"/></g>
<g><path style="opacity:0.278" fill="#e6dbc5" d="M 364.5,97.5 C 365.004,100.453 366.004,103.286 367.5,106C 372.407,107.572 377.407,108.738 382.5,109.5C 384.179,111.761 386.346,113.428 389,114.5C 389.791,115.745 390.291,117.078 390.5,118.5C 389.163,117.685 388.163,116.518 387.5,115C 385.527,114.505 383.527,114.338 381.5,114.5C 381.5,112.833 381.5,111.167 381.5,109.5C 376.325,109.728 371.325,108.895 366.5,107C 364.66,104.174 363.994,101.007 364.5,97.5 Z"/></g>
<g><path style="opacity:0.996" fill="#483c38" d="M 304.5,119.5 C 303.947,124.236 301.281,127.403 296.5,129C 285.5,138.667 274.5,148.333 263.5,158C 258.65,160.598 256.983,159.431 258.5,154.5C 261.274,153.277 263.941,151.777 266.5,150C 276.192,141.305 285.859,132.638 295.5,124C 298.286,121.94 301.286,120.44 304.5,119.5 Z"/></g>
<g><path style="opacity:0.996" fill="#bf2c1b" d="M 230.5,151.5 C 229.15,156.014 226.15,157.848 221.5,157C 213.931,148.937 206.597,140.77 199.5,132.5C 198.781,130.236 198.448,127.903 198.5,125.5C 211.286,124.696 221.452,129.363 229,139.5C 230.156,143.418 230.656,147.418 230.5,151.5 Z"/></g>
<g><path style="opacity:0.114" fill="#e1d1b2" d="M 93.5,106.5 C 88.3374,111.83 83.3374,117.33 78.5,123C 76.2307,125.023 73.5641,125.856 70.5,125.5C 71.2503,129.775 69.917,133.109 66.5,135.5C 67.0592,133.321 67.7259,131.154 68.5,129C 67.6705,127.535 67.5038,126.035 68,124.5C 71.1948,123.851 74.3614,123.018 77.5,122C 81.7998,116.699 86.4664,111.699 91.5,107C 92.0944,106.536 92.7611,106.369 93.5,106.5 Z"/></g>
<g><path style="opacity:0.11" fill="#e1d1b4" d="M 400.5,126.5 C 406.359,129.846 411.526,134.18 416,139.5C 416.595,140.899 416.428,142.232 415.5,143.5C 416.867,144.84 418.2,146.173 419.5,147.5C 417.243,147.038 415.243,146.038 413.5,144.5C 414.485,142.902 414.651,141.235 414,139.5C 410.151,135.654 405.984,132.154 401.5,129C 400.748,128.329 400.414,127.496 400.5,126.5 Z"/></g>
<g><path style="opacity:0.588" fill="#e3d5b9" d="M 66.5,135.5 C 66.0819,139.349 64.4152,142.349 61.5,144.5C 62.4097,141.008 64.0764,138.008 66.5,135.5 Z"/></g>
<g><path style="opacity:0.996" fill="#493f3a" d="M 199.5,132.5 C 206.597,140.77 213.931,148.937 221.5,157C 226.15,157.848 229.15,156.014 230.5,151.5C 230.11,154.839 229.61,158.173 229,161.5C 226.293,163.886 223.46,164.052 220.5,162C 212.582,154.086 205.415,145.586 199,136.5C 198.235,134.934 198.402,133.601 199.5,132.5 Z"/></g>
<g><path style="opacity:0.404" fill="#e2ceb3" d="M 61.5,144.5 C 60.6705,150.032 58.3371,154.699 54.5,158.5C 55.9985,153.358 58.3318,148.691 61.5,144.5 Z"/></g>
<g><path style="opacity:0.996" fill="#bf2c1b" d="M 369.5,169.5 C 342.528,169.525 315.528,169.692 288.5,170C 271.125,171.258 253.791,172.758 236.5,174.5C 221.314,176.027 206.314,178.027 191.5,180.5C 175.469,182.033 159.636,184.7 144,188.5C 142.167,188.333 140.333,188.167 138.5,188C 134.02,185.672 129.687,183.172 125.5,180.5C 123.919,178.858 123.253,176.858 123.5,174.5C 145.793,172.961 168.127,171.461 190.5,170C 214.439,167.115 238.439,164.448 262.5,162C 282.633,159.636 302.633,156.302 322.5,152C 331.833,151.333 341.167,151.333 350.5,152C 358.127,153.898 364.627,157.731 370,163.5C 370.678,165.598 370.511,167.598 369.5,169.5 Z"/></g>
<g><path style="opacity:0.439" fill="#e0ceb2" d="M 54.5,158.5 C 54.3915,161.899 53.0582,164.566 50.5,166.5C 50.8961,163.279 52.2295,160.612 54.5,158.5 Z"/></g>
<g><path style="opacity:0.996" fill="#433c39" d="M 369.5,169.5 C 369.5,170.833 369.5,172.167 369.5,173.5C 356.186,174.449 342.852,174.449 329.5,173.5C 318.638,173.512 307.972,174.179 297.5,175.5C 281.505,176.333 265.505,177.166 249.5,178C 247.942,178.21 246.609,178.71 245.5,179.5C 216.149,182.048 186.815,185.882 157.5,191C 144.092,197.148 132.759,194.481 123.5,183C 123.639,181.699 124.305,180.866 125.5,180.5C 129.687,183.172 134.02,185.672 138.5,188C 140.333,188.167 142.167,188.333 144,188.5C 159.636,184.7 175.469,182.033 191.5,180.5C 206.296,179.275 220.963,177.775 235.5,176C 236.056,175.617 236.389,175.117 236.5,174.5C 253.791,172.758 271.125,171.258 288.5,170C 315.528,169.692 342.528,169.525 369.5,169.5 Z"/></g>
<g><path style="opacity:0.478" fill="#dac8a6" d="M 419.5,147.5 C 420.117,147.611 420.617,147.944 421,148.5C 424.465,158.225 426.632,168.225 427.5,178.5C 424.09,168.533 421.424,158.2 419.5,147.5 Z"/></g>
<g><path style="opacity:0.996" fill="#574f40" d="M 369.5,169.5 C 370.451,170.919 370.784,172.585 370.5,174.5C 361.934,176.199 353.267,176.865 344.5,176.5C 329.009,175.504 313.342,175.17 297.5,175.5C 307.972,174.179 318.638,173.512 329.5,173.5C 342.852,174.449 356.186,174.449 369.5,173.5C 369.5,172.167 369.5,170.833 369.5,169.5 Z"/></g>
<g><path style="opacity:0.996" fill="#65302b" d="M 236.5,174.5 C 236.389,175.117 236.056,175.617 235.5,176C 220.963,177.775 206.296,179.275 191.5,180.5C 206.314,178.027 221.314,176.027 236.5,174.5 Z"/></g>
<g><path style="opacity:0.996" fill="#9a7f4d" d="M 297.5,175.5 C 313.342,175.17 329.009,175.504 344.5,176.5C 311.461,176.313 278.461,177.313 245.5,179.5C 246.609,178.71 247.942,178.21 249.5,178C 265.505,177.166 281.505,176.333 297.5,175.5 Z"/></g>
<g><path style="opacity:0.996" fill="#c02b1b" d="M 318.5,198.5 C 317.651,200.888 316.651,203.221 315.5,205.5C 314.256,232.687 314.589,260.021 316.5,287.5C 316.539,289.952 317.206,291.952 318.5,293.5C 319.312,304.146 319.646,314.813 319.5,325.5C 316.959,335.419 312.626,344.586 306.5,353C 302.845,355.335 299.679,354.835 297,351.5C 292.332,340.818 286.165,331.152 278.5,322.5C 276.919,320.858 276.253,318.858 276.5,316.5C 282.518,318.204 288.518,319.871 294.5,321.5C 296.593,321.514 298.426,320.848 300,319.5C 301.052,313.883 301.718,308.216 302,302.5C 303.202,271.097 302.368,239.764 299.5,208.5C 298.613,200.48 295.613,193.48 290.5,187.5C 289.248,185.661 289.248,183.828 290.5,182C 300.741,181.192 309.574,184.358 317,191.5C 318.202,193.677 318.702,196.011 318.5,198.5 Z"/></g>
<g><path style="opacity:0.996" fill="#564038" d="M 290.5,187.5 C 295.613,193.48 298.613,200.48 299.5,208.5C 296.963,203.102 294.13,197.769 291,192.5C 290.506,190.866 290.34,189.199 290.5,187.5 Z"/></g>
<g><path style="opacity:0.996" fill="#bf2c1c" d="M 237.5,213.5 C 236.883,213.611 236.383,213.944 236,214.5C 234.714,219.096 233.881,223.763 233.5,228.5C 233.316,255.534 233.983,282.534 235.5,309.5C 234.069,314.459 232.569,319.459 231,324.5C 228.361,328.639 225.528,332.639 222.5,336.5C 220.833,337.833 219.167,337.833 217.5,336.5C 213.803,331.302 210.303,325.969 207,320.5C 205.296,318.627 203.463,316.96 201.5,315.5C 200.685,314.163 199.518,313.163 198,312.5C 197.517,311.552 197.351,310.552 197.5,309.5C 201.849,309.585 206.182,309.918 210.5,310.5C 213.011,310.712 215.178,310.045 217,308.5C 217.958,303.877 218.625,299.21 219,294.5C 219.729,269.822 219.562,245.156 218.5,220.5C 219.154,216.161 218.154,212.327 215.5,209C 204.556,210.552 193.556,212.052 182.5,213.5C 182.5,215.167 182.5,216.833 182.5,218.5C 182.5,224.167 182.5,229.833 182.5,235.5C 186.907,234.272 191.24,232.772 195.5,231C 202.259,229.022 207.593,230.856 211.5,236.5C 210.293,238.541 208.626,239.874 206.5,240.5C 198.706,242.921 190.706,243.921 182.5,243.5C 182.5,245.5 182.5,247.5 182.5,249.5C 182.5,254.833 182.5,260.167 182.5,265.5C 186.212,264.972 189.879,264.138 193.5,263C 199.715,261.46 205.215,262.627 210,266.5C 210.64,268.265 210.473,269.932 209.5,271.5C 205.214,272.624 200.881,273.624 196.5,274.5C 190.575,274.192 184.741,274.525 179,275.5C 177.943,285.522 176.776,295.522 175.5,305.5C 174.952,313.037 172.285,319.704 167.5,325.5C 165.955,326.452 164.288,326.785 162.5,326.5C 162.02,323.557 161.02,320.89 159.5,318.5C 158.376,312.248 158.21,305.915 159,299.5C 165.139,286.942 168.473,273.609 169,259.5C 170.353,245.827 170.52,232.16 169.5,218.5C 169.655,215.284 168.655,212.617 166.5,210.5C 165.659,208.621 165.325,206.621 165.5,204.5C 172.491,205.256 179.491,205.423 186.5,205C 196.548,202.907 206.215,199.74 215.5,195.5C 221.761,197.311 227.761,199.811 233.5,203C 238.082,205.322 239.415,208.822 237.5,213.5 Z"/></g>
<g><path style="opacity:0.996" fill="#bf2b1b" d="M 270.5,286.5 C 268.84,288.248 266.84,288.748 264.5,288C 262.686,285.521 261.019,283.021 259.5,280.5C 260.386,267.849 261.053,255.182 261.5,242.5C 261.663,235.453 261.163,228.453 260,221.5C 258.643,218.102 256.81,215.102 254.5,212.5C 253.677,210.545 253.51,208.545 254,206.5C 262.007,204.617 269.007,206.95 275,213.5C 274.473,233.818 273.806,254.151 273,274.5C 272.673,278.629 271.84,282.629 270.5,286.5 Z"/></g>
<g><path style="opacity:0.996" fill="#704e39" d="M 318.5,198.5 C 318.615,202.888 317.615,206.888 315.5,210.5C 315.5,208.833 315.5,207.167 315.5,205.5C 316.651,203.221 317.651,200.888 318.5,198.5 Z"/></g>
<g><path style="opacity:0.812" fill="#dbcaa8" d="M 427.5,179.5 C 429.073,193.645 430.073,207.979 430.5,222.5C 428.87,220.974 428.037,218.974 428,216.5C 427.5,204.171 427.333,191.838 427.5,179.5 Z"/></g>
<g><path style="opacity:0.996" fill="#453c39" d="M 218.5,220.5 C 217.913,215.928 215.246,213.928 210.5,214.5C 201.34,216.856 192.006,218.19 182.5,218.5C 182.5,216.833 182.5,215.167 182.5,213.5C 193.556,212.052 204.556,210.552 215.5,209C 218.154,212.327 219.154,216.161 218.5,220.5 Z"/></g>
<g><path style="opacity:0.996" fill="#523b35" d="M 166.5,210.5 C 168.655,212.617 169.655,215.284 169.5,218.5C 167.018,216.497 166.018,213.831 166.5,210.5 Z"/></g>
<g><path style="opacity:0.996" fill="#6b4133" d="M 237.5,213.5 C 236.999,218.801 235.666,223.801 233.5,228.5C 233.881,223.763 234.714,219.096 236,214.5C 236.383,213.944 236.883,213.611 237.5,213.5 Z"/></g>
<g><path style="opacity:0.996" fill="#694a39" d="M 254.5,212.5 C 256.81,215.102 258.643,218.102 260,221.5C 261.163,228.453 261.663,235.453 261.5,242.5C 260.964,235.859 259.797,229.192 258,222.5C 255.252,220.406 253.752,217.573 253.5,214C 253.57,213.235 253.903,212.735 254.5,212.5 Z"/></g>
<g><path style="opacity:0.353" fill="#eae2cd" d="M 430.5,222.5 C 432.542,225.614 434.209,228.948 435.5,232.5C 432.325,230.008 430.659,226.674 430.5,222.5 Z"/></g>
<g><path style="opacity:0.341" fill="#e3d3b9" d="M 50.5,166.5 C 48.0554,174.675 44.5554,182.342 40,189.5C 39.093,197.823 38.2597,206.157 37.5,214.5C 36.6184,215.76 35.6184,216.926 34.5,218C 36.5733,218.118 37.9067,219.118 38.5,221C 31.8566,228.585 31.8566,236.252 38.5,244C 38.2568,244.902 37.9234,245.735 37.5,246.5C 37.5,246.833 37.5,247.167 37.5,247.5C 36.8333,247.5 36.5,247.167 36.5,246.5C 34.3478,241.878 32.6811,237.045 31.5,232C 32.016,227.775 33.6827,224.109 36.5,221C 32.6987,218.907 32.532,216.407 36,213.5C 36.3333,206.833 36.6667,200.167 37,193.5C 40.8545,184.054 45.3545,175.054 50.5,166.5 Z"/></g>
<g><path style="opacity:0.996" fill="#443c39" d="M 206.5,240.5 C 207.833,240.5 209.167,240.5 210.5,240.5C 210.762,241.978 210.429,243.311 209.5,244.5C 200.779,247.596 191.779,249.263 182.5,249.5C 182.5,247.5 182.5,245.5 182.5,243.5C 190.706,243.921 198.706,242.921 206.5,240.5 Z"/></g>
<g><path style="opacity:0.995" fill="#161514" d="M 37.5,246.5 C 38.4959,246.414 39.3292,246.748 40,247.5C 41.0934,250.309 42.2601,252.976 43.5,255.5C 43.815,259.371 43.4816,263.038 42.5,266.5C 40.8956,263.057 39.0623,259.723 37,256.5C 36.3658,253.445 36.5325,250.445 37.5,247.5C 37.5,247.167 37.5,246.833 37.5,246.5 Z"/></g>
<g><path style="opacity:0.004" fill="#e2d5c0" d="M 435.5,232.5 C 440.222,237.505 442.055,243.505 441,250.5C 439.818,252.344 438.651,254.177 437.5,256C 437.95,257.285 438.617,258.452 439.5,259.5C 437.16,275.166 434.493,290.5 431.5,305.5C 431.5,304.833 431.5,304.167 431.5,303.5C 431.5,300.167 431.5,296.833 431.5,293.5C 433.686,283.982 435.352,274.315 436.5,264.5C 436.681,261.402 436.015,258.569 434.5,256C 437.185,253.311 438.518,249.978 438.5,246C 437.728,241.414 436.728,236.914 435.5,232.5 Z"/></g>
<g><path style="opacity:0.145" fill="#9f9f9f" d="M 36.5,246.5 C 36.5,247.167 36.8333,247.5 37.5,247.5C 36.5325,250.445 36.3658,253.445 37,256.5C 39.0623,259.723 40.8956,263.057 42.5,266.5C 41.8333,266.5 41.1667,266.5 40.5,266.5C 39.2653,263.699 37.7653,261.032 36,258.5C 35.1881,254.311 35.3547,250.311 36.5,246.5 Z"/></g>
<g><path style="opacity:0.996" fill="#6d5a38" d="M 43.5,255.5 C 44.9715,259.919 45.6382,264.586 45.5,269.5C 43.5,269.5 42.5,268.5 42.5,266.5C 43.4816,263.038 43.815,259.371 43.5,255.5 Z"/></g>
<g><path style="opacity:0.996" fill="#433c39" d="M 209.5,271.5 C 210.412,272.738 210.579,274.072 210,275.5C 208.122,276.053 206.622,277.053 205.5,278.5C 197.258,280.12 188.924,280.786 180.5,280.5C 180.5,279.167 180.5,277.833 180.5,276.5C 185.833,275.833 191.167,275.167 196.5,274.5C 200.881,273.624 205.214,272.624 209.5,271.5 Z"/></g>
<g><path style="opacity:0.996" fill="#b54328" d="M 315.5,205.5 C 315.5,207.167 315.5,208.833 315.5,210.5C 315.333,225.17 315.5,239.837 316,254.5C 317.424,267.46 318.257,280.46 318.5,293.5C 317.206,291.952 316.539,289.952 316.5,287.5C 314.589,260.021 314.256,232.687 315.5,205.5 Z"/></g>
<g><path style="opacity:0.996" fill="#973023" d="M 196.5,274.5 C 191.167,275.167 185.833,275.833 180.5,276.5C 178.961,282.937 178.294,289.604 178.5,296.5C 177.85,298.435 177.517,300.435 177.5,302.5C 176.833,303.5 176.167,304.5 175.5,305.5C 176.776,295.522 177.943,285.522 179,275.5C 184.741,274.525 190.575,274.192 196.5,274.5 Z"/></g>
<g><path style="opacity:0.483" fill="#d3bf9c" d="M 40.5,266.5 C 41.1667,266.5 41.8333,266.5 42.5,266.5C 42.5,268.5 43.5,269.5 45.5,269.5C 45.5533,279.512 45.8866,289.512 46.5,299.5C 45.8333,297.5 45.1667,295.5 44.5,293.5C 43.671,286.011 43.171,278.344 43,270.5C 41.9054,269.307 41.072,267.973 40.5,266.5 Z"/></g>
<g><path style="opacity:0.996" fill="#957447" d="M 180.5,276.5 C 180.5,277.833 180.5,279.167 180.5,280.5C 188.924,280.786 197.258,280.12 205.5,278.5C 205.389,279.117 205.056,279.617 204.5,280C 196.887,281.262 189.22,281.762 181.5,281.5C 182.133,286.968 181.133,291.968 178.5,296.5C 178.294,289.604 178.961,282.937 180.5,276.5 Z"/></g>
<g><path style="opacity:0.996" fill="#4b3f3a" d="M 259.5,280.5 C 261.019,283.021 262.686,285.521 264.5,288C 266.84,288.748 268.84,288.248 270.5,286.5C 271.446,289.203 270.78,291.703 268.5,294C 267.167,294.667 265.833,294.667 264.5,294C 261.55,289.94 259.883,285.44 259.5,280.5 Z"/></g>
<g><path style="opacity:0.997" fill="#080705" d="M 431.5,293.5 C 431.5,296.833 431.5,300.167 431.5,303.5C 421.415,323.67 411.248,344.003 401,364.5C 400.503,366.81 400.337,369.143 400.5,371.5C 397.68,371.248 395.014,371.748 392.5,373C 384.268,382.733 375.268,391.566 365.5,399.5C 348.669,408.434 333.336,419.601 319.5,433C 316.563,433.361 313.73,432.861 311,431.5C 309.477,433.354 307.644,434.854 305.5,436C 301.179,436.499 296.846,436.666 292.5,436.5C 292.389,435.883 292.056,435.383 291.5,435C 280.696,433.379 270.029,433.212 259.5,434.5C 259.167,434.5 258.833,434.5 258.5,434.5C 247.5,435.833 236.5,435.833 225.5,434.5C 222.57,433.422 219.57,432.922 216.5,433C 210.96,435.601 205.627,438.435 200.5,441.5C 194.528,442.474 188.528,442.641 182.5,442C 178.361,441.35 174.694,439.683 171.5,437C 168.223,435.857 164.89,435.023 161.5,434.5C 161.631,433.624 161.298,432.957 160.5,432.5C 154.548,428.69 148.214,425.69 141.5,423.5C 141.167,423.5 140.833,423.5 140.5,423.5C 137.244,419.861 133.244,417.194 128.5,415.5C 126.704,413.1 124.37,411.433 121.5,410.5C 121.631,409.761 121.464,409.094 121,408.5C 118.713,406.946 116.546,405.279 114.5,403.5C 114.5,401.5 113.5,400.5 111.5,400.5C 111.5,400.167 111.5,399.833 111.5,399.5C 111.5,396.5 111.5,393.5 111.5,390.5C 108.857,389.546 106.19,388.546 103.5,387.5C 100.713,386.523 97.7131,386.19 94.5,386.5C 94.5,384.833 94.5,383.167 94.5,381.5C 93.209,381.263 92.209,381.596 91.5,382.5C 90.325,382.719 89.325,382.386 88.5,381.5C 87.4078,378.906 85.7411,376.739 83.5,375C 75.6517,369.994 68.485,364.161 62,357.5C 61.3486,355.765 61.5153,354.098 62.5,352.5C 59.5487,351.505 57.2153,349.838 55.5,347.5C 54.3743,340.79 53.041,334.124 51.5,327.5C 51.369,326.761 51.5357,326.094 52,325.5C 53.8333,328.667 56.3333,331.167 59.5,333C 58.1955,333.804 57.5288,334.971 57.5,336.5C 63.7934,344.627 71.46,351.127 80.5,356C 82.5299,357.896 84.1966,360.063 85.5,362.5C 87.0453,363.452 88.712,363.785 90.5,363.5C 90.2865,365.144 90.6198,366.644 91.5,368C 97.4182,368.117 103.085,369.284 108.5,371.5C 108.239,375.342 108.906,379.009 110.5,382.5C 113.289,385.791 116.289,388.958 119.5,392C 136.975,404.406 155.641,414.739 175.5,423C 181.776,424.424 188.109,424.758 194.5,424C 201.343,421.796 208.01,419.296 214.5,416.5C 219.536,415.732 224.536,416.232 229.5,418C 233.667,418.167 237.833,418.333 242,418.5C 248.406,418.674 254.573,418.007 260.5,416.5C 273.827,415.813 286.994,416.813 300,419.5C 302.544,419.664 304.71,418.997 306.5,417.5C 308.774,416.403 310.941,415.07 313,413.5C 314.434,413.93 315.601,414.764 316.5,416C 317.833,416.667 319.167,416.667 320.5,416C 325.532,410.633 330.865,405.633 336.5,401C 349.441,392.724 362.108,384.057 374.5,375C 381.446,368.054 388.446,361.054 395.5,354C 398.014,352.748 400.68,352.248 403.5,352.5C 403.336,349.813 403.503,347.146 404,344.5C 413.127,328.191 421.627,311.525 429.5,294.5C 429.957,293.702 430.624,293.369 431.5,293.5 Z"/></g>
<g><path style="opacity:0.137" fill="#cac7c0" d="M 44.5,293.5 C 45.1667,295.5 45.8333,297.5 46.5,299.5C 47.7534,309.029 49.4201,318.363 51.5,327.5C 53.041,334.124 54.3743,340.79 55.5,347.5C 54.065,345.402 52.8984,343.069 52,340.5C 48.9295,324.94 46.4295,309.273 44.5,293.5 Z"/></g>
<g><path style="opacity:0.996" fill="#56463b" d="M 177.5,302.5 C 176.914,312.565 173.748,321.565 168,329.5C 167.517,330.448 167.351,331.448 167.5,332.5C 165.833,332.5 164.167,332.5 162.5,332.5C 160.873,327.988 159.873,323.321 159.5,318.5C 161.02,320.89 162.02,323.557 162.5,326.5C 164.288,326.785 165.955,326.452 167.5,325.5C 172.285,319.704 174.952,313.037 175.5,305.5C 176.167,304.5 176.833,303.5 177.5,302.5 Z"/></g>
<g><path style="opacity:0.996" fill="#4e3e38" d="M 235.5,309.5 C 235.316,321.223 231.482,331.556 224,340.5C 221.333,343.167 218.667,343.167 216,340.5C 211.494,331.168 205.327,323.168 197.5,316.5C 198.689,315.571 200.022,315.238 201.5,315.5C 203.463,316.96 205.296,318.627 207,320.5C 210.303,325.969 213.803,331.302 217.5,336.5C 219.167,337.833 220.833,337.833 222.5,336.5C 225.528,332.639 228.361,328.639 231,324.5C 232.569,319.459 234.069,314.459 235.5,309.5 Z"/></g>
<g><path style="opacity:0.106" fill="#a0a0a0" d="M 431.5,303.5 C 431.5,304.167 431.5,304.833 431.5,305.5C 430.969,308.237 430.136,310.904 429,313.5C 420.015,330.802 411.015,348.135 402,365.5C 401.667,367.833 401.333,370.167 401,372.5C 399.887,373.711 398.72,373.711 397.5,372.5C 395.37,373.467 393.37,374.634 391.5,376C 384.215,385.456 375.548,393.29 365.5,399.5C 375.268,391.566 384.268,382.733 392.5,373C 395.014,371.748 397.68,371.248 400.5,371.5C 400.337,369.143 400.503,366.81 401,364.5C 411.248,344.003 421.415,323.67 431.5,303.5 Z"/></g>
<g><path style="opacity:0.996" fill="#4d3e38" d="M 278.5,322.5 C 286.165,331.152 292.332,340.818 297,351.5C 299.679,354.835 302.845,355.335 306.5,353C 312.626,344.586 316.959,335.419 319.5,325.5C 319.488,331.709 318.321,337.709 316,343.5C 313.252,348.666 310.252,353.666 307,358.5C 302.155,361.798 298.488,360.798 296,355.5C 291.42,344.67 285.086,335.003 277,326.5C 276.156,324.537 276.656,323.204 278.5,322.5 Z"/></g>
<g><path style="opacity:0.071" fill="#a3a3a3" d="M 55.5,347.5 C 57.2153,349.838 59.5487,351.505 62.5,352.5C 61.5153,354.098 61.3486,355.765 62,357.5C 68.485,364.161 75.6517,369.994 83.5,375C 85.7411,376.739 87.4078,378.906 88.5,381.5C 89.325,382.386 90.325,382.719 91.5,382.5C 93.1765,383.183 93.8432,384.517 93.5,386.5C 88.6348,384.642 84.9681,381.308 82.5,376.5C 74.3219,371.33 66.8219,365.33 60,358.5C 59.2571,356.559 59.4238,354.726 60.5,353C 57.5793,352.248 55.9126,350.415 55.5,347.5 Z"/></g>
<g><path style="opacity:0.557" fill="#525252" d="M 91.5,382.5 C 92.209,381.596 93.209,381.263 94.5,381.5C 94.5,383.167 94.5,384.833 94.5,386.5C 97.7131,386.19 100.713,386.523 103.5,387.5C 100.167,387.5 96.8333,387.5 93.5,387.5C 93.5,387.167 93.5,386.833 93.5,386.5C 93.8432,384.517 93.1765,383.183 91.5,382.5 Z"/></g>
<g><path style="opacity:0.151" fill="#b3b3b3" d="M 93.5,387.5 C 96.8333,387.5 100.167,387.5 103.5,387.5C 106.19,388.546 108.857,389.546 111.5,390.5C 111.5,393.5 111.5,396.5 111.5,399.5C 110.108,396.788 108.775,393.954 107.5,391C 102.828,389.347 98.1614,388.181 93.5,387.5 Z"/></g>
<g><path style="opacity:0.129" fill="#9c9c9c" d="M 111.5,400.5 C 113.5,400.5 114.5,401.5 114.5,403.5C 112.5,403.5 111.5,402.5 111.5,400.5 Z"/></g>
<g><path style="opacity:0.02" fill="#a7a7a7" d="M 114.5,403.5 C 116.546,405.279 118.713,406.946 121,408.5C 121.464,409.094 121.631,409.761 121.5,410.5C 118.167,409.167 115.833,406.833 114.5,403.5 Z"/></g>
<g><path style="opacity:0.039" fill="#a0a0a0" d="M 365.5,399.5 C 352.402,408.75 339.402,418.25 326.5,428C 324.5,430.333 322.5,432.667 320.5,435C 317.289,435.798 314.289,435.298 311.5,433.5C 305.938,438.402 299.605,439.735 292.5,437.5C 292.5,437.167 292.5,436.833 292.5,436.5C 296.846,436.666 301.179,436.499 305.5,436C 307.644,434.854 309.477,433.354 311,431.5C 313.73,432.861 316.563,433.361 319.5,433C 333.336,419.601 348.669,408.434 365.5,399.5 Z"/></g>
<g><path style="opacity:0.059" fill="#a3a3a3" d="M 121.5,410.5 C 124.37,411.433 126.704,413.1 128.5,415.5C 125.326,414.99 122.992,413.323 121.5,410.5 Z"/></g>
<g><path style="opacity:0.996" fill="#7d6538" d="M 260.5,416.5 C 264.988,415.834 269.654,415.501 274.5,415.5C 285.145,416.38 295.812,417.046 306.5,417.5C 304.71,418.997 302.544,419.664 300,419.5C 286.994,416.813 273.827,415.813 260.5,416.5 Z"/></g>
<g><path style="opacity:0.996" fill="#8c713f" d="M 260.5,416.5 C 254.573,418.007 248.406,418.674 242,418.5C 237.833,418.333 233.667,418.167 229.5,418C 224.536,416.232 219.536,415.732 214.5,416.5C 215.312,415.007 216.645,414.34 218.5,414.5C 232.424,416.341 246.424,417.008 260.5,416.5 Z"/></g>
<g><path style="opacity:0.129" fill="#9b9b9b" d="M 128.5,415.5 C 133.244,417.194 137.244,419.861 140.5,423.5C 136.148,421.327 132.148,418.66 128.5,415.5 Z"/></g>
<g><path style="opacity:0.2" fill="#999999" d="M 141.5,423.5 C 148.214,425.69 154.548,428.69 160.5,432.5C 161.298,432.957 161.631,433.624 161.5,434.5C 155.401,431.951 149.401,429.118 143.5,426C 142.619,425.292 141.953,424.458 141.5,423.5 Z"/></g>
<g><path style="opacity:0.727" fill="#494949" d="M 259.5,434.5 C 270.029,433.212 280.696,433.379 291.5,435C 292.056,435.383 292.389,435.883 292.5,436.5C 289.236,435.676 285.902,435.342 282.5,435.5C 275.018,434.508 267.352,434.175 259.5,434.5 Z"/></g>
<g><path style="opacity:0.064" fill="#bdbdbd" d="M 225.5,434.5 C 230.245,435.999 235.245,436.666 240.5,436.5C 246.726,436.564 252.726,435.897 258.5,434.5C 258.833,434.5 259.167,434.5 259.5,434.5C 267.352,434.175 275.018,434.508 282.5,435.5C 268.656,435.885 254.822,436.552 241,437.5C 233.477,437.855 226.143,436.855 219,434.5C 213.171,437.835 207.004,440.169 200.5,441.5C 205.627,438.435 210.96,435.601 216.5,433C 219.57,432.922 222.57,433.422 225.5,434.5 Z"/></g>
<g><path style="opacity:0.694" fill="#3a3a3a" d="M 225.5,434.5 C 236.5,435.833 247.5,435.833 258.5,434.5C 252.726,435.897 246.726,436.564 240.5,436.5C 235.245,436.666 230.245,435.999 225.5,434.5 Z"/></g>
<g><path style="opacity:0.024" fill="#e5e5e5" d="M 282.5,435.5 C 285.902,435.342 289.236,435.676 292.5,436.5C 292.5,436.833 292.5,437.167 292.5,437.5C 288.989,437.101 285.656,436.434 282.5,435.5 Z"/></g>
<g><path style="opacity:0.129" fill="#a8a8a8" d="M 161.5,434.5 C 164.89,435.023 168.223,435.857 171.5,437C 174.694,439.683 178.361,441.35 182.5,442C 188.528,442.641 194.528,442.474 200.5,441.5C 199.737,442.268 198.737,442.768 197.5,443C 191.833,443.667 186.167,443.667 180.5,443C 173.89,440.636 167.557,437.803 161.5,434.5 Z"/></g>
</svg>
