<?xml version="1.0" encoding="UTF-8"?>
<!DOCTYPE svg PUBLIC "-//W3C//DTD SVG 1.1//EN" "http://www.w3.org/Graphics/SVG/1.1/DTD/svg11.dtd">
<svg xmlns="http://www.w3.org/2000/svg" version="1.1" width="469px" height="466px" style="shape-rendering:geometricPrecision; text-rendering:geometricPrecision; image-rendering:optimizeQuality; fill-rule:evenodd; clip-rule:evenodd" xmlns:xlink="http://www.w3.org/1999/xlink">
<g><path style="opacity:0.484" fill="#e1d2b7" d="M 336.5,77.5 C 322.309,71.1527 308.309,64.3194 294.5,57C 284.004,54.8156 273.67,55.4822 263.5,59C 260.01,61.8881 256.01,63.7214 251.5,64.5C 242.796,62.3372 234.129,60.6705 225.5,59.5C 234.468,58.8938 243.135,60.2271 251.5,63.5C 257.048,60.7072 262.714,58.2072 268.5,56C 281.059,52.11 293.059,53.4433 304.5,60C 313.588,65.0373 322.921,69.7039 332.5,74C 334.093,74.9487 335.426,76.1154 336.5,77.5 Z"/></g>
<g><path style="opacity:0.996" fill="#b59352" d="M 336.5,77.5 C 336.833,77.5 337.167,77.5 337.5,77.5C 338.527,80.858 340.86,82.5246 344.5,82.5C 345.812,85.5356 348.146,87.7022 351.5,89C 354.333,91.8333 357.167,94.6667 360,97.5C 361.036,100.971 361.869,104.471 362.5,108C 367.79,110.868 373.457,112.035 379.5,111.5C 379.5,112.833 379.5,114.167 379.5,115.5C 381.621,115.325 383.621,115.659 385.5,116.5C 386.086,118.84 387.086,121.007 388.5,123C 392.807,126.483 397.473,129.317 402.5,131.5C 405.101,134.604 407.934,137.604 411,140.5C 410.947,142.936 411.113,145.269 411.5,147.5C 413.075,148.456 414.742,149.123 416.5,149.5C 417.752,155.549 419.752,161.216 422.5,166.5C 422.5,166.833 422.5,167.167 422.5,167.5C 424.282,186.118 425.449,204.785 426,223.5C 426.54,226.523 428.04,228.856 430.5,230.5C 432.199,232.566 433.532,234.9 434.5,237.5C 436.208,242.371 436.708,247.371 436,252.5C 435.045,254.949 433.545,256.949 431.5,258.5C 432.491,259.665 433.491,260.832 434.5,262C 434.257,262.902 433.923,263.735 433.5,264.5C 432.883,264.611 432.383,264.944 432,265.5C 431.503,267.81 431.337,270.143 431.5,272.5C 431.95,279.649 431.284,286.649 429.5,293.5C 428.596,294.209 428.263,295.209 428.5,296.5C 427.171,298.059 425.838,299.725 424.5,301.5C 419.493,311.513 414.493,321.513 409.5,331.5C 407.755,333.033 406.755,335.033 406.5,337.5C 404.565,340.371 402.899,343.371 401.5,346.5C 400.527,348.948 400.194,351.615 400.5,354.5C 398.265,354.205 396.265,354.539 394.5,355.5C 393.761,355.369 393.094,355.536 392.5,356C 385.851,363.914 378.517,371.248 370.5,378C 357.796,386.679 345.13,395.346 332.5,404C 328.901,406.952 325.567,410.118 322.5,413.5C 321.038,414.458 319.705,415.624 318.5,417C 316.455,417.49 314.455,417.323 312.5,416.5C 312.189,415.522 311.522,414.855 310.5,414.5C 309.479,416.188 308.145,417.521 306.5,418.5C 300.225,419.418 293.892,419.751 287.5,419.5C 286.508,419.672 285.842,419.338 285.5,418.5C 276.343,417.342 267.009,417.176 257.5,418C 252.611,418.354 247.944,419.187 243.5,420.5C 233.834,421.126 224.501,419.793 215.5,416.5C 211.22,418.157 207.22,420.157 203.5,422.5C 200.848,422.41 198.515,423.076 196.5,424.5C 189.037,426.981 181.37,427.147 173.5,425C 170.609,423.726 167.942,422.226 165.5,420.5C 162.018,417.556 158.018,415.556 153.5,414.5C 140.535,409.513 128.535,402.68 117.5,394C 113.631,390.466 110.131,386.633 107,382.5C 106.502,379.518 106.335,376.518 106.5,373.5C 103.79,372.494 101.124,371.494 98.5,370.5C 96.0521,369.527 93.3854,369.194 90.5,369.5C 90.5,367.5 90.5,365.5 90.5,363.5C 87.7444,364.254 85.0777,364.254 82.5,363.5C 81.7721,361.265 80.4388,359.432 78.5,358C 70.1395,353.31 62.6395,347.477 56,340.5C 55.3486,338.765 55.5153,337.098 56.5,335.5C 54.5388,334.422 52.8721,333.089 51.5,331.5C 51.2624,329.596 50.2624,328.262 48.5,327.5C 47.9254,323.477 47.2588,319.477 46.5,315.5C 46.1873,310.647 45.5206,305.98 44.5,301.5C 43.8333,299.5 43.1667,297.5 42.5,295.5C 42.7729,287.112 42.4396,278.779 41.5,270.5C 42.8333,267.5 42.8333,264.5 41.5,261.5C 41.2661,257.231 40.0994,253.231 38,249.5C 37.3292,248.748 36.4959,248.414 35.5,248.5C 35.0349,244.11 33.3682,240.443 30.5,237.5C 30.3795,231.861 32.0462,226.861 35.5,222.5C 31.7903,220.759 31.6236,218.759 35,216.5C 35.49,215.207 35.6567,213.873 35.5,212.5C 36.1023,204.935 36.9356,197.269 38,189.5C 44.0792,177.674 50.4125,166.007 57,154.5C 57.9406,151.846 58.7739,149.179 59.5,146.5C 64.3062,140.76 66.9728,134.093 67.5,126.5C 70.3198,126.752 72.9865,126.252 75.5,125C 80.0793,120.926 84.0793,116.426 87.5,111.5C 91.1877,110.651 93.8543,108.484 95.5,105C 98.5922,102.632 101.925,100.632 105.5,99C 106.823,98.1841 107.489,97.0174 107.5,95.5C 112.061,94.0538 115.728,91.3871 118.5,87.5C 123.786,86.851 127.786,84.1844 130.5,79.5C 134.704,77.9668 138.037,75.3002 140.5,71.5C 143.899,69.6117 146.899,67.1117 149.5,64C 152.17,63.4574 154.67,63.9574 157,65.5C 159.316,64.3496 161.15,62.6829 162.5,60.5C 173.629,61.7471 184.796,62.7471 196,63.5C 204.929,63.6755 213.763,62.8422 222.5,61C 223.416,60.7216 224.082,60.2216 224.5,59.5C 224.833,59.5 225.167,59.5 225.5,59.5C 234.129,60.6705 242.796,62.3372 251.5,64.5C 256.01,63.7214 260.01,61.8881 263.5,59C 273.67,55.4822 284.004,54.8156 294.5,57C 308.309,64.3194 322.309,71.1527 336.5,77.5 Z"/></g>
<g><path style="opacity:0.467" fill="#e2d4b5" d="M 162.5,60.5 C 164.978,59.8359 167.645,59.5025 170.5,59.5C 179.13,60.7589 187.797,61.7589 196.5,62.5C 205.884,61.8734 215.217,60.8734 224.5,59.5C 224.082,60.2216 223.416,60.7216 222.5,61C 213.763,62.8422 204.929,63.6755 196,63.5C 184.796,62.7471 173.629,61.7471 162.5,60.5 Z"/></g>
<g><path style="opacity:0.353" fill="#e9dfc9" d="M 162.5,60.5 C 161.15,62.6829 159.316,64.3496 157,65.5C 154.67,63.9574 152.17,63.4574 149.5,64C 146.899,67.1117 143.899,69.6117 140.5,71.5C 143.522,67.4786 147.189,64.1453 151.5,61.5C 153.295,62.2651 155.128,62.9318 157,63.5C 158.731,62.259 160.564,61.259 162.5,60.5 Z"/></g>
<g><path style="opacity:0.286" fill="#e8dec1" d="M 140.5,71.5 C 138.037,75.3002 134.704,77.9668 130.5,79.5C 133.539,76.4602 136.873,73.7935 140.5,71.5 Z"/></g>
<g><path style="opacity:0.42" fill="#e0d1b5" d="M 337.5,77.5 C 340.4,78.4432 342.733,80.1099 344.5,82.5C 340.86,82.5246 338.527,80.858 337.5,77.5 Z"/></g>
<g><path style="opacity:0.898" fill="#dbc8a7" d="M 130.5,79.5 C 127.786,84.1844 123.786,86.851 118.5,87.5C 122.148,84.3401 126.148,81.6735 130.5,79.5 Z"/></g>
<g><path style="opacity:0.357" fill="#e5d7b9" d="M 118.5,87.5 C 115.728,91.3871 112.061,94.0538 107.5,95.5C 110.627,92.1021 114.293,89.4354 118.5,87.5 Z"/></g>
<g><path style="opacity:0.996" fill="#c02c1b" d="M 259.5,115.5 C 258.797,117.629 257.797,119.629 256.5,121.5C 255.076,123.515 254.41,125.848 254.5,128.5C 253.579,131.14 252.912,133.973 252.5,137C 252.528,138.07 252.861,138.903 253.5,139.5C 261.639,138.465 269.639,136.798 277.5,134.5C 283.797,133.68 290.131,133.347 296.5,133.5C 300.185,134.322 302.518,136.489 303.5,140C 303.138,141.434 302.472,142.601 301.5,143.5C 299.033,143.755 297.033,144.755 295.5,146.5C 293.883,147.038 292.216,147.371 290.5,147.5C 287.848,147.41 285.515,148.076 283.5,149.5C 282.833,149.5 282.167,149.5 281.5,149.5C 277.181,150.035 272.848,150.535 268.5,151C 267.584,151.278 266.918,151.778 266.5,152.5C 262.818,152.335 259.152,152.501 255.5,153C 254.584,153.278 253.918,153.778 253.5,154.5C 247.082,154.497 244.748,157.497 246.5,163.5C 259.274,166.521 271.274,171.354 282.5,178C 288.004,183.313 290.004,189.813 288.5,197.5C 285.754,200.305 282.421,201.139 278.5,200C 267.624,189.124 256.124,178.958 244,169.5C 239.797,175.543 235.797,181.876 232,188.5C 222.688,197.903 211.855,204.903 199.5,209.5C 198.167,209.5 196.833,209.5 195.5,209.5C 195.351,208.448 195.517,207.448 196,206.5C 211.825,196.179 222.992,182.179 229.5,164.5C 229.833,163.833 230.167,163.167 230.5,162.5C 230.328,161.508 230.662,160.842 231.5,160.5C 232.434,159.432 232.768,158.099 232.5,156.5C 229.287,156.19 226.287,156.523 223.5,157.5C 213.448,157.784 203.448,157.45 193.5,156.5C 192.833,156.5 192.167,156.5 191.5,156.5C 190.544,155.341 189.544,154.174 188.5,153C 188.645,152.228 188.978,151.561 189.5,151C 195.015,149.11 200.681,148.276 206.5,148.5C 210.684,148.149 214.684,147.482 218.5,146.5C 218.833,146.5 219.167,146.5 219.5,146.5C 225.262,146.564 230.929,145.897 236.5,144.5C 236.616,141.14 236.949,137.807 237.5,134.5C 237.5,128.5 237.5,122.5 237.5,116.5C 237.65,112.805 236.65,109.472 234.5,106.5C 229.667,100.637 231,97.8041 238.5,98C 245.964,100.376 252.964,103.709 259.5,108C 260.814,110.605 260.814,113.105 259.5,115.5 Z"/></g>
<g><path style="opacity:0.294" fill="#dfcaa7" d="M 107.5,95.5 C 107.489,97.0174 106.823,98.1841 105.5,99C 101.925,100.632 98.5922,102.632 95.5,105C 93.8543,108.484 91.1877,110.651 87.5,111.5C 87.5106,109.983 88.1772,108.816 89.5,108C 94.4537,104.715 99.1203,101.048 103.5,97C 104.745,96.2086 106.078,95.7086 107.5,95.5 Z"/></g>
<g><path style="opacity:0.996" fill="#523c36" d="M 234.5,106.5 C 236.65,109.472 237.65,112.805 237.5,116.5C 235.223,114.126 233.556,111.293 232.5,108C 232.836,106.97 233.503,106.47 234.5,106.5 Z"/></g>
<g><path style="opacity:0.333" fill="#e4d6bd" d="M 344.5,82.5 C 354.721,87.8766 361.388,96.0432 364.5,107C 369.558,109.431 374.891,110.598 380.5,110.5C 380.5,111.833 380.5,113.167 380.5,114.5C 382.781,114.077 384.448,114.744 385.5,116.5C 383.621,115.659 381.621,115.325 379.5,115.5C 379.5,114.167 379.5,112.833 379.5,111.5C 373.457,112.035 367.79,110.868 362.5,108C 361.869,104.471 361.036,100.971 360,97.5C 357.167,94.6667 354.333,91.8333 351.5,89C 348.146,87.7022 345.812,85.5356 344.5,82.5 Z"/></g>
<g><path style="opacity:0.996" fill="#7d2c25" d="M 256.5,121.5 C 256.59,124.152 255.924,126.485 254.5,128.5C 254.41,125.848 255.076,123.515 256.5,121.5 Z"/></g>
<g><path style="opacity:0.408" fill="#e4d7bb" d="M 385.5,116.5 C 390.563,122.196 396.229,127.196 402.5,131.5C 397.473,129.317 392.807,126.483 388.5,123C 387.086,121.007 386.086,118.84 385.5,116.5 Z"/></g>
<g><path style="opacity:0.231" fill="#e7dac2" d="M 87.5,111.5 C 84.0793,116.426 80.0793,120.926 75.5,125C 72.9865,126.252 70.3198,126.752 67.5,126.5C 66.9728,134.093 64.3062,140.76 59.5,146.5C 60.7809,141.938 62.6142,137.604 65,133.5C 65.3333,131.167 65.6667,128.833 66,126.5C 68.8587,125.827 71.692,124.993 74.5,124C 78.7758,119.553 83.1092,115.387 87.5,111.5 Z"/></g>
<g><path style="opacity:0.996" fill="#644a39" d="M 259.5,115.5 C 258.429,123.785 256.429,131.785 253.5,139.5C 252.861,138.903 252.528,138.07 252.5,137C 252.912,133.973 253.579,131.14 254.5,128.5C 255.924,126.485 256.59,124.152 256.5,121.5C 257.797,119.629 258.797,117.629 259.5,115.5 Z"/></g>
<g><path style="opacity:0.996" fill="#ba5a34" d="M 296.5,133.5 C 290.131,133.347 283.797,133.68 277.5,134.5C 280.865,132.961 284.531,132.294 288.5,132.5C 291.355,132.503 294.022,132.836 296.5,133.5 Z"/></g>
<g><path style="opacity:0.996" fill="#413c3a" d="M 301.5,143.5 C 302.586,143.62 303.253,144.287 303.5,145.5C 303.248,147.073 302.582,148.406 301.5,149.5C 296.596,150.799 291.929,152.466 287.5,154.5C 273.974,155.916 260.641,158.083 247.5,161C 246.748,161.671 246.414,162.504 246.5,163.5C 244.748,157.497 247.082,154.497 253.5,154.5C 258.01,154.116 262.343,153.449 266.5,152.5C 271.162,152.038 275.829,151.538 280.5,151C 281.056,150.617 281.389,150.117 281.5,149.5C 282.167,149.5 282.833,149.5 283.5,149.5C 286.152,149.59 288.485,148.924 290.5,147.5C 292.216,147.371 293.883,147.038 295.5,146.5C 297.967,146.245 299.967,145.245 301.5,143.5 Z"/></g>
<g><path style="opacity:0.996" fill="#bc4c2c" d="M 237.5,134.5 C 236.949,137.807 236.616,141.14 236.5,144.5C 230.929,145.897 225.262,146.564 219.5,146.5C 224.542,144.58 229.875,143.58 235.5,143.5C 235.215,140.171 235.882,137.171 237.5,134.5 Z"/></g>
<g><path style="opacity:0.996" fill="#6d2e29" d="M 301.5,143.5 C 299.967,145.245 297.967,146.245 295.5,146.5C 297.033,144.755 299.033,143.755 301.5,143.5 Z"/></g>
<g><path style="opacity:0.4" fill="#e2d4b8" d="M 402.5,131.5 C 407.269,134.434 411.269,138.267 414.5,143C 413.833,144 413.167,145 412.5,146C 414.544,146.498 415.878,147.665 416.5,149.5C 414.742,149.123 413.075,148.456 411.5,147.5C 411.113,145.269 410.947,142.936 411,140.5C 407.934,137.604 405.101,134.604 402.5,131.5 Z"/></g>
<g><path style="opacity:0.996" fill="#b9663a" d="M 218.5,146.5 C 214.684,147.482 210.684,148.149 206.5,148.5C 210.183,146.75 214.183,146.083 218.5,146.5 Z"/></g>
<g><path style="opacity:0.996" fill="#772b25" d="M 290.5,147.5 C 288.485,148.924 286.152,149.59 283.5,149.5C 285.515,148.076 287.848,147.41 290.5,147.5 Z"/></g>
<g><path style="opacity:0.996" fill="#65302b" d="M 281.5,149.5 C 281.389,150.117 281.056,150.617 280.5,151C 275.829,151.538 271.162,152.038 266.5,152.5C 266.918,151.778 267.584,151.278 268.5,151C 272.848,150.535 277.181,150.035 281.5,149.5 Z"/></g>
<g><path style="opacity:0.996" fill="#6d2e29" d="M 266.5,152.5 C 262.343,153.449 258.01,154.116 253.5,154.5C 253.918,153.778 254.584,153.278 255.5,153C 259.152,152.501 262.818,152.335 266.5,152.5 Z"/></g>
<g><path style="opacity:0.996" fill="#7d6a47" d="M 301.5,149.5 C 297.37,152.324 292.703,153.991 287.5,154.5C 291.929,152.466 296.596,150.799 301.5,149.5 Z"/></g>
<g><path style="opacity:0.263" fill="#dfd0b2" d="M 416.5,149.5 C 417.458,149.953 418.292,150.619 419,151.5C 420.361,156.472 421.527,161.472 422.5,166.5C 419.752,161.216 417.752,155.549 416.5,149.5 Z"/></g>
<g><path style="opacity:0.996" fill="#822923" d="M 223.5,157.5 C 226.287,156.523 229.287,156.19 232.5,156.5C 232.768,158.099 232.434,159.432 231.5,160.5C 231.5,159.5 231.5,158.5 231.5,157.5C 228.833,157.5 226.167,157.5 223.5,157.5 Z"/></g>
<g><path style="opacity:0.996" fill="#7f2a24" d="M 193.5,156.5 C 203.448,157.45 213.448,157.784 223.5,157.5C 214.009,158.658 204.342,158.825 194.5,158C 193.944,157.617 193.611,157.117 193.5,156.5 Z"/></g>
<g><path style="opacity:0.996" fill="#413c3a" d="M 191.5,156.5 C 192.167,156.5 192.833,156.5 193.5,156.5C 193.611,157.117 193.944,157.617 194.5,158C 204.342,158.825 214.009,158.658 223.5,157.5C 226.167,157.5 228.833,157.5 231.5,157.5C 231.5,158.5 231.5,159.5 231.5,160.5C 230.662,160.842 230.328,161.508 230.5,162.5C 218.854,163.333 207.187,163.666 195.5,163.5C 192.826,162.498 190.492,160.998 188.5,159C 188.748,157.251 189.748,156.418 191.5,156.5 Z"/></g>
<g><path style="opacity:0.996" fill="#836d47" d="M 230.5,162.5 C 230.167,163.167 229.833,163.833 229.5,164.5C 217.988,164.828 206.654,164.495 195.5,163.5C 207.187,163.666 218.854,163.333 230.5,162.5 Z"/></g>
<g><path style="opacity:0.996" fill="#b29051" d="M 275.5,203.5 C 269.177,204.221 262.844,204.888 256.5,205.5C 250.583,205.216 244.916,205.883 239.5,207.5C 230.786,207.638 222.12,208.305 213.5,209.5C 227.067,202.094 236.567,191.094 242,176.5C 243.868,175.328 245.702,175.495 247.5,177C 252.19,182.354 257.523,187.021 263.5,191C 267.704,195.036 271.704,199.202 275.5,203.5 Z"/></g>
<g><path style="opacity:0.573" fill="#dfcfb0" d="M 59.5,146.5 C 58.7739,149.179 57.9406,151.846 57,154.5C 50.4125,166.007 44.0792,177.674 38,189.5C 36.9356,197.269 36.1023,204.935 35.5,212.5C 35.5,206.833 35.5,201.167 35.5,195.5C 35.3398,193.801 35.5065,192.134 36,190.5C 43.5273,176.779 50.5273,162.779 57,148.5C 57.7083,147.619 58.5416,146.953 59.5,146.5 Z"/></g>
<g><path style="opacity:0.996" fill="#4b3b37" d="M 288.5,197.5 C 288.5,198.833 288.5,200.167 288.5,201.5C 287.833,201.5 287.5,201.833 287.5,202.5C 283.5,202.833 279.5,203.167 275.5,203.5C 271.704,199.202 267.704,195.036 263.5,191C 257.523,187.021 252.19,182.354 247.5,177C 245.702,175.495 243.868,175.328 242,176.5C 236.567,191.094 227.067,202.094 213.5,209.5C 212.508,209.328 211.842,209.662 211.5,210.5C 210.833,210.5 210.167,210.5 209.5,210.5C 205.821,210.724 202.154,211.058 198.5,211.5C 198.833,210.833 199.167,210.167 199.5,209.5C 211.855,204.903 222.688,197.903 232,188.5C 235.797,181.876 239.797,175.543 244,169.5C 256.124,178.958 267.624,189.124 278.5,200C 282.421,201.139 285.754,200.305 288.5,197.5 Z"/></g>
<g><path style="opacity:0.996" fill="#bb5431" d="M 330.5,195.5 C 326.117,197.23 321.45,198.23 316.5,198.5C 320.883,196.77 325.55,195.77 330.5,195.5 Z"/></g>
<g><path style="opacity:0.996" fill="#c02a1a" d="M 330.5,195.5 C 342.659,194.621 353.659,197.621 363.5,204.5C 364.714,206.859 364.714,209.192 363.5,211.5C 362.18,212.942 360.514,213.608 358.5,213.5C 350.833,213.5 343.167,213.5 335.5,213.5C 318.818,213.313 302.151,213.647 285.5,214.5C 281.486,214.334 277.486,214.501 273.5,215C 272.434,216.159 272.767,216.992 274.5,217.5C 276.5,218.5 278.5,219.5 280.5,220.5C 283.144,222.969 285.977,225.302 289,227.5C 289.497,229.81 289.663,232.143 289.5,234.5C 288.668,266.997 288.168,299.664 288,332.5C 287.39,335.827 286.89,339.161 286.5,342.5C 283.419,351.825 278.419,359.992 271.5,367C 269.5,367.667 267.5,367.667 265.5,367C 257.055,355.058 247.722,343.892 237.5,333.5C 235.615,331.947 234.615,329.947 234.5,327.5C 241.201,329.008 247.868,330.842 254.5,333C 258.5,333.667 262.5,333.667 266.5,333C 267.333,332.167 268.167,331.333 269,330.5C 270.887,324.633 272.22,318.633 273,312.5C 273.82,292.094 273.654,271.76 272.5,251.5C 272.816,245.25 272.15,239.25 270.5,233.5C 270.5,233.167 270.5,232.833 270.5,232.5C 270.326,230.139 269.993,227.806 269.5,225.5C 268.705,222.45 267.705,219.45 266.5,216.5C 263.355,215.197 260.355,215.197 257.5,216.5C 253.833,216.5 250.167,216.5 246.5,216.5C 239.992,216.868 233.658,217.535 227.5,218.5C 215.968,219.919 204.301,221.252 192.5,222.5C 184.851,223.414 177.184,224.248 169.5,225C 167.277,225.566 165.277,226.4 163.5,227.5C 158.273,227.978 153.273,228.978 148.5,230.5C 142.677,230.877 137.011,230.21 131.5,228.5C 128.153,227.391 125.153,225.724 122.5,223.5C 122.167,222.833 121.833,222.167 121.5,221.5C 121.5,220.5 121.5,219.5 121.5,218.5C 131.681,218.269 141.681,217.603 151.5,216.5C 158.407,215.357 165.407,214.69 172.5,214.5C 185.1,214.279 197.433,212.946 209.5,210.5C 210.167,210.5 210.833,210.5 211.5,210.5C 221.224,210.43 230.557,209.43 239.5,207.5C 245.373,207.404 251.04,206.737 256.5,205.5C 262.844,204.888 269.177,204.221 275.5,203.5C 279.5,203.167 283.5,202.833 287.5,202.5C 292.414,202.638 297.081,201.972 301.5,200.5C 306.75,200.698 311.75,200.031 316.5,198.5C 321.45,198.23 326.117,197.23 330.5,195.5 Z"/></g>
<g><path style="opacity:0.996" fill="#bb5431" d="M 316.5,198.5 C 311.75,200.031 306.75,200.698 301.5,200.5C 306.269,199.111 311.269,198.444 316.5,198.5 Z"/></g>
<g><path style="opacity:0.996" fill="#b95431" d="M 301.5,200.5 C 297.081,201.972 292.414,202.638 287.5,202.5C 287.5,201.833 287.833,201.5 288.5,201.5C 292.798,200.8 297.131,200.467 301.5,200.5 Z"/></g>
<g><path style="opacity:0.996" fill="#b96238" d="M 256.5,205.5 C 251.04,206.737 245.373,207.404 239.5,207.5C 244.916,205.883 250.583,205.216 256.5,205.5 Z"/></g>
<g><path style="opacity:0.314" fill="#e0d1b3" d="M 422.5,167.5 C 425.979,185.508 427.812,203.842 428,222.5C 428.561,225.279 429.394,227.946 430.5,230.5C 428.04,228.856 426.54,226.523 426,223.5C 425.449,204.785 424.282,186.118 422.5,167.5 Z"/></g>
<g><path style="opacity:0.996" fill="#ba5330" d="M 239.5,207.5 C 230.557,209.43 221.224,210.43 211.5,210.5C 211.842,209.662 212.508,209.328 213.5,209.5C 222.12,208.305 230.786,207.638 239.5,207.5 Z"/></g>
<g><path style="opacity:0.996" fill="#b1472b" d="M 209.5,210.5 C 197.433,212.946 185.1,214.279 172.5,214.5C 180.933,212.748 189.6,211.748 198.5,211.5C 202.154,211.058 205.821,210.724 209.5,210.5 Z"/></g>
<g><path style="opacity:0.996" fill="#742a25" d="M 285.5,214.5 C 281.558,214.875 277.891,215.875 274.5,217.5C 272.767,216.992 272.434,216.159 273.5,215C 277.486,214.501 281.486,214.334 285.5,214.5 Z"/></g>
<g><path style="opacity:0.996" fill="#413a39" d="M 363.5,211.5 C 363.662,213.527 363.495,215.527 363,217.5C 362.329,218.252 361.496,218.586 360.5,218.5C 338.377,218.471 316.377,218.804 294.5,219.5C 289.93,220.441 285.263,220.774 280.5,220.5C 278.5,219.5 276.5,218.5 274.5,217.5C 277.891,215.875 281.558,214.875 285.5,214.5C 302.151,213.647 318.818,213.313 335.5,213.5C 339.588,214.874 343.921,215.541 348.5,215.5C 352.141,215.685 355.474,215.019 358.5,213.5C 360.514,213.608 362.18,212.942 363.5,211.5 Z"/></g>
<g><path style="opacity:0.996" fill="#9d271e" d="M 335.5,213.5 C 343.167,213.5 350.833,213.5 358.5,213.5C 355.474,215.019 352.141,215.685 348.5,215.5C 343.921,215.541 339.588,214.874 335.5,213.5 Z"/></g>
<g><path style="opacity:0.996" fill="#bc462a" d="M 151.5,216.5 C 141.681,217.603 131.681,218.269 121.5,218.5C 121.5,219.5 121.5,220.5 121.5,221.5C 120.566,220.432 120.232,219.099 120.5,217.5C 130.821,216.867 141.155,216.534 151.5,216.5 Z"/></g>
<g><path style="opacity:0.996" fill="#812923" d="M 246.5,216.5 C 240.426,218.248 234.093,218.915 227.5,218.5C 233.658,217.535 239.992,216.868 246.5,216.5 Z"/></g>
<g><path style="opacity:0.996" fill="#443c39" d="M 246.5,216.5 C 250.167,216.5 253.833,216.5 257.5,216.5C 260.247,216.187 262.914,216.52 265.5,217.5C 266.284,220.57 267.617,223.237 269.5,225.5C 269.993,227.806 270.326,230.139 270.5,232.5C 269.542,232.047 268.708,231.381 268,230.5C 267.356,227.391 266.189,224.557 264.5,222C 258.52,222.072 252.52,222.239 246.5,222.5C 241.609,222.532 236.943,223.199 232.5,224.5C 225.088,224.395 217.755,225.062 210.5,226.5C 196.46,227.54 182.46,229.04 168.5,231C 167.584,231.278 166.918,231.778 166.5,232.5C 158.808,233.836 151.141,235.17 143.5,236.5C 134.7,236.681 127.2,233.681 121,227.5C 120.227,225.648 120.727,224.314 122.5,223.5C 125.153,225.724 128.153,227.391 131.5,228.5C 132.347,229.966 133.68,230.8 135.5,231C 140.02,231.814 144.354,231.647 148.5,230.5C 153.273,228.978 158.273,227.978 163.5,227.5C 173.352,226.157 183.019,224.491 192.5,222.5C 204.301,221.252 215.968,219.919 227.5,218.5C 234.093,218.915 240.426,218.248 246.5,216.5 Z"/></g>
<g><path style="opacity:0.216" fill="#efe4d4" d="M 35.5,195.5 C 35.5,201.167 35.5,206.833 35.5,212.5C 35.6567,213.873 35.49,215.207 35,216.5C 31.6236,218.759 31.7903,220.759 35.5,222.5C 32.0462,226.861 30.3795,231.861 30.5,237.5C 28.7706,232.241 29.7706,227.408 33.5,223C 32.3128,221.981 31.3128,220.814 30.5,219.5C 31.8613,217.972 33.028,216.305 34,214.5C 34.1721,207.987 34.6721,201.653 35.5,195.5 Z"/></g>
<g><path style="opacity:0.996" fill="#615641" d="M 294.5,219.5 C 316.377,218.804 338.377,218.471 360.5,218.5C 359.319,220.067 357.653,220.901 355.5,221C 348.776,221.774 342.11,221.441 335.5,220C 321.837,219.5 308.171,219.333 294.5,219.5 Z"/></g>
<g><path style="opacity:0.996" fill="#8a2922" d="M 257.5,216.5 C 260.355,215.197 263.355,215.197 266.5,216.5C 267.705,219.45 268.705,222.45 269.5,225.5C 267.617,223.237 266.284,220.57 265.5,217.5C 262.914,216.52 260.247,216.187 257.5,216.5 Z"/></g>
<g><path style="opacity:0.996" fill="#796746" d="M 246.5,222.5 C 242.119,224.211 237.453,224.877 232.5,224.5C 236.943,223.199 241.609,222.532 246.5,222.5 Z"/></g>
<g><path style="opacity:0.996" fill="#802a24" d="M 192.5,222.5 C 183.019,224.491 173.352,226.157 163.5,227.5C 165.277,226.4 167.277,225.566 169.5,225C 177.184,224.248 184.851,223.414 192.5,222.5 Z"/></g>
<g><path style="opacity:0.996" fill="#897349" d="M 210.5,226.5 C 208.952,227.794 206.952,228.461 204.5,228.5C 191.825,229.834 179.158,231.167 166.5,232.5C 166.918,231.778 167.584,231.278 168.5,231C 182.46,229.04 196.46,227.54 210.5,226.5 Z"/></g>
<g><path style="opacity:0.996" fill="#712b27" d="M 131.5,228.5 C 137.011,230.21 142.677,230.877 148.5,230.5C 144.354,231.647 140.02,231.814 135.5,231C 133.68,230.8 132.347,229.966 131.5,228.5 Z"/></g>
<g><path style="opacity:0.996" fill="#bf2b1b" d="M 250.5,255.5 C 244.62,260.109 240.62,265.942 238.5,273C 238.528,274.07 238.861,274.903 239.5,275.5C 240.929,278.308 241.595,281.308 241.5,284.5C 239.833,285.167 238.167,285.833 236.5,286.5C 228.98,286.717 221.646,287.384 214.5,288.5C 207.61,288.906 200.943,289.906 194.5,291.5C 193.659,293.379 193.325,295.379 193.5,297.5C 193.5,298.167 193.5,298.833 193.5,299.5C 191.241,307.885 187.574,308.552 182.5,301.5C 181.761,294.326 180.761,287.326 179.5,280.5C 179.5,280.167 179.5,279.833 179.5,279.5C 179.249,269.122 176.249,259.789 170.5,251.5C 169.659,249.621 169.325,247.621 169.5,245.5C 174.52,245.041 179.187,246.041 183.5,248.5C 190.655,249.655 197.988,249.822 205.5,249C 206.737,248.768 207.737,248.268 208.5,247.5C 215.873,246.876 222.539,244.376 228.5,240C 237.734,239.418 245.568,242.584 252,249.5C 252.748,251.84 252.248,253.84 250.5,255.5 Z"/></g>
<g><path style="opacity:0.231" fill="#e2d4be" d="M 30.5,237.5 C 33.3682,240.443 35.0349,244.11 35.5,248.5C 35.5,248.833 35.5,249.167 35.5,249.5C 34.8333,249.833 34.1667,250.167 33.5,250.5C 33.6775,249.305 34.0109,248.138 34.5,247C 32.4761,244.119 31.1427,240.953 30.5,237.5 Z"/></g>
<g><path style="opacity:0.376" fill="#e4d8c2" d="M 434.5,237.5 C 439.706,244.444 439.706,251.444 434.5,258.5C 436.945,260.364 437.112,262.364 435,264.5C 434.219,273.192 433.219,281.859 432,290.5C 431.623,291.942 430.79,292.942 429.5,293.5C 431.284,286.649 431.95,279.649 431.5,272.5C 433.369,270.365 434.036,267.698 433.5,264.5C 433.923,263.735 434.257,262.902 434.5,262C 433.491,260.832 432.491,259.665 431.5,258.5C 433.545,256.949 435.045,254.949 436,252.5C 436.708,247.371 436.208,242.371 434.5,237.5 Z"/></g>
<g><path style="opacity:0.996" fill="#8e4e34" d="M 270.5,233.5 C 272.15,239.25 272.816,245.25 272.5,251.5C 271.318,245.699 270.652,239.699 270.5,233.5 Z"/></g>
<g><path style="opacity:0.996" fill="#b95e36" d="M 208.5,247.5 C 207.737,248.268 206.737,248.768 205.5,249C 197.988,249.822 190.655,249.655 183.5,248.5C 191.867,248.705 200.2,248.371 208.5,247.5 Z"/></g>
<g><path style="opacity:0.994" fill="#161410" d="M 35.5,248.5 C 36.4959,248.414 37.3292,248.748 38,249.5C 40.0994,253.231 41.2661,257.231 41.5,261.5C 41.8016,264.059 41.4682,266.393 40.5,268.5C 35.8603,262.941 34.1936,256.607 35.5,249.5C 35.5,249.167 35.5,248.833 35.5,248.5 Z"/></g>
<g><path style="opacity:0.996" fill="#633e33" d="M 170.5,251.5 C 176.249,259.789 179.249,269.122 179.5,279.5C 177.403,274.04 175.57,268.373 174,262.5C 172.621,259.574 171.121,256.74 169.5,254C 169.528,252.93 169.861,252.097 170.5,251.5 Z"/></g>
<g><path style="opacity:0.996" fill="#443c39" d="M 224.5,262.5 C 221.183,261.835 217.683,261.501 214,261.5C 206.767,261.581 199.601,262.248 192.5,263.5C 191.539,261.735 191.205,259.735 191.5,257.5C 202.489,256.489 213.489,255.989 224.5,256C 225.811,258.274 225.811,260.44 224.5,262.5 Z"/></g>
<g><path style="opacity:0.996" fill="#4e3c37" d="M 250.5,255.5 C 251.613,256.946 251.78,258.613 251,260.5C 245.777,264.541 241.943,269.541 239.5,275.5C 238.861,274.903 238.528,274.07 238.5,273C 240.62,265.942 244.62,260.109 250.5,255.5 Z"/></g>
<g><path style="opacity:0.165" fill="#b1b1b1" d="M 35.5,249.5 C 34.1936,256.607 35.8603,262.941 40.5,268.5C 40.8333,269.167 41.1667,269.833 41.5,270.5C 40.8333,270.5 40.1667,270.5 39.5,270.5C 36.5942,266.57 34.4275,262.237 33,257.5C 32.2042,254.961 32.3709,252.628 33.5,250.5C 34.1667,250.167 34.8333,249.833 35.5,249.5 Z"/></g>
<g><path style="opacity:0.996" fill="#b39051" d="M 224.5,262.5 C 224.328,266.534 223.828,270.534 223,274.5C 219.673,277.282 215.839,279.115 211.5,280C 205.432,280.528 199.432,281.361 193.5,282.5C 193.233,276.162 192.9,269.829 192.5,263.5C 199.601,262.248 206.767,261.581 214,261.5C 217.683,261.501 221.183,261.835 224.5,262.5 Z"/></g>
<g><path style="opacity:0.992" fill="#57482b" d="M 41.5,261.5 C 42.8333,264.5 42.8333,267.5 41.5,270.5C 41.1667,269.833 40.8333,269.167 40.5,268.5C 41.4682,266.393 41.8016,264.059 41.5,261.5 Z"/></g>
<g><path style="opacity:0.996" fill="#625339" d="M 433.5,264.5 C 434.036,267.698 433.369,270.365 431.5,272.5C 431.337,270.143 431.503,267.81 432,265.5C 432.383,264.944 432.883,264.611 433.5,264.5 Z"/></g>
<g><path style="opacity:0.217" fill="#e9dfcc" d="M 39.5,270.5 C 40.1667,270.5 40.8333,270.5 41.5,270.5C 42.4396,278.779 42.7729,287.112 42.5,295.5C 41.4495,287.269 40.4495,278.935 39.5,270.5 Z"/></g>
<g><path style="opacity:0.996" fill="#423d3a" d="M 241.5,284.5 C 241.662,286.527 241.495,288.527 241,290.5C 240.25,291.126 239.416,291.626 238.5,292C 223.303,292.692 208.303,294.525 193.5,297.5C 193.325,295.379 193.659,293.379 194.5,291.5C 199.174,291.333 203.841,290.999 208.5,290.5C 210.952,290.461 212.952,289.794 214.5,288.5C 220.176,288.666 225.843,288.499 231.5,288C 233.382,287.802 235.048,287.302 236.5,286.5C 238.167,285.833 239.833,285.167 241.5,284.5 Z"/></g>
<g><path style="opacity:0.996" fill="#60302c" d="M 236.5,286.5 C 235.048,287.302 233.382,287.802 231.5,288C 225.843,288.499 220.176,288.666 214.5,288.5C 221.646,287.384 228.98,286.717 236.5,286.5 Z"/></g>
<g><path style="opacity:0.996" fill="#845439" d="M 179.5,280.5 C 180.761,287.326 181.761,294.326 182.5,301.5C 180.129,294.829 179.129,287.829 179.5,280.5 Z"/></g>
<g><path style="opacity:0.996" fill="#632f2b" d="M 214.5,288.5 C 212.952,289.794 210.952,290.461 208.5,290.5C 203.841,290.999 199.174,291.333 194.5,291.5C 200.943,289.906 207.61,288.906 214.5,288.5 Z"/></g>
<g><path style="opacity:0.149" fill="#eee5d4" d="M 42.5,295.5 C 43.1667,297.5 43.8333,299.5 44.5,301.5C 44.5,304.833 44.5,308.167 44.5,311.5C 43.3351,306.367 42.6685,301.034 42.5,295.5 Z"/></g>
<g><path style="opacity:0.996" fill="#b1301f" d="M 289.5,234.5 C 289.749,268.855 289.749,303.188 289.5,337.5C 288.313,339.072 287.313,340.739 286.5,342.5C 286.89,339.161 287.39,335.827 288,332.5C 288.168,299.664 288.668,266.997 289.5,234.5 Z"/></g>
<g><path style="opacity:0.388" fill="#cfba91" d="M 44.5,301.5 C 45.5206,305.98 46.1873,310.647 46.5,315.5C 45.8333,314.167 45.1667,312.833 44.5,311.5C 44.5,308.167 44.5,304.833 44.5,301.5 Z"/></g>
<g><path style="opacity:0.996" fill="#50433b" d="M 193.5,299.5 C 193.822,303.747 192.989,307.747 191,311.5C 187.274,313.354 184.608,312.354 183,308.5C 182.503,306.19 182.337,303.857 182.5,301.5C 187.574,308.552 191.241,307.885 193.5,299.5 Z"/></g>
<g><path style="opacity:0.031" fill="#a0a0a0" d="M 429.5,293.5 C 429.988,300.674 429.155,307.674 427,314.5C 419.74,328.689 412.24,342.689 404.5,356.5C 410.72,341.124 418.054,326.29 426.5,312C 428.006,306.943 428.673,301.776 428.5,296.5C 428.263,295.209 428.596,294.209 429.5,293.5 Z"/></g>
<g><path style="opacity:0.997" fill="#080705" d="M 428.5,296.5 C 428.673,301.776 428.006,306.943 426.5,312C 418.054,326.29 410.72,341.124 404.5,356.5C 399.708,361.092 397.375,366.759 397.5,373.5C 394.68,373.248 392.014,373.748 389.5,375C 377.673,388.827 364.007,400.494 348.5,410C 347.748,410.671 347.414,411.504 347.5,412.5C 336.326,417.489 326.66,424.656 318.5,434C 315.272,435.909 312.105,435.742 309,433.5C 307.251,434.41 306.084,435.743 305.5,437.5C 299.559,438.413 293.559,438.746 287.5,438.5C 285.097,438.552 282.764,438.219 280.5,437.5C 276.893,436.176 272.893,435.509 268.5,435.5C 262.26,435.333 256.26,436 250.5,437.5C 242.775,438.632 235.108,438.632 227.5,437.5C 224.781,436.087 221.781,435.42 218.5,435.5C 215.988,434.133 213.655,434.466 211.5,436.5C 207.904,438.467 204.237,440.134 200.5,441.5C 193.908,442.822 187.242,443.489 180.5,443.5C 175.182,441.844 169.849,440.178 164.5,438.5C 162.747,436.777 160.747,435.277 158.5,434C 152.894,431.531 147.227,429.364 141.5,427.5C 141.167,426.833 140.833,426.167 140.5,425.5C 139.101,424.11 137.434,423.11 135.5,422.5C 133.95,421.559 132.284,420.893 130.5,420.5C 124.125,415.539 117.958,410.206 112,404.5C 109.211,401.032 107.878,397.032 108,392.5C 106.67,391.418 105.17,390.751 103.5,390.5C 103.167,390.5 102.833,390.5 102.5,390.5C 102.389,389.883 102.056,389.383 101.5,389C 98.5184,388.502 95.5184,388.335 92.5,388.5C 92.5,386.833 92.5,385.167 92.5,383.5C 90.0504,383.702 87.717,383.369 85.5,382.5C 84.3994,381.152 83.3994,379.652 82.5,378C 81.552,377.517 80.552,377.351 79.5,377.5C 77.9767,374.636 75.6433,372.969 72.5,372.5C 69.5011,368.668 66.0011,365.335 62,362.5C 60.0972,360.559 59.2639,358.226 59.5,355.5C 60.2891,355.217 60.9558,354.717 61.5,354C 59.1856,352.733 56.8522,351.566 54.5,350.5C 52.7295,346.196 51.3961,341.863 50.5,337.5C 50.2053,335.265 50.5386,333.265 51.5,331.5C 52.8721,333.089 54.5388,334.422 56.5,335.5C 55.5153,337.098 55.3486,338.765 56,340.5C 62.6395,347.477 70.1395,353.31 78.5,358C 80.4388,359.432 81.7721,361.265 82.5,363.5C 83.509,366.72 85.509,367.386 88.5,365.5C 88.2865,367.144 88.6198,368.644 89.5,370C 92.4816,370.498 95.4816,370.665 98.5,370.5C 101.124,371.494 103.79,372.494 106.5,373.5C 106.335,376.518 106.502,379.518 107,382.5C 110.131,386.633 113.631,390.466 117.5,394C 128.535,402.68 140.535,409.513 153.5,414.5C 156.902,417.535 160.902,419.535 165.5,420.5C 167.942,422.226 170.609,423.726 173.5,425C 181.37,427.147 189.037,426.981 196.5,424.5C 199.152,424.59 201.485,423.924 203.5,422.5C 207.22,420.157 211.22,418.157 215.5,416.5C 224.501,419.793 233.834,421.126 243.5,420.5C 257.458,419.053 271.458,418.386 285.5,418.5C 285.842,419.338 286.508,419.672 287.5,419.5C 293.32,421.8 299.32,421.967 305.5,420C 306.056,419.617 306.389,419.117 306.5,418.5C 308.145,417.521 309.479,416.188 310.5,414.5C 311.522,414.855 312.189,415.522 312.5,416.5C 312.611,417.117 312.944,417.617 313.5,418C 318.157,419.578 321.157,418.078 322.5,413.5C 325.567,410.118 328.901,406.952 332.5,404C 345.13,395.346 357.796,386.679 370.5,378C 378.517,371.248 385.851,363.914 392.5,356C 393.094,355.536 393.761,355.369 394.5,355.5C 396.833,355.5 399.167,355.5 401.5,355.5C 401.5,352.5 401.5,349.5 401.5,346.5C 402.899,343.371 404.565,340.371 406.5,337.5C 408.245,335.967 409.245,333.967 409.5,331.5C 414.493,321.513 419.493,311.513 424.5,301.5C 425.838,299.725 427.171,298.059 428.5,296.5 Z"/></g>
<g><path style="opacity:0.769" fill="#45423d" d="M 48.5,327.5 C 50.2624,328.262 51.2624,329.596 51.5,331.5C 50.5386,333.265 50.2053,335.265 50.5,337.5C 49.2154,334.411 48.5488,331.078 48.5,327.5 Z"/></g>
<g><path style="opacity:0.996" fill="#544426" d="M 409.5,331.5 C 409.245,333.967 408.245,335.967 406.5,337.5C 406.755,335.033 407.755,333.033 409.5,331.5 Z"/></g>
<g><path style="opacity:0.118" fill="#c0bfbd" d="M 44.5,311.5 C 45.1667,312.833 45.8333,314.167 46.5,315.5C 47.2588,319.477 47.9254,323.477 48.5,327.5C 48.5488,331.078 49.2154,334.411 50.5,337.5C 51.3961,341.863 52.7295,346.196 54.5,350.5C 55.1667,351.5 55.8333,352.5 56.5,353.5C 54.3763,352.969 52.8763,351.635 52,349.5C 48.5331,337.033 46.0331,324.367 44.5,311.5 Z"/></g>
<g><path style="opacity:0.996" fill="#42351d" d="M 401.5,346.5 C 401.5,349.5 401.5,352.5 401.5,355.5C 399.167,355.5 396.833,355.5 394.5,355.5C 396.265,354.539 398.265,354.205 400.5,354.5C 400.194,351.615 400.527,348.948 401.5,346.5 Z"/></g>
<g><path style="opacity:0.886" fill="#494949" d="M 54.5,350.5 C 56.8522,351.566 59.1856,352.733 61.5,354C 60.9558,354.717 60.2891,355.217 59.5,355.5C 59.1788,353.952 58.1788,353.285 56.5,353.5C 55.8333,352.5 55.1667,351.5 54.5,350.5 Z"/></g>
<g><path style="opacity:0.086" fill="#b9b9b8" d="M 56.5,353.5 C 58.1788,353.285 59.1788,353.952 59.5,355.5C 59.2639,358.226 60.0972,360.559 62,362.5C 66.0011,365.335 69.5011,368.668 72.5,372.5C 65.847,369.18 60.847,364.18 57.5,357.5C 57.6082,356.558 57.9415,355.725 58.5,355C 57.5842,354.722 56.9175,354.222 56.5,353.5 Z"/></g>
<g><path style="opacity:0.996" fill="#4c3d38" d="M 237.5,333.5 C 247.722,343.892 257.055,355.058 265.5,367C 267.5,367.667 269.5,367.667 271.5,367C 278.419,359.992 283.419,351.825 286.5,342.5C 287.313,340.739 288.313,339.072 289.5,337.5C 287.442,350.782 281.775,362.282 272.5,372C 269.46,374.155 266.627,373.988 264,371.5C 255.842,358.667 246.175,347 235,336.5C 234.517,335.552 234.351,334.552 234.5,333.5C 235.5,333.5 236.5,333.5 237.5,333.5 Z"/></g>
<g><path style="opacity:0.996" fill="#907541" d="M 82.5,363.5 C 85.0777,364.254 87.7444,364.254 90.5,363.5C 90.5,365.5 90.5,367.5 90.5,369.5C 93.3854,369.194 96.0521,369.527 98.5,370.5C 95.4816,370.665 92.4816,370.498 89.5,370C 88.6198,368.644 88.2865,367.144 88.5,365.5C 85.509,367.386 83.509,366.72 82.5,363.5 Z"/></g>
<g><path style="opacity:0.369" fill="#a4a4a4" d="M 404.5,356.5 C 402.655,361.027 400.655,365.527 398.5,370C 399.649,371.73 399.649,373.396 398.5,375C 396.08,374.012 393.747,374.345 391.5,376C 384.491,383.043 377.491,390.043 370.5,397C 363.121,402.682 355.455,407.849 347.5,412.5C 347.414,411.504 347.748,410.671 348.5,410C 364.007,400.494 377.673,388.827 389.5,375C 392.014,373.748 394.68,373.248 397.5,373.5C 397.375,366.759 399.708,361.092 404.5,356.5 Z"/></g>
<g><path style="opacity:0.055" fill="#c2c2c2" d="M 72.5,372.5 C 75.6433,372.969 77.9767,374.636 79.5,377.5C 76.883,376.214 74.5496,374.547 72.5,372.5 Z"/></g>
<g><path style="opacity:0.125" fill="#b3b2b2" d="M 79.5,377.5 C 80.552,377.351 81.552,377.517 82.5,378C 83.3994,379.652 84.3994,381.152 85.5,382.5C 86.9179,384.308 88.9179,384.975 91.5,384.5C 91.5,386.167 91.5,387.833 91.5,389.5C 90.7677,388.192 89.9344,386.858 89,385.5C 87.8869,386.711 86.7202,386.711 85.5,385.5C 83.8603,382.532 81.8603,379.865 79.5,377.5 Z"/></g>
<g><path style="opacity:0.878" fill="#636363" d="M 85.5,382.5 C 87.717,383.369 90.0504,383.702 92.5,383.5C 92.5,385.167 92.5,386.833 92.5,388.5C 95.5184,388.335 98.5184,388.502 101.5,389C 102.056,389.383 102.389,389.883 102.5,390.5C 101.833,390.5 101.167,390.5 100.5,390.5C 97.3915,390.736 94.3915,390.403 91.5,389.5C 91.5,387.833 91.5,386.167 91.5,384.5C 88.9179,384.975 86.9179,384.308 85.5,382.5 Z"/></g>
<g><path style="opacity:0.035" fill="#cfcfcf" d="M 100.5,390.5 C 101.167,390.5 101.833,390.5 102.5,390.5C 102.833,390.5 103.167,390.5 103.5,390.5C 103.833,391.167 104.167,391.833 104.5,392.5C 102.847,392.34 101.514,391.674 100.5,390.5 Z"/></g>
<g><path style="opacity:0.184" fill="#969696" d="M 103.5,390.5 C 105.17,390.751 106.67,391.418 108,392.5C 107.878,397.032 109.211,401.032 112,404.5C 117.958,410.206 124.125,415.539 130.5,420.5C 122.248,416.427 115.082,410.76 109,403.5C 107.692,400.27 106.692,396.936 106,393.5C 105.617,392.944 105.117,392.611 104.5,392.5C 104.167,391.833 103.833,391.167 103.5,390.5 Z"/></g>
<g><path style="opacity:0.996" fill="#836a3b" d="M 153.5,414.5 C 158.018,415.556 162.018,417.556 165.5,420.5C 160.902,419.535 156.902,417.535 153.5,414.5 Z"/></g>
<g><path style="opacity:0.996" fill="#3f331d" d="M 322.5,413.5 C 321.157,418.078 318.157,419.578 313.5,418C 312.944,417.617 312.611,417.117 312.5,416.5C 314.455,417.323 316.455,417.49 318.5,417C 319.705,415.624 321.038,414.458 322.5,413.5 Z"/></g>
<g><path style="opacity:0.996" fill="#6b5630" d="M 285.5,418.5 C 271.458,418.386 257.458,419.053 243.5,420.5C 247.944,419.187 252.611,418.354 257.5,418C 267.009,417.176 276.343,417.342 285.5,418.5 Z"/></g>
<g><path style="opacity:0.996" fill="#7b6438" d="M 306.5,418.5 C 306.389,419.117 306.056,419.617 305.5,420C 299.32,421.967 293.32,421.8 287.5,419.5C 293.892,419.751 300.225,419.418 306.5,418.5 Z"/></g>
<g><path style="opacity:0.102" fill="#ababab" d="M 130.5,420.5 C 132.284,420.893 133.95,421.559 135.5,422.5C 135.833,423.167 136.167,423.833 136.5,424.5C 134.147,423.66 132.147,422.326 130.5,420.5 Z"/></g>
<g><path style="opacity:0.557" fill="#5e5e5e" d="M 135.5,422.5 C 137.434,423.11 139.101,424.11 140.5,425.5C 139.833,425.5 139.167,425.5 138.5,425.5C 137.508,425.672 136.842,425.338 136.5,424.5C 136.167,423.833 135.833,423.167 135.5,422.5 Z"/></g>
<g><path style="opacity:0.996" fill="#564627" d="M 203.5,422.5 C 201.485,423.924 199.152,424.59 196.5,424.5C 198.515,423.076 200.848,422.41 203.5,422.5 Z"/></g>
<g><path style="opacity:0.165" fill="#a7a7a7" d="M 347.5,412.5 C 337.019,419.93 327.019,428.097 317.5,437C 314.534,437.895 311.867,437.395 309.5,435.5C 308.378,436.63 307.044,437.297 305.5,437.5C 306.084,435.743 307.251,434.41 309,433.5C 312.105,435.742 315.272,435.909 318.5,434C 326.66,424.656 336.326,417.489 347.5,412.5 Z"/></g>
<g><path style="opacity:0.059" fill="#c5c5c5" d="M 138.5,425.5 C 139.167,425.5 139.833,425.5 140.5,425.5C 140.833,426.167 141.167,426.833 141.5,427.5C 139.973,427.573 138.973,426.906 138.5,425.5 Z"/></g>
<g><path style="opacity:0.561" fill="#8e8e8e" d="M 141.5,427.5 C 147.227,429.364 152.894,431.531 158.5,434C 160.747,435.277 162.747,436.777 164.5,438.5C 156.399,435.615 148.733,431.949 141.5,427.5 Z"/></g>
<g><path style="opacity:0.667" fill="#545454" d="M 218.5,435.5 C 216.139,435.674 213.806,436.007 211.5,436.5C 213.655,434.466 215.988,434.133 218.5,435.5 Z"/></g>
<g><path style="opacity:0.827" fill="#4b4b4b" d="M 218.5,435.5 C 221.781,435.42 224.781,436.087 227.5,437.5C 226.167,437.5 224.833,437.5 223.5,437.5C 223.167,437.5 222.833,437.5 222.5,437.5C 221.167,436.833 219.833,436.167 218.5,435.5 Z"/></g>
<g><path style="opacity:0.678" fill="#676767" d="M 280.5,437.5 C 272.833,437.5 265.167,437.5 257.5,437.5C 255.167,437.5 252.833,437.5 250.5,437.5C 256.26,436 262.26,435.333 268.5,435.5C 272.893,435.509 276.893,436.176 280.5,437.5 Z"/></g>
<g><path style="opacity:0.224" fill="#c5c5c5" d="M 223.5,437.5 C 224.833,437.5 226.167,437.5 227.5,437.5C 235.108,438.632 242.775,438.632 250.5,437.5C 252.833,437.5 255.167,437.5 257.5,437.5C 251.024,438.854 244.357,439.854 237.5,440.5C 232.598,439.982 227.931,438.982 223.5,437.5 Z"/></g>
<g><path style="opacity:0.151" fill="#aeaeae" d="M 305.5,437.5 C 304.942,438.79 303.942,439.623 302.5,440C 300.5,440.167 298.5,440.333 296.5,440.5C 293.186,440.657 290.186,439.991 287.5,438.5C 293.559,438.746 299.559,438.413 305.5,437.5 Z"/></g>
<g><path style="opacity:0.255" fill="#9f9f9f" d="M 218.5,435.5 C 219.833,436.167 221.167,436.833 222.5,437.5C 220.409,437.682 218.409,437.348 216.5,436.5C 210.813,439.618 204.813,441.952 198.5,443.5C 199.167,442.833 199.833,442.167 200.5,441.5C 204.237,440.134 207.904,438.467 211.5,436.5C 213.806,436.007 216.139,435.674 218.5,435.5 Z"/></g>
<g><path style="opacity:0.667" fill="#434343" d="M 200.5,441.5 C 199.833,442.167 199.167,442.833 198.5,443.5C 192.344,444.601 186.344,444.601 180.5,443.5C 187.242,443.489 193.908,442.822 200.5,441.5 Z"/></g>
<g><path style="opacity:0.106" fill="#acacac" d="M 164.5,438.5 C 169.849,440.178 175.182,441.844 180.5,443.5C 186.344,444.601 192.344,444.601 198.5,443.5C 186.333,447.418 174.999,445.751 164.5,438.5 Z"/></g>
</svg>
