<?xml version="1.0" encoding="UTF-8"?>
<!DOCTYPE svg PUBLIC "-//W3C//DTD SVG 1.1//EN" "http://www.w3.org/Graphics/SVG/1.1/DTD/svg11.dtd">
<svg xmlns="http://www.w3.org/2000/svg" version="1.1" width="468px" height="452px" style="shape-rendering:geometricPrecision; text-rendering:geometricPrecision; image-rendering:optimizeQuality; fill-rule:evenodd; clip-rule:evenodd" xmlns:xlink="http://www.w3.org/1999/xlink">
<g><path style="opacity:0.067" fill="#e0d2b8" d="M 310.5,56.5 C 304.579,55.0988 298.913,52.9321 293.5,50C 287.891,48.6159 282.225,48.2825 276.5,49C 270.481,51.1694 264.481,53.3361 258.5,55.5C 258.953,54.5416 259.619,53.7083 260.5,53C 277.98,44.7164 294.647,45.883 310.5,56.5 Z"/></g>
<g><path style="opacity:0.996" fill="#b59352" d="M 310.5,56.5 C 312.992,59.6747 316.326,61.3414 320.5,61.5C 323.856,62.6107 326.856,64.2774 329.5,66.5C 336.166,71.124 343.166,75.4573 350.5,79.5C 352.696,82.8701 355.53,85.8701 359,88.5C 359.26,90.6175 360.26,92.2842 362,93.5C 362.182,96.2263 362.682,98.8929 363.5,101.5C 368.459,104.109 373.793,105.442 379.5,105.5C 379.33,106.822 379.663,107.989 380.5,109C 383.749,109.003 386.416,110.17 388.5,112.5C 388.961,114.55 389.628,116.55 390.5,118.5C 400.252,122.247 407.918,128.58 413.5,137.5C 412.833,138.5 412.167,139.5 411.5,140.5C 413.73,141.783 416.063,142.783 418.5,143.5C 420.994,152.231 423.327,160.898 425.5,169.5C 425.368,184.025 426.035,198.359 427.5,212.5C 427.804,215.522 428.304,218.522 429,221.5C 429.377,222.942 430.21,223.942 431.5,224.5C 434.544,230.061 436.877,235.895 438.5,242C 438.42,243.894 438.087,245.727 437.5,247.5C 432.682,249.756 432.348,252.423 436.5,255.5C 435.807,256.518 435.141,257.518 434.5,258.5C 433.235,259.514 432.569,261.014 432.5,263C 432.508,264.707 432.842,266.207 433.5,267.5C 433.848,273.987 433.182,280.32 431.5,286.5C 431.5,286.833 431.5,287.167 431.5,287.5C 430.833,288.167 430.167,288.833 429.5,289.5C 420.333,306.843 411.166,324.176 402,341.5C 401.503,343.81 401.337,346.143 401.5,348.5C 398.68,348.248 396.014,348.748 393.5,350C 378.201,367.304 360.534,381.637 340.5,393C 333.206,398.626 326.206,404.626 319.5,411C 316.86,411.839 314.527,411.339 312.5,409.5C 310.64,410.26 308.973,411.26 307.5,412.5C 301.225,413.418 294.892,413.751 288.5,413.5C 288.082,412.778 287.416,412.278 286.5,412C 271.125,411.263 255.792,411.763 240.5,413.5C 234.491,413.233 228.491,412.9 222.5,412.5C 220.007,410.416 217.34,410.083 214.5,411.5C 207.778,414.856 200.778,417.689 193.5,420C 187.109,420.758 180.776,420.424 174.5,419C 165.844,415.294 157.51,411.127 149.5,406.5C 147.967,404.755 145.967,403.755 143.5,403.5C 134.887,398.856 126.554,393.69 118.5,388C 114.584,384.59 111.251,380.757 108.5,376.5C 108.01,373.345 107.344,370.345 106.5,367.5C 101.495,365.213 96.1615,364.047 90.5,364C 89.6198,362.644 89.2865,361.144 89.5,359.5C 87.8008,359.66 86.1341,359.494 84.5,359C 82.8333,356.667 81.1667,354.333 79.5,352C 75.4543,349.983 71.7876,347.483 68.5,344.5C 67.0892,342.086 65.0892,340.419 62.5,339.5C 57.5157,337.222 55.849,333.555 57.5,328.5C 56.7375,327.732 55.7375,327.232 54.5,327C 52.9343,324.674 51.2676,322.508 49.5,320.5C 49.0104,317.345 48.3438,314.345 47.5,311.5C 44.5327,296.698 43.0327,281.698 43,266.5C 41.9614,265.756 41.4614,264.756 41.5,263.5C 43.6119,255.847 42.2786,248.847 37.5,242.5C 37.5,242.167 37.5,241.833 37.5,241.5C 33.098,235.959 31.098,229.626 31.5,222.5C 31.3284,221.508 31.6618,220.842 32.5,220.5C 37.2253,218.627 37.5587,216.293 33.5,213.5C 35.7025,211.705 36.8692,209.371 37,206.5C 37.3333,199.833 37.6667,193.167 38,186.5C 41.1969,180.73 43.6969,174.73 45.5,168.5C 48.415,164.327 51.2483,159.994 54,155.5C 56.643,148.711 59.4764,142.044 62.5,135.5C 64.0744,135.063 65.2411,134.063 66,132.5C 67.7387,128.689 68.572,124.689 68.5,120.5C 73.2265,120.952 77.0598,119.285 80,115.5C 80.4828,114.552 80.6495,113.552 80.5,112.5C 80.5,111.833 80.8333,111.5 81.5,111.5C 81.4346,111.938 81.6012,112.272 82,112.5C 88.8081,105.183 95.9747,98.516 103.5,92.5C 108.365,90.2371 112.698,87.2371 116.5,83.5C 120.486,82.3569 124.153,80.5236 127.5,78C 131.157,74.502 134.824,71.002 138.5,67.5C 143.547,65.2922 147.547,61.7922 150.5,57C 151.167,56.8333 151.833,56.6667 152.5,56.5C 156.423,60.8344 159.756,60.5011 162.5,55.5C 185.068,56.6382 207.735,56.6382 230.5,55.5C 239.155,56.5554 247.822,57.0554 256.5,57C 257.056,56.6174 257.389,56.1174 257.5,55.5C 257.833,55.5 258.167,55.5 258.5,55.5C 264.481,53.3361 270.481,51.1694 276.5,49C 282.225,48.2825 287.891,48.6159 293.5,50C 298.913,52.9321 304.579,55.0988 310.5,56.5 Z"/></g>
<g><path style="opacity:0.839" fill="#dac8a6" d="M 257.5,55.5 C 257.389,56.1174 257.056,56.6174 256.5,57C 247.822,57.0554 239.155,56.5554 230.5,55.5C 207.735,56.6382 185.068,56.6382 162.5,55.5C 164.332,53.1058 166.832,52.1058 170,52.5C 190.238,56.1109 210.571,56.4442 231,53.5C 238.237,53.9331 245.403,54.9331 252.5,56.5C 254.207,56.2716 255.874,55.9383 257.5,55.5 Z"/></g>
<g><path style="opacity:0.11" fill="#eadfcb" d="M 162.5,55.5 C 159.756,60.5011 156.423,60.8344 152.5,56.5C 151.833,56.6667 151.167,56.8333 150.5,57C 147.547,61.7922 143.547,65.2922 138.5,67.5C 142.637,64.195 146.303,60.3616 149.5,56C 152.711,55.2018 155.711,55.7018 158.5,57.5C 159.622,56.3698 160.956,55.7031 162.5,55.5 Z"/></g>
<g><path style="opacity:0.196" fill="#e6dcbb" d="M 310.5,56.5 C 313.877,58.1749 317.211,59.8416 320.5,61.5C 316.326,61.3414 312.992,59.6747 310.5,56.5 Z"/></g>
<g><path style="opacity:0.129" fill="#dfd2b5" d="M 329.5,66.5 C 337.313,69.5707 344.313,73.904 350.5,79.5C 343.166,75.4573 336.166,71.124 329.5,66.5 Z"/></g>
<g><path style="opacity:0.749" fill="#ddcdad" d="M 138.5,67.5 C 134.824,71.002 131.157,74.502 127.5,78C 124.153,80.5236 120.486,82.3569 116.5,83.5C 123.548,77.787 130.881,72.4536 138.5,67.5 Z"/></g>
<g><path style="opacity:0.188" fill="#e7dcc4" d="M 116.5,83.5 C 112.698,87.2371 108.365,90.2371 103.5,92.5C 107.302,88.7629 111.635,85.7629 116.5,83.5 Z"/></g>
<g><path style="opacity:0.651" fill="#dfd0b1" d="M 350.5,79.5 C 359.008,84.006 364.008,91.006 365.5,100.5C 370.201,102.858 375.201,104.025 380.5,104C 381.46,105.419 382.293,106.919 383,108.5C 386.496,107.132 388.33,108.466 388.5,112.5C 386.416,110.17 383.749,109.003 380.5,109C 379.663,107.989 379.33,106.822 379.5,105.5C 373.793,105.442 368.459,104.109 363.5,101.5C 362.682,98.8929 362.182,96.2263 362,93.5C 360.26,92.2842 359.26,90.6175 359,88.5C 355.53,85.8701 352.696,82.8701 350.5,79.5 Z"/></g>
<g><path style="opacity:0.996" fill="#bf2c1b" d="M 260.5,117.5 C 259.076,119.515 258.41,121.848 258.5,124.5C 257.732,125.263 257.232,126.263 257,127.5C 256.501,132.823 256.334,138.156 256.5,143.5C 257.791,143.737 258.791,143.404 259.5,142.5C 272.944,136.565 287.111,132.565 302,130.5C 306.077,130.273 309.91,131.107 313.5,133C 315.684,134.898 316.017,137.064 314.5,139.5C 314.167,139.5 313.833,139.5 313.5,139.5C 310.053,140.083 307.053,141.416 304.5,143.5C 300.64,143.808 296.974,144.475 293.5,145.5C 288.876,145.763 284.542,146.763 280.5,148.5C 277.061,148.253 273.728,148.586 270.5,149.5C 265.5,149.5 260.5,149.5 255.5,149.5C 255.5,151.5 255.5,153.5 255.5,155.5C 255.5,156.833 255.5,158.167 255.5,159.5C 254.574,166.323 253.907,173.323 253.5,180.5C 253.505,182.696 253.838,184.696 254.5,186.5C 279.784,182.66 304.951,178.66 330,174.5C 339.114,174.237 347.614,176.404 355.5,181C 357.715,183.242 358.048,185.742 356.5,188.5C 352.781,189.72 348.947,190.387 345,190.5C 310.641,188.464 276.475,190.13 242.5,195.5C 244.91,197.372 247.577,198.705 250.5,199.5C 252.127,201.63 253.96,203.63 256,205.5C 256.494,207.134 256.66,208.801 256.5,210.5C 255.833,210.5 255.5,210.833 255.5,211.5C 253.989,214.544 253.322,217.878 253.5,221.5C 253.5,235.833 253.5,250.167 253.5,264.5C 253.5,265.167 253.5,265.833 253.5,266.5C 251.066,269.849 248.733,273.349 246.5,277C 242.779,277.794 240.445,276.294 239.5,272.5C 238.62,265.877 238.287,259.211 238.5,252.5C 238.5,251.5 238.5,250.5 238.5,249.5C 241.167,235.833 241.167,222.167 238.5,208.5C 237.914,204.002 236.248,200.002 233.5,196.5C 227.809,196.98 222.142,197.646 216.5,198.5C 212.51,198.999 208.51,199.499 204.5,200C 203.944,200.383 203.611,200.883 203.5,201.5C 186.822,203.668 170.489,207.168 154.5,212C 145.549,213.605 137.215,212.105 129.5,207.5C 127.919,205.858 127.253,203.858 127.5,201.5C 150.196,199.493 172.862,197.16 195.5,194.5C 195.647,189.786 195.314,185.119 194.5,180.5C 194.202,172.043 193.035,163.709 191,155.5C 190.617,154.944 190.117,154.611 189.5,154.5C 188.748,149.863 186.415,146.196 182.5,143.5C 181.677,141.545 181.51,139.545 182,137.5C 191.214,137.012 199.714,139.345 207.5,144.5C 208.911,147.324 208.745,149.99 207,152.5C 206.333,165.5 206.333,178.5 207,191.5C 208.616,192.801 210.116,192.801 211.5,191.5C 217.13,190.708 222.797,190.375 228.5,190.5C 232.466,189.838 236.466,189.505 240.5,189.5C 240.83,168.993 240.497,148.66 239.5,128.5C 238.89,127.609 238.557,126.609 238.5,125.5C 238.505,118.49 235.839,112.823 230.5,108.5C 230.244,106.208 230.577,104.041 231.5,102C 237.932,101.522 244.265,102.188 250.5,104C 253.917,105.793 257.084,107.959 260,110.5C 260.497,112.81 260.663,115.143 260.5,117.5 Z"/></g>
<g><path style="opacity:0.267" fill="#e6dabd" d="M 103.5,92.5 C 95.9747,98.516 88.8081,105.183 82,112.5C 81.6012,112.272 81.4346,111.938 81.5,111.5C 87.6478,103.678 94.9812,97.3444 103.5,92.5 Z"/></g>
<g><path style="opacity:0.996" fill="#4e3e38" d="M 230.5,108.5 C 235.839,112.823 238.505,118.49 238.5,125.5C 236.806,121.137 234.306,117.137 231,113.5C 230.506,111.866 230.34,110.199 230.5,108.5 Z"/></g>
<g><path style="opacity:0.125" fill="#e2d4b7" d="M 80.5,112.5 C 80.6495,113.552 80.4828,114.552 80,115.5C 77.0598,119.285 73.2265,120.952 68.5,120.5C 68.572,124.689 67.7387,128.689 66,132.5C 65.2411,134.063 64.0744,135.063 62.5,135.5C 63.3795,132.738 64.5462,130.071 66,127.5C 66.4974,124.854 66.6641,122.187 66.5,119.5C 72.5122,119.814 77.1788,117.48 80.5,112.5 Z"/></g>
<g><path style="opacity:0.063" fill="#e3d3b8" d="M 388.5,112.5 C 396.077,118.226 403.577,124.226 411,130.5C 412.692,132.359 414.192,134.359 415.5,136.5C 414.674,137.451 414.508,138.451 415,139.5C 416.627,140.532 417.793,141.866 418.5,143.5C 416.063,142.783 413.73,141.783 411.5,140.5C 412.167,139.5 412.833,138.5 413.5,137.5C 407.918,128.58 400.252,122.247 390.5,118.5C 389.628,116.55 388.961,114.55 388.5,112.5 Z"/></g>
<g><path style="opacity:0.996" fill="#624236" d="M 260.5,117.5 C 260.678,121.122 260.011,124.456 258.5,127.5C 258.5,126.5 258.5,125.5 258.5,124.5C 258.41,121.848 259.076,119.515 260.5,117.5 Z"/></g>
<g><path style="opacity:0.996" fill="#9b482f" d="M 258.5,124.5 C 258.5,125.5 258.5,126.5 258.5,127.5C 257.939,130.282 257.606,133.116 257.5,136C 257.533,138.61 258.2,140.777 259.5,142.5C 258.791,143.404 257.791,143.737 256.5,143.5C 256.334,138.156 256.501,132.823 257,127.5C 257.232,126.263 257.732,125.263 258.5,124.5 Z"/></g>
<g><path style="opacity:0.996" fill="#6f2e28" d="M 313.5,139.5 C 312.097,140.931 310.431,142.098 308.5,143C 307.207,143.49 305.873,143.657 304.5,143.5C 307.053,141.416 310.053,140.083 313.5,139.5 Z"/></g>
<g><path style="opacity:0.996" fill="#423c3a" d="M 313.5,139.5 C 313.833,139.5 314.167,139.5 314.5,139.5C 315.666,141.166 315.666,142.833 314.5,144.5C 306.866,148.292 298.866,150.959 290.5,152.5C 283.83,152.889 277.164,153.389 270.5,154C 269.944,154.383 269.611,154.883 269.5,155.5C 265.167,155.5 260.833,155.5 256.5,155.5C 256.5,153.833 256.5,152.167 256.5,150.5C 261.363,150.819 266.03,150.486 270.5,149.5C 273.728,148.586 277.061,148.253 280.5,148.5C 284.163,148.048 287.83,147.548 291.5,147C 292.416,146.722 293.082,146.222 293.5,145.5C 296.974,144.475 300.64,143.808 304.5,143.5C 305.873,143.657 307.207,143.49 308.5,143C 310.431,142.098 312.097,140.931 313.5,139.5 Z"/></g>
<g><path style="opacity:0.533" fill="#e3d6bb" d="M 62.5,135.5 C 59.4764,142.044 56.643,148.711 54,155.5C 51.2483,159.994 48.415,164.327 45.5,168.5C 50.4046,157.022 56.0713,146.022 62.5,135.5 Z"/></g>
<g><path style="opacity:0.996" fill="#702b27" d="M 293.5,145.5 C 293.082,146.222 292.416,146.722 291.5,147C 287.83,147.548 284.163,148.048 280.5,148.5C 284.542,146.763 288.876,145.763 293.5,145.5 Z"/></g>
<g><path style="opacity:0.996" fill="#6a2d29" d="M 270.5,149.5 C 266.03,150.486 261.363,150.819 256.5,150.5C 256.5,152.167 256.5,153.833 256.5,155.5C 256.167,155.5 255.833,155.5 255.5,155.5C 255.5,153.5 255.5,151.5 255.5,149.5C 260.5,149.5 265.5,149.5 270.5,149.5 Z"/></g>
<g><path style="opacity:0.996" fill="#ad7343" d="M 239.5,128.5 C 240.497,148.66 240.83,168.993 240.5,189.5C 236.466,189.505 232.466,189.838 228.5,190.5C 228.918,189.778 229.584,189.278 230.5,189C 233.482,188.502 236.482,188.335 239.5,188.5C 239.5,168.5 239.5,148.5 239.5,128.5 Z"/></g>
<g><path style="opacity:0.996" fill="#52443a" d="M 182.5,143.5 C 186.415,146.196 188.748,149.863 189.5,154.5C 190.265,157.096 190.599,159.763 190.5,162.5C 189.26,156.697 186.427,151.697 182,147.5C 181.235,145.934 181.402,144.601 182.5,143.5 Z"/></g>
<g><path style="opacity:0.996" fill="#6e5f44" d="M 290.5,152.5 C 283.737,154.223 276.737,155.223 269.5,155.5C 269.611,154.883 269.944,154.383 270.5,154C 277.164,153.389 283.83,152.889 290.5,152.5 Z"/></g>
<g><path style="opacity:0.176" fill="#e4d5bc" d="M 418.5,143.5 C 420.745,146.754 422.245,150.42 423,154.5C 423.9,159.501 424.734,164.501 425.5,169.5C 423.327,160.898 420.994,152.231 418.5,143.5 Z"/></g>
<g><path style="opacity:0.996" fill="#7c3f2f" d="M 189.5,154.5 C 190.117,154.611 190.617,154.944 191,155.5C 193.035,163.709 194.202,172.043 194.5,180.5C 193.449,174.527 192.116,168.527 190.5,162.5C 190.599,159.763 190.265,157.096 189.5,154.5 Z"/></g>
<g><path style="opacity:0.996" fill="#a6653c" d="M 207.5,144.5 C 209.026,145.492 209.693,146.992 209.5,149C 208.56,163.146 208.227,177.313 208.5,191.5C 209.5,191.5 210.5,191.5 211.5,191.5C 210.116,192.801 208.616,192.801 207,191.5C 206.333,178.5 206.333,165.5 207,152.5C 208.745,149.99 208.911,147.324 207.5,144.5 Z"/></g>
<g><path style="opacity:0.996" fill="#9e5635" d="M 255.5,159.5 C 255.68,168.528 255.347,177.528 254.5,186.5C 253.838,184.696 253.505,182.696 253.5,180.5C 253.907,173.323 254.574,166.323 255.5,159.5 Z"/></g>
<g><path style="opacity:0.188" fill="#d7c49e" d="M 425.5,169.5 C 427.231,177.599 427.898,185.932 427.5,194.5C 427.5,200.5 427.5,206.5 427.5,212.5C 426.035,198.359 425.368,184.025 425.5,169.5 Z"/></g>
<g><path style="opacity:0.996" fill="#443a38" d="M 356.5,188.5 C 357.456,193.597 355.122,195.931 349.5,195.5C 331.18,194.447 312.847,194.281 294.5,195C 292.292,195.191 290.292,195.691 288.5,196.5C 275.835,197.648 263.169,198.648 250.5,199.5C 247.577,198.705 244.91,197.372 242.5,195.5C 276.475,190.13 310.641,188.464 345,190.5C 348.947,190.387 352.781,189.72 356.5,188.5 Z"/></g>
<g><path style="opacity:0.198" fill="#e1d1b5" d="M 45.5,168.5 C 43.6969,174.73 41.1969,180.73 38,186.5C 37.6667,193.167 37.3333,199.833 37,206.5C 36.8692,209.371 35.7025,211.705 33.5,213.5C 37.5587,216.293 37.2253,218.627 32.5,220.5C 32.5743,218.589 33.5743,217.422 35.5,217C 33.9386,216.059 32.6053,214.892 31.5,213.5C 32.8613,211.972 34.028,210.305 35,208.5C 35.3333,201.167 35.6667,193.833 36,186.5C 38.4316,179.964 41.5982,173.964 45.5,168.5 Z"/></g>
<g><path style="opacity:0.996" fill="#655942" d="M 349.5,195.5 C 329.335,195.194 309.002,195.527 288.5,196.5C 290.292,195.691 292.292,195.191 294.5,195C 312.847,194.281 331.18,194.447 349.5,195.5 Z"/></g>
<g><path style="opacity:0.996" fill="#453d39" d="M 233.5,196.5 C 233.517,198.565 233.85,200.565 234.5,202.5C 219.558,203.38 204.891,205.714 190.5,209.5C 180.751,210.883 171.085,212.716 161.5,215C 160.944,215.383 160.611,215.883 160.5,216.5C 152.102,219.274 143.769,219.107 135.5,216C 131.447,215.44 128.781,213.273 127.5,209.5C 127.747,208.287 128.414,207.62 129.5,207.5C 137.215,212.105 145.549,213.605 154.5,212C 170.489,207.168 186.822,203.668 203.5,201.5C 208.249,201.281 212.583,200.281 216.5,198.5C 222.142,197.646 227.809,196.98 233.5,196.5 Z"/></g>
<g><path style="opacity:0.996" fill="#5f312d" d="M 216.5,198.5 C 212.583,200.281 208.249,201.281 203.5,201.5C 203.611,200.883 203.944,200.383 204.5,200C 208.51,199.499 212.51,198.999 216.5,198.5 Z"/></g>
<g><path style="opacity:0.996" fill="#5f3d34" d="M 233.5,196.5 C 236.248,200.002 237.914,204.002 238.5,208.5C 238.5,210.833 238.5,213.167 238.5,215.5C 237.34,211.214 236.006,206.88 234.5,202.5C 233.85,200.565 233.517,198.565 233.5,196.5 Z"/></g>
<g><path style="opacity:0.996" fill="#c02c1b" d="M 319.5,227.5 C 316.586,228.906 314.086,230.906 312,233.5C 294.299,263.55 272.466,290.384 246.5,314C 220.46,334.408 191.127,347.574 158.5,353.5C 156.833,353.5 155.167,353.5 153.5,353.5C 153.5,350.167 155.167,348.5 158.5,348.5C 162.78,347.759 166.446,346.093 169.5,343.5C 228.543,320.292 270.376,279.292 295,220.5C 295.333,216.833 295.667,213.167 296,209.5C 297.808,207.604 299.975,207.104 302.5,208C 308.921,211.426 314.421,215.926 319,221.5C 319.495,223.473 319.662,225.473 319.5,227.5 Z"/></g>
<g><path style="opacity:0.996" fill="#816d48" d="M 190.5,209.5 C 189.158,210.793 187.491,211.626 185.5,212C 176.923,212.722 168.59,214.222 160.5,216.5C 160.611,215.883 160.944,215.383 161.5,215C 171.085,212.716 180.751,210.883 190.5,209.5 Z"/></g>
<g><path style="opacity:0.996" fill="#74372c" d="M 255.5,211.5 C 255.451,215.078 254.785,218.411 253.5,221.5C 253.322,217.878 253.989,214.544 255.5,211.5 Z"/></g>
<g><path style="opacity:0.275" fill="#ece3cc" d="M 427.5,194.5 C 428.328,200.987 428.828,207.654 429,214.5C 430.143,217.777 430.977,221.11 431.5,224.5C 430.21,223.942 429.377,222.942 429,221.5C 428.304,218.522 427.804,215.522 427.5,212.5C 427.5,206.5 427.5,200.5 427.5,194.5 Z"/></g>
<g><path style="opacity:0.996" fill="#a25735" d="M 238.5,208.5 C 241.167,222.167 241.167,235.833 238.5,249.5C 238.5,238.167 238.5,226.833 238.5,215.5C 238.5,213.167 238.5,210.833 238.5,208.5 Z"/></g>
<g><path style="opacity:0.996" fill="#bf2d1c" d="M 199.5,229.5 C 201.317,234.241 201.984,239.241 201.5,244.5C 201.5,244.833 201.5,245.167 201.5,245.5C 198.033,255.916 192.366,265.083 184.5,273C 182.606,274.404 180.606,275.57 178.5,276.5C 175.786,275.786 174.119,274.119 173.5,271.5C 172.189,267.317 172.189,262.984 173.5,258.5C 175.585,253.222 178.752,248.555 183,244.5C 186.05,239.342 188.717,234.008 191,228.5C 194.366,223.112 197.199,223.445 199.5,229.5 Z"/></g>
<g><path style="opacity:0.09" fill="#e2d6c1" d="M 431.5,224.5 C 438.276,230.663 440.776,238.329 439,247.5C 438.215,249.286 437.049,250.786 435.5,252C 439.119,254.024 439.286,256.191 436,258.5C 435.231,266.491 434.565,274.491 434,282.5C 433.392,284.066 432.558,285.4 431.5,286.5C 433.182,280.32 433.848,273.987 433.5,267.5C 434.299,264.57 434.632,261.57 434.5,258.5C 435.141,257.518 435.807,256.518 436.5,255.5C 432.348,252.423 432.682,249.756 437.5,247.5C 438.087,245.727 438.42,243.894 438.5,242C 436.877,235.895 434.544,230.061 431.5,224.5 Z"/></g>
<g><path style="opacity:0.996" fill="#aa7e49" d="M 256.5,210.5 C 256.894,211.967 257.227,213.467 257.5,215C 256.086,217.951 255.253,221.118 255,224.5C 254.831,238.006 254.331,251.34 253.5,264.5C 253.5,250.167 253.5,235.833 253.5,221.5C 254.785,218.411 255.451,215.078 255.5,211.5C 255.5,210.833 255.833,210.5 256.5,210.5 Z"/></g>
<g><path style="opacity:0.325" fill="#e9dac3" d="M 31.5,222.5 C 31.098,229.626 33.098,235.959 37.5,241.5C 36.8333,241.5 36.1667,241.5 35.5,241.5C 33.7545,238.337 32.2545,235.004 31,231.5C 30.1955,228.304 30.3622,225.304 31.5,222.5 Z"/></g>
<g><path style="opacity:0.996" fill="#b65834" d="M 199.5,229.5 C 200.458,229.953 201.292,230.619 202,231.5C 202.814,236.02 202.647,240.354 201.5,244.5C 201.984,239.241 201.317,234.241 199.5,229.5 Z"/></g>
<g><path style="opacity:0.995" fill="#120f0b" d="M 37.5,242.5 C 42.2786,248.847 43.6119,255.847 41.5,263.5C 39.3887,259.347 37.5554,255.014 36,250.5C 35.115,247.462 35.615,244.795 37.5,242.5 Z"/></g>
<g><path style="opacity:0.996" fill="#b14128" d="M 238.5,252.5 C 238.287,259.211 238.62,265.877 239.5,272.5C 238.833,271.833 238.167,271.167 237.5,270.5C 236.085,264.289 236.418,258.289 238.5,252.5 Z"/></g>
<g><path style="opacity:0.435" fill="#959595" d="M 35.5,241.5 C 36.1667,241.5 36.8333,241.5 37.5,241.5C 37.5,241.833 37.5,242.167 37.5,242.5C 35.615,244.795 35.115,247.462 36,250.5C 37.5554,255.014 39.3887,259.347 41.5,263.5C 41.1667,263.5 40.8333,263.5 40.5,263.5C 34.69,257.078 33.0233,249.745 35.5,241.5 Z"/></g>
<g><path style="opacity:0.98" fill="#806b44" d="M 434.5,258.5 C 434.632,261.57 434.299,264.57 433.5,267.5C 432.842,266.207 432.508,264.707 432.5,263C 432.569,261.014 433.235,259.514 434.5,258.5 Z"/></g>
<g><path style="opacity:0.996" fill="#4a3d39" d="M 201.5,245.5 C 199.282,258.908 193.282,270.408 183.5,280C 180.906,281.601 178.239,281.767 175.5,280.5C 174.067,277.667 173.4,274.667 173.5,271.5C 174.119,274.119 175.786,275.786 178.5,276.5C 180.606,275.57 182.606,274.404 184.5,273C 192.366,265.083 198.033,255.916 201.5,245.5 Z"/></g>
<g><path style="opacity:0.996" fill="#4f4039" d="M 253.5,266.5 C 252.858,272.666 250.525,278.166 246.5,283C 244.299,283.825 242.466,283.325 241,281.5C 239.012,278.043 237.846,274.377 237.5,270.5C 238.167,271.167 238.833,271.833 239.5,272.5C 240.445,276.294 242.779,277.794 246.5,277C 248.733,273.349 251.066,269.849 253.5,266.5 Z"/></g>
<g><path style="opacity:0.996" fill="#493c38" d="M 319.5,227.5 C 319.702,229.989 319.202,232.323 318,234.5C 315.372,236.126 313.039,238.126 311,240.5C 294.52,267.653 275.02,292.487 252.5,315C 223.688,339.071 190.688,353.905 153.5,359.5C 153.351,358.448 153.517,357.448 154,356.5C 155.878,355.947 157.378,354.947 158.5,353.5C 191.127,347.574 220.46,334.408 246.5,314C 272.466,290.384 294.299,263.55 312,233.5C 314.086,230.906 316.586,228.906 319.5,227.5 Z"/></g>
<g><path style="opacity:0.997" fill="#070605" d="M 429.5,289.5 C 429.55,294.552 429.05,299.552 428,304.5C 418.899,323.479 409.232,342.146 399,360.5C 398.503,362.81 398.337,365.143 398.5,367.5C 395.107,367.062 392.107,367.895 389.5,370C 384.533,375.969 379.199,381.635 373.5,387C 359.11,397.722 344.444,408.056 329.5,418C 325.5,422 321.5,426 317.5,430C 316.167,430.667 314.833,430.667 313.5,430C 312.601,428.764 311.434,427.93 310,427.5C 307.913,429.126 305.747,430.626 303.5,432C 295.98,432.772 288.646,432.272 281.5,430.5C 277.849,429.835 274.015,429.501 270,429.5C 263.601,429.37 257.434,430.037 251.5,431.5C 242.497,432.792 233.497,432.792 224.5,431.5C 222.035,430.583 219.535,429.583 217,428.5C 210.867,431.266 204.701,433.932 198.5,436.5C 192.872,437.495 187.206,437.829 181.5,437.5C 178.564,436.594 175.564,435.928 172.5,435.5C 169.276,432.228 165.276,430.561 160.5,430.5C 152.541,424.848 143.874,420.182 134.5,416.5C 134.027,415.094 133.027,414.427 131.5,414.5C 128.875,411.185 125.542,408.851 121.5,407.5C 118.204,403.702 114.704,400.036 111,396.5C 109.801,393.274 109.301,389.941 109.5,386.5C 108.5,386.5 107.5,386.5 106.5,386.5C 105.41,385.143 104.076,384.143 102.5,383.5C 99.7131,382.523 96.7131,382.19 93.5,382.5C 93.5,380.833 93.5,379.167 93.5,377.5C 91.1667,377.5 88.8333,377.5 86.5,377.5C 85.4277,372.985 82.761,369.985 78.5,368.5C 76.3295,366.914 73.9962,365.58 71.5,364.5C 67.4182,360.587 63.4182,356.42 59.5,352C 59.9031,350.527 60.5697,349.194 61.5,348C 60.2068,347.51 58.8734,347.343 57.5,347.5C 54.6306,342.467 52.6306,337.134 51.5,331.5C 51.3398,329.801 51.5065,328.134 52,326.5C 53.4443,328.155 55.2776,328.822 57.5,328.5C 55.849,333.555 57.5157,337.222 62.5,339.5C 63.9108,341.914 65.9108,343.581 68.5,344.5C 71.7876,347.483 75.4543,349.983 79.5,352C 81.1667,354.333 82.8333,356.667 84.5,359C 86.1341,359.494 87.8008,359.66 89.5,359.5C 89.2865,361.144 89.6198,362.644 90.5,364C 96.1615,364.047 101.495,365.213 106.5,367.5C 106.336,370.187 106.503,372.854 107,375.5C 107.383,376.056 107.883,376.389 108.5,376.5C 111.251,380.757 114.584,384.59 118.5,388C 126.554,393.69 134.887,398.856 143.5,403.5C 145.033,405.245 147.033,406.245 149.5,406.5C 157.51,411.127 165.844,415.294 174.5,419C 180.776,420.424 187.109,420.758 193.5,420C 200.778,417.689 207.778,414.856 214.5,411.5C 217.167,411.833 219.833,412.167 222.5,412.5C 228.427,414.007 234.594,414.674 241,414.5C 256.822,412.75 272.656,412.417 288.5,413.5C 294.335,415.751 300.335,415.918 306.5,414C 307.056,413.617 307.389,413.117 307.5,412.5C 308.973,411.26 310.64,410.26 312.5,409.5C 314.527,411.339 316.86,411.839 319.5,411C 326.206,404.626 333.206,398.626 340.5,393C 360.534,381.637 378.201,367.304 393.5,350C 396.014,348.748 398.68,348.248 401.5,348.5C 401.337,346.143 401.503,343.81 402,341.5C 411.166,324.176 420.333,306.843 429.5,289.5 Z"/></g>
<g><path style="opacity:0.118" fill="#e8dfcd" d="M 40.5,263.5 C 40.8333,263.5 41.1667,263.5 41.5,263.5C 41.4614,264.756 41.9614,265.756 43,266.5C 43.0327,281.698 44.5327,296.698 47.5,311.5C 47.5,313.167 47.5,314.833 47.5,316.5C 46.0204,311.033 44.8537,305.367 44,299.5C 43.2382,287.436 42.0715,275.436 40.5,263.5 Z"/></g>
<g><path style="opacity:0.208" fill="#a7a39a" d="M 47.5,311.5 C 48.3438,314.345 49.0104,317.345 49.5,320.5C 49.5,321.5 49.5,322.5 49.5,323.5C 48.8333,323.167 48.1667,322.833 47.5,322.5C 47.5,320.5 47.5,318.5 47.5,316.5C 47.5,314.833 47.5,313.167 47.5,311.5 Z"/></g>
<g><path style="opacity:0.98" fill="#3b3428" d="M 49.5,320.5 C 51.2676,322.508 52.9343,324.674 54.5,327C 55.7375,327.232 56.7375,327.732 57.5,328.5C 55.2776,328.822 53.4443,328.155 52,326.5C 51.5065,328.134 51.3398,329.801 51.5,331.5C 50.469,329.039 49.8023,326.373 49.5,323.5C 49.5,322.5 49.5,321.5 49.5,320.5 Z"/></g>
<g><path style="opacity:0.067" fill="#d9d9d9" d="M 47.5,322.5 C 48.1667,322.833 48.8333,323.167 49.5,323.5C 49.8023,326.373 50.469,329.039 51.5,331.5C 51.5,333.167 51.5,334.833 51.5,336.5C 49.877,332.022 48.5437,327.356 47.5,322.5 Z"/></g>
<g><path style="opacity:0.996" fill="#6a5630" d="M 62.5,339.5 C 65.0892,340.419 67.0892,342.086 68.5,344.5C 65.9108,343.581 63.9108,341.914 62.5,339.5 Z"/></g>
<g><path style="opacity:0.035" fill="#999999" d="M 51.5,331.5 C 52.6306,337.134 54.6306,342.467 57.5,347.5C 53.2747,345.238 51.2747,341.571 51.5,336.5C 51.5,334.833 51.5,333.167 51.5,331.5 Z"/></g>
<g><path style="opacity:0.996" fill="#ba5933" d="M 169.5,343.5 C 166.446,346.093 162.78,347.759 158.5,348.5C 161.802,346.277 165.468,344.61 169.5,343.5 Z"/></g>
<g><path style="opacity:0.063" fill="#b3b3b3" d="M 57.5,347.5 C 58.8734,347.343 60.2068,347.51 61.5,348C 60.5697,349.194 59.9031,350.527 59.5,352C 63.4182,356.42 67.4182,360.587 71.5,364.5C 66.6505,362.164 62.4839,358.831 59,354.5C 58.2571,352.559 58.4238,350.726 59.5,349C 58.5842,348.722 57.9175,348.222 57.5,347.5 Z"/></g>
<g><path style="opacity:0.071" fill="#a4a4a4" d="M 71.5,364.5 C 73.9962,365.58 76.3295,366.914 78.5,368.5C 78.8333,369.167 79.1667,369.833 79.5,370.5C 76.3984,368.963 73.7317,366.963 71.5,364.5 Z"/></g>
<g><path style="opacity:0.996" fill="#5b4a29" d="M 106.5,367.5 C 107.344,370.345 108.01,373.345 108.5,376.5C 107.883,376.389 107.383,376.056 107,375.5C 106.503,372.854 106.336,370.187 106.5,367.5 Z"/></g>
<g><path style="opacity:0.18" fill="#898989" d="M 78.5,368.5 C 82.761,369.985 85.4277,372.985 86.5,377.5C 86.5,377.833 86.5,378.167 86.5,378.5C 84.1667,375.833 81.8333,373.167 79.5,370.5C 79.1667,369.833 78.8333,369.167 78.5,368.5 Z"/></g>
<g><path style="opacity:0.202" fill="#969696" d="M 86.5,378.5 C 88.5,378.5 90.5,378.5 92.5,378.5C 92.5,380.167 92.5,381.833 92.5,383.5C 91.5655,382.432 91.2322,381.099 91.5,379.5C 90.1779,379.33 89.0113,379.663 88,380.5C 87.2828,379.956 86.7828,379.289 86.5,378.5 Z"/></g>
<g><path style="opacity:0.824" fill="#434343" d="M 86.5,378.5 C 86.5,378.167 86.5,377.833 86.5,377.5C 88.8333,377.5 91.1667,377.5 93.5,377.5C 93.5,379.167 93.5,380.833 93.5,382.5C 96.7131,382.19 99.7131,382.523 102.5,383.5C 99.1667,383.5 95.8333,383.5 92.5,383.5C 92.5,381.833 92.5,380.167 92.5,378.5C 90.5,378.5 88.5,378.5 86.5,378.5 Z"/></g>
<g><path style="opacity:0.173" fill="#c8c8c8" d="M 92.5,383.5 C 95.8333,383.5 99.1667,383.5 102.5,383.5C 104.076,384.143 105.41,385.143 106.5,386.5C 101.779,385.209 97.1122,384.209 92.5,383.5 Z"/></g>
<g><path style="opacity:0.02" fill="#9a9a9a" d="M 106.5,386.5 C 107.5,386.5 108.5,386.5 109.5,386.5C 109.301,389.941 109.801,393.274 111,396.5C 114.704,400.036 118.204,403.702 121.5,407.5C 112.988,402.991 107.988,395.991 106.5,386.5 Z"/></g>
<g><path style="opacity:0.122" fill="#a7a7a7" d="M 431.5,287.5 C 432.012,294.031 431.178,300.364 429,306.5C 421.036,322.769 412.703,338.769 404,354.5C 401.497,359.061 399.997,363.894 399.5,369C 396.711,369.241 394.044,369.908 391.5,371C 376.83,387.681 359.83,401.348 340.5,412C 332.872,417.96 325.538,424.293 318.5,431C 315.534,431.895 312.867,431.395 310.5,429.5C 307.058,432.971 302.891,434.638 298,434.5C 286.303,432.023 274.47,431.023 262.5,431.5C 268.645,430.51 274.978,430.177 281.5,430.5C 288.646,432.272 295.98,432.772 303.5,432C 305.747,430.626 307.913,429.126 310,427.5C 311.434,427.93 312.601,428.764 313.5,430C 314.833,430.667 316.167,430.667 317.5,430C 321.5,426 325.5,422 329.5,418C 344.444,408.056 359.11,397.722 373.5,387C 379.199,381.635 384.533,375.969 389.5,370C 392.107,367.895 395.107,367.062 398.5,367.5C 398.337,365.143 398.503,362.81 399,360.5C 409.232,342.146 418.899,323.479 428,304.5C 429.05,299.552 429.55,294.552 429.5,289.5C 430.167,288.833 430.833,288.167 431.5,287.5 Z"/></g>
<g><path style="opacity:0.996" fill="#66532e" d="M 143.5,403.5 C 145.967,403.755 147.967,404.755 149.5,406.5C 147.033,406.245 145.033,405.245 143.5,403.5 Z"/></g>
<g><path style="opacity:0.035" fill="#8e8e8e" d="M 121.5,407.5 C 125.542,408.851 128.875,411.185 131.5,414.5C 129.303,413.155 126.97,411.989 124.5,411C 123.29,409.961 122.29,408.794 121.5,407.5 Z"/></g>
<g><path style="opacity:0.996" fill="#4e3f23" d="M 214.5,411.5 C 217.34,410.083 220.007,410.416 222.5,412.5C 219.833,412.167 217.167,411.833 214.5,411.5 Z"/></g>
<g><path style="opacity:0.996" fill="#68542f" d="M 288.5,413.5 C 272.656,412.417 256.822,412.75 241,414.5C 234.594,414.674 228.427,414.007 222.5,412.5C 228.491,412.9 234.491,413.233 240.5,413.5C 255.792,411.763 271.125,411.263 286.5,412C 287.416,412.278 288.082,412.778 288.5,413.5 Z"/></g>
<g><path style="opacity:0.996" fill="#776136" d="M 307.5,412.5 C 307.389,413.117 307.056,413.617 306.5,414C 300.335,415.918 294.335,415.751 288.5,413.5C 294.892,413.751 301.225,413.418 307.5,412.5 Z"/></g>
<g><path style="opacity:0.071" fill="#aaaaaa" d="M 131.5,414.5 C 133.027,414.427 134.027,415.094 134.5,416.5C 132.973,416.573 131.973,415.906 131.5,414.5 Z"/></g>
<g><path style="opacity:0.016" fill="#9d9d9c" d="M 134.5,416.5 C 143.874,420.182 152.541,424.848 160.5,430.5C 151.188,426.847 142.521,422.18 134.5,416.5 Z"/></g>
<g><path style="opacity:0.685" fill="#585858" d="M 281.5,430.5 C 274.978,430.177 268.645,430.51 262.5,431.5C 261.833,431.5 261.167,431.5 260.5,431.5C 257.5,431.5 254.5,431.5 251.5,431.5C 257.434,430.037 263.601,429.37 270,429.5C 274.015,429.501 277.849,429.835 281.5,430.5 Z"/></g>
<g><path style="opacity:0.086" fill="#878787" d="M 224.5,431.5 C 224.167,431.5 223.833,431.5 223.5,431.5C 221.599,431.567 219.766,431.233 218,430.5C 210.724,434.02 203.224,436.687 195.5,438.5C 190.637,438.819 185.97,438.486 181.5,437.5C 187.206,437.829 192.872,437.495 198.5,436.5C 204.701,433.932 210.867,431.266 217,428.5C 219.535,429.583 222.035,430.583 224.5,431.5 Z"/></g>
<g><path style="opacity:0.049" fill="#c9c9c8" d="M 223.5,431.5 C 223.833,431.5 224.167,431.5 224.5,431.5C 233.497,432.792 242.497,432.792 251.5,431.5C 254.5,431.5 257.5,431.5 260.5,431.5C 253.891,432.953 247.058,433.619 240,433.5C 235.833,433.333 231.667,433.167 227.5,433C 225.942,432.79 224.609,432.29 223.5,431.5 Z"/></g>
<g><path style="opacity:0.067" fill="#939393" d="M 160.5,430.5 C 165.276,430.561 169.276,432.228 172.5,435.5C 168.213,434.352 164.213,432.685 160.5,430.5 Z"/></g>
<g><path style="opacity:0.196" fill="#9f9f9f" d="M 172.5,435.5 C 175.564,435.928 178.564,436.594 181.5,437.5C 185.97,438.486 190.637,438.819 195.5,438.5C 188.954,439.792 182.287,439.626 175.5,438C 174.058,437.623 173.058,436.79 172.5,435.5 Z"/></g>
</svg>
