<?xml version="1.0" encoding="UTF-8"?>
<!DOCTYPE svg PUBLIC "-//W3C//DTD SVG 1.1//EN" "http://www.w3.org/Graphics/SVG/1.1/DTD/svg11.dtd">
<svg xmlns="http://www.w3.org/2000/svg" version="1.1" width="460px" height="450px" style="shape-rendering:geometricPrecision; text-rendering:geometricPrecision; image-rendering:optimizeQuality; fill-rule:evenodd; clip-rule:evenodd" xmlns:xlink="http://www.w3.org/1999/xlink">
<g><path style="opacity:0.996" fill="#b59352" d="M 296.5,54.5 C 296.856,55.8699 297.69,56.8699 299,57.5C 305.781,59.6988 312.281,62.3655 318.5,65.5C 319.107,65.3764 319.44,65.0431 319.5,64.5C 320.167,64.5 320.5,64.8333 320.5,65.5C 320.414,66.4959 320.748,67.3292 321.5,68C 324.309,69.7411 327.309,70.9078 330.5,71.5C 330.908,72.6431 331.575,73.6431 332.5,74.5C 336.522,76.511 340.522,78.511 344.5,80.5C 348.468,84.1594 352.468,87.8261 356.5,91.5C 357.981,95.3246 358.815,99.3246 359,103.5C 360.356,104.38 361.856,104.714 363.5,104.5C 364.681,106.067 366.347,106.901 368.5,107C 371.146,107.497 373.813,107.664 376.5,107.5C 376.201,109.604 376.534,111.604 377.5,113.5C 381.404,112.201 383.737,113.701 384.5,118C 389.631,120.965 394.631,124.131 399.5,127.5C 401.543,130.543 404.21,132.876 407.5,134.5C 408.146,136.156 408.813,137.823 409.5,139.5C 409.081,140.672 408.415,141.672 407.5,142.5C 409.73,143.783 412.063,144.783 414.5,145.5C 416.531,152.005 418.031,158.672 419,165.5C 419.985,167.175 420.819,168.842 421.5,170.5C 421.5,171.167 421.5,171.833 421.5,172.5C 422.151,186.489 422.651,200.489 423,214.5C 424.161,223.148 427.661,230.482 433.5,236.5C 434.331,240.476 434.497,244.476 434,248.5C 432.308,250.359 430.808,252.359 429.5,254.5C 430.737,255.281 431.737,256.281 432.5,257.5C 431.37,258.622 430.703,259.956 430.5,261.5C 429.523,264.287 429.19,267.287 429.5,270.5C 429.768,276.956 429.101,283.289 427.5,289.5C 426.662,289.842 426.328,290.508 426.5,291.5C 424.554,292.035 423.554,293.368 423.5,295.5C 415.234,311.033 407.234,326.699 399.5,342.5C 398.883,342.611 398.383,342.944 398,343.5C 397.503,345.81 397.337,348.143 397.5,350.5C 395.265,350.205 393.265,350.539 391.5,351.5C 384.261,358.402 376.927,365.402 369.5,372.5C 353.481,383.176 337.815,394.342 322.5,406C 320.51,408.988 318.177,411.655 315.5,414C 314.167,414.667 312.833,414.667 311.5,414C 310.601,412.764 309.434,411.93 308,411.5C 305.888,412.608 304.054,414.108 302.5,416C 298.179,416.499 293.846,416.666 289.5,416.5C 286.466,414.982 283.133,414.149 279.5,414C 272.986,413.18 266.653,413.347 260.5,414.5C 258.833,414.5 257.167,414.5 255.5,414.5C 241.424,415.008 227.424,414.341 213.5,412.5C 211.645,412.34 210.312,413.007 209.5,414.5C 203.045,417.292 196.378,419.792 189.5,422C 182.332,422.988 175.332,422.322 168.5,420C 155.873,413.687 143.207,407.353 130.5,401C 126.167,398 121.833,395 117.5,392C 112.992,388.658 108.992,384.825 105.5,380.5C 103.938,377.026 103.105,373.36 103,369.5C 100.328,368.718 97.8281,367.718 95.5,366.5C 93.0521,365.527 90.3854,365.194 87.5,365.5C 87.5,363.833 87.5,362.167 87.5,360.5C 85.1667,360.5 82.8333,360.5 80.5,360.5C 79.2055,358.093 77.5389,355.926 75.5,354C 67.2848,349.473 60.1182,343.64 54,336.5C 53.2571,334.559 53.4238,332.726 54.5,331C 52.324,330.837 50.4907,330.004 49,328.5C 48.6097,325.896 47.7763,323.562 46.5,321.5C 45.9759,319.694 45.3092,318.028 44.5,316.5C 42.3302,299.423 40.3302,282.423 38.5,265.5C 39.8095,261.649 39.8095,257.649 38.5,253.5C 37.2096,251.343 36.3763,249.01 36,246.5C 35.2917,245.619 34.4584,244.953 33.5,244.5C 31.234,239.702 29.5674,234.702 28.5,229.5C 28.5644,225.467 29.8978,221.967 32.5,219C 32.1802,217.347 31.1802,216.347 29.5,216C 31.0368,214.89 31.7035,213.39 31.5,211.5C 32.29,210.391 32.79,209.058 33,207.5C 33.3333,201.5 33.6667,195.5 34,189.5C 37.3402,183.454 40.6735,177.454 44,171.5C 45.5576,166.171 47.8909,161.171 51,156.5C 51.49,155.207 51.6567,153.873 51.5,152.5C 51.5,152.167 51.5,151.833 51.5,151.5C 55.3266,145.852 59.16,140.186 63,134.5C 64.9039,131.077 65.7372,127.41 65.5,123.5C 69.2604,124.226 71.927,122.893 73.5,119.5C 73.8333,118.5 74.5,117.833 75.5,117.5C 80.2297,113.773 84.2297,109.44 87.5,104.5C 90.6086,103.227 93.6086,101.727 96.5,100C 97.8825,98.7292 98.8825,97.2292 99.5,95.5C 100.873,95.6567 102.207,95.49 103.5,95C 107.906,91.1494 112.239,87.3161 116.5,83.5C 117.802,81.1782 119.802,79.8449 122.5,79.5C 125.703,77.732 129.037,76.232 132.5,75C 134.629,72.5608 136.629,70.0608 138.5,67.5C 140.112,65.7024 141.612,63.7024 143,61.5C 144.113,60.695 145.279,60.0283 146.5,59.5C 149.518,59.5065 152.184,60.5065 154.5,62.5C 158.108,58.5733 162.608,56.9067 168,57.5C 182.802,59.6299 197.635,59.9633 212.5,58.5C 222.506,58.3335 232.506,58.5002 242.5,59C 247.857,62.5718 252.524,61.7384 256.5,56.5C 264.006,54.2234 271.673,52.5567 279.5,51.5C 285.253,52.1176 290.919,53.1176 296.5,54.5 Z"/></g>
<g><path style="opacity:0.302" fill="#deceaf" d="M 296.5,54.5 C 290.919,53.1176 285.253,52.1176 279.5,51.5C 271.673,52.5567 264.006,54.2234 256.5,56.5C 267.752,49.5961 279.752,48.0961 292.5,52C 294.32,52.2004 295.653,53.0337 296.5,54.5 Z"/></g>
<g><path style="opacity:0.89" fill="#d2bb90" d="M 256.5,56.5 C 252.524,61.7384 247.857,62.5718 242.5,59C 232.506,58.5002 222.506,58.3335 212.5,58.5C 215.167,57.8333 217.833,57.1667 220.5,56.5C 230.079,55.0303 239.412,56.0303 248.5,59.5C 251.183,58.4897 253.849,57.4897 256.5,56.5 Z"/></g>
<g><path style="opacity:0.11" fill="#decdad" d="M 220.5,56.5 C 217.833,57.1667 215.167,57.8333 212.5,58.5C 197.635,59.9633 182.802,59.6299 168,57.5C 162.608,56.9067 158.108,58.5733 154.5,62.5C 152.184,60.5065 149.518,59.5065 146.5,59.5C 146.811,58.5222 147.478,57.8555 148.5,57.5C 150.811,58.2135 152.978,59.2135 155,60.5C 158.087,56.2083 162.254,54.5417 167.5,55.5C 176.178,56.5045 184.845,57.5045 193.5,58.5C 202.498,57.75 211.498,57.0834 220.5,56.5 Z"/></g>
<g><path style="opacity:0.38" fill="#e0cfb0" d="M 296.5,54.5 C 304.318,57.578 311.985,60.9114 319.5,64.5C 319.44,65.0431 319.107,65.3764 318.5,65.5C 312.281,62.3655 305.781,59.6988 299,57.5C 297.69,56.8699 296.856,55.8699 296.5,54.5 Z"/></g>
<g><path style="opacity:0.424" fill="#dfcead" d="M 320.5,65.5 C 324.457,66.5828 327.79,68.5828 330.5,71.5C 327.309,70.9078 324.309,69.7411 321.5,68C 320.748,67.3292 320.414,66.4959 320.5,65.5 Z"/></g>
<g><path style="opacity:0.992" fill="#d2ba90" d="M 138.5,67.5 C 136.629,70.0608 134.629,72.5608 132.5,75C 129.037,76.232 125.703,77.732 122.5,79.5C 127.545,75.1223 132.878,71.1223 138.5,67.5 Z"/></g>
<g><path style="opacity:0.259" fill="#deccb0" d="M 330.5,71.5 C 335.809,73.4887 340.476,76.4887 344.5,80.5C 340.522,78.511 336.522,76.511 332.5,74.5C 331.575,73.6431 330.908,72.6431 330.5,71.5 Z"/></g>
<g><path style="opacity:0.365" fill="#e0d5bd" d="M 344.5,80.5 C 349.804,82.8065 353.804,86.4731 356.5,91.5C 352.468,87.8261 348.468,84.1594 344.5,80.5 Z"/></g>
<g><path style="opacity:0.988" fill="#d3be96" d="M 116.5,83.5 C 112.239,87.3161 107.906,91.1494 103.5,95C 102.207,95.49 100.873,95.6567 99.5,95.5C 100.29,94.2058 101.29,93.0391 102.5,92C 107.056,88.893 111.723,86.0597 116.5,83.5 Z"/></g>
<g><path style="opacity:0.782" fill="#dac9a6" d="M 356.5,91.5 C 357.376,91.3691 358.043,91.7025 358.5,92.5C 360.022,95.6396 360.855,98.9729 361,102.5C 361.995,103.066 362.828,103.733 363.5,104.5C 361.856,104.714 360.356,104.38 359,103.5C 358.815,99.3246 357.981,95.3246 356.5,91.5 Z"/></g>
<g><path style="opacity:0.533" fill="#cebd9a" d="M 99.5,95.5 C 98.8825,97.2292 97.8825,98.7292 96.5,100C 93.6086,101.727 90.6086,103.227 87.5,104.5C 90.9289,100.738 94.9289,97.7376 99.5,95.5 Z"/></g>
<g><path style="opacity:0.212" fill="#e3d9c5" d="M 87.5,104.5 C 84.2297,109.44 80.2297,113.773 75.5,117.5C 78.7703,112.56 82.7703,108.227 87.5,104.5 Z"/></g>
<g><path style="opacity:0.996" fill="#bf2c1b" d="M 197.5,132.5 C 194.738,133.38 192.071,134.546 189.5,136C 177.435,145.059 166.269,155.226 156,166.5C 155.409,167.483 155.743,168.15 157,168.5C 159.443,167.97 161.61,166.97 163.5,165.5C 170.089,165.103 176.422,163.603 182.5,161C 194.697,152.392 206.197,153.558 217,164.5C 217.678,166.598 217.511,168.598 216.5,170.5C 209.948,175.208 205.115,181.208 202,188.5C 201.199,191.367 201.366,194.034 202.5,196.5C 203.219,198.764 203.552,201.097 203.5,203.5C 200.947,204.805 198.28,205.805 195.5,206.5C 189.56,207.65 183.56,208.483 177.5,209C 176.944,209.383 176.611,209.883 176.5,210.5C 167.818,211.761 159.151,213.094 150.5,214.5C 150.5,216.167 150.5,217.833 150.5,219.5C 150.5,219.833 150.5,220.167 150.5,220.5C 150.5,225.5 150.5,230.5 150.5,235.5C 159.836,234.185 169.169,232.352 178.5,230C 183.76,228.369 188.76,226.202 193.5,223.5C 201.064,225.366 207.897,228.699 214,233.5C 214.789,235.712 214.622,237.712 213.5,239.5C 211.252,240.896 209.086,242.563 207,244.5C 205.715,248.07 203.881,251.236 201.5,254C 199.88,256.897 199.547,259.731 200.5,262.5C 201.793,264.296 203.293,265.963 205,267.5C 205.64,269.265 205.473,270.932 204.5,272.5C 201.763,273.031 199.096,273.864 196.5,275C 184.951,276.059 173.618,277.559 162.5,279.5C 158.818,279.335 155.152,279.501 151.5,280C 150.577,282.041 150.244,284.208 150.5,286.5C 150.823,292.69 150.49,298.69 149.5,304.5C 146.605,320.481 141.272,321.481 133.5,307.5C 133.919,295.404 135.252,283.404 137.5,271.5C 138.663,247.337 138.83,223.003 138,198.5C 137.594,195.258 136.761,192.258 135.5,189.5C 135.5,188.833 135.5,188.167 135.5,187.5C 135.569,181.199 133.902,175.532 130.5,170.5C 129.232,168.33 129.232,166.163 130.5,164C 135.817,164.462 141.151,164.796 146.5,165C 154.064,155.104 161.231,144.938 168,134.5C 169.916,129.351 170.916,124.017 171,118.5C 174.318,115.063 178.151,114.563 182.5,117C 187.46,119.147 192.127,121.814 196.5,125C 199.966,127.194 200.3,129.694 197.5,132.5 Z"/></g>
<g><path style="opacity:0.996" fill="#c02a1a" d="M 289.5,134.5 C 288.542,134.953 287.708,135.619 287,136.5C 284.999,142.678 284.166,149.012 284.5,155.5C 283.506,165.319 283.173,175.319 283.5,185.5C 284.791,185.737 285.791,185.404 286.5,184.5C 294.825,183.332 302.492,180.499 309.5,176C 312.167,175.333 314.833,175.333 317.5,176C 324.225,178.019 330.892,180.353 337.5,183C 339.838,185.542 340.172,188.375 338.5,191.5C 337.529,193.483 336.529,195.483 335.5,197.5C 334.504,212.991 334.17,228.658 334.5,244.5C 333.677,254.683 330.343,264.016 324.5,272.5C 321.741,274.293 318.741,274.793 315.5,274C 311.068,263.403 303.735,255.57 293.5,250.5C 291.919,248.858 291.253,246.858 291.5,244.5C 297.453,244.786 303.286,245.786 309,247.5C 312.82,247.682 315.32,246.015 316.5,242.5C 317.268,241.737 317.768,240.737 318,239.5C 318.849,233.362 319.349,227.195 319.5,221C 319.59,213.539 318.59,206.373 316.5,199.5C 315.44,193.972 312.107,191.305 306.5,191.5C 299.159,192.601 291.826,193.768 284.5,195C 283.577,197.041 283.244,199.208 283.5,201.5C 283.5,237.833 283.5,274.167 283.5,310.5C 283.5,311.167 283.167,311.5 282.5,311.5C 280.542,319.768 279.542,328.435 279.5,337.5C 279.5,338.5 279.5,339.5 279.5,340.5C 278.011,344.236 277.344,348.236 277.5,352.5C 276.077,354.545 274.077,355.545 271.5,355.5C 271.198,352.627 270.531,349.961 269.5,347.5C 269.375,298.329 268.708,249.329 267.5,200.5C 258.935,202.26 250.269,203.594 241.5,204.5C 241.5,206.5 241.5,208.5 241.5,210.5C 241.5,212.167 241.5,213.833 241.5,215.5C 242.287,235.062 241.287,254.396 238.5,273.5C 236.959,276.183 234.626,277.016 231.5,276C 228.586,272.6 225.92,269.1 223.5,265.5C 223.21,259.676 223.877,254.009 225.5,248.5C 226.302,247.048 226.802,245.382 227,243.5C 228.022,230.735 227.355,218.068 225,205.5C 224.617,204.944 224.117,204.611 223.5,204.5C 223.598,202.447 222.931,200.78 221.5,199.5C 220.189,197.44 220.189,195.274 221.5,193C 226.968,192.866 232.302,193.699 237.5,195.5C 247.687,194.929 257.52,192.929 267,189.5C 267.696,174.126 267.196,158.793 265.5,143.5C 265.675,135.85 262.675,129.85 256.5,125.5C 255.631,123.283 255.298,120.95 255.5,118.5C 267.949,118.483 279.115,122.15 289,129.5C 289.494,131.134 289.66,132.801 289.5,134.5 Z"/></g>
<g><path style="opacity:0.286" fill="#e1d3b7" d="M 363.5,104.5 C 368.227,105.181 372.893,106.181 377.5,107.5C 378.676,109.677 380.51,111.011 383,111.5C 385.562,117.061 389.728,120.894 395.5,123C 397.192,124.307 398.525,125.807 399.5,127.5C 394.631,124.131 389.631,120.965 384.5,118C 383.737,113.701 381.404,112.201 377.5,113.5C 376.534,111.604 376.201,109.604 376.5,107.5C 373.813,107.664 371.146,107.497 368.5,107C 366.347,106.901 364.681,106.067 363.5,104.5 Z"/></g>
<g><path style="opacity:0.553" fill="#e0d1b1" d="M 73.5,119.5 C 71.927,122.893 69.2604,124.226 65.5,123.5C 65.7372,127.41 64.9039,131.077 63,134.5C 59.16,140.186 55.3266,145.852 51.5,151.5C 55.0677,144.031 58.9011,136.698 63,129.5C 63.4974,126.854 63.6641,124.187 63.5,121.5C 67.1151,121.845 70.4484,121.178 73.5,119.5 Z"/></g>
<g><path style="opacity:0.353" fill="#e4d7bd" d="M 399.5,127.5 C 401.932,128.75 404.266,130.25 406.5,132C 407.252,132.671 407.586,133.504 407.5,134.5C 404.21,132.876 401.543,130.543 399.5,127.5 Z"/></g>
<g><path style="opacity:0.996" fill="#523d36" d="M 256.5,125.5 C 262.675,129.85 265.675,135.85 265.5,143.5C 264.198,141.328 263.032,138.994 262,136.5C 257.861,133.564 256.028,129.897 256.5,125.5 Z"/></g>
<g><path style="opacity:0.996" fill="#493c38" d="M 197.5,132.5 C 199.582,133.585 199.916,135.085 198.5,137C 184.814,144.156 173.148,153.656 163.5,165.5C 161.61,166.97 159.443,167.97 157,168.5C 155.743,168.15 155.409,167.483 156,166.5C 166.269,155.226 177.435,145.059 189.5,136C 192.071,134.546 194.738,133.38 197.5,132.5 Z"/></g>
<g><path style="opacity:0.996" fill="#754f39" d="M 289.5,134.5 C 288.401,141.762 286.735,148.762 284.5,155.5C 284.166,149.012 284.999,142.678 287,136.5C 287.708,135.619 288.542,134.953 289.5,134.5 Z"/></g>
<g><path style="opacity:0.22" fill="#e8e0c7" d="M 407.5,134.5 C 410.925,135.893 411.925,138.227 410.5,141.5C 412.188,142.521 413.521,143.855 414.5,145.5C 412.063,144.783 409.73,143.783 407.5,142.5C 408.415,141.672 409.081,140.672 409.5,139.5C 408.813,137.823 408.146,136.156 407.5,134.5 Z"/></g>
<g><path style="opacity:0.424" fill="#e8dbc6" d="M 414.5,145.5 C 416.656,148.437 418.156,151.771 419,155.5C 419.737,160.536 420.571,165.536 421.5,170.5C 420.819,168.842 419.985,167.175 419,165.5C 418.031,158.672 416.531,152.005 414.5,145.5 Z"/></g>
<g><path style="opacity:0.996" fill="#463a38" d="M 189.5,178.5 C 188.866,177.053 187.699,176.387 186,176.5C 181.856,177.164 177.689,177.664 173.5,178C 166.001,180.431 158.334,182.264 150.5,183.5C 150.244,181.208 150.577,179.041 151.5,177C 160.172,175.329 168.839,173.662 177.5,172C 181.5,171.333 185.5,171.333 189.5,172C 190.811,174.274 190.811,176.44 189.5,178.5 Z"/></g>
<g><path style="opacity:0.996" fill="#a97042" d="M 284.5,155.5 C 283.86,165.558 284.527,175.225 286.5,184.5C 285.791,185.404 284.791,185.737 283.5,185.5C 283.173,175.319 283.506,165.319 284.5,155.5 Z"/></g>
<g><path style="opacity:0.996" fill="#503e38" d="M 216.5,170.5 C 217.788,172.035 217.788,173.701 216.5,175.5C 213.662,178.838 210.495,181.838 207,184.5C 204.646,188.203 203.146,192.203 202.5,196.5C 201.366,194.034 201.199,191.367 202,188.5C 205.115,181.208 209.948,175.208 216.5,170.5 Z"/></g>
<g><path style="opacity:0.996" fill="#5c4137" d="M 130.5,170.5 C 133.902,175.532 135.569,181.199 135.5,187.5C 133.587,181.979 131.92,176.313 130.5,170.5 Z"/></g>
<g><path style="opacity:0.996" fill="#b39051" d="M 189.5,178.5 C 189.724,184.319 188.89,189.985 187,195.5C 186.167,196.333 185.333,197.167 184.5,198C 173.247,201.143 161.914,203.977 150.5,206.5C 150.5,198.833 150.5,191.167 150.5,183.5C 158.334,182.264 166.001,180.431 173.5,178C 177.689,177.664 181.856,177.164 186,176.5C 187.699,176.387 188.866,177.053 189.5,178.5 Z"/></g>
<g><path style="opacity:0.145" fill="#e3d5b8" d="M 51.5,152.5 C 51.6567,153.873 51.49,155.207 51,156.5C 47.8909,161.171 45.5576,166.171 44,171.5C 40.6735,177.454 37.3402,183.454 34,189.5C 33.6667,195.5 33.3333,201.5 33,207.5C 32.79,209.058 32.29,210.391 31.5,211.5C 31.1439,203.762 31.6439,196.095 33,188.5C 38.4304,175.969 44.5971,163.969 51.5,152.5 Z"/></g>
<g><path style="opacity:0.996" fill="#473c38" d="M 316.5,199.5 C 316.5,200.833 316.5,202.167 316.5,203.5C 315.78,200.94 314.113,199.107 311.5,198C 305.704,197.209 300.037,197.709 294.5,199.5C 290.742,199.848 287.076,200.515 283.5,201.5C 283.244,199.208 283.577,197.041 284.5,195C 291.826,193.768 299.159,192.601 306.5,191.5C 312.107,191.305 315.44,193.972 316.5,199.5 Z"/></g>
<g><path style="opacity:0.996" fill="#544038" d="M 338.5,191.5 C 339.598,195.018 338.598,198.018 335.5,200.5C 335.5,199.5 335.5,198.5 335.5,197.5C 336.529,195.483 337.529,193.483 338.5,191.5 Z"/></g>
<g><path style="opacity:0.996" fill="#443b39" d="M 267.5,200.5 C 267.5,202.5 267.5,204.5 267.5,206.5C 258.71,207.108 250.044,208.441 241.5,210.5C 241.5,208.5 241.5,206.5 241.5,204.5C 250.269,203.594 258.935,202.26 267.5,200.5 Z"/></g>
<g><path style="opacity:0.996" fill="#ae7f49" d="M 294.5,199.5 C 291.587,201.002 288.42,202.002 285,202.5C 284.833,238.669 284.333,274.669 283.5,310.5C 283.5,274.167 283.5,237.833 283.5,201.5C 287.076,200.515 290.742,199.848 294.5,199.5 Z"/></g>
<g><path style="opacity:0.996" fill="#433c39" d="M 203.5,203.5 C 204.049,207.226 202.715,209.893 199.5,211.5C 183.289,215.041 166.956,217.708 150.5,219.5C 150.5,217.833 150.5,216.167 150.5,214.5C 159.151,213.094 167.818,211.761 176.5,210.5C 183.123,210.034 189.457,208.7 195.5,206.5C 198.28,205.805 200.947,204.805 203.5,203.5 Z"/></g>
<g><path style="opacity:0.996" fill="#664436" d="M 221.5,199.5 C 222.931,200.78 223.598,202.447 223.5,204.5C 224.219,206.764 224.552,209.097 224.5,211.5C 222.034,207.982 221.034,203.982 221.5,199.5 Z"/></g>
<g><path style="opacity:0.996" fill="#852a23" d="M 195.5,206.5 C 189.457,208.7 183.123,210.034 176.5,210.5C 176.611,209.883 176.944,209.383 177.5,209C 183.56,208.483 189.56,207.65 195.5,206.5 Z"/></g>
<g><path style="opacity:0.996" fill="#ae3b26" d="M 267.5,200.5 C 268.708,249.329 269.375,298.329 269.5,347.5C 268.67,338.009 268.17,328.342 268,318.5C 267.5,281.168 267.333,243.835 267.5,206.5C 267.5,204.5 267.5,202.5 267.5,200.5 Z"/></g>
<g><path style="opacity:0.996" fill="#92794b" d="M 199.5,211.5 C 199.389,212.117 199.056,212.617 198.5,213C 193.198,213.51 188.198,214.843 183.5,217C 172.642,218.564 161.642,219.73 150.5,220.5C 150.5,220.167 150.5,219.833 150.5,219.5C 166.956,217.708 183.289,215.041 199.5,211.5 Z"/></g>
<g><path style="opacity:0.996" fill="#9f4a2f" d="M 135.5,189.5 C 136.761,192.258 137.594,195.258 138,198.5C 138.83,223.003 138.663,247.337 137.5,271.5C 138.029,244.109 137.362,216.776 135.5,189.5 Z"/></g>
<g><path style="opacity:0.18" fill="#e4d5ba" d="M 421.5,172.5 C 422.302,173.952 422.802,175.618 423,177.5C 423.633,190.502 424.3,203.502 425,216.5C 427.031,223.555 429.864,230.222 433.5,236.5C 427.661,230.482 424.161,223.148 423,214.5C 422.651,200.489 422.151,186.489 421.5,172.5 Z"/></g>
<g><path style="opacity:0.239" fill="#e2d6be" d="M 31.5,211.5 C 31.7035,213.39 31.0368,214.89 29.5,216C 31.1802,216.347 32.1802,217.347 32.5,219C 29.8978,221.967 28.5644,225.467 28.5,229.5C 29.5674,234.702 31.234,239.702 33.5,244.5C 32.6618,244.842 32.3284,245.508 32.5,246.5C 32.1667,246.5 31.8333,246.5 31.5,246.5C 29.8749,240.912 28.5416,235.245 27.5,229.5C 26.8092,225.193 28.1425,221.693 31.5,219C 29.8198,218.653 28.8198,217.653 28.5,216C 29.3479,214.334 30.3479,212.834 31.5,211.5 Z"/></g>
<g><path style="opacity:0.996" fill="#a44028" d="M 223.5,204.5 C 224.117,204.611 224.617,204.944 225,205.5C 227.355,218.068 228.022,230.735 227,243.5C 226.802,245.382 226.302,247.048 225.5,248.5C 225.752,236.136 225.418,223.803 224.5,211.5C 224.552,209.097 224.219,206.764 223.5,204.5 Z"/></g>
<g><path style="opacity:0.996" fill="#a63b26" d="M 241.5,215.5 C 242.166,222.826 242.5,230.326 242.5,238C 242.671,249.338 242.004,260.504 240.5,271.5C 239.833,272.167 239.167,272.833 238.5,273.5C 241.287,254.396 242.287,235.062 241.5,215.5 Z"/></g>
<g><path style="opacity:0.996" fill="#ac492c" d="M 316.5,199.5 C 318.59,206.373 319.59,213.539 319.5,221C 319.349,227.195 318.849,233.362 318,239.5C 317.768,240.737 317.268,241.737 316.5,242.5C 317.708,229.442 317.708,216.442 316.5,203.5C 316.5,202.167 316.5,200.833 316.5,199.5 Z"/></g>
<g><path style="opacity:0.996" fill="#ae492c" d="M 335.5,197.5 C 335.5,198.5 335.5,199.5 335.5,200.5C 335.783,215.222 335.783,229.888 335.5,244.5C 335.167,244.5 334.833,244.5 334.5,244.5C 334.17,228.658 334.504,212.991 335.5,197.5 Z"/></g>
<g><path style="opacity:0.996" fill="#433c39" d="M 188.5,245.5 C 181.291,245.927 174.291,246.927 167.5,248.5C 162.155,248.687 156.822,249.02 151.5,249.5C 151.286,247.856 151.62,246.356 152.5,245C 157.766,244.911 162.766,244.077 167.5,242.5C 174.19,241.296 180.857,240.463 187.5,240C 188.406,241.699 188.739,243.533 188.5,245.5 Z"/></g>
<g><path style="opacity:0.996" fill="#692e2a" d="M 167.5,242.5 C 162.766,244.077 157.766,244.911 152.5,245C 151.62,246.356 151.286,247.856 151.5,249.5C 151.5,250.167 151.167,250.5 150.5,250.5C 150.244,248.208 150.577,246.041 151.5,244C 156.822,243.316 162.156,242.816 167.5,242.5 Z"/></g>
<g><path style="opacity:0.995" fill="#181612" d="M 33.5,244.5 C 34.4584,244.953 35.2917,245.619 36,246.5C 36.3763,249.01 37.2096,251.343 38.5,253.5C 39.8095,257.649 39.8095,261.649 38.5,265.5C 36.5832,262.669 34.9166,259.669 33.5,256.5C 32.9492,253.193 32.6159,249.86 32.5,246.5C 32.3284,245.508 32.6618,244.842 33.5,244.5 Z"/></g>
<g><path style="opacity:0.996" fill="#b49152" d="M 188.5,245.5 C 189.448,260.548 182.448,268.215 167.5,268.5C 162.507,268.916 157.507,269.249 152.5,269.5C 152.5,263.5 152.5,257.5 152.5,251.5C 157.647,250.604 162.647,249.604 167.5,248.5C 174.291,246.927 181.291,245.927 188.5,245.5 Z"/></g>
<g><path style="opacity:0.588" fill="#888787" d="M 31.5,246.5 C 31.8333,246.5 32.1667,246.5 32.5,246.5C 32.6159,249.86 32.9492,253.193 33.5,256.5C 32.8333,255.833 32.1667,255.167 31.5,254.5C 30.2329,251.728 30.2329,249.061 31.5,246.5 Z"/></g>
<g><path style="opacity:0.996" fill="#4b3e39" d="M 293.5,250.5 C 303.735,255.57 311.068,263.403 315.5,274C 318.741,274.793 321.741,274.293 324.5,272.5C 325.833,272.5 326.5,273.167 326.5,274.5C 324.486,279.507 320.819,281.34 315.5,280C 310.519,269.18 302.852,260.68 292.5,254.5C 291.191,252.76 291.524,251.427 293.5,250.5 Z"/></g>
<g><path style="opacity:0.996" fill="#a97745" d="M 167.5,248.5 C 162.647,249.604 157.647,250.604 152.5,251.5C 152.5,257.5 152.5,263.5 152.5,269.5C 157.507,269.249 162.507,268.916 167.5,268.5C 162.067,270.117 156.4,271.117 150.5,271.5C 150.5,264.5 150.5,257.5 150.5,250.5C 151.167,250.5 151.5,250.167 151.5,249.5C 156.822,249.02 162.155,248.687 167.5,248.5 Z"/></g>
<g><path style="opacity:0.996" fill="#4d3d38" d="M 213.5,239.5 C 213.328,244.209 211.161,247.875 207,250.5C 204.567,254.367 202.4,258.367 200.5,262.5C 199.547,259.731 199.88,256.897 201.5,254C 203.881,251.236 205.715,248.07 207,244.5C 209.086,242.563 211.252,240.896 213.5,239.5 Z"/></g>
<g><path style="opacity:0.231" fill="#e7dcca" d="M 433.5,236.5 C 434.222,236.918 434.722,237.584 435,238.5C 435.667,242.167 435.667,245.833 435,249.5C 434.215,251.286 433.049,252.786 431.5,254C 435.317,256.523 435.317,259.023 431.5,261.5C 431.167,261.5 430.833,261.5 430.5,261.5C 430.703,259.956 431.37,258.622 432.5,257.5C 431.737,256.281 430.737,255.281 429.5,254.5C 430.808,252.359 432.308,250.359 434,248.5C 434.497,244.476 434.331,240.476 433.5,236.5 Z"/></g>
<g><path style="opacity:0.25" fill="#716c63" d="M 430.5,261.5 C 430.833,261.5 431.167,261.5 431.5,261.5C 431.5,264.167 431.5,266.833 431.5,269.5C 430.833,269.833 430.167,270.167 429.5,270.5C 429.19,267.287 429.523,264.287 430.5,261.5 Z"/></g>
<g><path style="opacity:0.996" fill="#614035" d="M 334.5,244.5 C 334.833,244.5 335.167,244.5 335.5,244.5C 335.761,255.567 332.761,265.567 326.5,274.5C 326.5,273.167 325.833,272.5 324.5,272.5C 330.343,264.016 333.677,254.683 334.5,244.5 Z"/></g>
<g><path style="opacity:0.49" fill="#d7ccb4" d="M 31.5,254.5 C 32.1667,255.167 32.8333,255.833 33.5,256.5C 34.9166,259.669 36.5832,262.669 38.5,265.5C 40.3302,282.423 42.3302,299.423 44.5,316.5C 44.5,318.167 44.5,319.833 44.5,321.5C 40.4417,304.217 38.275,286.55 38,268.5C 35.1507,264.151 32.984,259.484 31.5,254.5 Z"/></g>
<g><path style="opacity:0.996" fill="#453d39" d="M 204.5,272.5 C 204.739,274.467 204.406,276.301 203.5,278C 199.849,278.772 196.349,279.939 193,281.5C 179.197,283.216 165.363,284.549 151.5,285.5C 151.286,283.856 151.62,282.356 152.5,281C 156.025,280.821 159.359,280.321 162.5,279.5C 173.618,277.559 184.951,276.059 196.5,275C 199.096,273.864 201.763,273.031 204.5,272.5 Z"/></g>
<g><path style="opacity:0.996" fill="#4e413a" d="M 223.5,265.5 C 225.92,269.1 228.586,272.6 231.5,276C 234.626,277.016 236.959,276.183 238.5,273.5C 239.167,272.833 239.833,272.167 240.5,271.5C 240.655,275.388 239.655,278.888 237.5,282C 235.5,282.667 233.5,282.667 231.5,282C 229.678,279.179 227.511,276.679 225,274.5C 224.304,271.522 223.804,268.522 223.5,265.5 Z"/></g>
<g><path style="opacity:0.996" fill="#662f2b" d="M 162.5,279.5 C 159.359,280.321 156.025,280.821 152.5,281C 151.62,282.356 151.286,283.856 151.5,285.5C 151.5,286.167 151.167,286.5 150.5,286.5C 150.244,284.208 150.577,282.041 151.5,280C 155.152,279.501 158.818,279.335 162.5,279.5 Z"/></g>
<g><path style="opacity:0.082" fill="#e9e1ce" d="M 431.5,269.5 C 432.251,276.703 430.918,283.37 427.5,289.5C 429.101,283.289 429.768,276.956 429.5,270.5C 430.167,270.167 430.833,269.833 431.5,269.5 Z"/></g>
<g><path style="opacity:0.51" fill="#4a463e" d="M 426.5,291.5 C 426.813,295.042 426.479,298.375 425.5,301.5C 425.663,299.143 425.497,296.81 425,294.5C 424.617,295.056 424.117,295.389 423.5,295.5C 423.554,293.368 424.554,292.035 426.5,291.5 Z"/></g>
<g><path style="opacity:0.997" fill="#080705" d="M 425.5,301.5 C 424.653,304.816 423.486,308.15 422,311.5C 413.403,328.75 404.403,345.75 395,362.5C 394.503,364.81 394.337,367.143 394.5,369.5C 392.473,369.338 390.473,369.505 388.5,370C 387.748,370.671 387.414,371.504 387.5,372.5C 386.448,372.351 385.448,372.517 384.5,373C 379.143,379.355 373.477,385.355 367.5,391C 351.568,401.454 336.234,412.621 321.5,424.5C 319.037,426.461 316.703,428.628 314.5,431C 311.582,431.716 308.915,431.216 306.5,429.5C 304.488,431.455 302.154,432.955 299.5,434C 292.068,434.779 284.735,434.279 277.5,432.5C 273.849,431.835 270.015,431.501 266,431.5C 259.601,431.37 253.434,432.037 247.5,433.5C 240.191,434.248 232.858,434.582 225.5,434.5C 223.585,434.784 221.919,434.451 220.5,433.5C 218.473,432.334 216.306,431.334 214,430.5C 207.913,433.255 201.746,435.921 195.5,438.5C 191.582,439.631 187.582,440.298 183.5,440.5C 177.606,439.943 171.939,438.609 166.5,436.5C 165.833,435.833 165.167,435.167 164.5,434.5C 161.421,432.464 158.088,430.798 154.5,429.5C 152.254,428.545 149.921,427.878 147.5,427.5C 147.631,426.624 147.298,425.957 146.5,425.5C 139.492,422.663 132.826,419.33 126.5,415.5C 124.283,412.97 121.616,410.97 118.5,409.5C 116.166,406.334 113.333,403.667 110,401.5C 107.455,397.563 105.955,393.23 105.5,388.5C 104.583,387.873 103.583,387.539 102.5,387.5C 101.737,386.732 100.737,386.232 99.5,386C 96.1832,385.502 92.8499,385.335 89.5,385.5C 89.5,383.5 89.5,381.5 89.5,379.5C 87.4012,380.231 85.4012,380.231 83.5,379.5C 80.4165,374.286 76.0832,370.452 70.5,368C 66.2713,363.602 61.9379,359.436 57.5,355.5C 57.6741,353.139 58.0074,350.806 58.5,348.5C 56.3146,348.296 54.3146,347.63 52.5,346.5C 48.6918,338.686 46.6918,330.353 46.5,321.5C 47.7763,323.562 48.6097,325.896 49,328.5C 50.4907,330.004 52.324,330.837 54.5,331C 53.4238,332.726 53.2571,334.559 54,336.5C 60.1182,343.64 67.2848,349.473 75.5,354C 77.5389,355.926 79.2055,358.093 80.5,360.5C 81.1787,362.814 82.512,363.147 84.5,361.5C 85.2436,362.991 85.9103,364.491 86.5,366C 89.4816,366.498 92.4816,366.665 95.5,366.5C 97.8281,367.718 100.328,368.718 103,369.5C 103.105,373.36 103.938,377.026 105.5,380.5C 108.992,384.825 112.992,388.658 117.5,392C 121.833,395 126.167,398 130.5,401C 143.207,407.353 155.873,413.687 168.5,420C 175.332,422.322 182.332,422.988 189.5,422C 196.378,419.792 203.045,417.292 209.5,414.5C 214.536,413.732 219.536,414.232 224.5,416C 228.667,416.167 232.833,416.333 237,416.5C 243.406,416.674 249.573,416.007 255.5,414.5C 257.167,414.5 258.833,414.5 260.5,414.5C 270.23,414.379 279.896,415.046 289.5,416.5C 293.846,416.666 298.179,416.499 302.5,416C 304.054,414.108 305.888,412.608 308,411.5C 309.434,411.93 310.601,412.764 311.5,414C 312.833,414.667 314.167,414.667 315.5,414C 318.177,411.655 320.51,408.988 322.5,406C 337.815,394.342 353.481,383.176 369.5,372.5C 376.927,365.402 384.261,358.402 391.5,351.5C 393.833,351.5 396.167,351.5 398.5,351.5C 398.368,348.43 398.701,345.43 399.5,342.5C 407.234,326.699 415.234,311.033 423.5,295.5C 424.117,295.389 424.617,295.056 425,294.5C 425.497,296.81 425.663,299.143 425.5,301.5 Z"/></g>
<g><path style="opacity:0.996" fill="#55453b" d="M 149.5,304.5 C 150.115,311.345 148.448,317.512 144.5,323C 143.667,323.167 142.833,323.333 142,323.5C 139.63,322.816 137.63,321.483 136,319.5C 134.228,315.687 133.395,311.687 133.5,307.5C 141.272,321.481 146.605,320.481 149.5,304.5 Z"/></g>
<g><path style="opacity:0.996" fill="#9d3825" d="M 282.5,311.5 C 282.509,320.422 281.509,329.089 279.5,337.5C 279.542,328.435 280.542,319.768 282.5,311.5 Z"/></g>
<g><path style="opacity:0.996" fill="#554426" d="M 399.5,342.5 C 398.701,345.43 398.368,348.43 398.5,351.5C 396.167,351.5 393.833,351.5 391.5,351.5C 393.265,350.539 395.265,350.205 397.5,350.5C 397.337,348.143 397.503,345.81 398,343.5C 398.383,342.944 398.883,342.611 399.5,342.5 Z"/></g>
<g><path style="opacity:0.996" fill="#804f37" d="M 279.5,340.5 C 279.72,345.1 279.054,349.433 277.5,353.5C 277.5,353.167 277.5,352.833 277.5,352.5C 277.344,348.236 278.011,344.236 279.5,340.5 Z"/></g>
<g><path style="opacity:0.929" fill="#3d3d3d" d="M 52.5,346.5 C 54.3146,347.63 56.3146,348.296 58.5,348.5C 58.0074,350.806 57.6741,353.139 57.5,355.5C 56.193,353.777 56.193,351.943 57.5,350C 55.1192,349.777 53.4525,348.61 52.5,346.5 Z"/></g>
<g><path style="opacity:0.996" fill="#55433a" d="M 269.5,347.5 C 270.531,349.961 271.198,352.627 271.5,355.5C 274.077,355.545 276.077,354.545 277.5,352.5C 277.5,352.833 277.5,353.167 277.5,353.5C 277.789,358.084 275.789,360.751 271.5,361.5C 270.016,356.967 269.35,352.301 269.5,347.5 Z"/></g>
<g><path style="opacity:0.2" fill="#a7a7a6" d="M 44.5,316.5 C 45.3092,318.028 45.9759,319.694 46.5,321.5C 46.6918,330.353 48.6918,338.686 52.5,346.5C 53.4525,348.61 55.1192,349.777 57.5,350C 56.193,351.943 56.193,353.777 57.5,355.5C 61.9379,359.436 66.2713,363.602 70.5,368C 76.0832,370.452 80.4165,374.286 83.5,379.5C 85.4012,380.231 87.4012,380.231 89.5,379.5C 89.5,381.5 89.5,383.5 89.5,385.5C 87.8235,384.817 87.1568,383.483 87.5,381.5C 85.8008,381.66 84.1341,381.494 82.5,381C 80.8333,378.667 79.1667,376.333 77.5,374C 68.1636,369.005 60.497,362.172 54.5,353.5C 54.8333,352.833 55.1667,352.167 55.5,351.5C 51.5183,348.878 49.0183,345.211 48,340.5C 46.3022,334.247 45.1355,327.914 44.5,321.5C 44.5,319.833 44.5,318.167 44.5,316.5 Z"/></g>
<g><path style="opacity:0.996" fill="#735d34" d="M 80.5,360.5 C 82.8333,360.5 85.1667,360.5 87.5,360.5C 87.5,362.167 87.5,363.833 87.5,365.5C 90.3854,365.194 93.0521,365.527 95.5,366.5C 92.4816,366.665 89.4816,366.498 86.5,366C 85.9103,364.491 85.2436,362.991 84.5,361.5C 82.512,363.147 81.1787,362.814 80.5,360.5 Z"/></g>
<g><path style="opacity:0.294" fill="#a3a2a2" d="M 427.5,289.5 C 427.789,295.245 427.289,300.912 426,306.5C 416.344,325.441 406.677,344.441 397,363.5C 396.503,366.146 396.336,368.813 396.5,371.5C 394.94,371.481 393.44,371.148 392,370.5C 390.594,371.414 389.094,372.08 387.5,372.5C 387.414,371.504 387.748,370.671 388.5,370C 390.473,369.505 392.473,369.338 394.5,369.5C 394.337,367.143 394.503,364.81 395,362.5C 404.403,345.75 413.403,328.75 422,311.5C 423.486,308.15 424.653,304.816 425.5,301.5C 426.479,298.375 426.813,295.042 426.5,291.5C 426.328,290.508 426.662,289.842 427.5,289.5 Z"/></g>
<g><path style="opacity:0.043" fill="#d5d5d5" d="M 89.5,385.5 C 92.8499,385.335 96.1832,385.502 99.5,386C 100.737,386.232 101.737,386.732 102.5,387.5C 102.5,387.833 102.5,388.167 102.5,388.5C 98.119,387.254 93.7856,386.254 89.5,385.5 Z"/></g>
<g><path style="opacity:0.059" fill="#929292" d="M 102.5,387.5 C 103.583,387.539 104.583,387.873 105.5,388.5C 105.955,393.23 107.455,397.563 110,401.5C 113.333,403.667 116.166,406.334 118.5,409.5C 109.544,405.252 104.21,398.252 102.5,388.5C 102.5,388.167 102.5,387.833 102.5,387.5 Z"/></g>
<g><path style="opacity:0.165" fill="#9c9c9c" d="M 387.5,372.5 C 381.707,380.127 375.04,386.961 367.5,393C 352.662,403.253 337.995,413.753 323.5,424.5C 322.833,424.5 322.167,424.5 321.5,424.5C 336.234,412.621 351.568,401.454 367.5,391C 373.477,385.355 379.143,379.355 384.5,373C 385.448,372.517 386.448,372.351 387.5,372.5 Z"/></g>
<g><path style="opacity:0.431" fill="#818181" d="M 118.5,409.5 C 121.616,410.97 124.283,412.97 126.5,415.5C 123.07,414.458 120.403,412.458 118.5,409.5 Z"/></g>
<g><path style="opacity:0.996" fill="#66522e" d="M 260.5,414.5 C 266.653,413.347 272.986,413.18 279.5,414C 283.133,414.149 286.466,414.982 289.5,416.5C 279.896,415.046 270.23,414.379 260.5,414.5 Z"/></g>
<g><path style="opacity:0.996" fill="#8a6f3e" d="M 255.5,414.5 C 249.573,416.007 243.406,416.674 237,416.5C 232.833,416.333 228.667,416.167 224.5,416C 219.536,414.232 214.536,413.732 209.5,414.5C 210.312,413.007 211.645,412.34 213.5,412.5C 227.424,414.341 241.424,415.008 255.5,414.5 Z"/></g>
<g><path style="opacity:0.094" fill="#959595" d="M 126.5,415.5 C 132.826,419.33 139.492,422.663 146.5,425.5C 147.298,425.957 147.631,426.624 147.5,427.5C 139.71,424.775 132.71,420.775 126.5,415.5 Z"/></g>
<g><path style="opacity:0.125" fill="#ababab" d="M 147.5,427.5 C 149.921,427.878 152.254,428.545 154.5,429.5C 155.167,430.5 155.833,431.5 156.5,432.5C 153.299,431.069 150.299,429.403 147.5,427.5 Z"/></g>
<g><path style="opacity:0.694" fill="#4d4d4d" d="M 154.5,429.5 C 158.088,430.798 161.421,432.464 164.5,434.5C 162.883,433.962 161.216,433.629 159.5,433.5C 158.391,433.443 157.391,433.11 156.5,432.5C 155.833,431.5 155.167,430.5 154.5,429.5 Z"/></g>
<g><path style="opacity:0.106" fill="#b5b5b5" d="M 321.5,424.5 C 322.167,424.5 322.833,424.5 323.5,424.5C 321.066,427.438 318.399,430.271 315.5,433C 312.412,433.847 309.579,433.347 307,431.5C 304.749,433.377 302.249,434.877 299.5,436C 289.352,435.463 279.186,434.629 269,433.5C 254.359,435.192 239.859,435.525 225.5,434.5C 232.858,434.582 240.191,434.248 247.5,433.5C 257.488,432.887 267.488,432.553 277.5,432.5C 284.735,434.279 292.068,434.779 299.5,434C 302.154,432.955 304.488,431.455 306.5,429.5C 308.915,431.216 311.582,431.716 314.5,431C 316.703,428.628 319.037,426.461 321.5,424.5 Z"/></g>
<g><path style="opacity:0.774" fill="#555555" d="M 277.5,432.5 C 267.488,432.553 257.488,432.887 247.5,433.5C 253.434,432.037 259.601,431.37 266,431.5C 270.015,431.501 273.849,431.835 277.5,432.5 Z"/></g>
<g><path style="opacity:0.153" fill="#9a9a9a" d="M 220.5,433.5 C 218.266,433.62 216.099,433.287 214,432.5C 208.283,435.186 202.45,437.686 196.5,440C 189.567,441.506 182.567,441.839 175.5,441C 172.16,439.997 169.16,438.497 166.5,436.5C 171.939,438.609 177.606,439.943 183.5,440.5C 187.582,440.298 191.582,439.631 195.5,438.5C 201.746,435.921 207.913,433.255 214,430.5C 216.306,431.334 218.473,432.334 220.5,433.5 Z"/></g>
<g><path style="opacity:0.216" fill="#b1b0b0" d="M 159.5,433.5 C 161.216,433.629 162.883,433.962 164.5,434.5C 165.167,435.167 165.833,435.833 166.5,436.5C 163.759,436.293 161.426,435.293 159.5,433.5 Z"/></g>
</svg>
