<?xml version="1.0" encoding="UTF-8"?>
<!DOCTYPE svg PUBLIC "-//W3C//DTD SVG 1.1//EN" "http://www.w3.org/Graphics/SVG/1.1/DTD/svg11.dtd">
<svg xmlns="http://www.w3.org/2000/svg" version="1.1" width="461px" height="452px" style="shape-rendering:geometricPrecision; text-rendering:geometricPrecision; image-rendering:optimizeQuality; fill-rule:evenodd; clip-rule:evenodd" xmlns:xlink="http://www.w3.org/1999/xlink">
<g><path style="opacity:0.384" fill="#dfd0b3" d="M 290.5,51.5 C 281.172,52.0093 271.839,53.3426 262.5,55.5C 271.221,50.7616 280.555,49.4283 290.5,51.5 Z"/></g>
<g><path style="opacity:0.996" fill="#b59352" d="M 290.5,51.5 C 291.167,51.5 291.5,51.8333 291.5,52.5C 293.559,54.5945 295.893,56.4278 298.5,58C 305.83,61.1439 313.163,63.9772 320.5,66.5C 325.316,70.2928 330.65,73.2928 336.5,75.5C 336.414,76.4959 336.748,77.3292 337.5,78C 343.187,80.6786 348.353,84.1786 353,88.5C 353.399,88.2716 353.565,87.9382 353.5,87.5C 354.167,87.5 354.5,87.8333 354.5,88.5C 356.177,91.0245 357.677,93.6912 359,96.5C 359.497,99.146 359.664,101.813 359.5,104.5C 364.742,107.188 370.409,108.688 376.5,109C 377.337,110.011 377.67,111.178 377.5,112.5C 379.5,112.5 381.5,112.5 383.5,112.5C 383.623,115.374 384.623,117.874 386.5,120C 396.342,124.743 404.342,131.576 410.5,140.5C 410.081,141.672 409.415,142.672 408.5,143.5C 413.502,145.457 416.668,149.124 418,154.5C 418.266,158.985 419.1,163.318 420.5,167.5C 421.463,183.832 422.796,199.832 424.5,215.5C 424.861,219.915 426.194,223.915 428.5,227.5C 431.502,230.161 433.502,233.495 434.5,237.5C 436.763,244.352 435.429,250.352 430.5,255.5C 431.946,257.618 432.613,259.951 432.5,262.5C 432.5,262.833 432.5,263.167 432.5,263.5C 430.631,265.635 429.964,268.302 430.5,271.5C 430.666,275.514 430.499,279.514 430,283.5C 427.983,286.144 427.15,289.144 427.5,292.5C 425.554,293.035 424.554,294.368 424.5,296.5C 416.249,312.002 408.249,327.668 400.5,343.5C 399.883,343.611 399.383,343.944 399,344.5C 398.503,346.81 398.337,349.143 398.5,351.5C 396.585,351.216 394.919,351.549 393.5,352.5C 385.84,358.648 378.507,365.482 371.5,373C 358.5,382 345.5,391 332.5,400C 326.865,404.633 321.532,409.633 316.5,415C 313.329,416.037 310.829,415.204 309,412.5C 305.428,416.119 301.095,418.119 296,418.5C 290.618,417.923 285.451,416.923 280.5,415.5C 261.337,415.185 242.004,415.018 222.5,415C 219.845,414.436 217.179,413.936 214.5,413.5C 212.645,413.34 211.312,414.007 210.5,415.5C 203.856,418.103 197.189,420.603 190.5,423C 183.332,423.988 176.332,423.322 169.5,421C 153.103,413.969 137.437,405.636 122.5,396C 116.742,392.246 111.575,387.746 107,382.5C 105.331,378.654 104.164,374.654 103.5,370.5C 98.4219,368.213 93.0886,367.046 87.5,367C 86.6198,365.644 86.2865,364.144 86.5,362.5C 84.712,362.785 83.0453,362.452 81.5,361.5C 80.1966,359.063 78.5299,356.896 76.5,355C 67.4347,350.098 59.768,343.598 53.5,335.5C 53.722,333.945 54.3887,332.611 55.5,331.5C 52.1765,329.838 49.5098,327.505 47.5,324.5C 47.2785,321.933 46.6118,319.599 45.5,317.5C 44.1521,309.206 42.9855,300.873 42,292.5C 41.7645,290.881 40.9311,289.881 39.5,289.5C 39.5,289.167 39.5,288.833 39.5,288.5C 40.7796,281.296 40.7796,273.962 39.5,266.5C 40.6408,263.36 40.8075,260.027 40,256.5C 38.534,253.269 37.3674,249.935 36.5,246.5C 35.675,245.614 34.675,245.281 33.5,245.5C 33.9234,244.735 34.2568,243.902 34.5,243C 31.9622,238.924 29.9622,234.59 28.5,230C 29.6043,226.333 31.2709,223 33.5,220C 32.7282,218.779 31.7282,217.779 30.5,217C 31.6184,215.926 32.6184,214.76 33.5,213.5C 34.2229,205.484 35.0562,197.484 36,189.5C 41.4365,177.294 47.4365,165.294 54,153.5C 55.4595,150.252 56.6262,146.919 57.5,143.5C 63.353,138.649 66.353,132.315 66.5,124.5C 72.1529,123.53 76.4862,120.53 79.5,115.5C 82.1667,110.167 86.1667,106.167 91.5,103.5C 95.6439,99.9225 100.311,97.0892 105.5,95C 107.361,91.975 109.694,89.475 112.5,87.5C 112.842,86.6618 113.508,86.3284 114.5,86.5C 118.392,84.9379 121.725,82.6046 124.5,79.5C 125.585,77.4131 127.251,76.0798 129.5,75.5C 136.353,71.8838 142.353,67.0504 147.5,61C 150.304,60.5403 152.971,61.0403 155.5,62.5C 157.941,61.291 159.941,59.6243 161.5,57.5C 172.44,58.9194 183.44,59.9194 194.5,60.5C 208.5,59.5 222.5,58.5 236.5,57.5C 236.833,57.5 237.167,57.5 237.5,57.5C 241.359,59.8218 245.692,61.1551 250.5,61.5C 254.509,59.4957 258.509,57.4957 262.5,55.5C 271.839,53.3426 281.172,52.0093 290.5,51.5 Z"/></g>
<g><path style="opacity:0.863" fill="#d7c39d" d="M 291.5,52.5 C 297.552,54.6894 303.552,57.1894 309.5,60C 313.322,62.0867 316.989,64.2534 320.5,66.5C 313.163,63.9772 305.83,61.1439 298.5,58C 295.893,56.4278 293.559,54.5945 291.5,52.5 Z"/></g>
<g><path style="opacity:0.237" fill="#dccba7" d="M 236.5,57.5 C 222.5,58.5 208.5,59.5 194.5,60.5C 183.44,59.9194 172.44,58.9194 161.5,57.5C 163.201,56.2658 165.201,55.5992 167.5,55.5C 176.592,57.4189 185.758,58.7522 195,59.5C 206.136,58.23 217.303,57.23 228.5,56.5C 231.355,56.5025 234.022,56.8359 236.5,57.5 Z"/></g>
<g><path style="opacity:0.216" fill="#e2d4ba" d="M 262.5,55.5 C 258.509,57.4957 254.509,59.4957 250.5,61.5C 245.692,61.1551 241.359,59.8218 237.5,57.5C 241.85,57.7844 246.017,58.7844 250,60.5C 253.775,57.863 257.941,56.1964 262.5,55.5 Z"/></g>
<g><path style="opacity:0.157" fill="#ebdfcd" d="M 161.5,57.5 C 159.941,59.6243 157.941,61.291 155.5,62.5C 152.971,61.0403 150.304,60.5403 147.5,61C 142.353,67.0504 136.353,71.8838 129.5,75.5C 135.472,70.8169 141.139,65.6503 146.5,60C 149.45,58.6304 152.45,58.797 155.5,60.5C 157.534,59.4412 159.534,58.4412 161.5,57.5 Z"/></g>
<g><path style="opacity:0.204" fill="#e6dac2" d="M 320.5,66.5 C 322.924,67.0305 325.257,67.8638 327.5,69C 330.921,70.6985 333.921,72.8652 336.5,75.5C 330.65,73.2928 325.316,70.2928 320.5,66.5 Z"/></g>
<g><path style="opacity:0.231" fill="#e4d8ba" d="M 336.5,75.5 C 343.006,78.2579 348.672,82.2579 353.5,87.5C 353.565,87.9382 353.399,88.2716 353,88.5C 348.353,84.1786 343.187,80.6786 337.5,78C 336.748,77.3292 336.414,76.4959 336.5,75.5 Z"/></g>
<g><path style="opacity:0.094" fill="#e7d9c1" d="M 124.5,79.5 C 121.725,82.6046 118.392,84.9379 114.5,86.5C 117.275,83.3954 120.608,81.0621 124.5,79.5 Z"/></g>
<g><path style="opacity:0.169" fill="#e1cfb0" d="M 112.5,87.5 C 109.694,89.475 107.361,91.975 105.5,95C 100.311,97.0892 95.6439,99.9225 91.5,103.5C 91.4142,102.504 91.7476,101.671 92.5,101C 99.0658,96.2529 105.732,91.7529 112.5,87.5 Z"/></g>
<g><path style="opacity:0.29" fill="#e2d4b9" d="M 354.5,88.5 C 359.503,92.1678 362.169,97.1678 362.5,103.5C 366.822,105.928 371.489,107.095 376.5,107C 377.939,107.991 378.939,109.324 379.5,111C 381.366,109.992 382.699,110.492 383.5,112.5C 381.5,112.5 379.5,112.5 377.5,112.5C 377.67,111.178 377.337,110.011 376.5,109C 370.409,108.688 364.742,107.188 359.5,104.5C 359.664,101.813 359.497,99.146 359,96.5C 357.677,93.6912 356.177,91.0245 354.5,88.5 Z"/></g>
<g><path style="opacity:0.996" fill="#c02c1b" d="M 288.5,129.5 C 286.483,134.711 284.65,140.045 283,145.5C 282.202,147.259 282.369,148.926 283.5,150.5C 284.107,150.376 284.44,150.043 284.5,149.5C 295.104,147.223 305.77,145.223 316.5,143.5C 321.043,143.545 324.877,145.212 328,148.5C 328.706,150.955 327.873,152.622 325.5,153.5C 320.041,154.209 315.041,155.875 310.5,158.5C 308.097,158.448 305.764,158.781 303.5,159.5C 297.52,160.091 291.853,161.425 286.5,163.5C 283.873,164.092 281.206,164.425 278.5,164.5C 278.5,165.833 278.5,167.167 278.5,168.5C 281.167,168.833 283.833,169.167 286.5,169.5C 289.906,171.109 293.573,172.276 297.5,173C 302.121,175.983 306.787,178.983 311.5,182C 315.027,186.166 316.36,190.999 315.5,196.5C 312.46,199.911 308.793,200.411 304.5,198C 295.233,190.736 286.566,182.736 278.5,174C 277.207,173.51 275.873,173.343 274.5,173.5C 272.384,179.8 269.55,185.8 266,191.5C 261.5,196 257,200.5 252.5,205C 250.182,206.993 247.516,208.159 244.5,208.5C 243.265,206.983 243.265,205.316 244.5,203.5C 251.838,194.826 257.505,185.159 261.5,174.5C 262.117,174.389 262.617,174.056 263,173.5C 263.497,171.19 263.663,168.857 263.5,166.5C 255.133,166.705 246.8,166.371 238.5,165.5C 234.583,163.73 234.583,161.897 238.5,160C 247.72,159.722 256.72,158.222 265.5,155.5C 270.256,141.738 270.59,127.905 266.5,114C 266.585,112.893 266.919,111.893 267.5,111C 271.337,110.239 275.004,110.739 278.5,112.5C 282.668,114.75 286.668,117.25 290.5,120C 291.576,121.726 291.743,123.559 291,125.5C 289.519,126.471 288.685,127.804 288.5,129.5 Z"/></g>
<g><path style="opacity:0.767" fill="#dbc9a7" d="M 79.5,115.5 C 76.4862,120.53 72.1529,123.53 66.5,124.5C 66.353,132.315 63.353,138.649 57.5,143.5C 58.913,138.556 61.0796,133.889 64,129.5C 64.4966,127.19 64.6633,124.857 64.5,122.5C 66.5273,122.662 68.5273,122.495 70.5,122C 73.3968,119.59 76.3968,117.423 79.5,115.5 Z"/></g>
<g><path style="opacity:0.996" fill="#bf2c1b" d="M 220.5,143.5 C 219.167,143.833 217.833,144.167 216.5,144.5C 209.26,146.189 201.927,147.356 194.5,148C 193.584,148.278 192.918,148.778 192.5,149.5C 190.043,150.023 187.709,150.856 185.5,152C 186.636,153.145 187.636,154.312 188.5,155.5C 187.194,159.391 186.194,163.391 185.5,167.5C 185.667,168.5 185.833,169.5 186,170.5C 187.622,169.901 189.122,169.234 190.5,168.5C 197.43,166.377 203.763,167.377 209.5,171.5C 210.684,173.467 210.351,175.134 208.5,176.5C 200.904,178.983 193.238,181.317 185.5,183.5C 184.534,185.396 184.201,187.396 184.5,189.5C 184.5,193.833 184.5,198.167 184.5,202.5C 190.842,202.334 197.175,202.5 203.5,203C 204.406,204.699 204.739,206.533 204.5,208.5C 203.833,208.5 203.5,208.833 203.5,209.5C 198.127,211.579 192.461,212.912 186.5,213.5C 185.504,213.414 184.671,213.748 184,214.5C 183.5,221.492 183.334,228.492 183.5,235.5C 188.201,235.043 192.868,234.376 197.5,233.5C 203.616,236.396 209.282,240.063 214.5,244.5C 215.879,247.467 215.546,250.134 213.5,252.5C 212.132,254.605 211.132,256.939 210.5,259.5C 209.501,270.814 209.168,282.147 209.5,293.5C 209.156,299.678 208.489,305.678 207.5,311.5C 205.513,325.962 198.513,337.462 186.5,346C 184.559,346.743 182.726,346.576 181,345.5C 178.63,340.68 176.63,335.68 175,330.5C 173.052,326.387 170.219,323.054 166.5,320.5C 165.781,318.236 165.448,315.903 165.5,313.5C 169.86,314.677 174.194,316.177 178.5,318C 182.317,319.023 185.817,318.523 189,316.5C 191.298,310.674 192.965,304.674 194,298.5C 195.284,284.865 195.784,271.199 195.5,257.5C 195.6,254.333 194.933,251.333 193.5,248.5C 191.636,247.007 189.47,246.34 187,246.5C 176.037,247.376 165.204,249.042 154.5,251.5C 148.592,252.574 145.259,256.074 144.5,262C 138.893,263.57 135.893,261.403 135.5,255.5C 136.951,236.905 137.618,218.238 137.5,199.5C 137.5,187.995 137.167,176.662 136.5,165.5C 135.833,165.5 135.5,165.167 135.5,164.5C 135.876,159.106 134.876,154.106 132.5,149.5C 131.232,147.33 131.232,145.163 132.5,143C 137.748,141.524 142.081,142.857 145.5,147C 148.833,147.667 152.167,147.667 155.5,147C 171.182,143.658 186.515,139.325 201.5,134C 208.411,132.51 214.744,133.677 220.5,137.5C 221.694,139.516 221.694,141.516 220.5,143.5 Z"/></g>
<g><path style="opacity:0.996" fill="#623f34" d="M 284.5,149.5 C 284.44,150.043 284.107,150.376 283.5,150.5C 282.369,148.926 282.202,147.259 283,145.5C 284.65,140.045 286.483,134.711 288.5,129.5C 289.895,127.946 290.561,128.279 290.5,130.5C 287.303,136.425 285.303,142.758 284.5,149.5 Z"/></g>
<g><path style="opacity:0.996" fill="#413c3a" d="M 220.5,143.5 C 221.301,145.042 221.634,146.708 221.5,148.5C 216.445,149.68 211.445,151.013 206.5,152.5C 200.451,153.286 194.451,154.286 188.5,155.5C 187.636,154.312 186.636,153.145 185.5,152C 187.709,150.856 190.043,150.023 192.5,149.5C 197.149,148.935 201.816,148.435 206.5,148C 210.274,147.432 213.607,146.265 216.5,144.5C 217.833,144.167 219.167,143.833 220.5,143.5 Z"/></g>
<g><path style="opacity:0.286" fill="#e2d1b7" d="M 383.5,112.5 C 388.017,118.504 393.683,123.337 400.5,127C 404.709,130.509 408.543,134.342 412,138.5C 412.595,139.899 412.428,141.232 411.5,142.5C 415.482,145.122 417.982,148.789 419,153.5C 420.277,159.501 421.444,165.501 422.5,171.5C 421.833,170.167 421.167,168.833 420.5,167.5C 419.1,163.318 418.266,158.985 418,154.5C 416.668,149.124 413.502,145.457 408.5,143.5C 409.415,142.672 410.081,141.672 410.5,140.5C 404.342,131.576 396.342,124.743 386.5,120C 384.623,117.874 383.623,115.374 383.5,112.5 Z"/></g>
<g><path style="opacity:0.996" fill="#5f322e" d="M 216.5,144.5 C 213.607,146.265 210.274,147.432 206.5,148C 201.816,148.435 197.149,148.935 192.5,149.5C 192.918,148.778 193.584,148.278 194.5,148C 201.927,147.356 209.26,146.189 216.5,144.5 Z"/></g>
<g><path style="opacity:0.996" fill="#714132" d="M 132.5,149.5 C 134.876,154.106 135.876,159.106 135.5,164.5C 134.168,160.564 132.834,156.564 131.5,152.5C 131.685,151.416 132.018,150.416 132.5,149.5 Z"/></g>
<g><path style="opacity:0.996" fill="#443d3a" d="M 325.5,153.5 C 328.196,155.597 327.862,157.43 324.5,159C 311.823,162.825 299.157,166.325 286.5,169.5C 283.833,169.167 281.167,168.833 278.5,168.5C 278.5,167.167 278.5,165.833 278.5,164.5C 281.206,164.425 283.873,164.092 286.5,163.5C 291.812,162.605 297.145,161.771 302.5,161C 303.056,160.617 303.389,160.117 303.5,159.5C 305.764,158.781 308.097,158.448 310.5,158.5C 315.785,157.405 320.785,155.738 325.5,153.5 Z"/></g>
<g><path style="opacity:0.996" fill="#493a37" d="M 170.5,160.5 C 169.423,159.982 168.256,159.648 167,159.5C 161.195,161.162 155.362,162.495 149.5,163.5C 149.5,161.167 149.5,158.833 149.5,156.5C 155.78,155.361 162.113,154.861 168.5,155C 170.192,156.401 170.859,158.234 170.5,160.5 Z"/></g>
<g><path style="opacity:0.996" fill="#6b2e29" d="M 325.5,153.5 C 320.785,155.738 315.785,157.405 310.5,158.5C 315.041,155.875 320.041,154.209 325.5,153.5 Z"/></g>
<g><path style="opacity:0.996" fill="#6d2e29" d="M 303.5,159.5 C 303.389,160.117 303.056,160.617 302.5,161C 297.145,161.771 291.812,162.605 286.5,163.5C 291.853,161.425 297.52,160.091 303.5,159.5 Z"/></g>
<g><path style="opacity:0.996" fill="#977649" d="M 206.5,152.5 C 206.082,153.222 205.416,153.722 204.5,154C 199.567,155.318 194.567,156.151 189.5,156.5C 189.759,160.24 189.426,163.906 188.5,167.5C 188.957,168.298 189.624,168.631 190.5,168.5C 189.122,169.234 187.622,169.901 186,170.5C 185.833,169.5 185.667,168.5 185.5,167.5C 186.194,163.391 187.194,159.391 188.5,155.5C 194.451,154.286 200.451,153.286 206.5,152.5 Z"/></g>
<g><path style="opacity:0.996" fill="#8e2c22" d="M 238.5,166.5 C 238.5,166.167 238.5,165.833 238.5,165.5C 246.8,166.371 255.133,166.705 263.5,166.5C 263.663,168.857 263.497,171.19 263,173.5C 262.617,174.056 262.117,174.389 261.5,174.5C 261.5,174.167 261.5,173.833 261.5,173.5C 262.341,171.621 262.675,169.621 262.5,167.5C 254.458,167.736 246.458,167.403 238.5,166.5 Z"/></g>
<g><path style="opacity:0.996" fill="#47403b" d="M 238.5,166.5 C 246.458,167.403 254.458,167.736 262.5,167.5C 262.675,169.621 262.341,171.621 261.5,173.5C 254.426,173.839 247.426,173.339 240.5,172C 238.522,171.519 237.189,170.353 236.5,168.5C 236.747,167.287 237.414,166.62 238.5,166.5 Z"/></g>
<g><path style="opacity:0.996" fill="#483d39" d="M 208.5,176.5 C 209.752,178.339 209.752,180.172 208.5,182C 200.88,184.981 193.213,187.481 185.5,189.5C 185.167,189.5 184.833,189.5 184.5,189.5C 184.201,187.396 184.534,185.396 185.5,183.5C 193.238,181.317 200.904,178.983 208.5,176.5 Z"/></g>
<g><path style="opacity:0.996" fill="#b28f51" d="M 303.5,202.5 C 298.939,203.864 294.272,205.031 289.5,206C 276.694,207.13 264.027,208.963 251.5,211.5C 262.059,202.444 270.559,191.778 277,179.5C 285.398,187.736 294.232,195.403 303.5,202.5 Z"/></g>
<g><path style="opacity:0.951" fill="#cab080" d="M 420.5,167.5 C 421.167,168.833 421.833,170.167 422.5,171.5C 424.228,180.702 424.895,190.035 424.5,199.5C 424.5,204.833 424.5,210.167 424.5,215.5C 422.796,199.832 421.463,183.832 420.5,167.5 Z"/></g>
<g><path style="opacity:0.996" fill="#b3452a" d="M 136.5,165.5 C 137.167,176.662 137.5,187.995 137.5,199.5C 137.618,218.238 136.951,236.905 135.5,255.5C 135.167,255.5 134.833,255.5 134.5,255.5C 136.27,225.571 136.937,195.571 136.5,165.5 Z"/></g>
<g><path style="opacity:0.996" fill="#433e3b" d="M 154.5,185.5 C 160.364,187.156 166.364,187.823 172.5,187.5C 172.784,189.415 172.451,191.081 171.5,192.5C 165.341,192.784 159.341,191.951 153.5,190C 152.084,188.085 152.418,186.585 154.5,185.5 Z"/></g>
<g><path style="opacity:0.996" fill="#b28f51" d="M 170.5,160.5 C 171.807,164.969 172.307,169.635 172,174.5C 171.5,175 171,175.5 170.5,176C 164.55,177.49 158.55,178.657 152.5,179.5C 152.12,181.698 152.787,183.365 154.5,184.5C 154.5,184.833 154.5,185.167 154.5,185.5C 152.418,186.585 152.084,188.085 153.5,190C 159.341,191.951 165.341,192.784 171.5,192.5C 171.5,197.5 171.5,202.5 171.5,207.5C 165.251,209.072 158.918,210.738 152.5,212.5C 152.455,215.077 153.455,217.077 155.5,218.5C 153.29,219.455 152.957,220.955 154.5,223C 160.072,224.351 165.738,224.851 171.5,224.5C 171.827,229.544 171.494,234.544 170.5,239.5C 163.592,241.348 156.592,242.682 149.5,243.5C 149.5,216.833 149.5,190.167 149.5,163.5C 155.362,162.495 161.195,161.162 167,159.5C 168.256,159.648 169.423,159.982 170.5,160.5 Z"/></g>
<g><path style="opacity:0.996" fill="#9f3a27" d="M 154.5,185.5 C 154.5,185.167 154.5,184.833 154.5,184.5C 160.711,186.101 167.044,186.768 173.5,186.5C 174.128,193.913 173.461,200.913 171.5,207.5C 171.5,202.5 171.5,197.5 171.5,192.5C 172.451,191.081 172.784,189.415 172.5,187.5C 166.364,187.823 160.364,187.156 154.5,185.5 Z"/></g>
<g><path style="opacity:0.996" fill="#4c3c37" d="M 315.5,196.5 C 315.5,197.833 315.5,199.167 315.5,200.5C 311.79,202.136 307.79,202.802 303.5,202.5C 294.232,195.403 285.398,187.736 277,179.5C 270.559,191.778 262.059,202.444 251.5,211.5C 248.946,212.388 246.279,212.721 243.5,212.5C 244.234,211.292 244.567,209.959 244.5,208.5C 247.516,208.159 250.182,206.993 252.5,205C 257,200.5 261.5,196 266,191.5C 269.55,185.8 272.384,179.8 274.5,173.5C 275.873,173.343 277.207,173.51 278.5,174C 286.566,182.736 295.233,190.736 304.5,198C 308.793,200.411 312.46,199.911 315.5,196.5 Z"/></g>
<g><path style="opacity:0.996" fill="#ba5c36" d="M 350.5,198.5 C 340.097,198.258 329.764,198.925 319.5,200.5C 319.918,199.778 320.584,199.278 321.5,199C 331.307,197.454 340.974,197.288 350.5,198.5 Z"/></g>
<g><path style="opacity:0.996" fill="#c02a1b" d="M 350.5,198.5 C 356.032,199.483 361.032,201.816 365.5,205.5C 366.788,207.299 366.788,208.965 365.5,210.5C 347.345,211.084 329.345,211.751 311.5,212.5C 313.443,215.471 316.109,217.471 319.5,218.5C 321.002,221.432 321.669,224.599 321.5,228C 321.192,232.176 320.858,236.342 320.5,240.5C 319.762,271.342 319.096,302.342 318.5,333.5C 316.825,342.036 313.325,349.702 308,356.5C 304.156,358.238 300.823,357.571 298,354.5C 291.794,344.124 283.961,335.124 274.5,327.5C 272.455,326.077 271.455,324.077 271.5,321.5C 278.596,322.027 285.596,323.027 292.5,324.5C 296.895,325.289 300.395,323.956 303,320.5C 303.774,316.853 304.441,313.186 305,309.5C 306.002,284.116 305.502,258.782 303.5,233.5C 303.167,227.484 301.834,221.817 299.5,216.5C 299.167,215.5 298.5,214.833 297.5,214.5C 295.372,213.371 293.039,213.204 290.5,214C 286.11,214.259 282.11,215.426 278.5,217.5C 269.1,217.786 260.1,219.453 251.5,222.5C 243.277,224.508 234.943,225.342 226.5,225C 223.408,224.146 220.741,222.646 218.5,220.5C 216.576,218.91 216.243,217.076 217.5,215C 226.177,214.166 234.844,213.333 243.5,212.5C 246.279,212.721 248.946,212.388 251.5,211.5C 264.027,208.963 276.694,207.13 289.5,206C 294.272,205.031 298.939,203.864 303.5,202.5C 307.79,202.802 311.79,202.136 315.5,200.5C 316.833,200.5 318.167,200.5 319.5,200.5C 329.764,198.925 340.097,198.258 350.5,198.5 Z"/></g>
<g><path style="opacity:0.996" fill="#ba502e" d="M 184.5,189.5 C 184.833,189.5 185.167,189.5 185.5,189.5C 185.5,193.5 185.5,197.5 185.5,201.5C 191.13,200.479 196.796,200.313 202.5,201C 206.742,202.8 207.409,205.3 204.5,208.5C 204.739,206.533 204.406,204.699 203.5,203C 197.175,202.5 190.842,202.334 184.5,202.5C 184.5,198.167 184.5,193.833 184.5,189.5 Z"/></g>
<g><path style="opacity:0.996" fill="#483d39" d="M 203.5,209.5 C 204.5,209.5 205.5,209.5 206.5,209.5C 206.978,212.278 205.978,214.278 203.5,215.5C 197.288,217.7 190.955,219.367 184.5,220.5C 184.166,217.812 184.832,215.479 186.5,213.5C 192.461,212.912 198.127,211.579 203.5,209.5 Z"/></g>
<g><path style="opacity:0.996" fill="#9d281f" d="M 365.5,210.5 C 365.5,210.833 365.5,211.167 365.5,211.5C 361.665,212.92 357.665,213.587 353.5,213.5C 339.514,212.634 325.514,212.3 311.5,212.5C 329.345,211.751 347.345,211.084 365.5,210.5 Z"/></g>
<g><path style="opacity:0.996" fill="#463f3a" d="M 365.5,211.5 C 365.739,213.467 365.406,215.301 364.5,217C 360.928,218.155 357.261,218.988 353.5,219.5C 342.199,218.543 330.865,218.209 319.5,218.5C 316.109,217.471 313.443,215.471 311.5,212.5C 325.514,212.3 339.514,212.634 353.5,213.5C 357.665,213.587 361.665,212.92 365.5,211.5 Z"/></g>
<g><path style="opacity:0.075" fill="#f3ece1" d="M 424.5,199.5 C 425.328,205.653 425.828,211.987 426,218.5C 427.549,221.312 428.382,224.312 428.5,227.5C 426.194,223.915 424.861,219.915 424.5,215.5C 424.5,210.167 424.5,204.833 424.5,199.5 Z"/></g>
<g><path style="opacity:0.996" fill="#6b2e29" d="M 297.5,214.5 C 291.199,215.606 284.866,216.606 278.5,217.5C 282.11,215.426 286.11,214.259 290.5,214C 293.039,213.204 295.372,213.371 297.5,214.5 Z"/></g>
<g><path style="opacity:0.996" fill="#433e3a" d="M 297.5,214.5 C 298.5,214.833 299.167,215.5 299.5,216.5C 299.657,217.873 299.49,219.207 299,220.5C 291.168,219.279 283.668,220.279 276.5,223.5C 261.804,225.953 247.137,228.62 232.5,231.5C 225.541,231.523 220.208,228.69 216.5,223C 216.639,221.699 217.305,220.866 218.5,220.5C 220.741,222.646 223.408,224.146 226.5,225C 234.943,225.342 243.277,224.508 251.5,222.5C 260.747,221.47 269.747,219.803 278.5,217.5C 284.866,216.606 291.199,215.606 297.5,214.5 Z"/></g>
<g><path style="opacity:0.169" fill="#e3d6c0" d="M 57.5,143.5 C 56.6262,146.919 55.4595,150.252 54,153.5C 47.4365,165.294 41.4365,177.294 36,189.5C 35.0562,197.484 34.2229,205.484 33.5,213.5C 32.6184,214.76 31.6184,215.926 30.5,217C 31.7282,217.779 32.7282,218.779 33.5,220C 31.2709,223 29.6043,226.333 28.5,230C 29.9622,234.59 31.9622,238.924 34.5,243C 34.2568,243.902 33.9234,244.735 33.5,245.5C 32.6561,249.099 32.3227,252.766 32.5,256.5C 31.2698,252.652 31.2698,248.652 32.5,244.5C 29.8547,240.186 28.188,235.519 27.5,230.5C 27.6857,226.295 29.3524,222.795 32.5,220C 30.8839,219.385 29.5505,218.385 28.5,217C 30.0488,215.786 31.2155,214.286 32,212.5C 32.3333,205.833 32.6667,199.167 33,192.5C 39.7034,175.336 47.8701,159.003 57.5,143.5 Z"/></g>
<g><path style="opacity:0.996" fill="#453d39" d="M 155.5,218.5 C 161.167,218.5 166.833,218.5 172.5,218.5C 172.795,220.735 172.461,222.735 171.5,224.5C 165.738,224.851 160.072,224.351 154.5,223C 152.957,220.955 153.29,219.455 155.5,218.5 Z"/></g>
<g><path style="opacity:0.996" fill="#5e312d" d="M 278.5,217.5 C 269.747,219.803 260.747,221.47 251.5,222.5C 260.1,219.453 269.1,217.786 278.5,217.5 Z"/></g>
<g><path style="opacity:0.996" fill="#a4462c" d="M 186.5,213.5 C 184.832,215.479 184.166,217.812 184.5,220.5C 184.5,225.167 184.5,229.833 184.5,234.5C 187.865,234.046 191.198,233.38 194.5,232.5C 195.726,232.52 196.726,232.853 197.5,233.5C 192.868,234.376 188.201,235.043 183.5,235.5C 183.334,228.492 183.5,221.492 184,214.5C 184.671,213.748 185.504,213.414 186.5,213.5 Z"/></g>
<g><path style="opacity:0.996" fill="#6e503b" d="M 299.5,216.5 C 301.834,221.817 303.167,227.484 303.5,233.5C 301.727,229.283 299.727,225.116 297.5,221C 290.523,221.591 283.523,222.424 276.5,223.5C 283.668,220.279 291.168,219.279 299,220.5C 299.49,219.207 299.657,217.873 299.5,216.5 Z"/></g>
<g><path style="opacity:0.996" fill="#be2c1c" d="M 287.5,253.5 C 281.707,258.727 279.04,265.06 279.5,272.5C 281.229,273.641 282.229,275.307 282.5,277.5C 282.48,278.726 282.147,279.726 281.5,280.5C 268.799,284.099 255.799,286.099 242.5,286.5C 242.11,289.839 241.61,293.173 241,296.5C 238.872,300.376 236.539,300.376 234,296.5C 233.098,294.073 232.264,291.74 231.5,289.5C 231.628,285.119 231.295,280.785 230.5,276.5C 230.734,267.231 228.4,258.898 223.5,251.5C 223.232,248.881 223.565,246.381 224.5,244C 226.167,243.333 227.833,243.333 229.5,244C 233.982,247.287 238.982,248.287 244.5,247C 253.934,244.897 262.934,241.73 271.5,237.5C 273.867,237.842 276.2,238.342 278.5,239C 282.647,241.98 286.314,245.48 289.5,249.5C 289.248,251.073 288.582,252.406 287.5,253.5 Z"/></g>
<g><path style="opacity:0.082" fill="#e2d2b7" d="M 434.5,237.5 C 435.222,237.918 435.722,238.584 436,239.5C 437.48,245.516 436.313,250.85 432.5,255.5C 433.687,256.519 434.687,257.686 435.5,259C 434.364,260.145 433.364,261.312 432.5,262.5C 432.613,259.951 431.946,257.618 430.5,255.5C 435.429,250.352 436.763,244.352 434.5,237.5 Z"/></g>
<g><path style="opacity:0.996" fill="#1e1b17" d="M 33.5,245.5 C 34.675,245.281 35.675,245.614 36.5,246.5C 37.3674,249.935 38.534,253.269 40,256.5C 40.8075,260.027 40.6408,263.36 39.5,266.5C 37.6591,262.817 35.3258,259.484 32.5,256.5C 32.3227,252.766 32.6561,249.099 33.5,245.5 Z"/></g>
<g><path style="opacity:0.996" fill="#493e39" d="M 195.5,257.5 C 194.781,255.909 193.781,254.409 192.5,253C 184.975,252.629 177.642,253.129 170.5,254.5C 162.973,255.039 155.64,256.539 148.5,259C 147.177,259.816 146.511,260.983 146.5,262.5C 146.064,264.746 145.397,266.913 144.5,269C 142.741,269.798 141.074,269.631 139.5,268.5C 135.876,264.918 134.209,260.585 134.5,255.5C 134.833,255.5 135.167,255.5 135.5,255.5C 135.893,261.403 138.893,263.57 144.5,262C 145.259,256.074 148.592,252.574 154.5,251.5C 165.204,249.042 176.037,247.376 187,246.5C 189.47,246.34 191.636,247.007 193.5,248.5C 194.933,251.333 195.6,254.333 195.5,257.5 Z"/></g>
<g><path style="opacity:0.996" fill="#443a38" d="M 267.5,257.5 C 258.665,256.535 249.998,257.535 241.5,260.5C 241.5,258.5 241.5,256.5 241.5,254.5C 249.593,252.115 257.926,251.282 266.5,252C 267.406,253.699 267.739,255.533 267.5,257.5 Z"/></g>
<g><path style="opacity:0.996" fill="#aa472c" d="M 320.5,240.5 C 320.751,269.859 320.751,299.192 320.5,328.5C 319.833,330.167 319.167,331.833 318.5,333.5C 319.096,302.342 319.762,271.342 320.5,240.5 Z"/></g>
<g><path style="opacity:0.996" fill="#6a4838" d="M 223.5,251.5 C 228.4,258.898 230.734,267.231 230.5,276.5C 228.276,268.184 225.942,259.85 223.5,251.5 Z"/></g>
<g><path style="opacity:0.996" fill="#523e37" d="M 287.5,253.5 C 289.273,254.314 289.773,255.648 289,257.5C 284.361,261.624 281.195,266.624 279.5,272.5C 279.04,265.06 281.707,258.727 287.5,253.5 Z"/></g>
<g><path style="opacity:0.996" fill="#774634" d="M 213.5,252.5 C 214.613,253.946 214.78,255.613 214,257.5C 213,259.5 212,261.5 211,263.5C 210.83,273.675 210.33,283.675 209.5,293.5C 209.168,282.147 209.501,270.814 210.5,259.5C 211.132,256.939 212.132,254.605 213.5,252.5 Z"/></g>
<g><path style="opacity:0.996" fill="#b38e50" d="M 267.5,257.5 C 267.085,262.825 265.585,267.825 263,272.5C 256.731,276.871 249.898,278.204 242.5,276.5C 241.549,271.23 241.215,265.897 241.5,260.5C 249.998,257.535 258.665,256.535 267.5,257.5 Z"/></g>
<g><path style="opacity:0.996" fill="#867148" d="M 170.5,254.5 C 165.309,256.514 159.809,257.848 154,258.5C 150.992,258.994 148.492,260.327 146.5,262.5C 146.511,260.983 147.177,259.816 148.5,259C 155.64,256.539 162.973,255.039 170.5,254.5 Z"/></g>
<g><path style="opacity:0.996" fill="#bf2d1c" d="M 188.5,280.5 C 187.173,283.657 184.84,284.824 181.5,284C 178.639,281.106 176.139,277.939 174,274.5C 173.12,271.139 171.62,268.139 169.5,265.5C 168.659,263.621 168.325,261.621 168.5,259.5C 181.326,260.659 187.992,267.659 188.5,280.5 Z"/></g>
<g><path style="opacity:0.996" fill="#bf2d1c" d="M 166.5,290.5 C 164.138,294.001 161.305,294.335 158,291.5C 155.182,285.521 152.682,279.521 150.5,273.5C 150.338,271.473 150.505,269.473 151,267.5C 151.414,267.043 151.914,266.709 152.5,266.5C 163.672,270.948 168.339,278.948 166.5,290.5 Z"/></g>
<g><path style="opacity:0.027" fill="#7e7a72" d="M 432.5,263.5 C 432.5,266.167 432.5,268.833 432.5,271.5C 431.833,271.5 431.167,271.5 430.5,271.5C 429.964,268.302 430.631,265.635 432.5,263.5 Z"/></g>
<g><path style="opacity:0.996" fill="#be2d1c" d="M 118.5,302.5 C 117.269,305.687 116.103,309.02 115,312.5C 112.718,316.041 110.051,316.374 107,313.5C 106.102,310.931 104.935,308.598 103.5,306.5C 102.467,300.374 103.967,295.041 108,290.5C 110.099,284.674 111.432,278.674 112,272.5C 112.589,270.137 114.089,269.137 116.5,269.5C 119.619,280.284 120.286,291.284 118.5,302.5 Z"/></g>
<g><path style="opacity:0.996" fill="#be2d1c" d="M 146.5,297.5 C 145.444,301.703 142.778,303.203 138.5,302C 135.191,294.843 132.191,287.676 129.5,280.5C 129.337,278.143 129.503,275.81 130,273.5C 131.588,271.032 133.422,270.866 135.5,273C 139.774,277.274 143.274,282.107 146,287.5C 146.498,290.817 146.665,294.15 146.5,297.5 Z"/></g>
<g><path style="opacity:0.196" fill="#cec6b9" d="M 430.5,271.5 C 431.167,271.5 431.833,271.5 432.5,271.5C 430.673,282.137 429.173,292.804 428,303.5C 426.928,307.97 425.094,311.97 422.5,315.5C 423.565,311.048 424.899,306.715 426.5,302.5C 427.479,299.375 427.813,296.042 427.5,292.5C 427.15,289.144 427.983,286.144 430,283.5C 430.499,279.514 430.666,275.514 430.5,271.5 Z"/></g>
<g><path style="opacity:0.043" fill="#cdc4b6" d="M 32.5,256.5 C 35.3258,259.484 37.6591,262.817 39.5,266.5C 40.7796,273.962 40.7796,281.296 39.5,288.5C 39.6662,282.158 39.4995,275.825 39,269.5C 36.2739,265.381 34.1072,261.048 32.5,256.5 Z"/></g>
<g><path style="opacity:0.996" fill="#4d4039" d="M 169.5,265.5 C 171.62,268.139 173.12,271.139 174,274.5C 176.139,277.939 178.639,281.106 181.5,284C 184.84,284.824 187.173,283.657 188.5,280.5C 189.47,285.573 187.637,288.906 183,290.5C 182.167,290.167 181.333,289.833 180.5,289.5C 177.667,285.167 174.833,280.833 172,276.5C 170.438,272.986 169.605,269.319 169.5,265.5 Z"/></g>
<g><path style="opacity:0.996" fill="#4a3e39" d="M 281.5,280.5 C 282.218,282.137 282.384,283.803 282,285.5C 271.576,289.069 260.743,291.236 249.5,292C 247.624,293.017 245.624,293.851 243.5,294.5C 242.668,297.161 241.834,299.828 241,302.5C 240.653,304.18 239.653,305.18 238,305.5C 232.639,301.607 230.472,296.273 231.5,289.5C 232.264,291.74 233.098,294.073 234,296.5C 236.539,300.376 238.872,300.376 241,296.5C 241.61,293.173 242.11,289.839 242.5,286.5C 255.799,286.099 268.799,284.099 281.5,280.5 Z"/></g>
<g><path style="opacity:0.996" fill="#4f3f39" d="M 150.5,273.5 C 152.682,279.521 155.182,285.521 158,291.5C 161.305,294.335 164.138,294.001 166.5,290.5C 167.466,294.878 165.966,297.878 162,299.5C 160.289,299.561 158.956,298.894 158,297.5C 153.94,290.076 151.44,282.076 150.5,273.5 Z"/></g>
<g><path style="opacity:0.486" fill="#4b463e" d="M 427.5,292.5 C 427.813,296.042 427.479,299.375 426.5,302.5C 426.663,300.143 426.497,297.81 426,295.5C 425.617,296.056 425.117,296.389 424.5,296.5C 424.554,294.368 425.554,293.035 427.5,292.5 Z"/></g>
<g><path style="opacity:0.416" fill="#e3d8c4" d="M 39.5,289.5 C 40.9311,289.881 41.7645,290.881 42,292.5C 42.9855,300.873 44.1521,309.206 45.5,317.5C 46.0209,321.481 46.3542,325.481 46.5,329.5C 44.1732,316.253 41.8399,302.92 39.5,289.5 Z"/></g>
<g><path style="opacity:0.997" fill="#090706" d="M 426.5,302.5 C 424.899,306.715 423.565,311.048 422.5,315.5C 421.624,315.369 420.957,315.702 420.5,316.5C 418.952,319.823 417.619,323.157 416.5,326.5C 415.624,326.369 414.957,326.702 414.5,327.5C 410.345,334.81 407.012,342.476 404.5,350.5C 398.8,355.904 395.8,362.571 395.5,370.5C 393.473,370.338 391.473,370.505 389.5,371C 382.14,378.36 374.806,385.694 367.5,393C 356.976,400.354 346.309,407.521 335.5,414.5C 334.702,414.957 334.369,415.624 334.5,416.5C 327.303,420.628 320.97,425.962 315.5,432.5C 313.926,433.631 312.259,433.798 310.5,433C 307.76,429.575 305.427,429.908 303.5,434C 300.915,435.128 298.248,435.961 295.5,436.5C 275.244,432.957 254.911,432.624 234.5,435.5C 227.54,435.575 220.874,434.241 214.5,431.5C 208.031,434.881 201.365,437.881 194.5,440.5C 187.795,441.902 181.128,441.735 174.5,440C 164.482,434.826 154.149,430.326 143.5,426.5C 140.538,422.568 136.538,420.235 131.5,419.5C 127.194,415.679 122.527,412.345 117.5,409.5C 115.205,406.703 112.705,404.036 110,401.5C 108.149,397.996 106.816,394.33 106,390.5C 105.167,389.667 104.333,388.833 103.5,388C 99.2695,386.71 94.9362,386.21 90.5,386.5C 90.5,384.5 90.5,382.5 90.5,380.5C 88.9397,380.519 87.4397,380.852 86,381.5C 84.1958,378.752 82.0291,376.252 79.5,374C 78.552,373.517 77.552,373.351 76.5,373.5C 75.0959,370.623 72.7626,368.956 69.5,368.5C 65.898,364.395 62.0647,360.395 58,356.5C 57.3486,354.765 57.5153,353.098 58.5,351.5C 55.2314,350.676 53.0648,348.676 52,345.5C 49.7787,338.666 48.2787,331.666 47.5,324.5C 49.5098,327.505 52.1765,329.838 55.5,331.5C 54.3887,332.611 53.722,333.945 53.5,335.5C 59.768,343.598 67.4347,350.098 76.5,355C 78.5299,356.896 80.1966,359.063 81.5,361.5C 83.0453,362.452 84.712,362.785 86.5,362.5C 86.2865,364.144 86.6198,365.644 87.5,367C 93.0886,367.046 98.4219,368.213 103.5,370.5C 104.164,374.654 105.331,378.654 107,382.5C 111.575,387.746 116.742,392.246 122.5,396C 137.437,405.636 153.103,413.969 169.5,421C 176.332,423.322 183.332,423.988 190.5,423C 197.189,420.603 203.856,418.103 210.5,415.5C 215.536,414.732 220.536,415.232 225.5,417C 229.667,417.167 233.833,417.333 238,417.5C 252.143,416.336 266.31,415.669 280.5,415.5C 285.451,416.923 290.618,417.923 296,418.5C 301.095,418.119 305.428,416.119 309,412.5C 310.829,415.204 313.329,416.037 316.5,415C 321.532,409.633 326.865,404.633 332.5,400C 345.5,391 358.5,382 371.5,373C 378.507,365.482 385.84,358.648 393.5,352.5C 395.5,352.5 397.5,352.5 399.5,352.5C 399.368,349.43 399.701,346.43 400.5,343.5C 408.249,327.668 416.249,312.002 424.5,296.5C 425.117,296.389 425.617,296.056 426,295.5C 426.497,297.81 426.663,300.143 426.5,302.5 Z"/></g>
<g><path style="opacity:0.996" fill="#53433a" d="M 129.5,280.5 C 132.191,287.676 135.191,294.843 138.5,302C 142.778,303.203 145.444,301.703 146.5,297.5C 146.11,300.839 145.61,304.173 145,307.5C 142.936,308.591 140.769,308.758 138.5,308C 133.253,299.58 130.253,290.413 129.5,280.5 Z"/></g>
<g><path style="opacity:0.996" fill="#4c413a" d="M 118.5,302.5 C 118.464,306.979 117.631,311.312 116,315.5C 114.148,322.009 110.815,323.009 106,318.5C 104.011,314.747 103.178,310.747 103.5,306.5C 104.935,308.598 106.102,310.931 107,313.5C 110.051,316.374 112.718,316.041 115,312.5C 116.103,309.02 117.269,305.687 118.5,302.5 Z"/></g>
<g><path style="opacity:0.349" fill="#a1a1a1" d="M 422.5,315.5 C 421.258,319.655 419.258,323.322 416.5,326.5C 417.619,323.157 418.952,319.823 420.5,316.5C 420.957,315.702 421.624,315.369 422.5,315.5 Z"/></g>
<g><path style="opacity:0.098" fill="#a4a4a4" d="M 416.5,326.5 C 413.541,335.086 409.541,343.086 404.5,350.5C 407.012,342.476 410.345,334.81 414.5,327.5C 414.957,326.702 415.624,326.369 416.5,326.5 Z"/></g>
<g><path style="opacity:0.996" fill="#4e3e38" d="M 207.5,311.5 C 207.222,328.509 200.222,342.009 186.5,352C 183.421,353.09 181.088,352.257 179.5,349.5C 178.28,343.954 176.447,338.621 174,333.5C 170.975,329.976 168.142,326.309 165.5,322.5C 165.543,321.584 165.876,320.917 166.5,320.5C 170.219,323.054 173.052,326.387 175,330.5C 176.63,335.68 178.63,340.68 181,345.5C 182.726,346.576 184.559,346.743 186.5,346C 198.513,337.462 205.513,325.962 207.5,311.5 Z"/></g>
<g><path style="opacity:0.996" fill="#564526" d="M 400.5,343.5 C 399.701,346.43 399.368,349.43 399.5,352.5C 397.5,352.5 395.5,352.5 393.5,352.5C 394.919,351.549 396.585,351.216 398.5,351.5C 398.337,349.143 398.503,346.81 399,344.5C 399.383,343.944 399.883,343.611 400.5,343.5 Z"/></g>
<g><path style="opacity:0.996" fill="#4c3e39" d="M 274.5,327.5 C 283.961,335.124 291.794,344.124 298,354.5C 300.823,357.571 304.156,358.238 308,356.5C 313.325,349.702 316.825,342.036 318.5,333.5C 319.167,331.833 319.833,330.167 320.5,328.5C 319.447,341.497 314.781,352.997 306.5,363C 303.653,363.944 301.153,363.444 299,361.5C 296.499,356.494 293.499,351.827 290,347.5C 284.417,342.185 278.75,336.852 273,331.5C 272.156,329.537 272.656,328.204 274.5,327.5 Z"/></g>
<g><path style="opacity:0.102" fill="#a2a2a1" d="M 45.5,317.5 C 46.6118,319.599 47.2785,321.933 47.5,324.5C 48.2787,331.666 49.7787,338.666 52,345.5C 53.0648,348.676 55.2314,350.676 58.5,351.5C 57.5153,353.098 57.3486,354.765 58,356.5C 62.0647,360.395 65.898,364.395 69.5,368.5C 64.8621,365.196 60.5288,361.529 56.5,357.5C 55.3192,355.865 55.3192,354.198 56.5,352.5C 52.1899,349.234 49.3565,344.901 48,339.5C 47.5448,336.146 47.0448,332.813 46.5,329.5C 46.3542,325.481 46.0209,321.481 45.5,317.5 Z"/></g>
<g><path style="opacity:0.008" fill="#9e9e9e" d="M 69.5,368.5 C 72.7626,368.956 75.0959,370.623 76.5,373.5C 73.6298,372.567 71.2964,370.9 69.5,368.5 Z"/></g>
<g><path style="opacity:0.394" fill="#969696" d="M 404.5,350.5 C 402.624,355.254 400.458,359.921 398,364.5C 397.503,367.146 397.336,369.813 397.5,372.5C 394.268,371.093 391.268,371.593 388.5,374C 373.32,391.355 355.653,405.522 335.5,416.5C 335.167,416.5 334.833,416.5 334.5,416.5C 334.369,415.624 334.702,414.957 335.5,414.5C 346.309,407.521 356.976,400.354 367.5,393C 374.806,385.694 382.14,378.36 389.5,371C 391.473,370.505 393.473,370.338 395.5,370.5C 395.8,362.571 398.8,355.904 404.5,350.5 Z"/></g>
<g><path style="opacity:0.012" fill="#a1a0a0" d="M 76.5,373.5 C 77.552,373.351 78.552,373.517 79.5,374C 82.0291,376.252 84.1958,378.752 86,381.5C 87.4397,380.852 88.9397,380.519 90.5,380.5C 90.5,382.5 90.5,384.5 90.5,386.5C 94.9362,386.21 99.2695,386.71 103.5,388C 104.333,388.833 105.167,389.667 106,390.5C 106.816,394.33 108.149,397.996 110,401.5C 112.705,404.036 115.205,406.703 117.5,409.5C 113.933,407.443 110.766,404.777 108,401.5C 106.45,397.611 104.95,393.778 103.5,390C 99.0565,388.06 94.3899,387.06 89.5,387C 88.6634,385.989 88.33,384.822 88.5,383.5C 86.712,383.785 85.0453,383.452 83.5,382.5C 81.4939,379.171 79.1606,376.171 76.5,373.5 Z"/></g>
<g><path style="opacity:0.094" fill="#939393" d="M 117.5,409.5 C 122.527,412.345 127.194,415.679 131.5,419.5C 126.12,417.145 121.454,413.812 117.5,409.5 Z"/></g>
<g><path style="opacity:0.996" fill="#8f7340" d="M 280.5,415.5 C 266.31,415.669 252.143,416.336 238,417.5C 233.833,417.333 229.667,417.167 225.5,417C 220.536,415.232 215.536,414.732 210.5,415.5C 211.312,414.007 212.645,413.34 214.5,413.5C 217.179,413.936 219.845,414.436 222.5,415C 242.004,415.018 261.337,415.185 280.5,415.5 Z"/></g>
<g><path style="opacity:0.573" fill="#8d8d8d" d="M 131.5,419.5 C 136.538,420.235 140.538,422.568 143.5,426.5C 138.976,424.957 134.976,422.623 131.5,419.5 Z"/></g>
<g><path style="opacity:0.216" fill="#ababab" d="M 334.5,416.5 C 334.833,416.5 335.167,416.5 335.5,416.5C 328.403,422.093 321.736,428.26 315.5,435C 312.503,435.755 310.003,434.922 308,432.5C 304.562,435.154 300.729,437.154 296.5,438.5C 287.002,436.04 277.335,435.04 267.5,435.5C 256.896,435.418 246.396,436.084 236,437.5C 228.916,436.818 221.916,435.485 215,433.5C 205.668,438.833 195.668,442.166 185,443.5C 179.957,443.133 175.124,441.966 170.5,440C 161.129,435.981 152.129,431.481 143.5,426.5C 154.149,430.326 164.482,434.826 174.5,440C 181.128,441.735 187.795,441.902 194.5,440.5C 201.365,437.881 208.031,434.881 214.5,431.5C 220.874,434.241 227.54,435.575 234.5,435.5C 254.911,432.624 275.244,432.957 295.5,436.5C 298.248,435.961 300.915,435.128 303.5,434C 305.427,429.908 307.76,429.575 310.5,433C 312.259,433.798 313.926,433.631 315.5,432.5C 320.97,425.962 327.303,420.628 334.5,416.5 Z"/></g>
</svg>
