<?xml version="1.0" encoding="UTF-8"?>
<!DOCTYPE svg PUBLIC "-//W3C//DTD SVG 1.1//EN" "http://www.w3.org/Graphics/SVG/1.1/DTD/svg11.dtd">
<svg xmlns="http://www.w3.org/2000/svg" version="1.1" width="465px" height="452px" style="shape-rendering:geometricPrecision; text-rendering:geometricPrecision; image-rendering:optimizeQuality; fill-rule:evenodd; clip-rule:evenodd" xmlns:xlink="http://www.w3.org/1999/xlink">
<g><path style="opacity:0.024" fill="#faf7f1" d="M 275.5,47.5 C 277.304,46.838 279.304,46.5046 281.5,46.5C 285.117,46.3981 288.45,47.0648 291.5,48.5C 289.833,48.5 288.167,48.5 286.5,48.5C 283.038,47.5184 279.371,47.185 275.5,47.5 Z"/></g>
<g><path style="opacity:0.996" fill="#b59352" d="M 286.5,48.5 C 288.167,48.5 289.833,48.5 291.5,48.5C 291.953,49.4584 292.619,50.2917 293.5,51C 304.837,55.2249 315.837,60.2249 326.5,66C 333.035,69.7627 339.368,73.7627 345.5,78C 351.071,81.9021 355.571,86.7354 359,92.5C 359.497,95.146 359.664,97.8127 359.5,100.5C 361.842,100.504 363.842,101.337 365.5,103C 369.486,103.499 373.486,103.666 377.5,103.5C 377.5,105.167 377.5,106.833 377.5,108.5C 379.5,108.5 381.5,108.5 383.5,108.5C 384.697,114.613 388.364,118.447 394.5,120C 399,123.833 403.5,127.667 408,131.5C 410.349,133.504 410.849,135.837 409.5,138.5C 414.917,142.434 418.083,147.767 419,154.5C 419.947,162.234 421.28,169.901 423,177.5C 423.333,188.5 423.667,199.5 424,210.5C 424.667,213.833 425.333,217.167 426,220.5C 429.252,225.334 432.252,230.334 435,235.5C 435.717,239.045 435.55,242.545 434.5,246C 432.825,247.502 431.159,249.002 429.5,250.5C 430.5,251.833 431.5,253.167 432.5,254.5C 431.754,255.736 431.421,257.07 431.5,258.5C 430.527,260.948 430.194,263.615 430.5,266.5C 430.666,270.846 430.499,275.179 430,279.5C 428.451,282.312 427.618,285.312 427.5,288.5C 426.167,288.5 425.5,289.167 425.5,290.5C 417.002,306.433 408.502,322.433 400,338.5C 399.502,341.482 399.335,344.482 399.5,347.5C 396.813,347.336 394.146,347.503 391.5,348C 384.483,355.086 377.483,362.086 370.5,369C 357.833,377.667 345.167,386.333 332.5,395C 326.865,399.633 321.532,404.633 316.5,410C 313.329,411.037 310.829,410.204 309,407.5C 306.532,409.803 303.699,411.47 300.5,412.5C 296.167,412.5 291.833,412.5 287.5,412.5C 286.234,411.91 284.901,411.41 283.5,411C 278.833,410.833 274.167,410.667 269.5,410.5C 254.884,412.158 240.217,412.658 225.5,412C 221.541,411.721 217.708,410.887 214,409.5C 206.36,413.246 198.527,416.246 190.5,418.5C 183.73,418.714 177.063,418.047 170.5,416.5C 155.636,410.401 141.302,403.234 127.5,395C 118.751,389.586 111.251,382.753 105,374.5C 105.892,367.829 103.059,363.995 96.5,363C 93.5,362.667 90.5,362.333 87.5,362C 86.6198,360.644 86.2865,359.144 86.5,357.5C 84.8008,357.66 83.1341,357.494 81.5,357C 80.3241,354.314 78.6575,351.981 76.5,350C 67.6281,346.446 60.4615,340.613 55,332.5C 54.3486,330.765 54.5153,329.098 55.5,327.5C 52.1916,325.864 49.525,323.53 47.5,320.5C 44.7705,309.02 42.7705,297.353 41.5,285.5C 40.6689,278.524 40.1689,271.524 40,264.5C 39.4867,263.473 38.9867,262.473 38.5,261.5C 39.6453,257.689 39.8119,253.689 39,249.5C 38.5283,245.89 37.0283,242.89 34.5,240.5C 33.2278,236.278 31.2278,232.611 28.5,229.5C 28.3379,227.473 28.5045,225.473 29,223.5C 30.338,220.682 31.838,218.015 33.5,215.5C 33.4096,213.575 32.4096,212.408 30.5,212C 31.7014,211.097 32.5348,209.931 33,208.5C 33.3333,202.167 33.6667,195.833 34,189.5C 37.5821,180.41 41.4154,171.41 45.5,162.5C 46.3764,162.631 47.0431,162.298 47.5,161.5C 48.2261,158.379 49.7261,155.713 52,153.5C 54.3562,148.769 56.1896,143.769 57.5,138.5C 58.3764,138.631 59.0431,138.298 59.5,137.5C 60.7856,134.427 62.4523,131.593 64.5,129C 65.3672,125.895 65.7006,122.728 65.5,119.5C 68.3198,119.752 70.9865,119.252 73.5,118C 77.4385,114.571 80.7719,110.737 83.5,106.5C 88.1201,103.688 92.1201,100.021 95.5,95.5C 101.07,92.6068 106.403,89.2735 111.5,85.5C 113.394,84.0546 115.06,82.3879 116.5,80.5C 121.665,78.6625 125.999,75.6625 129.5,71.5C 135.834,67.98 141.501,63.48 146.5,58C 149.526,56.2677 152.526,56.4344 155.5,58.5C 158.561,56.4106 161.561,54.4106 164.5,52.5C 164.5,51.8333 164.833,51.5 165.5,51.5C 179.311,56.2642 193.644,57.7642 208.5,56C 222.672,52.2231 236.672,52.7231 250.5,57.5C 257.675,53.59 265.341,50.7567 273.5,49C 277.821,48.501 282.154,48.3343 286.5,48.5 Z"/></g>
<g><path style="opacity:0.561" fill="#deceb0" d="M 275.5,47.5 C 279.371,47.185 283.038,47.5184 286.5,48.5C 282.154,48.3343 277.821,48.501 273.5,49C 265.341,50.7567 257.675,53.59 250.5,57.5C 236.672,52.7231 222.672,52.2231 208.5,56C 193.644,57.7642 179.311,56.2642 165.5,51.5C 175.3,53.0749 185.133,54.4082 195,55.5C 206.148,54.317 217.315,53.317 228.5,52.5C 235.636,52.5943 242.636,53.5943 249.5,55.5C 254.908,53.6331 260.241,51.4665 265.5,49C 268.757,47.9571 272.09,47.4571 275.5,47.5 Z"/></g>
<g><path style="opacity:0.243" fill="#e8dcc6" d="M 164.5,52.5 C 161.561,54.4106 158.561,56.4106 155.5,58.5C 152.526,56.4344 149.526,56.2677 146.5,58C 141.501,63.48 135.834,67.98 129.5,71.5C 135.904,66.6032 141.904,61.1032 147.5,55C 150.232,54.8462 152.898,55.3462 155.5,56.5C 157.517,55.8257 159.183,54.6591 160.5,53C 161.793,52.51 163.127,52.3433 164.5,52.5 Z"/></g>
<g><path style="opacity:0.29" fill="#e1d2b3" d="M 291.5,48.5 C 308.137,54.8879 324.137,62.7213 339.5,72C 346.649,76.6688 353.149,82.1688 359,88.5C 360.759,91.9638 361.926,95.6304 362.5,99.5C 367.354,101.802 372.354,103.135 377.5,103.5C 373.486,103.666 369.486,103.499 365.5,103C 363.842,101.337 361.842,100.504 359.5,100.5C 359.664,97.8127 359.497,95.146 359,92.5C 355.571,86.7354 351.071,81.9021 345.5,78C 339.368,73.7627 333.035,69.7627 326.5,66C 315.837,60.2249 304.837,55.2249 293.5,51C 292.619,50.2917 291.953,49.4584 291.5,48.5 Z"/></g>
<g><path style="opacity:0.251" fill="#e9dcca" d="M 129.5,71.5 C 125.999,75.6625 121.665,78.6625 116.5,80.5C 120.553,77.1173 124.886,74.1173 129.5,71.5 Z"/></g>
<g><path style="opacity:0.424" fill="#e4d4b6" d="M 116.5,80.5 C 115.06,82.3879 113.394,84.0546 111.5,85.5C 106.403,89.2735 101.07,92.6068 95.5,95.5C 101.963,89.7665 108.963,84.7665 116.5,80.5 Z"/></g>
<g><path style="opacity:0.914" fill="#dac6a2" d="M 95.5,95.5 C 92.1201,100.021 88.1201,103.688 83.5,106.5C 83.5106,104.983 84.1772,103.816 85.5,103C 88.7289,100.259 92.0622,97.7589 95.5,95.5 Z"/></g>
<g><path style="opacity:0.996" fill="#c02b1b" d="M 262.5,128.5 C 260.069,133.085 258.736,138.085 258.5,143.5C 256.354,156.935 255.354,170.602 255.5,184.5C 255.02,189.822 254.687,195.155 254.5,200.5C 271.321,196.468 288.321,192.801 305.5,189.5C 313.918,189.142 321.418,191.476 328,196.5C 328.678,198.598 328.511,200.598 327.5,202.5C 325.95,203.441 324.284,204.107 322.5,204.5C 311.675,205.541 301.008,206.874 290.5,208.5C 287.167,209.167 283.833,209.833 280.5,210.5C 271.042,211.178 261.709,212.511 252.5,214.5C 252.5,216.5 252.5,218.5 252.5,220.5C 252.335,223.518 252.502,226.518 253,229.5C 267.89,252.408 285.057,273.574 304.5,293C 322.849,306.673 343.182,316.34 365.5,322C 368.806,323.995 369.139,326.162 366.5,328.5C 361.548,329.492 356.548,330.158 351.5,330.5C 337.471,330.762 323.471,330.429 309.5,329.5C 307.5,328.5 305.5,327.5 303.5,326.5C 285.553,302.369 269.386,277.036 255,250.5C 253.864,247.904 253.031,245.237 252.5,242.5C 251.167,242.5 249.833,242.5 248.5,242.5C 248.276,246.179 247.942,249.846 247.5,253.5C 247.5,253.833 247.5,254.167 247.5,254.5C 244.561,264.733 240.728,274.733 236,284.5C 221.956,307.933 201.789,323.267 175.5,330.5C 172.845,329.533 172.178,327.867 173.5,325.5C 202.603,308.907 221.77,284.574 231,252.5C 232.607,243.067 234.44,233.734 236.5,224.5C 236.5,224.167 236.5,223.833 236.5,223.5C 237.451,222.081 237.784,220.415 237.5,218.5C 233.575,218.43 229.909,219.097 226.5,220.5C 218.975,222.212 211.642,224.212 204.5,226.5C 199.797,226.563 195.13,226.229 190.5,225.5C 188.389,224.051 186.056,223.051 183.5,222.5C 181.525,220.638 181.192,218.638 182.5,216.5C 189.603,214.642 196.603,212.976 203.5,211.5C 209.077,210.7 214.744,209.7 220.5,208.5C 225.45,208.23 230.117,207.23 234.5,205.5C 235.822,205.67 236.989,205.337 238,204.5C 238.495,202.527 238.662,200.527 238.5,198.5C 239.317,196.031 239.817,193.365 240,190.5C 240.829,171.329 240.662,152.329 239.5,133.5C 239.167,133.5 238.833,133.5 238.5,133.5C 238.096,126.601 235.763,120.601 231.5,115.5C 231.5,113.167 231.5,110.833 231.5,108.5C 234.518,108.335 237.518,108.502 240.5,109C 248.517,111.757 255.684,115.924 262,121.5C 262.497,123.81 262.663,126.143 262.5,128.5 Z"/></g>
<g><path style="opacity:0.996" fill="#c02c1b" d="M 198.5,137.5 C 195.536,139.962 192.703,142.629 190,145.5C 181.392,159.106 172.392,172.44 163,185.5C 162.235,187.066 162.402,188.399 163.5,189.5C 164.842,192.166 166.675,194.499 169,196.5C 169.251,237.547 167.918,278.547 165,319.5C 164.319,323.221 163.486,326.887 162.5,330.5C 161.204,333.779 159.537,336.946 157.5,340C 155.421,340.808 153.421,340.641 151.5,339.5C 148.802,334.739 147.135,329.739 146.5,324.5C 146.361,311.309 147.861,298.309 151,285.5C 153.977,258.254 155.143,230.921 154.5,203.5C 154.799,201.396 154.466,199.396 153.5,197.5C 146.983,203.183 140.983,209.35 135.5,216C 126.354,224.816 116.354,232.483 105.5,239C 102.794,240.908 99.7935,241.741 96.5,241.5C 95.4017,240.399 95.235,239.066 96,237.5C 126.783,210.071 151.449,178.071 170,141.5C 172.702,134.075 174.036,126.409 174,118.5C 175.182,116.643 176.849,115.643 179,115.5C 188.377,118.879 195.211,125.046 199.5,134C 199.352,135.256 199.018,136.423 198.5,137.5 Z"/></g>
<g><path style="opacity:0.263" fill="#e4d7be" d="M 83.5,106.5 C 80.7719,110.737 77.4385,114.571 73.5,118C 70.9865,119.252 68.3198,119.752 65.5,119.5C 65.7006,122.728 65.3672,125.895 64.5,129C 62.4523,131.593 60.7856,134.427 59.5,137.5C 59.0431,138.298 58.3764,138.631 57.5,138.5C 60.0623,133.704 62.3956,128.704 64.5,123.5C 63.5721,122.232 63.4054,120.899 64,119.5C 71.7107,118.145 77.5441,113.978 81.5,107C 82.0944,106.536 82.7611,106.369 83.5,106.5 Z"/></g>
<g><path style="opacity:0.996" fill="#5b3e35" d="M 231.5,115.5 C 235.763,120.601 238.096,126.601 238.5,133.5C 237.4,131.723 236.566,129.723 236,127.5C 235,126.833 234,126.167 233,125.5C 231.957,122.243 231.457,118.91 231.5,115.5 Z"/></g>
<g><path style="opacity:0.996" fill="#654437" d="M 262.5,128.5 C 261.927,134.455 260.593,140.122 258.5,145.5C 258.5,144.833 258.5,144.167 258.5,143.5C 258.736,138.085 260.069,133.085 262.5,128.5 Z"/></g>
<g><path style="opacity:0.996" fill="#bf2c1b" d="M 320.5,166.5 C 317.067,170.817 312.734,171.65 307.5,169C 297.46,163.129 288.793,155.629 281.5,146.5C 279.478,144.581 279.144,142.414 280.5,140C 291.44,138.178 301.774,139.844 311.5,145C 314.933,148.042 317.766,151.542 320,155.5C 320.499,159.152 320.665,162.818 320.5,166.5 Z"/></g>
<g><path style="opacity:0.502" fill="#e5d8be" d="M 377.5,103.5 C 379.222,105.45 381.388,106.783 384,107.5C 385.07,110.242 386.57,112.742 388.5,115C 397.195,120.023 405.028,126.19 412,133.5C 412.72,135.112 412.554,136.612 411.5,138C 412.729,139.529 414.229,140.696 416,141.5C 419.731,151.877 422.398,162.544 424,173.5C 424.7,186.498 425.367,199.498 426,212.5C 427,215.833 428,219.167 429,222.5C 431.517,226.37 433.85,230.37 436,234.5C 436.667,238.5 436.667,242.5 436,246.5C 435.215,248.286 434.049,249.786 432.5,251C 433.687,252.019 434.687,253.186 435.5,254.5C 434.476,255.852 433.476,257.185 432.5,258.5C 432.167,258.5 431.833,258.5 431.5,258.5C 431.421,257.07 431.754,255.736 432.5,254.5C 431.5,253.167 430.5,251.833 429.5,250.5C 431.159,249.002 432.825,247.502 434.5,246C 435.55,242.545 435.717,239.045 435,235.5C 432.252,230.334 429.252,225.334 426,220.5C 425.333,217.167 424.667,213.833 424,210.5C 423.667,199.5 423.333,188.5 423,177.5C 421.28,169.901 419.947,162.234 419,154.5C 418.083,147.767 414.917,142.434 409.5,138.5C 410.849,135.837 410.349,133.504 408,131.5C 403.5,127.667 399,123.833 394.5,120C 388.364,118.447 384.697,114.613 383.5,108.5C 381.5,108.5 379.5,108.5 377.5,108.5C 377.5,106.833 377.5,105.167 377.5,103.5 Z"/></g>
<g><path style="opacity:0.996" fill="#493f3a" d="M 281.5,146.5 C 288.793,155.629 297.46,163.129 307.5,169C 312.734,171.65 317.067,170.817 320.5,166.5C 321.362,174.801 317.695,177.968 309.5,176C 297.282,169.783 287.615,160.783 280.5,149C 280.528,147.93 280.861,147.097 281.5,146.5 Z"/></g>
<g><path style="opacity:0.996" fill="#ae4a2d" d="M 239.5,133.5 C 240.662,152.329 240.829,171.329 240,190.5C 239.817,193.365 239.317,196.031 238.5,198.5C 239.393,176.848 239.726,155.181 239.5,133.5 Z"/></g>
<g><path style="opacity:0.996" fill="#4d3c37" d="M 198.5,137.5 C 198.662,139.527 198.495,141.527 198,143.5C 188.366,152.793 180.699,163.46 175,175.5C 170.984,180.016 167.151,184.682 163.5,189.5C 162.402,188.399 162.235,187.066 163,185.5C 172.392,172.44 181.392,159.106 190,145.5C 192.703,142.629 195.536,139.962 198.5,137.5 Z"/></g>
<g><path style="opacity:0.145" fill="#e7d9c0" d="M 57.5,138.5 C 56.1896,143.769 54.3562,148.769 52,153.5C 49.7261,155.713 48.2261,158.379 47.5,161.5C 47.0431,162.298 46.3764,162.631 45.5,162.5C 48.9457,154.123 52.9457,146.123 57.5,138.5 Z"/></g>
<g><path style="opacity:0.996" fill="#9a422b" d="M 258.5,143.5 C 258.5,144.167 258.5,144.833 258.5,145.5C 257.652,158.662 256.652,171.662 255.5,184.5C 255.354,170.602 256.354,156.935 258.5,143.5 Z"/></g>
<g><path style="opacity:0.069" fill="#efe6d6" d="M 45.5,162.5 C 41.4154,171.41 37.5821,180.41 34,189.5C 33.6667,195.833 33.3333,202.167 33,208.5C 32.5348,209.931 31.7014,211.097 30.5,212C 32.4096,212.408 33.4096,213.575 33.5,215.5C 31.838,218.015 30.338,220.682 29,223.5C 28.5045,225.473 28.3379,227.473 28.5,229.5C 27.3709,227.372 27.2042,225.039 28,222.5C 29.0468,220.238 30.2135,218.071 31.5,216C 28.939,213.053 29.1056,210.22 32,207.5C 31.0108,190.651 35.5108,175.651 45.5,162.5 Z"/></g>
<g><path style="opacity:0.996" fill="#4a3c38" d="M 154.5,203.5 C 153.448,203.351 152.448,203.517 151.5,204C 137.587,221.583 120.92,235.917 101.5,247C 99.5273,247.495 97.5273,247.662 95.5,247.5C 95.5172,245.435 95.8505,243.435 96.5,241.5C 99.7935,241.741 102.794,240.908 105.5,239C 116.354,232.483 126.354,224.816 135.5,216C 140.983,209.35 146.983,203.183 153.5,197.5C 154.466,199.396 154.799,201.396 154.5,203.5 Z"/></g>
<g><path style="opacity:0.996" fill="#403c3a" d="M 327.5,202.5 C 328.582,207.625 326.249,210.458 320.5,211C 298.125,213.589 275.792,216.422 253.5,219.5C 253.5,218.167 253.5,216.833 253.5,215.5C 262.657,214.07 271.657,212.404 280.5,210.5C 283.833,209.833 287.167,209.167 290.5,208.5C 300.933,208.779 311.266,207.945 321.5,206C 322.056,205.617 322.389,205.117 322.5,204.5C 324.284,204.107 325.95,203.441 327.5,202.5 Z"/></g>
<g><path style="opacity:0.996" fill="#ba5e36" d="M 234.5,205.5 C 230.117,207.23 225.45,208.23 220.5,208.5C 224.883,206.77 229.55,205.77 234.5,205.5 Z"/></g>
<g><path style="opacity:0.996" fill="#702e28" d="M 322.5,204.5 C 322.389,205.117 322.056,205.617 321.5,206C 311.266,207.945 300.933,208.779 290.5,208.5C 301.008,206.874 311.675,205.541 322.5,204.5 Z"/></g>
<g><path style="opacity:0.996" fill="#61302c" d="M 280.5,210.5 C 271.657,212.404 262.657,214.07 253.5,215.5C 253.5,216.833 253.5,218.167 253.5,219.5C 253.5,220.167 253.167,220.5 252.5,220.5C 252.5,218.5 252.5,216.5 252.5,214.5C 261.709,212.511 271.042,211.178 280.5,210.5 Z"/></g>
<g><path style="opacity:0.996" fill="#ba5d35" d="M 203.5,211.5 C 196.603,212.976 189.603,214.642 182.5,216.5C 184.385,214.689 186.719,213.522 189.5,213C 194.184,212.565 198.851,212.065 203.5,211.5 Z"/></g>
<g><path style="opacity:0.996" fill="#463d39" d="M 236.5,223.5 C 236.5,223.833 236.5,224.167 236.5,224.5C 224.12,226.851 211.787,229.518 199.5,232.5C 193.745,232.45 188.412,230.95 183.5,228C 180.983,225.91 180.983,224.077 183.5,222.5C 186.056,223.051 188.389,224.051 190.5,225.5C 193.017,226.973 195.85,227.64 199,227.5C 201.033,227.494 202.866,227.161 204.5,226.5C 211.642,224.212 218.975,222.212 226.5,220.5C 229.86,220.384 233.193,220.051 236.5,219.5C 236.5,220.833 236.5,222.167 236.5,223.5 Z"/></g>
<g><path style="opacity:0.996" fill="#6b2c28" d="M 236.5,223.5 C 236.5,222.167 236.5,220.833 236.5,219.5C 233.193,220.051 229.86,220.384 226.5,220.5C 229.909,219.097 233.575,218.43 237.5,218.5C 237.784,220.415 237.451,222.081 236.5,223.5 Z"/></g>
<g><path style="opacity:0.996" fill="#772a25" d="M 190.5,225.5 C 195.13,226.229 199.797,226.563 204.5,226.5C 202.866,227.161 201.033,227.494 199,227.5C 195.85,227.64 193.017,226.973 190.5,225.5 Z"/></g>
<g><path style="opacity:0.995" fill="#181715" d="M 34.5,240.5 C 37.0283,242.89 38.5283,245.89 39,249.5C 39.8119,253.689 39.6453,257.689 38.5,261.5C 36.5687,257.537 34.7354,253.537 33,249.5C 32.0726,246.137 32.5726,243.137 34.5,240.5 Z"/></g>
<g><path style="opacity:0.285" fill="#736f67" d="M 431.5,258.5 C 431.833,258.5 432.167,258.5 432.5,258.5C 432.5,260.833 432.5,263.167 432.5,265.5C 431.833,265.833 431.167,266.167 430.5,266.5C 430.194,263.615 430.527,260.948 431.5,258.5 Z"/></g>
<g><path style="opacity:0.086" fill="#d2ccc1" d="M 28.5,229.5 C 31.2278,232.611 33.2278,236.278 34.5,240.5C 32.5726,243.137 32.0726,246.137 33,249.5C 34.7354,253.537 36.5687,257.537 38.5,261.5C 38.9867,262.473 39.4867,263.473 40,264.5C 40.1689,271.524 40.6689,278.524 41.5,285.5C 42.7705,297.353 44.7705,309.02 47.5,320.5C 48.4482,327.907 49.7816,335.241 51.5,342.5C 49.8714,340.142 48.7048,337.476 48,334.5C 42.7579,311.804 39.7579,288.804 39,265.5C 36.4123,261.326 34.079,256.993 32,252.5C 31.2618,248.29 31.4285,244.124 32.5,240C 30.7302,236.634 29.3969,233.134 28.5,229.5 Z"/></g>
<g><path style="opacity:0.161" fill="#dfd9cc" d="M 432.5,265.5 C 433.195,272.514 432.028,279.181 429,285.5C 428.667,290.167 428.333,294.833 428,299.5C 427.861,302.445 426.694,304.779 424.5,306.5C 424.232,304.901 424.566,303.568 425.5,302.5C 427.211,298.119 427.877,293.453 427.5,288.5C 427.618,285.312 428.451,282.312 430,279.5C 430.499,275.179 430.666,270.846 430.5,266.5C 431.167,266.167 431.833,265.833 432.5,265.5 Z"/></g>
<g><path style="opacity:0.996" fill="#4e3c37" d="M 303.5,326.5 C 301.988,324.683 299.988,323.683 297.5,323.5C 279.926,300.343 264.926,275.677 252.5,249.5C 251.635,248.417 250.635,248.251 249.5,249C 248.901,250.622 248.234,252.122 247.5,253.5C 247.942,249.846 248.276,246.179 248.5,242.5C 249.833,242.5 251.167,242.5 252.5,242.5C 253.031,245.237 253.864,247.904 255,250.5C 269.386,277.036 285.553,302.369 303.5,326.5 Z"/></g>
<g><path style="opacity:0.524" fill="#555452" d="M 427.5,288.5 C 427.877,293.453 427.211,298.119 425.5,302.5C 426.405,298.333 426.405,294.333 425.5,290.5C 425.5,289.167 426.167,288.5 427.5,288.5 Z"/></g>
<g><path style="opacity:0.997" fill="#090806" d="M 425.5,290.5 C 426.405,294.333 426.405,298.333 425.5,302.5C 424.566,303.568 424.232,304.901 424.5,306.5C 423.548,307.452 422.548,308.452 421.5,309.5C 413.567,326.414 405.233,343.081 396.5,359.5C 395.539,361.265 395.205,363.265 395.5,365.5C 393.473,365.338 391.473,365.505 389.5,366C 388.944,366.383 388.611,366.883 388.5,367.5C 383.364,371.804 378.698,376.637 374.5,382C 370.619,384.718 367.285,387.884 364.5,391.5C 362.407,392.045 360.407,392.878 358.5,394C 349.402,401.391 339.736,408.058 329.5,414C 324.608,419.56 319.108,424.394 313,428.5C 310.825,428.166 308.992,427.166 307.5,425.5C 305.841,427.982 303.508,429.482 300.5,430C 289.494,429.945 278.494,429.445 267.5,428.5C 262.987,428.501 258.653,428.834 254.5,429.5C 243.815,430.502 233.148,430.502 222.5,429.5C 215.182,426.275 208.848,427.608 203.5,433.5C 197.071,434.877 190.571,435.877 184,436.5C 180.765,436.418 177.598,435.918 174.5,435C 160.332,428.71 146.332,422.21 132.5,415.5C 130.408,412.277 127.408,410.277 123.5,409.5C 122.738,407.738 121.404,406.738 119.5,406.5C 115.785,402.119 111.785,398.119 107.5,394.5C 107.002,391.513 106.502,388.513 106,385.5C 105.329,384.748 104.496,384.414 103.5,384.5C 103.119,383.069 102.119,382.236 100.5,382C 97.1832,381.502 93.8499,381.335 90.5,381.5C 90.5,379.5 90.5,377.5 90.5,375.5C 88.9397,375.519 87.4397,375.852 86,376.5C 83.5716,372.901 80.4049,370.234 76.5,368.5C 70.0521,363.888 64.0521,358.721 58.5,353C 57.6634,351.989 57.33,350.822 57.5,349.5C 59.1042,348.713 59.7709,347.38 59.5,345.5C 58.1667,345.5 56.8333,345.5 55.5,345.5C 54.7377,343.738 53.4044,342.738 51.5,342.5C 49.7816,335.241 48.4482,327.907 47.5,320.5C 49.525,323.53 52.1916,325.864 55.5,327.5C 54.5153,329.098 54.3486,330.765 55,332.5C 60.4615,340.613 67.6281,346.446 76.5,350C 78.6575,351.981 80.3241,354.314 81.5,357C 83.1341,357.494 84.8008,357.66 86.5,357.5C 86.2865,359.144 86.6198,360.644 87.5,362C 90.5,362.333 93.5,362.667 96.5,363C 103.059,363.995 105.892,367.829 105,374.5C 111.251,382.753 118.751,389.586 127.5,395C 141.302,403.234 155.636,410.401 170.5,416.5C 176.965,419.458 183.632,420.125 190.5,418.5C 198.527,416.246 206.36,413.246 214,409.5C 217.708,410.887 221.541,411.721 225.5,412C 240.217,412.658 254.884,412.158 269.5,410.5C 274.167,410.667 278.833,410.833 283.5,411C 284.901,411.41 286.234,411.91 287.5,412.5C 290.263,413.655 293.263,414.322 296.5,414.5C 298.333,414.415 299.666,413.748 300.5,412.5C 303.699,411.47 306.532,409.803 309,407.5C 310.829,410.204 313.329,411.037 316.5,410C 321.532,404.633 326.865,399.633 332.5,395C 345.167,386.333 357.833,377.667 370.5,369C 377.483,362.086 384.483,355.086 391.5,348C 394.146,347.503 396.813,347.336 399.5,347.5C 399.335,344.482 399.502,341.482 400,338.5C 408.502,322.433 417.002,306.433 425.5,290.5 Z"/></g>
<g><path style="opacity:0.996" fill="#4b3d38" d="M 247.5,254.5 C 240.803,297.657 216.469,324.657 174.5,335.5C 174.366,333.708 174.699,332.042 175.5,330.5C 201.789,323.267 221.956,307.933 236,284.5C 240.728,274.733 244.561,264.733 247.5,254.5 Z"/></g>
<g><path style="opacity:0.996" fill="#413c3a" d="M 297.5,323.5 C 299.988,323.683 301.988,324.683 303.5,326.5C 305.5,327.5 307.5,328.5 309.5,329.5C 310.263,330.268 311.263,330.768 312.5,331C 325.478,332.764 338.478,332.931 351.5,331.5C 356.613,331.569 361.613,330.903 366.5,329.5C 367.792,331.795 367.126,333.628 364.5,335C 356.57,336.553 348.57,337.387 340.5,337.5C 329.6,338.232 318.933,337.232 308.5,334.5C 303.855,331.855 300.188,328.188 297.5,323.5 Z"/></g>
<g><path style="opacity:0.996" fill="#a0271d" d="M 309.5,329.5 C 323.471,330.429 337.471,330.762 351.5,330.5C 351.5,330.833 351.5,331.167 351.5,331.5C 338.478,332.931 325.478,332.764 312.5,331C 311.263,330.768 310.263,330.268 309.5,329.5 Z"/></g>
<g><path style="opacity:0.996" fill="#6b2f2a" d="M 366.5,328.5 C 366.5,328.833 366.5,329.167 366.5,329.5C 361.613,330.903 356.613,331.569 351.5,331.5C 351.5,331.167 351.5,330.833 351.5,330.5C 356.548,330.158 361.548,329.492 366.5,328.5 Z"/></g>
<g><path style="opacity:0.996" fill="#716144" d="M 308.5,334.5 C 318.933,337.232 329.6,338.232 340.5,337.5C 332.677,338.656 324.677,338.823 316.5,338C 313.428,337.422 310.761,336.255 308.5,334.5 Z"/></g>
<g><path style="opacity:0.996" fill="#534038" d="M 146.5,324.5 C 147.135,329.739 148.802,334.739 151.5,339.5C 153.421,340.641 155.421,340.808 157.5,340C 159.537,336.946 161.204,333.779 162.5,330.5C 162.277,335.131 161.11,339.464 159,343.5C 157.067,346.385 154.567,347.052 151.5,345.5C 148.113,338.951 146.446,331.951 146.5,324.5 Z"/></g>
<g><path style="opacity:0.02" fill="#a4a4a4" d="M 424.5,306.5 C 420.017,316.134 415.517,325.801 411,335.5C 406.392,344.39 401.559,353.057 396.5,361.5C 396.5,360.833 396.5,360.167 396.5,359.5C 405.233,343.081 413.567,326.414 421.5,309.5C 422.548,308.452 423.548,307.452 424.5,306.5 Z"/></g>
<g><path style="opacity:0.067" fill="#b8b8b8" d="M 51.5,342.5 C 53.4044,342.738 54.7377,343.738 55.5,345.5C 55.5,345.833 55.5,346.167 55.5,346.5C 53.1667,346.167 51.8333,344.833 51.5,342.5 Z"/></g>
<g><path style="opacity:0.827" fill="#585858" d="M 55.5,346.5 C 55.5,346.167 55.5,345.833 55.5,345.5C 56.8333,345.5 58.1667,345.5 59.5,345.5C 59.7709,347.38 59.1042,348.713 57.5,349.5C 57.4142,348.504 57.7476,347.671 58.5,347C 57.552,346.517 56.552,346.351 55.5,346.5 Z"/></g>
<g><path style="opacity:0.231" fill="#b3b3b3" d="M 55.5,346.5 C 56.552,346.351 57.552,346.517 58.5,347C 57.7476,347.671 57.4142,348.504 57.5,349.5C 57.33,350.822 57.6634,351.989 58.5,353C 64.0521,358.721 70.0521,363.888 76.5,368.5C 68.4164,364.934 61.5831,359.6 56,352.5C 55.9387,350.314 55.7721,348.314 55.5,346.5 Z"/></g>
<g><path style="opacity:0.592" fill="#484848" d="M 396.5,359.5 C 396.5,360.167 396.5,360.833 396.5,361.5C 396.5,362.167 396.5,362.833 396.5,363.5C 396.5,364.5 396.5,365.5 396.5,366.5C 393.763,366.401 391.096,366.735 388.5,367.5C 388.611,366.883 388.944,366.383 389.5,366C 391.473,365.505 393.473,365.338 395.5,365.5C 395.205,363.265 395.539,361.265 396.5,359.5 Z"/></g>
<g><path style="opacity:0.012" fill="#a0a0a0" d="M 76.5,368.5 C 80.4049,370.234 83.5716,372.901 86,376.5C 87.4397,375.852 88.9397,375.519 90.5,375.5C 90.5,377.5 90.5,379.5 90.5,381.5C 93.8499,381.335 97.1832,381.502 100.5,382C 102.119,382.236 103.119,383.069 103.5,384.5C 99.181,383.965 94.8477,383.465 90.5,383C 88.9632,381.89 88.2965,380.39 88.5,378.5C 86.8008,378.66 85.1341,378.494 83.5,378C 81.7209,374.393 79.3875,371.226 76.5,368.5 Z"/></g>
<g><path style="opacity:0.341" fill="#939393" d="M 396.5,363.5 C 397.434,364.568 397.768,365.901 397.5,367.5C 394.68,367.248 392.014,367.748 389.5,369C 384.707,373.628 380.04,378.462 375.5,383.5C 371.952,386.43 368.285,389.097 364.5,391.5C 367.285,387.884 370.619,384.718 374.5,382C 378.698,376.637 383.364,371.804 388.5,367.5C 391.096,366.735 393.763,366.401 396.5,366.5C 396.5,365.5 396.5,364.5 396.5,363.5 Z"/></g>
<g><path style="opacity:0.149" fill="#b7b7b7" d="M 103.5,384.5 C 104.496,384.414 105.329,384.748 106,385.5C 106.502,388.513 107.002,391.513 107.5,394.5C 106.165,391.207 104.832,387.874 103.5,384.5 Z"/></g>
<g><path style="opacity:0.314" fill="#9f9f9f" d="M 107.5,394.5 C 111.785,398.119 115.785,402.119 119.5,406.5C 114.5,403.5 110.5,399.5 107.5,394.5 Z"/></g>
<g><path style="opacity:0.11" fill="#b9b9b9" d="M 119.5,406.5 C 121.404,406.738 122.738,407.738 123.5,409.5C 121.596,409.262 120.262,408.262 119.5,406.5 Z"/></g>
<g><path style="opacity:0.071" fill="#929292" d="M 123.5,409.5 C 127.408,410.277 130.408,412.277 132.5,415.5C 128.975,414.241 125.975,412.241 123.5,409.5 Z"/></g>
<g><path style="opacity:0.996" fill="#43361e" d="M 287.5,412.5 C 291.833,412.5 296.167,412.5 300.5,412.5C 299.666,413.748 298.333,414.415 296.5,414.5C 293.263,414.322 290.263,413.655 287.5,412.5 Z"/></g>
<g><path style="opacity:0.192" fill="#a0a0a0" d="M 364.5,391.5 C 363.71,392.794 362.71,393.961 361.5,395C 344.768,404.72 329.434,416.386 315.5,430C 312.83,430.543 310.33,430.043 308,428.5C 304.373,430.915 300.373,432.582 296,433.5C 288.911,431.941 281.744,430.941 274.5,430.5C 268.021,429.509 261.354,429.176 254.5,429.5C 258.653,428.834 262.987,428.501 267.5,428.5C 278.494,429.445 289.494,429.945 300.5,430C 303.508,429.482 305.841,427.982 307.5,425.5C 308.992,427.166 310.825,428.166 313,428.5C 319.108,424.394 324.608,419.56 329.5,414C 339.736,408.058 349.402,401.391 358.5,394C 360.407,392.878 362.407,392.045 364.5,391.5 Z"/></g>
<g><path style="opacity:0.996" fill="#44371f" d="M 170.5,416.5 C 177.063,418.047 183.73,418.714 190.5,418.5C 183.632,420.125 176.965,419.458 170.5,416.5 Z"/></g>
<g><path style="opacity:0.039" fill="#c3c3c3" d="M 222.5,429.5 C 223.5,430.167 224.5,430.833 225.5,431.5C 221.793,431.208 218.293,430.208 215,428.5C 211.319,430.666 207.486,432.333 203.5,433.5C 208.848,427.608 215.182,426.275 222.5,429.5 Z"/></g>
<g><path style="opacity:0.053" fill="#dbdbdb" d="M 254.5,429.5 C 261.354,429.176 268.021,429.509 274.5,430.5C 266.813,430.46 259.146,430.793 251.5,431.5C 252.5,430.833 253.5,430.167 254.5,429.5 Z"/></g>
<g><path style="opacity:0.125" fill="#8a8a89" d="M 222.5,429.5 C 233.148,430.502 243.815,430.502 254.5,429.5C 253.5,430.167 252.5,430.833 251.5,431.5C 242.833,431.5 234.167,431.5 225.5,431.5C 224.5,430.833 223.5,430.167 222.5,429.5 Z"/></g>
<g><path style="opacity:0.345" fill="#acabab" d="M 132.5,415.5 C 146.332,422.21 160.332,428.71 174.5,435C 177.598,435.918 180.765,436.418 184,436.5C 190.571,435.877 197.071,434.877 203.5,433.5C 195.82,437.988 187.487,439.488 178.5,438C 162.436,431.927 147.102,424.427 132.5,415.5 Z"/></g>
</svg>
