<?xml version="1.0" encoding="UTF-8"?>
<!DOCTYPE svg PUBLIC "-//W3C//DTD SVG 1.1//EN" "http://www.w3.org/Graphics/SVG/1.1/DTD/svg11.dtd">
<svg xmlns="http://www.w3.org/2000/svg" version="1.1" width="468px" height="465px" style="shape-rendering:geometricPrecision; text-rendering:geometricPrecision; image-rendering:optimizeQuality; fill-rule:evenodd; clip-rule:evenodd" xmlns:xlink="http://www.w3.org/1999/xlink">
<g><path style="opacity:0.996" fill="#b59353" d="M 342.5,79.5 C 347.819,84.8142 353.486,89.8142 359.5,94.5C 360.712,98.72 362.046,102.887 363.5,107C 368.339,108.695 373.339,109.529 378.5,109.5C 378.201,111.604 378.534,113.604 379.5,115.5C 380.446,115.013 381.446,114.68 382.5,114.5C 383.867,115.225 385.2,115.892 386.5,116.5C 386.933,119.285 388.266,121.619 390.5,123.5C 394.244,125.121 397.744,127.121 401,129.5C 401.399,129.272 401.565,128.938 401.5,128.5C 402.167,128.5 402.5,128.833 402.5,129.5C 404.39,133.397 407.056,136.73 410.5,139.5C 411.681,141.135 411.681,142.802 410.5,144.5C 412.576,146.288 414.743,147.954 417,149.5C 423.471,171.339 426.138,193.672 425,216.5C 425.434,220.688 426.934,224.355 429.5,227.5C 429.555,230.614 430.888,232.948 433.5,234.5C 434.881,238.326 435.881,242.326 436.5,246.5C 436.794,250.612 435.127,253.278 431.5,254.5C 431.424,256.923 432.424,258.756 434.5,260C 434.011,261.138 433.678,262.305 433.5,263.5C 431.656,265.279 430.99,267.612 431.5,270.5C 431.5,275.5 431.5,280.5 431.5,285.5C 430.129,287.936 429.129,290.603 428.5,293.5C 427.503,293.47 426.836,293.97 426.5,295C 419.843,309.334 413.01,323.501 406,337.5C 401.363,341.446 399.53,346.446 400.5,352.5C 397.68,352.248 395.014,352.748 392.5,354C 385.956,361.387 378.956,368.387 371.5,375C 358.627,384.263 345.627,393.263 332.5,402C 327.199,406.3 322.199,410.966 317.5,416C 316.167,416.667 314.833,416.667 313.5,416C 312.601,414.764 311.434,413.93 310,413.5C 306.406,417.131 302.072,419.131 297,419.5C 290.553,418.096 284.053,417.096 277.5,416.5C 259.672,416.263 241.672,416.096 223.5,416C 220.845,415.436 218.179,414.936 215.5,414.5C 213.645,414.34 212.312,415.007 211.5,416.5C 204.936,419.306 198.269,421.806 191.5,424C 184.346,424.911 177.346,424.245 170.5,422C 153.445,414.64 137.112,405.973 121.5,396C 115.667,391.5 110.5,386.333 106,380.5C 105.788,377.242 105.288,374.076 104.5,371C 99.3933,369.205 94.06,368.205 88.5,368C 87.6198,366.644 87.2865,365.144 87.5,363.5C 85.712,363.785 84.0453,363.452 82.5,362.5C 77.2722,356.779 71.2722,351.945 64.5,348C 61.3533,345.183 58.52,342.016 56,338.5C 55.5045,336.527 55.3379,334.527 55.5,332.5C 52.5673,331.568 50.5673,329.568 49.5,326.5C 48.4942,323.79 47.4942,321.124 46.5,318.5C 45.4522,312.878 44.6188,307.211 44,301.5C 43.7645,299.881 42.9311,298.881 41.5,298.5C 41.5,298.167 41.5,297.833 41.5,297.5C 42.1524,296.551 42.4857,295.385 42.5,294C 41.7786,285.851 41.2786,277.684 41,269.5C 40.2828,268.956 39.7828,268.289 39.5,267.5C 40.6453,263.689 40.8119,259.689 40,255.5C 39.5283,251.89 38.0283,248.89 35.5,246.5C 33.2331,241.629 31.2331,236.629 29.5,231.5C 30.509,227.982 32.1757,224.815 34.5,222C 33.8993,220.395 32.8993,219.062 31.5,218C 32.3333,217.167 33.1667,216.333 34,215.5C 34.1689,208.476 34.6689,201.476 35.5,194.5C 37.5136,191.471 38.6803,188.137 39,184.5C 43.0056,177.131 47.0056,169.797 51,162.5C 51.346,160.782 51.846,159.115 52.5,157.5C 52.3764,156.893 52.0431,156.56 51.5,156.5C 51.5,155.833 51.8333,155.5 52.5,155.5C 53.8181,154.243 55.1515,152.909 56.5,151.5C 59.3866,145.33 62.5533,139.33 66,133.5C 66.498,130.518 66.6646,127.518 66.5,124.5C 69.6492,124.789 72.6492,124.289 75.5,123C 81.3401,116.659 87.0068,110.159 92.5,103.5C 92.8333,103.5 93.1667,103.5 93.5,103.5C 95.7488,102.92 97.4154,101.587 98.5,99.5C 104.727,96.2703 110.393,92.2703 115.5,87.5C 117.606,86.2171 119.94,85.3838 122.5,85C 123.823,84.1841 124.489,83.0174 124.5,81.5C 130.285,78.2204 135.951,74.7204 141.5,71C 144.738,67.2724 147.738,63.4391 150.5,59.5C 151.167,59.5 151.5,59.8333 151.5,60.5C 153.123,61.7794 154.79,63.1128 156.5,64.5C 158.521,63.1455 160.188,61.4788 161.5,59.5C 167.625,58.1294 173.625,58.6294 179.5,61C 191.676,61.6606 203.843,61.494 216,60.5C 218.929,60.4752 221.429,59.8086 223.5,58.5C 223.833,58.5 224.167,58.5 224.5,58.5C 232.351,59.6217 240.351,60.6217 248.5,61.5C 248.833,61.5 249.167,61.5 249.5,61.5C 250.601,62.5983 251.934,62.765 253.5,62C 260.324,58.8356 267.324,56.169 274.5,54C 278.833,53.3333 283.167,53.3333 287.5,54C 293.725,56.6115 300.058,58.9449 306.5,61C 318.359,67.6591 330.359,73.8258 342.5,79.5 Z"/></g>
<g><path style="opacity:0.133" fill="#e7dbc3" d="M 342.5,79.5 C 330.359,73.8258 318.359,67.6591 306.5,61C 300.058,58.9449 293.725,56.6115 287.5,54C 283.167,53.3333 278.833,53.3333 274.5,54C 267.324,56.169 260.324,58.8356 253.5,62C 251.934,62.765 250.601,62.5983 249.5,61.5C 258.178,57.6613 267.178,54.4947 276.5,52C 285.298,51.15 293.631,52.8167 301.5,57C 312.198,62.3489 322.864,67.6822 333.5,73C 336.867,74.7219 339.867,76.8886 342.5,79.5 Z"/></g>
<g><path style="opacity:0.067" fill="#e6d8c0" d="M 224.5,58.5 C 230.526,58.359 236.526,58.6923 242.5,59.5C 244.883,59.361 246.883,60.0277 248.5,61.5C 240.351,60.6217 232.351,59.6217 224.5,58.5 Z"/></g>
<g><path style="opacity:0.031" fill="#e7dfd1" d="M 161.5,59.5 C 160.188,61.4788 158.521,63.1455 156.5,64.5C 154.79,63.1128 153.123,61.7794 151.5,60.5C 153.484,60.3832 155.15,61.0499 156.5,62.5C 157.94,61.0476 159.606,60.0476 161.5,59.5 Z"/></g>
<g><path style="opacity:0.49" fill="#e2d3b6" d="M 223.5,58.5 C 221.429,59.8086 218.929,60.4752 216,60.5C 203.843,61.494 191.676,61.6606 179.5,61C 173.625,58.6294 167.625,58.1294 161.5,59.5C 163.462,57.9827 165.795,57.3161 168.5,57.5C 186.794,61.165 205.127,61.4984 223.5,58.5 Z"/></g>
<g><path style="opacity:0.29" fill="#e1d2b5" d="M 150.5,59.5 C 147.738,63.4391 144.738,67.2724 141.5,71C 135.951,74.7204 130.285,78.2204 124.5,81.5C 133.435,74.5716 142.102,67.2383 150.5,59.5 Z"/></g>
<g><path style="opacity:0.894" fill="#deccae" d="M 124.5,81.5 C 124.489,83.0174 123.823,84.1841 122.5,85C 119.94,85.3838 117.606,86.2171 115.5,87.5C 117.975,84.7589 120.975,82.7589 124.5,81.5 Z"/></g>
<g><path style="opacity:0.271" fill="#e7dcc8" d="M 342.5,79.5 C 346.617,82.0684 350.617,84.9017 354.5,88C 356.79,89.7772 358.457,91.9438 359.5,94.5C 353.486,89.8142 347.819,84.8142 342.5,79.5 Z"/></g>
<g><path style="opacity:0.4" fill="#e8decc" d="M 115.5,87.5 C 110.393,92.2703 104.727,96.2703 98.5,99.5C 103.607,94.7297 109.273,90.7297 115.5,87.5 Z"/></g>
<g><path style="opacity:0.184" fill="#ece3d1" d="M 98.5,99.5 C 97.4154,101.587 95.7488,102.92 93.5,103.5C 94.5846,101.413 96.2512,100.08 98.5,99.5 Z"/></g>
<g><path style="opacity:0.255" fill="#e7d9c1" d="M 92.5,103.5 C 87.0068,110.159 81.3401,116.659 75.5,123C 72.6492,124.289 69.6492,124.789 66.5,124.5C 66.6646,127.518 66.498,130.518 66,133.5C 62.5533,139.33 59.3866,145.33 56.5,151.5C 55.1515,152.909 53.8181,154.243 52.5,155.5C 56.8068,146.886 61.1401,138.22 65.5,129.5C 64.5153,127.902 64.3486,126.235 65,124.5C 68.1948,123.851 71.3614,123.018 74.5,122C 79.9493,115.383 85.9493,109.216 92.5,103.5 Z"/></g>
<g><path style="opacity:0.212" fill="#e7d7c1" d="M 359.5,94.5 C 360.458,94.9528 361.292,95.6195 362,96.5C 362.833,99.5 363.667,102.5 364.5,105.5C 369.428,107.086 374.428,108.419 379.5,109.5C 379.919,110.672 380.585,111.672 381.5,112.5C 384.449,111.748 386.116,113.082 386.5,116.5C 385.2,115.892 383.867,115.225 382.5,114.5C 381.446,114.68 380.446,115.013 379.5,115.5C 378.534,113.604 378.201,111.604 378.5,109.5C 373.339,109.529 368.339,108.695 363.5,107C 362.046,102.887 360.712,98.72 359.5,94.5 Z"/></g>
<g><path style="opacity:0.996" fill="#c02b1b" d="M 257.5,131.5 C 256.13,135.429 254.63,139.429 253,143.5C 251.989,165.161 251.155,186.827 250.5,208.5C 250.505,210.696 250.838,212.696 251.5,214.5C 271.537,211.937 291.537,208.937 311.5,205.5C 322.754,203.781 334.087,203.114 345.5,203.5C 351.916,205.875 357.916,209.041 363.5,213C 365.715,215.242 366.048,217.742 364.5,220.5C 364.167,220.5 363.833,220.5 363.5,220.5C 342.039,221.145 320.706,221.812 299.5,222.5C 296.713,223.477 293.713,223.81 290.5,223.5C 283.492,223.334 276.492,223.5 269.5,224C 267.942,224.21 266.609,224.71 265.5,225.5C 260.821,225.334 256.155,225.501 251.5,226C 250.944,226.383 250.611,226.883 250.5,227.5C 249.632,251.668 248.966,276.001 248.5,300.5C 251.059,300.802 253.393,300.468 255.5,299.5C 266.221,298.827 276.555,296.661 286.5,293C 301.826,291.424 314.993,295.924 326,306.5C 326.789,308.712 326.622,310.712 325.5,312.5C 315.302,314.954 304.968,315.12 294.5,313C 258.135,311.835 222.469,315.669 187.5,324.5C 182.13,324.608 176.797,324.275 171.5,323.5C 168.544,321.564 165.544,319.564 162.5,317.5C 160.775,314.563 161.441,312.397 164.5,311C 187.373,309.515 210.039,306.681 232.5,302.5C 233.5,279.51 233.833,256.51 233.5,233.5C 233.5,232.167 233.5,230.833 233.5,229.5C 230.5,229.5 227.5,229.5 224.5,229.5C 215.53,229.942 206.863,231.275 198.5,233.5C 179.893,235.945 161.559,239.278 143.5,243.5C 136.312,242.407 129.979,239.407 124.5,234.5C 123.272,232.99 123.272,231.49 124.5,230C 160.777,227.607 196.777,223.44 232.5,217.5C 233.832,193.318 233.665,168.985 232,144.5C 231.768,143.263 231.268,142.263 230.5,141.5C 230.5,140.833 230.5,140.167 230.5,139.5C 228.961,131.089 225.295,123.756 219.5,117.5C 218.909,111.926 221.409,109.592 227,110.5C 234.186,112.115 241.352,113.948 248.5,116C 251.948,118.111 255.114,120.611 258,123.5C 258.722,126.261 258.555,128.927 257.5,131.5 Z"/></g>
<g><path style="opacity:0.027" fill="#e7dbc6" d="M 386.5,116.5 C 387.933,117.833 389.267,119.333 390.5,121C 394.58,123.029 398.246,125.529 401.5,128.5C 401.565,128.938 401.399,129.272 401,129.5C 397.744,127.121 394.244,125.121 390.5,123.5C 388.266,121.619 386.933,119.285 386.5,116.5 Z"/></g>
<g><path style="opacity:0.996" fill="#5e4035" d="M 219.5,117.5 C 225.295,123.756 228.961,131.089 230.5,139.5C 227.558,133.763 224.224,128.097 220.5,122.5C 219.548,120.955 219.215,119.288 219.5,117.5 Z"/></g>
<g><path style="opacity:0.067" fill="#e2d3b8" d="M 402.5,129.5 C 406.157,132.657 409.657,135.99 413,139.5C 413.72,141.112 413.554,142.612 412.5,144C 417.728,146.949 420.561,151.449 421,157.5C 425.593,178.911 427.927,200.577 428,222.5C 429.009,224.025 429.509,225.692 429.5,227.5C 426.934,224.355 425.434,220.688 425,216.5C 426.138,193.672 423.471,171.339 417,149.5C 414.743,147.954 412.576,146.288 410.5,144.5C 411.681,142.802 411.681,141.135 410.5,139.5C 407.056,136.73 404.39,133.397 402.5,129.5 Z"/></g>
<g><path style="opacity:0.996" fill="#a2442b" d="M 257.5,131.5 C 257.276,136.397 256.109,141.064 254,145.5C 253.037,168.499 252.204,191.499 251.5,214.5C 250.838,212.696 250.505,210.696 250.5,208.5C 251.155,186.827 251.989,165.161 253,143.5C 254.63,139.429 256.13,135.429 257.5,131.5 Z"/></g>
<g><path style="opacity:0.996" fill="#a25f39" d="M 230.5,141.5 C 231.268,142.263 231.768,143.263 232,144.5C 233.665,168.985 233.832,193.318 232.5,217.5C 232.911,192.122 232.245,166.788 230.5,141.5 Z"/></g>
<g><path style="opacity:0.996" fill="#bc512e" d="M 345.5,203.5 C 334.087,203.114 322.754,203.781 311.5,205.5C 321.399,201.899 331.733,200.733 342.5,202C 343.737,202.232 344.737,202.732 345.5,203.5 Z"/></g>
<g><path style="opacity:0.247" fill="#e0d5c0" d="M 51.5,156.5 C 52.0431,156.56 52.3764,156.893 52.5,157.5C 51.846,159.115 51.346,160.782 51,162.5C 47.0056,169.797 43.0056,177.131 39,184.5C 38.6803,188.137 37.5136,191.471 35.5,194.5C 34.6689,201.476 34.1689,208.476 34,215.5C 33.1667,216.333 32.3333,217.167 31.5,218C 32.8993,219.062 33.8993,220.395 34.5,222C 32.1757,224.815 30.509,227.982 29.5,231.5C 31.2331,236.629 33.2331,241.629 35.5,246.5C 34.0277,248.117 33.361,250.117 33.5,252.5C 33.8795,255.582 34.5462,258.582 35.5,261.5C 34.0337,260.653 33.2004,259.32 33,257.5C 32.2334,253.442 32.4001,249.442 33.5,245.5C 27.4588,237.616 27.1255,229.616 32.5,221.5C 31.6872,220.186 30.6872,219.019 29.5,218C 31.0412,216.421 32.2078,214.587 33,212.5C 32.9186,203.679 33.9186,195.012 36,186.5C 41.45,176.599 46.6166,166.599 51.5,156.5 Z"/></g>
<g><path style="opacity:0.996" fill="#93251d" d="M 363.5,220.5 C 363.389,221.117 363.056,221.617 362.5,222C 341.503,222.5 320.503,222.667 299.5,222.5C 320.706,221.812 342.039,221.145 363.5,220.5 Z"/></g>
<g><path style="opacity:0.996" fill="#423b39" d="M 363.5,220.5 C 363.833,220.5 364.167,220.5 364.5,220.5C 365.434,221.568 365.768,222.901 365.5,224.5C 363.821,224.892 362.154,225.392 360.5,226C 339.996,226.168 319.663,226.668 299.5,227.5C 283.114,228.015 266.78,229.015 250.5,230.5C 250.5,229.5 250.5,228.5 250.5,227.5C 250.611,226.883 250.944,226.383 251.5,226C 256.155,225.501 260.821,225.334 265.5,225.5C 273.997,225.039 282.331,224.373 290.5,223.5C 293.713,223.81 296.713,223.477 299.5,222.5C 320.503,222.667 341.503,222.5 362.5,222C 363.056,221.617 363.389,221.117 363.5,220.5 Z"/></g>
<g><path style="opacity:0.996" fill="#732b26" d="M 290.5,223.5 C 282.331,224.373 273.997,225.039 265.5,225.5C 266.609,224.71 267.942,224.21 269.5,224C 276.492,223.5 283.492,223.334 290.5,223.5 Z"/></g>
<g><path style="opacity:0.996" fill="#756445" d="M 365.5,224.5 C 364.942,225.79 363.942,226.623 362.5,227C 341.503,227.5 320.503,227.667 299.5,227.5C 319.663,226.668 339.996,226.168 360.5,226C 362.154,225.392 363.821,224.892 365.5,224.5 Z"/></g>
<g><path style="opacity:0.996" fill="#463d39" d="M 224.5,229.5 C 227.5,229.5 230.5,229.5 233.5,229.5C 233.5,230.833 233.5,232.167 233.5,233.5C 207.48,235.307 181.813,239.474 156.5,246C 144.222,250.157 133.722,247.657 125,238.5C 124.51,237.207 124.343,235.873 124.5,234.5C 129.979,239.407 136.312,242.407 143.5,243.5C 161.559,239.278 179.893,235.945 198.5,233.5C 206.495,232.783 214.495,231.95 222.5,231C 223.416,230.722 224.082,230.222 224.5,229.5 Z"/></g>
<g><path style="opacity:0.996" fill="#612f2c" d="M 224.5,229.5 C 224.082,230.222 223.416,230.722 222.5,231C 214.495,231.95 206.495,232.783 198.5,233.5C 206.863,231.275 215.53,229.942 224.5,229.5 Z"/></g>
<g><path style="opacity:0.247" fill="#ece3cc" d="M 429.5,227.5 C 431.199,229.566 432.532,231.9 433.5,234.5C 430.888,232.948 429.555,230.614 429.5,227.5 Z"/></g>
<g><path style="opacity:0.995" fill="#181614" d="M 35.5,246.5 C 38.0283,248.89 39.5283,251.89 40,255.5C 40.8119,259.689 40.6453,263.689 39.5,267.5C 38.9432,264.95 37.6099,262.95 35.5,261.5C 34.5462,258.582 33.8795,255.582 33.5,252.5C 33.361,250.117 34.0277,248.117 35.5,246.5 Z"/></g>
<g><path style="opacity:0.169" fill="#e4dac5" d="M 433.5,234.5 C 439.376,241.559 439.709,248.893 434.5,256.5C 435.383,257.548 436.05,258.715 436.5,260C 434.8,268.552 433.134,277.052 431.5,285.5C 431.5,280.5 431.5,275.5 431.5,270.5C 433.344,268.721 434.01,266.388 433.5,263.5C 433.678,262.305 434.011,261.138 434.5,260C 432.424,258.756 431.424,256.923 431.5,254.5C 435.127,253.278 436.794,250.612 436.5,246.5C 435.881,242.326 434.881,238.326 433.5,234.5 Z"/></g>
<g><path style="opacity:0.969" fill="#594e3b" d="M 433.5,263.5 C 434.01,266.388 433.344,268.721 431.5,270.5C 430.99,267.612 431.656,265.279 433.5,263.5 Z"/></g>
<g><path style="opacity:0.241" fill="#d3ccbc" d="M 35.5,261.5 C 37.6099,262.95 38.9432,264.95 39.5,267.5C 39.7828,268.289 40.2828,268.956 41,269.5C 41.2786,277.684 41.7786,285.851 42.5,294C 42.4857,295.385 42.1524,296.551 41.5,297.5C 40.8328,288.162 39.9994,278.828 39,269.5C 37.5186,266.89 36.3519,264.223 35.5,261.5 Z"/></g>
<g><path style="opacity:0.996" fill="#a7633b" d="M 250.5,227.5 C 250.5,228.5 250.5,229.5 250.5,230.5C 250.648,253.51 250.315,276.51 249.5,299.5C 251.5,299.5 253.5,299.5 255.5,299.5C 253.393,300.468 251.059,300.802 248.5,300.5C 248.966,276.001 249.632,251.668 250.5,227.5 Z"/></g>
<g><path style="opacity:0.057" fill="#c1beb9" d="M 431.5,285.5 C 430.033,292.039 429.2,298.705 429,305.5C 428.434,307.723 427.6,309.723 426.5,311.5C 427.426,305.535 428.092,299.535 428.5,293.5C 429.129,290.603 430.129,287.936 431.5,285.5 Z"/></g>
<g><path style="opacity:0.157" fill="#e2d9c9" d="M 41.5,298.5 C 42.9311,298.881 43.7645,299.881 44,301.5C 44.6188,307.211 45.4522,312.878 46.5,318.5C 47.0209,322.481 47.3542,326.481 47.5,330.5C 44.8979,320.063 42.8979,309.397 41.5,298.5 Z"/></g>
<g><path style="opacity:0.996" fill="#493d39" d="M 325.5,312.5 C 325.657,313.873 325.49,315.207 325,316.5C 323.391,317.147 321.891,317.98 320.5,319C 299.211,317.791 277.878,317.458 256.5,318C 246.875,319.411 237.209,320.411 227.5,321C 211.865,323.328 196.365,326.161 181,329.5C 173.498,329.581 167.164,326.915 162,321.5C 161.235,319.934 161.402,318.601 162.5,317.5C 165.544,319.564 168.544,321.564 171.5,323.5C 171.918,324.222 172.584,324.722 173.5,325C 178.352,325.815 183.019,325.648 187.5,324.5C 222.469,315.669 258.135,311.835 294.5,313C 304.968,315.12 315.302,314.954 325.5,312.5 Z"/></g>
<g><path style="opacity:0.659" fill="#7a705f" d="M 46.5,318.5 C 47.4942,321.124 48.4942,323.79 49.5,326.5C 48.5655,327.568 48.2322,328.901 48.5,330.5C 48.1667,330.5 47.8333,330.5 47.5,330.5C 47.3542,326.481 47.0209,322.481 46.5,318.5 Z"/></g>
<g><path style="opacity:0.996" fill="#832822" d="M 171.5,323.5 C 176.797,324.275 182.13,324.608 187.5,324.5C 183.019,325.648 178.352,325.815 173.5,325C 172.584,324.722 171.918,324.222 171.5,323.5 Z"/></g>
<g><path style="opacity:0.075" fill="#b8b8b8" d="M 47.5,330.5 C 47.8333,330.5 48.1667,330.5 48.5,330.5C 49.6813,336.235 51.1813,341.901 53,347.5C 53.3768,348.942 54.2101,349.942 55.5,350.5C 55.5,350.833 55.5,351.167 55.5,351.5C 53.1119,350.781 51.6119,349.115 51,346.5C 48.8849,341.373 47.7183,336.04 47.5,330.5 Z"/></g>
<g><path style="opacity:0.997" fill="#090806" d="M 428.5,293.5 C 428.092,299.535 427.426,305.535 426.5,311.5C 424.567,312.642 423.067,314.308 422,316.5C 415.899,329.811 409.233,342.811 402,355.5C 401.158,358.689 399.825,361.689 398,364.5C 397.503,367.146 397.336,369.813 397.5,372.5C 394.753,372.187 392.086,372.52 389.5,373.5C 381.641,382.526 372.974,390.693 363.5,398C 352.167,405.667 340.833,413.333 329.5,421C 324.632,424.703 320.298,428.87 316.5,433.5C 314.955,434.452 313.288,434.785 311.5,434.5C 311.582,432.748 310.749,431.748 309,431.5C 305.611,434.943 301.444,436.943 296.5,437.5C 276.244,433.957 255.911,433.624 235.5,436.5C 228.874,436.342 222.374,435.342 216,433.5C 208.71,436.153 201.377,438.82 194,441.5C 188.529,442.318 183.029,442.652 177.5,442.5C 175.9,441.356 174.233,440.189 172.5,439C 167.943,437.225 163.276,435.725 158.5,434.5C 154.743,430.671 150.077,428.338 144.5,427.5C 140.434,424.07 136.101,420.903 131.5,418C 128.936,416.604 126.269,415.437 123.5,414.5C 118.526,409.861 113.526,405.195 108.5,400.5C 108.443,396.971 107.443,393.971 105.5,391.5C 105.175,389.868 104.175,388.868 102.5,388.5C 98.5474,387.638 94.5474,387.305 90.5,387.5C 90.5,385.833 90.5,384.167 90.5,382.5C 86.2483,382.265 83.2483,380.098 81.5,376C 80.255,375.209 78.9217,374.709 77.5,374.5C 76.5485,370.88 74.2151,369.213 70.5,369.5C 67.1345,365.396 63.6345,361.396 60,357.5C 59.3486,355.765 59.5153,354.098 60.5,352.5C 58.8614,351.678 57.1947,351.011 55.5,350.5C 54.2101,349.942 53.3768,348.942 53,347.5C 51.1813,341.901 49.6813,336.235 48.5,330.5C 48.2322,328.901 48.5655,327.568 49.5,326.5C 50.5673,329.568 52.5673,331.568 55.5,332.5C 55.3379,334.527 55.5045,336.527 56,338.5C 58.52,342.016 61.3533,345.183 64.5,348C 71.2722,351.945 77.2722,356.779 82.5,362.5C 84.0453,363.452 85.712,363.785 87.5,363.5C 87.2865,365.144 87.6198,366.644 88.5,368C 94.06,368.205 99.3933,369.205 104.5,371C 105.288,374.076 105.788,377.242 106,380.5C 110.5,386.333 115.667,391.5 121.5,396C 137.112,405.973 153.445,414.64 170.5,422C 177.346,424.245 184.346,424.911 191.5,424C 198.269,421.806 204.936,419.306 211.5,416.5C 216.536,415.732 221.536,416.232 226.5,418C 230.667,418.167 234.833,418.333 239,418.5C 251.828,417.682 264.662,417.016 277.5,416.5C 284.053,417.096 290.553,418.096 297,419.5C 302.072,419.131 306.406,417.131 310,413.5C 311.434,413.93 312.601,414.764 313.5,416C 314.833,416.667 316.167,416.667 317.5,416C 322.199,410.966 327.199,406.3 332.5,402C 345.627,393.263 358.627,384.263 371.5,375C 378.956,368.387 385.956,361.387 392.5,354C 395.014,352.748 397.68,352.248 400.5,352.5C 399.53,346.446 401.363,341.446 406,337.5C 413.01,323.501 419.843,309.334 426.5,295C 426.836,293.97 427.503,293.47 428.5,293.5 Z"/></g>
<g><path style="opacity:0.047" fill="#d9d9d8" d="M 57.5,352.5 C 56.9108,354.955 57.5775,357.288 59.5,359.5C 58.5041,359.586 57.6708,359.252 57,358.5C 56.3224,356.402 56.4891,354.402 57.5,352.5 Z"/></g>
<g><path style="opacity:0.863" fill="#6e6e6e" d="M 55.5,350.5 C 57.1947,351.011 58.8614,351.678 60.5,352.5C 59.5153,354.098 59.3486,355.765 60,357.5C 63.6345,361.396 67.1345,365.396 70.5,369.5C 68.9731,369.573 67.9731,368.906 67.5,367.5C 66.8333,366.167 65.8333,365.167 64.5,364.5C 61.8333,363.833 60.1667,362.167 59.5,359.5C 57.5775,357.288 56.9108,354.955 57.5,352.5C 56.5084,352.672 55.8417,352.338 55.5,351.5C 55.5,351.167 55.5,350.833 55.5,350.5 Z"/></g>
<g><path style="opacity:0.004" fill="#dcdcdc" d="M 64.5,364.5 C 65.8333,365.167 66.8333,366.167 67.5,367.5C 65.5,367.5 64.5,366.5 64.5,364.5 Z"/></g>
<g><path style="opacity:0.937" fill="#6c6c6c" d="M 70.5,369.5 C 74.2151,369.213 76.5485,370.88 77.5,374.5C 74.6298,373.567 72.2964,371.9 70.5,369.5 Z"/></g>
<g><path style="opacity:0.035" fill="#a1a1a1" d="M 426.5,311.5 C 417.872,330.09 408.705,348.423 399,366.5C 398.503,368.81 398.337,371.143 398.5,373.5C 394.694,373.02 391.361,374.02 388.5,376.5C 373.655,393.426 356.322,407.259 336.5,418C 329.571,422.925 323.238,428.592 317.5,435C 315.246,437.022 313.246,436.855 311.5,434.5C 313.288,434.785 314.955,434.452 316.5,433.5C 320.298,428.87 324.632,424.703 329.5,421C 340.833,413.333 352.167,405.667 363.5,398C 372.974,390.693 381.641,382.526 389.5,373.5C 392.086,372.52 394.753,372.187 397.5,372.5C 397.336,369.813 397.503,367.146 398,364.5C 399.825,361.689 401.158,358.689 402,355.5C 409.233,342.811 415.899,329.811 422,316.5C 423.067,314.308 424.567,312.642 426.5,311.5 Z"/></g>
<g><path style="opacity:0.012" fill="#a2a2a2" d="M 77.5,374.5 C 78.9217,374.709 80.255,375.209 81.5,376C 83.2483,380.098 86.2483,382.265 90.5,382.5C 90.5,384.167 90.5,385.833 90.5,387.5C 89.3099,385.174 87.3099,384.007 84.5,384C 82.6891,380.369 80.3557,377.202 77.5,374.5 Z"/></g>
<g><path style="opacity:0.125" fill="#afaeae" d="M 90.5,387.5 C 94.5474,387.305 98.5474,387.638 102.5,388.5C 104.175,388.868 105.175,389.868 105.5,391.5C 100.58,389.653 95.5797,388.319 90.5,387.5 Z"/></g>
<g><path style="opacity:0.092" fill="#bdbdbd" d="M 105.5,391.5 C 107.443,393.971 108.443,396.971 108.5,400.5C 106.975,397.762 105.975,394.762 105.5,391.5 Z"/></g>
<g><path style="opacity:0.227" fill="#a0a0a0" d="M 108.5,400.5 C 113.526,405.195 118.526,409.861 123.5,414.5C 117.217,411.217 112.217,406.55 108.5,400.5 Z"/></g>
<g><path style="opacity:0.996" fill="#947743" d="M 277.5,416.5 C 264.662,417.016 251.828,417.682 239,418.5C 234.833,418.333 230.667,418.167 226.5,418C 221.536,416.232 216.536,415.732 211.5,416.5C 212.312,415.007 213.645,414.34 215.5,414.5C 218.179,414.936 220.845,415.436 223.5,416C 241.672,416.096 259.672,416.263 277.5,416.5 Z"/></g>
<g><path style="opacity:0.588" fill="#7f7f7f" d="M 123.5,414.5 C 126.269,415.437 128.936,416.604 131.5,418C 136.101,420.903 140.434,424.07 144.5,427.5C 136.72,424.379 129.72,420.046 123.5,414.5 Z"/></g>
<g><path style="opacity:0.596" fill="#9c9c9c" d="M 144.5,427.5 C 150.077,428.338 154.743,430.671 158.5,434.5C 153.358,433.002 148.691,430.668 144.5,427.5 Z"/></g>
<g><path style="opacity:0.15" fill="#a3a3a3" d="M 311.5,434.5 C 309.407,433.027 307.74,433.527 306.5,436C 303.5,437.167 300.5,438.333 297.5,439.5C 289.157,437.281 280.657,435.948 272,435.5C 256.864,437.068 241.697,437.568 226.5,437C 222.883,436.647 219.383,435.814 216,434.5C 205.379,440.93 193.879,444.097 181.5,444C 179.942,443.79 178.609,443.29 177.5,442.5C 183.029,442.652 188.529,442.318 194,441.5C 201.377,438.82 208.71,436.153 216,433.5C 222.374,435.342 228.874,436.342 235.5,436.5C 255.911,433.624 276.244,433.957 296.5,437.5C 301.444,436.943 305.611,434.943 309,431.5C 310.749,431.748 311.582,432.748 311.5,434.5 Z"/></g>
<g><path style="opacity:0.086" fill="#b7b5b5" d="M 158.5,434.5 C 163.276,435.725 167.943,437.225 172.5,439C 174.233,440.189 175.9,441.356 177.5,442.5C 170.597,440.983 164.263,438.316 158.5,434.5 Z"/></g>
</svg>
