<?xml version="1.0" encoding="UTF-8"?>
<!DOCTYPE svg PUBLIC "-//W3C//DTD SVG 1.1//EN" "http://www.w3.org/Graphics/SVG/1.1/DTD/svg11.dtd">
<svg xmlns="http://www.w3.org/2000/svg" version="1.1" width="467px" height="470px" style="shape-rendering:geometricPrecision; text-rendering:geometricPrecision; image-rendering:optimizeQuality; fill-rule:evenodd; clip-rule:evenodd" xmlns:xlink="http://www.w3.org/1999/xlink">
<g><path style="opacity:0.996" fill="#b59352" d="M 318.5,67.5 C 320.339,70.1347 323.006,71.4681 326.5,71.5C 331.505,75.0017 336.505,78.5017 341.5,82C 343.025,83.0086 344.692,83.5086 346.5,83.5C 350.988,87.6955 355.488,92.0289 360,96.5C 362.632,100.044 364.132,104.044 364.5,108.5C 366.979,110.076 369.646,111.076 372.5,111.5C 374.948,112.473 377.615,112.806 380.5,112.5C 380.5,114.167 380.5,115.833 380.5,117.5C 382.5,117.5 384.5,117.5 386.5,117.5C 388.477,123.168 392.477,126.502 398.5,127.5C 399.028,128.721 399.695,129.887 400.5,131C 404.675,133.689 408.675,136.523 412.5,139.5C 413.541,142.542 413.541,145.542 412.5,148.5C 415.287,148.78 417.453,150.113 419,152.5C 423.112,164.178 425.612,176.178 426.5,188.5C 425.858,199.221 426.525,209.554 428.5,219.5C 428.565,222.428 429.232,225.095 430.5,227.5C 430.49,231.503 432.157,234.503 435.5,236.5C 436.9,240.163 437.9,243.996 438.5,248C 438.624,252.138 437.291,255.638 434.5,258.5C 434.939,260.104 435.606,261.604 436.5,263C 435.852,264.44 435.519,265.94 435.5,267.5C 434.351,267.791 433.684,268.624 433.5,270C 433.684,271.376 434.351,272.209 435.5,272.5C 434.617,277.103 434.283,281.77 434.5,286.5C 434.5,287.167 434.5,287.833 434.5,288.5C 432.127,290.579 430.794,293.246 430.5,296.5C 427.314,300.873 424.647,305.54 422.5,310.5C 421.326,311.514 420.66,312.847 420.5,314.5C 415.277,325.716 409.61,336.716 403.5,347.5C 402.52,350.086 402.187,352.753 402.5,355.5C 399.729,355.421 397.063,355.921 394.5,357C 387.779,363.721 381.113,370.387 374.5,377C 361.5,386 348.5,395 335.5,404C 330.199,408.3 325.199,412.966 320.5,418C 317.258,418.986 314.592,418.152 312.5,415.5C 310.025,418.241 307.025,420.241 303.5,421.5C 298.848,421.002 294.181,420.669 289.5,420.5C 288.833,420.5 288.167,420.5 287.5,420.5C 282.075,419.016 276.409,418.349 270.5,418.5C 256.536,419.892 242.536,420.559 228.5,420.5C 226.095,419.232 223.428,418.565 220.5,418.5C 218.598,417.489 216.598,417.322 214.5,418C 204.131,425.39 192.797,428.223 180.5,426.5C 178.485,425.076 176.152,424.41 173.5,424.5C 173.047,423.542 172.381,422.708 171.5,422C 166.202,419.51 160.869,417.344 155.5,415.5C 138.664,408.66 123.664,398.994 110.5,386.5C 109.311,382.431 108.311,378.431 107.5,374.5C 104.828,373.499 102.162,372.499 99.5,371.5C 97.0521,370.527 94.3854,370.194 91.5,370.5C 91.5,368.167 91.5,365.833 91.5,363.5C 89.7376,363.357 88.0709,363.691 86.5,364.5C 85.7348,363.388 84.7348,362.721 83.5,362.5C 78.6034,358.11 73.2701,354.277 67.5,351C 65.489,348.098 63.1557,345.598 60.5,343.5C 60.2969,341.956 59.6302,340.622 58.5,339.5C 59.3094,337.929 59.6427,336.262 59.5,334.5C 57.7839,334.371 56.1172,334.038 54.5,333.5C 53.1535,331.463 51.8202,329.463 50.5,327.5C 50.7847,324.171 50.1181,321.171 48.5,318.5C 47.5147,314.924 46.848,311.258 46.5,307.5C 45.2275,295.712 44.2275,284.046 43.5,272.5C 43.5,271.833 43.5,271.167 43.5,270.5C 44.0659,262.849 42.3993,255.849 38.5,249.5C 38.2014,247.545 37.2014,246.211 35.5,245.5C 34.0487,242.035 33.0487,238.368 32.5,234.5C 32.7004,230.503 34.0338,227.003 36.5,224C 36.0116,222.416 35.0116,221.249 33.5,220.5C 34.7598,219.618 35.9264,218.618 37,217.5C 37.202,208.79 37.8686,200.124 39,191.5C 49.5104,172.481 59.5104,153.147 69,133.5C 69.4935,131.866 69.6602,130.199 69.5,128.5C 72.0821,128.975 74.0821,128.308 75.5,126.5C 77.1667,125.5 78.5,124.167 79.5,122.5C 87.5592,114.437 95.8925,106.77 104.5,99.5C 106.749,98.9202 108.415,97.5869 109.5,95.5C 113.604,93.896 117.604,92.0626 121.5,90C 126.928,84.5691 132.928,79.9025 139.5,76C 142.343,73.3235 145.01,70.4901 147.5,67.5C 151.339,63.5808 155.173,63.5808 159,67.5C 160.769,65.3826 162.602,63.3826 164.5,61.5C 176.06,62.1948 187.56,63.1948 199,64.5C 210.096,64.4381 221.096,63.4381 232,61.5C 236.841,61.8116 241.674,62.1449 246.5,62.5C 246.62,63.5862 247.287,64.2528 248.5,64.5C 250.145,64.9408 251.811,65.2741 253.5,65.5C 257.809,64.362 261.809,62.5286 265.5,60C 274.933,56.8173 284.599,55.8173 294.5,57C 302.405,60.7875 310.405,64.2875 318.5,67.5 Z"/></g>
<g><path style="opacity:0.129" fill="#e9dec8" d="M 318.5,67.5 C 310.405,64.2875 302.405,60.7875 294.5,57C 284.599,55.8173 274.933,56.8173 265.5,60C 261.809,62.5286 257.809,64.362 253.5,65.5C 251.811,65.2741 250.145,64.9408 248.5,64.5C 247.287,64.2528 246.62,63.5862 246.5,62.5C 249.799,63.3761 253.132,63.5428 256.5,63C 269.577,54.5178 283.577,52.5178 298.5,57C 305.344,60.2544 312.011,63.7544 318.5,67.5 Z"/></g>
<g><path style="opacity:0.776" fill="#e3d5bb" d="M 246.5,62.5 C 241.674,62.1449 236.841,61.8116 232,61.5C 221.096,63.4381 210.096,64.4381 199,64.5C 187.56,63.1948 176.06,62.1948 164.5,61.5C 166.29,60.0027 168.456,59.336 171,59.5C 179.782,61.1562 188.615,62.4896 197.5,63.5C 208.969,62.1415 220.469,61.1415 232,60.5C 237.079,60.4055 241.912,61.0722 246.5,62.5 Z"/></g>
<g><path style="opacity:0.471" fill="#e7dac0" d="M 164.5,61.5 C 162.602,63.3826 160.769,65.3826 159,67.5C 155.173,63.5808 151.339,63.5808 147.5,67.5C 149.862,62.2726 153.529,61.2726 158.5,64.5C 160.534,63.4412 162.534,62.4412 164.5,61.5 Z"/></g>
<g><path style="opacity:0.047" fill="#e7dcc6" d="M 318.5,67.5 C 321.754,67.7936 324.421,69.127 326.5,71.5C 323.006,71.4681 320.339,70.1347 318.5,67.5 Z"/></g>
<g><path style="opacity:0.545" fill="#e7dcc1" d="M 326.5,71.5 C 328.308,71.4914 329.975,71.9914 331.5,73C 336.916,76.0299 341.916,79.5299 346.5,83.5C 344.692,83.5086 343.025,83.0086 341.5,82C 336.505,78.5017 331.505,75.0017 326.5,71.5 Z"/></g>
<g><path style="opacity:0.314" fill="#e8dec7" d="M 346.5,83.5 C 351.386,86.2058 355.886,89.5391 360,93.5C 363.771,97.4327 365.937,102.099 366.5,107.5C 371.111,109.475 375.778,110.809 380.5,111.5C 377.833,111.5 375.167,111.5 372.5,111.5C 369.646,111.076 366.979,110.076 364.5,108.5C 364.132,104.044 362.632,100.044 360,96.5C 355.488,92.0289 350.988,87.6955 346.5,83.5 Z"/></g>
<g><path style="opacity:0.169" fill="#e6d6bc" d="M 147.5,67.5 C 145.01,70.4901 142.343,73.3235 139.5,76C 132.928,79.9025 126.928,84.5691 121.5,90C 117.604,92.0626 113.604,93.896 109.5,95.5C 122.466,86.528 135.133,77.1947 147.5,67.5 Z"/></g>
<g><path style="opacity:0.373" fill="#e8ddc5" d="M 109.5,95.5 C 108.415,97.5869 106.749,98.9202 104.5,99.5C 105.585,97.4131 107.251,96.0798 109.5,95.5 Z"/></g>
<g><path style="opacity:0.663" fill="#d0b98e" d="M 372.5,111.5 C 375.167,111.5 377.833,111.5 380.5,111.5C 380.833,111.5 381.167,111.5 381.5,111.5C 381.5,113.167 381.5,114.833 381.5,116.5C 383.415,116.216 385.081,116.549 386.5,117.5C 384.5,117.5 382.5,117.5 380.5,117.5C 380.5,115.833 380.5,114.167 380.5,112.5C 377.615,112.806 374.948,112.473 372.5,111.5 Z"/></g>
<g><path style="opacity:0.996" fill="#c02b1b" d="M 224.5,133.5 C 219.908,136.586 215.742,140.253 212,144.5C 203.022,155.646 193.855,166.646 184.5,177.5C 186.167,178.666 187.834,178.666 189.5,177.5C 198.971,177.373 208.304,176.373 217.5,174.5C 228.318,173.806 238.652,171.472 248.5,167.5C 255.335,165.61 262.335,163.944 269.5,162.5C 274.284,160.462 279.284,159.462 284.5,159.5C 294.63,162.371 303.797,167.037 312,173.5C 312.743,175.874 312.243,177.874 310.5,179.5C 307.539,181.412 305.539,184.079 304.5,187.5C 302.933,188.681 302.099,190.347 302,192.5C 301.502,195.482 301.335,198.482 301.5,201.5C 300.883,201.611 300.383,201.944 300,202.5C 299.501,208.157 299.334,213.824 299.5,219.5C 298.656,223.099 298.323,226.766 298.5,230.5C 295.626,246.795 289.626,261.795 280.5,275.5C 277.333,278.498 274,281.331 270.5,284C 268.305,285.373 265.971,285.706 263.5,285C 262.042,278.915 259.875,273.082 257,267.5C 255.629,264.734 253.796,262.401 251.5,260.5C 249.919,258.858 249.253,256.858 249.5,254.5C 253.544,253.958 257.211,254.791 260.5,257C 267.343,258.839 271.843,256.339 274,249.5C 274.776,246.111 275.609,242.778 276.5,239.5C 278.04,237.162 278.706,234.495 278.5,231.5C 280.147,226.725 280.814,221.725 280.5,216.5C 280.833,216.5 281.167,216.5 281.5,216.5C 282.117,216.389 282.617,216.056 283,215.5C 283.826,204.326 283.659,193.326 282.5,182.5C 282.672,181.508 282.338,180.842 281.5,180.5C 281.573,178.973 280.906,177.973 279.5,177.5C 279.389,176.883 279.056,176.383 278.5,176C 275.304,175.195 272.304,175.362 269.5,176.5C 258.726,177.176 248.06,178.509 237.5,180.5C 232.83,181.072 228.163,181.739 223.5,182.5C 221.97,182.64 220.97,183.307 220.5,184.5C 212.898,184.991 205.398,185.991 198,187.5C 191.182,187.799 185.182,185.799 180,181.5C 170.286,190.271 159.786,197.937 148.5,204.5C 147.5,204.5 146.5,204.5 145.5,204.5C 145.343,203.127 145.51,201.793 146,200.5C 167.178,179.801 184.178,156.135 197,129.5C 196.925,123.919 197.092,118.419 197.5,113C 199.833,112.333 202.167,112.333 204.5,113C 212.058,116.517 218.558,121.35 224,127.5C 224.495,129.473 224.662,131.473 224.5,133.5 Z"/></g>
<g><path style="opacity:0.306" fill="#e6d8bd" d="M 104.5,99.5 C 95.8925,106.77 87.5592,114.437 79.5,122.5C 86.2812,113.048 94.6145,105.382 104.5,99.5 Z"/></g>
<g><path style="opacity:0.063" fill="#ece0cd" d="M 381.5,111.5 C 382.29,112.609 382.79,113.942 383,115.5C 384.049,114.483 385.216,114.316 386.5,115C 388.371,117.37 390.038,119.87 391.5,122.5C 394.077,123.943 396.41,125.61 398.5,127.5C 392.477,126.502 388.477,123.168 386.5,117.5C 385.081,116.549 383.415,116.216 381.5,116.5C 381.5,114.833 381.5,113.167 381.5,111.5 Z"/></g>
<g><path style="opacity:0.192" fill="#f2e7da" d="M 79.5,122.5 C 78.5,124.167 77.1667,125.5 75.5,126.5C 73.059,127.756 70.7257,127.756 68.5,126.5C 70.1992,126.66 71.8659,126.494 73.5,126C 75.4048,124.579 77.4048,123.412 79.5,122.5 Z"/></g>
<g><path style="opacity:0.059" fill="#ede0cb" d="M 398.5,127.5 C 404.081,130.413 408.747,134.413 412.5,139.5C 408.675,136.523 404.675,133.689 400.5,131C 399.695,129.887 399.028,128.721 398.5,127.5 Z"/></g>
<g><path style="opacity:0.996" fill="#4d3d38" d="M 224.5,133.5 C 224.799,135.604 224.466,137.604 223.5,139.5C 211.061,151.267 199.728,163.934 189.5,177.5C 187.834,178.666 186.167,178.666 184.5,177.5C 193.855,166.646 203.022,155.646 212,144.5C 215.742,140.253 219.908,136.586 224.5,133.5 Z"/></g>
<g><path style="opacity:0.4" fill="#e6dbc3" d="M 412.5,139.5 C 413.458,139.953 414.292,140.619 415,141.5C 415.192,143.577 415.692,145.577 416.5,147.5C 418.527,148.693 420.027,150.36 421,152.5C 426.326,171.458 429.159,190.791 429.5,210.5C 428.033,203.229 427.033,195.895 426.5,188.5C 425.612,176.178 423.112,164.178 419,152.5C 417.453,150.113 415.287,148.78 412.5,148.5C 413.541,145.542 413.541,142.542 412.5,139.5 Z"/></g>
<g><path style="opacity:0.996" fill="#ba5732" d="M 284.5,159.5 C 279.284,159.462 274.284,160.462 269.5,162.5C 274.009,158.814 279.009,157.814 284.5,159.5 Z"/></g>
<g><path style="opacity:0.996" fill="#bc502e" d="M 248.5,167.5 C 238.652,171.472 228.318,173.806 217.5,174.5C 217.918,173.778 218.584,173.278 219.5,173C 229.248,171.489 238.915,169.656 248.5,167.5 Z"/></g>
<g><path style="opacity:0.51" fill="#e5d7bd" d="M 68.5,126.5 C 70.7257,127.756 73.059,127.756 75.5,126.5C 74.0821,128.308 72.0821,128.975 69.5,128.5C 69.6602,130.199 69.4935,131.866 69,133.5C 59.5104,153.147 49.5104,172.481 39,191.5C 37.8686,200.124 37.202,208.79 37,217.5C 35.9264,218.618 34.7598,219.618 33.5,220.5C 35.0116,221.249 36.0116,222.416 36.5,224C 34.0338,227.003 32.7004,230.503 32.5,234.5C 33.0487,238.368 34.0487,242.035 35.5,245.5C 32.2459,242.637 30.9125,238.97 31.5,234.5C 30.8092,230.193 32.1425,226.693 35.5,224C 31.8811,221.976 31.7144,219.809 35,217.5C 35.3333,210.5 35.6667,203.5 36,196.5C 45.8061,175.555 56.1394,154.888 67,134.5C 67.1829,131.635 67.6829,128.969 68.5,126.5 Z"/></g>
<g><path style="opacity:0.996" fill="#453d39" d="M 269.5,176.5 C 272.902,176.342 276.236,176.676 279.5,177.5C 280.906,177.973 281.573,178.973 281.5,180.5C 281.657,181.873 281.49,183.207 281,184.5C 277.826,182.007 274.159,181.007 270,181.5C 259.448,181.684 249.282,183.35 239.5,186.5C 236.941,186.198 234.607,186.532 232.5,187.5C 225.88,187.506 219.546,188.506 213.5,190.5C 201.634,195.408 190.301,194.408 179.5,187.5C 173.336,192.826 167.003,197.992 160.5,203C 156.145,206.013 151.478,208.18 146.5,209.5C 146.392,207.486 147.058,205.82 148.5,204.5C 159.786,197.937 170.286,190.271 180,181.5C 185.182,185.799 191.182,187.799 198,187.5C 205.398,185.991 212.898,184.991 220.5,184.5C 226.411,183.689 232.078,182.356 237.5,180.5C 248.06,178.509 258.726,177.176 269.5,176.5 Z"/></g>
<g><path style="opacity:0.996" fill="#652f2b" d="M 269.5,176.5 C 272.304,175.362 275.304,175.195 278.5,176C 279.056,176.383 279.389,176.883 279.5,177.5C 276.236,176.676 272.902,176.342 269.5,176.5 Z"/></g>
<g><path style="opacity:0.996" fill="#503f38" d="M 310.5,179.5 C 312.344,180.204 312.844,181.537 312,183.5C 310.316,185.351 308.483,187.018 306.5,188.5C 305.391,191.708 304.058,194.708 302.5,197.5C 302.851,194.097 303.518,190.763 304.5,187.5C 305.539,184.079 307.539,181.412 310.5,179.5 Z"/></g>
<g><path style="opacity:0.996" fill="#5f312d" d="M 237.5,180.5 C 232.078,182.356 226.411,183.689 220.5,184.5C 220.97,183.307 221.97,182.64 223.5,182.5C 228.163,181.739 232.83,181.072 237.5,180.5 Z"/></g>
<g><path style="opacity:0.996" fill="#7d6a47" d="M 232.5,187.5 C 226.429,189.326 220.095,190.326 213.5,190.5C 219.546,188.506 225.88,187.506 232.5,187.5 Z"/></g>
<g><path style="opacity:0.996" fill="#962d21" d="M 304.5,187.5 C 303.518,190.763 302.851,194.097 302.5,197.5C 302.768,199.099 302.434,200.432 301.5,201.5C 301.335,198.482 301.502,195.482 302,192.5C 302.099,190.347 302.933,188.681 304.5,187.5 Z"/></g>
<g><path style="opacity:0.996" fill="#a5824c" d="M 281.5,180.5 C 282.338,180.842 282.672,181.508 282.5,182.5C 282.593,193.85 282.259,205.183 281.5,216.5C 281.167,216.5 280.833,216.5 280.5,216.5C 280.666,206.828 280.5,197.161 280,187.5C 279.691,186.234 279.191,185.067 278.5,184C 276.351,183.421 274.185,182.921 272,182.5C 260.892,183.286 250.059,184.619 239.5,186.5C 249.282,183.35 259.448,181.684 270,181.5C 274.159,181.007 277.826,182.007 281,184.5C 281.49,183.207 281.657,181.873 281.5,180.5 Z"/></g>
<g><path style="opacity:0.946" fill="#ceb687" d="M 426.5,188.5 C 427.033,195.895 428.033,203.229 429.5,210.5C 429.5,211.167 429.5,211.833 429.5,212.5C 428.532,214.607 428.198,216.941 428.5,219.5C 426.525,209.554 425.858,199.221 426.5,188.5 Z"/></g>
<g><path style="opacity:0.996" fill="#ba5732" d="M 230.5,209.5 C 225.039,207.948 219.705,208.281 214.5,210.5C 216.508,208.073 219.174,207.073 222.5,207.5C 225.486,207.382 228.152,208.048 230.5,209.5 Z"/></g>
<g><path style="opacity:0.996" fill="#c02a1b" d="M 230.5,209.5 C 236.127,210.73 240.96,213.397 245,217.5C 245.78,219.387 245.613,221.054 244.5,222.5C 235.381,227.456 228.881,234.789 225,244.5C 224.204,247.039 224.371,249.372 225.5,251.5C 225.414,252.496 225.748,253.329 226.5,254C 231.576,255.073 232.576,257.573 229.5,261.5C 228.167,261.5 226.833,261.5 225.5,261.5C 221.21,261.198 217.21,261.864 213.5,263.5C 210.813,263.336 208.146,263.503 205.5,264C 204.584,264.278 203.918,264.778 203.5,265.5C 201.097,265.448 198.764,265.781 196.5,266.5C 188.619,268.219 180.619,268.886 172.5,268.5C 172.5,270.5 172.5,272.5 172.5,274.5C 172.719,282.847 173.219,291.18 174,299.5C 174.232,300.737 174.732,301.737 175.5,302.5C 176.964,309.464 180.63,314.964 186.5,319C 196.817,324.489 207.817,327.656 219.5,328.5C 223.545,330.177 227.878,330.844 232.5,330.5C 245.5,331.833 258.5,331.833 271.5,330.5C 284.563,330.062 297.563,328.896 310.5,327C 315.81,325.262 320.81,323.096 325.5,320.5C 331.417,317.752 335.917,313.419 339,307.5C 342.96,297.304 346.127,286.971 348.5,276.5C 350.256,275.448 350.923,273.781 350.5,271.5C 351.5,271.5 352.5,271.5 353.5,271.5C 354.175,278.476 354.675,285.476 355,292.5C 355.21,294.058 355.71,295.391 356.5,296.5C 357.13,303.816 358.963,310.816 362,317.5C 362.498,320.817 362.665,324.15 362.5,327.5C 357.758,332.391 352.091,335.891 345.5,338C 336.937,340.807 328.27,342.974 319.5,344.5C 311.373,345.606 303.373,346.606 295.5,347.5C 294.391,348.29 293.058,348.79 291.5,349C 263.287,350.751 235.287,349.085 207.5,344C 200.429,341.636 193.429,338.969 186.5,336C 180.964,332.094 175.964,327.594 171.5,322.5C 167.039,314.6 164.039,306.267 162.5,297.5C 161.686,295.369 161.186,293.036 161,290.5C 160.5,279.172 160.333,267.838 160.5,256.5C 161.658,247.343 161.824,238.009 161,228.5C 160.768,227.263 160.268,226.263 159.5,225.5C 159.614,222.784 158.614,220.784 156.5,219.5C 154.338,214.867 155.838,212.867 161,213.5C 165.202,215.015 169.369,216.682 173.5,218.5C 175.641,219.163 177.975,219.497 180.5,219.5C 184.141,219.685 187.474,219.019 190.5,217.5C 191.167,217.5 191.833,217.5 192.5,217.5C 196.886,217.034 200.886,215.701 204.5,213.5C 207.583,212.007 210.917,211.007 214.5,210.5C 219.705,208.281 225.039,207.948 230.5,209.5 Z"/></g>
<g><path style="opacity:0.996" fill="#af3c25" d="M 282.5,182.5 C 283.659,193.326 283.826,204.326 283,215.5C 282.617,216.056 282.117,216.389 281.5,216.5C 282.259,205.183 282.593,193.85 282.5,182.5 Z"/></g>
<g><path style="opacity:0.996" fill="#983927" d="M 301.5,201.5 C 301.156,207.678 300.489,213.678 299.5,219.5C 299.334,213.824 299.501,208.157 300,202.5C 300.383,201.944 300.883,201.611 301.5,201.5 Z"/></g>
<g><path style="opacity:0.996" fill="#bb522f" d="M 204.5,213.5 C 200.886,215.701 196.886,217.034 192.5,217.5C 192.611,216.883 192.944,216.383 193.5,216C 197.189,215.148 200.856,214.315 204.5,213.5 Z"/></g>
<g><path style="opacity:0.996" fill="#bb4f2e" d="M 190.5,217.5 C 187.474,219.019 184.141,219.685 180.5,219.5C 177.975,219.497 175.641,219.163 173.5,218.5C 179.203,218.625 184.87,218.292 190.5,217.5 Z"/></g>
<g><path style="opacity:0.214" fill="#eae1d2" d="M 429.5,212.5 C 429.503,217.527 429.836,222.527 430.5,227.5C 429.232,225.095 428.565,222.428 428.5,219.5C 428.198,216.941 428.532,214.607 429.5,212.5 Z"/></g>
<g><path style="opacity:0.996" fill="#463d39" d="M 214.5,228.5 C 212.383,227.986 210.216,227.653 208,227.5C 197.49,229.224 186.99,230.891 176.5,232.5C 175.659,230.621 175.325,228.621 175.5,226.5C 179.514,226.666 183.514,226.499 187.5,226C 195.912,222.541 204.579,221.374 213.5,222.5C 214.466,224.396 214.799,226.396 214.5,228.5 Z"/></g>
<g><path style="opacity:0.996" fill="#5b4036" d="M 156.5,219.5 C 158.614,220.784 159.614,222.784 159.5,225.5C 159.5,226.5 159.5,227.5 159.5,228.5C 157.145,226.077 156.145,223.077 156.5,219.5 Z"/></g>
<g><path style="opacity:0.996" fill="#4c3c37" d="M 244.5,222.5 C 245.473,224.068 245.64,225.735 245,227.5C 235.335,232.992 228.835,240.992 225.5,251.5C 224.371,249.372 224.204,247.039 225,244.5C 228.881,234.789 235.381,227.456 244.5,222.5 Z"/></g>
<g><path style="opacity:0.996" fill="#b39151" d="M 214.5,228.5 C 213.812,235.965 211.646,242.965 208,249.5C 203.987,253.475 199.153,255.809 193.5,256.5C 189.96,256.753 186.627,257.419 183.5,258.5C 180.193,259.051 176.86,259.384 173.5,259.5C 173.5,256.833 173.5,254.167 173.5,251.5C 173.5,250.5 173.5,249.5 173.5,248.5C 174.913,243.37 175.913,238.037 176.5,232.5C 186.99,230.891 197.49,229.224 208,227.5C 210.216,227.653 212.383,227.986 214.5,228.5 Z"/></g>
<g><path style="opacity:0.996" fill="#a13624" d="M 175.5,226.5 C 175.325,228.621 175.659,230.621 176.5,232.5C 175.913,238.037 174.913,243.37 173.5,248.5C 173.518,240.963 174.185,233.629 175.5,226.5 Z"/></g>
<g><path style="opacity:0.494" fill="#dbceb7" d="M 430.5,227.5 C 432.924,230.008 434.59,233.008 435.5,236.5C 432.157,234.503 430.49,231.503 430.5,227.5 Z"/></g>
<g><path style="opacity:0.996" fill="#b96238" d="M 278.5,231.5 C 278.706,234.495 278.04,237.162 276.5,239.5C 276.565,236.572 277.232,233.905 278.5,231.5 Z"/></g>
<g><path style="opacity:0.996" fill="#9b492f" d="M 159.5,225.5 C 160.268,226.263 160.768,227.263 161,228.5C 161.824,238.009 161.658,247.343 160.5,256.5C 160.78,247.114 160.447,237.78 159.5,228.5C 159.5,227.5 159.5,226.5 159.5,225.5 Z"/></g>
<g><path style="opacity:0.196" fill="#b5aba3" d="M 35.5,245.5 C 37.2014,246.211 38.2014,247.545 38.5,249.5C 37.5,249.833 36.8333,250.5 36.5,251.5C 36.1667,251.5 35.8333,251.5 35.5,251.5C 35.5,249.5 35.5,247.5 35.5,245.5 Z"/></g>
<g><path style="opacity:0.994" fill="#191613" d="M 38.5,249.5 C 42.3993,255.849 44.0659,262.849 43.5,270.5C 41.5,268.5 39.5,266.5 37.5,264.5C 37.5,263.5 37.5,262.5 37.5,261.5C 36.9492,258.193 36.6159,254.86 36.5,251.5C 36.8333,250.5 37.5,249.833 38.5,249.5 Z"/></g>
<g><path style="opacity:0.529" fill="#8b8b8b" d="M 35.5,251.5 C 35.8333,251.5 36.1667,251.5 36.5,251.5C 36.6159,254.86 36.9492,258.193 37.5,261.5C 36.8333,261.167 36.1667,260.833 35.5,260.5C 34.4116,257.444 34.4116,254.444 35.5,251.5 Z"/></g>
<g><path style="opacity:0.059" fill="#ece3d1" d="M 435.5,236.5 C 439.877,241.296 441.377,246.963 440,253.5C 439.208,255.587 438.041,257.421 436.5,259C 437.804,259.804 438.471,260.971 438.5,262.5C 436.64,270.467 435.307,278.467 434.5,286.5C 434.283,281.77 434.617,277.103 435.5,272.5C 435.5,270.833 435.5,269.167 435.5,267.5C 435.519,265.94 435.852,264.44 436.5,263C 435.606,261.604 434.939,260.104 434.5,258.5C 437.291,255.638 438.624,252.138 438.5,248C 437.9,243.996 436.9,240.163 435.5,236.5 Z"/></g>
<g><path style="opacity:0.996" fill="#b96239" d="M 193.5,256.5 C 190.493,258.175 187.16,258.841 183.5,258.5C 186.627,257.419 189.96,256.753 193.5,256.5 Z"/></g>
<g><path style="opacity:0.996" fill="#b1462b" d="M 173.5,251.5 C 173.5,254.167 173.5,256.833 173.5,259.5C 176.86,259.384 180.193,259.051 183.5,258.5C 183.389,259.117 183.056,259.617 182.5,260C 179.183,260.498 175.85,260.665 172.5,260.5C 172.19,257.287 172.523,254.287 173.5,251.5 Z"/></g>
<g><path style="opacity:0.031" fill="#d0d0d0" d="M 35.5,260.5 C 36.1667,260.833 36.8333,261.167 37.5,261.5C 37.5,262.5 37.5,263.5 37.5,264.5C 36.3263,263.486 35.6596,262.153 35.5,260.5 Z"/></g>
<g><path style="opacity:0.996" fill="#59322f" d="M 225.5,261.5 C 221.817,263.25 217.817,263.917 213.5,263.5C 217.21,261.864 221.21,261.198 225.5,261.5 Z"/></g>
<g><path style="opacity:0.996" fill="#433f3b" d="M 225.5,261.5 C 226.833,261.5 228.167,261.5 229.5,261.5C 232.271,263.722 231.938,265.555 228.5,267C 214.765,267.944 201.432,270.444 188.5,274.5C 183.88,275.493 179.214,275.827 174.5,275.5C 173.833,275.5 173.5,275.167 173.5,274.5C 173.5,272.833 173.5,271.167 173.5,269.5C 179.176,269.666 184.843,269.499 190.5,269C 192.723,268.434 194.723,267.6 196.5,266.5C 198.764,265.781 201.097,265.448 203.5,265.5C 207.04,265.247 210.373,264.581 213.5,263.5C 217.817,263.917 221.817,263.25 225.5,261.5 Z"/></g>
<g><path style="opacity:0.996" fill="#652f2b" d="M 213.5,263.5 C 210.373,264.581 207.04,265.247 203.5,265.5C 203.918,264.778 204.584,264.278 205.5,264C 208.146,263.503 210.813,263.336 213.5,263.5 Z"/></g>
<g><path style="opacity:0.996" fill="#762d27" d="M 196.5,266.5 C 194.723,267.6 192.723,268.434 190.5,269C 184.843,269.499 179.176,269.666 173.5,269.5C 173.5,271.167 173.5,272.833 173.5,274.5C 173.167,274.5 172.833,274.5 172.5,274.5C 172.5,272.5 172.5,270.5 172.5,268.5C 180.619,268.886 188.619,268.219 196.5,266.5 Z"/></g>
<g><path style="opacity:0.996" fill="#5c3e35" d="M 298.5,230.5 C 298.494,235.215 297.994,239.882 297,244.5C 295.053,248.284 293.72,252.284 293,256.5C 290.812,263.465 287.645,269.799 283.5,275.5C 283.631,274.761 283.464,274.094 283,273.5C 282.292,274.381 281.458,275.047 280.5,275.5C 289.626,261.795 295.626,246.795 298.5,230.5 Z"/></g>
<g><path style="opacity:0.992" fill="#544730" d="M 435.5,267.5 C 435.5,269.167 435.5,270.833 435.5,272.5C 434.351,272.209 433.684,271.376 433.5,270C 433.684,268.624 434.351,267.791 435.5,267.5 Z"/></g>
<g><path style="opacity:0.102" fill="#d5d0cb" d="M 37.5,264.5 C 39.5,266.5 41.5,268.5 43.5,270.5C 43.5,271.167 43.5,271.833 43.5,272.5C 43.5,277.5 43.5,282.5 43.5,287.5C 42.6745,283.018 42.1745,278.351 42,273.5C 40.4734,270.447 38.9734,267.447 37.5,264.5 Z"/></g>
<g><path style="opacity:0.996" fill="#ba4b2c" d="M 356.5,296.5 C 355.71,295.391 355.21,294.058 355,292.5C 354.675,285.476 354.175,278.476 353.5,271.5C 352.5,271.5 351.5,271.5 350.5,271.5C 350.923,273.781 350.256,275.448 348.5,276.5C 348.317,274.064 348.984,271.897 350.5,270C 352.367,269.289 353.867,269.789 355,271.5C 355.481,279.84 355.981,288.173 356.5,296.5 Z"/></g>
<g><path style="opacity:0.996" fill="#4b3d38" d="M 251.5,260.5 C 253.796,262.401 255.629,264.734 257,267.5C 259.875,273.082 262.042,278.915 263.5,285C 265.971,285.706 268.305,285.373 270.5,284C 274,281.331 277.333,278.498 280.5,275.5C 281.458,275.047 282.292,274.381 283,273.5C 283.464,274.094 283.631,274.761 283.5,275.5C 280.429,281.408 276.096,286.241 270.5,290C 268.305,291.373 265.971,291.706 263.5,291C 261.624,281.414 257.457,272.914 251,265.5C 250.22,263.613 250.387,261.946 251.5,260.5 Z"/></g>
<g><path style="opacity:0.171" fill="#dfd0b1" d="M 43.5,272.5 C 44.2275,284.046 45.2275,295.712 46.5,307.5C 45.8333,306.833 45.1667,306.167 44.5,305.5C 43.7588,299.529 43.4255,293.529 43.5,287.5C 43.5,282.5 43.5,277.5 43.5,272.5 Z"/></g>
<g><path style="opacity:0.996" fill="#a27546" d="M 160.5,256.5 C 160.333,267.838 160.5,279.172 161,290.5C 161.186,293.036 161.686,295.369 162.5,297.5C 162.5,300.167 162.5,302.833 162.5,305.5C 160.86,302.512 160.026,299.179 160,295.5C 159.173,282.327 159.34,269.327 160.5,256.5 Z"/></g>
<g><path style="opacity:0.996" fill="#b47c46" d="M 172.5,274.5 C 172.833,274.5 173.167,274.5 173.5,274.5C 173.5,275.167 173.833,275.5 174.5,275.5C 174.448,284.518 174.782,293.518 175.5,302.5C 174.732,301.737 174.232,300.737 174,299.5C 173.219,291.18 172.719,282.847 172.5,274.5 Z"/></g>
<g><path style="opacity:0.997" fill="#070605" d="M 430.5,296.5 C 430.5,299.5 430.5,302.5 430.5,305.5C 426.336,315.508 421.836,325.508 417,335.5C 411.419,344.992 406.086,354.659 401,364.5C 399.801,367.726 399.301,371.059 399.5,374.5C 397.143,374.337 394.81,374.503 392.5,375C 385.5,383.333 377.833,391 369.5,398C 351.222,408.97 334.222,421.637 318.5,436C 315.83,436.543 313.33,436.043 311,434.5C 308.361,437.337 305.194,439.004 301.5,439.5C 295.599,438.043 289.599,437.376 283.5,437.5C 275.068,436.186 266.735,436.186 258.5,437.5C 247.163,438.723 235.83,438.723 224.5,437.5C 222.566,436.468 220.4,435.802 218,435.5C 211.813,438.005 205.647,440.505 199.5,443C 193.912,444.289 188.245,444.789 182.5,444.5C 179.833,444.167 177.167,443.833 174.5,443.5C 174.631,442.624 174.298,441.957 173.5,441.5C 168.521,438.513 163.188,436.513 157.5,435.5C 149.525,430.769 141.525,425.936 133.5,421C 132.552,420.517 131.552,420.351 130.5,420.5C 128.557,417.529 125.891,415.529 122.5,414.5C 119.538,411.036 116.371,407.703 113,404.5C 111.241,401.036 110.074,397.37 109.5,393.5C 107.925,392.544 106.258,391.877 104.5,391.5C 104.389,390.883 104.056,390.383 103.5,390C 100.183,389.502 96.8499,389.335 93.5,389.5C 93.5,387.833 93.5,386.167 93.5,384.5C 91.5,384.5 89.5,384.5 87.5,384.5C 86.2624,381.262 84.2624,378.596 81.5,376.5C 76.2263,373.874 71.5596,370.541 67.5,366.5C 66.674,364.736 65.3407,363.402 63.5,362.5C 62.8333,361.833 62.1667,361.167 61.5,360.5C 61.6741,358.139 62.0074,355.806 62.5,353.5C 61.1667,353.5 59.8333,353.5 58.5,353.5C 56.6583,351.81 55.325,349.81 54.5,347.5C 54.5797,344.219 53.913,341.219 52.5,338.5C 51.5655,337.432 51.2322,336.099 51.5,334.5C 50.7814,332.236 50.448,329.903 50.5,327.5C 51.8202,329.463 53.1535,331.463 54.5,333.5C 55.347,334.966 56.6803,335.8 58.5,336C 55.7183,339.298 56.385,341.798 60.5,343.5C 63.1557,345.598 65.489,348.098 67.5,351C 73.2701,354.277 78.6034,358.11 83.5,362.5C 84.5328,366.516 86.8661,367.516 90.5,365.5C 90.5,367.5 90.5,369.5 90.5,371.5C 93.5,371.5 96.5,371.5 99.5,371.5C 102.162,372.499 104.828,373.499 107.5,374.5C 107.336,377.187 107.503,379.854 108,382.5C 108.2,384.32 109.034,385.653 110.5,386.5C 123.664,398.994 138.664,408.66 155.5,415.5C 161.07,419.253 167.07,422.253 173.5,424.5C 175.438,426.163 177.772,426.829 180.5,426.5C 192.797,428.223 204.131,425.39 214.5,418C 216.598,417.322 218.598,417.489 220.5,418.5C 222.838,420.04 225.505,420.706 228.5,420.5C 248.019,420.648 267.686,420.648 287.5,420.5C 288.167,420.5 288.833,420.5 289.5,420.5C 294.103,422.328 298.769,422.661 303.5,421.5C 307.025,420.241 310.025,418.241 312.5,415.5C 314.592,418.152 317.258,418.986 320.5,418C 325.199,412.966 330.199,408.3 335.5,404C 348.5,395 361.5,386 374.5,377C 381.113,370.387 387.779,363.721 394.5,357C 397.063,355.921 399.729,355.421 402.5,355.5C 402.187,352.753 402.52,350.086 403.5,347.5C 409.61,336.716 415.277,325.716 420.5,314.5C 422.104,313.713 422.771,312.38 422.5,310.5C 424.647,305.54 427.314,300.873 430.5,296.5 Z"/></g>
<g><path style="opacity:0.051" fill="#dbd6cf" d="M 434.5,288.5 C 434.152,290.713 433.319,292.713 432,294.5C 431.826,299.351 431.326,304.018 430.5,308.5C 430.5,307.5 430.5,306.5 430.5,305.5C 430.5,302.5 430.5,299.5 430.5,296.5C 430.794,293.246 432.127,290.579 434.5,288.5 Z"/></g>
<g><path style="opacity:0.996" fill="#554526" d="M 422.5,310.5 C 422.771,312.38 422.104,313.713 420.5,314.5C 420.66,312.847 421.326,311.514 422.5,310.5 Z"/></g>
<g><path style="opacity:0.996" fill="#5b3c34" d="M 162.5,297.5 C 164.039,306.267 167.039,314.6 171.5,322.5C 170.833,322.5 170.167,322.5 169.5,322.5C 168.685,321.571 167.852,320.571 167,319.5C 165.709,314.629 164.209,309.963 162.5,305.5C 162.5,302.833 162.5,300.167 162.5,297.5 Z"/></g>
<g><path style="opacity:0.059" fill="#e3e1da" d="M 44.5,305.5 C 45.1667,306.167 45.8333,306.833 46.5,307.5C 46.848,311.258 47.5147,314.924 48.5,318.5C 48.8333,323.167 49.1667,327.833 49.5,332.5C 47.7442,323.646 46.0776,314.646 44.5,305.5 Z"/></g>
<g><path style="opacity:0.996" fill="#463e3a" d="M 169.5,322.5 C 170.167,322.5 170.833,322.5 171.5,322.5C 175.964,327.594 180.964,332.094 186.5,336C 193.429,338.969 200.429,341.636 207.5,344C 235.287,349.085 263.287,350.751 291.5,349C 293.058,348.79 294.391,348.29 295.5,347.5C 300.179,347.666 304.845,347.499 309.5,347C 313.133,346.851 316.466,346.018 319.5,344.5C 328.27,342.974 336.937,340.807 345.5,338C 352.091,335.891 357.758,332.391 362.5,327.5C 362.472,331.719 360.805,335.219 357.5,338C 347.172,343.723 336.172,347.557 324.5,349.5C 314.732,351.094 305.065,352.428 295.5,353.5C 264.694,357.102 234.028,355.602 203.5,349C 188.189,345.188 176.856,336.355 169.5,322.5 Z"/></g>
<g><path style="opacity:0.996" fill="#bc512e" d="M 325.5,320.5 C 320.81,323.096 315.81,325.262 310.5,327C 297.563,328.896 284.563,330.062 271.5,330.5C 289.844,329.684 307.844,326.351 325.5,320.5 Z"/></g>
<g><path style="opacity:0.42" fill="#8b8478" d="M 48.5,318.5 C 50.1181,321.171 50.7847,324.171 50.5,327.5C 50.448,329.903 50.7814,332.236 51.5,334.5C 50.8333,334.167 50.1667,333.833 49.5,333.5C 49.5,333.167 49.5,332.833 49.5,332.5C 49.1667,327.833 48.8333,323.167 48.5,318.5 Z"/></g>
<g><path style="opacity:0.996" fill="#b9653a" d="M 219.5,328.5 C 224.122,328.156 228.455,328.823 232.5,330.5C 227.878,330.844 223.545,330.177 219.5,328.5 Z"/></g>
<g><path style="opacity:0.996" fill="#755f35" d="M 54.5,333.5 C 56.1172,334.038 57.7839,334.371 59.5,334.5C 59.6427,336.262 59.3094,337.929 58.5,339.5C 59.6302,340.622 60.2969,341.956 60.5,343.5C 56.385,341.798 55.7183,339.298 58.5,336C 56.6803,335.8 55.347,334.966 54.5,333.5 Z"/></g>
<g><path style="opacity:0.094" fill="#bbbbbb" d="M 49.5,333.5 C 50.1667,333.833 50.8333,334.167 51.5,334.5C 51.2322,336.099 51.5655,337.432 52.5,338.5C 52.2153,341.829 52.8819,344.829 54.5,347.5C 55.325,349.81 56.6583,351.81 58.5,353.5C 58.5,353.833 58.5,354.167 58.5,354.5C 56.0123,353.26 54.1789,351.26 53,348.5C 51.6398,343.53 50.4732,338.53 49.5,333.5 Z"/></g>
<g><path style="opacity:0.71" fill="#454545" d="M 52.5,338.5 C 53.913,341.219 54.5797,344.219 54.5,347.5C 52.8819,344.829 52.2153,341.829 52.5,338.5 Z"/></g>
<g><path style="opacity:0.996" fill="#772b26" d="M 319.5,344.5 C 316.466,346.018 313.133,346.851 309.5,347C 304.845,347.499 300.179,347.666 295.5,347.5C 303.373,346.606 311.373,345.606 319.5,344.5 Z"/></g>
<g><path style="opacity:0.996" fill="#7e6b47" d="M 324.5,349.5 C 324.389,350.117 324.056,350.617 323.5,351C 314.252,352.821 304.918,353.655 295.5,353.5C 305.065,352.428 314.732,351.094 324.5,349.5 Z"/></g>
<g><path style="opacity:0.918" fill="#545454" d="M 58.5,354.5 C 58.5,354.167 58.5,353.833 58.5,353.5C 59.8333,353.5 61.1667,353.5 62.5,353.5C 62.0074,355.806 61.6741,358.139 61.5,360.5C 60.193,358.777 60.193,356.943 61.5,355C 60.552,354.517 59.552,354.351 58.5,354.5 Z"/></g>
<g><path style="opacity:0.29" fill="#c2c2c2" d="M 58.5,354.5 C 59.552,354.351 60.552,354.517 61.5,355C 60.193,356.943 60.193,358.777 61.5,360.5C 62.1667,361.167 62.8333,361.833 63.5,362.5C 63.5,363.167 63.5,363.833 63.5,364.5C 59.6194,362.074 57.9527,358.741 58.5,354.5 Z"/></g>
<g><path style="opacity:0.02" fill="#a6a5a5" d="M 430.5,305.5 C 430.5,306.5 430.5,307.5 430.5,308.5C 430.263,311.647 429.43,314.647 428,317.5C 419.015,334.802 410.015,352.135 401,369.5C 401.319,371.743 401.152,373.91 400.5,376C 397.132,375.061 394.132,375.894 391.5,378.5C 386.015,384.485 380.348,390.319 374.5,396C 361.674,405.247 348.674,414.247 335.5,423C 330.173,427.328 325.173,431.994 320.5,437C 317.416,438.984 314.416,438.818 311.5,436.5C 305.791,441.282 299.457,442.615 292.5,440.5C 292.5,440.167 292.5,439.833 292.5,439.5C 295.696,440.112 298.696,440.112 301.5,439.5C 305.194,439.004 308.361,437.337 311,434.5C 313.33,436.043 315.83,436.543 318.5,436C 334.222,421.637 351.222,408.97 369.5,398C 377.833,391 385.5,383.333 392.5,375C 394.81,374.503 397.143,374.337 399.5,374.5C 399.301,371.059 399.801,367.726 401,364.5C 406.086,354.659 411.419,344.992 417,335.5C 421.836,325.508 426.336,315.508 430.5,305.5 Z"/></g>
<g><path style="opacity:0.996" fill="#907441" d="M 83.5,362.5 C 84.7348,362.721 85.7348,363.388 86.5,364.5C 88.0709,363.691 89.7376,363.357 91.5,363.5C 91.5,365.833 91.5,368.167 91.5,370.5C 94.3854,370.194 97.0521,370.527 99.5,371.5C 96.5,371.5 93.5,371.5 90.5,371.5C 90.5,369.5 90.5,367.5 90.5,365.5C 86.8661,367.516 84.5328,366.516 83.5,362.5 Z"/></g>
<g><path style="opacity:0.29" fill="#747474" d="M 63.5,362.5 C 65.3407,363.402 66.674,364.736 67.5,366.5C 66.609,365.89 65.609,365.557 64.5,365.5C 63.8333,365.5 63.5,365.167 63.5,364.5C 63.5,363.833 63.5,363.167 63.5,362.5 Z"/></g>
<g><path style="opacity:0.216" fill="#b1b1b1" d="M 64.5,365.5 C 65.609,365.557 66.609,365.89 67.5,366.5C 71.5596,370.541 76.2263,373.874 81.5,376.5C 84.2624,378.596 86.2624,381.262 87.5,384.5C 88.9187,385.451 90.5853,385.784 92.5,385.5C 92.5,386.833 92.5,388.167 92.5,389.5C 91.8423,388.602 91.1757,387.602 90.5,386.5C 89.549,387.326 88.549,387.492 87.5,387C 85.1667,384 82.8333,381 80.5,378C 74.4072,374.733 69.0738,370.566 64.5,365.5 Z"/></g>
<g><path style="opacity:0.996" fill="#624f2c" d="M 107.5,374.5 C 108.311,378.431 109.311,382.431 110.5,386.5C 109.034,385.653 108.2,384.32 108,382.5C 107.503,379.854 107.336,377.187 107.5,374.5 Z"/></g>
<g><path style="opacity:0.635" fill="#666666" d="M 87.5,384.5 C 89.5,384.5 91.5,384.5 93.5,384.5C 93.5,386.167 93.5,387.833 93.5,389.5C 96.8499,389.335 100.183,389.502 103.5,390C 104.056,390.383 104.389,390.883 104.5,391.5C 100.566,390.64 96.5662,390.307 92.5,390.5C 92.5,390.167 92.5,389.833 92.5,389.5C 92.5,388.167 92.5,386.833 92.5,385.5C 90.5853,385.784 88.9187,385.451 87.5,384.5 Z"/></g>
<g><path style="opacity:0.137" fill="#b0b0af" d="M 92.5,390.5 C 96.5662,390.307 100.566,390.64 104.5,391.5C 106.258,391.877 107.925,392.544 109.5,393.5C 110.074,397.37 111.241,401.036 113,404.5C 116.371,407.703 119.538,411.036 122.5,414.5C 114.223,410.057 109.223,403.224 107.5,394C 102.489,392.292 97.4889,391.126 92.5,390.5 Z"/></g>
<g><path style="opacity:0.996" fill="#81683a" d="M 155.5,415.5 C 160.869,417.344 166.202,419.51 171.5,422C 172.381,422.708 173.047,423.542 173.5,424.5C 167.07,422.253 161.07,419.253 155.5,415.5 Z"/></g>
<g><path style="opacity:0.306" fill="#a7a7a7" d="M 122.5,414.5 C 125.891,415.529 128.557,417.529 130.5,420.5C 127.467,418.984 124.8,416.984 122.5,414.5 Z"/></g>
<g><path style="opacity:0.996" fill="#5c4a29" d="M 220.5,418.5 C 223.428,418.565 226.095,419.232 228.5,420.5C 225.505,420.706 222.838,420.04 220.5,418.5 Z"/></g>
<g><path style="opacity:0.996" fill="#544426" d="M 287.5,420.5 C 267.686,420.648 248.019,420.648 228.5,420.5C 242.536,420.559 256.536,419.892 270.5,418.5C 276.409,418.349 282.075,419.016 287.5,420.5 Z"/></g>
<g><path style="opacity:0.996" fill="#554526" d="M 289.5,420.5 C 294.181,420.669 298.848,421.002 303.5,421.5C 298.769,422.661 294.103,422.328 289.5,420.5 Z"/></g>
<g><path style="opacity:0.996" fill="#68542f" d="M 173.5,424.5 C 176.152,424.41 178.485,425.076 180.5,426.5C 177.772,426.829 175.438,426.163 173.5,424.5 Z"/></g>
<g><path style="opacity:0.082" fill="#9e9e9e" d="M 130.5,420.5 C 131.552,420.351 132.552,420.517 133.5,421C 141.525,425.936 149.525,430.769 157.5,435.5C 147.677,431.76 138.677,426.76 130.5,420.5 Z"/></g>
<g><path style="opacity:0.565" fill="#9d9d9d" d="M 157.5,435.5 C 163.188,436.513 168.521,438.513 173.5,441.5C 174.298,441.957 174.631,442.624 174.5,443.5C 168.371,441.6 162.704,438.933 157.5,435.5 Z"/></g>
<g><path style="opacity:0.988" fill="#3e3e3e" d="M 283.5,437.5 C 289.599,437.376 295.599,438.043 301.5,439.5C 298.696,440.112 295.696,440.112 292.5,439.5C 289.311,439.142 286.311,438.475 283.5,437.5 Z"/></g>
<g><path style="opacity:0.697" fill="#454545" d="M 224.5,438.5 C 224.5,438.167 224.5,437.833 224.5,437.5C 235.83,438.723 247.163,438.723 258.5,437.5C 256.5,438.167 254.5,438.833 252.5,439.5C 243.139,439.687 233.805,439.354 224.5,438.5 Z"/></g>
<g><path style="opacity:0.026" fill="#c0c0c0" d="M 283.5,437.5 C 286.311,438.475 289.311,439.142 292.5,439.5C 292.5,439.833 292.5,440.167 292.5,440.5C 279.23,438.202 265.896,437.868 252.5,439.5C 254.5,438.833 256.5,438.167 258.5,437.5C 266.735,436.186 275.068,436.186 283.5,437.5 Z"/></g>
<g><path style="opacity:0.137" fill="#cbcbcb" d="M 224.5,438.5 C 233.805,439.354 243.139,439.687 252.5,439.5C 248.681,440.166 244.681,440.499 240.5,440.5C 234.902,440.724 229.569,440.057 224.5,438.5 Z"/></g>
<g><path style="opacity:0.012" fill="#9c9c9b" d="M 224.5,437.5 C 224.5,437.833 224.5,438.167 224.5,438.5C 221.859,437.737 219.192,437.57 216.5,438C 209.61,441.952 202.277,444.452 194.5,445.5C 190.298,445.817 186.298,445.483 182.5,444.5C 188.245,444.789 193.912,444.289 199.5,443C 205.647,440.505 211.813,438.005 218,435.5C 220.4,435.802 222.566,436.468 224.5,437.5 Z"/></g>
<g><path style="opacity:0.125" fill="#cdcdcd" d="M 174.5,443.5 C 177.167,443.833 179.833,444.167 182.5,444.5C 186.298,445.483 190.298,445.817 194.5,445.5C 190.354,446.647 186.02,446.814 181.5,446C 178.809,445.844 176.476,445.011 174.5,443.5 Z"/></g>
</svg>
