<?xml version="1.0" encoding="UTF-8"?>
<!DOCTYPE svg PUBLIC "-//W3C//DTD SVG 1.1//EN" "http://www.w3.org/Graphics/SVG/1.1/DTD/svg11.dtd">
<svg xmlns="http://www.w3.org/2000/svg" version="1.1" width="460px" height="451px" style="shape-rendering:geometricPrecision; text-rendering:geometricPrecision; image-rendering:optimizeQuality; fill-rule:evenodd; clip-rule:evenodd" xmlns:xlink="http://www.w3.org/1999/xlink">
<g><path style="opacity:0.996" fill="#b59352" d="M 331.5,65.5 C 331.833,65.5 332.167,65.5 332.5,65.5C 332.511,67.0174 333.177,68.1841 334.5,69C 342.256,73.5439 349.256,79.0439 355.5,85.5C 356.003,88.8458 356.67,92.1792 357.5,95.5C 358.736,96.2458 360.07,96.5792 361.5,96.5C 362.347,97.9663 363.68,98.7996 365.5,99C 368.146,99.4974 370.813,99.6641 373.5,99.5C 373.5,101.167 373.5,102.833 373.5,104.5C 375.833,104.5 378.167,104.5 380.5,104.5C 382.31,110.428 386.31,114.094 392.5,115.5C 396.756,120.587 401.59,125.253 407,129.5C 407.14,131.256 406.64,132.922 405.5,134.5C 407.698,136.098 410.031,137.431 412.5,138.5C 414.392,146.815 416.225,155.149 418,163.5C 419.415,177.467 420.415,191.467 421,205.5C 421.746,209.896 422.746,214.23 424,218.5C 424.708,219.381 425.542,220.047 426.5,220.5C 428.989,225.164 430.656,230.164 431.5,235.5C 431.448,238.322 430.781,240.989 429.5,243.5C 428.675,244.386 427.675,244.719 426.5,244.5C 426.888,246.685 427.888,248.518 429.5,250C 429.257,250.902 428.923,251.735 428.5,252.5C 426.974,253.492 426.307,254.992 426.5,257C 426.514,258.385 426.848,259.551 427.5,260.5C 427.5,261.167 427.5,261.833 427.5,262.5C 426.682,268.74 425.682,275.073 424.5,281.5C 423.596,282.209 423.263,283.209 423.5,284.5C 414.361,301.44 405.195,318.44 396,335.5C 395.503,337.81 395.337,340.143 395.5,342.5C 392.68,342.248 390.014,342.748 387.5,344C 380.851,351.914 373.517,359.248 365.5,366C 353.129,374.513 340.796,383.013 328.5,391.5C 322.718,395.779 317.385,400.612 312.5,406C 309.593,406.854 307.26,406.021 305.5,403.5C 303.549,405.622 301.215,407.122 298.5,408C 292.449,408.746 286.449,408.579 280.5,407.5C 276.217,406.173 271.551,405.507 266.5,405.5C 261.449,405.507 256.783,406.173 252.5,407.5C 249.833,407.5 247.167,407.5 244.5,407.5C 233.027,408.027 221.693,407.027 210.5,404.5C 208.645,404.34 207.312,405.007 206.5,406.5C 194.48,414.221 181.48,416.388 167.5,413C 147.577,404.71 128.911,394.377 111.5,382C 108.317,378.985 105.317,375.818 102.5,372.5C 101.233,369.045 100.233,365.545 99.5,362C 96.9682,361.381 94.6349,360.381 92.5,359C 89.5184,358.502 86.5184,358.335 83.5,358.5C 83.5,356.833 83.5,355.167 83.5,353.5C 81.5,353.833 79.5,354.167 77.5,354.5C 76.7579,351.191 75.0912,348.357 72.5,346C 64.196,341.709 57.0293,335.876 51,328.5C 50.5038,326.965 50.6705,325.465 51.5,324C 48.6231,321.292 45.9565,318.459 43.5,315.5C 44.0102,312.612 43.3435,310.279 41.5,308.5C 40.3138,301.197 39.3138,293.863 38.5,286.5C 37.7817,277.518 37.4484,268.518 37.5,259.5C 37.6382,254.586 36.9715,249.919 35.5,245.5C 34.2601,242.976 33.0934,240.309 32,237.5C 31.3292,236.748 30.4959,236.414 29.5,236.5C 29.9234,235.735 30.2568,234.902 30.5,234C 24.2084,226.587 23.875,218.92 29.5,211C 28.7282,209.779 27.7282,208.779 26.5,208C 27.6184,206.926 28.6184,205.76 29.5,204.5C 30.2965,195.829 31.1298,187.162 32,178.5C 38.9408,167.053 44.7742,155.053 49.5,142.5C 53.1092,138.534 55.4426,133.867 56.5,128.5C 60.9091,125.345 62.9091,121.012 62.5,115.5C 67.0385,116.128 70.7051,114.628 73.5,111C 76.9948,106.009 80.6614,101.176 84.5,96.5C 85.8734,96.6567 87.2068,96.49 88.5,96C 92.4401,91.3747 96.7734,87.208 101.5,83.5C 106.322,82.0023 110.322,79.3356 113.5,75.5C 115.966,74.7023 117.966,73.369 119.5,71.5C 121.749,70.9202 123.415,69.5869 124.5,67.5C 129.849,67.1511 133.516,64.4845 135.5,59.5C 138.802,56.5502 142.302,53.8835 146,51.5C 148.248,51.9983 150.248,52.9983 152,54.5C 157.629,48.9482 164.463,46.9482 172.5,48.5C 173.842,49.793 175.509,50.6264 177.5,51C 192.881,51.7364 208.214,51.2364 223.5,49.5C 231.348,49.1461 239.014,50.1461 246.5,52.5C 250.599,50.9518 254.599,49.1185 258.5,47C 270.176,42.3874 281.843,42.3874 293.5,47C 306.18,53.274 318.846,59.4407 331.5,65.5 Z"/></g>
<g><path style="opacity:0.208" fill="#e3d7bd" d="M 172.5,48.5 C 164.463,46.9482 157.629,48.9482 152,54.5C 150.248,52.9983 148.248,51.9983 146,51.5C 142.302,53.8835 138.802,56.5502 135.5,59.5C 135.369,58.7611 135.536,58.0944 136,57.5C 138.702,54.2992 141.869,51.6325 145.5,49.5C 147.811,50.2135 149.978,51.2135 152,52.5C 153.543,50.6217 155.376,49.1217 157.5,48C 162.684,47.1837 167.684,47.3503 172.5,48.5 Z"/></g>
<g><path style="opacity:0.165" fill="#e3d5ba" d="M 331.5,65.5 C 318.846,59.4407 306.18,53.274 293.5,47C 281.843,42.3874 270.176,42.3874 258.5,47C 254.599,49.1185 250.599,50.9518 246.5,52.5C 239.014,50.1461 231.348,49.1461 223.5,49.5C 208.214,51.2364 192.881,51.7364 177.5,51C 175.509,50.6264 173.842,49.793 172.5,48.5C 178.747,49.8631 185.08,50.5297 191.5,50.5C 202.667,49.5478 213.833,48.5478 225,47.5C 232.251,47.5417 239.251,48.8751 246,51.5C 251.5,49 257,46.5 262.5,44C 269.026,41.8916 275.692,41.225 282.5,42C 299.935,47.7191 316.269,55.5524 331.5,65.5 Z"/></g>
<g><path style="opacity:0.957" fill="#d7c29d" d="M 135.5,59.5 C 133.516,64.4845 129.849,67.1511 124.5,67.5C 127.881,64.4537 131.548,61.787 135.5,59.5 Z"/></g>
<g><path style="opacity:0.345" fill="#e5ddca" d="M 124.5,67.5 C 123.415,69.5869 121.749,70.9202 119.5,71.5C 120.585,69.4131 122.251,68.0798 124.5,67.5 Z"/></g>
<g><path style="opacity:0.082" fill="#e4d7c0" d="M 332.5,65.5 C 337.265,68.4154 341.931,71.5821 346.5,75C 350.107,78.0977 353.107,81.5977 355.5,85.5C 349.256,79.0439 342.256,73.5439 334.5,69C 333.177,68.1841 332.511,67.0174 332.5,65.5 Z"/></g>
<g><path style="opacity:0.169" fill="#e6dac4" d="M 119.5,71.5 C 117.966,73.369 115.966,74.7023 113.5,75.5C 114.802,73.1782 116.802,71.8449 119.5,71.5 Z"/></g>
<g><path style="opacity:0.396" fill="#e8d8c2" d="M 113.5,75.5 C 110.322,79.3356 106.322,82.0023 101.5,83.5C 105.148,80.3401 109.148,77.6735 113.5,75.5 Z"/></g>
<g><path style="opacity:0.455" fill="#e5dcc4" d="M 355.5,85.5 C 356.79,86.0577 357.623,87.0577 358,88.5C 358.333,90.5 358.667,92.5 359,94.5C 359.995,95.0659 360.828,95.7326 361.5,96.5C 360.07,96.5792 358.736,96.2458 357.5,95.5C 356.67,92.1792 356.003,88.8458 355.5,85.5 Z"/></g>
<g><path style="opacity:0.973" fill="#dccaaa" d="M 101.5,83.5 C 96.7734,87.208 92.4401,91.3747 88.5,96C 87.2068,96.49 85.8734,96.6567 84.5,96.5C 89.2833,91.0549 94.9499,86.7215 101.5,83.5 Z"/></g>
<g><path style="opacity:0.996" fill="#c02b1b" d="M 289.5,137.5 C 285.806,138.508 282.139,139.675 278.5,141C 266.853,143.065 255.187,145.065 243.5,147C 242.62,148.356 242.286,149.856 242.5,151.5C 242.5,151.833 242.5,152.167 242.5,152.5C 242.5,158.833 242.5,165.167 242.5,171.5C 244.099,171.768 245.432,171.434 246.5,170.5C 257.449,168.903 268.115,166.403 278.5,163C 291.645,162.665 302.978,167.165 312.5,176.5C 313.466,178.396 313.799,180.396 313.5,182.5C 309.055,185.449 305.889,189.449 304,194.5C 299.971,210.015 294.138,224.682 286.5,238.5C 281.584,241.368 276.917,241.035 272.5,237.5C 265.345,236.345 258.012,236.178 250.5,237C 249.944,237.383 249.611,237.883 249.5,238.5C 247.5,238.5 245.5,238.5 243.5,238.5C 243.5,240.5 243.5,242.5 243.5,244.5C 243.5,250.5 243.5,256.5 243.5,262.5C 266.499,259.78 289.499,256.613 312.5,253C 317.833,252.333 323.167,252.333 328.5,253C 335.147,255.973 340.98,260.14 346,265.5C 346.833,268.171 346.333,270.504 344.5,272.5C 333.864,273.103 323.197,272.769 312.5,271.5C 299.673,270.34 286.673,270.173 273.5,271C 271.292,271.191 269.292,271.691 267.5,272.5C 259.459,272.336 251.459,272.836 243.5,274C 242.577,276.041 242.244,278.208 242.5,280.5C 242.09,296.831 241.756,313.165 241.5,329.5C 239.57,333.373 238.903,337.706 239.5,342.5C 238.759,346.172 237.593,349.839 236,353.5C 233.856,354.844 232.023,354.51 230.5,352.5C 229.838,348.534 229.505,344.534 229.5,340.5C 229.305,318.483 228.305,296.817 226.5,275.5C 217.507,276.474 208.841,277.808 200.5,279.5C 192.78,279.603 185.113,280.27 177.5,281.5C 172.876,281.763 168.542,282.763 164.5,284.5C 157.121,285.511 149.788,286.844 142.5,288.5C 140.5,288.333 138.5,288.167 136.5,288C 131.834,286.334 127.501,284.167 123.5,281.5C 121.048,279.246 121.048,277.079 123.5,275C 144.526,273.795 165.526,272.295 186.5,270.5C 191.028,270.23 195.361,269.563 199.5,268.5C 208.762,268.031 217.762,266.698 226.5,264.5C 227.492,257.018 227.825,249.352 227.5,241.5C 224.941,241.198 222.607,241.532 220.5,242.5C 212.43,243.122 204.43,244.289 196.5,246C 196.07,249.771 194.07,251.105 190.5,250C 184.127,241.675 179.794,232.508 177.5,222.5C 176.273,214.259 174.106,206.259 171,198.5C 168.64,193.76 165.807,189.426 162.5,185.5C 160.843,182.991 161.176,180.825 163.5,179C 173.155,179.315 182.821,179.315 192.5,179C 203.347,176.269 214.347,174.436 225.5,173.5C 225.5,167.5 225.5,161.5 225.5,155.5C 225.5,153.5 225.5,151.5 225.5,149.5C 214.351,151.29 203.018,151.957 191.5,151.5C 189.708,151.634 188.042,151.301 186.5,150.5C 184.657,149.717 182.657,149.05 180.5,148.5C 179.253,146.994 179.253,145.494 180.5,144C 195.46,143.441 210.126,141.441 224.5,138C 225.69,133.213 225.69,128.379 224.5,123.5C 224.199,117.626 222.366,112.293 219,107.5C 218.329,106.748 217.496,106.414 216.5,106.5C 212.693,100.382 214.36,97.7158 221.5,98.5C 226.615,99.0501 231.615,100.217 236.5,102C 239.759,103.211 242.592,105.044 245,107.5C 244.195,116.124 243.361,124.791 242.5,133.5C 251.07,132.721 259.403,130.888 267.5,128C 274.993,126.609 281.993,127.776 288.5,131.5C 289.466,133.396 289.799,135.396 289.5,137.5 Z"/></g>
<g><path style="opacity:0.678" fill="#e3d5b9" d="M 361.5,96.5 C 365.796,97.4296 370.13,98.2629 374.5,99C 375.071,100.205 375.738,101.372 376.5,102.5C 378.866,101.016 380.199,101.683 380.5,104.5C 378.167,104.5 375.833,104.5 373.5,104.5C 373.5,102.833 373.5,101.167 373.5,99.5C 370.813,99.6641 368.146,99.4974 365.5,99C 363.68,98.7996 362.347,97.9663 361.5,96.5 Z"/></g>
<g><path style="opacity:0.494" fill="#e9dfc9" d="M 380.5,104.5 C 383.842,108.84 387.842,112.506 392.5,115.5C 386.31,114.094 382.31,110.428 380.5,104.5 Z"/></g>
<g><path style="opacity:0.773" fill="#dbc8a6" d="M 84.5,96.5 C 80.6614,101.176 76.9948,106.009 73.5,111C 70.7051,114.628 67.0385,116.128 62.5,115.5C 62.9091,121.012 60.9091,125.345 56.5,128.5C 58.0298,125.452 59.3632,122.286 60.5,119C 59.6705,117.535 59.5038,116.035 60,114.5C 62.8587,113.827 65.692,112.993 68.5,112C 73.6754,106.658 79.0087,101.491 84.5,96.5 Z"/></g>
<g><path style="opacity:0.996" fill="#5b3d34" d="M 216.5,106.5 C 217.496,106.414 218.329,106.748 219,107.5C 222.366,112.293 224.199,117.626 224.5,123.5C 222.37,118.508 219.537,113.841 216,109.5C 215.26,108.251 215.427,107.251 216.5,106.5 Z"/></g>
<g><path style="opacity:0.224" fill="#ebdec8" d="M 392.5,115.5 C 399.226,119.387 404.892,124.554 409.5,131C 408.483,132.049 408.316,133.216 409,134.5C 411.071,135.103 412.238,136.436 412.5,138.5C 410.031,137.431 407.698,136.098 405.5,134.5C 406.64,132.922 407.14,131.256 407,129.5C 401.59,125.253 396.756,120.587 392.5,115.5 Z"/></g>
<g><path style="opacity:0.667" fill="#e3d2b6" d="M 56.5,128.5 C 55.4426,133.867 53.1092,138.534 49.5,142.5C 50.9985,137.358 53.3318,132.691 56.5,128.5 Z"/></g>
<g><path style="opacity:0.996" fill="#443b39" d="M 289.5,137.5 C 289.66,139.199 289.494,140.866 289,142.5C 287.348,143.399 285.848,144.399 284.5,145.5C 270.648,147.915 256.648,149.915 242.5,151.5C 242.286,149.856 242.62,148.356 243.5,147C 255.187,145.065 266.853,143.065 278.5,141C 282.139,139.675 285.806,138.508 289.5,137.5 Z"/></g>
<g><path style="opacity:0.996" fill="#8c754a" d="M 284.5,145.5 C 281.1,147.085 277.433,148.252 273.5,149C 263.587,150.891 253.587,152.058 243.5,152.5C 243.167,152.5 242.833,152.5 242.5,152.5C 242.5,152.167 242.5,151.833 242.5,151.5C 256.648,149.915 270.648,147.915 284.5,145.5 Z"/></g>
<g><path style="opacity:0.996" fill="#3f3d3b" d="M 186.5,150.5 C 188.042,151.301 189.708,151.634 191.5,151.5C 195.82,152.166 200.32,152.499 205,152.5C 211.293,152.707 217.46,152.041 223.5,150.5C 224.452,152.045 224.785,153.712 224.5,155.5C 222.05,155.298 219.717,155.631 217.5,156.5C 207.135,156.733 196.802,156.4 186.5,155.5C 184.139,155.326 181.806,154.993 179.5,154.5C 179.5,153.167 179.5,151.833 179.5,150.5C 181.833,150.5 184.167,150.5 186.5,150.5 Z"/></g>
<g><path style="opacity:0.996" fill="#58322f" d="M 225.5,155.5 C 225.167,155.5 224.833,155.5 224.5,155.5C 224.785,153.712 224.452,152.045 223.5,150.5C 217.46,152.041 211.293,152.707 205,152.5C 200.32,152.499 195.82,152.166 191.5,151.5C 203.018,151.957 214.351,151.29 225.5,149.5C 225.5,151.5 225.5,153.5 225.5,155.5 Z"/></g>
<g><path style="opacity:0.996" fill="#625741" d="M 186.5,155.5 C 196.802,156.4 207.135,156.733 217.5,156.5C 208.009,157.658 198.342,157.825 188.5,157C 187.584,156.722 186.918,156.222 186.5,155.5 Z"/></g>
<g><path style="opacity:0.996" fill="#a9603a" d="M 242.5,152.5 C 242.833,152.5 243.167,152.5 243.5,152.5C 243.5,158.5 243.5,164.5 243.5,170.5C 244.5,170.5 245.5,170.5 246.5,170.5C 245.432,171.434 244.099,171.768 242.5,171.5C 242.5,165.167 242.5,158.833 242.5,152.5 Z"/></g>
<g><path style="opacity:0.996" fill="#652d2a" d="M 280.5,177.5 C 270.484,177.453 260.484,177.787 250.5,178.5C 256.608,177.077 262.941,176.411 269.5,176.5C 273.349,176.501 277.016,176.835 280.5,177.5 Z"/></g>
<g><path style="opacity:0.996" fill="#423e3b" d="M 280.5,177.5 C 281.583,177.539 282.583,177.873 283.5,178.5C 284.466,180.396 284.799,182.396 284.5,184.5C 279.513,182.952 274.346,182.285 269,182.5C 260.46,182.744 251.96,183.411 243.5,184.5C 243.5,182.5 243.5,180.5 243.5,178.5C 245.833,178.5 248.167,178.5 250.5,178.5C 260.484,177.787 270.484,177.453 280.5,177.5 Z"/></g>
<g><path style="opacity:0.996" fill="#893025" d="M 226.5,199.5 C 226.354,195.481 226.021,191.481 225.5,187.5C 225.5,185.833 225.5,184.167 225.5,182.5C 222.763,182.401 220.096,182.735 217.5,183.5C 217.611,182.883 217.944,182.383 218.5,182C 221.146,181.503 223.813,181.336 226.5,181.5C 227.07,187.682 227.07,193.682 226.5,199.5 Z"/></g>
<g><path style="opacity:0.996" fill="#403c3a" d="M 225.5,187.5 C 213.183,189.491 200.85,191.491 188.5,193.5C 188.286,191.856 188.62,190.356 189.5,189C 198.155,187.915 206.489,186.082 214.5,183.5C 215.5,183.5 216.5,183.5 217.5,183.5C 220.096,182.735 222.763,182.401 225.5,182.5C 225.5,184.167 225.5,185.833 225.5,187.5 Z"/></g>
<g><path style="opacity:0.996" fill="#b39051" d="M 284.5,184.5 C 282.882,197.419 280.049,210.086 276,222.5C 275.5,223 275,223.5 274.5,224C 264.25,225.595 253.917,226.762 243.5,227.5C 243.5,223.5 243.5,219.5 243.5,215.5C 249.845,213.775 256.178,211.941 262.5,210C 265.76,207.895 266.094,205.729 263.5,203.5C 265.168,201.521 265.834,199.188 265.5,196.5C 262.313,195.248 258.98,194.582 255.5,194.5C 251.511,195.023 247.511,195.356 243.5,195.5C 243.5,191.833 243.5,188.167 243.5,184.5C 251.96,183.411 260.46,182.744 269,182.5C 274.346,182.285 279.513,182.952 284.5,184.5 Z"/></g>
<g><path style="opacity:0.996" fill="#64302b" d="M 214.5,183.5 C 206.489,186.082 198.155,187.915 189.5,189C 188.62,190.356 188.286,191.856 188.5,193.5C 187.193,191.777 187.193,189.943 188.5,188C 197.178,186.496 205.845,184.996 214.5,183.5 Z"/></g>
<g><path style="opacity:0.996" fill="#b39051" d="M 225.5,187.5 C 226.021,191.481 226.354,195.481 226.5,199.5C 226.389,200.117 226.056,200.617 225.5,201C 218.309,203.286 210.975,204.953 203.5,206C 202.243,208.076 202.576,209.91 204.5,211.5C 204.5,211.833 204.5,212.167 204.5,212.5C 203.503,212.47 202.836,212.97 202.5,214C 203.359,216.053 204.692,217.72 206.5,219C 213.203,219.713 219.87,219.546 226.5,218.5C 226.5,222.167 226.5,225.833 226.5,229.5C 224.189,231.068 221.522,231.902 218.5,232C 210.863,233.163 203.196,233.997 195.5,234.5C 193.885,220.624 191.552,206.957 188.5,193.5C 200.85,191.491 213.183,189.491 225.5,187.5 Z"/></g>
<g><path style="opacity:0.329" fill="#e5d7bd" d="M 412.5,138.5 C 413.966,139.347 414.8,140.68 415,142.5C 420.484,164.468 423.15,186.801 423,209.5C 423.605,213.369 424.771,217.035 426.5,220.5C 425.542,220.047 424.708,219.381 424,218.5C 422.746,214.23 421.746,209.896 421,205.5C 420.415,191.467 419.415,177.467 418,163.5C 416.225,155.149 414.392,146.815 412.5,138.5 Z"/></g>
<g><path style="opacity:0.996" fill="#5b3f36" d="M 313.5,182.5 C 313.662,184.527 313.495,186.527 313,188.5C 309.573,191.256 306.907,194.59 305,198.5C 302.245,207.654 299.245,216.654 296,225.5C 293.959,230.498 291.459,235.164 288.5,239.5C 288.591,237.302 287.925,236.969 286.5,238.5C 294.138,224.682 299.971,210.015 304,194.5C 305.889,189.449 309.055,185.449 313.5,182.5 Z"/></g>
<g><path style="opacity:0.996" fill="#453d3a" d="M 263.5,203.5 C 266.094,205.729 265.76,207.895 262.5,210C 256.178,211.941 249.845,213.775 243.5,215.5C 243.201,213.396 243.534,211.396 244.5,209.5C 251.237,208.57 257.57,206.57 263.5,203.5 Z"/></g>
<g><path style="opacity:0.996" fill="#604538" d="M 162.5,185.5 C 165.807,189.426 168.64,193.76 171,198.5C 174.106,206.259 176.273,214.259 177.5,222.5C 176.883,222.389 176.383,222.056 176,221.5C 174.167,215.333 172.333,209.167 170.5,203C 168.478,198.526 165.811,194.359 162.5,190.5C 161.212,188.701 161.212,187.035 162.5,185.5 Z"/></g>
<g><path style="opacity:0.996" fill="#48413b" d="M 204.5,212.5 C 211.777,213.43 219.11,213.764 226.5,213.5C 226.5,215.167 226.5,216.833 226.5,218.5C 219.87,219.546 213.203,219.713 206.5,219C 204.692,217.72 203.359,216.053 202.5,214C 202.836,212.97 203.503,212.47 204.5,212.5 Z"/></g>
<g><path style="opacity:0.996" fill="#903c2a" d="M 204.5,212.5 C 204.5,212.167 204.5,211.833 204.5,211.5C 211.823,212.485 219.156,212.651 226.5,212C 227.825,217.932 227.825,223.766 226.5,229.5C 226.5,225.833 226.5,222.167 226.5,218.5C 226.5,216.833 226.5,215.167 226.5,213.5C 219.11,213.764 211.777,213.43 204.5,212.5 Z"/></g>
<g><path style="opacity:0.294" fill="#e4d6bb" d="M 49.5,142.5 C 44.7742,155.053 38.9408,167.053 32,178.5C 31.1298,187.162 30.2965,195.829 29.5,204.5C 28.6184,205.76 27.6184,206.926 26.5,208C 27.7282,208.779 28.7282,209.779 29.5,211C 23.875,218.92 24.2084,226.587 30.5,234C 30.2568,234.902 29.9234,235.735 29.5,236.5C 29.5,236.833 29.5,237.167 29.5,237.5C 29.1667,237.5 28.8333,237.5 28.5,237.5C 26.9856,232.3 25.319,227.133 23.5,222C 23.6286,217.607 25.2952,213.94 28.5,211C 26.8198,210.653 25.8198,209.653 25.5,208C 26.3169,206.51 27.1502,205.01 28,203.5C 28.3333,196.833 28.6667,190.167 29,183.5C 34.8248,169.184 41.6582,155.517 49.5,142.5 Z"/></g>
<g><path style="opacity:0.996" fill="#662f2b" d="M 272.5,237.5 C 264.799,237.309 257.132,237.642 249.5,238.5C 249.611,237.883 249.944,237.383 250.5,237C 258.012,236.178 265.345,236.345 272.5,237.5 Z"/></g>
<g><path style="opacity:0.996" fill="#463e3a" d="M 272.5,237.5 C 276.917,241.035 281.584,241.368 286.5,238.5C 287.925,236.969 288.591,237.302 288.5,239.5C 285.001,247.26 280.001,248.427 273.5,243C 271.333,242.833 269.167,242.667 267,242.5C 259.191,243.497 251.357,244.163 243.5,244.5C 243.5,242.5 243.5,240.5 243.5,238.5C 245.5,238.5 247.5,238.5 249.5,238.5C 257.132,237.642 264.799,237.309 272.5,237.5 Z"/></g>
<g><path style="opacity:0.995" fill="#171715" d="M 29.5,236.5 C 30.4959,236.414 31.3292,236.748 32,237.5C 33.0934,240.309 34.2601,242.976 35.5,245.5C 35.815,249.371 35.4816,253.038 34.5,256.5C 32.8956,253.057 31.0623,249.723 29,246.5C 28.2642,243.408 28.4309,240.408 29.5,237.5C 29.5,237.167 29.5,236.833 29.5,236.5 Z"/></g>
<g><path style="opacity:0.996" fill="#4b403a" d="M 177.5,222.5 C 179.794,232.508 184.127,241.675 190.5,250C 194.07,251.105 196.07,249.771 196.5,246C 204.43,244.289 212.43,243.122 220.5,242.5C 222.5,242.5 224.5,242.5 226.5,242.5C 226.5,243.833 226.5,245.167 226.5,246.5C 216.614,248.777 206.614,250.61 196.5,252C 195.663,253.011 195.33,254.178 195.5,255.5C 193.473,255.662 191.473,255.495 189.5,255C 182.251,245.341 178.251,234.507 177.5,222.5 Z"/></g>
<g><path style="opacity:0.42" fill="#e5dac7" d="M 426.5,220.5 C 434.241,228.427 435.241,237.094 429.5,246.5C 431.76,248.407 431.927,250.407 430,252.5C 429.427,259.68 428.594,266.68 427.5,273.5C 427.5,269.833 427.5,266.167 427.5,262.5C 427.5,261.833 427.5,261.167 427.5,260.5C 428.473,258.052 428.806,255.385 428.5,252.5C 428.923,251.735 429.257,250.902 429.5,250C 427.888,248.518 426.888,246.685 426.5,244.5C 427.675,244.719 428.675,244.386 429.5,243.5C 430.781,240.989 431.448,238.322 431.5,235.5C 430.656,230.164 428.989,225.164 426.5,220.5 Z"/></g>
<g><path style="opacity:0.227" fill="#a8a7a7" d="M 28.5,237.5 C 28.8333,237.5 29.1667,237.5 29.5,237.5C 28.4309,240.408 28.2642,243.408 29,246.5C 31.0623,249.723 32.8956,253.057 34.5,256.5C 35.1667,257.5 35.8333,258.5 36.5,259.5C 36.5,259.833 36.5,260.167 36.5,260.5C 36.1667,260.5 35.8333,260.5 35.5,260.5C 29.3028,253.83 26.9694,246.163 28.5,237.5 Z"/></g>
<g><path style="opacity:0.996" fill="#8f4630" d="M 220.5,242.5 C 222.607,241.532 224.941,241.198 227.5,241.5C 227.825,249.352 227.492,257.018 226.5,264.5C 226.5,258.5 226.5,252.5 226.5,246.5C 226.5,245.167 226.5,243.833 226.5,242.5C 224.5,242.5 222.5,242.5 220.5,242.5 Z"/></g>
<g><path style="opacity:0.996" fill="#665432" d="M 35.5,245.5 C 36.9715,249.919 37.6382,254.586 37.5,259.5C 37.1667,259.5 36.8333,259.5 36.5,259.5C 35.8333,258.5 35.1667,257.5 34.5,256.5C 35.4816,253.038 35.815,249.371 35.5,245.5 Z"/></g>
<g><path style="opacity:0.992" fill="#5f5137" d="M 428.5,252.5 C 428.806,255.385 428.473,258.052 427.5,260.5C 426.848,259.551 426.514,258.385 426.5,257C 426.307,254.992 426.974,253.492 428.5,252.5 Z"/></g>
<g><path style="opacity:0.553" fill="#d8c69d" d="M 427.5,262.5 C 427.5,266.167 427.5,269.833 427.5,273.5C 427.472,276.916 426.472,279.916 424.5,282.5C 424.5,282.167 424.5,281.833 424.5,281.5C 425.682,275.073 426.682,268.74 427.5,262.5 Z"/></g>
<g><path style="opacity:0.996" fill="#ba5a34" d="M 199.5,268.5 C 195.361,269.563 191.028,270.23 186.5,270.5C 187.263,269.732 188.263,269.232 189.5,269C 192.817,268.502 196.15,268.335 199.5,268.5 Z"/></g>
<g><path style="opacity:0.996" fill="#672c29" d="M 312.5,271.5 C 297.481,271.29 282.481,271.623 267.5,272.5C 269.292,271.691 271.292,271.191 273.5,271C 286.673,270.173 299.673,270.34 312.5,271.5 Z"/></g>
<g><path style="opacity:0.996" fill="#453e3a" d="M 312.5,271.5 C 323.197,272.769 333.864,273.103 344.5,272.5C 347.094,274.729 346.76,276.895 343.5,279C 342,279.167 340.5,279.333 339,279.5C 306.957,275.268 275.123,275.602 243.5,280.5C 243.167,280.5 242.833,280.5 242.5,280.5C 242.244,278.208 242.577,276.041 243.5,274C 251.459,272.836 259.459,272.336 267.5,272.5C 282.481,271.623 297.481,271.29 312.5,271.5 Z"/></g>
<g><path style="opacity:0.035" fill="#e7dfd0" d="M 35.5,260.5 C 35.8333,260.5 36.1667,260.5 36.5,260.5C 36.3337,267.508 36.5004,274.508 37,281.5C 37.1981,283.382 37.6981,285.048 38.5,286.5C 39.3138,293.863 40.3138,301.197 41.5,308.5C 41.9422,312.154 42.2756,315.821 42.5,319.5C 37.6602,300.266 35.3268,280.599 35.5,260.5 Z"/></g>
<g><path style="opacity:0.49" fill="#cdb68a" d="M 36.5,259.5 C 36.8333,259.5 37.1667,259.5 37.5,259.5C 37.4484,268.518 37.7817,277.518 38.5,286.5C 37.6981,285.048 37.1981,283.382 37,281.5C 36.5004,274.508 36.3337,267.508 36.5,260.5C 36.5,260.167 36.5,259.833 36.5,259.5 Z"/></g>
<g><path style="opacity:0.996" fill="#6a2e29" d="M 226.5,275.5 C 226.5,275.833 226.5,276.167 226.5,276.5C 217.898,277.972 209.232,278.972 200.5,279.5C 208.841,277.808 217.507,276.474 226.5,275.5 Z"/></g>
<g><path style="opacity:0.996" fill="#433d3a" d="M 226.5,276.5 C 226.5,278.167 226.5,279.833 226.5,281.5C 206.628,283.649 186.962,286.316 167.5,289.5C 157.367,291.947 147.033,293.28 136.5,293.5C 130.374,291.681 125.374,288.348 121.5,283.5C 121.747,282.287 122.414,281.62 123.5,281.5C 127.501,284.167 131.834,286.334 136.5,288C 138.5,288.167 140.5,288.333 142.5,288.5C 149.788,286.844 157.121,285.511 164.5,284.5C 168.49,284.001 172.49,283.501 176.5,283C 177.056,282.617 177.389,282.117 177.5,281.5C 185.113,280.27 192.78,279.603 200.5,279.5C 209.232,278.972 217.898,277.972 226.5,276.5 Z"/></g>
<g><path style="opacity:0.996" fill="#a25c39" d="M 242.5,280.5 C 242.833,280.5 243.167,280.5 243.5,280.5C 243.466,297.016 242.8,313.349 241.5,329.5C 241.756,313.165 242.09,296.831 242.5,280.5 Z"/></g>
<g><path style="opacity:0.996" fill="#662e2a" d="M 177.5,281.5 C 177.389,282.117 177.056,282.617 176.5,283C 172.49,283.501 168.49,284.001 164.5,284.5C 168.542,282.763 172.876,281.763 177.5,281.5 Z"/></g>
<g><path style="opacity:0.996" fill="#7e6b47" d="M 167.5,289.5 C 157.456,293.459 147.122,294.793 136.5,293.5C 147.033,293.28 157.367,291.947 167.5,289.5 Z"/></g>
<g><path style="opacity:0.996" fill="#ac3322" d="M 226.5,276.5 C 226.5,276.167 226.5,275.833 226.5,275.5C 228.305,296.817 229.305,318.483 229.5,340.5C 228.686,338.369 228.186,336.036 228,333.5C 227.832,314.329 227.332,295.329 226.5,276.5 Z"/></g>
<g><path style="opacity:0.997" fill="#080705" d="M 423.5,284.5 C 423.78,289.314 423.114,293.98 421.5,298.5C 413.705,313.097 406.205,327.763 399,342.5C 398.495,344.518 397.995,346.518 397.5,348.5C 393.404,351.721 391.737,356.055 392.5,361.5C 389.107,361.062 386.107,361.895 383.5,364C 368.886,380.612 351.886,394.279 332.5,405C 324.637,411.371 316.97,417.871 309.5,424.5C 307.315,424.148 305.481,423.148 304,421.5C 301.844,422.985 299.677,424.485 297.5,426C 295.167,426.167 292.833,426.333 290.5,426.5C 279.886,425.021 269.219,424.355 258.5,424.5C 251.984,424.79 245.65,425.457 239.5,426.5C 231.483,426.499 223.483,426.166 215.5,425.5C 213.898,423.926 211.898,423.259 209.5,423.5C 206.911,423.461 204.911,424.461 203.5,426.5C 198.317,427.839 193.317,429.672 188.5,432C 183.833,432.667 179.167,432.667 174.5,432C 164.404,428.12 154.404,423.953 144.5,419.5C 144.047,418.542 143.381,417.708 142.5,417C 137.427,414.792 132.427,412.625 127.5,410.5C 122.738,405.738 117.404,401.738 111.5,398.5C 109.923,394.779 107.423,391.779 104,389.5C 103.788,386.242 103.288,383.076 102.5,380C 97.3703,377.92 92.037,377.087 86.5,377.5C 86.5,375.5 86.5,373.5 86.5,371.5C 84.9397,371.519 83.4397,371.852 82,372.5C 77.1855,366.508 71.3522,361.842 64.5,358.5C 61.2188,354.744 57.7188,351.077 54,347.5C 53.3164,345.521 53.8164,343.854 55.5,342.5C 51.2324,341.4 48.3991,338.734 47,334.5C 45.3825,328.246 44.2158,321.913 43.5,315.5C 45.9565,318.459 48.6231,321.292 51.5,324C 50.6705,325.465 50.5038,326.965 51,328.5C 57.0293,335.876 64.196,341.709 72.5,346C 75.0912,348.357 76.7579,351.191 77.5,354.5C 79.5,354.167 81.5,353.833 83.5,353.5C 83.5,355.167 83.5,356.833 83.5,358.5C 86.5184,358.335 89.5184,358.502 92.5,359C 94.6349,360.381 96.9682,361.381 99.5,362C 100.233,365.545 101.233,369.045 102.5,372.5C 105.317,375.818 108.317,378.985 111.5,382C 128.911,394.377 147.577,404.71 167.5,413C 181.48,416.388 194.48,414.221 206.5,406.5C 211.536,405.732 216.536,406.232 221.5,408C 229.345,408.822 237.011,408.656 244.5,407.5C 247.167,407.5 249.833,407.5 252.5,407.5C 261.838,406.201 271.171,406.201 280.5,407.5C 286.449,408.579 292.449,408.746 298.5,408C 301.215,407.122 303.549,405.622 305.5,403.5C 307.26,406.021 309.593,406.854 312.5,406C 317.385,400.612 322.718,395.779 328.5,391.5C 340.796,383.013 353.129,374.513 365.5,366C 373.517,359.248 380.851,351.914 387.5,344C 390.014,342.748 392.68,342.248 395.5,342.5C 395.337,340.143 395.503,337.81 396,335.5C 405.195,318.44 414.361,301.44 423.5,284.5 Z"/></g>
<g><path style="opacity:0.02" fill="#a4a3a3" d="M 424.5,281.5 C 424.5,281.833 424.5,282.167 424.5,282.5C 425.183,290.152 424.016,297.485 421,304.5C 413.422,319.324 405.589,333.991 397.5,348.5C 397.995,346.518 398.495,344.518 399,342.5C 406.205,327.763 413.705,313.097 421.5,298.5C 423.114,293.98 423.78,289.314 423.5,284.5C 423.263,283.209 423.596,282.209 424.5,281.5 Z"/></g>
<g><path style="opacity:0.996" fill="#95402b" d="M 241.5,329.5 C 241.23,334.028 240.563,338.361 239.5,342.5C 238.903,337.706 239.57,333.373 241.5,329.5 Z"/></g>
<g><path style="opacity:0.263" fill="#9e9d9b" d="M 41.5,308.5 C 43.3435,310.279 44.0102,312.612 43.5,315.5C 44.2158,321.913 45.3825,328.246 47,334.5C 48.3991,338.734 51.2324,341.4 55.5,342.5C 53.8164,343.854 53.3164,345.521 54,347.5C 57.7188,351.077 61.2188,354.744 64.5,358.5C 59.6996,355.663 55.533,351.996 52,347.5C 51.4054,346.101 51.5721,344.768 52.5,343.5C 48.7955,341.1 46.2955,337.767 45,333.5C 43.8436,328.878 43.0103,324.211 42.5,319.5C 42.2756,315.821 41.9422,312.154 41.5,308.5 Z"/></g>
<g><path style="opacity:0.996" fill="#554138" d="M 239.5,342.5 C 239.549,348.424 238.382,354.09 236,359.5C 234.644,360.38 233.144,360.714 231.5,360.5C 230.908,357.873 230.575,355.206 230.5,352.5C 232.023,354.51 233.856,354.844 236,353.5C 237.593,349.839 238.759,346.172 239.5,342.5 Z"/></g>
<g><path style="opacity:0.286" fill="#8c8c8c" d="M 64.5,358.5 C 71.3522,361.842 77.1855,366.508 82,372.5C 83.4397,371.852 84.9397,371.519 86.5,371.5C 86.5,373.5 86.5,375.5 86.5,377.5C 92.037,377.087 97.3703,377.92 102.5,380C 103.288,383.076 103.788,386.242 104,389.5C 107.423,391.779 109.923,394.779 111.5,398.5C 108.606,397.118 106.106,395.118 104,392.5C 102.45,388.611 100.95,384.778 99.5,381C 95.0241,379.189 90.3574,378.189 85.5,378C 84.6634,376.989 84.33,375.822 84.5,374.5C 83.1266,374.657 81.7932,374.49 80.5,374C 78.69,371.356 76.69,368.856 74.5,366.5C 70.7317,364.294 67.3984,361.628 64.5,358.5 Z"/></g>
<g><path style="opacity:0.271" fill="#7e7e7e" d="M 111.5,398.5 C 117.404,401.738 122.738,405.738 127.5,410.5C 121.313,407.647 115.979,403.647 111.5,398.5 Z"/></g>
<g><path style="opacity:0.153" fill="#a7a7a7" d="M 397.5,348.5 C 396.381,351.843 395.048,355.177 393.5,358.5C 394.747,360.042 394.747,361.542 393.5,363C 390.711,363.241 388.044,363.908 385.5,365C 379.044,371.946 372.377,378.613 365.5,385C 353.515,393.994 341.181,402.494 328.5,410.5C 322.496,415.19 316.829,420.357 311.5,426C 308.731,426.21 306.231,425.377 304,423.5C 300.541,427.395 296.208,429.061 291,428.5C 278.591,426.729 266.091,426.062 253.5,426.5C 255.167,425.833 256.833,425.167 258.5,424.5C 269.219,424.355 279.886,425.021 290.5,426.5C 292.833,426.333 295.167,426.167 297.5,426C 299.677,424.485 301.844,422.985 304,421.5C 305.481,423.148 307.315,424.148 309.5,424.5C 316.97,417.871 324.637,411.371 332.5,405C 351.886,394.279 368.886,380.612 383.5,364C 386.107,361.895 389.107,361.062 392.5,361.5C 391.737,356.055 393.404,351.721 397.5,348.5 Z"/></g>
<g><path style="opacity:0.996" fill="#7c6438" d="M 280.5,407.5 C 271.171,406.201 261.838,406.201 252.5,407.5C 256.783,406.173 261.449,405.507 266.5,405.5C 271.551,405.507 276.217,406.173 280.5,407.5 Z"/></g>
<g><path style="opacity:0.996" fill="#80673a" d="M 244.5,407.5 C 237.011,408.656 229.345,408.822 221.5,408C 216.536,406.232 211.536,405.732 206.5,406.5C 207.312,405.007 208.645,404.34 210.5,404.5C 221.693,407.027 233.027,408.027 244.5,407.5 Z"/></g>
<g><path style="opacity:0.541" fill="#878787" d="M 127.5,410.5 C 132.427,412.625 137.427,414.792 142.5,417C 143.381,417.708 144.047,418.542 144.5,419.5C 141.984,419.245 139.65,418.411 137.5,417C 133.931,415.058 130.598,412.892 127.5,410.5 Z"/></g>
<g><path style="opacity:0.71" fill="#585858" d="M 209.5,423.5 C 208.167,424.5 206.833,425.5 205.5,426.5C 204.833,426.5 204.167,426.5 203.5,426.5C 204.911,424.461 206.911,423.461 209.5,423.5 Z"/></g>
<g><path style="opacity:0.071" fill="#cdcdcd" d="M 209.5,423.5 C 211.898,423.259 213.898,423.926 215.5,425.5C 214.07,425.579 212.736,425.246 211.5,424.5C 209.677,425.747 207.677,426.414 205.5,426.5C 206.833,425.5 208.167,424.5 209.5,423.5 Z"/></g>
<g><path style="opacity:0.2" fill="#7e7e7e" d="M 258.5,424.5 C 256.833,425.167 255.167,425.833 253.5,426.5C 250.833,426.5 248.167,426.5 245.5,426.5C 243.5,426.5 241.5,426.5 239.5,426.5C 245.65,425.457 251.984,424.79 258.5,424.5 Z"/></g>
<g><path style="opacity:0.218" fill="#cbcbcb" d="M 215.5,425.5 C 223.483,426.166 231.483,426.499 239.5,426.5C 241.5,426.5 243.5,426.5 245.5,426.5C 235.462,428.834 225.462,428.5 215.5,425.5 Z"/></g>
<g><path style="opacity:0.284" fill="#a2a2a2" d="M 144.5,419.5 C 154.404,423.953 164.404,428.12 174.5,432C 179.167,432.667 183.833,432.667 188.5,432C 193.317,429.672 198.317,427.839 203.5,426.5C 204.167,426.5 204.833,426.5 205.5,426.5C 195.157,433.282 183.824,435.448 171.5,433C 162.054,429.146 153.054,424.646 144.5,419.5 Z"/></g>
</svg>
