<?xml version="1.0" encoding="UTF-8"?>
<!DOCTYPE svg PUBLIC "-//W3C//DTD SVG 1.1//EN" "http://www.w3.org/Graphics/SVG/1.1/DTD/svg11.dtd">
<svg xmlns="http://www.w3.org/2000/svg" version="1.1" width="460px" height="459px" style="shape-rendering:geometricPrecision; text-rendering:geometricPrecision; image-rendering:optimizeQuality; fill-rule:evenodd; clip-rule:evenodd" xmlns:xlink="http://www.w3.org/1999/xlink">
<g><path style="opacity:0.386" fill="#e2d3b6" d="M 290.5,51.5 C 281.703,49.8306 273.037,50.3306 264.5,53C 259.47,55.6098 254.47,58.1098 249.5,60.5C 247.97,60.3601 246.97,59.6935 246.5,58.5C 252.367,57.0413 258.034,54.8746 263.5,52C 267.276,51.4079 270.943,50.4079 274.5,49C 278.167,48.3333 281.833,48.3333 285.5,49C 287.491,49.3736 289.158,50.207 290.5,51.5 Z"/></g>
<g><path style="opacity:0.996" fill="#b59352" d="M 290.5,51.5 C 303.226,58.8607 316.56,65.194 330.5,70.5C 330.908,71.6431 331.575,72.6431 332.5,73.5C 335.523,75.0137 338.523,76.347 341.5,77.5C 345.859,82.5219 350.859,86.8552 356.5,90.5C 357.731,94.6304 358.731,98.7971 359.5,103C 364.845,105.636 370.511,106.802 376.5,106.5C 376.5,108.167 376.5,109.833 376.5,111.5C 378.95,111.298 381.283,111.631 383.5,112.5C 383.864,117.368 386.531,120.034 391.5,120.5C 391.833,120.5 392.167,120.5 392.5,120.5C 393.581,123.912 395.915,125.912 399.5,126.5C 402.399,129.742 405.399,133.075 408.5,136.5C 409.681,138.135 409.681,139.802 408.5,141.5C 410.193,143.027 412.027,144.36 414,145.5C 421.387,167.546 424.387,190.213 423,213.5C 423.119,217.005 424.286,220.005 426.5,222.5C 429.227,226.577 431.561,230.91 433.5,235.5C 434.752,240.509 434.752,245.509 433.5,250.5C 429.253,251.503 428.587,253.669 431.5,257C 430.852,258.44 430.519,259.94 430.5,261.5C 429.527,263.948 429.194,266.615 429.5,269.5C 429.5,273.833 429.5,278.167 429.5,282.5C 427.733,284.792 426.733,287.458 426.5,290.5C 424.364,293.403 422.198,296.403 420,299.5C 416.851,308.464 412.685,316.797 407.5,324.5C 405.059,331.185 402.059,337.518 398.5,343.5C 397.539,345.265 397.205,347.265 397.5,349.5C 395.585,349.216 393.919,349.549 392.5,350.5C 391.761,350.369 391.094,350.536 390.5,351C 383.939,358.473 376.939,365.473 369.5,372C 356.833,380.667 344.167,389.333 331.5,398C 325.865,402.633 320.532,407.633 315.5,413C 312.329,414.037 309.829,413.204 308,410.5C 305.716,413.06 302.883,414.727 299.5,415.5C 295.167,415.5 290.833,415.5 286.5,415.5C 284.048,414.935 281.715,414.268 279.5,413.5C 275.681,412.834 271.681,412.501 267.5,412.5C 263.107,412.509 259.107,413.176 255.5,414.5C 241.348,416.251 227.348,415.584 213.5,412.5C 205.423,415.65 197.423,418.65 189.5,421.5C 182.73,421.714 176.063,421.047 169.5,419.5C 166.127,417.826 162.793,416.159 159.5,414.5C 156.514,411.556 152.847,409.889 148.5,409.5C 136.652,403.895 125.319,397.062 114.5,389C 110.631,385.466 107.131,381.633 104,377.5C 104.038,373.6 102.871,370.267 100.5,367.5C 96.7265,364.839 92.3931,363.839 87.5,364.5C 87.1662,360.352 84.8328,358.685 80.5,359.5C 79.1769,357.529 77.8435,355.529 76.5,353.5C 67.7281,349.243 60.2281,343.243 54,335.5C 53.3486,333.765 53.5153,332.098 54.5,330.5C 50.7245,329.06 48.3912,326.393 47.5,322.5C 46.9396,320.199 46.4396,317.866 46,315.5C 45.6174,316.056 45.1174,316.389 44.5,316.5C 44.678,312.878 44.0114,309.544 42.5,306.5C 41.2717,293.197 40.605,279.864 40.5,266.5C 40.7709,261.566 40.1042,256.9 38.5,252.5C 37.3962,249.19 35.7295,246.19 33.5,243.5C 31.0068,238.831 29.3401,233.831 28.5,228.5C 28.6667,227.167 28.8333,225.833 29,224.5C 30.5149,222.323 32.0149,220.156 33.5,218C 32.9067,216.118 31.5733,215.118 29.5,215C 32.268,213.238 33.768,210.738 34,207.5C 34.3333,200.833 34.6667,194.167 35,187.5C 36.9357,185.192 37.769,182.525 37.5,179.5C 43.0757,172.349 47.0757,164.349 49.5,155.5C 51.5728,152.94 53.7395,150.274 56,147.5C 56.4955,145.527 56.6621,143.527 56.5,141.5C 59.4442,139.284 61.1109,136.284 61.5,132.5C 64.9175,130.187 66.2508,126.854 65.5,122.5C 68.5255,122.769 71.1922,121.936 73.5,120C 77.601,115.143 81.9343,110.476 86.5,106C 92.61,101.623 98.2767,96.7894 103.5,91.5C 119.678,82.8377 134.344,72.0044 147.5,59C 150.025,58.9593 152.358,59.7927 154.5,61.5C 156.451,59.3776 158.785,57.8776 161.5,57C 169.17,56.6794 176.837,56.8461 184.5,57.5C 191.543,57.7197 198.543,57.3864 205.5,56.5C 212.501,57.5665 219.668,57.5665 227,56.5C 233.529,56.9847 240.029,57.6514 246.5,58.5C 246.97,59.6935 247.97,60.3601 249.5,60.5C 254.47,58.1098 259.47,55.6098 264.5,53C 273.037,50.3306 281.703,49.8306 290.5,51.5 Z"/></g>
<g><path style="opacity:0.141" fill="#d7c39e" d="M 246.5,58.5 C 240.029,57.6514 233.529,56.9847 227,56.5C 219.668,57.5665 212.501,57.5665 205.5,56.5C 217.478,55.4417 229.478,55.2751 241.5,56C 243.491,56.3736 245.158,57.207 246.5,58.5 Z"/></g>
<g><path style="opacity:0.306" fill="#dfd1b1" d="M 290.5,51.5 C 294.998,52.4105 299.332,53.9105 303.5,56C 312.651,60.7553 321.651,65.5886 330.5,70.5C 316.56,65.194 303.226,58.8607 290.5,51.5 Z"/></g>
<g><path style="opacity:0.141" fill="#e2d2b4" d="M 184.5,57.5 C 176.837,56.8461 169.17,56.6794 161.5,57C 158.785,57.8776 156.451,59.3776 154.5,61.5C 152.358,59.7927 150.025,58.9593 147.5,59C 134.344,72.0044 119.678,82.8377 103.5,91.5C 119.315,81.0343 134.315,69.3677 148.5,56.5C 150.711,57.1228 152.711,58.1228 154.5,59.5C 157.687,56.0287 161.687,54.362 166.5,54.5C 172.736,54.926 178.736,55.926 184.5,57.5 Z"/></g>
<g><path style="opacity:0.482" fill="#dbcaa8" d="M 330.5,70.5 C 334.976,71.6571 338.642,73.9905 341.5,77.5C 338.523,76.347 335.523,75.0137 332.5,73.5C 331.575,72.6431 330.908,71.6431 330.5,70.5 Z"/></g>
<g><path style="opacity:0.047" fill="#e3d6bd" d="M 341.5,77.5 C 343.255,78.0722 344.922,78.9055 346.5,80C 349.613,82.9602 352.78,85.7935 356,88.5C 356.464,89.0944 356.631,89.7611 356.5,90.5C 350.859,86.8552 345.859,82.5219 341.5,77.5 Z"/></g>
<g><path style="opacity:0.155" fill="#e3d5bb" d="M 356.5,90.5 C 358.173,91.343 359.34,92.6763 360,94.5C 360.011,97.6592 360.845,100.493 362.5,103C 367.407,104.572 372.407,105.738 377.5,106.5C 378.098,107.795 378.598,109.128 379,110.5C 381.501,108.944 383.001,109.611 383.5,112.5C 381.283,111.631 378.95,111.298 376.5,111.5C 376.5,109.833 376.5,108.167 376.5,106.5C 370.511,106.802 364.845,105.636 359.5,103C 358.731,98.7971 357.731,94.6304 356.5,90.5 Z"/></g>
<g><path style="opacity:0.996" fill="#bf2d1c" d="M 304.5,126.5 C 302.163,128.965 300.663,131.965 300,135.5C 298.333,137.5 296.667,139.5 295,141.5C 292.545,146.074 290.378,150.741 288.5,155.5C 289.791,155.737 290.791,155.404 291.5,154.5C 305.206,150.985 318.706,146.985 332,142.5C 337.473,142.854 342.139,144.854 346,148.5C 346.64,150.265 346.473,151.932 345.5,153.5C 340.093,155.021 334.759,156.855 329.5,159C 322.509,160.565 315.509,162.065 308.5,163.5C 299.725,164.403 291.059,164.403 282.5,163.5C 276.233,173.767 268.233,182.434 258.5,189.5C 257.351,189.209 256.684,188.376 256.5,187C 258.278,183.945 259.945,180.779 261.5,177.5C 272.945,160.439 280.612,141.605 284.5,121C 282.859,117.655 282.359,114.155 283,110.5C 285.466,109.223 287.966,109.223 290.5,110.5C 295.816,112.823 300.816,115.656 305.5,119C 306.059,119.725 306.392,120.558 306.5,121.5C 305.813,123.177 305.146,124.844 304.5,126.5 Z"/></g>
<g><path style="opacity:0.886" fill="#dacaab" d="M 383.5,112.5 C 385.833,115.5 388.5,118.167 391.5,120.5C 386.531,120.034 383.864,117.368 383.5,112.5 Z"/></g>
<g><path style="opacity:0.369" fill="#e0d2b5" d="M 103.5,91.5 C 98.2767,96.7894 92.61,101.623 86.5,106C 81.9343,110.476 77.601,115.143 73.5,120C 71.1922,121.936 68.5255,122.769 65.5,122.5C 66.2508,126.854 64.9175,130.187 61.5,132.5C 63.1432,128.7 63.8099,124.7 63.5,120.5C 66.6492,120.789 69.6492,120.289 72.5,119C 81.3116,107.958 91.6449,98.7911 103.5,91.5 Z"/></g>
<g><path style="opacity:0.259" fill="#e5dac4" d="M 392.5,120.5 C 395.132,122.291 397.465,124.291 399.5,126.5C 395.915,125.912 393.581,123.912 392.5,120.5 Z"/></g>
<g><path style="opacity:0.996" fill="#c02b1b" d="M 238.5,150.5 C 237.781,152.091 236.781,153.591 235.5,155C 228.807,156.573 223.641,154.406 220,148.5C 216.144,142.768 212.31,137.101 208.5,131.5C 206.214,126.878 207.548,124.545 212.5,124.5C 220.845,125.954 228.345,129.287 235,134.5C 238.059,139.392 239.225,144.725 238.5,150.5 Z"/></g>
<g><path style="opacity:0.996" fill="#bf2b1b" d="M 175.5,162.5 C 172.445,166.758 168.445,167.592 163.5,165C 154.314,157.736 146.647,149.236 140.5,139.5C 138.35,135.273 139.517,132.939 144,132.5C 157.126,134.013 167.459,140.013 175,150.5C 175.499,154.486 175.666,158.486 175.5,162.5 Z"/></g>
<g><path style="opacity:0.996" fill="#503e37" d="M 304.5,126.5 C 305.598,127.601 305.765,128.934 305,130.5C 300.705,138.625 296.205,146.625 291.5,154.5C 290.791,155.404 289.791,155.737 288.5,155.5C 290.378,150.741 292.545,146.074 295,141.5C 296.667,139.5 298.333,137.5 300,135.5C 300.663,131.965 302.163,128.965 304.5,126.5 Z"/></g>
<g><path style="opacity:0.22" fill="#eadfcb" d="M 61.5,132.5 C 61.1109,136.284 59.4442,139.284 56.5,141.5C 57.9308,138.299 59.5975,135.299 61.5,132.5 Z"/></g>
<g><path style="opacity:0.302" fill="#ddcba9" d="M 56.5,141.5 C 56.6621,143.527 56.4955,145.527 56,147.5C 53.7395,150.274 51.5728,152.94 49.5,155.5C 51.3411,150.484 53.6744,145.818 56.5,141.5 Z"/></g>
<g><path style="opacity:0.996" fill="#493e39" d="M 208.5,131.5 C 212.31,137.101 216.144,142.768 220,148.5C 223.641,154.406 228.807,156.573 235.5,155C 236.781,153.591 237.781,152.091 238.5,150.5C 239.751,159.42 236.084,162.92 227.5,161C 219.498,153.662 212.998,145.162 208,135.5C 207.235,133.934 207.402,132.601 208.5,131.5 Z"/></g>
<g><path style="opacity:0.133" fill="#e4d6bb" d="M 399.5,126.5 C 403.757,129.251 407.59,132.584 411,136.5C 411.595,137.899 411.428,139.232 410.5,140.5C 411.865,141.941 413.365,143.274 415,144.5C 418.839,155.192 421.506,166.192 423,177.5C 423.212,192.62 424.379,207.62 426.5,222.5C 424.286,220.005 423.119,217.005 423,213.5C 424.387,190.213 421.387,167.546 414,145.5C 412.027,144.36 410.193,143.027 408.5,141.5C 409.681,139.802 409.681,138.135 408.5,136.5C 405.399,133.075 402.399,129.742 399.5,126.5 Z"/></g>
<g><path style="opacity:0.996" fill="#463c39" d="M 345.5,153.5 C 346.959,156.751 345.959,159.085 342.5,160.5C 336.914,161.674 331.58,163.34 326.5,165.5C 312.069,169.284 297.402,170.451 282.5,169C 277.381,176.617 271.714,183.784 265.5,190.5C 264.29,190.932 263.29,191.599 262.5,192.5C 261.18,193.942 259.514,194.608 257.5,194.5C 257.366,192.708 257.699,191.042 258.5,189.5C 268.233,182.434 276.233,173.767 282.5,163.5C 291.059,164.403 299.725,164.403 308.5,163.5C 315.509,162.065 322.509,160.565 329.5,159C 334.759,156.855 340.093,155.021 345.5,153.5 Z"/></g>
<g><path style="opacity:0.996" fill="#4a403a" d="M 140.5,139.5 C 146.647,149.236 154.314,157.736 163.5,165C 168.445,167.592 172.445,166.758 175.5,162.5C 176.172,171.84 172.172,174.674 163.5,171C 153.994,163.789 146.494,154.955 141,144.5C 140.506,142.866 140.34,141.199 140.5,139.5 Z"/></g>
<g><path style="opacity:0.996" fill="#786746" d="M 342.5,160.5 C 341.653,161.966 340.32,162.8 338.5,163C 334.506,163.945 330.506,164.778 326.5,165.5C 331.58,163.34 336.914,161.674 342.5,160.5 Z"/></g>
<g><path style="opacity:0.996" fill="#bf2c1c" d="M 260.5,172.5 C 250.211,177.209 239.544,181.042 228.5,184C 227.419,185.711 227.752,187.211 229.5,188.5C 230.469,189.309 231.302,190.309 232,191.5C 231.825,196.869 231.992,202.202 232.5,207.5C 239.597,209.047 246.264,211.714 252.5,215.5C 253.84,216.688 254.507,218.188 254.5,220C 253.923,222.137 253.59,224.304 253.5,226.5C 252.21,227.058 251.377,228.058 251,229.5C 249.957,232.757 249.457,236.09 249.5,239.5C 247.4,245.18 246.4,251.18 246.5,257.5C 246.5,258.167 246.5,258.833 246.5,259.5C 245.034,260.347 244.2,261.68 244,263.5C 242.478,272.252 240.645,280.919 238.5,289.5C 234.576,296.621 229.576,303.121 223.5,309C 219.77,309.979 216.936,308.813 215,305.5C 213.062,298.153 209.895,291.486 205.5,285.5C 203.919,283.858 203.253,281.858 203.5,279.5C 208.487,280.745 213.32,282.411 218,284.5C 221.401,284.302 223.734,282.635 225,279.5C 232.93,262.437 236.764,244.437 236.5,225.5C 236.327,218.829 232.993,215.329 226.5,215C 218.667,239.083 205.333,259.749 186.5,277C 183.594,279.619 180.261,281.453 176.5,282.5C 175.387,281.054 175.22,279.387 176,277.5C 194.259,256.313 207.259,232.313 215,205.5C 215.499,201.514 215.666,197.514 215.5,193.5C 216.461,191.735 216.795,189.735 216.5,187.5C 214.833,187.5 213.167,187.5 211.5,187.5C 202.178,188.35 192.845,188.517 183.5,188C 182.756,186.961 181.756,186.461 180.5,186.5C 180.137,184.089 181.137,182.589 183.5,182C 204.879,178.262 225.546,172.262 245.5,164C 250.768,162.932 255.768,163.599 260.5,166C 261.768,168.163 261.768,170.33 260.5,172.5 Z"/></g>
<g><path style="opacity:0.706" fill="#ddcdae" d="M 49.5,155.5 C 47.0757,164.349 43.0757,172.349 37.5,179.5C 40.9711,171.225 44.9711,163.225 49.5,155.5 Z"/></g>
<g><path style="opacity:0.996" fill="#443b39" d="M 260.5,172.5 C 261.301,174.042 261.634,175.708 261.5,177.5C 251.393,182.758 240.726,186.425 229.5,188.5C 227.752,187.211 227.419,185.711 228.5,184C 239.544,181.042 250.211,177.209 260.5,172.5 Z"/></g>
<g><path style="opacity:0.996" fill="#c02c1b" d="M 337.5,193.5 C 324.857,200.094 313.69,208.761 304,219.5C 303.26,220.749 303.427,221.749 304.5,222.5C 307.376,226.635 309.043,231.302 309.5,236.5C 314.872,235.991 320.205,235.158 325.5,234C 337.058,231.707 347.558,233.874 357,240.5C 357.495,242.473 357.662,244.473 357.5,246.5C 355.784,246.629 354.117,246.962 352.5,247.5C 338.829,247.333 325.163,247.5 311.5,248C 310.51,261.421 310.177,274.921 310.5,288.5C 309.982,297.543 307.149,305.877 302,313.5C 299.044,318.231 294.878,320.064 289.5,319C 284.767,309.767 278.1,302.267 269.5,296.5C 267.919,294.858 267.253,292.858 267.5,290.5C 272.84,292.208 278.34,293.208 284,293.5C 289.431,294.62 293.097,292.62 295,287.5C 297.146,276.949 297.979,266.282 297.5,255.5C 297.5,253.833 297.5,252.167 297.5,250.5C 290.071,250.858 282.737,251.858 275.5,253.5C 270.77,253.717 266.103,253.383 261.5,252.5C 259.5,251.833 257.5,251.167 255.5,250.5C 253.576,248.91 253.243,247.076 254.5,245C 259.066,243.691 263.733,243.191 268.5,243.5C 277.474,243.299 286.141,241.965 294.5,239.5C 294.833,239.5 295.167,239.5 295.5,239.5C 296.283,232.436 293.617,226.769 287.5,222.5C 286.067,220.442 285.4,218.108 285.5,215.5C 289.507,216.004 293.507,216.17 297.5,216C 302.299,209.559 306.965,203.059 311.5,196.5C 312.167,196.5 312.5,196.167 312.5,195.5C 313.451,194.081 313.784,192.415 313.5,190.5C 307.292,190.796 301.626,192.463 296.5,195.5C 291.703,197.068 287.036,198.901 282.5,201C 278.833,201.667 275.167,201.667 271.5,201C 269.607,198.978 267.273,197.812 264.5,197.5C 263.058,196.18 262.392,194.514 262.5,192.5C 263.29,191.599 264.29,190.932 265.5,190.5C 274.331,190.627 282.997,189.46 291.5,187C 302.103,183.564 312.603,180.064 323,176.5C 329.334,178.154 334.667,181.488 339,186.5C 339.815,189.198 339.315,191.532 337.5,193.5 Z"/></g>
<g><path style="opacity:0.996" fill="#a52d1f" d="M 180.5,186.5 C 181.756,186.461 182.756,186.961 183.5,188C 192.845,188.517 202.178,188.35 211.5,187.5C 209.189,189.068 206.522,189.902 203.5,190C 196.472,190.675 189.472,190.508 182.5,189.5C 181.833,188.5 181.167,187.5 180.5,186.5 Z"/></g>
<g><path style="opacity:0.996" fill="#463e3a" d="M 211.5,187.5 C 213.167,187.5 214.833,187.5 216.5,187.5C 216.795,189.735 216.461,191.735 215.5,193.5C 206.638,195.519 197.638,196.353 188.5,196C 184.522,196.344 181.855,194.677 180.5,191C 180.836,189.97 181.503,189.47 182.5,189.5C 189.472,190.508 196.472,190.675 203.5,190C 206.522,189.902 209.189,189.068 211.5,187.5 Z"/></g>
<g><path style="opacity:0.996" fill="#672f2b" d="M 312.5,195.5 C 312.5,194.167 312.5,192.833 312.5,191.5C 307.118,192.627 301.785,193.96 296.5,195.5C 301.626,192.463 307.292,190.796 313.5,190.5C 313.784,192.415 313.451,194.081 312.5,195.5 Z"/></g>
<g><path style="opacity:0.996" fill="#453d3a" d="M 312.5,195.5 C 312.5,196.167 312.167,196.5 311.5,196.5C 301.294,198.819 291.628,202.319 282.5,207C 274.133,209.136 267.467,206.802 262.5,200C 262.639,198.699 263.305,197.866 264.5,197.5C 267.273,197.812 269.607,198.978 271.5,201C 275.167,201.667 278.833,201.667 282.5,201C 287.036,198.901 291.703,197.068 296.5,195.5C 301.785,193.96 307.118,192.627 312.5,191.5C 312.5,192.833 312.5,194.167 312.5,195.5 Z"/></g>
<g><path style="opacity:0.996" fill="#483b38" d="M 337.5,193.5 C 340.017,195.077 340.017,196.91 337.5,199C 326.646,205.517 316.646,213.184 307.5,222C 306.552,222.483 305.552,222.649 304.5,222.5C 303.427,221.749 303.26,220.749 304,219.5C 313.69,208.761 324.857,200.094 337.5,193.5 Z"/></g>
<g><path style="opacity:0.996" fill="#bf2b1b" d="M 173.5,215.5 C 164.468,222.85 158.801,232.183 156.5,243.5C 155.359,246.64 155.192,249.973 156,253.5C 163.748,267.494 167.248,282.494 166.5,298.5C 180.559,302.478 194.559,306.645 208.5,311C 210.473,311.495 212.473,311.662 214.5,311.5C 217.418,313.693 220.752,314.693 224.5,314.5C 225.842,315.793 227.509,316.626 229.5,317C 249.118,321.583 268.784,325.083 288.5,327.5C 298.116,329.045 307.95,329.711 318,329.5C 325.341,329.5 332.508,329.166 339.5,328.5C 346.386,328.603 353.053,327.936 359.5,326.5C 362.976,325.357 366.642,325.19 370.5,326C 371.357,326.689 372.023,327.522 372.5,328.5C 371.133,329.84 369.8,331.173 368.5,332.5C 366.801,332.34 365.134,332.506 363.5,333C 347.529,339.714 331.196,345.547 314.5,350.5C 306.534,351.365 298.534,351.698 290.5,351.5C 282.614,349.04 274.614,346.873 266.5,345C 231.948,332.594 197.282,320.594 162.5,309C 156.167,308.333 149.833,308.333 143.5,309C 135.349,311.637 127.016,312.637 118.5,312C 115.351,310.338 112.351,308.505 109.5,306.5C 107.752,304.84 107.252,302.84 108,300.5C 110.816,299.338 113.65,298.171 116.5,297C 129.057,294.642 141.724,293.308 154.5,293C 155.097,291.938 155.43,290.772 155.5,289.5C 155.024,284.993 154.357,280.66 153.5,276.5C 151.252,268.67 147.918,261.337 143.5,254.5C 142.485,244.327 144.152,234.661 148.5,225.5C 150.002,223.137 149.668,220.97 147.5,219C 141.282,220.113 134.948,220.946 128.5,221.5C 124.266,221.662 120.266,220.995 116.5,219.5C 114.919,217.858 114.253,215.858 114.5,213.5C 128.419,212.21 140.752,207.043 151.5,198C 160.14,198.741 167.307,202.574 173,209.5C 173.495,211.473 173.662,213.473 173.5,215.5 Z"/></g>
<g><path style="opacity:0.996" fill="#4f3c37" d="M 173.5,215.5 C 173.799,217.604 173.466,219.604 172.5,221.5C 165.502,228.38 160.169,235.714 156.5,243.5C 158.801,232.183 164.468,222.85 173.5,215.5 Z"/></g>
<g><path style="opacity:0.996" fill="#473e3a" d="M 148.5,225.5 C 147.551,224.848 146.385,224.514 145,224.5C 141.456,225.125 137.956,225.959 134.5,227C 128.209,228.051 122.209,227.217 116.5,224.5C 115.617,223.452 114.95,222.285 114.5,221C 114.836,219.97 115.503,219.47 116.5,219.5C 120.266,220.995 124.266,221.662 128.5,221.5C 134.948,220.946 141.282,220.113 147.5,219C 149.668,220.97 150.002,223.137 148.5,225.5 Z"/></g>
<g><path style="opacity:0.125" fill="#ddcdaf" d="M 37.5,179.5 C 37.769,182.525 36.9357,185.192 35,187.5C 34.6667,194.167 34.3333,200.833 34,207.5C 33.768,210.738 32.268,213.238 29.5,215C 31.5733,215.118 32.9067,216.118 33.5,218C 32.0149,220.156 30.5149,222.323 29,224.5C 28.8333,225.833 28.6667,227.167 28.5,228.5C 29.3401,233.831 31.0068,238.831 33.5,243.5C 32.6618,243.842 32.3284,244.508 32.5,245.5C 32.1667,245.5 31.8333,245.5 31.5,245.5C 29.8749,239.912 28.5416,234.245 27.5,228.5C 26.7841,224.303 28.1175,220.97 31.5,218.5C 30.0186,217.52 28.6853,216.353 27.5,215C 28.6667,213.833 29.8333,212.667 31,211.5C 31.1778,203.449 31.8445,195.449 33,187.5C 34.2373,184.552 35.7373,181.885 37.5,179.5 Z"/></g>
<g><path style="opacity:0.996" fill="#503c36" d="M 287.5,222.5 C 293.617,226.769 296.283,232.436 295.5,239.5C 293.733,234.548 290.9,230.215 287,226.5C 286.421,225.072 286.588,223.738 287.5,222.5 Z"/></g>
<g><path style="opacity:0.996" fill="#6c4736" d="M 253.5,226.5 C 252.482,230.983 251.148,235.317 249.5,239.5C 249.457,236.09 249.957,232.757 251,229.5C 251.377,228.058 252.21,227.058 253.5,226.5 Z"/></g>
<g><path style="opacity:0.996" fill="#bb522f" d="M 294.5,239.5 C 286.141,241.965 277.474,243.299 268.5,243.5C 276.946,241.648 285.613,240.315 294.5,239.5 Z"/></g>
<g><path style="opacity:0.086" fill="#e5d9bf" d="M 433.5,235.5 C 435.033,237.634 435.7,240.134 435.5,243C 435.7,245.866 435.033,248.366 433.5,250.5C 434.752,245.509 434.752,240.509 433.5,235.5 Z"/></g>
<g><path style="opacity:0.995" fill="#141210" d="M 33.5,243.5 C 35.7295,246.19 37.3962,249.19 38.5,252.5C 38.3396,255.884 38.673,259.217 39.5,262.5C 39.2528,263.713 38.5862,264.38 37.5,264.5C 36.4484,261.395 35.1151,258.395 33.5,255.5C 32.513,252.232 32.1796,248.898 32.5,245.5C 32.3284,244.508 32.6618,243.842 33.5,243.5 Z"/></g>
<g><path style="opacity:0.996" fill="#403d3b" d="M 357.5,246.5 C 357.5,248.167 357.5,249.833 357.5,251.5C 355.897,251.312 354.563,251.812 353.5,253C 339.837,253.5 326.171,253.667 312.5,253.5C 311.199,252.116 311.199,250.616 312.5,249C 326.006,248.831 339.34,248.331 352.5,247.5C 354.117,246.962 355.784,246.629 357.5,246.5 Z"/></g>
<g><path style="opacity:0.996" fill="#463e3a" d="M 255.5,250.5 C 257.5,251.167 259.5,251.833 261.5,252.5C 263.166,254.828 265.499,255.828 268.5,255.5C 271.155,255.56 273.489,254.893 275.5,253.5C 282.737,251.858 290.071,250.858 297.5,250.5C 297.5,252.167 297.5,253.833 297.5,255.5C 290.224,255.753 283.224,257.253 276.5,260C 267.945,262.036 260.445,260.202 254,254.5C 253.516,252.807 254.016,251.473 255.5,250.5 Z"/></g>
<g><path style="opacity:0.996" fill="#7b4231" d="M 249.5,239.5 C 248.979,245.709 247.979,251.709 246.5,257.5C 246.4,251.18 247.4,245.18 249.5,239.5 Z"/></g>
<g><path style="opacity:0.255" fill="#ddceb2" d="M 433.5,250.5 C 430.784,252.964 431.118,255.13 434.5,257C 432.859,258.129 431.859,259.629 431.5,261.5C 431.167,261.5 430.833,261.5 430.5,261.5C 430.519,259.94 430.852,258.44 431.5,257C 428.587,253.669 429.253,251.503 433.5,250.5 Z"/></g>
<g><path style="opacity:0.996" fill="#8c2921" d="M 261.5,252.5 C 266.103,253.383 270.77,253.717 275.5,253.5C 273.489,254.893 271.155,255.56 268.5,255.5C 265.499,255.828 263.166,254.828 261.5,252.5 Z"/></g>
<g><path style="opacity:0.008" fill="#999999" d="M 31.5,245.5 C 31.8333,245.5 32.1667,245.5 32.5,245.5C 32.1796,248.898 32.513,252.232 33.5,255.5C 35.1151,258.395 36.4484,261.395 37.5,264.5C 37.5,264.833 37.5,265.167 37.5,265.5C 32.0709,259.769 30.0709,253.102 31.5,245.5 Z"/></g>
<g><path style="opacity:0.996" fill="#9b3425" d="M 352.5,247.5 C 339.34,248.331 326.006,248.831 312.5,249C 311.199,250.616 311.199,252.116 312.5,253.5C 312.855,265.378 312.188,277.045 310.5,288.5C 310.177,274.921 310.51,261.421 311.5,248C 325.163,247.5 338.829,247.333 352.5,247.5 Z"/></g>
<g><path style="opacity:0.996" fill="#4b3e39" d="M 236.5,225.5 C 233.569,223.909 230.902,221.909 228.5,219.5C 227.522,219.977 226.689,220.643 226,221.5C 217.611,248.134 202.444,269.968 180.5,287C 178.975,288.009 177.308,288.509 175.5,288.5C 175.517,286.435 175.85,284.435 176.5,282.5C 180.261,281.453 183.594,279.619 186.5,277C 205.333,259.749 218.667,239.083 226.5,215C 232.993,215.329 236.327,218.829 236.5,225.5 Z"/></g>
<g><path style="opacity:0.251" fill="#6c675e" d="M 430.5,261.5 C 430.833,261.5 431.167,261.5 431.5,261.5C 431.5,263.833 431.5,266.167 431.5,268.5C 430.833,268.833 430.167,269.167 429.5,269.5C 429.194,266.615 429.527,263.948 430.5,261.5 Z"/></g>
<g><path style="opacity:0.992" fill="#645233" d="M 38.5,252.5 C 40.1042,256.9 40.7709,261.566 40.5,266.5C 39.609,265.89 38.609,265.557 37.5,265.5C 37.5,265.167 37.5,264.833 37.5,264.5C 38.5862,264.38 39.2528,263.713 39.5,262.5C 38.673,259.217 38.3396,255.884 38.5,252.5 Z"/></g>
<g><path style="opacity:0.996" fill="#574238" d="M 143.5,254.5 C 147.918,261.337 151.252,268.67 153.5,276.5C 153.657,277.873 153.49,279.207 153,280.5C 151.214,277.042 149.881,273.376 149,269.5C 145.505,265.235 143.671,260.235 143.5,254.5 Z"/></g>
<g><path style="opacity:0.42" fill="#d9c7a4" d="M 37.5,265.5 C 38.609,265.557 39.609,265.89 40.5,266.5C 40.605,279.864 41.2717,293.197 42.5,306.5C 41.4928,303.678 40.6595,300.678 40,297.5C 39.9417,286.738 39.1084,276.072 37.5,265.5 Z"/></g>
<g><path style="opacity:0.227" fill="#e4dcc5" d="M 431.5,268.5 C 431.665,272.182 431.499,275.848 431,279.5C 430.768,280.737 430.268,281.737 429.5,282.5C 429.5,278.167 429.5,273.833 429.5,269.5C 430.167,269.167 430.833,268.833 431.5,268.5 Z"/></g>
<g><path style="opacity:0.996" fill="#714f3a" d="M 246.5,259.5 C 245.983,265.197 245.15,270.864 244,276.5C 241.669,282.847 239.502,289.18 237.5,295.5C 237.517,293.435 237.85,291.435 238.5,289.5C 240.645,280.919 242.478,272.252 244,263.5C 244.2,261.68 245.034,260.347 246.5,259.5 Z"/></g>
<g><path style="opacity:0.997" fill="#080705" d="M 426.5,290.5 C 426.273,296.968 425.273,303.301 423.5,309.5C 421.896,310.287 421.229,311.62 421.5,313.5C 420.624,313.369 419.957,313.702 419.5,314.5C 417.536,318.754 415.869,323.088 414.5,327.5C 412.052,329.682 410.052,332.348 408.5,335.5C 404.309,344.049 399.975,352.549 395.5,361C 394.678,363.434 394.344,365.934 394.5,368.5C 392.473,368.338 390.473,368.505 388.5,369C 387.748,369.671 387.414,370.504 387.5,371.5C 386.417,371.539 385.417,371.873 384.5,372.5C 379.286,379.425 373.286,385.592 366.5,391C 353.796,399.679 341.13,408.346 328.5,417C 323.224,422.2 317.724,427.034 312,431.5C 309.825,431.166 307.992,430.166 306.5,428.5C 303.083,432.309 298.75,433.976 293.5,433.5C 274.019,431.294 254.519,431.294 235,433.5C 229.511,432.934 224.011,432.601 218.5,432.5C 217.088,431.467 215.422,430.801 213.5,430.5C 208.241,432.131 203.241,434.297 198.5,437C 187.81,440.795 177.477,440.295 167.5,435.5C 159.614,430.869 151.281,427.203 142.5,424.5C 138.102,420.788 133.102,417.788 127.5,415.5C 125.853,413.674 123.853,412.34 121.5,411.5C 120.349,408.842 118.349,407.175 115.5,406.5C 113.992,403.639 111.826,401.306 109,399.5C 107.411,395.969 106.245,392.302 105.5,388.5C 100.816,384.952 95.4827,383.619 89.5,384.5C 89.5,382.5 89.5,380.5 89.5,378.5C 87.9397,378.519 86.4397,378.852 85,379.5C 82.522,375.689 79.3554,372.522 75.5,370C 74.2506,369.26 73.2506,369.427 72.5,370.5C 71.6618,370.158 71.3284,369.492 71.5,368.5C 66.8954,364.398 62.3954,360.064 58,355.5C 57.6664,353.153 57.833,350.819 58.5,348.5C 57.1266,348.657 55.7932,348.49 54.5,348C 53.1666,345.809 51.5,343.976 49.5,342.5C 49.3239,339.273 48.6572,336.273 47.5,333.5C 47.4921,330.455 47.1587,327.455 46.5,324.5C 46.3284,323.508 46.6618,322.842 47.5,322.5C 48.3912,326.393 50.7245,329.06 54.5,330.5C 53.5153,332.098 53.3486,333.765 54,335.5C 60.2281,343.243 67.7281,349.243 76.5,353.5C 77.8435,355.529 79.1769,357.529 80.5,359.5C 81.1787,361.814 82.512,362.147 84.5,360.5C 85.2436,361.991 85.9103,363.491 86.5,365C 91.3707,365.22 96.0374,366.054 100.5,367.5C 102.871,370.267 104.038,373.6 104,377.5C 107.131,381.633 110.631,385.466 114.5,389C 125.319,397.062 136.652,403.895 148.5,409.5C 151.925,411.565 155.592,413.231 159.5,414.5C 162.793,416.159 166.127,417.826 169.5,419.5C 175.965,422.458 182.632,423.125 189.5,421.5C 197.423,418.65 205.423,415.65 213.5,412.5C 227.348,415.584 241.348,416.251 255.5,414.5C 263.483,413.834 271.483,413.501 279.5,413.5C 281.715,414.268 284.048,414.935 286.5,415.5C 289.263,416.655 292.263,417.322 295.5,417.5C 297.333,417.415 298.666,416.748 299.5,415.5C 302.883,414.727 305.716,413.06 308,410.5C 309.829,413.204 312.329,414.037 315.5,413C 320.532,407.633 325.865,402.633 331.5,398C 344.167,389.333 356.833,380.667 369.5,372C 376.939,365.473 383.939,358.473 390.5,351C 391.094,350.536 391.761,350.369 392.5,350.5C 394.5,350.5 396.5,350.5 398.5,350.5C 398.5,348.167 398.5,345.833 398.5,343.5C 402.059,337.518 405.059,331.185 407.5,324.5C 412.685,316.797 416.851,308.464 420,299.5C 422.198,296.403 424.364,293.403 426.5,290.5 Z"/></g>
<g><path style="opacity:0.412" fill="#aaa9a7" d="M 429.5,282.5 C 427.982,288.713 427.149,295.046 427,301.5C 426.613,304.599 425.446,307.266 423.5,309.5C 425.273,303.301 426.273,296.968 426.5,290.5C 426.733,287.458 427.733,284.792 429.5,282.5 Z"/></g>
<g><path style="opacity:0.996" fill="#4b3c38" d="M 205.5,285.5 C 209.895,291.486 213.062,298.153 215,305.5C 216.936,308.813 219.77,309.979 223.5,309C 229.576,303.121 234.576,296.621 238.5,289.5C 237.85,291.435 237.517,293.435 237.5,295.5C 233.933,302.283 229.599,308.616 224.5,314.5C 220.752,314.693 217.418,313.693 214.5,311.5C 213.415,302.996 209.915,295.663 204,289.5C 203.156,287.537 203.656,286.204 205.5,285.5 Z"/></g>
<g><path style="opacity:0.996" fill="#463d3a" d="M 109.5,306.5 C 112.351,308.505 115.351,310.338 118.5,312C 127.016,312.637 135.349,311.637 143.5,309C 149.833,308.333 156.167,308.333 162.5,309C 197.282,320.594 231.948,332.594 266.5,345C 274.614,346.873 282.614,349.04 290.5,351.5C 297.321,352.655 304.321,352.821 311.5,352C 312.737,351.768 313.737,351.268 314.5,350.5C 331.196,345.547 347.529,339.714 363.5,333C 365.134,332.506 366.801,332.34 368.5,332.5C 369.5,332.5 370.5,332.5 371.5,332.5C 371.5,333.833 371.5,335.167 371.5,336.5C 355.887,343.206 339.887,349.04 323.5,354C 318.706,354.725 314.04,355.891 309.5,357.5C 304.533,358.662 299.533,358.829 294.5,358C 274.017,353.422 254.184,346.922 235,338.5C 229.188,336.922 223.355,335.422 217.5,334C 199.336,326.962 181.003,320.296 162.5,314C 156.167,313.333 149.833,313.333 143.5,314C 135.675,317.761 127.342,319.094 118.5,318C 114.759,316.262 111.592,313.762 109,310.5C 108.235,308.934 108.402,307.601 109.5,306.5 Z"/></g>
<g><path style="opacity:0.141" fill="#858585" d="M 423.5,309.5 C 423.771,311.38 423.104,312.713 421.5,313.5C 421.229,311.62 421.896,310.287 423.5,309.5 Z"/></g>
<g><path style="opacity:0.212" fill="#d0c7ba" d="M 42.5,306.5 C 44.0114,309.544 44.678,312.878 44.5,316.5C 44.5,317.833 44.5,319.167 44.5,320.5C 43.3563,316.036 42.6896,311.37 42.5,306.5 Z"/></g>
<g><path style="opacity:0.996" fill="#4c3e39" d="M 310.5,288.5 C 311.69,302.445 307.356,314.278 297.5,324C 294.104,326.036 290.938,325.869 288,323.5C 283.168,314.328 276.501,306.661 268,300.5C 267.156,298.537 267.656,297.204 269.5,296.5C 278.1,302.267 284.767,309.767 289.5,319C 294.878,320.064 299.044,318.231 302,313.5C 307.149,305.877 309.982,297.543 310.5,288.5 Z"/></g>
<g><path style="opacity:0.486" fill="#7f725e" d="M 47.5,322.5 C 46.6618,322.842 46.3284,323.508 46.5,324.5C 45.8333,323.167 45.1667,321.833 44.5,320.5C 44.5,319.167 44.5,317.833 44.5,316.5C 45.1174,316.389 45.6174,316.056 46,315.5C 46.4396,317.866 46.9396,320.199 47.5,322.5 Z"/></g>
<g><path style="opacity:0.051" fill="#adadad" d="M 421.5,313.5 C 420.002,318.642 417.668,323.309 414.5,327.5C 415.869,323.088 417.536,318.754 419.5,314.5C 419.957,313.702 420.624,313.369 421.5,313.5 Z"/></g>
<g><path style="opacity:0.045" fill="#c2c2c2" d="M 44.5,320.5 C 45.1667,321.833 45.8333,323.167 46.5,324.5C 47.1587,327.455 47.4921,330.455 47.5,333.5C 45.1243,329.607 44.1243,325.273 44.5,320.5 Z"/></g>
<g><path style="opacity:0.996" fill="#b96138" d="M 359.5,326.5 C 353.053,327.936 346.386,328.603 339.5,328.5C 345.928,326.874 352.595,326.207 359.5,326.5 Z"/></g>
<g><path style="opacity:0.996" fill="#b96339" d="M 288.5,327.5 C 305.486,328.337 322.486,328.67 339.5,328.5C 332.508,329.166 325.341,329.5 318,329.5C 307.95,329.711 298.116,329.045 288.5,327.5 Z"/></g>
<g><path style="opacity:0.086" fill="#a6a6a6" d="M 47.5,333.5 C 48.6572,336.273 49.3239,339.273 49.5,342.5C 47.8819,339.829 47.2153,336.829 47.5,333.5 Z"/></g>
<g><path style="opacity:0.035" fill="#949494" d="M 414.5,327.5 C 409.22,339.392 403.387,351.059 397,362.5C 396.503,365.146 396.336,367.813 396.5,370.5C 393.391,370.264 390.391,370.597 387.5,371.5C 387.414,370.504 387.748,369.671 388.5,369C 390.473,368.505 392.473,368.338 394.5,368.5C 394.344,365.934 394.678,363.434 395.5,361C 399.975,352.549 404.309,344.049 408.5,335.5C 410.052,332.348 412.052,329.682 414.5,327.5 Z"/></g>
<g><path style="opacity:0.996" fill="#584728" d="M 398.5,343.5 C 398.5,345.833 398.5,348.167 398.5,350.5C 396.5,350.5 394.5,350.5 392.5,350.5C 393.919,349.549 395.585,349.216 397.5,349.5C 397.205,347.265 397.539,345.265 398.5,343.5 Z"/></g>
<g><path style="opacity:0.996" fill="#8b2a22" d="M 314.5,350.5 C 313.737,351.268 312.737,351.768 311.5,352C 304.321,352.821 297.321,352.655 290.5,351.5C 298.534,351.698 306.534,351.365 314.5,350.5 Z"/></g>
<g><path style="opacity:0.039" fill="#929292" d="M 49.5,342.5 C 51.5,343.976 53.1666,345.809 54.5,348C 55.7932,348.49 57.1266,348.657 58.5,348.5C 57.833,350.819 57.6664,353.153 58,355.5C 62.3954,360.064 66.8954,364.398 71.5,368.5C 64.5963,364.711 58.9296,359.544 54.5,353C 55.0219,352.439 55.3552,351.772 55.5,351C 52.4627,348.812 50.4627,345.979 49.5,342.5 Z"/></g>
<g><path style="opacity:0.996" fill="#856b3c" d="M 80.5,359.5 C 84.8328,358.685 87.1662,360.352 87.5,364.5C 92.3931,363.839 96.7265,364.839 100.5,367.5C 96.0374,366.054 91.3707,365.22 86.5,365C 85.9103,363.491 85.2436,361.991 84.5,360.5C 82.512,362.147 81.1787,361.814 80.5,359.5 Z"/></g>
<g><path style="opacity:0.041" fill="#c5c5c5" d="M 83.5,380.5 C 85.1667,380.5 86.8333,380.5 88.5,380.5C 88.5,381.833 88.5,383.167 88.5,384.5C 87.596,383.791 87.2627,382.791 87.5,381.5C 85.901,381.768 84.5676,381.434 83.5,380.5 Z"/></g>
<g><path style="opacity:0.506" fill="#888888" d="M 72.5,370.5 C 73.2506,369.427 74.2506,369.26 75.5,370C 79.3554,372.522 82.522,375.689 85,379.5C 86.4397,378.852 87.9397,378.519 89.5,378.5C 89.5,380.5 89.5,382.5 89.5,384.5C 95.4827,383.619 100.816,384.952 105.5,388.5C 106.245,392.302 107.411,395.969 109,399.5C 111.826,401.306 113.992,403.639 115.5,406.5C 112.269,404.78 109.436,402.447 107,399.5C 105.621,395.542 104.121,391.709 102.5,388C 97.6831,386.929 93.0164,385.763 88.5,384.5C 88.5,383.167 88.5,381.833 88.5,380.5C 86.8333,380.5 85.1667,380.5 83.5,380.5C 81.2486,378.854 79.582,376.687 78.5,374C 76.5952,372.579 74.5952,371.412 72.5,370.5 Z"/></g>
<g><path style="opacity:0.804" fill="#878787" d="M 115.5,406.5 C 118.349,407.175 120.349,408.842 121.5,411.5C 118.865,410.527 116.865,408.86 115.5,406.5 Z"/></g>
<g><path style="opacity:0.996" fill="#6c5730" d="M 148.5,409.5 C 152.847,409.889 156.514,411.556 159.5,414.5C 155.592,413.231 151.925,411.565 148.5,409.5 Z"/></g>
<g><path style="opacity:0.996" fill="#836a3b" d="M 279.5,413.5 C 271.483,413.501 263.483,413.834 255.5,414.5C 259.107,413.176 263.107,412.509 267.5,412.5C 271.681,412.501 275.681,412.834 279.5,413.5 Z"/></g>
<g><path style="opacity:0.039" fill="#aeaeae" d="M 121.5,411.5 C 123.853,412.34 125.853,413.674 127.5,415.5C 124.802,415.155 122.802,413.822 121.5,411.5 Z"/></g>
<g><path style="opacity:0.996" fill="#40341d" d="M 286.5,415.5 C 290.833,415.5 295.167,415.5 299.5,415.5C 298.666,416.748 297.333,417.415 295.5,417.5C 292.263,417.322 289.263,416.655 286.5,415.5 Z"/></g>
<g><path style="opacity:0.082" fill="#999999" d="M 127.5,415.5 C 133.102,417.788 138.102,420.788 142.5,424.5C 138.078,422.594 133.744,420.428 129.5,418C 128.619,417.292 127.953,416.458 127.5,415.5 Z"/></g>
<g><path style="opacity:0.996" fill="#3e321c" d="M 169.5,419.5 C 176.063,421.047 182.73,421.714 189.5,421.5C 182.632,423.125 175.965,422.458 169.5,419.5 Z"/></g>
<g><path style="opacity:0.125" fill="#949494" d="M 142.5,424.5 C 151.281,427.203 159.614,430.869 167.5,435.5C 166.833,435.5 166.167,435.5 165.5,435.5C 157.29,432.774 149.623,429.108 142.5,424.5 Z"/></g>
<g><path style="opacity:0.439" fill="#999999" d="M 387.5,371.5 C 382.486,378.024 376.82,384.191 370.5,390C 358.849,398.826 346.849,407.16 334.5,415C 327.02,420.979 319.687,427.145 312.5,433.5C 310.386,432.966 308.552,431.966 307,430.5C 303.877,433.435 300.211,435.435 296,436.5C 287.235,434.806 278.402,433.473 269.5,432.5C 253.213,434.399 236.88,434.899 220.5,434C 219.584,433.722 218.918,433.222 218.5,432.5C 224.011,432.601 229.511,432.934 235,433.5C 254.519,431.294 274.019,431.294 293.5,433.5C 298.75,433.976 303.083,432.309 306.5,428.5C 307.992,430.166 309.825,431.166 312,431.5C 317.724,427.034 323.224,422.2 328.5,417C 341.13,408.346 353.796,399.679 366.5,391C 373.286,385.592 379.286,379.425 384.5,372.5C 385.417,371.873 386.417,371.539 387.5,371.5 Z"/></g>
<g><path style="opacity:0.078" fill="#afaeae" d="M 218.5,432.5 C 216.738,432.643 215.071,432.309 213.5,431.5C 200.523,440.081 186.523,442.581 171.5,439C 169.121,438.284 167.121,437.117 165.5,435.5C 166.167,435.5 166.833,435.5 167.5,435.5C 177.477,440.295 187.81,440.795 198.5,437C 203.241,434.297 208.241,432.131 213.5,430.5C 215.422,430.801 217.088,431.467 218.5,432.5 Z"/></g>
</svg>
