<?xml version="1.0" encoding="UTF-8"?>
<!DOCTYPE svg PUBLIC "-//W3C//DTD SVG 1.1//EN" "http://www.w3.org/Graphics/SVG/1.1/DTD/svg11.dtd">
<svg xmlns="http://www.w3.org/2000/svg" version="1.1" width="460px" height="460px" style="shape-rendering:geometricPrecision; text-rendering:geometricPrecision; image-rendering:optimizeQuality; fill-rule:evenodd; clip-rule:evenodd" xmlns:xlink="http://www.w3.org/1999/xlink">
<g><path style="opacity:0.361" fill="#e6d7bd" d="M 293.5,56.5 C 282.328,53.4035 271.328,53.9035 260.5,58C 255.77,62.0823 250.437,63.5823 244.5,62.5C 244.5,62.1667 244.5,61.8333 244.5,61.5C 245.695,61.6775 246.862,62.0109 248,62.5C 257.746,56.9358 268.246,53.6024 279.5,52.5C 284.448,53.2334 289.115,54.5668 293.5,56.5 Z"/></g>
<g><path style="opacity:0.996" fill="#b59352" d="M 293.5,56.5 C 294.492,56.3284 295.158,56.6618 295.5,57.5C 306.443,63.9064 317.776,69.7397 329.5,75C 333.623,77.7704 337.789,80.6037 342,83.5C 342.399,83.2716 342.565,82.9382 342.5,82.5C 343.167,82.5 343.5,82.8333 343.5,83.5C 346.175,88.5044 350.175,92.1711 355.5,94.5C 356.731,98.6304 357.731,102.797 358.5,107C 363.784,109.661 369.45,110.828 375.5,110.5C 375.5,112.167 375.5,113.833 375.5,115.5C 377.144,115.714 378.644,115.38 380,114.5C 381.049,116.618 382.549,118.284 384.5,119.5C 384.281,120.675 384.614,121.675 385.5,122.5C 393.537,126.853 400.87,132.186 407.5,138.5C 407.511,140.017 408.177,141.184 409.5,142C 408.687,143.314 407.687,144.481 406.5,145.5C 408.73,146.783 411.063,147.783 413.5,148.5C 417.183,159.642 419.849,170.975 421.5,182.5C 421.818,195.504 422.318,208.504 423,221.5C 423.67,224.174 424.837,226.507 426.5,228.5C 427.674,229.514 428.34,230.847 428.5,232.5C 429.167,235.5 429.833,238.5 430.5,241.5C 431.5,241.5 432.5,241.5 433.5,241.5C 434.684,247.816 433.017,253.149 428.5,257.5C 430.756,258.421 431.756,260.088 431.5,262.5C 430.596,263.209 430.263,264.209 430.5,265.5C 428.656,267.279 427.99,269.612 428.5,272.5C 428.95,278.334 428.283,284.001 426.5,289.5C 426.543,290.416 426.876,291.083 427.5,291.5C 426.879,296.602 426.213,301.602 425.5,306.5C 425.824,302.445 425.491,298.445 424.5,294.5C 423.702,294.957 423.369,295.624 423.5,296.5C 415.065,312.699 406.565,329.032 398,345.5C 397.503,348.146 397.336,350.813 397.5,353.5C 393.781,353.002 390.447,353.836 387.5,356C 374.877,371.296 359.877,383.629 342.5,393C 335.978,398.031 329.644,403.197 323.5,408.5C 320.101,410.388 317.101,412.888 314.5,416C 313.207,416.49 311.873,416.657 310.5,416.5C 309.469,415.645 308.303,414.978 307,414.5C 301.68,418.819 295.514,420.485 288.5,419.5C 286.438,418.224 284.104,417.39 281.5,417C 266.291,416.252 251.125,416.752 236,418.5C 228.034,418.442 220.201,417.442 212.5,415.5C 211.274,415.52 210.274,415.853 209.5,416.5C 202.756,419.807 195.756,422.641 188.5,425C 181.123,426.146 174.123,425.313 167.5,422.5C 164.711,419.117 161.045,417.45 156.5,417.5C 141.748,411.293 128.081,403.293 115.5,393.5C 113.431,390.427 110.764,388.094 107.5,386.5C 103.431,382.84 101.431,378.174 101.5,372.5C 96.2275,370.376 90.8942,369.043 85.5,368.5C 85.5,366.5 85.5,364.5 85.5,362.5C 83.8212,362.285 82.8212,362.952 82.5,364.5C 81.325,364.719 80.325,364.386 79.5,363.5C 78.1966,361.063 76.5299,358.896 74.5,357C 66.9349,353.044 60.2682,347.877 54.5,341.5C 53.3702,339.685 52.7036,337.685 52.5,335.5C 51.0092,333.718 49.3425,332.052 47.5,330.5C 46.8897,328.566 45.8897,326.899 44.5,325.5C 43.8333,321.833 43.1667,318.167 42.5,314.5C 41.9777,307.628 40.9777,300.962 39.5,294.5C 38.8955,286.702 38.2288,279.036 37.5,271.5C 37.5,270.833 37.5,270.167 37.5,269.5C 38.8333,266.833 38.8333,264.167 37.5,261.5C 37.4266,256.873 36.2599,252.54 34,248.5C 33.3292,247.748 32.4959,247.414 31.5,247.5C 32.2231,245.836 31.8897,244.169 30.5,242.5C 26.1675,235.36 26.5009,228.527 31.5,222C 30.7282,220.779 29.7282,219.779 28.5,219C 30.5615,216.932 31.7282,214.432 32,211.5C 32.3333,204.833 32.6667,198.167 33,191.5C 35.3333,186.833 37.6667,182.167 40,177.5C 40.7401,176.251 40.5735,175.251 39.5,174.5C 39.5,173.833 39.8333,173.5 40.5,173.5C 44.4303,170.874 46.4303,167.207 46.5,162.5C 47.4584,162.047 48.2917,161.381 49,160.5C 53.6874,151.125 58.3541,141.792 63,132.5C 63.4966,130.19 63.6633,127.857 63.5,125.5C 66.3198,125.752 68.9865,125.252 71.5,124C 81.4362,113.225 92.1029,103.391 103.5,94.5C 107.892,93.6407 111.225,91.3073 113.5,87.5C 116.198,87.1551 118.198,85.8218 119.5,83.5C 124.061,82.0538 127.728,79.3871 130.5,75.5C 136.439,71.5653 142.106,67.232 147.5,62.5C 149.774,62.9702 151.774,63.9702 153.5,65.5C 155.316,64.1851 156.983,62.6851 158.5,61C 161,60.8333 163.5,60.6667 166,60.5C 178.108,62.1062 190.275,62.7729 202.5,62.5C 216.517,60.0871 230.517,60.0871 244.5,62.5C 250.437,63.5823 255.77,62.0823 260.5,58C 271.328,53.9035 282.328,53.4035 293.5,56.5 Z"/></g>
<g><path style="opacity:0.255" fill="#d6c39d" d="M 244.5,61.5 C 244.5,61.8333 244.5,62.1667 244.5,62.5C 230.517,60.0871 216.517,60.0871 202.5,62.5C 202.5,61.8333 202.5,61.1667 202.5,60.5C 209.819,59.9893 217.152,59.656 224.5,59.5C 231.304,59.2792 237.971,59.9458 244.5,61.5 Z"/></g>
<g><path style="opacity:0.235" fill="#e3d4bb" d="M 202.5,60.5 C 202.5,61.1667 202.5,61.8333 202.5,62.5C 190.275,62.7729 178.108,62.1062 166,60.5C 163.5,60.6667 161,60.8333 158.5,61C 156.983,62.6851 155.316,64.1851 153.5,65.5C 151.774,63.9702 149.774,62.9702 147.5,62.5C 142.106,67.232 136.439,71.5653 130.5,75.5C 135.805,70.3658 141.305,65.3658 147,60.5C 149.343,61.1268 151.51,62.1268 153.5,63.5C 156.687,60.0287 160.687,58.362 165.5,58.5C 174.495,59.6331 183.495,60.6331 192.5,61.5C 195.917,61.4607 199.25,61.1274 202.5,60.5 Z"/></g>
<g><path style="opacity:0.286" fill="#dfd1b5" d="M 295.5,57.5 C 312.222,64.0252 327.888,72.3585 342.5,82.5C 342.565,82.9382 342.399,83.2716 342,83.5C 337.789,80.6037 333.623,77.7704 329.5,75C 317.776,69.7397 306.443,63.9064 295.5,57.5 Z"/></g>
<g><path style="opacity:0.271" fill="#e4d9be" d="M 130.5,75.5 C 127.728,79.3871 124.061,82.0538 119.5,83.5C 122.627,80.1021 126.293,77.4354 130.5,75.5 Z"/></g>
<g><path style="opacity:0.192" fill="#e4ddc9" d="M 119.5,83.5 C 118.198,85.8218 116.198,87.1551 113.5,87.5C 115.147,85.6736 117.147,84.3403 119.5,83.5 Z"/></g>
<g><path style="opacity:0.49" fill="#e3d4b5" d="M 113.5,87.5 C 111.225,91.3073 107.892,93.6407 103.5,94.5C 106.475,91.6771 109.808,89.3437 113.5,87.5 Z"/></g>
<g><path style="opacity:0.09" fill="#e2d3b6" d="M 343.5,83.5 C 348.804,85.8065 352.804,89.4731 355.5,94.5C 350.175,92.1711 346.175,88.5044 343.5,83.5 Z"/></g>
<g><path style="opacity:0.996" fill="#bf2c1b" d="M 224.5,121.5 C 220.881,124.452 217.548,127.785 214.5,131.5C 216.46,132.519 218.46,132.519 220.5,131.5C 227.642,131.199 234.642,130.032 241.5,128C 248.953,122.2 256.953,121.2 265.5,125C 268.975,127.24 272.642,129.24 276.5,131C 279.446,132.953 280.113,135.453 278.5,138.5C 260.741,143.88 245.741,153.546 233.5,167.5C 235.516,168.694 237.516,168.694 239.5,167.5C 245.191,167.02 250.858,166.354 256.5,165.5C 261.777,165.225 266.777,164.225 271.5,162.5C 271.918,161.778 272.584,161.278 273.5,161C 276.167,160.333 278.833,160.333 281.5,161C 291.217,164.27 299.717,169.437 307,176.5C 309.429,178.87 309.929,181.537 308.5,184.5C 303.639,185.62 299.306,187.786 295.5,191C 287.14,199.36 278.806,207.694 270.5,216C 267.634,217.457 264.634,217.79 261.5,217C 260.248,214.308 258.248,212.475 255.5,211.5C 252.854,210.836 250.021,210.502 247,210.5C 237.274,210.77 227.774,211.77 218.5,213.5C 211.976,218.514 205.809,224.18 200,230.5C 199.667,232.934 200.834,233.934 203.5,233.5C 210.937,237.724 218.27,242.224 225.5,247C 230.389,251.56 235.555,255.726 241,259.5C 254.444,249.724 266.277,238.224 276.5,225C 277.73,222.247 278.73,219.413 279.5,216.5C 282.498,215.357 285.498,215.357 288.5,216.5C 290.033,218.245 292.033,219.245 294.5,219.5C 298.775,220.777 301.775,223.444 303.5,227.5C 303.058,228.739 302.391,229.739 301.5,230.5C 297.444,232.017 293.444,233.85 289.5,236C 277.022,243.555 264.689,251.388 252.5,259.5C 251.059,261.833 251.725,263.166 254.5,263.5C 286.933,282.861 322.266,293.861 360.5,296.5C 365.029,297.273 369.695,297.94 374.5,298.5C 375.447,301.277 374.447,303.277 371.5,304.5C 366.64,304.738 361.973,305.738 357.5,307.5C 354.813,307.336 352.146,307.503 349.5,308C 348.944,308.383 348.611,308.883 348.5,309.5C 341.84,310.501 335.173,311.668 328.5,313C 319.646,314.597 311.313,313.264 303.5,309C 285.238,295.746 267.238,282.079 249.5,268C 248.517,267.409 247.85,267.743 247.5,269C 248.727,271.298 250.06,273.465 251.5,275.5C 254.174,285.699 256.341,296.033 258,306.5C 258.636,313.856 258.469,321.189 257.5,328.5C 255.237,334.942 252.57,341.276 249.5,347.5C 246.198,351.809 242.864,356.143 239.5,360.5C 236.9,361.468 234.566,362.801 232.5,364.5C 230.712,364.785 229.045,364.452 227.5,363.5C 222.152,354.818 215.152,347.818 206.5,342.5C 204.919,340.858 204.253,338.858 204.5,336.5C 212.144,337.48 219.811,337.647 227.5,337C 230.119,336.849 232.453,336.015 234.5,334.5C 240.871,324.119 243.204,312.786 241.5,300.5C 241.664,297.813 241.497,295.146 241,292.5C 240.901,290.347 240.067,288.681 238.5,287.5C 238.031,283.263 236.864,279.263 235,275.5C 233.951,274.483 232.784,274.316 231.5,275C 211.307,300.09 186.64,319.423 157.5,333C 152.099,334.284 146.766,335.451 141.5,336.5C 139.833,336.5 138.167,336.5 136.5,336.5C 136.297,334.61 136.963,333.11 138.5,332C 156.395,324.1 172.728,313.766 187.5,301C 195.996,293.503 204.163,285.67 212,277.5C 215.434,272.949 218.601,268.282 221.5,263.5C 224.076,263.278 224.91,261.945 224,259.5C 221.248,256.24 218.081,253.573 214.5,251.5C 204.322,262.174 193.322,272.008 181.5,281C 168.962,287.937 155.962,293.77 142.5,298.5C 140.439,297.249 140.106,295.582 141.5,293.5C 155.839,285.652 169.506,276.818 182.5,267C 189.707,261.294 196.04,254.794 201.5,247.5C 203.022,246.809 204.022,245.642 204.5,244C 201.588,240.419 198.088,237.586 194,235.5C 186.964,240.705 179.797,245.705 172.5,250.5C 169.9,251.468 167.566,252.801 165.5,254.5C 161.5,256.167 157.5,257.833 153.5,259.5C 152.167,259.5 150.833,259.5 149.5,259.5C 149.393,257.097 150.393,255.264 152.5,254C 166.546,245.115 179.546,234.948 191.5,223.5C 193.5,222.167 195.167,220.5 196.5,218.5C 197.043,218.44 197.376,218.107 197.5,217.5C 196.667,217.167 195.833,216.833 195,216.5C 191.519,217.123 188.019,217.623 184.5,218C 183.748,218.671 183.414,219.504 183.5,220.5C 181.504,222.333 179.171,222.833 176.5,222C 172.376,213.582 167.876,205.415 163,197.5C 158.243,192.902 153.076,188.902 147.5,185.5C 146.232,183.33 146.232,181.163 147.5,179C 155.5,178.667 163.5,178.333 171.5,178C 187.749,175.231 204.082,172.898 220.5,171C 227.821,163.187 234.154,154.687 239.5,145.5C 240.338,145.158 240.672,144.492 240.5,143.5C 242.213,142.365 242.88,140.698 242.5,138.5C 239.833,138.833 237.167,139.167 234.5,139.5C 224.979,139.215 215.645,139.215 206.5,139.5C 194.264,151.079 180.264,159.746 164.5,165.5C 163.5,165.5 162.5,165.5 161.5,165.5C 161.351,164.448 161.517,163.448 162,162.5C 172.304,153.197 182.304,143.53 192,133.5C 194.917,129.334 197.584,125.001 200,120.5C 198.144,110.02 202.311,106.187 212.5,109C 216.132,110.659 219.799,112.326 223.5,114C 227.139,116.096 227.472,118.596 224.5,121.5 Z"/></g>
<g><path style="opacity:0.216" fill="#e1d3b8" d="M 355.5,94.5 C 357.173,95.343 358.34,96.6763 359,98.5C 359.226,101.095 359.726,103.595 360.5,106C 365.6,108.313 370.933,109.48 376.5,109.5C 376.433,112.766 378.099,114.266 381.5,114C 383.16,115.488 384.16,117.321 384.5,119.5C 382.549,118.284 381.049,116.618 380,114.5C 378.644,115.38 377.144,115.714 375.5,115.5C 375.5,113.833 375.5,112.167 375.5,110.5C 369.45,110.828 363.784,109.661 358.5,107C 357.731,102.797 356.731,98.6304 355.5,94.5 Z"/></g>
<g><path style="opacity:0.345" fill="#e1d2b7" d="M 103.5,94.5 C 92.1029,103.391 81.4362,113.225 71.5,124C 68.9865,125.252 66.3198,125.752 63.5,125.5C 63.6633,127.857 63.4966,130.19 63,132.5C 58.3541,141.792 53.6874,151.125 49,160.5C 48.2917,161.381 47.4584,162.047 46.5,162.5C 50.8106,152.545 55.644,142.879 61,133.5C 61.3333,130.833 61.6667,128.167 62,125.5C 64.8587,124.827 67.692,123.993 70.5,123C 80.1865,111.802 91.1865,102.302 103.5,94.5 Z"/></g>
<g><path style="opacity:0.996" fill="#4a3b37" d="M 224.5,121.5 C 225.613,122.946 225.78,124.613 225,126.5C 223.293,128.037 221.793,129.704 220.5,131.5C 218.46,132.519 216.46,132.519 214.5,131.5C 217.548,127.785 220.881,124.452 224.5,121.5 Z"/></g>
<g><path style="opacity:0.051" fill="#e5d6c0" d="M 384.5,119.5 C 393.238,124.68 400.905,131.013 407.5,138.5C 400.87,132.186 393.537,126.853 385.5,122.5C 384.614,121.675 384.281,120.675 384.5,119.5 Z"/></g>
<g><path style="opacity:0.996" fill="#453c39" d="M 240.5,143.5 C 230.552,144.45 220.552,144.784 210.5,144.5C 208.712,144.215 207.045,144.548 205.5,145.5C 193.462,158.017 179.129,166.683 162.5,171.5C 162.253,169.142 162.919,167.142 164.5,165.5C 180.264,159.746 194.264,151.079 206.5,139.5C 215.989,140.666 225.322,140.666 234.5,139.5C 237.167,139.167 239.833,138.833 242.5,138.5C 242.88,140.698 242.213,142.365 240.5,143.5 Z"/></g>
<g><path style="opacity:0.996" fill="#732b26" d="M 206.5,139.5 C 215.645,139.215 224.979,139.215 234.5,139.5C 225.322,140.666 215.989,140.666 206.5,139.5 Z"/></g>
<g><path style="opacity:0.996" fill="#483a37" d="M 278.5,138.5 C 279.666,140.166 279.666,141.833 278.5,143.5C 263.934,149.088 250.934,157.088 239.5,167.5C 237.516,168.694 235.516,168.694 233.5,167.5C 245.741,153.546 260.741,143.88 278.5,138.5 Z"/></g>
<g><path style="opacity:0.996" fill="#695b43" d="M 240.5,143.5 C 240.672,144.492 240.338,145.158 239.5,145.5C 230.523,146.514 221.523,146.681 212.5,146C 211.584,145.722 210.918,145.222 210.5,144.5C 220.552,144.784 230.552,144.45 240.5,143.5 Z"/></g>
<g><path style="opacity:0.161" fill="#eadbc8" d="M 407.5,138.5 C 410.367,139.768 411.034,141.768 409.5,144.5C 411.188,145.521 412.521,146.855 413.5,148.5C 411.063,147.783 408.73,146.783 406.5,145.5C 407.687,144.481 408.687,143.314 409.5,142C 408.177,141.184 407.511,140.017 407.5,138.5 Z"/></g>
<g><path style="opacity:0.996" fill="#bb5933" d="M 271.5,162.5 C 266.777,164.225 261.777,165.225 256.5,165.5C 261.205,163.678 266.205,162.678 271.5,162.5 Z"/></g>
<g><path style="opacity:0.149" fill="#e3d6b7" d="M 46.5,162.5 C 46.4303,167.207 44.4303,170.874 40.5,173.5C 42.264,169.634 44.264,165.967 46.5,162.5 Z"/></g>
<g><path style="opacity:0.098" fill="#ece3cc" d="M 413.5,148.5 C 418.647,159.121 421.314,170.455 421.5,182.5C 419.849,170.975 417.183,159.642 413.5,148.5 Z"/></g>
<g><path style="opacity:0.996" fill="#912820" d="M 274.5,175.5 C 264.165,175.792 253.832,176.125 243.5,176.5C 253.8,174.589 264.133,174.256 274.5,175.5 Z"/></g>
<g><path style="opacity:0.996" fill="#433b39" d="M 274.5,175.5 C 277.569,176.804 278.569,178.804 277.5,181.5C 271.068,180.193 264.734,180.193 258.5,181.5C 249.785,182.141 241.119,183.141 232.5,184.5C 229.956,183.292 228.622,181.292 228.5,178.5C 233.614,178.388 238.614,177.721 243.5,176.5C 253.832,176.125 264.165,175.792 274.5,175.5 Z"/></g>
<g><path style="opacity:0.996" fill="#6f6043" d="M 258.5,181.5 C 264.734,180.193 271.068,180.193 277.5,181.5C 277.5,181.833 277.5,182.167 277.5,182.5C 271.225,181.582 264.892,181.249 258.5,181.5 Z"/></g>
<g><path style="opacity:0.996" fill="#433c39" d="M 214.5,186.5 C 201.563,189.045 188.563,191.045 175.5,192.5C 173.654,190.97 172.654,188.97 172.5,186.5C 175.167,186.5 177.833,186.5 180.5,186.5C 188.066,186.228 195.399,185.228 202.5,183.5C 207.05,182.509 211.717,181.509 216.5,180.5C 216.747,182.858 216.081,184.858 214.5,186.5 Z"/></g>
<g><path style="opacity:0.996" fill="#b49151" d="M 258.5,181.5 C 264.892,181.249 271.225,181.582 277.5,182.5C 275.25,187.4 273.083,192.4 271,197.5C 269.542,199.96 267.709,202.127 265.5,204C 252.775,202.995 240.109,203.495 227.5,205.5C 228.75,203.068 230.25,200.734 232,198.5C 232.495,196.527 232.662,194.527 232.5,192.5C 233.833,189.833 233.833,187.167 232.5,184.5C 241.119,183.141 249.785,182.141 258.5,181.5 Z"/></g>
<g><path style="opacity:0.996" fill="#612f2c" d="M 202.5,183.5 C 195.399,185.228 188.066,186.228 180.5,186.5C 187.589,184.696 194.923,183.696 202.5,183.5 Z"/></g>
<g><path style="opacity:0.996" fill="#b59252" d="M 212.5,192.5 C 210.744,198.019 208.41,203.353 205.5,208.5C 197.796,210.413 190.129,212.08 182.5,213.5C 181.734,206.199 179.401,199.532 175.5,193.5C 187.955,192.326 200.288,190.992 212.5,189.5C 212.5,190.5 212.5,191.5 212.5,192.5 Z"/></g>
<g><path style="opacity:0.996" fill="#9b7f4c" d="M 214.5,186.5 C 214.125,188.698 213.458,190.698 212.5,192.5C 212.5,191.5 212.5,190.5 212.5,189.5C 200.288,190.992 187.955,192.326 175.5,193.5C 175.5,193.167 175.5,192.833 175.5,192.5C 188.563,191.045 201.563,189.045 214.5,186.5 Z"/></g>
<g><path style="opacity:0.996" fill="#533e37" d="M 232.5,192.5 C 232.662,194.527 232.495,196.527 232,198.5C 230.25,200.734 228.75,203.068 227.5,205.5C 226.292,206.234 224.959,206.567 223.5,206.5C 224.99,200.851 227.99,196.184 232.5,192.5 Z"/></g>
<g><path style="opacity:0.137" fill="#e3d5bd" d="M 421.5,182.5 C 422.314,184.631 422.814,186.964 423,189.5C 423.333,199.833 423.667,210.167 424,220.5C 425.341,223.022 426.174,225.689 426.5,228.5C 424.837,226.507 423.67,224.174 423,221.5C 422.318,208.504 421.818,195.504 421.5,182.5 Z"/></g>
<g><path style="opacity:0.996" fill="#6c312b" d="M 255.5,211.5 C 243.146,211.805 230.812,212.472 218.5,213.5C 227.774,211.77 237.274,210.77 247,210.5C 250.021,210.502 252.854,210.836 255.5,211.5 Z"/></g>
<g><path style="opacity:0.996" fill="#443c39" d="M 308.5,184.5 C 308.896,187.044 308.229,189.211 306.5,191C 300.996,193.173 295.996,196.173 291.5,200C 284.524,206.644 277.857,213.644 271.5,221C 267.56,224.068 263.56,224.234 259.5,221.5C 259.249,219.83 258.582,218.33 257.5,217C 244.302,216.259 231.302,216.759 218.5,218.5C 217.737,219.268 216.737,219.768 215.5,220C 211.663,224.669 207.663,229.169 203.5,233.5C 200.834,233.934 199.667,232.934 200,230.5C 205.809,224.18 211.976,218.514 218.5,213.5C 230.812,212.472 243.146,211.805 255.5,211.5C 258.248,212.475 260.248,214.308 261.5,217C 264.634,217.79 267.634,217.457 270.5,216C 278.806,207.694 287.14,199.36 295.5,191C 299.306,187.786 303.639,185.62 308.5,184.5 Z"/></g>
<g><path style="opacity:0.996" fill="#8f6741" d="M 196.5,218.5 C 192.241,218.151 187.908,218.817 183.5,220.5C 183.414,219.504 183.748,218.671 184.5,218C 188.019,217.623 191.519,217.123 195,216.5C 195.833,216.833 196.667,217.167 197.5,217.5C 197.376,218.107 197.043,218.44 196.5,218.5 Z"/></g>
<g><path style="opacity:0.996" fill="#766545" d="M 259.5,221.5 C 258.163,220.685 257.163,219.518 256.5,218C 243.83,217.652 231.164,217.818 218.5,218.5C 231.302,216.759 244.302,216.259 257.5,217C 258.582,218.33 259.249,219.83 259.5,221.5 Z"/></g>
<g><path style="opacity:0.996" fill="#b96439" d="M 288.5,216.5 C 290.967,216.755 292.967,217.755 294.5,219.5C 292.033,219.245 290.033,218.245 288.5,216.5 Z"/></g>
<g><path style="opacity:0.996" fill="#4b413a" d="M 147.5,185.5 C 153.076,188.902 158.243,192.902 163,197.5C 167.876,205.415 172.376,213.582 176.5,222C 179.171,222.833 181.504,222.333 183.5,220.5C 187.908,218.817 192.241,218.151 196.5,218.5C 195.167,220.5 193.5,222.167 191.5,223.5C 187.045,222.622 183.711,224.122 181.5,228C 179.833,228.667 178.167,228.667 176.5,228C 172.766,221.812 169.6,215.312 167,208.5C 161.294,201.126 154.627,194.793 147,189.5C 146.421,188.072 146.588,186.738 147.5,185.5 Z"/></g>
<g><path style="opacity:0.408" fill="#e4d6bb" d="M 39.5,174.5 C 40.5735,175.251 40.7401,176.251 40,177.5C 37.6667,182.167 35.3333,186.833 33,191.5C 32.6667,198.167 32.3333,204.833 32,211.5C 31.7282,214.432 30.5615,216.932 28.5,219C 29.7282,219.779 30.7282,220.779 31.5,222C 26.5009,228.527 26.1675,235.36 30.5,242.5C 29.8333,242.5 29.1667,242.5 28.5,242.5C 25.8142,237.844 24.9809,232.844 26,227.5C 26.8036,225.056 28.3036,223.222 30.5,222C 25.6587,220.073 25.4921,217.573 30,214.5C 30.3333,207.5 30.6667,200.5 31,193.5C 33.7419,187.101 36.5752,180.767 39.5,174.5 Z"/></g>
<g><path style="opacity:0.996" fill="#493b37" d="M 301.5,230.5 C 304.139,232.838 303.806,235.005 300.5,237C 295.975,238.511 291.641,240.511 287.5,243C 276.444,249.855 265.444,256.689 254.5,263.5C 251.725,263.166 251.059,261.833 252.5,259.5C 264.689,251.388 277.022,243.555 289.5,236C 293.444,233.85 297.444,232.017 301.5,230.5 Z"/></g>
<g><path style="opacity:0.996" fill="#473c39" d="M 201.5,247.5 C 199.763,245.45 197.763,243.617 195.5,242C 194.5,241.333 193.5,241.333 192.5,242C 180.019,252.67 166.019,260.504 150.5,265.5C 150.615,263.053 151.615,261.053 153.5,259.5C 157.5,257.833 161.5,256.167 165.5,254.5C 168.546,254.275 170.879,252.942 172.5,250.5C 179.797,245.705 186.964,240.705 194,235.5C 198.088,237.586 201.588,240.419 204.5,244C 204.022,245.642 203.022,246.809 201.5,247.5 Z"/></g>
<g><path style="opacity:0.992" fill="#d4bd94" d="M 428.5,232.5 C 429.458,232.953 430.292,233.619 431,234.5C 432.118,236.765 432.951,239.099 433.5,241.5C 432.5,241.5 431.5,241.5 430.5,241.5C 429.833,238.5 429.167,235.5 428.5,232.5 Z"/></g>
<g><path style="opacity:0.996" fill="#171511" d="M 31.5,247.5 C 32.4959,247.414 33.3292,247.748 34,248.5C 36.2599,252.54 37.4266,256.873 37.5,261.5C 37.7947,263.735 37.4614,265.735 36.5,267.5C 31.5352,261.681 29.8686,255.014 31.5,247.5 Z"/></g>
<g><path style="opacity:0.996" fill="#732c27" d="M 172.5,250.5 C 170.879,252.942 168.546,254.275 165.5,254.5C 167.566,252.801 169.9,251.468 172.5,250.5 Z"/></g>
<g><path style="opacity:0.996" fill="#493c38" d="M 221.5,263.5 C 219.384,261.271 217.051,259.271 214.5,257.5C 204.603,267.899 193.936,277.399 182.5,286C 171.404,292.215 160.071,297.881 148.5,303C 145.854,303.497 143.187,303.664 140.5,303.5C 140.392,301.486 141.058,299.82 142.5,298.5C 155.962,293.77 168.962,287.937 181.5,281C 193.322,272.008 204.322,262.174 214.5,251.5C 218.081,253.573 221.248,256.24 224,259.5C 224.91,261.945 224.076,263.278 221.5,263.5 Z"/></g>
<g><path style="opacity:0.282" fill="#e7d9c0" d="M 433.5,241.5 C 434.643,244.976 434.81,248.642 434,252.5C 433.215,254.286 432.049,255.786 430.5,257C 431.687,258.019 432.687,259.186 433.5,260.5C 433.145,261.522 432.478,262.189 431.5,262.5C 431.756,260.088 430.756,258.421 428.5,257.5C 433.017,253.149 434.684,247.816 433.5,241.5 Z"/></g>
<g><path style="opacity:0.075" fill="#b4b3b1" d="M 28.5,242.5 C 29.1667,242.5 29.8333,242.5 30.5,242.5C 31.8897,244.169 32.2231,245.836 31.5,247.5C 29.8686,255.014 31.5352,261.681 36.5,267.5C 36.8333,268.167 37.1667,268.833 37.5,269.5C 37.5,270.167 37.5,270.833 37.5,271.5C 37.6716,272.492 37.3382,273.158 36.5,273.5C 33.7606,267.677 31.2606,261.677 29,255.5C 28.3985,252.338 28.8985,249.338 30.5,246.5C 30.2483,244.927 29.5817,243.594 28.5,242.5 Z"/></g>
<g><path style="opacity:0.996" fill="#554629" d="M 37.5,261.5 C 38.8333,264.167 38.8333,266.833 37.5,269.5C 37.1667,268.833 36.8333,268.167 36.5,267.5C 37.4614,265.735 37.7947,263.735 37.5,261.5 Z"/></g>
<g><path style="opacity:0.397" fill="#5e594f" d="M 430.5,265.5 C 430.662,267.527 430.495,269.527 430,271.5C 429.617,272.056 429.117,272.389 428.5,272.5C 427.99,269.612 428.656,267.279 430.5,265.5 Z"/></g>
<g><path style="opacity:0.996" fill="#463d3a" d="M 348.5,309.5 C 351.655,309.01 354.655,308.344 357.5,307.5C 361.973,305.738 366.64,304.738 371.5,304.5C 372.5,304.5 373.5,304.5 374.5,304.5C 374.5,305.833 374.5,307.167 374.5,308.5C 370.079,309.833 365.745,311.166 361.5,312.5C 350.057,313.456 339.057,315.789 328.5,319.5C 321.34,319.911 314.34,319.078 307.5,317C 288.269,303.889 269.602,290.056 251.5,275.5C 250.06,273.465 248.727,271.298 247.5,269C 247.85,267.743 248.517,267.409 249.5,268C 267.238,282.079 285.238,295.746 303.5,309C 311.313,313.264 319.646,314.597 328.5,313C 335.173,311.668 341.84,310.501 348.5,309.5 Z"/></g>
<g><path style="opacity:0.996" fill="#493c38" d="M 238.5,287.5 C 236.938,284.73 235.104,282.063 233,279.5C 211.09,306.38 184.256,326.88 152.5,341C 147.264,342.339 141.93,342.839 136.5,342.5C 136.749,339.256 138.416,337.256 141.5,336.5C 146.766,335.451 152.099,334.284 157.5,333C 186.64,319.423 211.307,300.09 231.5,275C 232.784,274.316 233.951,274.483 235,275.5C 236.864,279.263 238.031,283.263 238.5,287.5 Z"/></g>
<g><path style="opacity:0.337" fill="#e4dac7" d="M 431.5,262.5 C 431.546,272.389 430.212,282.056 427.5,291.5C 426.876,291.083 426.543,290.416 426.5,289.5C 428.283,284.001 428.95,278.334 428.5,272.5C 429.117,272.389 429.617,272.056 430,271.5C 430.495,269.527 430.662,267.527 430.5,265.5C 430.263,264.209 430.596,263.209 431.5,262.5 Z"/></g>
<g><path style="opacity:0.996" fill="#77392c" d="M 238.5,287.5 C 240.067,288.681 240.901,290.347 241,292.5C 241.497,295.146 241.664,297.813 241.5,300.5C 239.882,296.425 238.882,292.092 238.5,287.5 Z"/></g>
<g><path style="opacity:0.122" fill="#eee5d3" d="M 37.5,271.5 C 38.2288,279.036 38.8955,286.702 39.5,294.5C 39.5,296.833 39.5,299.167 39.5,301.5C 37.9416,292.363 36.9416,283.03 36.5,273.5C 37.3382,273.158 37.6716,272.492 37.5,271.5 Z"/></g>
<g><path style="opacity:0.996" fill="#b8693c" d="M 360.5,296.5 C 364.846,296.334 369.179,296.501 373.5,297C 374.056,297.383 374.389,297.883 374.5,298.5C 369.695,297.94 365.029,297.273 360.5,296.5 Z"/></g>
<g><path style="opacity:0.997" fill="#070605" d="M 423.5,296.5 C 424.539,300.342 424.539,304.342 423.5,308.5C 419.355,315.792 416.022,323.459 413.5,331.5C 412.624,331.369 411.957,331.702 411.5,332.5C 410.391,335.847 408.724,338.847 406.5,341.5C 404.762,345.049 403.429,348.716 402.5,352.5C 397.314,358.204 394.314,364.871 393.5,372.5C 390.107,372.062 387.107,372.895 384.5,375C 379.533,380.969 374.199,386.635 368.5,392C 356.008,401.08 343.341,409.913 330.5,418.5C 324.183,423.151 318.516,428.484 313.5,434.5C 310.892,434.6 308.558,433.933 306.5,432.5C 303.813,433.336 301.48,434.836 299.5,437C 294.177,437.499 288.844,437.666 283.5,437.5C 281.401,436.388 279.067,435.721 276.5,435.5C 264.611,434.203 252.611,434.536 240.5,436.5C 233.504,436.106 226.504,435.773 219.5,435.5C 215.666,433.259 211.666,433.092 207.5,435C 206.748,435.671 206.414,436.504 206.5,437.5C 202.695,437.967 199.028,438.967 195.5,440.5C 181.455,444.483 168.455,442.317 156.5,434C 155.207,433.51 153.873,433.343 152.5,433.5C 150.824,431.166 148.491,430.166 145.5,430.5C 143.272,427.55 140.272,425.884 136.5,425.5C 134.84,422.374 132.174,420.707 128.5,420.5C 127.508,420.672 126.842,420.338 126.5,419.5C 125.008,416.677 122.674,415.01 119.5,414.5C 118.738,412.738 117.404,411.738 115.5,411.5C 114.833,409.5 113.5,408.167 111.5,407.5C 107.642,402.784 105.142,397.451 104,391.5C 102.67,390.418 101.17,389.751 99.5,389.5C 98.5084,389.672 97.8417,389.338 97.5,388.5C 94.7131,387.523 91.7131,387.19 88.5,387.5C 88.5,385.833 88.5,384.167 88.5,382.5C 86.0504,382.702 83.717,382.369 81.5,381.5C 79.5789,376.372 75.9122,373.372 70.5,372.5C 70.0269,371.094 69.0269,370.427 67.5,370.5C 63.9041,366.341 60.0708,362.341 56,358.5C 55.5172,357.552 55.3505,356.552 55.5,355.5C 55.5,355.167 55.5,354.833 55.5,354.5C 56.2891,354.217 56.9558,353.717 57.5,353C 55.1856,351.733 52.8522,350.566 50.5,349.5C 48.9945,345.125 47.6612,340.791 46.5,336.5C 46.2053,334.265 46.5386,332.265 47.5,330.5C 49.3425,332.052 51.0092,333.718 52.5,335.5C 50.9844,338.08 51.6511,340.08 54.5,341.5C 60.2682,347.877 66.9349,353.044 74.5,357C 76.5299,358.896 78.1966,361.063 79.5,363.5C 80.325,364.386 81.325,364.719 82.5,364.5C 83.9779,365.448 84.9779,366.781 85.5,368.5C 90.8942,369.043 96.2275,370.376 101.5,372.5C 101.431,378.174 103.431,382.84 107.5,386.5C 109.569,389.573 112.236,391.906 115.5,393.5C 128.081,403.293 141.748,411.293 156.5,417.5C 160.208,418.963 163.874,420.63 167.5,422.5C 174.123,425.313 181.123,426.146 188.5,425C 195.756,422.641 202.756,419.807 209.5,416.5C 218.182,418.64 227.015,419.64 236,419.5C 253.517,417.07 271.017,417.07 288.5,419.5C 295.514,420.485 301.68,418.819 307,414.5C 308.303,414.978 309.469,415.645 310.5,416.5C 311.946,417.613 313.613,417.78 315.5,417C 318.371,414.297 321.038,411.464 323.5,408.5C 329.644,403.197 335.978,398.031 342.5,393C 359.877,383.629 374.877,371.296 387.5,356C 390.447,353.836 393.781,353.002 397.5,353.5C 397.336,350.813 397.503,348.146 398,345.5C 406.565,329.032 415.065,312.699 423.5,296.5 Z"/></g>
<g><path style="opacity:0.596" fill="#4d4b48" d="M 425.5,306.5 C 424.833,307.167 424.167,307.833 423.5,308.5C 424.539,304.342 424.539,300.342 423.5,296.5C 423.369,295.624 423.702,294.957 424.5,294.5C 425.491,298.445 425.824,302.445 425.5,306.5 Z"/></g>
<g><path style="opacity:0.996" fill="#772b26" d="M 357.5,307.5 C 354.655,308.344 351.655,309.01 348.5,309.5C 348.611,308.883 348.944,308.383 349.5,308C 352.146,307.503 354.813,307.336 357.5,307.5 Z"/></g>
<g><path style="opacity:0.659" fill="#d8c6a3" d="M 39.5,294.5 C 40.9777,300.962 41.9777,307.628 42.5,314.5C 41.8333,313.167 41.1667,311.833 40.5,310.5C 39.5233,307.713 39.19,304.713 39.5,301.5C 39.5,299.167 39.5,296.833 39.5,294.5 Z"/></g>
<g><path style="opacity:0.373" fill="#959595" d="M 425.5,306.5 C 422.287,315.257 418.287,323.59 413.5,331.5C 416.022,323.459 419.355,315.792 423.5,308.5C 424.167,307.833 424.833,307.167 425.5,306.5 Z"/></g>
<g><path style="opacity:0.996" fill="#957c4c" d="M 361.5,312.5 C 350.801,315.787 339.801,318.121 328.5,319.5C 339.057,315.789 350.057,313.456 361.5,312.5 Z"/></g>
<g><path style="opacity:0.757" fill="#4c4944" d="M 44.5,325.5 C 45.8897,326.899 46.8897,328.566 47.5,330.5C 46.5386,332.265 46.2053,334.265 46.5,336.5C 45.0966,333.091 44.4299,329.425 44.5,325.5 Z"/></g>
<g><path style="opacity:0.996" fill="#614e2c" d="M 52.5,335.5 C 52.7036,337.685 53.3702,339.685 54.5,341.5C 51.6511,340.08 50.9844,338.08 52.5,335.5 Z"/></g>
<g><path style="opacity:0.122" fill="#c0bfbd" d="M 40.5,310.5 C 41.1667,311.833 41.8333,313.167 42.5,314.5C 43.1667,318.167 43.8333,321.833 44.5,325.5C 44.4299,329.425 45.0966,333.091 46.5,336.5C 47.6612,340.791 48.9945,345.125 50.5,349.5C 50.8333,350.167 51.1667,350.833 51.5,351.5C 50.6236,351.631 49.9569,351.298 49.5,350.5C 44.7893,337.578 41.7893,324.245 40.5,310.5 Z"/></g>
<g><path style="opacity:0.996" fill="#653a31" d="M 257.5,328.5 C 257.596,333.113 256.596,337.447 254.5,341.5C 253.18,343.832 251.513,345.832 249.5,347.5C 252.57,341.276 255.237,334.942 257.5,328.5 Z"/></g>
<g><path style="opacity:0.549" fill="#9e9e9e" d="M 413.5,331.5 C 410.609,338.949 406.943,345.949 402.5,352.5C 403.429,348.716 404.762,345.049 406.5,341.5C 408.724,338.847 410.391,335.847 411.5,332.5C 411.957,331.702 412.624,331.369 413.5,331.5 Z"/></g>
<g><path style="opacity:0.714" fill="#5d5d5d" d="M 50.5,349.5 C 52.8522,350.566 55.1856,351.733 57.5,353C 56.9558,353.717 56.2891,354.217 55.5,354.5C 55.1788,352.952 54.1788,352.285 52.5,352.5C 51.8333,352.5 51.5,352.167 51.5,351.5C 51.1667,350.833 50.8333,350.167 50.5,349.5 Z"/></g>
<g><path style="opacity:0.071" fill="#d7d7d7" d="M 52.5,352.5 C 54.1788,352.285 55.1788,352.952 55.5,354.5C 55.5,354.833 55.5,355.167 55.5,355.5C 54.596,356.209 54.2627,357.209 54.5,358.5C 53.1991,357.116 53.1991,355.616 54.5,354C 53.5842,353.722 52.9175,353.222 52.5,352.5 Z"/></g>
<g><path style="opacity:0.404" fill="#90908f" d="M 55.5,355.5 C 55.3505,356.552 55.5172,357.552 56,358.5C 60.0708,362.341 63.9041,366.341 67.5,370.5C 64.3968,368.577 61.3968,366.41 58.5,364C 57.035,362.226 55.7017,360.392 54.5,358.5C 54.2627,357.209 54.596,356.209 55.5,355.5 Z"/></g>
<g><path style="opacity:0.996" fill="#483f3a" d="M 254.5,341.5 C 250.751,352.422 244.417,361.589 235.5,369C 232.857,370.436 230.19,370.602 227.5,369.5C 221.522,360.355 214.022,352.688 205,346.5C 204.156,344.537 204.656,343.204 206.5,342.5C 215.152,347.818 222.152,354.818 227.5,363.5C 229.045,364.452 230.712,364.785 232.5,364.5C 235.546,364.275 237.879,362.942 239.5,360.5C 242.864,356.143 246.198,351.809 249.5,347.5C 251.513,345.832 253.18,343.832 254.5,341.5 Z"/></g>
<g><path style="opacity:0.996" fill="#692e2a" d="M 239.5,360.5 C 237.879,362.942 235.546,364.275 232.5,364.5C 234.566,362.801 236.9,361.468 239.5,360.5 Z"/></g>
<g><path style="opacity:0.996" fill="#6d5831" d="M 85.5,368.5 C 84.9779,366.781 83.9779,365.448 82.5,364.5C 82.8212,362.952 83.8212,362.285 85.5,362.5C 85.5,364.5 85.5,366.5 85.5,368.5 Z"/></g>
<g><path style="opacity:0.118" fill="#bfbebe" d="M 67.5,370.5 C 69.0269,370.427 70.0269,371.094 70.5,372.5C 68.9731,372.573 67.9731,371.906 67.5,370.5 Z"/></g>
<g><path style="opacity:0.231" fill="#9b9b9b" d="M 402.5,352.5 C 400.641,357.223 398.474,361.89 396,366.5C 395.882,369.371 395.216,372.038 394,374.5C 391.206,373.154 388.706,373.654 386.5,376C 370.253,393.288 351.92,407.955 331.5,420C 325.211,424.956 319.211,430.122 313.5,435.5C 313.5,435.167 313.5,434.833 313.5,434.5C 318.516,428.484 324.183,423.151 330.5,418.5C 343.341,409.913 356.008,401.08 368.5,392C 374.199,386.635 379.533,380.969 384.5,375C 387.107,372.895 390.107,372.062 393.5,372.5C 394.314,364.871 397.314,358.204 402.5,352.5 Z"/></g>
<g><path style="opacity:0.078" fill="#a6a6a6" d="M 70.5,372.5 C 75.9122,373.372 79.5789,376.372 81.5,381.5C 82.9179,383.308 84.9179,383.975 87.5,383.5C 87.5,385.167 87.5,386.833 87.5,388.5C 86.7677,387.192 85.9344,385.858 85,384.5C 83.8869,385.711 82.7202,385.711 81.5,384.5C 80,382.167 78.5,379.833 77,377.5C 74.3129,376.418 72.1462,374.751 70.5,372.5 Z"/></g>
<g><path style="opacity:0.851" fill="#535353" d="M 81.5,381.5 C 83.717,382.369 86.0504,382.702 88.5,382.5C 88.5,384.167 88.5,385.833 88.5,387.5C 91.7131,387.19 94.7131,387.523 97.5,388.5C 94.1667,388.5 90.8333,388.5 87.5,388.5C 87.5,386.833 87.5,385.167 87.5,383.5C 84.9179,383.975 82.9179,383.308 81.5,381.5 Z"/></g>
<g><path style="opacity:0.033" fill="#e8e8e8" d="M 87.5,388.5 C 90.8333,388.5 94.1667,388.5 97.5,388.5C 97.8417,389.338 98.5084,389.672 99.5,389.5C 99.5,389.833 99.5,390.167 99.5,390.5C 95.3164,390.149 91.3164,389.482 87.5,388.5 Z"/></g>
<g><path style="opacity:0.996" fill="#6e5932" d="M 107.5,386.5 C 110.764,388.094 113.431,390.427 115.5,393.5C 112.236,391.906 109.569,389.573 107.5,386.5 Z"/></g>
<g><path style="opacity:0.686" fill="#6d6d6d" d="M 99.5,389.5 C 101.17,389.751 102.67,390.418 104,391.5C 105.142,397.451 107.642,402.784 111.5,407.5C 105.23,404.651 102.23,399.651 102.5,392.5C 101.261,392.058 100.261,391.391 99.5,390.5C 99.5,390.167 99.5,389.833 99.5,389.5 Z"/></g>
<g><path style="opacity:0.129" fill="#a5a5a5" d="M 111.5,407.5 C 113.5,408.167 114.833,409.5 115.5,411.5C 113.167,411.167 111.833,409.833 111.5,407.5 Z"/></g>
<g><path style="opacity:0.996" fill="#41351e" d="M 323.5,408.5 C 321.038,411.464 318.371,414.297 315.5,417C 313.613,417.78 311.946,417.613 310.5,416.5C 311.873,416.657 313.207,416.49 314.5,416C 317.101,412.888 320.101,410.388 323.5,408.5 Z"/></g>
<g><path style="opacity:0.2" fill="#a8a8a8" d="M 115.5,411.5 C 117.404,411.738 118.738,412.738 119.5,414.5C 117.596,414.262 116.262,413.262 115.5,411.5 Z"/></g>
<g><path style="opacity:0.09" fill="#a8a8a8" d="M 119.5,414.5 C 122.674,415.01 125.008,416.677 126.5,419.5C 123.883,418.214 121.55,416.547 119.5,414.5 Z"/></g>
<g><path style="opacity:0.996" fill="#564527" d="M 209.5,416.5 C 210.274,415.853 211.274,415.52 212.5,415.5C 220.201,417.442 228.034,418.442 236,418.5C 251.125,416.752 266.291,416.252 281.5,417C 284.104,417.39 286.438,418.224 288.5,419.5C 271.017,417.07 253.517,417.07 236,419.5C 227.015,419.64 218.182,418.64 209.5,416.5 Z"/></g>
<g><path style="opacity:0.996" fill="#7b6337" d="M 156.5,417.5 C 161.045,417.45 164.711,419.117 167.5,422.5C 163.874,420.63 160.208,418.963 156.5,417.5 Z"/></g>
<g><path style="opacity:0.239" fill="#818181" d="M 128.5,420.5 C 132.174,420.707 134.84,422.374 136.5,425.5C 133.489,424.331 130.822,422.664 128.5,420.5 Z"/></g>
<g><path style="opacity:0.012" fill="#a2a2a2" d="M 136.5,425.5 C 140.272,425.884 143.272,427.55 145.5,430.5C 142.331,429.083 139.331,427.417 136.5,425.5 Z"/></g>
<g><path style="opacity:0.141" fill="#a9a9a8" d="M 145.5,430.5 C 148.491,430.166 150.824,431.166 152.5,433.5C 149.982,432.736 147.649,431.736 145.5,430.5 Z"/></g>
<g><path style="opacity:0.706" fill="#818181" d="M 306.5,432.5 C 308.558,433.933 310.892,434.6 313.5,434.5C 313.5,434.833 313.5,435.167 313.5,435.5C 311.95,436.72 310.284,436.72 308.5,435.5C 307.833,434.5 307.167,433.5 306.5,432.5 Z"/></g>
<g><path style="opacity:0.365" fill="#949494" d="M 219.5,435.5 C 218.5,435.5 217.5,435.5 216.5,435.5C 212.968,435.31 209.635,435.977 206.5,437.5C 206.414,436.504 206.748,435.671 207.5,435C 211.666,433.092 215.666,433.259 219.5,435.5 Z"/></g>
<g><path style="opacity:0.694" fill="#343433" d="M 219.5,435.5 C 226.504,435.773 233.504,436.106 240.5,436.5C 240.5,436.833 240.5,437.167 240.5,437.5C 235.156,437.666 229.823,437.499 224.5,437C 222.618,436.802 220.952,436.302 219.5,435.5 Z"/></g>
<g><path style="opacity:0.369" fill="#7f7f7f" d="M 276.5,435.5 C 266.616,435.193 256.95,435.86 247.5,437.5C 247.158,438.338 246.492,438.672 245.5,438.5C 244.081,437.549 242.415,437.216 240.5,437.5C 240.5,437.167 240.5,436.833 240.5,436.5C 252.611,434.536 264.611,434.203 276.5,435.5 Z"/></g>
<g><path style="opacity:0.023" fill="#ececec" d="M 276.5,435.5 C 279.067,435.721 281.401,436.388 283.5,437.5C 271.508,436.362 259.508,436.362 247.5,437.5C 256.95,435.86 266.616,435.193 276.5,435.5 Z"/></g>
<g><path style="opacity:0.012" fill="#9e9e9e" d="M 152.5,433.5 C 153.873,433.343 155.207,433.51 156.5,434C 168.455,442.317 181.455,444.483 195.5,440.5C 195.167,441.167 194.833,441.833 194.5,442.5C 187.028,444.978 179.361,445.144 171.5,443C 164.827,440.33 158.494,437.163 152.5,433.5 Z"/></g>
<g><path style="opacity:0.108" fill="#cccccc" d="M 216.5,435.5 C 217.5,435.5 218.5,435.5 219.5,435.5C 220.952,436.302 222.618,436.802 224.5,437C 229.823,437.499 235.156,437.666 240.5,437.5C 242.415,437.216 244.081,437.549 245.5,438.5C 237.826,438.666 230.159,438.5 222.5,438C 220.148,437.76 218.148,436.927 216.5,435.5 Z"/></g>
<g><path style="opacity:0.039" fill="#afafae" d="M 306.5,432.5 C 307.167,433.5 307.833,434.5 308.5,435.5C 307.417,435.461 306.417,435.127 305.5,434.5C 298.711,439.931 291.377,440.931 283.5,437.5C 288.844,437.666 294.177,437.499 299.5,437C 301.48,434.836 303.813,433.336 306.5,432.5 Z"/></g>
<g><path style="opacity:0.012" fill="#a7a7a7" d="M 206.5,437.5 C 202.889,439.931 198.889,441.597 194.5,442.5C 194.833,441.833 195.167,441.167 195.5,440.5C 199.028,438.967 202.695,437.967 206.5,437.5 Z"/></g>
</svg>
