<?xml version="1.0" encoding="UTF-8"?>
<!DOCTYPE svg PUBLIC "-//W3C//DTD SVG 1.1//EN" "http://www.w3.org/Graphics/SVG/1.1/DTD/svg11.dtd">
<svg xmlns="http://www.w3.org/2000/svg" version="1.1" width="471px" height="464px" style="shape-rendering:geometricPrecision; text-rendering:geometricPrecision; image-rendering:optimizeQuality; fill-rule:evenodd; clip-rule:evenodd" xmlns:xlink="http://www.w3.org/1999/xlink">
<g><path style="opacity:0.643" fill="#d9c5a0" d="M 298.5,55.5 C 290.251,53.7834 281.917,53.2834 273.5,54C 269.024,55.9917 264.357,57.4917 259.5,58.5C 269.185,52.2517 279.852,50.085 291.5,52C 294.281,52.5218 296.615,53.6885 298.5,55.5 Z"/></g>
<g><path style="opacity:0.996" fill="#b59352" d="M 298.5,55.5 C 299.635,56.4745 300.635,57.6412 301.5,59C 307.038,60.4711 312.371,62.4711 317.5,65C 328.616,70.9473 339.616,77.114 350.5,83.5C 354.26,87.9912 358.26,92.3245 362.5,96.5C 362.183,99.5719 362.516,102.572 363.5,105.5C 368.303,108.924 373.636,110.257 379.5,109.5C 379.5,111.167 379.5,112.833 379.5,114.5C 382.206,114.575 384.873,114.908 387.5,115.5C 387.12,118.792 388.453,121.125 391.5,122.5C 394.661,123.913 397.661,125.58 400.5,127.5C 401.107,127.376 401.44,127.043 401.5,126.5C 402.167,126.5 402.5,126.833 402.5,127.5C 404.812,131.812 408.145,135.145 412.5,137.5C 412.682,139.591 412.348,141.591 411.5,143.5C 415.177,145.516 418.177,148.182 420.5,151.5C 420.5,151.833 420.5,152.167 420.5,152.5C 420.882,157.092 421.882,161.425 423.5,165.5C 424.454,182.5 425.787,199.166 427.5,215.5C 427.697,219.622 428.53,223.622 430,227.5C 430.72,229.056 431.887,230.056 433.5,230.5C 433.841,233.516 435.007,236.182 437,238.5C 438.422,244.763 437.255,250.429 433.5,255.5C 433.722,257.055 434.389,258.389 435.5,259.5C 433.95,267.742 433.284,276.075 433.5,284.5C 431.659,286.849 430.326,289.515 429.5,292.5C 420.619,309.971 411.452,327.304 402,344.5C 401.503,346.81 401.337,349.143 401.5,351.5C 399.396,351.201 397.396,351.534 395.5,352.5C 388.193,359.472 380.86,366.472 373.5,373.5C 360.971,382.528 348.305,391.361 335.5,400C 329.558,404.142 324.225,408.975 319.5,414.5C 316.324,415.997 313.658,415.33 311.5,412.5C 308.037,416.398 303.704,418.398 298.5,418.5C 290.262,416.738 281.928,415.738 273.5,415.5C 258.201,417.153 242.868,417.653 227.5,417C 223.943,416.402 220.443,415.569 217,414.5C 209.073,417.22 201.24,420.053 193.5,423C 188.833,423.667 184.167,423.667 179.5,423C 154.317,414.999 131.817,402.499 112,385.5C 108.326,381.321 106.16,376.488 105.5,371C 100.495,368.366 95.1621,367.199 89.5,367.5C 89.5,365.833 89.5,364.167 89.5,362.5C 77.6099,356.07 66.7765,347.737 57,337.5C 56.3486,335.765 56.5153,334.098 57.5,332.5C 54.0677,330.074 51.4011,327.074 49.5,323.5C 48.7944,319.361 48.1277,315.194 47.5,311C 47.3158,309.624 46.6491,308.791 45.5,308.5C 44.6489,295.436 43.6489,282.436 42.5,269.5C 42.5,268.5 42.5,267.5 42.5,266.5C 42.6655,262.486 42.4988,258.486 42,254.5C 40.2316,252.088 39.0649,249.421 38.5,246.5C 37.8553,244.174 36.522,242.507 34.5,241.5C 32.2879,235.325 31.9545,228.992 33.5,222.5C 34.9953,222.585 35.9953,221.919 36.5,220.5C 35.0186,219.52 33.6853,218.353 32.5,217C 33.6667,215.833 34.8333,214.667 36,213.5C 36.3333,206.167 36.6667,198.833 37,191.5C 42.2904,180.287 47.9571,169.287 54,158.5C 54.813,156.564 55.313,154.564 55.5,152.5C 57.0744,152.063 58.2411,151.063 59,149.5C 61.1973,142.773 64.1973,136.439 68,130.5C 68.4955,128.527 68.6621,126.527 68.5,124.5C 73.1701,125.585 76.1701,123.918 77.5,119.5C 77.5,118.833 77.8333,118.5 78.5,118.5C 78.4346,118.938 78.6012,119.272 79,119.5C 84.432,114.575 89.2653,109.242 93.5,103.5C 93.5,102.833 93.8333,102.5 94.5,102.5C 94.369,103.239 94.5357,103.906 95,104.5C 97.3649,101.131 100.532,98.9643 104.5,98C 107.011,95.6565 109.344,93.1565 111.5,90.5C 118.437,89.2392 123.771,85.5725 127.5,79.5C 132.061,78.0538 135.728,75.3871 138.5,71.5C 143.68,70.4882 147.18,67.4882 149,62.5C 149.804,61.1955 150.971,60.5288 152.5,60.5C 157.086,64.8549 161.086,64.3549 164.5,59C 175.144,59.3731 185.811,59.8731 196.5,60.5C 201.678,60.4993 206.678,60.166 211.5,59.5C 215.481,58.9791 219.481,58.6458 223.5,58.5C 230.191,58.4542 236.857,58.7875 243.5,59.5C 246.602,59.154 249.435,59.8207 252,61.5C 254.308,60.0087 256.808,59.0087 259.5,58.5C 264.357,57.4917 269.024,55.9917 273.5,54C 281.917,53.2834 290.251,53.7834 298.5,55.5 Z"/></g>
<g><path style="opacity:0.29" fill="#e2d2b5" d="M 211.5,59.5 C 206.678,60.166 201.678,60.4993 196.5,60.5C 185.811,59.8731 175.144,59.3731 164.5,59C 161.086,64.3549 157.086,64.8549 152.5,60.5C 150.971,60.5288 149.804,61.1955 149,62.5C 147.18,67.4882 143.68,70.4882 138.5,71.5C 142.044,67.6034 145.711,63.7701 149.5,60C 152.606,59.1562 155.439,59.6562 158,61.5C 165.557,55.698 173.724,54.8647 182.5,59C 192.161,59.4998 201.828,59.6665 211.5,59.5 Z"/></g>
<g><path style="opacity:0.051" fill="#f1e5d6" d="M 223.5,58.5 C 225.978,57.8359 228.645,57.5025 231.5,57.5C 235.777,57.3367 239.777,58.0033 243.5,59.5C 236.857,58.7875 230.191,58.4542 223.5,58.5 Z"/></g>
<g><path style="opacity:0.294" fill="#e4d3b8" d="M 298.5,55.5 C 310.605,60.4927 322.605,65.9927 334.5,72C 340.294,75.309 345.627,79.1423 350.5,83.5C 339.616,77.114 328.616,70.9473 317.5,65C 312.371,62.4711 307.038,60.4711 301.5,59C 300.635,57.6412 299.635,56.4745 298.5,55.5 Z"/></g>
<g><path style="opacity:0.204" fill="#e3d6bb" d="M 138.5,71.5 C 135.728,75.3871 132.061,78.0538 127.5,79.5C 130.981,76.5914 134.648,73.9247 138.5,71.5 Z"/></g>
<g><path style="opacity:0.988" fill="#dbc7a3" d="M 127.5,79.5 C 123.771,85.5725 118.437,89.2392 111.5,90.5C 116.278,86.0599 121.612,82.3932 127.5,79.5 Z"/></g>
<g><path style="opacity:0.125" fill="#e6dbc7" d="M 350.5,83.5 C 355.945,86.6073 359.945,90.9406 362.5,96.5C 358.26,92.3245 354.26,87.9912 350.5,83.5 Z"/></g>
<g><path style="opacity:0.294" fill="#dacaa7" d="M 111.5,90.5 C 109.344,93.1565 107.011,95.6565 104.5,98C 100.532,98.9643 97.3649,101.131 95,104.5C 94.5357,103.906 94.369,103.239 94.5,102.5C 99.6697,97.7526 105.336,93.7526 111.5,90.5 Z"/></g>
<g><path style="opacity:0.349" fill="#e2d3b5" d="M 93.5,103.5 C 89.2653,109.242 84.432,114.575 79,119.5C 78.6012,119.272 78.4346,118.938 78.5,118.5C 83.1667,113.167 88.1667,108.167 93.5,103.5 Z"/></g>
<g><path style="opacity:0.996" fill="#bf2c1b" d="M 291.5,125.5 C 274.263,139.13 258.263,154.13 243.5,170.5C 244.333,170.833 245.167,171.167 246,171.5C 247.607,170.926 249.107,170.26 250.5,169.5C 265.146,168.223 279.813,167.056 294.5,166C 298.64,161.86 302.806,157.694 307,153.5C 309.11,150.508 310.443,147.175 311,143.5C 312.255,141.406 314.088,140.406 316.5,140.5C 322,142.828 326.833,146.161 331,150.5C 331.703,152.929 331.537,155.262 330.5,157.5C 301.009,175.419 272.675,195.086 245.5,216.5C 248.713,217.586 251.713,217.253 254.5,215.5C 271.539,212.493 288.539,209.826 305.5,207.5C 306.978,207.762 308.311,207.429 309.5,206.5C 307.86,203.196 305.527,200.529 302.5,198.5C 300.919,196.858 300.253,194.858 300.5,192.5C 303.607,192.351 306.607,192.851 309.5,194C 317.268,197.252 324.602,201.252 331.5,206C 338.019,212.059 340.352,219.559 338.5,228.5C 336.608,232.168 333.608,233.335 329.5,232C 325.333,226.5 321.167,221 317,215.5C 316.044,214.106 314.711,213.439 313,213.5C 295.165,217.222 277.332,220.889 259.5,224.5C 259.862,227.887 261.862,229.553 265.5,229.5C 267.355,231.033 269.188,232.7 271,234.5C 271.49,236.545 271.323,238.545 270.5,240.5C 265.988,242.347 263.321,245.68 262.5,250.5C 264.099,250.768 265.432,250.434 266.5,249.5C 277.138,248.932 286.804,245.765 295.5,240C 299.5,239.333 303.5,239.333 307.5,240C 312.554,242.389 317.054,245.555 321,249.5C 321.678,251.598 321.511,253.598 320.5,255.5C 314.236,258.596 309.402,263.263 306,269.5C 302.171,279.171 296.838,287.837 290,295.5C 289.09,297.945 289.924,299.278 292.5,299.5C 308.555,313.196 326.889,322.696 347.5,328C 358.273,330.299 368.94,332.966 379.5,336C 380.428,336.388 381.095,337.055 381.5,338C 380.456,339.174 379.456,340.341 378.5,341.5C 370.111,342.257 361.778,343.424 353.5,345C 343.093,345.926 332.759,345.592 322.5,344C 318.553,341.72 314.887,339.053 311.5,336C 302.149,326.249 292.816,316.582 283.5,307C 282.667,306.833 281.833,306.667 281,306.5C 269.318,315.538 257.151,323.704 244.5,331C 231.677,336.707 218.344,340.874 204.5,343.5C 203.167,343.5 201.833,343.5 200.5,343.5C 200.178,341.278 200.845,339.444 202.5,338C 227.9,329.969 250.233,316.803 269.5,298.5C 270.695,298.134 271.361,297.301 271.5,296C 270.561,294.056 269.227,292.389 267.5,291C 259.058,284.701 250.558,278.535 242,272.5C 228.558,285.788 213.391,296.455 196.5,304.5C 194.314,304.489 193.481,303.489 194,301.5C 216.549,283.957 235.549,263.29 251,239.5C 251.813,237.564 252.313,235.564 252.5,233.5C 252.5,231.833 252.5,230.167 252.5,228.5C 242.38,231.035 232.38,234.202 222.5,238C 219.802,238.815 217.468,238.315 215.5,236.5C 215.173,231.786 215.507,227.12 216.5,222.5C 221,218.962 226,216.462 231.5,215C 248.311,204.604 263.977,192.771 278.5,179.5C 280.63,177.873 282.63,176.04 284.5,174C 276.022,173.831 267.689,174.831 259.5,177C 249.488,180.094 239.655,183.594 230,187.5C 227.808,187.137 225.974,186.137 224.5,184.5C 223.632,180.192 223.466,175.859 224,171.5C 225.167,170.333 226.333,169.167 227.5,168C 231.944,166.889 235.944,164.889 239.5,162C 250.617,151.228 259.784,139.061 267,125.5C 268.03,121.227 268.697,116.894 269,112.5C 271.892,110.327 275.059,109.994 278.5,111.5C 283.38,113.523 287.88,116.19 292,119.5C 292.678,121.598 292.511,123.598 291.5,125.5 Z"/></g>
<g><path style="opacity:0.773" fill="#d9c7a4" d="M 362.5,96.5 C 364.011,98.4758 364.844,100.809 365,103.5C 365.833,104.333 366.667,105.167 367.5,106C 371.819,106.76 376.152,107.427 380.5,108C 381.337,109.011 381.67,110.178 381.5,111.5C 383.288,111.215 384.955,111.548 386.5,112.5C 388.043,115.086 389.709,117.586 391.5,120C 395.032,121.928 398.366,124.095 401.5,126.5C 401.44,127.043 401.107,127.376 400.5,127.5C 397.661,125.58 394.661,123.913 391.5,122.5C 388.453,121.125 387.12,118.792 387.5,115.5C 384.873,114.908 382.206,114.575 379.5,114.5C 379.5,112.833 379.5,111.167 379.5,109.5C 373.636,110.257 368.303,108.924 363.5,105.5C 362.516,102.572 362.183,99.5719 362.5,96.5 Z"/></g>
<g><path style="opacity:0.996" fill="#c02d1c" d="M 210.5,143.5 C 207.044,145.783 203.71,148.283 200.5,151C 187.651,165.526 173.318,178.192 157.5,189C 151.904,192.462 146.237,195.628 140.5,198.5C 139.5,198.5 138.5,198.5 137.5,198.5C 137.351,197.448 137.517,196.448 138,195.5C 154.1,180.405 169.1,164.405 183,147.5C 184.271,144.567 185.938,141.901 188,139.5C 188.881,134.719 190.381,130.219 192.5,126C 195.017,125.743 197.35,126.41 199.5,128C 204.234,131.4 208.234,135.4 211.5,140C 211.011,141.138 210.678,142.305 210.5,143.5 Z"/></g>
<g><path style="opacity:0.996" fill="#4b3c38" d="M 291.5,125.5 C 292.613,126.946 292.78,128.613 292,130.5C 283.845,136.989 276.012,143.823 268.5,151C 262.297,157.035 256.297,163.202 250.5,169.5C 249.107,170.26 247.607,170.926 246,171.5C 245.167,171.167 244.333,170.833 243.5,170.5C 258.263,154.13 274.263,139.13 291.5,125.5 Z"/></g>
<g><path style="opacity:0.239" fill="#e8dbc0" d="M 402.5,127.5 C 406.855,129.855 410.188,133.188 412.5,137.5C 408.145,135.145 404.812,131.812 402.5,127.5 Z"/></g>
<g><path style="opacity:0.169" fill="#e3d5b9" d="M 77.5,119.5 C 76.1701,123.918 73.1701,125.585 68.5,124.5C 68.6621,126.527 68.4955,128.527 68,130.5C 64.1973,136.439 61.1973,142.773 59,149.5C 58.2411,151.063 57.0744,152.063 55.5,152.5C 58.8199,144.361 62.8199,136.528 67.5,129C 66.4238,127.274 66.2571,125.441 67,123.5C 70.9696,123.209 74.4696,121.876 77.5,119.5 Z"/></g>
<g><path style="opacity:0.996" fill="#493c38" d="M 210.5,143.5 C 210.66,145.199 210.494,146.866 210,148.5C 198.167,159.667 186.333,170.833 174.5,182C 164.316,190.51 153.316,197.843 141.5,204C 140.207,204.49 138.873,204.657 137.5,204.5C 137.615,202.053 138.615,200.053 140.5,198.5C 146.237,195.628 151.904,192.462 157.5,189C 173.318,178.192 187.651,165.526 200.5,151C 203.71,148.283 207.044,145.783 210.5,143.5 Z"/></g>
<g><path style="opacity:0.494" fill="#e4d6b7" d="M 412.5,137.5 C 414.635,142.343 417.301,147.009 420.5,151.5C 418.177,148.182 415.177,145.516 411.5,143.5C 412.348,141.591 412.682,139.591 412.5,137.5 Z"/></g>
<g><path style="opacity:0.075" fill="#e5d8ba" d="M 420.5,152.5 C 422.373,156.515 423.373,160.849 423.5,165.5C 421.882,161.425 420.882,157.092 420.5,152.5 Z"/></g>
<g><path style="opacity:0.996" fill="#483b38" d="M 330.5,157.5 C 331.942,159.817 331.608,161.984 329.5,164C 303.459,179.684 278.459,196.851 254.5,215.5C 251.713,217.253 248.713,217.586 245.5,216.5C 272.675,195.086 301.009,175.419 330.5,157.5 Z"/></g>
<g><path style="opacity:0.161" fill="#e5d8c0" d="M 55.5,152.5 C 55.313,154.564 54.813,156.564 54,158.5C 47.9571,169.287 42.2904,180.287 37,191.5C 36.6667,198.833 36.3333,206.167 36,213.5C 34.8333,214.667 33.6667,215.833 32.5,217C 33.6853,218.353 35.0186,219.52 36.5,220.5C 35.9953,221.919 34.9953,222.585 33.5,222.5C 33.6107,221.883 33.944,221.383 34.5,221C 30.4847,218.01 30.6513,215.177 35,212.5C 35.3333,205.167 35.6667,197.833 36,190.5C 41.9609,177.424 48.4609,164.757 55.5,152.5 Z"/></g>
<g><path style="opacity:0.996" fill="#463b38" d="M 278.5,179.5 C 261.563,181.846 245.396,186.513 230,193.5C 225.667,192.189 223.834,189.189 224.5,184.5C 225.974,186.137 227.808,187.137 230,187.5C 239.655,183.594 249.488,180.094 259.5,177C 267.689,174.831 276.022,173.831 284.5,174C 282.63,176.04 280.63,177.873 278.5,179.5 Z"/></g>
<g><path style="opacity:0.996" fill="#c02c1b" d="M 206.5,199.5 C 202.606,202.371 198.773,205.371 195,208.5C 188.706,216.462 182.04,224.129 175,231.5C 174.123,233.674 174.623,235.341 176.5,236.5C 176.108,239.722 176.608,242.722 178,245.5C 178.5,276.832 178.667,308.165 178.5,339.5C 178.5,341.167 178.5,342.833 178.5,344.5C 177.609,346.291 176.609,348.124 175.5,350C 174.167,350.667 172.833,350.667 171.5,350C 168.086,345.321 165.086,340.488 162.5,335.5C 161.884,332.92 161.551,330.253 161.5,327.5C 165.667,300.999 167.667,274.332 167.5,247.5C 167.5,245.5 167.5,243.5 167.5,241.5C 162.201,244.274 157.534,248.107 153.5,253C 142.621,262.274 130.621,269.774 117.5,275.5C 115.656,274.796 115.156,273.463 116,271.5C 142.5,251 164.833,226.666 183,198.5C 186.076,192.978 188.242,187.145 189.5,181C 190.833,180.333 192.167,180.333 193.5,181C 197.993,184.493 202.159,188.327 206,192.5C 206.497,194.81 206.663,197.143 206.5,199.5 Z"/></g>
<g><path style="opacity:0.962" fill="#d0b98d" d="M 423.5,165.5 C 426.034,171.798 427.034,178.464 426.5,185.5C 426.75,195.503 427.084,205.503 427.5,215.5C 425.787,199.166 424.454,182.5 423.5,165.5 Z"/></g>
<g><path style="opacity:0.996" fill="#4d3c37" d="M 302.5,198.5 C 305.527,200.529 307.86,203.196 309.5,206.5C 308.311,207.429 306.978,207.762 305.5,207.5C 304.164,205.99 302.997,204.323 302,202.5C 301.235,200.934 301.402,199.601 302.5,198.5 Z"/></g>
<g><path style="opacity:0.996" fill="#493c38" d="M 206.5,199.5 C 206.662,201.527 206.495,203.527 206,205.5C 201.296,208.692 196.962,212.358 193,216.5C 186.91,222.749 181.41,229.416 176.5,236.5C 174.623,235.341 174.123,233.674 175,231.5C 182.04,224.129 188.706,216.462 195,208.5C 198.773,205.371 202.606,202.371 206.5,199.5 Z"/></g>
<g><path style="opacity:0.996" fill="#473c38" d="M 338.5,228.5 C 339.74,236.012 336.74,239.179 329.5,238C 325.667,232.833 321.833,227.667 318,222.5C 316.561,220.552 314.728,219.219 312.5,218.5C 296.773,222.282 281.106,225.949 265.5,229.5C 261.862,229.553 259.862,227.887 259.5,224.5C 277.332,220.889 295.165,217.222 313,213.5C 314.711,213.439 316.044,214.106 317,215.5C 321.167,221 325.333,226.5 329.5,232C 333.608,233.335 336.608,232.168 338.5,228.5 Z"/></g>
<g><path style="opacity:0.086" fill="#f0e9da" d="M 426.5,185.5 C 428.09,196.622 428.923,207.956 429,219.5C 430.052,223.405 431.552,227.071 433.5,230.5C 431.887,230.056 430.72,229.056 430,227.5C 428.53,223.622 427.697,219.622 427.5,215.5C 427.084,205.503 426.75,195.503 426.5,185.5 Z"/></g>
<g><path style="opacity:0.976" fill="#ddc9a5" d="M 33.5,222.5 C 31.9545,228.992 32.2879,235.325 34.5,241.5C 33.2101,240.942 32.3768,239.942 32,238.5C 30,233.5 30,228.5 32,223.5C 32.3826,222.944 32.8826,222.611 33.5,222.5 Z"/></g>
<g><path style="opacity:0.996" fill="#463c39" d="M 252.5,233.5 C 241.439,236.729 230.606,240.395 220,244.5C 218.833,244.167 217.667,243.833 216.5,243.5C 215.626,241.253 215.292,238.92 215.5,236.5C 217.468,238.315 219.802,238.815 222.5,238C 232.38,234.202 242.38,231.035 252.5,228.5C 252.5,230.167 252.5,231.833 252.5,233.5 Z"/></g>
<g><path style="opacity:0.996" fill="#4f3c37" d="M 270.5,240.5 C 270.66,242.199 270.494,243.866 270,245.5C 268.624,246.705 267.458,248.038 266.5,249.5C 265.432,250.434 264.099,250.768 262.5,250.5C 263.321,245.68 265.988,242.347 270.5,240.5 Z"/></g>
<g><path style="opacity:0.996" fill="#493c38" d="M 167.5,247.5 C 166.448,247.351 165.448,247.517 164.5,248C 150.446,262.679 134.113,273.846 115.5,281.5C 115.253,279.142 115.919,277.142 117.5,275.5C 130.621,269.774 142.621,262.274 153.5,253C 157.534,248.107 162.201,244.274 167.5,241.5C 167.5,243.5 167.5,245.5 167.5,247.5 Z"/></g>
<g><path style="opacity:0.994" fill="#13110d" d="M 38.5,246.5 C 39.0649,249.421 40.2316,252.088 42,254.5C 42.4988,258.486 42.6655,262.486 42.5,266.5C 37.4646,261.229 35.2979,254.896 36,247.5C 36.6708,246.748 37.5041,246.414 38.5,246.5 Z"/></g>
<g><path style="opacity:0.392" fill="#a6a29d" d="M 34.5,241.5 C 36.522,242.507 37.8553,244.174 38.5,246.5C 37.5041,246.414 36.6708,246.748 36,247.5C 35.2979,254.896 37.4646,261.229 42.5,266.5C 42.5,267.5 42.5,268.5 42.5,269.5C 42.1667,269.5 41.8333,269.5 41.5,269.5C 36.2405,263.138 33.7405,255.805 34,247.5C 35.6885,245.68 35.8552,243.68 34.5,241.5 Z"/></g>
<g><path style="opacity:0.996" fill="#463c39" d="M 292.5,259.5 C 283.634,259.579 274.967,260.579 266.5,262.5C 263.076,262.705 259.909,262.039 257,260.5C 254.336,262.998 251.836,265.665 249.5,268.5C 247.314,268.489 246.481,267.489 247,265.5C 249.951,262.428 252.784,259.261 255.5,256C 256.167,255.833 256.833,255.667 257.5,255.5C 259.745,256.924 262.245,257.59 265,257.5C 270.877,256.474 276.71,255.307 282.5,254C 285.5,253.333 288.5,253.333 291.5,254C 293.553,255.678 293.887,257.511 292.5,259.5 Z"/></g>
<g><path style="opacity:0.996" fill="#b38f51" d="M 292.5,259.5 C 290.373,268.81 286.207,277.143 280,284.5C 279.517,285.448 279.351,286.448 279.5,287.5C 278.448,287.649 277.448,287.483 276.5,287C 267.781,280.316 258.781,274.15 249.5,268.5C 251.836,265.665 254.336,262.998 257,260.5C 259.909,262.039 263.076,262.705 266.5,262.5C 274.967,260.579 283.634,259.579 292.5,259.5 Z"/></g>
<g><path style="opacity:0.996" fill="#ae4b2d" d="M 176.5,236.5 C 177.384,239.023 178.218,241.69 179,244.5C 180.003,254.639 180.503,264.805 180.5,275C 180.141,296.671 179.475,318.171 178.5,339.5C 178.667,308.165 178.5,276.832 178,245.5C 176.608,242.722 176.108,239.722 176.5,236.5 Z"/></g>
<g><path style="opacity:0.996" fill="#483d39" d="M 269.5,298.5 C 260.473,291.639 251.306,284.972 242,278.5C 229.989,290.418 216.489,300.251 201.5,308C 199.26,308.977 196.927,309.477 194.5,309.5C 194.392,307.486 195.058,305.82 196.5,304.5C 213.391,296.455 228.558,285.788 242,272.5C 250.558,278.535 259.058,284.701 267.5,291C 269.227,292.389 270.561,294.056 271.5,296C 271.361,297.301 270.695,298.134 269.5,298.5 Z"/></g>
<g><path style="opacity:0.078" fill="#e0d4c0" d="M 433.5,230.5 C 438.749,236.973 440.249,244.307 438,252.5C 434.838,254.912 435.005,257.245 438.5,259.5C 437.5,260.833 436.5,262.167 435.5,263.5C 436.022,264.607 436.355,265.774 436.5,267C 435.144,272.907 434.144,278.74 433.5,284.5C 433.284,276.075 433.95,267.742 435.5,259.5C 434.389,258.389 433.722,257.055 433.5,255.5C 437.255,250.429 438.422,244.763 437,238.5C 435.007,236.182 433.841,233.516 433.5,230.5 Z"/></g>
<g><path style="opacity:0.247" fill="#eadec6" d="M 41.5,269.5 C 41.8333,269.5 42.1667,269.5 42.5,269.5C 43.6489,282.436 44.6489,295.436 45.5,308.5C 43.1295,295.755 41.7962,282.755 41.5,269.5 Z"/></g>
<g><path style="opacity:0.996" fill="#4e3c37" d="M 320.5,255.5 C 320.66,257.199 320.494,258.866 320,260.5C 316.368,263.13 313.035,266.13 310,269.5C 304.396,279.719 298.562,289.719 292.5,299.5C 289.924,299.278 289.09,297.945 290,295.5C 296.838,287.837 302.171,279.171 306,269.5C 309.402,263.263 314.236,258.596 320.5,255.5 Z"/></g>
<g><path style="opacity:0.997" fill="#080705" d="M 429.5,292.5 C 429.722,298.111 429.056,303.611 427.5,309C 421.952,318.594 416.785,328.428 412,338.5C 411.187,340.436 410.687,342.436 410.5,344.5C 408.896,345.287 408.229,346.62 408.5,348.5C 405.244,351.336 403.244,355.003 402.5,359.5C 401.25,359.577 400.417,360.244 400,361.5C 398.851,364.393 398.351,367.393 398.5,370.5C 396.473,370.338 394.473,370.505 392.5,371C 375.188,389.648 355.521,405.315 333.5,418C 332.177,418.816 331.511,419.983 331.5,421.5C 326.145,424.342 321.478,428.175 317.5,433C 316.833,433.167 316.167,433.333 315.5,433.5C 313.783,432.283 311.95,431.283 310,430.5C 308.3,432.606 306.133,434.106 303.5,435C 292.663,434.901 281.829,434.401 271,433.5C 260.145,433.807 249.312,434.474 238.5,435.5C 231.406,435.153 224.406,434.153 217.5,432.5C 209.681,435.744 201.681,438.411 193.5,440.5C 190.655,440.735 187.822,441.068 185,441.5C 181.17,440.75 177.337,440.083 173.5,439.5C 162.062,432.564 150.062,426.564 137.5,421.5C 136.525,419.807 135.192,418.307 133.5,417C 128.057,413.919 122.724,410.753 117.5,407.5C 117.167,405.167 115.833,403.833 113.5,403.5C 112.872,400.91 111.705,398.577 110,396.5C 109.503,394.19 109.337,391.857 109.5,389.5C 108.167,389.5 106.833,389.5 105.5,389.5C 105.119,388.069 104.119,387.236 102.5,387C 99.1832,386.502 95.8499,386.335 92.5,386.5C 92.7989,384.396 92.4656,382.396 91.5,380.5C 89.802,381.681 88.1353,381.681 86.5,380.5C 85.6667,378.833 84.8333,377.167 84,375.5C 82.9887,374.663 81.8221,374.33 80.5,374.5C 73.2308,369.234 66.5642,363.234 60.5,356.5C 60.1667,356 59.8333,355.5 59.5,355C 60.7073,353.7 61.3739,352.2 61.5,350.5C 59.2776,350.822 57.4443,350.155 56,348.5C 54.4061,343.831 52.5728,339.498 50.5,335.5C 50.1667,331.5 49.8333,327.5 49.5,323.5C 51.4011,327.074 54.0677,330.074 57.5,332.5C 56.5153,334.098 56.3486,335.765 57,337.5C 66.7765,347.737 77.6099,356.07 89.5,362.5C 89.5,364.167 89.5,365.833 89.5,367.5C 95.1621,367.199 100.495,368.366 105.5,371C 106.16,376.488 108.326,381.321 112,385.5C 131.817,402.499 154.317,414.999 179.5,423C 184.167,423.667 188.833,423.667 193.5,423C 201.24,420.053 209.073,417.22 217,414.5C 220.443,415.569 223.943,416.402 227.5,417C 242.868,417.653 258.201,417.153 273.5,415.5C 281.928,415.738 290.262,416.738 298.5,418.5C 303.704,418.398 308.037,416.398 311.5,412.5C 313.658,415.33 316.324,415.997 319.5,414.5C 324.225,408.975 329.558,404.142 335.5,400C 348.305,391.361 360.971,382.528 373.5,373.5C 380.86,366.472 388.193,359.472 395.5,352.5C 397.396,351.534 399.396,351.201 401.5,351.5C 401.337,349.143 401.503,346.81 402,344.5C 411.452,327.304 420.619,309.971 429.5,292.5 Z"/></g>
<g><path style="opacity:0.996" fill="#473c39" d="M 378.5,341.5 C 379.806,342.467 380.473,343.801 380.5,345.5C 370.587,347.649 360.587,349.482 350.5,351C 341.091,351.917 331.758,351.584 322.5,350C 318.217,347.385 314.217,344.385 310.5,341C 301.322,330.655 291.655,320.822 281.5,311.5C 269.791,321.367 257.124,329.867 243.5,337C 229.794,343.243 215.46,347.41 200.5,349.5C 200.238,348.022 200.571,346.689 201.5,345.5C 202.739,345.058 203.739,344.391 204.5,343.5C 218.344,340.874 231.677,336.707 244.5,331C 257.151,323.704 269.318,315.538 281,306.5C 281.833,306.667 282.667,306.833 283.5,307C 292.816,316.582 302.149,326.249 311.5,336C 314.887,339.053 318.553,341.72 322.5,344C 332.759,345.592 343.093,345.926 353.5,345C 361.778,343.424 370.111,342.257 378.5,341.5 Z"/></g>
<g><path style="opacity:0.11" fill="#ababa9" d="M 433.5,284.5 C 433.076,287.354 432.076,290.021 430.5,292.5C 431.26,297.466 431.093,302.466 430,307.5C 423.951,320.274 417.451,332.607 410.5,344.5C 410.687,342.436 411.187,340.436 412,338.5C 416.785,328.428 421.952,318.594 427.5,309C 429.056,303.611 429.722,298.111 429.5,292.5C 430.326,289.515 431.659,286.849 433.5,284.5 Z"/></g>
<g><path style="opacity:0.255" fill="#bfb9af" d="M 45.5,308.5 C 46.6491,308.791 47.3158,309.624 47.5,311C 48.1277,315.194 48.7944,319.361 49.5,323.5C 49.8333,327.5 50.1667,331.5 50.5,335.5C 47.946,326.795 46.2793,317.795 45.5,308.5 Z"/></g>
<g><path style="opacity:0.031" fill="#aeaeae" d="M 410.5,344.5 C 410.771,346.38 410.104,347.713 408.5,348.5C 408.229,346.62 408.896,345.287 410.5,344.5 Z"/></g>
<g><path style="opacity:0.996" fill="#4b3f39" d="M 162.5,335.5 C 165.086,340.488 168.086,345.321 171.5,350C 172.833,350.667 174.167,350.667 175.5,350C 176.609,348.124 177.609,346.291 178.5,344.5C 178.24,348.302 177.406,351.969 176,355.5C 174.951,356.517 173.784,356.684 172.5,356C 167.146,350.127 163.813,343.293 162.5,335.5 Z"/></g>
<g><path style="opacity:0.294" fill="#9f9f9f" d="M 408.5,348.5 C 407.258,352.655 405.258,356.322 402.5,359.5C 403.244,355.003 405.244,351.336 408.5,348.5 Z"/></g>
<g><path style="opacity:0.188" fill="#9e9e9e" d="M 50.5,335.5 C 52.5728,339.498 54.4061,343.831 56,348.5C 57.4443,350.155 59.2776,350.822 61.5,350.5C 61.3739,352.2 60.7073,353.7 59.5,355C 59.8333,355.5 60.1667,356 60.5,356.5C 66.5642,363.234 73.2308,369.234 80.5,374.5C 67.3349,367.839 57.8349,357.839 52,344.5C 51.304,341.522 50.804,338.522 50.5,335.5 Z"/></g>
<g><path style="opacity:0.125" fill="#9f9e9e" d="M 402.5,359.5 C 402.076,362.354 401.076,365.021 399.5,367.5C 400.747,369.042 400.747,370.542 399.5,372C 396.711,372.241 394.044,372.908 391.5,374C 383.797,383.371 375.13,391.704 365.5,399C 354.348,406.745 343.015,414.245 331.5,421.5C 331.511,419.983 332.177,418.816 333.5,418C 355.521,405.315 375.188,389.648 392.5,371C 394.473,370.505 396.473,370.338 398.5,370.5C 398.351,367.393 398.851,364.393 400,361.5C 400.417,360.244 401.25,359.577 402.5,359.5 Z"/></g>
<g><path style="opacity:0.122" fill="#9d9d9d" d="M 80.5,374.5 C 81.8221,374.33 82.9887,374.663 84,375.5C 84.8333,377.167 85.6667,378.833 86.5,380.5C 88.1353,381.681 89.802,381.681 91.5,380.5C 92.4656,382.396 92.7989,384.396 92.5,386.5C 95.8499,386.335 99.1832,386.502 102.5,387C 104.119,387.236 105.119,388.069 105.5,389.5C 100.893,388.446 96.2268,387.779 91.5,387.5C 91.5,386.167 91.5,384.833 91.5,383.5C 89.8008,383.66 88.1341,383.494 86.5,383C 84.6133,380.05 82.6133,377.216 80.5,374.5 Z"/></g>
<g><path style="opacity:0.325" fill="#848483" d="M 105.5,389.5 C 106.833,389.5 108.167,389.5 109.5,389.5C 109.337,391.857 109.503,394.19 110,396.5C 111.705,398.577 112.872,400.91 113.5,403.5C 111.926,403.063 110.759,402.063 110,400.5C 108.504,396.723 107.004,393.057 105.5,389.5 Z"/></g>
<g><path style="opacity:0.541" fill="#908f8f" d="M 113.5,403.5 C 115.833,403.833 117.167,405.167 117.5,407.5C 115.736,406.674 114.402,405.341 113.5,403.5 Z"/></g>
<g><path style="opacity:0.792" fill="#787878" d="M 117.5,407.5 C 122.724,410.753 128.057,413.919 133.5,417C 135.192,418.307 136.525,419.807 137.5,421.5C 129.775,418.308 123.109,413.641 117.5,407.5 Z"/></g>
<g><path style="opacity:0.455" fill="#8d8d8d" d="M 137.5,421.5 C 150.062,426.564 162.062,432.564 173.5,439.5C 160.785,434.824 148.785,428.824 137.5,421.5 Z"/></g>
<g><path style="opacity:0.162" fill="#a2a1a1" d="M 331.5,421.5 C 326.528,426.301 321.362,430.968 316,435.5C 314.108,434.87 312.441,433.87 311,432.5C 307.529,435.153 303.696,437.153 299.5,438.5C 290.809,436.33 281.975,434.997 273,434.5C 257.532,436.14 242.032,436.64 226.5,436C 223.373,435.608 220.373,434.775 217.5,433.5C 206.97,439.622 195.637,442.789 183.5,443C 179.837,442.428 176.503,441.262 173.5,439.5C 177.337,440.083 181.17,440.75 185,441.5C 187.822,441.068 190.655,440.735 193.5,440.5C 201.681,438.411 209.681,435.744 217.5,432.5C 224.406,434.153 231.406,435.153 238.5,435.5C 249.312,434.474 260.145,433.807 271,433.5C 281.829,434.401 292.663,434.901 303.5,435C 306.133,434.106 308.3,432.606 310,430.5C 311.95,431.283 313.783,432.283 315.5,433.5C 316.167,433.333 316.833,433.167 317.5,433C 321.478,428.175 326.145,424.342 331.5,421.5 Z"/></g>
</svg>
