<?xml version="1.0" encoding="UTF-8"?>
<!DOCTYPE svg PUBLIC "-//W3C//DTD SVG 1.1//EN" "http://www.w3.org/Graphics/SVG/1.1/DTD/svg11.dtd">
<svg xmlns="http://www.w3.org/2000/svg" version="1.1" width="453px" height="454px" style="shape-rendering:geometricPrecision; text-rendering:geometricPrecision; image-rendering:optimizeQuality; fill-rule:evenodd; clip-rule:evenodd" xmlns:xlink="http://www.w3.org/1999/xlink">
<g><path style="opacity:0.996" fill="#b59352" d="M 326.5,69.5 C 326.833,69.5 327.167,69.5 327.5,69.5C 331.831,73.8569 336.831,77.5235 342.5,80.5C 343.107,80.3764 343.44,80.0431 343.5,79.5C 344.167,79.5 344.5,79.8333 344.5,80.5C 349.167,85.5 353.833,90.5 358.5,95.5C 360.223,97.78 360.889,100.447 360.5,103.5C 360.577,104.75 361.244,105.583 362.5,106C 366.77,107.075 371.103,107.575 375.5,107.5C 375.5,109.167 375.5,110.833 375.5,112.5C 377.527,112.338 379.527,112.505 381.5,113C 382.317,116.315 384.317,118.482 387.5,119.5C 392.665,121.338 396.999,124.338 400.5,128.5C 401.658,131.93 403.992,134.263 407.5,135.5C 407.511,137.017 408.177,138.184 409.5,139C 408.707,140.085 408.04,141.252 407.5,142.5C 412.532,144.884 415.366,148.884 416,154.5C 417.13,162.948 418.797,171.281 421,179.5C 421.888,192.822 422.555,206.155 423,219.5C 423.122,221.437 423.955,222.77 425.5,223.5C 427.455,229.411 429.955,235.077 433,240.5C 434.582,246.097 433.082,250.597 428.5,254C 430.916,255.474 431.916,257.64 431.5,260.5C 430.833,260.5 430.5,260.833 430.5,261.5C 428.656,263.279 427.99,265.612 428.5,268.5C 428.972,276.386 427.972,284.052 425.5,291.5C 424.624,291.369 423.957,291.702 423.5,292.5C 418.312,303.541 413.145,314.541 408,325.5C 404.401,331.034 401.068,336.701 398,342.5C 397.503,345.146 397.336,347.813 397.5,350.5C 394.68,350.248 392.014,350.748 389.5,352C 382.113,359.387 374.779,366.721 367.5,374C 348.059,386.048 329.726,399.548 312.5,414.5C 311.014,413.186 309.347,412.186 307.5,411.5C 300.063,417.973 291.73,419.307 282.5,415.5C 281.737,414.732 280.737,414.232 279.5,414C 259.172,414.037 238.839,414.203 218.5,414.5C 216.799,413.266 214.799,412.599 212.5,412.5C 210.645,412.34 209.312,413.007 208.5,414.5C 200.378,418.701 191.711,421.368 182.5,422.5C 178.764,422.472 175.097,421.972 171.5,421C 146.315,411.99 123.815,398.49 104,380.5C 103.086,376.858 102.252,373.192 101.5,369.5C 96.8466,367.142 91.8466,365.975 86.5,366C 85.6198,364.644 85.2865,363.144 85.5,361.5C 83.8008,361.66 82.1341,361.494 80.5,361C 78.8333,358.667 77.1667,356.333 75.5,354C 66.8205,349.737 59.3205,343.903 53,336.5C 52.3486,334.765 52.5153,333.098 53.5,331.5C 50.0855,329.09 47.4189,326.09 45.5,322.5C 44.8333,317.5 44.1667,312.5 43.5,307.5C 42.5242,299.97 41.1909,292.636 39.5,285.5C 39.5,280.167 39.5,274.833 39.5,269.5C 39.1667,268.167 38.8333,266.833 38.5,265.5C 39.6239,257.604 37.9573,250.604 33.5,244.5C 32.2768,240.951 30.2768,237.951 27.5,235.5C 27.5,234.833 27.5,234.167 27.5,233.5C 26.8976,227.805 28.5642,222.971 32.5,219C 31.556,217.523 30.2226,216.523 28.5,216C 29.6667,214.833 30.8333,213.667 32,212.5C 32.3333,206.5 32.6667,200.5 33,194.5C 33.1446,190.973 33.9779,187.64 35.5,184.5C 35.3764,183.893 35.0431,183.56 34.5,183.5C 34.5,182.833 34.8333,182.5 35.5,182.5C 36.7847,180.548 38.4514,178.882 40.5,177.5C 43.7913,168.612 47.4579,159.945 51.5,151.5C 52.4433,148.34 53.7767,145.34 55.5,142.5C 57.7409,141.7 58.7409,140.034 58.5,137.5C 62.6295,133.892 64.6295,129.226 64.5,123.5C 67.5641,123.856 70.2307,123.023 72.5,121C 77.1603,117.187 80.827,112.687 83.5,107.5C 85.7488,106.92 87.4154,105.587 88.5,103.5C 93.7461,100.589 98.4127,96.9225 102.5,92.5C 106.58,91.1356 109.913,88.8023 112.5,85.5C 119.172,83.827 124.505,80.1603 128.5,74.5C 132.363,73.3064 135.363,70.973 137.5,67.5C 140.899,65.6117 143.899,63.1117 146.5,60C 149.49,59.24 151.99,60.0733 154,62.5C 156.017,60.6507 157.85,58.6507 159.5,56.5C 170.546,57.7034 181.712,58.7034 193,59.5C 204.872,59.0186 216.705,58.0186 228.5,56.5C 235.293,57.2091 241.96,58.5424 248.5,60.5C 252.31,59.6671 255.643,58.0004 258.5,55.5C 270.773,50.5047 283.106,50.338 295.5,55C 305.564,60.4335 315.897,65.2669 326.5,69.5 Z"/></g>
<g><path style="opacity:0.412" fill="#e2d3b7" d="M 326.5,69.5 C 315.897,65.2669 305.564,60.4335 295.5,55C 283.106,50.338 270.773,50.5047 258.5,55.5C 258.611,54.8826 258.944,54.3826 259.5,54C 267.561,50.7516 275.895,49.4183 284.5,50C 299.366,54.8871 313.366,61.3871 326.5,69.5 Z"/></g>
<g><path style="opacity:0.157" fill="#e1d3b8" d="M 159.5,56.5 C 161.978,55.8359 164.645,55.5025 167.5,55.5C 175.813,56.6615 184.146,57.6615 192.5,58.5C 204.172,57.5734 215.839,56.5734 227.5,55.5C 234.755,55.5511 241.755,56.8844 248.5,59.5C 251.645,57.6871 254.978,56.3538 258.5,55.5C 255.643,58.0004 252.31,59.6671 248.5,60.5C 241.96,58.5424 235.293,57.2091 228.5,56.5C 216.705,58.0186 204.872,59.0186 193,59.5C 181.712,58.7034 170.546,57.7034 159.5,56.5 Z"/></g>
<g><path style="opacity:0.306" fill="#e2d4b8" d="M 159.5,56.5 C 157.85,58.6507 156.017,60.6507 154,62.5C 151.99,60.0733 149.49,59.24 146.5,60C 143.899,63.1117 140.899,65.6117 137.5,67.5C 140.499,63.6684 143.999,60.3351 148,57.5C 150.237,58.0563 152.237,59.0563 154,60.5C 155.451,58.5359 157.284,57.2026 159.5,56.5 Z"/></g>
<g><path style="opacity:0.384" fill="#e1d0b8" d="M 137.5,67.5 C 135.363,70.973 132.363,73.3064 128.5,74.5C 131.208,71.7915 134.208,69.4581 137.5,67.5 Z"/></g>
<g><path style="opacity:0.204" fill="#e1d0b4" d="M 327.5,69.5 C 333.099,72.4376 338.433,75.7709 343.5,79.5C 343.44,80.0431 343.107,80.3764 342.5,80.5C 336.831,77.5235 331.831,73.8569 327.5,69.5 Z"/></g>
<g><path style="opacity:0.906" fill="#d7c09b" d="M 128.5,74.5 C 124.505,80.1603 119.172,83.827 112.5,85.5C 117.477,81.3423 122.811,77.6757 128.5,74.5 Z"/></g>
<g><path style="opacity:0.224" fill="#e5d9be" d="M 344.5,80.5 C 350.572,84.2373 355.239,89.2373 358.5,95.5C 353.833,90.5 349.167,85.5 344.5,80.5 Z"/></g>
<g><path style="opacity:0.29" fill="#e6d9bd" d="M 112.5,85.5 C 109.913,88.8023 106.58,91.1356 102.5,92.5C 105.275,89.3954 108.608,87.0621 112.5,85.5 Z"/></g>
<g><path style="opacity:0.208" fill="#ded1b4" d="M 102.5,92.5 C 98.4127,96.9225 93.7461,100.589 88.5,103.5C 92.5873,99.0775 97.2539,95.4108 102.5,92.5 Z"/></g>
<g><path style="opacity:0.153" fill="#eee4d1" d="M 88.5,103.5 C 87.4154,105.587 85.7488,106.92 83.5,107.5C 84.5846,105.413 86.2512,104.08 88.5,103.5 Z"/></g>
<g><path style="opacity:0.416" fill="#decfb2" d="M 360.5,103.5 C 365.633,105.449 370.966,106.449 376.5,106.5C 376.433,109.766 378.099,111.266 381.5,111C 383.592,113.797 385.592,116.63 387.5,119.5C 384.317,118.482 382.317,116.315 381.5,113C 379.527,112.505 377.527,112.338 375.5,112.5C 375.5,110.833 375.5,109.167 375.5,107.5C 371.103,107.575 366.77,107.075 362.5,106C 361.244,105.583 360.577,104.75 360.5,103.5 Z"/></g>
<g><path style="opacity:0.996" fill="#bf2c1b" d="M 290.5,124.5 C 284.912,129.081 280.912,134.748 278.5,141.5C 279.5,141.5 280.5,141.5 281.5,141.5C 295.707,140.864 309.374,137.864 322.5,132.5C 329.855,134.599 336.022,138.599 341,144.5C 341.613,146.495 341.113,148.162 339.5,149.5C 334.265,153.227 329.432,157.56 325,162.5C 315.813,174.866 306.147,186.866 296,198.5C 295.517,199.448 295.351,200.448 295.5,201.5C 296.5,201.5 297.5,201.5 298.5,201.5C 304.015,203.576 309.349,206.242 314.5,209.5C 315.484,212.428 315.817,215.428 315.5,218.5C 312.828,220.391 311.828,223.058 312.5,226.5C 312.5,227.833 312.5,229.167 312.5,230.5C 319.181,229.14 325.848,227.64 332.5,226C 344.929,223.391 356.095,225.891 366,233.5C 366.748,235.84 366.248,237.84 364.5,239.5C 346.813,239.252 329.146,239.586 311.5,240.5C 311.5,242.5 311.5,244.5 311.5,246.5C 312.215,271.852 313.215,297.186 314.5,322.5C 312.624,327.907 310.791,333.574 309,339.5C 307.058,344.937 303.558,348.937 298.5,351.5C 297.062,351.281 295.729,350.781 294.5,350C 286.478,338.14 276.144,328.973 263.5,322.5C 261.919,320.858 261.253,318.858 261.5,316.5C 266.237,316.881 270.904,317.714 275.5,319C 281.167,319.667 286.833,319.667 292.5,319C 293.667,317.167 294.833,315.333 296,313.5C 296.499,308.177 296.666,302.844 296.5,297.5C 297.665,291.199 298.332,284.699 298.5,278C 297.77,268.179 297.437,258.346 297.5,248.5C 297.5,246.5 297.5,244.5 297.5,242.5C 292.305,242.179 287.305,242.513 282.5,243.5C 270.784,245.127 259.117,247.127 247.5,249.5C 249.264,251.278 251.264,252.611 253.5,253.5C 258.371,256.794 262.704,260.794 266.5,265.5C 268.716,269.347 269.05,273.347 267.5,277.5C 266.493,280.643 264.827,283.477 262.5,286C 261.167,286.667 259.833,286.667 258.5,286C 251.771,274.951 246.104,263.451 241.5,251.5C 241.5,250.833 241.167,250.5 240.5,250.5C 239.903,249.861 239.07,249.528 238,249.5C 234.667,250.167 231.333,250.833 228,251.5C 224.47,250.884 220.97,250.218 217.5,249.5C 216.833,249.5 216.167,249.5 215.5,249.5C 213.479,248.145 211.812,246.479 210.5,244.5C 211.289,244.217 211.956,243.717 212.5,243C 220.226,242.927 225.893,242.427 229.5,241.5C 229.286,239.856 229.62,238.356 230.5,237C 242.123,230.367 252.79,222.533 262.5,213.5C 263.5,213.167 264.167,212.5 264.5,211.5C 265.239,211.631 265.906,211.464 266.5,211C 284.09,193.931 298.756,174.764 310.5,153.5C 312.074,151.898 312.741,149.898 312.5,147.5C 306.541,148.489 300.541,149.156 294.5,149.5C 288.141,149.654 281.808,149.321 275.5,148.5C 273.667,148.585 272.334,149.252 271.5,150.5C 268.507,153.501 265.841,156.835 263.5,160.5C 264.689,161.429 266.022,161.762 267.5,161.5C 274.997,162.81 281.163,166.477 286,172.5C 286.497,175.146 286.664,177.813 286.5,180.5C 283.823,182.432 280.823,182.932 277.5,182C 272.199,175.691 266.033,170.524 259,166.5C 252.906,171.092 247.739,176.425 243.5,182.5C 245.167,182.5 246.833,182.5 248.5,182.5C 255.194,184.67 260.694,188.67 265,194.5C 267.257,199.195 266.757,203.528 263.5,207.5C 261.801,207.66 260.134,207.494 258.5,207C 252.561,199.259 246.061,192.093 239,185.5C 232.574,189.962 226.074,194.295 219.5,198.5C 218.351,198.209 217.684,197.376 217.5,196C 234.547,178.273 249.381,158.773 262,137.5C 263.629,133.254 265.629,129.254 268,125.5C 268.499,119.509 268.666,113.509 268.5,107.5C 277.7,107.836 285.2,111.503 291,118.5C 291.678,120.598 291.511,122.598 290.5,124.5 Z"/></g>
<g><path style="opacity:0.486" fill="#e2d4b8" d="M 83.5,107.5 C 80.827,112.687 77.1603,117.187 72.5,121C 70.2307,123.023 67.5641,123.856 64.5,123.5C 64.6295,129.226 62.6295,133.892 58.5,137.5C 59.3795,134.738 60.5462,132.071 62,129.5C 62.3333,127.167 62.6667,124.833 63,122.5C 65.8587,121.827 68.692,120.993 71.5,120C 75.7312,115.938 79.7312,111.771 83.5,107.5 Z"/></g>
<g><path style="opacity:0.996" fill="#c02b1b" d="M 215.5,133.5 C 212.134,140.32 210.467,147.654 210.5,155.5C 209.817,169.402 209.151,183.402 208.5,197.5C 206.523,241.659 205.19,285.993 204.5,330.5C 204.5,331.5 204.5,332.5 204.5,333.5C 201.877,341.198 197.71,342.198 192,336.5C 189.019,332.077 186.852,327.411 185.5,322.5C 185.609,313.79 187.442,305.456 191,297.5C 192.294,287.533 193.127,277.533 193.5,267.5C 195.043,259.384 195.71,251.05 195.5,242.5C 195.5,240.5 195.5,238.5 195.5,236.5C 187.393,236.789 179.726,238.455 172.5,241.5C 169.794,241.575 167.127,241.908 164.5,242.5C 164.273,244.933 165.273,246.599 167.5,247.5C 169.619,250.306 169.952,253.306 168.5,256.5C 167.034,257.347 166.2,258.68 166,260.5C 163.21,270.111 160.543,279.777 158,289.5C 149.211,305.457 136.711,317.457 120.5,325.5C 118.727,324.686 118.227,323.352 119,321.5C 133.607,307.623 143.607,290.957 149,271.5C 150.801,265.63 151.635,259.63 151.5,253.5C 152.451,252.081 152.784,250.415 152.5,248.5C 149.813,248.336 147.146,248.503 144.5,249C 138.459,251.402 132.292,253.236 126,254.5C 119.359,254.096 113.859,251.429 109.5,246.5C 107.478,244.581 107.144,242.414 108.5,240C 116.853,239.832 125.187,239.332 133.5,238.5C 141.119,237.016 148.786,235.849 156.5,235C 169.712,232.574 182.712,229.74 195.5,226.5C 196.494,217.014 196.827,207.348 196.5,197.5C 194.901,197.232 193.568,197.566 192.5,198.5C 189.061,198.788 185.728,199.454 182.5,200.5C 179.478,200.804 176.478,201.304 173.5,202C 172.944,202.383 172.611,202.883 172.5,203.5C 165.712,205.729 159.378,208.729 153.5,212.5C 152.5,212.333 151.5,212.167 150.5,212C 148.172,208.484 145.505,205.318 142.5,202.5C 141.622,198.045 143.122,194.711 147,192.5C 151.512,183.152 152.679,173.485 150.5,163.5C 149.832,158.166 147.165,154.166 142.5,151.5C 140.478,149.581 140.144,147.414 141.5,145C 151.295,145.075 159.795,148.575 167,155.5C 167.495,157.473 167.662,159.473 167.5,161.5C 166.21,162.058 165.377,163.058 165,164.5C 163.338,173.962 163.172,183.295 164.5,192.5C 165.274,193.147 166.274,193.48 167.5,193.5C 169.909,192.936 172.242,192.103 174.5,191C 181.395,190.247 188.229,189.413 195,188.5C 195.5,172.837 195.667,157.17 195.5,141.5C 195.304,133.956 192.971,127.289 188.5,121.5C 187.659,119.621 187.325,117.621 187.5,115.5C 190.518,115.335 193.518,115.502 196.5,116C 203.692,118.18 209.859,122.013 215,127.5C 215.495,129.473 215.662,131.473 215.5,133.5 Z"/></g>
<g><path style="opacity:0.616" fill="#decdae" d="M 400.5,128.5 C 401.239,128.369 401.906,128.536 402.5,129C 404.742,130.77 406.408,132.937 407.5,135.5C 403.992,134.263 401.658,131.93 400.5,128.5 Z"/></g>
<g><path style="opacity:0.996" fill="#6b4535" d="M 188.5,121.5 C 192.971,127.289 195.304,133.956 195.5,141.5C 193.486,136.315 190.986,131.315 188,126.5C 187.36,124.735 187.527,123.068 188.5,121.5 Z"/></g>
<g><path style="opacity:0.996" fill="#4d3e38" d="M 290.5,124.5 C 291.598,125.601 291.765,126.934 291,128.5C 287.204,132.449 284.037,136.783 281.5,141.5C 280.5,141.5 279.5,141.5 278.5,141.5C 280.912,134.748 284.912,129.081 290.5,124.5 Z"/></g>
<g><path style="opacity:0.192" fill="#e4dbc2" d="M 58.5,137.5 C 58.7409,140.034 57.7409,141.7 55.5,142.5C 56.1103,140.566 57.1103,138.899 58.5,137.5 Z"/></g>
<g><path style="opacity:0.996" fill="#443c39" d="M 310.5,153.5 C 304.016,154.892 297.349,155.558 290.5,155.5C 284.152,155.09 277.819,154.923 271.5,155C 269.768,156.972 268.435,159.139 267.5,161.5C 266.022,161.762 264.689,161.429 263.5,160.5C 265.841,156.835 268.507,153.501 271.5,150.5C 279.25,150.554 286.916,150.221 294.5,149.5C 300.541,149.156 306.541,148.489 312.5,147.5C 312.741,149.898 312.074,151.898 310.5,153.5 Z"/></g>
<g><path style="opacity:0.996" fill="#742a26" d="M 294.5,149.5 C 286.916,150.221 279.25,150.554 271.5,150.5C 272.334,149.252 273.667,148.585 275.5,148.5C 281.808,149.321 288.141,149.654 294.5,149.5 Z"/></g>
<g><path style="opacity:0.996" fill="#7d4733" d="M 215.5,133.5 C 213.828,140.919 212.161,148.252 210.5,155.5C 210.467,147.654 212.134,140.32 215.5,133.5 Z"/></g>
<g><path style="opacity:0.996" fill="#4b3c38" d="M 339.5,149.5 C 341.273,150.314 341.773,151.648 341,153.5C 336.078,156.418 331.744,160.085 328,164.5C 318.628,177.268 308.795,189.601 298.5,201.5C 297.5,201.5 296.5,201.5 295.5,201.5C 295.351,200.448 295.517,199.448 296,198.5C 306.147,186.866 315.813,174.866 325,162.5C 329.432,157.56 334.265,153.227 339.5,149.5 Z"/></g>
<g><path style="opacity:0.996" fill="#4c3d38" d="M 142.5,151.5 C 147.165,154.166 149.832,158.166 150.5,163.5C 150.657,164.873 150.49,166.207 150,167.5C 148.523,163.015 145.857,159.349 142,156.5C 141.22,154.613 141.387,152.946 142.5,151.5 Z"/></g>
<g><path style="opacity:0.996" fill="#483e39" d="M 286.5,180.5 C 286.712,186.785 283.712,189.285 277.5,188C 271.976,181.975 265.976,176.475 259.5,171.5C 255.506,174.827 251.839,178.494 248.5,182.5C 246.833,182.5 245.167,182.5 243.5,182.5C 247.739,176.425 252.906,171.092 259,166.5C 266.033,170.524 272.199,175.691 277.5,182C 280.823,182.932 283.823,182.432 286.5,180.5 Z"/></g>
<g><path style="opacity:0.996" fill="#b28e50" d="M 310.5,153.5 C 298.756,174.764 284.09,193.931 266.5,211C 265.906,211.464 265.239,211.631 264.5,211.5C 264.539,210.417 264.873,209.417 265.5,208.5C 265.043,207.702 264.376,207.369 263.5,207.5C 266.757,203.528 267.257,199.195 265,194.5C 260.694,188.67 255.194,184.67 248.5,182.5C 251.839,178.494 255.506,174.827 259.5,171.5C 265.976,176.475 271.976,181.975 277.5,188C 283.712,189.285 286.712,186.785 286.5,180.5C 286.664,177.813 286.497,175.146 286,172.5C 281.163,166.477 274.997,162.81 267.5,161.5C 268.435,159.139 269.768,156.972 271.5,155C 277.819,154.923 284.152,155.09 290.5,155.5C 297.349,155.558 304.016,154.892 310.5,153.5 Z"/></g>
<g><path style="opacity:0.988" fill="#dac7a4" d="M 51.5,151.5 C 47.4579,159.945 43.7913,168.612 40.5,177.5C 38.4514,178.882 36.7847,180.548 35.5,182.5C 40.0508,171.731 45.3842,161.398 51.5,151.5 Z"/></g>
<g><path style="opacity:0.996" fill="#9c422c" d="M 167.5,161.5 C 165.059,171.591 164.059,181.924 164.5,192.5C 163.172,183.295 163.338,173.962 165,164.5C 165.377,163.058 166.21,162.058 167.5,161.5 Z"/></g>
<g><path style="opacity:0.996" fill="#493b38" d="M 263.5,207.5 C 264.376,207.369 265.043,207.702 265.5,208.5C 264.873,209.417 264.539,210.417 264.5,211.5C 264.167,212.5 263.5,213.167 262.5,213.5C 260.692,213.509 259.025,213.009 257.5,212C 251.684,204.518 245.517,197.352 239,190.5C 234.941,193.783 230.774,196.949 226.5,200C 224.091,201.707 221.425,202.54 218.5,202.5C 218.433,201.041 218.766,199.708 219.5,198.5C 226.074,194.295 232.574,189.962 239,185.5C 246.061,192.093 252.561,199.259 258.5,207C 260.134,207.494 261.801,207.66 263.5,207.5 Z"/></g>
<g><path style="opacity:0.996" fill="#453c39" d="M 192.5,198.5 C 193.5,198.5 194.5,198.5 195.5,198.5C 195.5,200.167 195.5,201.833 195.5,203.5C 188.119,204.686 180.786,206.186 173.5,208C 166.351,210.739 159.685,214.239 153.5,218.5C 151.303,218.152 149.47,217.152 148,215.5C 146.729,212.567 145.062,209.901 143,207.5C 142.506,205.866 142.34,204.199 142.5,202.5C 145.505,205.318 148.172,208.484 150.5,212C 151.5,212.167 152.5,212.333 153.5,212.5C 159.378,208.729 165.712,205.729 172.5,203.5C 176.083,202.993 179.417,201.993 182.5,200.5C 185.728,199.454 189.061,198.788 192.5,198.5 Z"/></g>
<g><path style="opacity:0.996" fill="#792b25" d="M 182.5,200.5 C 179.417,201.993 176.083,202.993 172.5,203.5C 172.611,202.883 172.944,202.383 173.5,202C 176.478,201.304 179.478,200.804 182.5,200.5 Z"/></g>
<g><path style="opacity:0.239" fill="#dccba9" d="M 407.5,135.5 C 410.367,136.768 411.034,138.768 409.5,141.5C 412.488,143.076 414.654,145.409 416,148.5C 419.347,159.941 421.681,171.607 423,183.5C 423.156,196.891 423.989,210.224 425.5,223.5C 423.955,222.77 423.122,221.437 423,219.5C 422.555,206.155 421.888,192.822 421,179.5C 418.797,171.281 417.13,162.948 416,154.5C 415.366,148.884 412.532,144.884 407.5,142.5C 408.04,141.252 408.707,140.085 409.5,139C 408.177,138.184 407.511,137.017 407.5,135.5 Z"/></g>
<g><path style="opacity:0.212" fill="#e4d8c0" d="M 34.5,183.5 C 35.0431,183.56 35.3764,183.893 35.5,184.5C 33.9779,187.64 33.1446,190.973 33,194.5C 32.6667,200.5 32.3333,206.5 32,212.5C 30.8333,213.667 29.6667,214.833 28.5,216C 30.2226,216.523 31.556,217.523 32.5,219C 28.5642,222.971 26.8976,227.805 27.5,233.5C 26.3622,230.696 26.1955,227.696 27,224.5C 27.6853,221.943 29.1853,220.109 31.5,219C 26.4688,217.013 26.3021,214.513 31,211.5C 31.3333,204.167 31.6667,196.833 32,189.5C 32.5725,187.359 33.4058,185.359 34.5,183.5 Z"/></g>
<g><path style="opacity:0.996" fill="#4b3a37" d="M 295.5,221.5 C 294.579,218.324 293.079,215.324 291,212.5C 289.951,211.483 288.784,211.316 287.5,212C 276.05,222.966 263.383,232.132 249.5,239.5C 245.651,241.481 241.651,241.814 237.5,240.5C 248.506,234.099 259.506,227.599 270.5,221C 276.354,216.235 282.021,211.235 287.5,206C 288.5,205.333 289.5,205.333 290.5,206C 294.413,210.423 296.079,215.59 295.5,221.5 Z"/></g>
<g><path style="opacity:0.996" fill="#a13525" d="M 192.5,198.5 C 193.568,197.566 194.901,197.232 196.5,197.5C 196.827,207.348 196.494,217.014 195.5,226.5C 195.5,218.833 195.5,211.167 195.5,203.5C 195.5,201.833 195.5,200.167 195.5,198.5C 194.5,198.5 193.5,198.5 192.5,198.5 Z"/></g>
<g><path style="opacity:0.996" fill="#b08e50" d="M 295.5,221.5 C 296.485,225.634 296.818,229.968 296.5,234.5C 280.863,236.231 265.196,237.897 249.5,239.5C 263.383,232.132 276.05,222.966 287.5,212C 288.784,211.316 289.951,211.483 291,212.5C 293.079,215.324 294.579,218.324 295.5,221.5 Z"/></g>
<g><path style="opacity:0.996" fill="#ab7845" d="M 210.5,155.5 C 209.755,185.335 209.755,215.001 210.5,244.5C 211.812,246.479 213.479,248.145 215.5,249.5C 213.708,249.366 212.042,249.699 210.5,250.5C 209.71,249.391 209.21,248.058 209,246.5C 208.828,253.013 208.328,259.347 207.5,265.5C 208.222,242.841 208.555,220.174 208.5,197.5C 209.151,183.402 209.817,169.402 210.5,155.5 Z"/></g>
<g><path style="opacity:0.996" fill="#664034" d="M 315.5,218.5 C 315.655,221.716 314.655,224.383 312.5,226.5C 311.828,223.058 312.828,220.391 315.5,218.5 Z"/></g>
<g><path style="opacity:0.996" fill="#433d3a" d="M 194.5,242.5 C 185.57,244.285 176.57,245.952 167.5,247.5C 165.273,246.599 164.273,244.933 164.5,242.5C 167.127,241.908 169.794,241.575 172.5,241.5C 179.755,239.782 187.089,238.449 194.5,237.5C 194.5,239.167 194.5,240.833 194.5,242.5 Z"/></g>
<g><path style="opacity:0.996" fill="#66302b" d="M 195.5,242.5 C 195.167,242.5 194.833,242.5 194.5,242.5C 194.5,240.833 194.5,239.167 194.5,237.5C 187.089,238.449 179.755,239.782 172.5,241.5C 179.726,238.455 187.393,236.789 195.5,236.5C 195.5,238.5 195.5,240.5 195.5,242.5 Z"/></g>
<g><path style="opacity:0.996" fill="#403a39" d="M 364.5,239.5 C 365.833,240.833 365.833,242.167 364.5,243.5C 349.038,244.137 333.705,244.803 318.5,245.5C 316.283,246.369 313.95,246.702 311.5,246.5C 311.5,244.5 311.5,242.5 311.5,240.5C 329.146,239.586 346.813,239.252 364.5,239.5 Z"/></g>
<g><path style="opacity:0.122" fill="#e2d4b9" d="M 425.5,223.5 C 428.559,227.937 431.392,232.603 434,237.5C 434.667,241.5 434.667,245.5 434,249.5C 433.426,251.492 432.259,252.992 430.5,254C 433.806,255.995 434.139,258.162 431.5,260.5C 431.916,257.64 430.916,255.474 428.5,254C 433.082,250.597 434.582,246.097 433,240.5C 429.955,235.077 427.455,229.411 425.5,223.5 Z"/></g>
<g><path style="opacity:0.996" fill="#433b39" d="M 282.5,243.5 C 287.167,243.5 291.833,243.5 296.5,243.5C 296.5,245.167 296.5,246.833 296.5,248.5C 294.5,248.5 292.5,248.5 290.5,248.5C 282.166,248.64 274.166,249.973 266.5,252.5C 262.131,252.467 257.798,252.8 253.5,253.5C 251.264,252.611 249.264,251.278 247.5,249.5C 259.117,247.127 270.784,245.127 282.5,243.5 Z"/></g>
<g><path style="opacity:0.996" fill="#645842" d="M 364.5,243.5 C 364.389,244.117 364.056,244.617 363.5,245C 348.504,245.5 333.504,245.667 318.5,245.5C 333.705,244.803 349.038,244.137 364.5,243.5 Z"/></g>
<g><path style="opacity:0.996" fill="#722c27" d="M 282.5,243.5 C 287.305,242.513 292.305,242.179 297.5,242.5C 297.5,244.5 297.5,246.5 297.5,248.5C 297.167,248.5 296.833,248.5 296.5,248.5C 296.5,246.833 296.5,245.167 296.5,243.5C 291.833,243.5 287.167,243.5 282.5,243.5 Z"/></g>
<g><path style="opacity:0.995" fill="#16130f" d="M 33.5,244.5 C 37.9573,250.604 39.6239,257.604 38.5,265.5C 33.4675,260.238 31.3009,253.905 32,246.5C 32.2784,245.584 32.7784,244.918 33.5,244.5 Z"/></g>
<g><path style="opacity:0.996" fill="#483d39" d="M 109.5,246.5 C 113.859,251.429 119.359,254.096 126,254.5C 132.292,253.236 138.459,251.402 144.5,249C 147.146,248.503 149.813,248.336 152.5,248.5C 152.784,250.415 152.451,252.081 151.5,253.5C 145.512,254.396 139.846,256.229 134.5,259C 129.89,260.29 125.223,260.624 120.5,260C 116.752,257.376 112.919,254.876 109,252.5C 106.986,250.03 107.153,248.03 109.5,246.5 Z"/></g>
<g><path style="opacity:0.996" fill="#433d3a" d="M 215.5,249.5 C 216.167,249.5 216.833,249.5 217.5,249.5C 217.611,250.117 217.944,250.617 218.5,251C 225.87,252.897 233.204,252.73 240.5,250.5C 241.167,250.5 241.5,250.833 241.5,251.5C 241.5,252.833 241.5,254.167 241.5,255.5C 233.158,256.746 224.825,256.746 216.5,255.5C 213.606,254.744 211.606,253.077 210.5,250.5C 212.042,249.699 213.708,249.366 215.5,249.5 Z"/></g>
<g><path style="opacity:0.996" fill="#8e2921" d="M 217.5,249.5 C 220.97,250.218 224.47,250.884 228,251.5C 231.333,250.833 234.667,250.167 238,249.5C 239.07,249.528 239.903,249.861 240.5,250.5C 233.204,252.73 225.87,252.897 218.5,251C 217.944,250.617 217.611,250.117 217.5,249.5 Z"/></g>
<g><path style="opacity:0.996" fill="#8b7449" d="M 290.5,248.5 C 282.782,250.747 274.782,252.08 266.5,252.5C 274.166,249.973 282.166,248.64 290.5,248.5 Z"/></g>
<g><path style="opacity:0.996" fill="#ab3c26" d="M 208.5,197.5 C 208.555,220.174 208.222,242.841 207.5,265.5C 207.537,285.846 207.037,306.179 206,326.5C 205.79,328.058 205.29,329.391 204.5,330.5C 205.19,285.993 206.523,241.659 208.5,197.5 Z"/></g>
<g><path style="opacity:0.408" fill="#a3a09c" d="M 27.5,235.5 C 30.2768,237.951 32.2768,240.951 33.5,244.5C 32.7784,244.918 32.2784,245.584 32,246.5C 31.3009,253.905 33.4675,260.238 38.5,265.5C 38.8333,266.833 39.1667,268.167 39.5,269.5C 38.8333,269.5 38.1667,269.5 37.5,269.5C 36.329,265.838 34.4957,262.504 32,259.5C 29.1669,254.036 29.0002,248.536 31.5,243C 29.5225,240.853 28.1892,238.353 27.5,235.5 Z"/></g>
<g><path style="opacity:0.996" fill="#b05b35" d="M 194.5,242.5 C 194.833,242.5 195.167,242.5 195.5,242.5C 195.71,251.05 195.043,259.384 193.5,267.5C 193.26,259.125 193.593,250.792 194.5,242.5 Z"/></g>
<g><path style="opacity:0.996" fill="#564138" d="M 241.5,251.5 C 246.104,263.451 251.771,274.951 258.5,286C 259.833,286.667 261.167,286.667 262.5,286C 264.827,283.477 266.493,280.643 267.5,277.5C 267.393,282.177 266.226,286.51 264,290.5C 261.79,291.749 259.624,291.582 257.5,290C 250.53,279.555 245.197,268.388 241.5,256.5C 236.686,257.244 231.852,257.911 227,258.5C 223.036,258.748 219.536,257.748 216.5,255.5C 224.825,256.746 233.158,256.746 241.5,255.5C 241.5,254.167 241.5,252.833 241.5,251.5 Z"/></g>
<g><path style="opacity:0.98" fill="#574b35" d="M 430.5,261.5 C 431.01,264.388 430.344,266.721 428.5,268.5C 427.99,265.612 428.656,263.279 430.5,261.5 Z"/></g>
<g><path style="opacity:0.266" fill="#ede5d1" d="M 37.5,269.5 C 38.1667,269.5 38.8333,269.5 39.5,269.5C 39.5,274.833 39.5,280.167 39.5,285.5C 39.5,287.5 39.5,289.5 39.5,291.5C 38.2929,284.361 37.6262,277.028 37.5,269.5 Z"/></g>
<g><path style="opacity:0.996" fill="#a97444" d="M 296.5,248.5 C 296.833,248.5 297.167,248.5 297.5,248.5C 297.437,258.346 297.77,268.179 298.5,278C 298.332,284.699 297.665,291.199 296.5,297.5C 296.5,281.167 296.5,264.833 296.5,248.5 Z"/></g>
<g><path style="opacity:0.341" fill="#dcd3c3" d="M 431.5,260.5 C 431.211,267.178 430.711,273.844 430,280.5C 427.516,289.149 425.683,297.816 424.5,306.5C 424.5,304.833 424.5,303.167 424.5,301.5C 425.479,298.375 425.813,295.042 425.5,291.5C 427.972,284.052 428.972,276.386 428.5,268.5C 430.344,266.721 431.01,264.388 430.5,261.5C 430.5,260.833 430.833,260.5 431.5,260.5 Z"/></g>
<g><path style="opacity:0.841" fill="#d1bb92" d="M 39.5,285.5 C 41.1909,292.636 42.5242,299.97 43.5,307.5C 42.8333,307.5 42.1667,307.5 41.5,307.5C 39.8224,302.432 39.1557,297.098 39.5,291.5C 39.5,289.5 39.5,287.5 39.5,285.5 Z"/></g>
<g><path style="opacity:0.996" fill="#4e3e38" d="M 168.5,256.5 C 166.279,269.364 162.946,281.864 158.5,294C 154.27,301.561 149.27,308.561 143.5,315C 137.5,319.667 131.5,324.333 125.5,329C 119.45,332.962 117.783,331.795 120.5,325.5C 136.711,317.457 149.211,305.457 158,289.5C 160.543,279.777 163.21,270.111 166,260.5C 166.2,258.68 167.034,257.347 168.5,256.5 Z"/></g>
<g><path style="opacity:0.28" fill="#bcb7ae" d="M 41.5,307.5 C 42.1667,307.5 42.8333,307.5 43.5,307.5C 44.1667,312.5 44.8333,317.5 45.5,322.5C 46.0369,327.851 46.7035,333.184 47.5,338.5C 44.2868,328.528 42.2868,318.195 41.5,307.5 Z"/></g>
<g><path style="opacity:0.012" fill="#9e9e9e" d="M 424.5,301.5 C 424.5,303.167 424.5,304.833 424.5,306.5C 416.492,325.516 407.159,343.85 396.5,361.5C 396.687,359.436 397.187,357.436 398,355.5C 405.549,342.169 412.716,328.669 419.5,315C 421.378,310.442 423.044,305.942 424.5,301.5 Z"/></g>
<g><path style="opacity:0.997" fill="#080705" d="M 425.5,291.5 C 425.813,295.042 425.479,298.375 424.5,301.5C 423.044,305.942 421.378,310.442 419.5,315C 412.716,328.669 405.549,342.169 398,355.5C 397.187,357.436 396.687,359.436 396.5,361.5C 395.883,361.611 395.383,361.944 395,362.5C 394.503,364.81 394.337,367.143 394.5,369.5C 391.68,369.248 389.014,369.748 386.5,371C 373.887,386.284 358.887,398.618 341.5,408C 340.748,408.671 340.414,409.504 340.5,410.5C 336.783,411.527 333.45,413.361 330.5,416C 323.712,421.048 317.379,426.548 311.5,432.5C 309.5,431.5 307.5,430.5 305.5,429.5C 301.542,433.959 296.542,435.626 290.5,434.5C 286.094,434.252 281.76,433.585 277.5,432.5C 273.681,431.834 269.681,431.501 265.5,431.5C 259.26,431.333 253.26,432 247.5,433.5C 238.163,434.795 228.83,434.795 219.5,433.5C 217.491,432.416 215.324,431.416 213,430.5C 207.155,433.997 200.988,436.664 194.5,438.5C 188.185,439.11 181.851,439.443 175.5,439.5C 170.386,436.944 165.053,434.944 159.5,433.5C 155.966,430.169 151.633,428.169 146.5,427.5C 146.047,426.542 145.381,425.708 144.5,425C 140.761,423.457 137.094,421.957 133.5,420.5C 131.582,417.862 128.915,416.195 125.5,415.5C 123.597,412.542 120.93,410.542 117.5,409.5C 114.204,405.702 110.704,402.036 107,398.5C 106.121,395.182 105.287,391.848 104.5,388.5C 102.925,387.544 101.258,386.877 99.5,386.5C 99.3893,385.883 99.056,385.383 98.5,385C 95.1832,384.502 91.8499,384.335 88.5,384.5C 88.5,382.833 88.5,381.167 88.5,379.5C 86.5,379.5 84.5,379.5 82.5,379.5C 81.7439,376.606 80.0772,374.606 77.5,373.5C 76.5084,373.672 75.8417,373.338 75.5,372.5C 74.9653,370.554 73.632,369.554 71.5,369.5C 66.5726,364.911 61.5726,360.244 56.5,355.5C 55.7691,353.599 55.7691,351.599 56.5,349.5C 55.5,349.5 54.5,349.5 53.5,349.5C 51.4847,345.814 49.4847,342.148 47.5,338.5C 46.7035,333.184 46.0369,327.851 45.5,322.5C 47.4189,326.09 50.0855,329.09 53.5,331.5C 52.5153,333.098 52.3486,334.765 53,336.5C 59.3205,343.903 66.8205,349.737 75.5,354C 77.1667,356.333 78.8333,358.667 80.5,361C 82.1341,361.494 83.8008,361.66 85.5,361.5C 85.2865,363.144 85.6198,364.644 86.5,366C 91.8466,365.975 96.8466,367.142 101.5,369.5C 102.252,373.192 103.086,376.858 104,380.5C 123.815,398.49 146.315,411.99 171.5,421C 175.097,421.972 178.764,422.472 182.5,422.5C 191.711,421.368 200.378,418.701 208.5,414.5C 211.794,413.481 215.128,413.481 218.5,414.5C 224.107,415.883 229.941,416.55 236,416.5C 251.499,414.856 266.999,414.522 282.5,415.5C 291.73,419.307 300.063,417.973 307.5,411.5C 309.347,412.186 311.014,413.186 312.5,414.5C 329.726,399.548 348.059,386.048 367.5,374C 374.779,366.721 382.113,359.387 389.5,352C 392.014,350.748 394.68,350.248 397.5,350.5C 397.336,347.813 397.503,345.146 398,342.5C 401.068,336.701 404.401,331.034 408,325.5C 413.145,314.541 418.312,303.541 423.5,292.5C 423.957,291.702 424.624,291.369 425.5,291.5 Z"/></g>
<g><path style="opacity:0.996" fill="#4b3f39" d="M 185.5,322.5 C 186.852,327.411 189.019,332.077 192,336.5C 197.71,342.198 201.877,341.198 204.5,333.5C 204.571,338.405 202.904,342.572 199.5,346C 198.167,346.667 196.833,346.667 195.5,346C 191.948,342.394 189.281,338.227 187.5,333.5C 186.079,329.973 185.412,326.306 185.5,322.5 Z"/></g>
<g><path style="opacity:0.051" fill="#aeaeae" d="M 47.5,338.5 C 49.4847,342.148 51.4847,345.814 53.5,349.5C 49.202,347.248 47.202,343.581 47.5,338.5 Z"/></g>
<g><path style="opacity:0.996" fill="#4c3f39" d="M 263.5,322.5 C 276.144,328.973 286.478,338.14 294.5,350C 295.729,350.781 297.062,351.281 298.5,351.5C 303.558,348.937 307.058,344.937 309,339.5C 310.791,333.574 312.624,327.907 314.5,322.5C 313.234,333.13 310.067,343.13 305,352.5C 302.838,356.368 299.672,357.868 295.5,357C 286.61,344.612 275.61,334.445 262.5,326.5C 262.167,325.833 261.833,325.167 261.5,324.5C 261.747,323.287 262.414,322.62 263.5,322.5 Z"/></g>
<g><path style="opacity:0.22" fill="#a5a5a5" d="M 53.5,349.5 C 54.5,349.5 55.5,349.5 56.5,349.5C 55.7691,351.599 55.7691,353.599 56.5,355.5C 61.5726,360.244 66.5726,364.911 71.5,369.5C 65.2133,366.39 59.7133,362.057 55,356.5C 53.1723,354.597 53.339,352.764 55.5,351C 54.5842,350.722 53.9175,350.222 53.5,349.5 Z"/></g>
<g><path style="opacity:0.059" fill="#aeaeae" d="M 71.5,369.5 C 73.632,369.554 74.9653,370.554 75.5,372.5C 73.368,372.446 72.0347,371.446 71.5,369.5 Z"/></g>
<g><path style="opacity:0.098" fill="#a1a1a1" d="M 396.5,361.5 C 395.572,364.747 395.238,367.913 395.5,371C 394.101,371.595 392.768,371.428 391.5,370.5C 389.37,371.467 387.37,372.634 385.5,374C 380.017,380.65 374.017,386.817 367.5,392.5C 358.959,399.265 349.959,405.265 340.5,410.5C 340.414,409.504 340.748,408.671 341.5,408C 358.887,398.618 373.887,386.284 386.5,371C 389.014,369.748 391.68,369.248 394.5,369.5C 394.337,367.143 394.503,364.81 395,362.5C 395.383,361.944 395.883,361.611 396.5,361.5 Z"/></g>
<g><path style="opacity:0.302" fill="#a0a0a0" d="M 77.5,373.5 C 80.0772,374.606 81.7439,376.606 82.5,379.5C 84.0419,380.163 85.7086,380.83 87.5,381.5C 87.3764,382.107 87.0431,382.44 86.5,382.5C 84.8627,382.705 83.196,382.205 81.5,381C 80.0268,378.552 78.6935,376.052 77.5,373.5 Z"/></g>
<g><path style="opacity:0.318" fill="#545454" d="M 82.5,379.5 C 84.5,379.5 86.5,379.5 88.5,379.5C 88.5,381.167 88.5,382.833 88.5,384.5C 91.8499,384.335 95.1832,384.502 98.5,385C 99.056,385.383 99.3893,385.883 99.5,386.5C 95.9009,385.656 92.2343,385.323 88.5,385.5C 87.5987,384.71 86.9321,383.71 86.5,382.5C 87.0431,382.44 87.3764,382.107 87.5,381.5C 85.7086,380.83 84.0419,380.163 82.5,379.5 Z"/></g>
<g><path style="opacity:0.027" fill="#a5a5a5" d="M 88.5,385.5 C 92.2343,385.323 95.9009,385.656 99.5,386.5C 101.258,386.877 102.925,387.544 104.5,388.5C 105.287,391.848 106.121,395.182 107,398.5C 110.704,402.036 114.204,405.702 117.5,409.5C 109.46,405.125 104.46,398.459 102.5,389.5C 97.9322,387.365 93.2655,386.031 88.5,385.5 Z"/></g>
<g><path style="opacity:0.02" fill="#929292" d="M 117.5,409.5 C 120.93,410.542 123.597,412.542 125.5,415.5C 122.109,414.471 119.443,412.471 117.5,409.5 Z"/></g>
<g><path style="opacity:0.224" fill="#9f9f9f" d="M 340.5,410.5 C 331.305,417.283 322.638,424.783 314.5,433C 311.412,433.847 308.579,433.347 306,431.5C 304.117,434.024 301.617,435.358 298.5,435.5C 295.615,435.806 292.948,435.473 290.5,434.5C 296.542,435.626 301.542,433.959 305.5,429.5C 307.5,430.5 309.5,431.5 311.5,432.5C 317.379,426.548 323.712,421.048 330.5,416C 333.45,413.361 336.783,411.527 340.5,410.5 Z"/></g>
<g><path style="opacity:0.996" fill="#544425" d="M 218.5,414.5 C 215.128,413.481 211.794,413.481 208.5,414.5C 209.312,413.007 210.645,412.34 212.5,412.5C 214.799,412.599 216.799,413.266 218.5,414.5 Z"/></g>
<g><path style="opacity:0.996" fill="#866c3c" d="M 282.5,415.5 C 266.999,414.522 251.499,414.856 236,416.5C 229.941,416.55 224.107,415.883 218.5,414.5C 238.839,414.203 259.172,414.037 279.5,414C 280.737,414.232 281.737,414.732 282.5,415.5 Z"/></g>
<g><path style="opacity:0.055" fill="#a4a4a4" d="M 125.5,415.5 C 128.915,416.195 131.582,417.862 133.5,420.5C 130.296,419.617 127.629,417.95 125.5,415.5 Z"/></g>
<g><path style="opacity:0.361" fill="#8e8e8e" d="M 133.5,420.5 C 137.094,421.957 140.761,423.457 144.5,425C 145.381,425.708 146.047,426.542 146.5,427.5C 141.68,425.926 137.347,423.593 133.5,420.5 Z"/></g>
<g><path style="opacity:0.053" fill="#90908f" d="M 146.5,427.5 C 151.633,428.169 155.966,430.169 159.5,433.5C 158.127,433.657 156.793,433.49 155.5,433C 152.404,431.128 149.404,429.295 146.5,427.5 Z"/></g>
<g><path style="opacity:0.678" fill="#525252" d="M 277.5,432.5 C 267.486,432.501 257.486,432.834 247.5,433.5C 253.26,432 259.26,431.333 265.5,431.5C 269.681,431.501 273.681,431.834 277.5,432.5 Z"/></g>
<g><path style="opacity:0.282" fill="#a1a1a1" d="M 219.5,433.5 C 217.266,433.62 215.099,433.287 213,432.5C 206.092,436.017 198.925,438.851 191.5,441C 185.984,441.817 180.65,441.651 175.5,440.5C 180.511,440.666 185.511,440.499 190.5,440C 192.058,439.79 193.391,439.29 194.5,438.5C 200.988,436.664 207.155,433.997 213,430.5C 215.324,431.416 217.491,432.416 219.5,433.5 Z"/></g>
<g><path style="opacity:0.192" fill="#c1c1c1" d="M 277.5,432.5 C 281.76,433.585 286.094,434.252 290.5,434.5C 292.948,435.473 295.615,435.806 298.5,435.5C 297.469,436.249 296.302,436.915 295,437.5C 286.356,435.143 277.523,433.81 268.5,433.5C 253.536,435.178 238.536,435.678 223.5,435C 221.942,434.79 220.609,434.29 219.5,433.5C 228.83,434.795 238.163,434.795 247.5,433.5C 257.486,432.834 267.486,432.501 277.5,432.5 Z"/></g>
<g><path style="opacity:0.306" fill="#a2a2a2" d="M 159.5,433.5 C 165.053,434.944 170.386,436.944 175.5,439.5C 175.5,439.833 175.5,440.167 175.5,440.5C 169.553,439.305 164.22,436.972 159.5,433.5 Z"/></g>
<g><path style="opacity:0.747" fill="#454545" d="M 194.5,438.5 C 193.391,439.29 192.058,439.79 190.5,440C 185.511,440.499 180.511,440.666 175.5,440.5C 175.5,440.167 175.5,439.833 175.5,439.5C 181.851,439.443 188.185,439.11 194.5,438.5 Z"/></g>
</svg>
